solid Boom
facet normal 0.0 0.0 -1.0
  outer loop
    vertex 61.03474859539848 164.77544349540338 0.0
    vertex 61.19988912614916 156.19131285115037 0.0
    vertex 61.11875 155.575 0.0
  endloop
endfacet
facet normal 0.0 0.0 -1.0
  outer loop
    vertex 61.19988912614916 156.19131285115037 0.0
    vertex 61.03474859539848 164.77544349540338 0.0
    vertex 63.5 165.1 0.0
  endloop
endfacet
facet normal 0.0 0.0 -1.0
  outer loop
    vertex 61.19988912614916 156.19131285115037 0.0
    vertex 63.5 165.1 0.0
    vertex 61.4377770072383 156.765625 0.0
  endloop
endfacet
facet normal 0.0 0.0 -1.0
  outer loop
    vertex 61.4377770072383 156.765625 0.0
    vertex 63.5 165.1 0.0
    vertex 61.81620197729953 157.25879802270046 0.0
  endloop
endfacet
facet normal 0.0 0.0 -1.0
  outer loop
    vertex 61.81620197729953 157.25879802270046 0.0
    vertex 63.5 165.1 0.0
    vertex 62.309374999999996 157.63722299276168 0.0
  endloop
endfacet
facet normal 0.0 0.0 -1.0
  outer loop
    vertex 62.309374999999996 157.63722299276168 0.0
    vertex 63.5 165.1 0.0
    vertex 62.88368714884962 157.87511087385084 0.0
  endloop
endfacet
facet normal 0.0 0.0 -1.0
  outer loop
    vertex 62.88368714884962 157.87511087385084 0.0
    vertex 63.5 165.1 0.0
    vertex 63.5 157.95624999999998 0.0
  endloop
endfacet
facet normal 0.0 0.0 -1.0
  outer loop
    vertex 63.5 157.95624999999998 0.0
    vertex 63.5 165.1 0.0
    vertex 65.9652514046015 164.77544349540338 0.0
  endloop
endfacet
facet normal 0.0 0.0 -1.0
  outer loop
    vertex 63.5 157.95624999999998 0.0
    vertex 65.9652514046015 164.77544349540338 0.0
    vertex 64.11631285115038 157.87511087385084 0.0
  endloop
endfacet
facet normal 0.0 0.0 -1.0
  outer loop
    vertex 64.11631285115038 157.87511087385084 0.0
    vertex 65.9652514046015 164.77544349540338 0.0
    vertex 64.690625 157.63722299276168 0.0
  endloop
endfacet
facet normal 0.0 0.0 -1.0
  outer loop
    vertex 64.690625 157.63722299276168 0.0
    vertex 65.9652514046015 164.77544349540338 0.0
    vertex 65.18379802270046 157.25879802270046 0.0
  endloop
endfacet
facet normal 0.0 0.0 -1.0
  outer loop
    vertex 65.18379802270046 157.25879802270046 0.0
    vertex 65.9652514046015 164.77544349540338 0.0
    vertex 65.56222299276169 156.765625 0.0
  endloop
endfacet
facet normal 0.0 0.0 -1.0
  outer loop
    vertex 65.56222299276169 156.765625 0.0
    vertex 65.9652514046015 164.77544349540338 0.0
    vertex 65.80011087385084 156.19131285115037 0.0
  endloop
endfacet
facet normal 0.0 0.0 -1.0
  outer loop
    vertex 65.80011087385084 156.19131285115037 0.0
    vertex 65.9652514046015 164.77544349540338 0.0
    vertex 65.88125 155.575 0.0
  endloop
endfacet
facet normal 0.0 0.0 -1.0
  outer loop
    vertex 0.3245565045966254 11.990251404601517 0.0
    vertex 0.32455650459662255 7.059748595398495 0.0
    vertex -1.4099832412739487e-15 9.525000000000002 0.0
  endloop
endfacet
facet normal 0.0 0.0 -1.0
  outer loop
    vertex 0.32455650459662255 7.059748595398495 0.0
    vertex 0.3245565045966254 11.990251404601517 0.0
    vertex 1.2761080289532174 4.762500000000008 0.0
  endloop
endfacet
facet normal 0.0 0.0 -1.0
  outer loop
    vertex 1.2761080289532174 4.762500000000008 0.0
    vertex 0.3245565045966254 11.990251404601517 0.0
    vertex 1.276108028953223 14.287500000000005 0.0
  endloop
endfacet
facet normal 0.0 0.0 -1.0
  outer loop
    vertex 1.2761080289532174 4.762500000000008 0.0
    vertex 1.276108028953223 14.287500000000005 0.0
    vertex 2.7898079091981325 2.7898079091981365 0.0
  endloop
endfacet
facet normal 0.0 0.0 -1.0
  outer loop
    vertex 2.7898079091981325 2.7898079091981365 0.0
    vertex 1.276108028953223 14.287500000000005 0.0
    vertex 2.7898079091981383 16.26019209080187 0.0
  endloop
endfacet
facet normal 0.0 0.0 -1.0
  outer loop
    vertex 2.7898079091981325 2.7898079091981365 0.0
    vertex 2.7898079091981383 16.26019209080187 0.0
    vertex 4.762499999999995 1.2761080289532258 0.0
  endloop
endfacet
facet normal 0.0 0.0 -1.0
  outer loop
    vertex 4.762499999999995 1.2761080289532258 0.0
    vertex 2.7898079091981383 16.26019209080187 0.0
    vertex 7.224889126149155 10.14131285115038 0.0
  endloop
endfacet
facet normal 0.0 0.0 -1.0
  outer loop
    vertex 7.224889126149155 10.14131285115038 0.0
    vertex 2.7898079091981383 16.26019209080187 0.0
    vertex 7.462777007238305 10.715625000000003 0.0
  endloop
endfacet
facet normal 0.0 0.0 -1.0
  outer loop
    vertex 7.462777007238305 10.715625000000003 0.0
    vertex 2.7898079091981383 16.26019209080187 0.0
    vertex 44.449999999999996 66.675 0.0
  endloop
endfacet
facet normal 0.0 0.0 -1.0
  outer loop
    vertex 4.762499999999995 1.2761080289532258 0.0
    vertex 7.224889126149155 10.14131285115038 0.0
    vertex 7.14375 9.525 0.0
  endloop
endfacet
facet normal 0.0 0.0 -1.0
  outer loop
    vertex 4.762499999999995 1.2761080289532258 0.0
    vertex 7.14375 9.525 0.0
    vertex 7.0597485953984815 0.32455650459662816 0.0
  endloop
endfacet
facet normal 0.0 0.0 -1.0
  outer loop
    vertex 7.462777007238305 10.715625000000003 0.0
    vertex 44.449999999999996 66.675 0.0
    vertex 7.841201977299534 11.208798022700467 0.0
  endloop
endfacet
facet normal 0.0 0.0 -1.0
  outer loop
    vertex 7.841201977299534 11.208798022700467 0.0
    vertex 44.449999999999996 66.675 0.0
    vertex 8.334375 11.587222992761696 0.0
  endloop
endfacet
facet normal 0.0 0.0 -1.0
  outer loop
    vertex 8.334375 11.587222992761696 0.0
    vertex 44.449999999999996 66.675 0.0
    vertex 8.908687148849623 11.825110873850845 0.0
  endloop
endfacet
facet normal 0.0 0.0 -1.0
  outer loop
    vertex 8.908687148849623 11.825110873850845 0.0
    vertex 44.449999999999996 66.675 0.0
    vertex 9.524999999999999 11.90625 0.0
  endloop
endfacet
facet normal 0.0 0.0 -1.0
  outer loop
    vertex 9.524999999999999 11.90625 0.0
    vertex 44.449999999999996 66.675 0.0
    vertex 10.141312851150378 11.825110873850845 0.0
  endloop
endfacet
facet normal 0.0 0.0 -1.0
  outer loop
    vertex 10.141312851150378 11.825110873850845 0.0
    vertex 44.449999999999996 66.675 0.0
    vertex 10.715625 11.587222992761696 0.0
  endloop
endfacet
facet normal 0.0 0.0 -1.0
  outer loop
    vertex 10.715625 11.587222992761696 0.0
    vertex 44.449999999999996 66.675 0.0
    vertex 11.208798022700465 11.208798022700467 0.0
  endloop
endfacet
facet normal 0.0 0.0 -1.0
  outer loop
    vertex 11.208798022700465 11.208798022700467 0.0
    vertex 44.449999999999996 66.675 0.0
    vertex 11.587222992761694 10.715625000000001 0.0
  endloop
endfacet
facet normal 0.0 0.0 -1.0
  outer loop
    vertex 11.587222992761694 10.715625000000001 0.0
    vertex 44.449999999999996 66.675 0.0
    vertex 11.825110873850843 10.141312851150378 0.0
  endloop
endfacet
facet normal 0.0 0.0 -1.0
  outer loop
    vertex 11.825110873850843 10.141312851150378 0.0
    vertex 44.449999999999996 66.675 0.0
    vertex 11.90625 9.525 0.0
  endloop
endfacet
facet normal 0.0 0.0 -1.0
  outer loop
    vertex 11.90625 9.525 0.0
    vertex 44.449999999999996 66.675 0.0
    vertex 11.990251404601509 0.3245565045966254 0.0
  endloop
endfacet
facet normal 0.0 0.0 -1.0
  outer loop
    vertex 11.990251404601509 0.3245565045966254 0.0
    vertex 44.449999999999996 66.675 0.0
    vertex 14.2875 1.276108028953223 0.0
  endloop
endfacet
facet normal 0.0 0.0 -1.0
  outer loop
    vertex 14.2875 1.276108028953223 0.0
    vertex 44.449999999999996 66.675 0.0
    vertex 16.260192090801866 2.7898079091981365 0.0
  endloop
endfacet
facet normal 0.0 0.0 -1.0
  outer loop
    vertex 16.260192090801866 2.7898079091981365 0.0
    vertex 44.449999999999996 66.675 0.0
    vertex 73.02499999999999 53.974999999999994 0.0
  endloop
endfacet
facet normal 0.0 0.0 -1.0
  outer loop
    vertex 73.02499999999999 53.974999999999994 0.0
    vertex 44.449999999999996 66.675 0.0
    vertex 53.974999999999994 155.575 0.0
  endloop
endfacet
facet normal 0.0 0.0 -1.0
  outer loop
    vertex 73.02499999999999 53.974999999999994 0.0
    vertex 53.974999999999994 155.575 0.0
    vertex 54.29955650459662 158.0402514046015 0.0
  endloop
endfacet
facet normal 0.0 0.0 -1.0
  outer loop
    vertex 73.02499999999999 53.974999999999994 0.0
    vertex 54.29955650459662 158.0402514046015 0.0
    vertex 55.25110802895322 160.33749999999998 0.0
  endloop
endfacet
facet normal 0.0 0.0 -1.0
  outer loop
    vertex 73.02499999999999 53.974999999999994 0.0
    vertex 55.25110802895322 160.33749999999998 0.0
    vertex 56.76480790919813 162.31019209080188 0.0
  endloop
endfacet
facet normal 0.0 0.0 -1.0
  outer loop
    vertex 73.02499999999999 53.974999999999994 0.0
    vertex 56.76480790919813 162.31019209080188 0.0
    vertex 58.7375 163.82389197104678 0.0
  endloop
endfacet
facet normal 0.0 0.0 -1.0
  outer loop
    vertex 73.02499999999999 53.974999999999994 0.0
    vertex 58.7375 163.82389197104678 0.0
    vertex 61.11875 155.575 0.0
  endloop
endfacet
facet normal 0.0 0.0 -1.0
  outer loop
    vertex 61.11875 155.575 0.0
    vertex 58.7375 163.82389197104678 0.0
    vertex 61.03474859539848 164.77544349540338 0.0
  endloop
endfacet
facet normal 0.0 0.0 -1.0
  outer loop
    vertex 73.02499999999999 53.974999999999994 0.0
    vertex 61.11875 155.575 0.0
    vertex 61.19988912614916 154.9586871488496 0.0
  endloop
endfacet
facet normal 0.0 0.0 -1.0
  outer loop
    vertex 73.02499999999999 53.974999999999994 0.0
    vertex 61.19988912614916 154.9586871488496 0.0
    vertex 61.4377770072383 154.38437499999998 0.0
  endloop
endfacet
facet normal 0.0 0.0 -1.0
  outer loop
    vertex 73.02499999999999 53.974999999999994 0.0
    vertex 61.4377770072383 154.38437499999998 0.0
    vertex 61.81620197729953 153.89120197729954 0.0
  endloop
endfacet
facet normal 0.0 0.0 -1.0
  outer loop
    vertex 73.02499999999999 53.974999999999994 0.0
    vertex 61.81620197729953 153.89120197729954 0.0
    vertex 62.309374999999996 153.5127770072383 0.0
  endloop
endfacet
facet normal 0.0 0.0 -1.0
  outer loop
    vertex 73.02499999999999 53.974999999999994 0.0
    vertex 62.309374999999996 153.5127770072383 0.0
    vertex 62.88368714884962 153.27488912614916 0.0
  endloop
endfacet
facet normal 0.0 0.0 -1.0
  outer loop
    vertex 73.02499999999999 53.974999999999994 0.0
    vertex 62.88368714884962 153.27488912614916 0.0
    vertex 63.5 153.19375 0.0
  endloop
endfacet
facet normal 0.0 0.0 -1.0
  outer loop
    vertex 73.02499999999999 53.974999999999994 0.0
    vertex 63.5 153.19375 0.0
    vertex 64.11631285115038 153.27488912614916 0.0
  endloop
endfacet
facet normal 0.0 0.0 -1.0
  outer loop
    vertex 73.02499999999999 53.974999999999994 0.0
    vertex 64.11631285115038 153.27488912614916 0.0
    vertex 64.690625 153.5127770072383 0.0
  endloop
endfacet
facet normal 0.0 0.0 -1.0
  outer loop
    vertex 73.02499999999999 53.974999999999994 0.0
    vertex 64.690625 153.5127770072383 0.0
    vertex 65.18379802270046 153.89120197729954 0.0
  endloop
endfacet
facet normal 0.0 0.0 -1.0
  outer loop
    vertex 73.02499999999999 53.974999999999994 0.0
    vertex 65.18379802270046 153.89120197729954 0.0
    vertex 65.56222299276169 154.38437499999998 0.0
  endloop
endfacet
facet normal 0.0 0.0 -1.0
  outer loop
    vertex 73.02499999999999 53.974999999999994 0.0
    vertex 65.56222299276169 154.38437499999998 0.0
    vertex 65.80011087385084 154.9586871488496 0.0
  endloop
endfacet
facet normal 0.0 0.0 -1.0
  outer loop
    vertex 73.02499999999999 53.974999999999994 0.0
    vertex 65.80011087385084 154.9586871488496 0.0
    vertex 65.88125 155.575 0.0
  endloop
endfacet
facet normal 0.0 0.0 -1.0
  outer loop
    vertex 73.02499999999999 53.974999999999994 0.0
    vertex 65.88125 155.575 0.0
    vertex 65.9652514046015 164.77544349540338 0.0
  endloop
endfacet
facet normal 0.0 0.0 -1.0
  outer loop
    vertex 73.02499999999999 53.974999999999994 0.0
    vertex 65.9652514046015 164.77544349540338 0.0
    vertex 68.2625 163.82389197104678 0.0
  endloop
endfacet
facet normal 0.0 0.0 -1.0
  outer loop
    vertex 73.02499999999999 53.974999999999994 0.0
    vertex 68.2625 163.82389197104678 0.0
    vertex 70.23519209080186 162.31019209080188 0.0
  endloop
endfacet
facet normal 0.0 0.0 -1.0
  outer loop
    vertex 73.02499999999999 53.974999999999994 0.0
    vertex 70.23519209080186 162.31019209080188 0.0
    vertex 71.74889197104677 160.33749999999998 0.0
  endloop
endfacet
facet normal 0.0 0.0 -1.0
  outer loop
    vertex 73.02499999999999 53.974999999999994 0.0
    vertex 71.74889197104677 160.33749999999998 0.0
    vertex 72.70044349540338 158.0402514046015 0.0
  endloop
endfacet
facet normal 0.0 0.0 -1.0
  outer loop
    vertex 73.02499999999999 53.974999999999994 0.0
    vertex 72.70044349540338 158.0402514046015 0.0
    vertex 73.02499999999999 155.575 0.0
  endloop
endfacet
facet normal 0.0 0.0 -1.0
  outer loop
    vertex 7.0597485953984815 0.32455650459662816 0.0
    vertex 7.224889126149155 8.908687148849625 0.0
    vertex 9.524999999999999 1.4099832412739487e-15 0.0
  endloop
endfacet
facet normal 0.0 0.0 -1.0
  outer loop
    vertex 7.224889126149155 8.908687148849625 0.0
    vertex 7.0597485953984815 0.32455650459662816 0.0
    vertex 7.14375 9.525 0.0
  endloop
endfacet
facet normal 0.0 0.0 -1.0
  outer loop
    vertex 9.524999999999999 1.4099832412739487e-15 0.0
    vertex 7.224889126149155 8.908687148849625 0.0
    vertex 7.462777007238305 8.334375000000003 0.0
  endloop
endfacet
facet normal 0.0 0.0 -1.0
  outer loop
    vertex 9.524999999999999 1.4099832412739487e-15 0.0
    vertex 7.462777007238305 8.334375000000003 0.0
    vertex 7.841201977299534 7.841201977299535 0.0
  endloop
endfacet
facet normal 0.0 0.0 -1.0
  outer loop
    vertex 9.524999999999999 1.4099832412739487e-15 0.0
    vertex 7.841201977299534 7.841201977299535 0.0
    vertex 8.334374999999998 7.462777007238308 0.0
  endloop
endfacet
facet normal 0.0 0.0 -1.0
  outer loop
    vertex 9.524999999999999 1.4099832412739487e-15 0.0
    vertex 8.334374999999998 7.462777007238308 0.0
    vertex 8.90868714884962 7.224889126149159 0.0
  endloop
endfacet
facet normal 0.0 0.0 -1.0
  outer loop
    vertex 9.524999999999999 1.4099832412739487e-15 0.0
    vertex 8.90868714884962 7.224889126149159 0.0
    vertex 9.524999999999999 7.143750000000001 0.0
  endloop
endfacet
facet normal 0.0 0.0 -1.0
  outer loop
    vertex 9.524999999999999 1.4099832412739487e-15 0.0
    vertex 9.524999999999999 7.143750000000001 0.0
    vertex 10.141312851150378 7.224889126149157 0.0
  endloop
endfacet
facet normal 0.0 0.0 -1.0
  outer loop
    vertex 9.524999999999999 1.4099832412739487e-15 0.0
    vertex 10.141312851150378 7.224889126149157 0.0
    vertex 11.990251404601509 0.3245565045966254 0.0
  endloop
endfacet
facet normal 0.0 0.0 -1.0
  outer loop
    vertex 11.990251404601509 0.3245565045966254 0.0
    vertex 10.141312851150378 7.224889126149157 0.0
    vertex 10.715625 7.462777007238307 0.0
  endloop
endfacet
facet normal 0.0 0.0 -1.0
  outer loop
    vertex 11.990251404601509 0.3245565045966254 0.0
    vertex 10.715625 7.462777007238307 0.0
    vertex 11.208798022700465 7.841201977299534 0.0
  endloop
endfacet
facet normal 0.0 0.0 -1.0
  outer loop
    vertex 11.990251404601509 0.3245565045966254 0.0
    vertex 11.208798022700465 7.841201977299534 0.0
    vertex 11.587222992761694 8.334375000000001 0.0
  endloop
endfacet
facet normal 0.0 0.0 -1.0
  outer loop
    vertex 11.990251404601509 0.3245565045966254 0.0
    vertex 11.587222992761694 8.334375000000001 0.0
    vertex 11.825110873850843 8.908687148849623 0.0
  endloop
endfacet
facet normal 0.0 0.0 -1.0
  outer loop
    vertex 11.990251404601509 0.3245565045966254 0.0
    vertex 11.825110873850843 8.908687148849623 0.0
    vertex 11.90625 9.525 0.0
  endloop
endfacet
facet normal 0.0 0.0 1.0
  outer loop
    vertex 0.32455650459662255 7.059748595398495 9.524999999999999
    vertex 0.3245565045966254 11.990251404601517 9.524999999999999
    vertex -1.4099832412739487e-15 9.525000000000002 9.524999999999999
  endloop
endfacet
facet normal 0.0 0.0 1.0
  outer loop
    vertex 0.3245565045966254 11.990251404601517 9.524999999999999
    vertex 0.32455650459662255 7.059748595398495 9.524999999999999
    vertex 1.2761080289532174 4.762500000000008 9.524999999999999
  endloop
endfacet
facet normal 0.0 0.0 1.0
  outer loop
    vertex 0.3245565045966254 11.990251404601517 9.524999999999999
    vertex 1.2761080289532174 4.762500000000008 9.524999999999999
    vertex 1.276108028953223 14.287500000000005 9.524999999999999
  endloop
endfacet
facet normal 0.0 0.0 1.0
  outer loop
    vertex 1.276108028953223 14.287500000000005 9.524999999999999
    vertex 1.2761080289532174 4.762500000000008 9.524999999999999
    vertex 2.7898079091981325 2.7898079091981365 9.524999999999999
  endloop
endfacet
facet normal 0.0 0.0 1.0
  outer loop
    vertex 1.276108028953223 14.287500000000005 9.524999999999999
    vertex 2.7898079091981325 2.7898079091981365 9.524999999999999
    vertex 2.7898079091981383 16.26019209080187 9.524999999999999
  endloop
endfacet
facet normal 0.0 0.0 1.0
  outer loop
    vertex 2.7898079091981383 16.26019209080187 9.524999999999999
    vertex 2.7898079091981325 2.7898079091981365 9.524999999999999
    vertex 4.762499999999995 1.2761080289532258 9.524999999999999
  endloop
endfacet
facet normal 0.0 0.0 1.0
  outer loop
    vertex 2.7898079091981383 16.26019209080187 9.524999999999999
    vertex 4.762499999999995 1.2761080289532258 9.524999999999999
    vertex 7.224889126149155 10.14131285115038 9.524999999999999
  endloop
endfacet
facet normal 0.0 0.0 1.0
  outer loop
    vertex 2.7898079091981383 16.26019209080187 9.524999999999999
    vertex 7.224889126149155 10.14131285115038 9.524999999999999
    vertex 7.462777007238305 10.715625000000003 9.524999999999999
  endloop
endfacet
facet normal 0.0 0.0 1.0
  outer loop
    vertex 2.7898079091981383 16.26019209080187 9.524999999999999
    vertex 7.462777007238305 10.715625000000003 9.524999999999999
    vertex 44.449999999999996 66.675 9.524999999999999
  endloop
endfacet
facet normal 0.0 0.0 1.0
  outer loop
    vertex 7.224889126149155 10.14131285115038 9.524999999999999
    vertex 4.762499999999995 1.2761080289532258 9.524999999999999
    vertex 7.14375 9.525 9.524999999999999
  endloop
endfacet
facet normal 0.0 0.0 1.0
  outer loop
    vertex 7.14375 9.525 9.524999999999999
    vertex 4.762499999999995 1.2761080289532258 9.524999999999999
    vertex 7.0597485953984815 0.32455650459662816 9.524999999999999
  endloop
endfacet
facet normal 0.0 0.0 1.0
  outer loop
    vertex 44.449999999999996 66.675 9.524999999999999
    vertex 7.462777007238305 10.715625000000003 9.524999999999999
    vertex 7.841201977299534 11.208798022700467 9.524999999999999
  endloop
endfacet
facet normal 0.0 0.0 1.0
  outer loop
    vertex 44.449999999999996 66.675 9.524999999999999
    vertex 7.841201977299534 11.208798022700467 9.524999999999999
    vertex 8.334375 11.587222992761696 9.524999999999999
  endloop
endfacet
facet normal 0.0 0.0 1.0
  outer loop
    vertex 44.449999999999996 66.675 9.524999999999999
    vertex 8.334375 11.587222992761696 9.524999999999999
    vertex 8.908687148849623 11.825110873850845 9.524999999999999
  endloop
endfacet
facet normal 0.0 0.0 1.0
  outer loop
    vertex 44.449999999999996 66.675 9.524999999999999
    vertex 8.908687148849623 11.825110873850845 9.524999999999999
    vertex 9.524999999999999 11.90625 9.524999999999999
  endloop
endfacet
facet normal 0.0 0.0 1.0
  outer loop
    vertex 44.449999999999996 66.675 9.524999999999999
    vertex 9.524999999999999 11.90625 9.524999999999999
    vertex 10.141312851150378 11.825110873850845 9.524999999999999
  endloop
endfacet
facet normal 0.0 0.0 1.0
  outer loop
    vertex 44.449999999999996 66.675 9.524999999999999
    vertex 10.141312851150378 11.825110873850845 9.524999999999999
    vertex 10.715625 11.587222992761696 9.524999999999999
  endloop
endfacet
facet normal 0.0 0.0 1.0
  outer loop
    vertex 44.449999999999996 66.675 9.524999999999999
    vertex 10.715625 11.587222992761696 9.524999999999999
    vertex 11.208798022700465 11.208798022700467 9.524999999999999
  endloop
endfacet
facet normal 0.0 0.0 1.0
  outer loop
    vertex 44.449999999999996 66.675 9.524999999999999
    vertex 11.208798022700465 11.208798022700467 9.524999999999999
    vertex 11.587222992761694 10.715625000000001 9.524999999999999
  endloop
endfacet
facet normal 0.0 0.0 1.0
  outer loop
    vertex 44.449999999999996 66.675 9.524999999999999
    vertex 11.587222992761694 10.715625000000001 9.524999999999999
    vertex 11.825110873850843 10.141312851150378 9.524999999999999
  endloop
endfacet
facet normal 0.0 0.0 1.0
  outer loop
    vertex 44.449999999999996 66.675 9.524999999999999
    vertex 11.825110873850843 10.141312851150378 9.524999999999999
    vertex 11.90625 9.525 9.524999999999999
  endloop
endfacet
facet normal 0.0 0.0 1.0
  outer loop
    vertex 44.449999999999996 66.675 9.524999999999999
    vertex 11.90625 9.525 9.524999999999999
    vertex 11.990251404601509 0.3245565045966254 9.524999999999999
  endloop
endfacet
facet normal 0.0 0.0 1.0
  outer loop
    vertex 44.449999999999996 66.675 9.524999999999999
    vertex 11.990251404601509 0.3245565045966254 9.524999999999999
    vertex 14.2875 1.276108028953223 9.524999999999999
  endloop
endfacet
facet normal 0.0 0.0 1.0
  outer loop
    vertex 44.449999999999996 66.675 9.524999999999999
    vertex 14.2875 1.276108028953223 9.524999999999999
    vertex 16.260192090801866 2.7898079091981365 9.524999999999999
  endloop
endfacet
facet normal 0.0 0.0 1.0
  outer loop
    vertex 44.449999999999996 66.675 9.524999999999999
    vertex 16.260192090801866 2.7898079091981365 9.524999999999999
    vertex 73.02499999999999 53.974999999999994 9.524999999999999
  endloop
endfacet
facet normal 0.0 0.0 1.0
  outer loop
    vertex 44.449999999999996 66.675 9.524999999999999
    vertex 73.02499999999999 53.974999999999994 9.524999999999999
    vertex 53.974999999999994 155.575 9.524999999999999
  endloop
endfacet
facet normal 0.0 0.0 1.0
  outer loop
    vertex 53.974999999999994 155.575 9.524999999999999
    vertex 73.02499999999999 53.974999999999994 9.524999999999999
    vertex 54.29955650459662 158.0402514046015 9.524999999999999
  endloop
endfacet
facet normal 0.0 0.0 1.0
  outer loop
    vertex 54.29955650459662 158.0402514046015 9.524999999999999
    vertex 73.02499999999999 53.974999999999994 9.524999999999999
    vertex 55.25110802895322 160.33749999999998 9.524999999999999
  endloop
endfacet
facet normal 0.0 0.0 1.0
  outer loop
    vertex 55.25110802895322 160.33749999999998 9.524999999999999
    vertex 73.02499999999999 53.974999999999994 9.524999999999999
    vertex 56.76480790919813 162.31019209080188 9.524999999999999
  endloop
endfacet
facet normal 0.0 0.0 1.0
  outer loop
    vertex 56.76480790919813 162.31019209080188 9.524999999999999
    vertex 73.02499999999999 53.974999999999994 9.524999999999999
    vertex 58.7375 163.82389197104678 9.524999999999999
  endloop
endfacet
facet normal 0.0 0.0 1.0
  outer loop
    vertex 58.7375 163.82389197104678 9.524999999999999
    vertex 73.02499999999999 53.974999999999994 9.524999999999999
    vertex 61.11875 155.575 9.524999999999999
  endloop
endfacet
facet normal 0.0 0.0 1.0
  outer loop
    vertex 58.7375 163.82389197104678 9.524999999999999
    vertex 61.11875 155.575 9.524999999999999
    vertex 61.03474859539848 164.77544349540338 9.524999999999999
  endloop
endfacet
facet normal 0.0 0.0 1.0
  outer loop
    vertex 61.11875 155.575 9.524999999999999
    vertex 73.02499999999999 53.974999999999994 9.524999999999999
    vertex 61.19988912614916 154.9586871488496 9.524999999999999
  endloop
endfacet
facet normal 0.0 0.0 1.0
  outer loop
    vertex 61.19988912614916 154.9586871488496 9.524999999999999
    vertex 73.02499999999999 53.974999999999994 9.524999999999999
    vertex 61.4377770072383 154.38437499999998 9.524999999999999
  endloop
endfacet
facet normal 0.0 0.0 1.0
  outer loop
    vertex 61.4377770072383 154.38437499999998 9.524999999999999
    vertex 73.02499999999999 53.974999999999994 9.524999999999999
    vertex 61.81620197729953 153.89120197729954 9.524999999999999
  endloop
endfacet
facet normal 0.0 0.0 1.0
  outer loop
    vertex 61.81620197729953 153.89120197729954 9.524999999999999
    vertex 73.02499999999999 53.974999999999994 9.524999999999999
    vertex 62.309374999999996 153.5127770072383 9.524999999999999
  endloop
endfacet
facet normal 0.0 0.0 1.0
  outer loop
    vertex 62.309374999999996 153.5127770072383 9.524999999999999
    vertex 73.02499999999999 53.974999999999994 9.524999999999999
    vertex 62.88368714884962 153.27488912614916 9.524999999999999
  endloop
endfacet
facet normal 0.0 0.0 1.0
  outer loop
    vertex 62.88368714884962 153.27488912614916 9.524999999999999
    vertex 73.02499999999999 53.974999999999994 9.524999999999999
    vertex 63.5 153.19375 9.524999999999999
  endloop
endfacet
facet normal 0.0 0.0 1.0
  outer loop
    vertex 63.5 153.19375 9.524999999999999
    vertex 73.02499999999999 53.974999999999994 9.524999999999999
    vertex 64.11631285115038 153.27488912614916 9.524999999999999
  endloop
endfacet
facet normal 0.0 0.0 1.0
  outer loop
    vertex 64.11631285115038 153.27488912614916 9.524999999999999
    vertex 73.02499999999999 53.974999999999994 9.524999999999999
    vertex 64.690625 153.5127770072383 9.524999999999999
  endloop
endfacet
facet normal 0.0 0.0 1.0
  outer loop
    vertex 64.690625 153.5127770072383 9.524999999999999
    vertex 73.02499999999999 53.974999999999994 9.524999999999999
    vertex 65.18379802270046 153.89120197729954 9.524999999999999
  endloop
endfacet
facet normal 0.0 0.0 1.0
  outer loop
    vertex 65.18379802270046 153.89120197729954 9.524999999999999
    vertex 73.02499999999999 53.974999999999994 9.524999999999999
    vertex 65.56222299276169 154.38437499999998 9.524999999999999
  endloop
endfacet
facet normal 0.0 0.0 1.0
  outer loop
    vertex 65.56222299276169 154.38437499999998 9.524999999999999
    vertex 73.02499999999999 53.974999999999994 9.524999999999999
    vertex 65.80011087385084 154.9586871488496 9.524999999999999
  endloop
endfacet
facet normal 0.0 0.0 1.0
  outer loop
    vertex 65.80011087385084 154.9586871488496 9.524999999999999
    vertex 73.02499999999999 53.974999999999994 9.524999999999999
    vertex 65.88125 155.575 9.524999999999999
  endloop
endfacet
facet normal 0.0 0.0 1.0
  outer loop
    vertex 65.88125 155.575 9.524999999999999
    vertex 73.02499999999999 53.974999999999994 9.524999999999999
    vertex 65.9652514046015 164.77544349540338 9.524999999999999
  endloop
endfacet
facet normal 0.0 0.0 1.0
  outer loop
    vertex 65.9652514046015 164.77544349540338 9.524999999999999
    vertex 73.02499999999999 53.974999999999994 9.524999999999999
    vertex 68.2625 163.82389197104678 9.524999999999999
  endloop
endfacet
facet normal 0.0 0.0 1.0
  outer loop
    vertex 68.2625 163.82389197104678 9.524999999999999
    vertex 73.02499999999999 53.974999999999994 9.524999999999999
    vertex 70.23519209080186 162.31019209080188 9.524999999999999
  endloop
endfacet
facet normal 0.0 0.0 1.0
  outer loop
    vertex 70.23519209080186 162.31019209080188 9.524999999999999
    vertex 73.02499999999999 53.974999999999994 9.524999999999999
    vertex 71.74889197104677 160.33749999999998 9.524999999999999
  endloop
endfacet
facet normal 0.0 0.0 1.0
  outer loop
    vertex 71.74889197104677 160.33749999999998 9.524999999999999
    vertex 73.02499999999999 53.974999999999994 9.524999999999999
    vertex 72.70044349540338 158.0402514046015 9.524999999999999
  endloop
endfacet
facet normal 0.0 0.0 1.0
  outer loop
    vertex 72.70044349540338 158.0402514046015 9.524999999999999
    vertex 73.02499999999999 53.974999999999994 9.524999999999999
    vertex 73.02499999999999 155.575 9.524999999999999
  endloop
endfacet
facet normal 0.0 0.0 1.0
  outer loop
    vertex 61.03474859539848 164.77544349540338 9.524999999999999
    vertex 61.19988912614916 156.19131285115037 9.524999999999999
    vertex 63.5 165.1 9.524999999999999
  endloop
endfacet
facet normal 0.0 0.0 1.0
  outer loop
    vertex 61.19988912614916 156.19131285115037 9.524999999999999
    vertex 61.03474859539848 164.77544349540338 9.524999999999999
    vertex 61.11875 155.575 9.524999999999999
  endloop
endfacet
facet normal 0.0 0.0 1.0
  outer loop
    vertex 63.5 165.1 9.524999999999999
    vertex 61.19988912614916 156.19131285115037 9.524999999999999
    vertex 61.4377770072383 156.765625 9.524999999999999
  endloop
endfacet
facet normal 0.0 0.0 1.0
  outer loop
    vertex 63.5 165.1 9.524999999999999
    vertex 61.4377770072383 156.765625 9.524999999999999
    vertex 61.81620197729953 157.25879802270046 9.524999999999999
  endloop
endfacet
facet normal 0.0 0.0 1.0
  outer loop
    vertex 63.5 165.1 9.524999999999999
    vertex 61.81620197729953 157.25879802270046 9.524999999999999
    vertex 62.309374999999996 157.63722299276168 9.524999999999999
  endloop
endfacet
facet normal 0.0 0.0 1.0
  outer loop
    vertex 63.5 165.1 9.524999999999999
    vertex 62.309374999999996 157.63722299276168 9.524999999999999
    vertex 62.88368714884962 157.87511087385084 9.524999999999999
  endloop
endfacet
facet normal 0.0 0.0 1.0
  outer loop
    vertex 63.5 165.1 9.524999999999999
    vertex 62.88368714884962 157.87511087385084 9.524999999999999
    vertex 63.5 157.95624999999998 9.524999999999999
  endloop
endfacet
facet normal 0.0 0.0 1.0
  outer loop
    vertex 63.5 165.1 9.524999999999999
    vertex 63.5 157.95624999999998 9.524999999999999
    vertex 64.11631285115038 157.87511087385084 9.524999999999999
  endloop
endfacet
facet normal 0.0 0.0 1.0
  outer loop
    vertex 63.5 165.1 9.524999999999999
    vertex 64.11631285115038 157.87511087385084 9.524999999999999
    vertex 65.9652514046015 164.77544349540338 9.524999999999999
  endloop
endfacet
facet normal 0.0 0.0 1.0
  outer loop
    vertex 65.9652514046015 164.77544349540338 9.524999999999999
    vertex 64.11631285115038 157.87511087385084 9.524999999999999
    vertex 64.690625 157.63722299276168 9.524999999999999
  endloop
endfacet
facet normal 0.0 0.0 1.0
  outer loop
    vertex 65.9652514046015 164.77544349540338 9.524999999999999
    vertex 64.690625 157.63722299276168 9.524999999999999
    vertex 65.18379802270046 157.25879802270046 9.524999999999999
  endloop
endfacet
facet normal 0.0 0.0 1.0
  outer loop
    vertex 65.9652514046015 164.77544349540338 9.524999999999999
    vertex 65.18379802270046 157.25879802270046 9.524999999999999
    vertex 65.56222299276169 156.765625 9.524999999999999
  endloop
endfacet
facet normal 0.0 0.0 1.0
  outer loop
    vertex 65.9652514046015 164.77544349540338 9.524999999999999
    vertex 65.56222299276169 156.765625 9.524999999999999
    vertex 65.80011087385084 156.19131285115037 9.524999999999999
  endloop
endfacet
facet normal 0.0 0.0 1.0
  outer loop
    vertex 65.9652514046015 164.77544349540338 9.524999999999999
    vertex 65.80011087385084 156.19131285115037 9.524999999999999
    vertex 65.88125 155.575 9.524999999999999
  endloop
endfacet
facet normal 0.0 0.0 1.0
  outer loop
    vertex 7.0597485953984815 0.32455650459662816 9.524999999999999
    vertex 7.224889126149155 8.908687148849625 9.524999999999999
    vertex 7.14375 9.525 9.524999999999999
  endloop
endfacet
facet normal 0.0 0.0 1.0
  outer loop
    vertex 7.224889126149155 8.908687148849625 9.524999999999999
    vertex 7.0597485953984815 0.32455650459662816 9.524999999999999
    vertex 9.524999999999999 1.4099832412739487e-15 9.524999999999999
  endloop
endfacet
facet normal 0.0 0.0 1.0
  outer loop
    vertex 7.224889126149155 8.908687148849625 9.524999999999999
    vertex 9.524999999999999 1.4099832412739487e-15 9.524999999999999
    vertex 7.462777007238305 8.334375000000003 9.524999999999999
  endloop
endfacet
facet normal 0.0 0.0 1.0
  outer loop
    vertex 7.462777007238305 8.334375000000003 9.524999999999999
    vertex 9.524999999999999 1.4099832412739487e-15 9.524999999999999
    vertex 7.841201977299534 7.841201977299535 9.524999999999999
  endloop
endfacet
facet normal 0.0 0.0 1.0
  outer loop
    vertex 7.841201977299534 7.841201977299535 9.524999999999999
    vertex 9.524999999999999 1.4099832412739487e-15 9.524999999999999
    vertex 8.334374999999998 7.462777007238308 9.524999999999999
  endloop
endfacet
facet normal 0.0 0.0 1.0
  outer loop
    vertex 8.334374999999998 7.462777007238308 9.524999999999999
    vertex 9.524999999999999 1.4099832412739487e-15 9.524999999999999
    vertex 8.90868714884962 7.224889126149159 9.524999999999999
  endloop
endfacet
facet normal 0.0 0.0 1.0
  outer loop
    vertex 8.90868714884962 7.224889126149159 9.524999999999999
    vertex 9.524999999999999 1.4099832412739487e-15 9.524999999999999
    vertex 9.524999999999999 7.143750000000001 9.524999999999999
  endloop
endfacet
facet normal 0.0 0.0 1.0
  outer loop
    vertex 9.524999999999999 7.143750000000001 9.524999999999999
    vertex 9.524999999999999 1.4099832412739487e-15 9.524999999999999
    vertex 11.990251404601509 0.3245565045966254 9.524999999999999
  endloop
endfacet
facet normal 0.0 0.0 1.0
  outer loop
    vertex 9.524999999999999 7.143750000000001 9.524999999999999
    vertex 11.990251404601509 0.3245565045966254 9.524999999999999
    vertex 10.141312851150378 7.224889126149157 9.524999999999999
  endloop
endfacet
facet normal 0.0 0.0 1.0
  outer loop
    vertex 10.141312851150378 7.224889126149157 9.524999999999999
    vertex 11.990251404601509 0.3245565045966254 9.524999999999999
    vertex 10.715625 7.462777007238307 9.524999999999999
  endloop
endfacet
facet normal 0.0 0.0 1.0
  outer loop
    vertex 10.715625 7.462777007238307 9.524999999999999
    vertex 11.990251404601509 0.3245565045966254 9.524999999999999
    vertex 11.208798022700465 7.841201977299534 9.524999999999999
  endloop
endfacet
facet normal 0.0 0.0 1.0
  outer loop
    vertex 11.208798022700465 7.841201977299534 9.524999999999999
    vertex 11.990251404601509 0.3245565045966254 9.524999999999999
    vertex 11.587222992761694 8.334375000000001 9.524999999999999
  endloop
endfacet
facet normal 0.0 0.0 1.0
  outer loop
    vertex 11.587222992761694 8.334375000000001 9.524999999999999
    vertex 11.990251404601509 0.3245565045966254 9.524999999999999
    vertex 11.825110873850843 8.908687148849623 9.524999999999999
  endloop
endfacet
facet normal 0.0 0.0 1.0
  outer loop
    vertex 11.825110873850843 8.908687148849623 9.524999999999999
    vertex 11.990251404601509 0.3245565045966254 9.524999999999999
    vertex 11.90625 9.525 9.524999999999999
  endloop
endfacet
facet normal -0.994309153919809 0.10653312363426524 0.0
  outer loop
    vertex 53.974999999999994 155.575 9.524999999999999
    vertex 44.449999999999996 66.675 0.0
    vertex 44.449999999999996 66.675 9.524999999999999
  endloop
endfacet
facet normal -0.994309153919809 0.10653312363426524 0.0
  outer loop
    vertex 44.449999999999996 66.675 0.0
    vertex 53.974999999999994 155.575 9.524999999999999
    vertex 53.974999999999994 155.575 0.0
  endloop
endfacet
facet normal -0.9659258262890684 0.2588190451025203 0.0
  outer loop
    vertex 54.29955650459662 158.0402514046015 9.524999999999999
    vertex 53.974999999999994 155.575 0.0
    vertex 53.974999999999994 155.575 9.524999999999999
  endloop
endfacet
facet normal -0.9914448613738104 0.1305261922200518 0.0
  outer loop
    vertex 53.974999999999994 155.575 0.0
    vertex 54.29955650459662 158.0402514046015 9.524999999999999
    vertex 54.29955650459662 158.0402514046015 0.0
  endloop
endfacet
facet normal -0.8660254037844394 0.49999999999999883 0.0
  outer loop
    vertex 55.25110802895322 160.33749999999998 9.524999999999999
    vertex 54.29955650459662 158.0402514046015 0.0
    vertex 54.29955650459662 158.0402514046015 9.524999999999999
  endloop
endfacet
facet normal -0.9659258262890684 0.2588190451025203 0.0
  outer loop
    vertex 54.29955650459662 158.0402514046015 0.0
    vertex 55.25110802895322 160.33749999999998 9.524999999999999
    vertex 55.25110802895322 160.33749999999998 0.0
  endloop
endfacet
facet normal -0.7071067811865474 0.7071067811865479 0.0
  outer loop
    vertex 56.76480790919813 162.31019209080188 9.524999999999999
    vertex 55.25110802895322 160.33749999999998 0.0
    vertex 55.25110802895322 160.33749999999998 9.524999999999999
  endloop
endfacet
facet normal -0.8660254037844394 0.49999999999999883 0.0
  outer loop
    vertex 55.25110802895322 160.33749999999998 0.0
    vertex 56.76480790919813 162.31019209080188 9.524999999999999
    vertex 56.76480790919813 162.31019209080188 0.0
  endloop
endfacet
facet normal -0.7071067811865474 0.7071067811865479 0.0
  outer loop
    vertex 56.76480790919813 162.31019209080188 9.524999999999999
    vertex 58.7375 163.82389197104678 0.0
    vertex 56.76480790919813 162.31019209080188 0.0
  endloop
endfacet
facet normal -0.4999999999999992 0.8660254037844392 0.0
  outer loop
    vertex 58.7375 163.82389197104678 0.0
    vertex 56.76480790919813 162.31019209080188 9.524999999999999
    vertex 58.7375 163.82389197104678 9.524999999999999
  endloop
endfacet
facet normal -0.4999999999999992 0.8660254037844392 0.0
  outer loop
    vertex 58.7375 163.82389197104678 9.524999999999999
    vertex 61.03474859539848 164.77544349540338 0.0
    vertex 58.7375 163.82389197104678 0.0
  endloop
endfacet
facet normal -0.2588190451025208 0.9659258262890682 0.0
  outer loop
    vertex 61.03474859539848 164.77544349540338 0.0
    vertex 58.7375 163.82389197104678 9.524999999999999
    vertex 61.03474859539848 164.77544349540338 9.524999999999999
  endloop
endfacet
facet normal -0.2588190451025208 0.9659258262890682 0.0
  outer loop
    vertex 61.03474859539848 164.77544349540338 9.524999999999999
    vertex 63.5 165.1 0.0
    vertex 61.03474859539848 164.77544349540338 0.0
  endloop
endfacet
facet normal 0.0 1.0 0.0
  outer loop
    vertex 63.5 165.1 0.0
    vertex 61.03474859539848 164.77544349540338 9.524999999999999
    vertex 63.5 165.1 9.524999999999999
  endloop
endfacet
facet normal 0.0 1.0 0.0
  outer loop
    vertex 63.5 165.1 9.524999999999999
    vertex 65.9652514046015 164.77544349540338 0.0
    vertex 63.5 165.1 0.0
  endloop
endfacet
facet normal 0.2588190451025208 0.9659258262890682 0.0
  outer loop
    vertex 65.9652514046015 164.77544349540338 0.0
    vertex 63.5 165.1 9.524999999999999
    vertex 65.9652514046015 164.77544349540338 9.524999999999999
  endloop
endfacet
facet normal 0.2588190451025208 0.9659258262890682 0.0
  outer loop
    vertex 65.9652514046015 164.77544349540338 9.524999999999999
    vertex 68.2625 163.82389197104678 0.0
    vertex 65.9652514046015 164.77544349540338 0.0
  endloop
endfacet
facet normal 0.4999999999999992 0.8660254037844392 0.0
  outer loop
    vertex 68.2625 163.82389197104678 0.0
    vertex 65.9652514046015 164.77544349540338 9.524999999999999
    vertex 68.2625 163.82389197104678 9.524999999999999
  endloop
endfacet
facet normal 0.4999999999999992 0.8660254037844392 0.0
  outer loop
    vertex 68.2625 163.82389197104678 9.524999999999999
    vertex 70.23519209080186 162.31019209080188 0.0
    vertex 68.2625 163.82389197104678 0.0
  endloop
endfacet
facet normal 0.7071067811865474 0.7071067811865479 0.0
  outer loop
    vertex 70.23519209080186 162.31019209080188 0.0
    vertex 68.2625 163.82389197104678 9.524999999999999
    vertex 70.23519209080186 162.31019209080188 9.524999999999999
  endloop
endfacet
facet normal 0.7071067811865474 0.7071067811865479 0.0
  outer loop
    vertex 70.23519209080186 162.31019209080188 0.0
    vertex 71.74889197104677 160.33749999999998 9.524999999999999
    vertex 71.74889197104677 160.33749999999998 0.0
  endloop
endfacet
facet normal 0.8660254037844394 0.49999999999999883 0.0
  outer loop
    vertex 71.74889197104677 160.33749999999998 9.524999999999999
    vertex 70.23519209080186 162.31019209080188 0.0
    vertex 70.23519209080186 162.31019209080188 9.524999999999999
  endloop
endfacet
facet normal 0.8660254037844394 0.49999999999999883 0.0
  outer loop
    vertex 71.74889197104677 160.33749999999998 0.0
    vertex 72.70044349540338 158.0402514046015 9.524999999999999
    vertex 72.70044349540338 158.0402514046015 0.0
  endloop
endfacet
facet normal 0.9659258262890684 0.2588190451025203 0.0
  outer loop
    vertex 72.70044349540338 158.0402514046015 9.524999999999999
    vertex 71.74889197104677 160.33749999999998 0.0
    vertex 71.74889197104677 160.33749999999998 9.524999999999999
  endloop
endfacet
facet normal 0.9659258262890684 0.2588190451025203 0.0
  outer loop
    vertex 72.70044349540338 158.0402514046015 0.0
    vertex 73.02499999999999 155.575 9.524999999999999
    vertex 73.02499999999999 155.575 0.0
  endloop
endfacet
facet normal 0.9914448613738104 0.1305261922200518 0.0
  outer loop
    vertex 73.02499999999999 155.575 9.524999999999999
    vertex 72.70044349540338 158.0402514046015 0.0
    vertex 72.70044349540338 158.0402514046015 9.524999999999999
  endloop
endfacet
facet normal 1.0 0.0 0.0
  outer loop
    vertex 73.02499999999999 155.575 0.0
    vertex 73.02499999999999 53.974999999999994 9.524999999999999
    vertex 73.02499999999999 53.974999999999994 0.0
  endloop
endfacet
facet normal 1.0 0.0 0.0
  outer loop
    vertex 73.02499999999999 53.974999999999994 9.524999999999999
    vertex 73.02499999999999 155.575 0.0
    vertex 73.02499999999999 155.575 9.524999999999999
  endloop
endfacet
facet normal 0.6696646011064726 -0.7426636668269891 0.0
  outer loop
    vertex 73.02499999999999 53.974999999999994 9.524999999999999
    vertex 16.260192090801866 2.7898079091981365 0.0
    vertex 73.02499999999999 53.974999999999994 0.0
  endloop
endfacet
facet normal 0.6696646011064726 -0.7426636668269891 0.0
  outer loop
    vertex 16.260192090801866 2.7898079091981365 0.0
    vertex 73.02499999999999 53.974999999999994 9.524999999999999
    vertex 16.260192090801866 2.7898079091981365 9.524999999999999
  endloop
endfacet
facet normal 0.6087614290087208 -0.7933533402912353 0.0
  outer loop
    vertex 16.260192090801866 2.7898079091981365 9.524999999999999
    vertex 14.2875 1.276108028953223 0.0
    vertex 16.260192090801866 2.7898079091981365 0.0
  endloop
endfacet
facet normal 0.5000000000000001 -0.8660254037844387 0.0
  outer loop
    vertex 14.2875 1.276108028953223 0.0
    vertex 16.260192090801866 2.7898079091981365 9.524999999999999
    vertex 14.2875 1.276108028953223 9.524999999999999
  endloop
endfacet
facet normal 0.5000000000000001 -0.8660254037844387 0.0
  outer loop
    vertex 14.2875 1.276108028953223 9.524999999999999
    vertex 11.990251404601509 0.3245565045966254 0.0
    vertex 14.2875 1.276108028953223 0.0
  endloop
endfacet
facet normal 0.25881904510252074 -0.9659258262890682 0.0
  outer loop
    vertex 11.990251404601509 0.3245565045966254 0.0
    vertex 14.2875 1.276108028953223 9.524999999999999
    vertex 11.990251404601509 0.3245565045966254 9.524999999999999
  endloop
endfacet
facet normal 0.25881904510252074 -0.9659258262890682 0.0
  outer loop
    vertex 11.990251404601509 0.3245565045966254 9.524999999999999
    vertex 9.524999999999999 1.4099832412739487e-15 0.0
    vertex 11.990251404601509 0.3245565045966254 0.0
  endloop
endfacet
facet normal -3.297110661389355e-16 -1.0 0.0
  outer loop
    vertex 9.524999999999999 1.4099832412739487e-15 0.0
    vertex 11.990251404601509 0.3245565045966254 9.524999999999999
    vertex 9.524999999999999 1.4099832412739487e-15 9.524999999999999
  endloop
endfacet
facet normal -3.297110661389355e-16 -1.0 0.0
  outer loop
    vertex 9.524999999999999 1.4099832412739487e-15 9.524999999999999
    vertex 7.0597485953984815 0.32455650459662816 0.0
    vertex 9.524999999999999 1.4099832412739487e-15 0.0
  endloop
endfacet
facet normal -0.25881904510252124 -0.9659258262890682 0.0
  outer loop
    vertex 7.0597485953984815 0.32455650459662816 0.0
    vertex 9.524999999999999 1.4099832412739487e-15 9.524999999999999
    vertex 7.0597485953984815 0.32455650459662816 9.524999999999999
  endloop
endfacet
facet normal -0.25881904510252124 -0.9659258262890682 0.0
  outer loop
    vertex 7.0597485953984815 0.32455650459662816 9.524999999999999
    vertex 4.762499999999995 1.2761080289532258 0.0
    vertex 7.0597485953984815 0.32455650459662816 0.0
  endloop
endfacet
facet normal -0.5000000000000003 -0.8660254037844386 0.0
  outer loop
    vertex 4.762499999999995 1.2761080289532258 0.0
    vertex 7.0597485953984815 0.32455650459662816 9.524999999999999
    vertex 4.762499999999995 1.2761080289532258 9.524999999999999
  endloop
endfacet
facet normal -0.5000000000000003 -0.8660254037844386 0.0
  outer loop
    vertex 4.762499999999995 1.2761080289532258 9.524999999999999
    vertex 2.7898079091981325 2.7898079091981365 0.0
    vertex 4.762499999999995 1.2761080289532258 0.0
  endloop
endfacet
facet normal -0.7071067811865478 -0.7071067811865471 0.0
  outer loop
    vertex 2.7898079091981325 2.7898079091981365 0.0
    vertex 4.762499999999995 1.2761080289532258 9.524999999999999
    vertex 2.7898079091981325 2.7898079091981365 9.524999999999999
  endloop
endfacet
facet normal -0.866025403784439 -0.4999999999999995 0.0
  outer loop
    vertex 1.2761080289532174 4.762500000000008 9.524999999999999
    vertex 2.7898079091981325 2.7898079091981365 0.0
    vertex 2.7898079091981325 2.7898079091981365 9.524999999999999
  endloop
endfacet
facet normal -0.7071067811865478 -0.7071067811865471 0.0
  outer loop
    vertex 2.7898079091981325 2.7898079091981365 0.0
    vertex 1.2761080289532174 4.762500000000008 9.524999999999999
    vertex 1.2761080289532174 4.762500000000008 0.0
  endloop
endfacet
facet normal -0.9659258262890684 -0.25881904510252046 0.0
  outer loop
    vertex 0.32455650459662255 7.059748595398495 9.524999999999999
    vertex 1.2761080289532174 4.762500000000008 0.0
    vertex 1.2761080289532174 4.762500000000008 9.524999999999999
  endloop
endfacet
facet normal -0.866025403784439 -0.4999999999999995 0.0
  outer loop
    vertex 1.2761080289532174 4.762500000000008 0.0
    vertex 0.32455650459662255 7.059748595398495 9.524999999999999
    vertex 0.32455650459662255 7.059748595398495 0.0
  endloop
endfacet
facet normal -1.0 3.386221760345823e-16 0.0
  outer loop
    vertex -1.4099832412739487e-15 9.525000000000002 9.524999999999999
    vertex 0.32455650459662255 7.059748595398495 0.0
    vertex 0.32455650459662255 7.059748595398495 9.524999999999999
  endloop
endfacet
facet normal -0.9659258262890684 -0.25881904510252046 0.0
  outer loop
    vertex 0.32455650459662255 7.059748595398495 0.0
    vertex -1.4099832412739487e-15 9.525000000000002 9.524999999999999
    vertex -1.4099832412739487e-15 9.525000000000002 0.0
  endloop
endfacet
facet normal -0.9659258262890682 0.2588190451025213 0.0
  outer loop
    vertex 0.3245565045966254 11.990251404601517 9.524999999999999
    vertex -1.4099832412739487e-15 9.525000000000002 0.0
    vertex -1.4099832412739487e-15 9.525000000000002 9.524999999999999
  endloop
endfacet
facet normal -1.0 3.386221760345823e-16 0.0
  outer loop
    vertex -1.4099832412739487e-15 9.525000000000002 0.0
    vertex 0.3245565045966254 11.990251404601517 9.524999999999999
    vertex 0.3245565045966254 11.990251404601517 0.0
  endloop
endfacet
facet normal -0.8660254037844383 0.5000000000000007 0.0
  outer loop
    vertex 1.276108028953223 14.287500000000005 9.524999999999999
    vertex 0.3245565045966254 11.990251404601517 0.0
    vertex 0.3245565045966254 11.990251404601517 9.524999999999999
  endloop
endfacet
facet normal -0.9659258262890682 0.2588190451025213 0.0
  outer loop
    vertex 0.3245565045966254 11.990251404601517 0.0
    vertex 1.276108028953223 14.287500000000005 9.524999999999999
    vertex 1.276108028953223 14.287500000000005 0.0
  endloop
endfacet
facet normal -0.7933533402912345 0.6087614290087217 0.0
  outer loop
    vertex 2.7898079091981383 16.26019209080187 9.524999999999999
    vertex 1.276108028953223 14.287500000000005 0.0
    vertex 1.276108028953223 14.287500000000005 9.524999999999999
  endloop
endfacet
facet normal -0.8660254037844383 0.5000000000000007 0.0
  outer loop
    vertex 1.276108028953223 14.287500000000005 0.0
    vertex 2.7898079091981383 16.26019209080187 9.524999999999999
    vertex 2.7898079091981383 16.26019209080187 0.0
  endloop
endfacet
facet normal -0.7708628136062078 0.6370011951316269 0.0
  outer loop
    vertex 44.449999999999996 66.675 9.524999999999999
    vertex 2.7898079091981383 16.26019209080187 0.0
    vertex 2.7898079091981383 16.26019209080187 9.524999999999999
  endloop
endfacet
facet normal -0.7708628136062078 0.6370011951316269 0.0
  outer loop
    vertex 2.7898079091981383 16.26019209080187 0.0
    vertex 44.449999999999996 66.675 9.524999999999999
    vertex 44.449999999999996 66.675 0.0
  endloop
endfacet
facet normal -0.5 0.8660254037844388 0.0
  outer loop
    vertex 10.715625 7.462777007238307 9.524999999999999
    vertex 11.208798022700465 7.841201977299534 0.0
    vertex 10.715625 7.462777007238307 0.0
  endloop
endfacet
facet normal -0.7071067811865475 0.7071067811865477 0.0
  outer loop
    vertex 11.208798022700465 7.841201977299534 0.0
    vertex 10.715625 7.462777007238307 9.524999999999999
    vertex 11.208798022700465 7.841201977299534 9.524999999999999
  endloop
endfacet
facet normal -0.8660254037844386 0.5000000000000001 0.0
  outer loop
    vertex 11.587222992761694 8.334375000000001 9.524999999999999
    vertex 11.208798022700465 7.841201977299534 0.0
    vertex 11.208798022700465 7.841201977299534 9.524999999999999
  endloop
endfacet
facet normal -0.7071067811865475 0.7071067811865477 0.0
  outer loop
    vertex 11.208798022700465 7.841201977299534 0.0
    vertex 11.587222992761694 8.334375000000001 9.524999999999999
    vertex 11.587222992761694 8.334375000000001 0.0
  endloop
endfacet
facet normal -0.9659258262890682 0.2588190451025208 0.0
  outer loop
    vertex 11.825110873850843 8.908687148849623 9.524999999999999
    vertex 11.587222992761694 8.334375000000001 0.0
    vertex 11.587222992761694 8.334375000000001 9.524999999999999
  endloop
endfacet
facet normal -0.8660254037844386 0.5000000000000001 0.0
  outer loop
    vertex 11.587222992761694 8.334375000000001 0.0
    vertex 11.825110873850843 8.908687148849623 9.524999999999999
    vertex 11.825110873850843 8.908687148849623 0.0
  endloop
endfacet
facet normal -1.0 -1.5148886822599737e-16 0.0
  outer loop
    vertex 11.90625 9.525 9.524999999999999
    vertex 11.825110873850843 8.908687148849623 0.0
    vertex 11.825110873850843 8.908687148849623 9.524999999999999
  endloop
endfacet
facet normal -0.9659258262890682 0.2588190451025208 0.0
  outer loop
    vertex 11.825110873850843 8.908687148849623 0.0
    vertex 11.90625 9.525 9.524999999999999
    vertex 11.90625 9.525 0.0
  endloop
endfacet
facet normal -0.9659258262890683 -0.2588190451025205 0.0
  outer loop
    vertex 11.825110873850843 10.141312851150378 9.524999999999999
    vertex 11.90625 9.525 0.0
    vertex 11.90625 9.525 9.524999999999999
  endloop
endfacet
facet normal -1.0 -1.5148886822599737e-16 0.0
  outer loop
    vertex 11.90625 9.525 0.0
    vertex 11.825110873850843 10.141312851150378 9.524999999999999
    vertex 11.825110873850843 10.141312851150378 0.0
  endloop
endfacet
facet normal -0.8660254037844384 -0.5000000000000004 0.0
  outer loop
    vertex 11.587222992761694 10.715625000000001 9.524999999999999
    vertex 11.825110873850843 10.141312851150378 0.0
    vertex 11.825110873850843 10.141312851150378 9.524999999999999
  endloop
endfacet
facet normal -0.9659258262890683 -0.2588190451025205 0.0
  outer loop
    vertex 11.825110873850843 10.141312851150378 0.0
    vertex 11.587222992761694 10.715625000000001 9.524999999999999
    vertex 11.587222992761694 10.715625000000001 0.0
  endloop
endfacet
facet normal -0.7071067811865476 -0.7071067811865476 0.0
  outer loop
    vertex 11.208798022700465 11.208798022700467 9.524999999999999
    vertex 11.587222992761694 10.715625000000001 0.0
    vertex 11.587222992761694 10.715625000000001 9.524999999999999
  endloop
endfacet
facet normal -0.8660254037844384 -0.5000000000000004 0.0
  outer loop
    vertex 11.587222992761694 10.715625000000001 0.0
    vertex 11.208798022700465 11.208798022700467 9.524999999999999
    vertex 11.208798022700465 11.208798022700467 0.0
  endloop
endfacet
facet normal -0.7071067811865476 -0.7071067811865476 0.0
  outer loop
    vertex 11.208798022700465 11.208798022700467 9.524999999999999
    vertex 10.715625 11.587222992761696 0.0
    vertex 11.208798022700465 11.208798022700467 0.0
  endloop
endfacet
facet normal -0.5000000000000007 -0.8660254037844383 0.0
  outer loop
    vertex 10.715625 11.587222992761696 0.0
    vertex 11.208798022700465 11.208798022700467 9.524999999999999
    vertex 10.715625 11.587222992761696 9.524999999999999
  endloop
endfacet
facet normal -0.5000000000000007 -0.8660254037844383 0.0
  outer loop
    vertex 10.715625 11.587222992761696 9.524999999999999
    vertex 10.141312851150378 11.825110873850845 0.0
    vertex 10.715625 11.587222992761696 0.0
  endloop
endfacet
facet normal -0.2588190451025208 -0.9659258262890682 0.0
  outer loop
    vertex 10.141312851150378 11.825110873850845 0.0
    vertex 10.715625 11.587222992761696 9.524999999999999
    vertex 10.141312851150378 11.825110873850845 9.524999999999999
  endloop
endfacet
facet normal -0.2588190451025208 -0.9659258262890682 0.0
  outer loop
    vertex 10.141312851150378 11.825110873850845 9.524999999999999
    vertex 9.524999999999999 11.90625 0.0
    vertex 10.141312851150378 11.825110873850845 0.0
  endloop
endfacet
facet normal 1.5148886822599737e-16 -1.0 0.0
  outer loop
    vertex 9.524999999999999 11.90625 0.0
    vertex 10.141312851150378 11.825110873850845 9.524999999999999
    vertex 9.524999999999999 11.90625 9.524999999999999
  endloop
endfacet
facet normal 1.5148886822599737e-16 -1.0 0.0
  outer loop
    vertex 9.524999999999999 11.90625 9.524999999999999
    vertex 8.908687148849623 11.825110873850845 0.0
    vertex 9.524999999999999 11.90625 0.0
  endloop
endfacet
facet normal 0.2588190451025205 -0.9659258262890683 0.0
  outer loop
    vertex 8.908687148849623 11.825110873850845 0.0
    vertex 9.524999999999999 11.90625 9.524999999999999
    vertex 8.908687148849623 11.825110873850845 9.524999999999999
  endloop
endfacet
facet normal 0.2588190451025205 -0.9659258262890683 0.0
  outer loop
    vertex 8.908687148849623 11.825110873850845 9.524999999999999
    vertex 8.334375 11.587222992761696 0.0
    vertex 8.908687148849623 11.825110873850845 0.0
  endloop
endfacet
facet normal 0.4999999999999997 -0.8660254037844389 0.0
  outer loop
    vertex 8.334375 11.587222992761696 0.0
    vertex 8.908687148849623 11.825110873850845 9.524999999999999
    vertex 8.334375 11.587222992761696 9.524999999999999
  endloop
endfacet
facet normal 0.4999999999999997 -0.8660254037844389 0.0
  outer loop
    vertex 8.334375 11.587222992761696 9.524999999999999
    vertex 7.841201977299534 11.208798022700467 0.0
    vertex 8.334375 11.587222992761696 0.0
  endloop
endfacet
facet normal 0.7071067811865469 -0.7071067811865481 0.0
  outer loop
    vertex 7.841201977299534 11.208798022700467 0.0
    vertex 8.334375 11.587222992761696 9.524999999999999
    vertex 7.841201977299534 11.208798022700467 9.524999999999999
  endloop
endfacet
facet normal 0.7071067811865469 -0.7071067811865481 0.0
  outer loop
    vertex 7.841201977299534 11.208798022700467 0.0
    vertex 7.462777007238305 10.715625000000003 9.524999999999999
    vertex 7.462777007238305 10.715625000000003 0.0
  endloop
endfacet
facet normal 0.8660254037844383 -0.5000000000000007 0.0
  outer loop
    vertex 7.462777007238305 10.715625000000003 9.524999999999999
    vertex 7.841201977299534 11.208798022700467 0.0
    vertex 7.841201977299534 11.208798022700467 9.524999999999999
  endloop
endfacet
facet normal 0.8660254037844383 -0.5000000000000007 0.0
  outer loop
    vertex 7.462777007238305 10.715625000000003 0.0
    vertex 7.224889126149155 10.14131285115038 9.524999999999999
    vertex 7.224889126149155 10.14131285115038 0.0
  endloop
endfacet
facet normal 0.9659258262890682 -0.25881904510252063 0.0
  outer loop
    vertex 7.224889126149155 10.14131285115038 9.524999999999999
    vertex 7.462777007238305 10.715625000000003 0.0
    vertex 7.462777007238305 10.715625000000003 9.524999999999999
  endloop
endfacet
facet normal 0.9659258262890682 -0.25881904510252063 0.0
  outer loop
    vertex 7.224889126149155 10.14131285115038 0.0
    vertex 7.14375 9.525 9.524999999999999
    vertex 7.14375 9.525 0.0
  endloop
endfacet
facet normal 1.0 3.1188884634764164e-16 0.0
  outer loop
    vertex 7.14375 9.525 9.524999999999999
    vertex 7.224889126149155 10.14131285115038 0.0
    vertex 7.224889126149155 10.14131285115038 9.524999999999999
  endloop
endfacet
facet normal 1.0 3.1188884634764164e-16 0.0
  outer loop
    vertex 7.14375 9.525 0.0
    vertex 7.224889126149155 8.908687148849625 9.524999999999999
    vertex 7.224889126149155 8.908687148849625 0.0
  endloop
endfacet
facet normal 0.9659258262890682 0.25881904510252096 0.0
  outer loop
    vertex 7.224889126149155 8.908687148849625 9.524999999999999
    vertex 7.14375 9.525 0.0
    vertex 7.14375 9.525 9.524999999999999
  endloop
endfacet
facet normal 0.9659258262890682 0.25881904510252096 0.0
  outer loop
    vertex 7.224889126149155 8.908687148849625 0.0
    vertex 7.462777007238305 8.334375000000003 9.524999999999999
    vertex 7.462777007238305 8.334375000000003 0.0
  endloop
endfacet
facet normal 0.8660254037844386 0.5000000000000001 0.0
  outer loop
    vertex 7.462777007238305 8.334375000000003 9.524999999999999
    vertex 7.224889126149155 8.908687148849625 0.0
    vertex 7.224889126149155 8.908687148849625 9.524999999999999
  endloop
endfacet
facet normal 0.8660254037844386 0.5000000000000001 0.0
  outer loop
    vertex 7.462777007238305 8.334375000000003 0.0
    vertex 7.841201977299534 7.841201977299535 9.524999999999999
    vertex 7.841201977299534 7.841201977299535 0.0
  endloop
endfacet
facet normal 0.7071067811865478 0.7071067811865471 0.0
  outer loop
    vertex 7.841201977299534 7.841201977299535 9.524999999999999
    vertex 7.462777007238305 8.334375000000003 0.0
    vertex 7.462777007238305 8.334375000000003 9.524999999999999
  endloop
endfacet
facet normal 0.7071067811865478 0.7071067811865471 0.0
  outer loop
    vertex 7.841201977299534 7.841201977299535 9.524999999999999
    vertex 8.334374999999998 7.462777007238308 0.0
    vertex 7.841201977299534 7.841201977299535 0.0
  endloop
endfacet
facet normal 0.5000000000000006 0.8660254037844384 0.0
  outer loop
    vertex 8.334374999999998 7.462777007238308 0.0
    vertex 7.841201977299534 7.841201977299535 9.524999999999999
    vertex 8.334374999999998 7.462777007238308 9.524999999999999
  endloop
endfacet
facet normal 0.5000000000000006 0.8660254037844384 0.0
  outer loop
    vertex 8.334374999999998 7.462777007238308 9.524999999999999
    vertex 8.90868714884962 7.224889126149159 0.0
    vertex 8.334374999999998 7.462777007238308 0.0
  endloop
endfacet
facet normal 0.25881904510252174 0.965925826289068 0.0
  outer loop
    vertex 8.90868714884962 7.224889126149159 0.0
    vertex 8.334374999999998 7.462777007238308 9.524999999999999
    vertex 8.90868714884962 7.224889126149159 9.524999999999999
  endloop
endfacet
facet normal 0.25881904510252174 0.965925826289068 0.0
  outer loop
    vertex 8.90868714884962 7.224889126149159 9.524999999999999
    vertex 9.524999999999999 7.143750000000001 0.0
    vertex 8.90868714884962 7.224889126149159 0.0
  endloop
endfacet
facet normal 9.623998687298657e-16 1.0 0.0
  outer loop
    vertex 9.524999999999999 7.143750000000001 0.0
    vertex 8.90868714884962 7.224889126149159 9.524999999999999
    vertex 9.524999999999999 7.143750000000001 9.524999999999999
  endloop
endfacet
facet normal 9.623998687298657e-16 1.0 0.0
  outer loop
    vertex 9.524999999999999 7.143750000000001 9.524999999999999
    vertex 10.141312851150378 7.224889126149157 0.0
    vertex 9.524999999999999 7.143750000000001 0.0
  endloop
endfacet
facet normal -0.2588190451025208 0.9659258262890682 0.0
  outer loop
    vertex 10.141312851150378 7.224889126149157 0.0
    vertex 9.524999999999999 7.143750000000001 9.524999999999999
    vertex 10.141312851150378 7.224889126149157 9.524999999999999
  endloop
endfacet
facet normal -0.2588190451025208 0.9659258262890682 0.0
  outer loop
    vertex 10.141312851150378 7.224889126149157 9.524999999999999
    vertex 10.715625 7.462777007238307 0.0
    vertex 10.141312851150378 7.224889126149157 0.0
  endloop
endfacet
facet normal -0.5 0.8660254037844388 0.0
  outer loop
    vertex 10.715625 7.462777007238307 0.0
    vertex 10.141312851150378 7.224889126149157 9.524999999999999
    vertex 10.715625 7.462777007238307 9.524999999999999
  endloop
endfacet
facet normal 0.0 -1.0 0.0
  outer loop
    vertex 63.5 157.95624999999998 9.524999999999999
    vertex 62.88368714884962 157.87511087385084 0.0
    vertex 63.5 157.95624999999998 0.0
  endloop
endfacet
facet normal 0.2588190451025217 -0.9659258262890681 0.0
  outer loop
    vertex 62.88368714884962 157.87511087385084 0.0
    vertex 63.5 157.95624999999998 9.524999999999999
    vertex 62.88368714884962 157.87511087385084 9.524999999999999
  endloop
endfacet
facet normal 0.2588190451025217 -0.9659258262890681 0.0
  outer loop
    vertex 62.88368714884962 157.87511087385084 9.524999999999999
    vertex 62.309374999999996 157.63722299276168 0.0
    vertex 62.88368714884962 157.87511087385084 0.0
  endloop
endfacet
facet normal 0.5000000000000014 -0.8660254037844379 0.0
  outer loop
    vertex 62.309374999999996 157.63722299276168 0.0
    vertex 62.88368714884962 157.87511087385084 9.524999999999999
    vertex 62.309374999999996 157.63722299276168 9.524999999999999
  endloop
endfacet
facet normal 0.5000000000000014 -0.8660254037844379 0.0
  outer loop
    vertex 62.309374999999996 157.63722299276168 9.524999999999999
    vertex 61.81620197729953 157.25879802270046 0.0
    vertex 62.309374999999996 157.63722299276168 0.0
  endloop
endfacet
facet normal 0.7071067811865486 -0.7071067811865464 0.0
  outer loop
    vertex 61.81620197729953 157.25879802270046 0.0
    vertex 62.309374999999996 157.63722299276168 9.524999999999999
    vertex 61.81620197729953 157.25879802270046 9.524999999999999
  endloop
endfacet
facet normal 0.7071067811865486 -0.7071067811865464 0.0
  outer loop
    vertex 61.81620197729953 157.25879802270046 0.0
    vertex 61.4377770072383 156.765625 9.524999999999999
    vertex 61.4377770072383 156.765625 0.0
  endloop
endfacet
facet normal 0.8660254037844387 -0.4999999999999999 0.0
  outer loop
    vertex 61.4377770072383 156.765625 9.524999999999999
    vertex 61.81620197729953 157.25879802270046 0.0
    vertex 61.81620197729953 157.25879802270046 9.524999999999999
  endloop
endfacet
facet normal 0.8660254037844387 -0.4999999999999999 0.0
  outer loop
    vertex 61.4377770072383 156.765625 0.0
    vertex 61.19988912614916 156.19131285115037 9.524999999999999
    vertex 61.19988912614916 156.19131285115037 0.0
  endloop
endfacet
facet normal 0.9659258262890681 -0.2588190451025217 0.0
  outer loop
    vertex 61.19988912614916 156.19131285115037 9.524999999999999
    vertex 61.4377770072383 156.765625 0.0
    vertex 61.4377770072383 156.765625 9.524999999999999
  endloop
endfacet
facet normal 0.9659258262890681 -0.2588190451025217 0.0
  outer loop
    vertex 61.19988912614916 156.19131285115037 0.0
    vertex 61.11875 155.575 9.524999999999999
    vertex 61.11875 155.575 0.0
  endloop
endfacet
facet normal 1.0 0.0 0.0
  outer loop
    vertex 61.11875 155.575 9.524999999999999
    vertex 61.19988912614916 156.19131285115037 0.0
    vertex 61.19988912614916 156.19131285115037 9.524999999999999
  endloop
endfacet
facet normal 1.0 0.0 0.0
  outer loop
    vertex 61.11875 155.575 0.0
    vertex 61.19988912614916 154.9586871488496 9.524999999999999
    vertex 61.19988912614916 154.9586871488496 0.0
  endloop
endfacet
facet normal 0.9659258262890681 0.2588190451025217 0.0
  outer loop
    vertex 61.19988912614916 154.9586871488496 9.524999999999999
    vertex 61.11875 155.575 0.0
    vertex 61.11875 155.575 9.524999999999999
  endloop
endfacet
facet normal 0.9659258262890681 0.2588190451025217 0.0
  outer loop
    vertex 61.19988912614916 154.9586871488496 0.0
    vertex 61.4377770072383 154.38437499999998 9.524999999999999
    vertex 61.4377770072383 154.38437499999998 0.0
  endloop
endfacet
facet normal 0.8660254037844387 0.4999999999999999 0.0
  outer loop
    vertex 61.4377770072383 154.38437499999998 9.524999999999999
    vertex 61.19988912614916 154.9586871488496 0.0
    vertex 61.19988912614916 154.9586871488496 9.524999999999999
  endloop
endfacet
facet normal 0.8660254037844387 0.4999999999999999 0.0
  outer loop
    vertex 61.4377770072383 154.38437499999998 0.0
    vertex 61.81620197729953 153.89120197729954 9.524999999999999
    vertex 61.81620197729953 153.89120197729954 0.0
  endloop
endfacet
facet normal 0.7071067811865486 0.7071067811865464 0.0
  outer loop
    vertex 61.81620197729953 153.89120197729954 9.524999999999999
    vertex 61.4377770072383 154.38437499999998 0.0
    vertex 61.4377770072383 154.38437499999998 9.524999999999999
  endloop
endfacet
facet normal 0.7071067811865486 0.7071067811865464 0.0
  outer loop
    vertex 61.81620197729953 153.89120197729954 9.524999999999999
    vertex 62.309374999999996 153.5127770072383 0.0
    vertex 61.81620197729953 153.89120197729954 0.0
  endloop
endfacet
facet normal 0.5000000000000014 0.8660254037844379 0.0
  outer loop
    vertex 62.309374999999996 153.5127770072383 0.0
    vertex 61.81620197729953 153.89120197729954 9.524999999999999
    vertex 62.309374999999996 153.5127770072383 9.524999999999999
  endloop
endfacet
facet normal 0.5000000000000014 0.8660254037844379 0.0
  outer loop
    vertex 62.309374999999996 153.5127770072383 9.524999999999999
    vertex 62.88368714884962 153.27488912614916 0.0
    vertex 62.309374999999996 153.5127770072383 0.0
  endloop
endfacet
facet normal 0.2588190451025217 0.9659258262890681 0.0
  outer loop
    vertex 62.88368714884962 153.27488912614916 0.0
    vertex 62.309374999999996 153.5127770072383 9.524999999999999
    vertex 62.88368714884962 153.27488912614916 9.524999999999999
  endloop
endfacet
facet normal 0.2588190451025217 0.9659258262890681 0.0
  outer loop
    vertex 62.88368714884962 153.27488912614916 9.524999999999999
    vertex 63.5 153.19375 0.0
    vertex 62.88368714884962 153.27488912614916 0.0
  endloop
endfacet
facet normal 0.0 1.0 0.0
  outer loop
    vertex 63.5 153.19375 0.0
    vertex 62.88368714884962 153.27488912614916 9.524999999999999
    vertex 63.5 153.19375 9.524999999999999
  endloop
endfacet
facet normal 0.0 1.0 0.0
  outer loop
    vertex 63.5 153.19375 9.524999999999999
    vertex 64.11631285115038 153.27488912614916 0.0
    vertex 63.5 153.19375 0.0
  endloop
endfacet
facet normal -0.2588190451025217 0.9659258262890681 0.0
  outer loop
    vertex 64.11631285115038 153.27488912614916 0.0
    vertex 63.5 153.19375 9.524999999999999
    vertex 64.11631285115038 153.27488912614916 9.524999999999999
  endloop
endfacet
facet normal -0.2588190451025217 0.9659258262890681 0.0
  outer loop
    vertex 64.11631285115038 153.27488912614916 9.524999999999999
    vertex 64.690625 153.5127770072383 0.0
    vertex 64.11631285115038 153.27488912614916 0.0
  endloop
endfacet
facet normal -0.5000000000000014 0.8660254037844379 0.0
  outer loop
    vertex 64.690625 153.5127770072383 0.0
    vertex 64.11631285115038 153.27488912614916 9.524999999999999
    vertex 64.690625 153.5127770072383 9.524999999999999
  endloop
endfacet
facet normal -0.5000000000000014 0.8660254037844379 0.0
  outer loop
    vertex 64.690625 153.5127770072383 9.524999999999999
    vertex 65.18379802270046 153.89120197729954 0.0
    vertex 64.690625 153.5127770072383 0.0
  endloop
endfacet
facet normal -0.7071067811865486 0.7071067811865464 0.0
  outer loop
    vertex 65.18379802270046 153.89120197729954 0.0
    vertex 64.690625 153.5127770072383 9.524999999999999
    vertex 65.18379802270046 153.89120197729954 9.524999999999999
  endloop
endfacet
facet normal -0.8660254037844387 0.4999999999999999 0.0
  outer loop
    vertex 65.56222299276169 154.38437499999998 9.524999999999999
    vertex 65.18379802270046 153.89120197729954 0.0
    vertex 65.18379802270046 153.89120197729954 9.524999999999999
  endloop
endfacet
facet normal -0.7071067811865486 0.7071067811865464 0.0
  outer loop
    vertex 65.18379802270046 153.89120197729954 0.0
    vertex 65.56222299276169 154.38437499999998 9.524999999999999
    vertex 65.56222299276169 154.38437499999998 0.0
  endloop
endfacet
facet normal -0.9659258262890681 0.2588190451025217 0.0
  outer loop
    vertex 65.80011087385084 154.9586871488496 9.524999999999999
    vertex 65.56222299276169 154.38437499999998 0.0
    vertex 65.56222299276169 154.38437499999998 9.524999999999999
  endloop
endfacet
facet normal -0.8660254037844387 0.4999999999999999 0.0
  outer loop
    vertex 65.56222299276169 154.38437499999998 0.0
    vertex 65.80011087385084 154.9586871488496 9.524999999999999
    vertex 65.80011087385084 154.9586871488496 0.0
  endloop
endfacet
facet normal -1.0 0.0 0.0
  outer loop
    vertex 65.88125 155.575 9.524999999999999
    vertex 65.80011087385084 154.9586871488496 0.0
    vertex 65.80011087385084 154.9586871488496 9.524999999999999
  endloop
endfacet
facet normal -0.9659258262890681 0.2588190451025217 0.0
  outer loop
    vertex 65.80011087385084 154.9586871488496 0.0
    vertex 65.88125 155.575 9.524999999999999
    vertex 65.88125 155.575 0.0
  endloop
endfacet
facet normal -0.9659258262890681 -0.2588190451025217 0.0
  outer loop
    vertex 65.80011087385084 156.19131285115037 9.524999999999999
    vertex 65.88125 155.575 0.0
    vertex 65.88125 155.575 9.524999999999999
  endloop
endfacet
facet normal -1.0 0.0 0.0
  outer loop
    vertex 65.88125 155.575 0.0
    vertex 65.80011087385084 156.19131285115037 9.524999999999999
    vertex 65.80011087385084 156.19131285115037 0.0
  endloop
endfacet
facet normal -0.8660254037844387 -0.4999999999999999 0.0
  outer loop
    vertex 65.56222299276169 156.765625 9.524999999999999
    vertex 65.80011087385084 156.19131285115037 0.0
    vertex 65.80011087385084 156.19131285115037 9.524999999999999
  endloop
endfacet
facet normal -0.9659258262890681 -0.2588190451025217 0.0
  outer loop
    vertex 65.80011087385084 156.19131285115037 0.0
    vertex 65.56222299276169 156.765625 9.524999999999999
    vertex 65.56222299276169 156.765625 0.0
  endloop
endfacet
facet normal -0.7071067811865486 -0.7071067811865464 0.0
  outer loop
    vertex 65.18379802270046 157.25879802270046 9.524999999999999
    vertex 65.56222299276169 156.765625 0.0
    vertex 65.56222299276169 156.765625 9.524999999999999
  endloop
endfacet
facet normal -0.8660254037844387 -0.4999999999999999 0.0
  outer loop
    vertex 65.56222299276169 156.765625 0.0
    vertex 65.18379802270046 157.25879802270046 9.524999999999999
    vertex 65.18379802270046 157.25879802270046 0.0
  endloop
endfacet
facet normal -0.7071067811865486 -0.7071067811865464 0.0
  outer loop
    vertex 65.18379802270046 157.25879802270046 9.524999999999999
    vertex 64.690625 157.63722299276168 0.0
    vertex 65.18379802270046 157.25879802270046 0.0
  endloop
endfacet
facet normal -0.5000000000000014 -0.8660254037844379 0.0
  outer loop
    vertex 64.690625 157.63722299276168 0.0
    vertex 65.18379802270046 157.25879802270046 9.524999999999999
    vertex 64.690625 157.63722299276168 9.524999999999999
  endloop
endfacet
facet normal -0.5000000000000014 -0.8660254037844379 0.0
  outer loop
    vertex 64.690625 157.63722299276168 9.524999999999999
    vertex 64.11631285115038 157.87511087385084 0.0
    vertex 64.690625 157.63722299276168 0.0
  endloop
endfacet
facet normal -0.2588190451025217 -0.9659258262890681 0.0
  outer loop
    vertex 64.11631285115038 157.87511087385084 0.0
    vertex 64.690625 157.63722299276168 9.524999999999999
    vertex 64.11631285115038 157.87511087385084 9.524999999999999
  endloop
endfacet
facet normal -0.2588190451025217 -0.9659258262890681 0.0
  outer loop
    vertex 64.11631285115038 157.87511087385084 9.524999999999999
    vertex 63.5 157.95624999999998 0.0
    vertex 64.11631285115038 157.87511087385084 0.0
  endloop
endfacet
facet normal 0.0 -1.0 0.0
  outer loop
    vertex 63.5 157.95624999999998 0.0
    vertex 64.11631285115038 157.87511087385084 9.524999999999999
    vertex 63.5 157.95624999999998 9.524999999999999
  endloop
endfacet
endsolid Boom
