solid Bracket
facet normal -7.148808352351061e-18 1.3563493558395128e-17 -1.0
  outer loop
    vertex 11.056499063598993 14.071128996935583 -1.5862311464331924e-15
    vertex 10.318750000000001 7.9375 5.287437154777307e-16
    vertex 9.525 13.436761314031186 1.0574874309554614e-15
  endloop
endfacet
facet normal -7.148808352351061e-18 1.3563493558395128e-17 -1.0
  outer loop
    vertex 10.318750000000001 7.9375 5.287437154777307e-16
    vertex 11.056499063598993 14.071128996935583 -1.5862311464331924e-15
    vertex 10.399889126149157 8.553812851150377 1.5862311464331924e-15
  endloop
endfacet
facet normal -7.148808352351061e-18 1.3563493558395128e-17 -1.0
  outer loop
    vertex 10.399889126149157 8.553812851150377 1.5862311464331924e-15
    vertex 11.056499063598993 14.071128996935583 -1.5862311464331924e-15
    vertex 10.637777007238306 9.128124999999999 3.524958103184872e-16
  endloop
endfacet
facet normal -7.148808352351061e-18 1.3563493558395128e-17 -1.0
  outer loop
    vertex 10.637777007238306 9.128124999999999 3.524958103184872e-16
    vertex 11.056499063598993 14.071128996935583 -1.5862311464331924e-15
    vertex 11.016201977299534 9.621298022700465 -5.287437154777307e-16
  endloop
endfacet
facet normal -7.148808352351061e-18 1.3563493558395128e-17 -1.0
  outer loop
    vertex 11.016201977299534 9.621298022700465 -5.287437154777307e-16
    vertex 11.056499063598993 14.071128996935583 -1.5862311464331924e-15
    vertex 11.509375 9.999722992761694 -1.762479051592436e-16
  endloop
endfacet
facet normal -7.148808352351061e-18 1.3563493558395128e-17 -1.0
  outer loop
    vertex 11.509375 9.999722992761694 -1.762479051592436e-16
    vertex 11.056499063598993 14.071128996935583 -1.5862311464331924e-15
    vertex 12.700000000000003 14.28749999999999 1.0574874309554614e-15
  endloop
endfacet
facet normal -7.148808352351061e-18 1.3563493558395128e-17 -1.0
  outer loop
    vertex 11.509375 9.999722992761694 -1.762479051592436e-16
    vertex 12.700000000000003 14.28749999999999 1.0574874309554614e-15
    vertex 12.083687148849624 10.237610873850844 -8.81239525796218e-16
  endloop
endfacet
facet normal -7.148808352351061e-18 1.3563493558395128e-17 -1.0
  outer loop
    vertex 12.083687148849624 10.237610873850844 -8.81239525796218e-16
    vertex 12.700000000000003 14.28749999999999 1.0574874309554614e-15
    vertex 12.700000000000003 10.31875 5.287437154777307e-16
  endloop
endfacet
facet normal -7.148808352351061e-18 1.3563493558395128e-17 -1.0
  outer loop
    vertex 12.700000000000003 10.31875 5.287437154777307e-16
    vertex 12.700000000000003 14.28749999999999 1.0574874309554614e-15
    vertex 14.34350093640101 14.071128996935583 -1.5862311464331924e-15
  endloop
endfacet
facet normal -7.148808352351061e-18 1.3563493558395128e-17 -1.0
  outer loop
    vertex 12.700000000000003 10.31875 5.287437154777307e-16
    vertex 14.34350093640101 14.071128996935583 -1.5862311464331924e-15
    vertex 13.31631285115038 10.23761087385084 -1.0574874309554614e-15
  endloop
endfacet
facet normal -7.148808352351061e-18 1.3563493558395128e-17 -1.0
  outer loop
    vertex 13.31631285115038 10.23761087385084 -1.0574874309554614e-15
    vertex 14.34350093640101 14.071128996935583 -1.5862311464331924e-15
    vertex 13.890625000000002 9.999722992761694 -1.5862311464331924e-15
  endloop
endfacet
facet normal -7.148808352351061e-18 1.3563493558395128e-17 -1.0
  outer loop
    vertex 13.890625000000002 9.999722992761694 -1.5862311464331924e-15
    vertex 14.34350093640101 14.071128996935583 -1.5862311464331924e-15
    vertex 14.383798022700468 9.621298022700465 -5.287437154777307e-16
  endloop
endfacet
facet normal -7.148808352351061e-18 1.3563493558395128e-17 -1.0
  outer loop
    vertex 14.383798022700468 9.621298022700465 -5.287437154777307e-16
    vertex 14.34350093640101 14.071128996935583 -1.5862311464331924e-15
    vertex 15.875000000000002 13.43676131403118 1.762479051592436e-15
  endloop
endfacet
facet normal -7.148808352351061e-18 1.3563493558395128e-17 -1.0
  outer loop
    vertex 14.383798022700468 9.621298022700465 -5.287437154777307e-16
    vertex 15.875000000000002 13.43676131403118 1.762479051592436e-15
    vertex 14.762222992761695 9.128124999999994 3.348710198025628e-15
  endloop
endfacet
facet normal -7.148808352351061e-18 1.3563493558395128e-17 -1.0
  outer loop
    vertex 14.762222992761695 9.128124999999994 3.348710198025628e-15
    vertex 15.875000000000002 13.43676131403118 1.762479051592436e-15
    vertex 15.000110873850844 8.553812851150376 -7.049916206369744e-16
  endloop
endfacet
facet normal -7.148808352351061e-18 1.3563493558395128e-17 -1.0
  outer loop
    vertex 15.000110873850844 8.553812851150376 -7.049916206369744e-16
    vertex 15.875000000000002 13.43676131403118 1.762479051592436e-15
    vertex 15.081249999999999 7.9375 5.287437154777307e-16
  endloop
endfacet
facet normal -7.148808352351061e-18 1.3563493558395128e-17 -1.0
  outer loop
    vertex 7.2007386859688145 11.112499999999997 1.4099832412739487e-15
    vertex 0.0 0.0 0.0
    vertex 0.0 3.1750000000000007 1.762479051592436e-15
  endloop
endfacet
facet normal -7.148808352351061e-18 1.3563493558395128e-17 -1.0
  outer loop
    vertex 0.0 0.0 0.0
    vertex 7.2007386859688145 11.112499999999997 1.4099832412739487e-15
    vertex 11.016201977299534 6.253701977299534 -1.0574874309554614e-15
  endloop
endfacet
facet normal -7.148808352351061e-18 1.3563493558395128e-17 -1.0
  outer loop
    vertex 0.0 0.0 0.0
    vertex 11.016201977299534 6.253701977299534 -1.0574874309554614e-15
    vertex 11.509375 5.875277007238306 4.229949723821846e-15
  endloop
endfacet
facet normal -7.148808352351061e-18 1.3563493558395128e-17 -1.0
  outer loop
    vertex 0.0 0.0 0.0
    vertex 11.509375 5.875277007238306 4.229949723821846e-15
    vertex 25.4 0.0 0.0
  endloop
endfacet
facet normal -7.148808352351061e-18 1.3563493558395128e-17 -1.0
  outer loop
    vertex 11.016201977299534 6.253701977299534 -1.0574874309554614e-15
    vertex 7.2007386859688145 11.112499999999997 1.4099832412739487e-15
    vertex 10.637777007238306 6.746874999999999 1.0574874309554614e-15
  endloop
endfacet
facet normal -7.148808352351061e-18 1.3563493558395128e-17 -1.0
  outer loop
    vertex 10.637777007238306 6.746874999999999 1.0574874309554614e-15
    vertex 7.2007386859688145 11.112499999999997 1.4099832412739487e-15
    vertex 8.209871939465424 12.42762806053457 3.877453913503359e-15
  endloop
endfacet
facet normal -7.148808352351061e-18 1.3563493558395128e-17 -1.0
  outer loop
    vertex 10.637777007238306 6.746874999999999 1.0574874309554614e-15
    vertex 8.209871939465424 12.42762806053457 3.877453913503359e-15
    vertex 10.399889126149157 7.321187148849619 -1.762479051592436e-16
  endloop
endfacet
facet normal -7.148808352351061e-18 1.3563493558395128e-17 -1.0
  outer loop
    vertex 10.399889126149157 7.321187148849619 -1.762479051592436e-16
    vertex 8.209871939465424 12.42762806053457 3.877453913503359e-15
    vertex 9.525 13.436761314031186 1.0574874309554614e-15
  endloop
endfacet
facet normal -7.148808352351061e-18 1.3563493558395128e-17 -1.0
  outer loop
    vertex 10.399889126149157 7.321187148849619 -1.762479051592436e-16
    vertex 9.525 13.436761314031186 1.0574874309554614e-15
    vertex 10.318750000000001 7.9375 5.287437154777307e-16
  endloop
endfacet
facet normal -7.148808352351061e-18 1.3563493558395128e-17 -1.0
  outer loop
    vertex 25.4 0.0 0.0
    vertex 11.509375 5.875277007238306 4.229949723821846e-15
    vertex 12.083687148849624 5.637389126149157 7.049916206369744e-16
  endloop
endfacet
facet normal -7.148808352351061e-18 1.3563493558395128e-17 -1.0
  outer loop
    vertex 25.4 0.0 0.0
    vertex 12.083687148849624 5.637389126149157 7.049916206369744e-16
    vertex 12.700000000000003 5.556250000000002 2.114974861910923e-15
  endloop
endfacet
facet normal -7.148808352351061e-18 1.3563493558395128e-17 -1.0
  outer loop
    vertex 25.4 0.0 0.0
    vertex 12.700000000000003 5.556250000000002 2.114974861910923e-15
    vertex 13.31631285115038 5.637389126149157 7.049916206369744e-16
  endloop
endfacet
facet normal -7.148808352351061e-18 1.3563493558395128e-17 -1.0
  outer loop
    vertex 25.4 0.0 0.0
    vertex 13.31631285115038 5.637389126149157 7.049916206369744e-16
    vertex 13.890625000000002 5.875277007238306 4.229949723821846e-15
  endloop
endfacet
facet normal -7.148808352351061e-18 1.3563493558395128e-17 -1.0
  outer loop
    vertex 25.4 0.0 0.0
    vertex 13.890625000000002 5.875277007238306 4.229949723821846e-15
    vertex 14.383798022700464 6.253701977299534 -1.0574874309554614e-15
  endloop
endfacet
facet normal -7.148808352351061e-18 1.3563493558395128e-17 -1.0
  outer loop
    vertex 25.4 0.0 0.0
    vertex 14.383798022700464 6.253701977299534 -1.0574874309554614e-15
    vertex 14.762222992761695 6.746874999999999 1.0574874309554614e-15
  endloop
endfacet
facet normal -7.148808352351061e-18 1.3563493558395128e-17 -1.0
  outer loop
    vertex 25.4 0.0 0.0
    vertex 14.762222992761695 6.746874999999999 1.0574874309554614e-15
    vertex 15.000110873850844 7.321187148849619 -1.762479051592436e-16
  endloop
endfacet
facet normal -7.148808352351061e-18 1.3563493558395128e-17 -1.0
  outer loop
    vertex 25.4 0.0 0.0
    vertex 15.000110873850844 7.321187148849619 -1.762479051592436e-16
    vertex 15.081249999999999 7.9375 5.287437154777307e-16
  endloop
endfacet
facet normal -7.148808352351061e-18 1.3563493558395128e-17 -1.0
  outer loop
    vertex 25.4 0.0 0.0
    vertex 15.081249999999999 7.9375 5.287437154777307e-16
    vertex 15.875000000000002 13.43676131403118 1.762479051592436e-15
  endloop
endfacet
facet normal -7.148808352351061e-18 1.3563493558395128e-17 -1.0
  outer loop
    vertex 25.4 0.0 0.0
    vertex 15.875000000000002 13.43676131403118 1.762479051592436e-15
    vertex 17.19012806053458 12.42762806053457 3.877453913503359e-15
  endloop
endfacet
facet normal -7.148808352351061e-18 1.3563493558395128e-17 -1.0
  outer loop
    vertex 25.4 0.0 0.0
    vertex 17.19012806053458 12.42762806053457 3.877453913503359e-15
    vertex 18.199261314031187 11.112499999999994 0.0
  endloop
endfacet
facet normal -7.148808352351061e-18 1.3563493558395128e-17 -1.0
  outer loop
    vertex 25.4 0.0 0.0
    vertex 18.199261314031187 11.112499999999994 0.0
    vertex 25.4 3.1750000000000007 1.762479051592436e-15
  endloop
endfacet
facet normal -2.5902346490898675e-17 -1.7641910379728864e-16 1.0
  outer loop
    vertex 25.4 -5.287437154777307e-16 6.35
    vertex 0.0 3.175000000000002 6.350000000000002
    vertex 0.0 -5.287437154777307e-16 6.35
  endloop
endfacet
facet normal -2.5902346490898675e-17 -1.7641910379728864e-16 1.0
  outer loop
    vertex 0.0 3.175000000000002 6.350000000000002
    vertex 25.4 -5.287437154777307e-16 6.35
    vertex 11.509375 5.875277007238306 6.350000000000001
  endloop
endfacet
facet normal -2.5902346490898675e-17 -1.7641910379728864e-16 1.0
  outer loop
    vertex 0.0 3.175000000000002 6.350000000000002
    vertex 11.509375 5.875277007238306 6.350000000000001
    vertex 11.016201977299534 6.2537019772995315 6.350000000000001
  endloop
endfacet
facet normal -2.5902346490898675e-17 -1.7641910379728864e-16 1.0
  outer loop
    vertex 0.0 3.175000000000002 6.350000000000002
    vertex 11.016201977299534 6.2537019772995315 6.350000000000001
    vertex 7.2007386859688145 11.112499999999997 6.35
  endloop
endfacet
facet normal -2.5902346490898675e-17 -1.7641910379728864e-16 1.0
  outer loop
    vertex 7.2007386859688145 11.112499999999997 6.35
    vertex 11.016201977299534 6.2537019772995315 6.350000000000001
    vertex 10.637777007238306 6.746874999999999 6.350000000000002
  endloop
endfacet
facet normal -2.5902346490898675e-17 -1.7641910379728864e-16 1.0
  outer loop
    vertex 7.2007386859688145 11.112499999999997 6.35
    vertex 10.637777007238306 6.746874999999999 6.350000000000002
    vertex 8.209871939465424 12.427628060534573 6.350000000000004
  endloop
endfacet
facet normal -2.5902346490898675e-17 -1.7641910379728864e-16 1.0
  outer loop
    vertex 8.209871939465424 12.427628060534573 6.350000000000004
    vertex 10.637777007238306 6.746874999999999 6.350000000000002
    vertex 10.399889126149157 7.321187148849619 6.350000000000001
  endloop
endfacet
facet normal -2.5902346490898675e-17 -1.7641910379728864e-16 1.0
  outer loop
    vertex 8.209871939465424 12.427628060534573 6.350000000000004
    vertex 10.399889126149157 7.321187148849619 6.350000000000001
    vertex 9.525 13.436761314031186 6.35
  endloop
endfacet
facet normal -2.5902346490898675e-17 -1.7641910379728864e-16 1.0
  outer loop
    vertex 9.525 13.436761314031186 6.35
    vertex 10.399889126149157 7.321187148849619 6.350000000000001
    vertex 10.318750000000001 7.9375 6.350000000000001
  endloop
endfacet
facet normal -2.5902346490898675e-17 -1.7641910379728864e-16 1.0
  outer loop
    vertex 11.509375 5.875277007238306 6.350000000000001
    vertex 25.4 -5.287437154777307e-16 6.35
    vertex 12.083687148849624 5.637389126149157 6.350000000000001
  endloop
endfacet
facet normal -2.5902346490898675e-17 -1.7641910379728864e-16 1.0
  outer loop
    vertex 12.083687148849624 5.637389126149157 6.350000000000001
    vertex 25.4 -5.287437154777307e-16 6.35
    vertex 12.700000000000003 5.55625 6.350000000000001
  endloop
endfacet
facet normal -2.5902346490898675e-17 -1.7641910379728864e-16 1.0
  outer loop
    vertex 12.700000000000003 5.55625 6.350000000000001
    vertex 25.4 -5.287437154777307e-16 6.35
    vertex 13.31631285115038 5.637389126149157 6.350000000000001
  endloop
endfacet
facet normal -2.5902346490898675e-17 -1.7641910379728864e-16 1.0
  outer loop
    vertex 13.31631285115038 5.637389126149157 6.350000000000001
    vertex 25.4 -5.287437154777307e-16 6.35
    vertex 13.890625000000002 5.875277007238306 6.350000000000001
  endloop
endfacet
facet normal -2.5902346490898675e-17 -1.7641910379728864e-16 1.0
  outer loop
    vertex 13.890625000000002 5.875277007238306 6.350000000000001
    vertex 25.4 -5.287437154777307e-16 6.35
    vertex 14.383798022700464 6.2537019772995315 6.350000000000001
  endloop
endfacet
facet normal -2.5902346490898675e-17 -1.7641910379728864e-16 1.0
  outer loop
    vertex 14.383798022700464 6.2537019772995315 6.350000000000001
    vertex 25.4 -5.287437154777307e-16 6.35
    vertex 14.762222992761695 6.746874999999999 6.350000000000002
  endloop
endfacet
facet normal -2.5902346490898675e-17 -1.7641910379728864e-16 1.0
  outer loop
    vertex 14.762222992761695 6.746874999999999 6.350000000000002
    vertex 25.4 -5.287437154777307e-16 6.35
    vertex 15.000110873850844 7.321187148849619 6.350000000000001
  endloop
endfacet
facet normal -2.5902346490898675e-17 -1.7641910379728864e-16 1.0
  outer loop
    vertex 15.000110873850844 7.321187148849619 6.350000000000001
    vertex 25.4 -5.287437154777307e-16 6.35
    vertex 15.081249999999999 7.9375 6.350000000000001
  endloop
endfacet
facet normal -2.5902346490898675e-17 -1.7641910379728864e-16 1.0
  outer loop
    vertex 15.081249999999999 7.9375 6.350000000000001
    vertex 25.4 -5.287437154777307e-16 6.35
    vertex 15.875000000000002 13.43676131403118 6.350000000000001
  endloop
endfacet
facet normal -2.5902346490898675e-17 -1.7641910379728864e-16 1.0
  outer loop
    vertex 15.875000000000002 13.43676131403118 6.350000000000001
    vertex 25.4 -5.287437154777307e-16 6.35
    vertex 17.19012806053458 12.427628060534573 6.350000000000004
  endloop
endfacet
facet normal -2.5902346490898675e-17 -1.7641910379728864e-16 1.0
  outer loop
    vertex 17.19012806053458 12.427628060534573 6.350000000000004
    vertex 25.4 -5.287437154777307e-16 6.35
    vertex 18.199261314031187 11.112499999999997 6.350000000000002
  endloop
endfacet
facet normal -2.5902346490898675e-17 -1.7641910379728864e-16 1.0
  outer loop
    vertex 18.199261314031187 11.112499999999997 6.350000000000002
    vertex 25.4 -5.287437154777307e-16 6.35
    vertex 25.4 3.175000000000002 6.350000000000002
  endloop
endfacet
facet normal -2.5902346490898675e-17 -1.7641910379728864e-16 1.0
  outer loop
    vertex 10.318750000000001 7.9375 6.350000000000001
    vertex 11.056499063598993 14.071128996935578 6.350000000000004
    vertex 9.525 13.436761314031186 6.35
  endloop
endfacet
facet normal -2.5902346490898675e-17 -1.7641910379728864e-16 1.0
  outer loop
    vertex 11.056499063598993 14.071128996935578 6.350000000000004
    vertex 10.318750000000001 7.9375 6.350000000000001
    vertex 10.399889126149157 8.553812851150381 6.350000000000004
  endloop
endfacet
facet normal -2.5902346490898675e-17 -1.7641910379728864e-16 1.0
  outer loop
    vertex 11.056499063598993 14.071128996935578 6.350000000000004
    vertex 10.399889126149157 8.553812851150381 6.350000000000004
    vertex 10.637777007238306 9.128124999999999 6.350000000000004
  endloop
endfacet
facet normal -2.5902346490898675e-17 -1.7641910379728864e-16 1.0
  outer loop
    vertex 11.056499063598993 14.071128996935578 6.350000000000004
    vertex 10.637777007238306 9.128124999999999 6.350000000000004
    vertex 11.016201977299534 9.621298022700469 6.35
  endloop
endfacet
facet normal -2.5902346490898675e-17 -1.7641910379728864e-16 1.0
  outer loop
    vertex 11.056499063598993 14.071128996935578 6.350000000000004
    vertex 11.016201977299534 9.621298022700469 6.35
    vertex 11.509375 9.999722992761694 6.350000000000002
  endloop
endfacet
facet normal -2.5902346490898675e-17 -1.7641910379728864e-16 1.0
  outer loop
    vertex 11.056499063598993 14.071128996935578 6.350000000000004
    vertex 11.509375 9.999722992761694 6.350000000000002
    vertex 12.700000000000003 14.287500000000009 6.350000000000005
  endloop
endfacet
facet normal -2.5902346490898675e-17 -1.7641910379728864e-16 1.0
  outer loop
    vertex 12.700000000000003 14.287500000000009 6.350000000000005
    vertex 11.509375 9.999722992761694 6.350000000000002
    vertex 12.083687148849624 10.237610873850837 6.35
  endloop
endfacet
facet normal -2.5902346490898675e-17 -1.7641910379728864e-16 1.0
  outer loop
    vertex 12.700000000000003 14.287500000000009 6.350000000000005
    vertex 12.083687148849624 10.237610873850837 6.35
    vertex 12.700000000000003 10.31875 6.35
  endloop
endfacet
facet normal -2.5902346490898675e-17 -1.7641910379728864e-16 1.0
  outer loop
    vertex 12.700000000000003 14.287500000000009 6.350000000000005
    vertex 12.700000000000003 10.31875 6.35
    vertex 13.31631285115038 10.237610873850835 6.350000000000002
  endloop
endfacet
facet normal -2.5902346490898675e-17 -1.7641910379728864e-16 1.0
  outer loop
    vertex 12.700000000000003 14.287500000000009 6.350000000000005
    vertex 13.31631285115038 10.237610873850835 6.350000000000002
    vertex 14.34350093640101 14.071128996935578 6.350000000000004
  endloop
endfacet
facet normal -2.5902346490898675e-17 -1.7641910379728864e-16 1.0
  outer loop
    vertex 14.34350093640101 14.071128996935578 6.350000000000004
    vertex 13.31631285115038 10.237610873850835 6.350000000000002
    vertex 13.890625000000002 9.999722992761688 6.35
  endloop
endfacet
facet normal -2.5902346490898675e-17 -1.7641910379728864e-16 1.0
  outer loop
    vertex 14.34350093640101 14.071128996935578 6.350000000000004
    vertex 13.890625000000002 9.999722992761688 6.35
    vertex 14.383798022700468 9.621298022700465 6.350000000000002
  endloop
endfacet
facet normal -2.5902346490898675e-17 -1.7641910379728864e-16 1.0
  outer loop
    vertex 14.34350093640101 14.071128996935578 6.350000000000004
    vertex 14.383798022700468 9.621298022700465 6.350000000000002
    vertex 15.875000000000002 13.43676131403118 6.350000000000001
  endloop
endfacet
facet normal -2.5902346490898675e-17 -1.7641910379728864e-16 1.0
  outer loop
    vertex 15.875000000000002 13.43676131403118 6.350000000000001
    vertex 14.383798022700468 9.621298022700465 6.350000000000002
    vertex 14.762222992761695 9.128124999999997 6.350000000000004
  endloop
endfacet
facet normal -2.5902346490898675e-17 -1.7641910379728864e-16 1.0
  outer loop
    vertex 15.875000000000002 13.43676131403118 6.350000000000001
    vertex 14.762222992761695 9.128124999999997 6.350000000000004
    vertex 15.000110873850844 8.553812851150376 6.350000000000002
  endloop
endfacet
facet normal -2.5902346490898675e-17 -1.7641910379728864e-16 1.0
  outer loop
    vertex 15.875000000000002 13.43676131403118 6.350000000000001
    vertex 15.000110873850844 8.553812851150376 6.350000000000002
    vertex 15.081249999999999 7.9375 6.350000000000001
  endloop
endfacet
facet normal 0.0 -1.0 -8.326672684688674e-17
  outer loop
    vertex 25.4 -5.287437154777307e-16 6.35
    vertex 0.0 0.0 0.0
    vertex 25.4 0.0 0.0
  endloop
endfacet
facet normal 0.0 -1.0 -8.326672684688674e-17
  outer loop
    vertex 0.0 0.0 0.0
    vertex 25.4 -5.287437154777307e-16 6.35
    vertex 0.0 -5.287437154777307e-16 6.35
  endloop
endfacet
facet normal -1.0 0.0 0.0
  outer loop
    vertex 0.0 3.175000000000002 6.350000000000002
    vertex 0.0 0.0 0.0
    vertex 0.0 -5.287437154777307e-16 6.35
  endloop
endfacet
facet normal -1.0 0.0 0.0
  outer loop
    vertex 0.0 0.0 0.0
    vertex 0.0 3.175000000000002 6.350000000000002
    vertex 0.0 3.1750000000000007 1.762479051592436e-15
  endloop
endfacet
facet normal -0.7406442364486366 0.6718973991729809 -9.367667667815831e-17
  outer loop
    vertex 0.0 3.175000000000002 6.350000000000002
    vertex 7.2007386859688145 11.112499999999997 1.4099832412739487e-15
    vertex 0.0 3.1750000000000007 1.762479051592436e-15
  endloop
endfacet
facet normal -0.7406442364486366 0.6718973991729809 -9.367667667815831e-17
  outer loop
    vertex 7.2007386859688145 11.112499999999997 1.4099832412739487e-15
    vertex 0.0 3.175000000000002 6.350000000000002
    vertex 7.2007386859688145 11.112499999999997 6.35
  endloop
endfacet
facet normal -0.7071067811865481 0.7071067811865471 -1.5021982910168473e-16
  outer loop
    vertex 8.209871939465424 12.427628060534573 6.350000000000004
    vertex 7.2007386859688145 11.112499999999997 1.4099832412739487e-15
    vertex 7.2007386859688145 11.112499999999997 6.35
  endloop
endfacet
facet normal -0.7933533402912344 0.6087614290087218 -1.2696922499238955e-16
  outer loop
    vertex 7.2007386859688145 11.112499999999997 1.4099832412739487e-15
    vertex 8.209871939465424 12.427628060534573 6.350000000000004
    vertex 8.209871939465424 12.42762806053457 3.877453913503359e-15
  endloop
endfacet
facet normal -0.7071067811865482 0.707106781186547 -1.5021982910168475e-16
  outer loop
    vertex 8.209871939465424 12.42762806053457 3.877453913503359e-15
    vertex 9.525 13.436761314031186 6.35
    vertex 9.525 13.436761314031186 1.0574874309554614e-15
  endloop
endfacet
facet normal -0.5000000000000002 0.8660254037844386 1.20954984596242e-16
  outer loop
    vertex 9.525 13.436761314031186 6.35
    vertex 8.209871939465424 12.42762806053457 3.877453913503359e-15
    vertex 8.209871939465424 12.427628060534573 6.350000000000004
  endloop
endfacet
facet normal -0.5 0.8660254037844386 1.209549845962423e-16
  outer loop
    vertex 9.525 13.436761314031186 1.0574874309554614e-15
    vertex 11.056499063598993 14.071128996935578 6.350000000000004
    vertex 11.056499063598993 14.071128996935583 -1.5862311464331924e-15
  endloop
endfacet
facet normal -0.25881904510252035 0.9659258262890684 -2.37537210755265e-16
  outer loop
    vertex 11.056499063598993 14.071128996935578 6.350000000000004
    vertex 9.525 13.436761314031186 1.0574874309554614e-15
    vertex 9.525 13.436761314031186 6.35
  endloop
endfacet
facet normal -0.25881904510252035 0.9659258262890684 -2.37537210755265e-16
  outer loop
    vertex 11.056499063598993 14.071128996935578 6.350000000000004
    vertex 12.700000000000003 14.28749999999999 1.0574874309554614e-15
    vertex 11.056499063598993 14.071128996935583 -1.5862311464331924e-15
  endloop
endfacet
facet normal -5.3466659373881365e-17 1.0 -8.893592114766412e-16
  outer loop
    vertex 12.700000000000003 14.28749999999999 1.0574874309554614e-15
    vertex 11.056499063598993 14.071128996935578 6.350000000000004
    vertex 12.700000000000003 14.287500000000009 6.350000000000005
  endloop
endfacet
facet normal -5.3466659373881365e-17 1.0 -8.893592114766412e-16
  outer loop
    vertex 12.700000000000003 14.28749999999999 1.0574874309554614e-15
    vertex 14.34350093640101 14.071128996935578 6.350000000000004
    vertex 14.34350093640101 14.071128996935583 -1.5862311464331924e-15
  endloop
endfacet
facet normal 0.2588190451025222 0.9659258262890679 -2.3748962529282163e-16
  outer loop
    vertex 14.34350093640101 14.071128996935578 6.350000000000004
    vertex 12.700000000000003 14.28749999999999 1.0574874309554614e-15
    vertex 12.700000000000003 14.287500000000009 6.350000000000005
  endloop
endfacet
facet normal 0.2588190451025222 0.9659258262890679 -2.3748962529282163e-16
  outer loop
    vertex 14.34350093640101 14.071128996935578 6.350000000000004
    vertex 15.875000000000002 13.43676131403118 1.762479051592436e-15
    vertex 14.34350093640101 14.071128996935583 -1.5862311464331924e-15
  endloop
endfacet
facet normal 0.5000000000000006 0.8660254037844384 1.2545556698586003e-16
  outer loop
    vertex 15.875000000000002 13.43676131403118 1.762479051592436e-15
    vertex 14.34350093640101 14.071128996935578 6.350000000000004
    vertex 15.875000000000002 13.43676131403118 6.350000000000001
  endloop
endfacet
facet normal 0.5000000000000006 0.8660254037844385 1.254555669858597e-16
  outer loop
    vertex 15.875000000000002 13.43676131403118 6.350000000000001
    vertex 17.19012806053458 12.42762806053457 3.877453913503359e-15
    vertex 15.875000000000002 13.43676131403118 1.762479051592436e-15
  endloop
endfacet
facet normal 0.7071067811865474 0.7071067811865477 -2.1587399974252676e-16
  outer loop
    vertex 17.19012806053458 12.42762806053457 3.877453913503359e-15
    vertex 15.875000000000002 13.43676131403118 6.350000000000001
    vertex 17.19012806053458 12.427628060534573 6.350000000000004
  endloop
endfacet
facet normal 0.7071067811865474 0.7071067811865477 -2.1587399974252676e-16
  outer loop
    vertex 17.19012806053458 12.42762806053457 3.877453913503359e-15
    vertex 18.199261314031187 11.112499999999997 6.350000000000002
    vertex 18.199261314031187 11.112499999999994 0.0
  endloop
endfacet
facet normal 0.7933533402912347 0.6087614290087212 -2.659840070539547e-16
  outer loop
    vertex 18.199261314031187 11.112499999999997 6.350000000000002
    vertex 17.19012806053458 12.42762806053457 3.877453913503359e-15
    vertex 17.19012806053458 12.427628060534573 6.350000000000004
  endloop
endfacet
facet normal 0.740644236448637 0.6718973991729806 -2.3523543706631956e-16
  outer loop
    vertex 18.199261314031187 11.112499999999994 0.0
    vertex 25.4 3.175000000000002 6.350000000000002
    vertex 25.4 3.1750000000000007 1.762479051592436e-15
  endloop
endfacet
facet normal 0.740644236448637 0.6718973991729806 -2.3523543706631956e-16
  outer loop
    vertex 25.4 3.175000000000002 6.350000000000002
    vertex 18.199261314031187 11.112499999999994 0.0
    vertex 18.199261314031187 11.112499999999997 6.350000000000002
  endloop
endfacet
facet normal 1.0 -0.0 -0.0
  outer loop
    vertex 25.4 0.0 0.0
    vertex 25.4 3.175000000000002 6.350000000000002
    vertex 25.4 -5.287437154777307e-16 6.35
  endloop
endfacet
facet normal 1.0 -0.0 -0.0
  outer loop
    vertex 25.4 3.175000000000002 6.350000000000002
    vertex 25.4 0.0 0.0
    vertex 25.4 3.1750000000000007 1.762479051592436e-15
  endloop
endfacet
facet normal -0.4999999999999975 -0.86602540378444 -5.920311266465925e-16
  outer loop
    vertex 13.890625000000002 9.999722992761688 6.35
    vertex 13.31631285115038 10.23761087385084 -1.0574874309554614e-15
    vertex 13.890625000000002 9.999722992761694 -1.5862311464331924e-15
  endloop
endfacet
facet normal -0.2588190451025234 -0.9659258262890676 -6.357999153097539e-16
  outer loop
    vertex 13.31631285115038 10.23761087385084 -1.0574874309554614e-15
    vertex 13.890625000000002 9.999722992761688 6.35
    vertex 13.31631285115038 10.237610873850835 6.350000000000002
  endloop
endfacet
facet normal -0.2588190451025233 -0.9659258262890676 -6.357999153097537e-16
  outer loop
    vertex 13.31631285115038 10.237610873850835 6.350000000000002
    vertex 12.700000000000003 10.31875 5.287437154777307e-16
    vertex 13.31631285115038 10.23761087385084 -1.0574874309554614e-15
  endloop
endfacet
facet normal -2.281244133285606e-15 -1.0 -4.4408920985006257e-16
  outer loop
    vertex 12.700000000000003 10.31875 5.287437154777307e-16
    vertex 13.31631285115038 10.237610873850835 6.350000000000002
    vertex 12.700000000000003 10.31875 6.35
  endloop
endfacet
facet normal -2.281244133285606e-15 -1.0 -4.4408920985006257e-16
  outer loop
    vertex 12.700000000000003 10.31875 5.287437154777307e-16
    vertex 12.083687148849624 10.237610873850837 6.35
    vertex 12.083687148849624 10.237610873850844 -8.81239525796218e-16
  endloop
endfacet
facet normal 0.2588190451025208 -0.9659258262890682 -4.2916586487668283e-16
  outer loop
    vertex 12.083687148849624 10.237610873850837 6.35
    vertex 12.700000000000003 10.31875 5.287437154777307e-16
    vertex 12.700000000000003 10.31875 6.35
  endloop
endfacet
facet normal 0.2588190451025208 -0.9659258262890682 -4.2916586487668283e-16
  outer loop
    vertex 12.083687148849624 10.237610873850837 6.35
    vertex 11.509375 9.999722992761694 -1.762479051592436e-16
    vertex 12.083687148849624 10.237610873850844 -8.81239525796218e-16
  endloop
endfacet
facet normal 0.49999999999999767 -0.8660254037844399 -1.1768539630541419e-16
  outer loop
    vertex 11.509375 9.999722992761694 -1.762479051592436e-16
    vertex 12.083687148849624 10.237610873850837 6.35
    vertex 11.509375 9.999722992761694 6.350000000000002
  endloop
endfacet
facet normal 0.49999999999999767 -0.8660254037844399 -1.1768539630541419e-16
  outer loop
    vertex 11.509375 9.999722992761694 -1.762479051592436e-16
    vertex 11.016201977299534 9.621298022700469 6.35
    vertex 11.016201977299534 9.621298022700465 -5.287437154777307e-16
  endloop
endfacet
facet normal 0.7071067811865474 -0.7071067811865477 1.5768955887769598e-16
  outer loop
    vertex 11.016201977299534 9.621298022700469 6.35
    vertex 11.509375 9.999722992761694 -1.762479051592436e-16
    vertex 11.509375 9.999722992761694 6.350000000000002
  endloop
endfacet
facet normal 0.7071067811865472 -0.7071067811865477 1.5768955887769596e-16
  outer loop
    vertex 11.016201977299534 9.621298022700465 -5.287437154777307e-16
    vertex 10.637777007238306 9.128124999999999 6.350000000000004
    vertex 10.637777007238306 9.128124999999999 3.524958103184872e-16
  endloop
endfacet
facet normal 0.8660254037844385 -0.5000000000000003 1.115688880162575e-16
  outer loop
    vertex 10.637777007238306 9.128124999999999 6.350000000000004
    vertex 11.016201977299534 9.621298022700465 -5.287437154777307e-16
    vertex 11.016201977299534 9.621298022700469 6.35
  endloop
endfacet
facet normal 0.8660254037844384 -0.5000000000000007 1.115688880162576e-16
  outer loop
    vertex 10.637777007238306 9.128124999999999 3.524958103184872e-16
    vertex 10.399889126149157 8.553812851150381 6.350000000000004
    vertex 10.399889126149157 8.553812851150377 1.5862311464331924e-15
  endloop
endfacet
facet normal 0.9659258262890681 -0.25881904510252135 5.776087673235058e-17
  outer loop
    vertex 10.399889126149157 8.553812851150381 6.350000000000004
    vertex 10.637777007238306 9.128124999999999 3.524958103184872e-16
    vertex 10.637777007238306 9.128124999999999 6.350000000000004
  endloop
endfacet
facet normal 0.9659258262890681 -0.25881904510252113 5.776087673235052e-17
  outer loop
    vertex 10.399889126149157 8.553812851150377 1.5862311464331924e-15
    vertex 10.318750000000001 7.9375 6.350000000000001
    vertex 10.318750000000001 7.9375 5.287437154777307e-16
  endloop
endfacet
facet normal 1.0 -3.29711066138935e-16 1.446876443502872e-17
  outer loop
    vertex 10.318750000000001 7.9375 6.350000000000001
    vertex 10.399889126149157 8.553812851150377 1.5862311464331924e-15
    vertex 10.399889126149157 8.553812851150381 6.350000000000004
  endloop
endfacet
facet normal 1.0 -1.782221979129381e-17 1.4468764435028686e-17
  outer loop
    vertex 10.318750000000001 7.9375 5.287437154777307e-16
    vertex 10.399889126149157 7.321187148849619 6.350000000000001
    vertex 10.399889126149157 7.321187148849619 -1.762479051592436e-16
  endloop
endfacet
facet normal 0.965925826289068 0.25881904510252146 7.613792502283061e-19
  outer loop
    vertex 10.399889126149157 7.321187148849619 6.350000000000001
    vertex 10.318750000000001 7.9375 5.287437154777307e-16
    vertex 10.318750000000001 7.9375 6.350000000000001
  endloop
endfacet
facet normal 0.9659258262890681 0.25881904510252135 7.613792502283054e-19
  outer loop
    vertex 10.399889126149157 7.321187148849619 -1.762479051592436e-16
    vertex 10.637777007238306 6.746874999999999 6.350000000000002
    vertex 10.637777007238306 6.746874999999999 1.0574874309554614e-15
  endloop
endfacet
facet normal 0.8660254037844379 0.5000000000000011 6.982648209864815e-17
  outer loop
    vertex 10.637777007238306 6.746874999999999 6.350000000000002
    vertex 10.399889126149157 7.321187148849619 -1.762479051592436e-16
    vertex 10.399889126149157 7.321187148849619 6.350000000000001
  endloop
endfacet
facet normal 0.7071067811865474 0.7071067811865478 1.5833551698278625e-16
  outer loop
    vertex 11.016201977299534 6.253701977299534 -1.0574874309554614e-15
    vertex 10.637777007238306 6.746874999999999 6.350000000000002
    vertex 11.016201977299534 6.2537019772995315 6.350000000000001
  endloop
endfacet
facet normal 0.8660254037844379 0.5000000000000011 6.982648209864815e-17
  outer loop
    vertex 10.637777007238306 6.746874999999999 6.350000000000002
    vertex 11.016201977299534 6.253701977299534 -1.0574874309554614e-15
    vertex 10.637777007238306 6.746874999999999 1.0574874309554614e-15
  endloop
endfacet
facet normal 0.7071067811865472 0.7071067811865479 1.583355169827863e-16
  outer loop
    vertex 11.016201977299534 6.2537019772995315 6.350000000000001
    vertex 11.509375 5.875277007238306 4.229949723821846e-15
    vertex 11.016201977299534 6.253701977299534 -1.0574874309554614e-15
  endloop
endfacet
facet normal 0.4999999999999997 0.8660254037844389 8.913102769059727e-17
  outer loop
    vertex 11.509375 5.875277007238306 4.229949723821846e-15
    vertex 11.016201977299534 6.2537019772995315 6.350000000000001
    vertex 11.509375 5.875277007238306 6.350000000000001
  endloop
endfacet
facet normal 0.4999999999999997 0.8660254037844389 8.913102769059727e-17
  outer loop
    vertex 11.509375 5.875277007238306 4.229949723821846e-15
    vertex 12.083687148849624 5.637389126149157 6.350000000000001
    vertex 12.083687148849624 5.637389126149157 7.049916206369744e-16
  endloop
endfacet
facet normal 0.2588190451025199 0.9659258262890686 5.530252332505625e-17
  outer loop
    vertex 12.083687148849624 5.637389126149157 6.350000000000001
    vertex 11.509375 5.875277007238306 4.229949723821846e-15
    vertex 11.509375 5.875277007238306 6.350000000000001
  endloop
endfacet
facet normal 0.2588190451025199 0.9659258262890686 5.530252332505625e-17
  outer loop
    vertex 12.083687148849624 5.637389126149157 6.350000000000001
    vertex 12.700000000000003 5.556250000000002 2.114974861910923e-15
    vertex 12.083687148849624 5.637389126149157 7.049916206369744e-16
  endloop
endfacet
facet normal 0.0 1.0 1.109299805126058e-16
  outer loop
    vertex 12.700000000000003 5.556250000000002 2.114974861910923e-15
    vertex 12.083687148849624 5.637389126149157 6.350000000000001
    vertex 12.700000000000003 5.55625 6.350000000000001
  endloop
endfacet
facet normal 0.0 1.0 1.109299805126058e-16
  outer loop
    vertex 12.700000000000003 5.556250000000002 2.114974861910923e-15
    vertex 13.31631285115038 5.637389126149157 6.350000000000001
    vertex 13.31631285115038 5.637389126149157 7.049916206369744e-16
  endloop
endfacet
facet normal -0.2588190451025203 0.9659258262890684 5.530252332505623e-17
  outer loop
    vertex 13.31631285115038 5.637389126149157 6.350000000000001
    vertex 12.700000000000003 5.556250000000002 2.114974861910923e-15
    vertex 12.700000000000003 5.55625 6.350000000000001
  endloop
endfacet
facet normal -0.2588190451025203 0.9659258262890684 5.530252332505623e-17
  outer loop
    vertex 13.31631285115038 5.637389126149157 6.350000000000001
    vertex 13.890625000000002 5.875277007238306 4.229949723821846e-15
    vertex 13.31631285115038 5.637389126149157 7.049916206369744e-16
  endloop
endfacet
facet normal -0.5000000000000012 0.8660254037844379 8.913102769059705e-17
  outer loop
    vertex 13.890625000000002 5.875277007238306 4.229949723821846e-15
    vertex 13.31631285115038 5.637389126149157 6.350000000000001
    vertex 13.890625000000002 5.875277007238306 6.350000000000001
  endloop
endfacet
facet normal -0.5000000000000012 0.8660254037844379 8.913102769059705e-17
  outer loop
    vertex 13.890625000000002 5.875277007238306 4.229949723821846e-15
    vertex 14.383798022700464 6.2537019772995315 6.350000000000001
    vertex 14.383798022700464 6.253701977299534 -1.0574874309554614e-15
  endloop
endfacet
facet normal -0.7071067811865482 0.7071067811865469 1.5833551698278593e-16
  outer loop
    vertex 14.383798022700464 6.2537019772995315 6.350000000000001
    vertex 13.890625000000002 5.875277007238306 4.229949723821846e-15
    vertex 13.890625000000002 5.875277007238306 6.350000000000001
  endloop
endfacet
facet normal -0.8660254037844379 0.5000000000000011 6.982648209864809e-17
  outer loop
    vertex 14.762222992761695 6.746874999999999 6.350000000000002
    vertex 14.383798022700464 6.253701977299534 -1.0574874309554614e-15
    vertex 14.383798022700464 6.2537019772995315 6.350000000000001
  endloop
endfacet
facet normal -0.7071067811865483 0.7071067811865468 1.5833551698278598e-16
  outer loop
    vertex 14.383798022700464 6.253701977299534 -1.0574874309554614e-15
    vertex 14.762222992761695 6.746874999999999 6.350000000000002
    vertex 14.762222992761695 6.746874999999999 1.0574874309554614e-15
  endloop
endfacet
facet normal -0.965925826289068 0.25881904510252146 7.613792502283061e-19
  outer loop
    vertex 15.000110873850844 7.321187148849619 6.350000000000001
    vertex 14.762222992761695 6.746874999999999 1.0574874309554614e-15
    vertex 14.762222992761695 6.746874999999999 6.350000000000002
  endloop
endfacet
facet normal -0.8660254037844378 0.5000000000000012 6.982648209864812e-17
  outer loop
    vertex 14.762222992761695 6.746874999999999 1.0574874309554614e-15
    vertex 15.000110873850844 7.321187148849619 6.350000000000001
    vertex 15.000110873850844 7.321187148849619 -1.762479051592436e-16
  endloop
endfacet
facet normal -1.0 -6.594221322778706e-16 -2.308048747746593e-20
  outer loop
    vertex 15.081249999999999 7.9375 6.350000000000001
    vertex 15.000110873850844 7.321187148849619 -1.762479051592436e-16
    vertex 15.000110873850844 7.321187148849619 6.350000000000001
  endloop
endfacet
facet normal -0.9659258262890681 0.25881904510252135 7.613792502283054e-19
  outer loop
    vertex 15.000110873850844 7.321187148849619 -1.762479051592436e-16
    vertex 15.081249999999999 7.9375 6.350000000000001
    vertex 15.081249999999999 7.9375 5.287437154777307e-16
  endloop
endfacet
facet normal -0.9659258262890681 -0.25881904510252174 4.294409794735113e-17
  outer loop
    vertex 15.000110873850844 8.553812851150376 6.350000000000002
    vertex 15.081249999999999 7.9375 5.287437154777307e-16
    vertex 15.081249999999999 7.9375 6.350000000000001
  endloop
endfacet
facet normal -1.0 -5.970443630083421e-16 -2.3080487477465937e-20
  outer loop
    vertex 15.081249999999999 7.9375 5.287437154777307e-16
    vertex 15.000110873850844 8.553812851150376 6.350000000000002
    vertex 15.000110873850844 8.553812851150376 -7.049916206369744e-16
  endloop
endfacet
facet normal -0.8660254037844399 -0.4999999999999977 1.1263207841338303e-16
  outer loop
    vertex 14.762222992761695 9.128124999999997 6.350000000000004
    vertex 15.000110873850844 8.553812851150376 -7.049916206369744e-16
    vertex 15.000110873850844 8.553812851150376 6.350000000000002
  endloop
endfacet
facet normal -0.9659258262890681 -0.2588190451025213 4.2944097947351004e-17
  outer loop
    vertex 15.000110873850844 8.553812851150376 -7.049916206369744e-16
    vertex 14.762222992761695 9.128124999999997 6.350000000000004
    vertex 14.762222992761695 9.128124999999994 3.348710198025628e-15
  endloop
endfacet
facet normal -0.8660254037844399 -0.4999999999999977 1.1263207841338303e-16
  outer loop
    vertex 14.762222992761695 9.128124999999997 6.350000000000004
    vertex 14.383798022700468 9.621298022700465 -5.287437154777307e-16
    vertex 14.762222992761695 9.128124999999994 3.348710198025628e-15
  endloop
endfacet
facet normal -0.7071067811865488 -0.7071067811865462 -1.0854167482088303e-16
  outer loop
    vertex 14.383798022700468 9.621298022700465 -5.287437154777307e-16
    vertex 14.762222992761695 9.128124999999997 6.350000000000004
    vertex 14.383798022700468 9.621298022700465 6.350000000000002
  endloop
endfacet
facet normal -0.7071067811865488 -0.7071067811865462 -1.0854167482088303e-16
  outer loop
    vertex 14.383798022700468 9.621298022700465 -5.287437154777307e-16
    vertex 13.890625000000002 9.999722992761688 6.35
    vertex 13.890625000000002 9.999722992761694 -1.5862311464331924e-15
  endloop
endfacet
facet normal -0.4999999999999975 -0.86602540378444 -5.920311266465925e-16
  outer loop
    vertex 13.890625000000002 9.999722992761688 6.35
    vertex 14.383798022700468 9.621298022700465 -5.287437154777307e-16
    vertex 14.383798022700468 9.621298022700465 6.350000000000002
  endloop
endfacet
endsolid Bracket
