solid Bucket Bracket
facet normal -0.8660254037844387 0.5 0.0
  outer loop
    vertex 1.063423357461019 11.906249999999996 6.35
    vertex 0.27046375383052185 9.991876170501257 0.0
    vertex 0.27046375383052185 9.991876170501257 6.35
  endloop
endfacet
facet normal -0.9659258262890682 0.258819045102521 0.0
  outer loop
    vertex 0.27046375383052185 9.991876170501257 0.0
    vertex 1.063423357461019 11.906249999999996 6.35
    vertex 1.063423357461019 11.906249999999996 0.0
  endloop
endfacet
facet normal 4.544666046779922e-16 1.0 0.0
  outer loop
    vertex 7.9375 15.874999999999996 6.35
    vertex 9.991876170501264 15.604536246169474 0.0
    vertex 7.9375 15.874999999999996 0.0
  endloop
endfacet
facet normal 0.25881904510252113 0.9659258262890682 0.0
  outer loop
    vertex 9.991876170501264 15.604536246169474 0.0
    vertex 7.9375 15.874999999999996 6.35
    vertex 9.991876170501264 15.604536246169474 6.35
  endloop
endfacet
facet normal 0.7071067811865476 0.7071067811865475 0.0
  outer loop
    vertex 6.253701977299533 6.2537019772995315 6.35
    vertex 6.746874999999999 5.875277007238302 0.0
    vertex 6.253701977299533 6.2537019772995315 0.0
  endloop
endfacet
facet normal 0.5000000000000004 0.8660254037844384 0.0
  outer loop
    vertex 6.746874999999999 5.875277007238302 0.0
    vertex 6.253701977299533 6.2537019772995315 6.35
    vertex 6.746874999999999 5.875277007238302 6.35
  endloop
endfacet
facet normal -1.0 -2.940666265563478e-16 0.0
  outer loop
    vertex 10.31875 7.9374999999999964 6.35
    vertex 10.237610873850844 7.321187148849617 0.0
    vertex 10.237610873850844 7.321187148849617 6.35
  endloop
endfacet
facet normal -0.9659258262890682 0.25881904510252063 0.0
  outer loop
    vertex 10.237610873850844 7.321187148849617 0.0
    vertex 10.31875 7.9374999999999964 6.35
    vertex 10.31875 7.9374999999999964 0.0
  endloop
endfacet
facet normal -0.25881904510252096 0.9659258262890683 0.0
  outer loop
    vertex 5.883123829498741 15.604536246169477 6.35
    vertex 7.9375 15.874999999999996 0.0
    vertex 5.883123829498741 15.604536246169477 0.0
  endloop
endfacet
facet normal 4.544666046779922e-16 1.0 0.0
  outer loop
    vertex 7.9375 15.874999999999996 0.0
    vertex 5.883123829498741 15.604536246169477 6.35
    vertex 7.9375 15.874999999999996 6.35
  endloop
endfacet
facet normal 0.0 0.0 -1.0
  outer loop
    vertex 5.883123829498741 15.604536246169477 0.0
    vertex 5.5562499999999995 7.9374999999999964 0.0
    vertex 3.9687500000000004 14.811576642538977 0.0
  endloop
endfacet
facet normal 0.0 0.0 -1.0
  outer loop
    vertex 5.5562499999999995 7.9374999999999964 0.0
    vertex 5.883123829498741 15.604536246169477 0.0
    vertex 5.637389126149156 8.553812851150376 0.0
  endloop
endfacet
facet normal 0.0 0.0 -1.0
  outer loop
    vertex 5.637389126149156 8.553812851150376 0.0
    vertex 5.883123829498741 15.604536246169477 0.0
    vertex 5.875277007238305 9.128124999999997 0.0
  endloop
endfacet
facet normal 0.0 0.0 -1.0
  outer loop
    vertex 5.875277007238305 9.128124999999997 0.0
    vertex 5.883123829498741 15.604536246169477 0.0
    vertex 6.253701977299534 9.621298022700463 0.0
  endloop
endfacet
facet normal 0.0 0.0 -1.0
  outer loop
    vertex 6.253701977299534 9.621298022700463 0.0
    vertex 5.883123829498741 15.604536246169477 0.0
    vertex 7.9375 15.874999999999996 0.0
  endloop
endfacet
facet normal 0.0 0.0 -1.0
  outer loop
    vertex 6.253701977299534 9.621298022700463 0.0
    vertex 7.9375 15.874999999999996 0.0
    vertex 6.746874999999999 9.999722992761692 0.0
  endloop
endfacet
facet normal 0.0 0.0 -1.0
  outer loop
    vertex 6.746874999999999 9.999722992761692 0.0
    vertex 7.9375 15.874999999999996 0.0
    vertex 7.321187148849622 10.23761087385084 0.0
  endloop
endfacet
facet normal 0.0 0.0 -1.0
  outer loop
    vertex 7.321187148849622 10.23761087385084 0.0
    vertex 7.9375 15.874999999999996 0.0
    vertex 7.9375 10.318749999999996 0.0
  endloop
endfacet
facet normal 0.0 0.0 -1.0
  outer loop
    vertex 7.9375 10.318749999999996 0.0
    vertex 7.9375 15.874999999999996 0.0
    vertex 9.991876170501264 15.604536246169474 0.0
  endloop
endfacet
facet normal 0.0 0.0 -1.0
  outer loop
    vertex 7.9375 10.318749999999996 0.0
    vertex 9.991876170501264 15.604536246169474 0.0
    vertex 8.55381285115038 10.23761087385084 0.0
  endloop
endfacet
facet normal 0.0 0.0 -1.0
  outer loop
    vertex 8.55381285115038 10.23761087385084 0.0
    vertex 9.991876170501264 15.604536246169474 0.0
    vertex 9.128125 9.999722992761692 0.0
  endloop
endfacet
facet normal 0.0 0.0 -1.0
  outer loop
    vertex 9.128125 9.999722992761692 0.0
    vertex 9.991876170501264 15.604536246169474 0.0
    vertex 9.621298022700465 9.621298022700463 0.0
  endloop
endfacet
facet normal 0.0 0.0 -1.0
  outer loop
    vertex 9.621298022700465 9.621298022700463 0.0
    vertex 9.991876170501264 15.604536246169474 0.0
    vertex 9.999722992761694 9.128124999999995 0.0
  endloop
endfacet
facet normal 0.0 0.0 -1.0
  outer loop
    vertex 9.999722992761694 9.128124999999995 0.0
    vertex 9.991876170501264 15.604536246169474 0.0
    vertex 11.906250000000002 14.811576642538977 0.0
  endloop
endfacet
facet normal 0.0 0.0 -1.0
  outer loop
    vertex 9.999722992761694 9.128124999999995 0.0
    vertex 11.906250000000002 14.811576642538977 0.0
    vertex 10.237610873850844 8.553812851150374 0.0
  endloop
endfacet
facet normal 0.0 0.0 -1.0
  outer loop
    vertex 10.237610873850844 8.553812851150374 0.0
    vertex 11.906250000000002 14.811576642538977 0.0
    vertex 10.31875 7.9374999999999964 0.0
  endloop
endfacet
facet normal 0.0 0.0 -1.0
  outer loop
    vertex 0.27046375383052185 9.991876170501257 0.0
    vertex 2.8199664825478975e-15 0.0 0.0
    vertex 0.0 7.9374999999999964 0.0
  endloop
endfacet
facet normal 0.0 0.0 -1.0
  outer loop
    vertex 2.8199664825478975e-15 0.0 0.0
    vertex 0.27046375383052185 9.991876170501257 0.0
    vertex 15.874999999999996 0.0 0.0
  endloop
endfacet
facet normal 0.0 0.0 -1.0
  outer loop
    vertex 15.874999999999996 0.0 0.0
    vertex 0.27046375383052185 9.991876170501257 0.0
    vertex 6.746874999999999 5.875277007238302 0.0
  endloop
endfacet
facet normal 0.0 0.0 -1.0
  outer loop
    vertex 6.746874999999999 5.875277007238302 0.0
    vertex 0.27046375383052185 9.991876170501257 0.0
    vertex 6.253701977299533 6.2537019772995315 0.0
  endloop
endfacet
facet normal 0.0 0.0 -1.0
  outer loop
    vertex 6.253701977299533 6.2537019772995315 0.0
    vertex 0.27046375383052185 9.991876170501257 0.0
    vertex 1.063423357461019 11.906249999999996 0.0
  endloop
endfacet
facet normal 0.0 0.0 -1.0
  outer loop
    vertex 6.253701977299533 6.2537019772995315 0.0
    vertex 1.063423357461019 11.906249999999996 0.0
    vertex 5.875277007238305 6.746874999999997 0.0
  endloop
endfacet
facet normal 0.0 0.0 -1.0
  outer loop
    vertex 5.875277007238305 6.746874999999997 0.0
    vertex 1.063423357461019 11.906249999999996 0.0
    vertex 2.3248399243317794 13.550160075668218 0.0
  endloop
endfacet
facet normal 0.0 0.0 -1.0
  outer loop
    vertex 5.875277007238305 6.746874999999997 0.0
    vertex 2.3248399243317794 13.550160075668218 0.0
    vertex 5.637389126149156 7.32118714884962 0.0
  endloop
endfacet
facet normal 0.0 0.0 -1.0
  outer loop
    vertex 5.637389126149156 7.32118714884962 0.0
    vertex 2.3248399243317794 13.550160075668218 0.0
    vertex 3.9687500000000004 14.811576642538977 0.0
  endloop
endfacet
facet normal 0.0 0.0 -1.0
  outer loop
    vertex 5.637389126149156 7.32118714884962 0.0
    vertex 3.9687500000000004 14.811576642538977 0.0
    vertex 5.5562499999999995 7.9374999999999964 0.0
  endloop
endfacet
facet normal 0.0 0.0 -1.0
  outer loop
    vertex 15.874999999999996 0.0 0.0
    vertex 6.746874999999999 5.875277007238302 0.0
    vertex 7.321187148849622 5.637389126149153 0.0
  endloop
endfacet
facet normal 0.0 0.0 -1.0
  outer loop
    vertex 15.874999999999996 0.0 0.0
    vertex 7.321187148849622 5.637389126149153 0.0
    vertex 7.9375 5.556249999999997 0.0
  endloop
endfacet
facet normal 0.0 0.0 -1.0
  outer loop
    vertex 15.874999999999996 0.0 0.0
    vertex 7.9375 5.556249999999997 0.0
    vertex 8.553812851150376 5.637389126149153 0.0
  endloop
endfacet
facet normal 0.0 0.0 -1.0
  outer loop
    vertex 15.874999999999996 0.0 0.0
    vertex 8.553812851150376 5.637389126149153 0.0
    vertex 9.128124999999999 5.875277007238302 0.0
  endloop
endfacet
facet normal 0.0 0.0 -1.0
  outer loop
    vertex 15.874999999999996 0.0 0.0
    vertex 9.128124999999999 5.875277007238302 0.0
    vertex 9.621298022700465 6.25370197729953 0.0
  endloop
endfacet
facet normal 0.0 0.0 -1.0
  outer loop
    vertex 15.874999999999996 0.0 0.0
    vertex 9.621298022700465 6.25370197729953 0.0
    vertex 9.999722992761694 6.746874999999996 0.0
  endloop
endfacet
facet normal 0.0 0.0 -1.0
  outer loop
    vertex 15.874999999999996 0.0 0.0
    vertex 9.999722992761694 6.746874999999996 0.0
    vertex 10.237610873850844 7.321187148849617 0.0
  endloop
endfacet
facet normal 0.0 0.0 -1.0
  outer loop
    vertex 15.874999999999996 0.0 0.0
    vertex 10.237610873850844 7.321187148849617 0.0
    vertex 10.31875 7.9374999999999964 0.0
  endloop
endfacet
facet normal 0.0 0.0 -1.0
  outer loop
    vertex 15.874999999999996 0.0 0.0
    vertex 10.31875 7.9374999999999964 0.0
    vertex 11.906250000000002 14.811576642538977 0.0
  endloop
endfacet
facet normal 0.0 0.0 -1.0
  outer loop
    vertex 15.874999999999996 0.0 0.0
    vertex 11.906250000000002 14.811576642538977 0.0
    vertex 13.550160075668224 13.550160075668218 0.0
  endloop
endfacet
facet normal 0.0 0.0 -1.0
  outer loop
    vertex 15.874999999999996 0.0 0.0
    vertex 13.550160075668224 13.550160075668218 0.0
    vertex 14.811576642538986 11.906249999999991 0.0
  endloop
endfacet
facet normal 0.0 0.0 -1.0
  outer loop
    vertex 15.874999999999996 0.0 0.0
    vertex 14.811576642538986 11.906249999999991 0.0
    vertex 15.60453624616948 9.99187617050125 0.0
  endloop
endfacet
facet normal 0.0 0.0 -1.0
  outer loop
    vertex 15.874999999999996 0.0 0.0
    vertex 15.60453624616948 9.99187617050125 0.0
    vertex 15.875 7.937499999999996 0.0
  endloop
endfacet
facet normal -0.7071067811865475 0.7071067811865477 0.0
  outer loop
    vertex 2.3248399243317794 13.550160075668218 6.35
    vertex 3.9687500000000004 14.811576642538977 0.0
    vertex 2.3248399243317794 13.550160075668218 0.0
  endloop
endfacet
facet normal -0.5000000000000003 0.8660254037844386 0.0
  outer loop
    vertex 3.9687500000000004 14.811576642538977 0.0
    vertex 2.3248399243317794 13.550160075668218 6.35
    vertex 3.9687500000000004 14.811576642538977 6.35
  endloop
endfacet
facet normal 0.9659258262890682 -0.2588190451025208 0.0
  outer loop
    vertex 5.637389126149156 8.553812851150376 0.0
    vertex 5.5562499999999995 7.9374999999999964 6.35
    vertex 5.5562499999999995 7.9374999999999964 0.0
  endloop
endfacet
facet normal 1.0 1.3366664843470356e-16 0.0
  outer loop
    vertex 5.5562499999999995 7.9374999999999964 6.35
    vertex 5.637389126149156 8.553812851150376 0.0
    vertex 5.637389126149156 8.553812851150376 6.35
  endloop
endfacet
facet normal -0.8660254037844383 0.5000000000000007 0.0
  outer loop
    vertex 9.999722992761694 6.746874999999996 6.35
    vertex 9.621298022700465 6.25370197729953 0.0
    vertex 9.621298022700465 6.25370197729953 6.35
  endloop
endfacet
facet normal -0.7071067811865469 0.7071067811865481 0.0
  outer loop
    vertex 9.621298022700465 6.25370197729953 0.0
    vertex 9.999722992761694 6.746874999999996 6.35
    vertex 9.999722992761694 6.746874999999996 0.0
  endloop
endfacet
facet normal 0.8660254037844387 0.5 0.0
  outer loop
    vertex 5.875277007238305 6.746874999999997 0.0
    vertex 6.253701977299533 6.2537019772995315 6.35
    vertex 6.253701977299533 6.2537019772995315 0.0
  endloop
endfacet
facet normal 0.7071067811865476 0.7071067811865475 0.0
  outer loop
    vertex 6.253701977299533 6.2537019772995315 6.35
    vertex 5.875277007238305 6.746874999999997 0.0
    vertex 5.875277007238305 6.746874999999997 6.35
  endloop
endfacet
facet normal -0.9659258262890682 -0.2588190451025209 0.0
  outer loop
    vertex 10.237610873850844 8.553812851150374 6.35
    vertex 10.31875 7.9374999999999964 0.0
    vertex 10.31875 7.9374999999999964 6.35
  endloop
endfacet
facet normal -1.0 -2.940666265563478e-16 0.0
  outer loop
    vertex 10.31875 7.9374999999999964 0.0
    vertex 10.237610873850844 8.553812851150374 6.35
    vertex 10.237610873850844 8.553812851150374 0.0
  endloop
endfacet
facet normal 0.0 0.0 1.0
  outer loop
    vertex 2.8199664825478975e-15 0.0 6.35
    vertex 0.27046375383052185 9.991876170501257 6.35
    vertex 0.0 7.9374999999999964 6.35
  endloop
endfacet
facet normal 0.0 0.0 1.0
  outer loop
    vertex 0.27046375383052185 9.991876170501257 6.35
    vertex 2.8199664825478975e-15 0.0 6.35
    vertex 15.874999999999996 0.0 6.35
  endloop
endfacet
facet normal 0.0 0.0 1.0
  outer loop
    vertex 0.27046375383052185 9.991876170501257 6.35
    vertex 15.874999999999996 0.0 6.35
    vertex 6.746874999999999 5.875277007238302 6.35
  endloop
endfacet
facet normal 0.0 0.0 1.0
  outer loop
    vertex 0.27046375383052185 9.991876170501257 6.35
    vertex 6.746874999999999 5.875277007238302 6.35
    vertex 6.253701977299533 6.2537019772995315 6.35
  endloop
endfacet
facet normal 0.0 0.0 1.0
  outer loop
    vertex 0.27046375383052185 9.991876170501257 6.35
    vertex 6.253701977299533 6.2537019772995315 6.35
    vertex 1.063423357461019 11.906249999999996 6.35
  endloop
endfacet
facet normal 0.0 0.0 1.0
  outer loop
    vertex 1.063423357461019 11.906249999999996 6.35
    vertex 6.253701977299533 6.2537019772995315 6.35
    vertex 5.875277007238305 6.746874999999997 6.35
  endloop
endfacet
facet normal 0.0 0.0 1.0
  outer loop
    vertex 1.063423357461019 11.906249999999996 6.35
    vertex 5.875277007238305 6.746874999999997 6.35
    vertex 2.3248399243317794 13.550160075668218 6.35
  endloop
endfacet
facet normal 0.0 0.0 1.0
  outer loop
    vertex 2.3248399243317794 13.550160075668218 6.35
    vertex 5.875277007238305 6.746874999999997 6.35
    vertex 5.637389126149156 7.32118714884962 6.35
  endloop
endfacet
facet normal 0.0 0.0 1.0
  outer loop
    vertex 2.3248399243317794 13.550160075668218 6.35
    vertex 5.637389126149156 7.32118714884962 6.35
    vertex 3.9687500000000004 14.811576642538977 6.35
  endloop
endfacet
facet normal 0.0 0.0 1.0
  outer loop
    vertex 3.9687500000000004 14.811576642538977 6.35
    vertex 5.637389126149156 7.32118714884962 6.35
    vertex 5.5562499999999995 7.9374999999999964 6.35
  endloop
endfacet
facet normal 0.0 0.0 1.0
  outer loop
    vertex 6.746874999999999 5.875277007238302 6.35
    vertex 15.874999999999996 0.0 6.35
    vertex 7.321187148849622 5.637389126149153 6.35
  endloop
endfacet
facet normal 0.0 0.0 1.0
  outer loop
    vertex 7.321187148849622 5.637389126149153 6.35
    vertex 15.874999999999996 0.0 6.35
    vertex 7.9375 5.556249999999997 6.35
  endloop
endfacet
facet normal 0.0 0.0 1.0
  outer loop
    vertex 7.9375 5.556249999999997 6.35
    vertex 15.874999999999996 0.0 6.35
    vertex 8.553812851150376 5.637389126149153 6.35
  endloop
endfacet
facet normal 0.0 0.0 1.0
  outer loop
    vertex 8.553812851150376 5.637389126149153 6.35
    vertex 15.874999999999996 0.0 6.35
    vertex 9.128124999999999 5.875277007238302 6.35
  endloop
endfacet
facet normal 0.0 0.0 1.0
  outer loop
    vertex 9.128124999999999 5.875277007238302 6.35
    vertex 15.874999999999996 0.0 6.35
    vertex 9.621298022700465 6.25370197729953 6.35
  endloop
endfacet
facet normal 0.0 0.0 1.0
  outer loop
    vertex 9.621298022700465 6.25370197729953 6.35
    vertex 15.874999999999996 0.0 6.35
    vertex 9.999722992761694 6.746874999999996 6.35
  endloop
endfacet
facet normal 0.0 0.0 1.0
  outer loop
    vertex 9.999722992761694 6.746874999999996 6.35
    vertex 15.874999999999996 0.0 6.35
    vertex 10.237610873850844 7.321187148849617 6.35
  endloop
endfacet
facet normal 0.0 0.0 1.0
  outer loop
    vertex 10.237610873850844 7.321187148849617 6.35
    vertex 15.874999999999996 0.0 6.35
    vertex 10.31875 7.9374999999999964 6.35
  endloop
endfacet
facet normal 0.0 0.0 1.0
  outer loop
    vertex 10.31875 7.9374999999999964 6.35
    vertex 15.874999999999996 0.0 6.35
    vertex 11.906250000000002 14.811576642538977 6.35
  endloop
endfacet
facet normal 0.0 0.0 1.0
  outer loop
    vertex 11.906250000000002 14.811576642538977 6.35
    vertex 15.874999999999996 0.0 6.35
    vertex 13.550160075668224 13.550160075668218 6.35
  endloop
endfacet
facet normal 0.0 0.0 1.0
  outer loop
    vertex 13.550160075668224 13.550160075668218 6.35
    vertex 15.874999999999996 0.0 6.35
    vertex 14.811576642538986 11.906249999999991 6.35
  endloop
endfacet
facet normal 0.0 0.0 1.0
  outer loop
    vertex 14.811576642538986 11.906249999999991 6.35
    vertex 15.874999999999996 0.0 6.35
    vertex 15.60453624616948 9.99187617050125 6.35
  endloop
endfacet
facet normal 0.0 0.0 1.0
  outer loop
    vertex 15.60453624616948 9.99187617050125 6.35
    vertex 15.874999999999996 0.0 6.35
    vertex 15.875 7.937499999999996 6.35
  endloop
endfacet
facet normal 0.0 0.0 1.0
  outer loop
    vertex 5.5562499999999995 7.9374999999999964 6.35
    vertex 5.883123829498741 15.604536246169477 6.35
    vertex 3.9687500000000004 14.811576642538977 6.35
  endloop
endfacet
facet normal 0.0 0.0 1.0
  outer loop
    vertex 5.883123829498741 15.604536246169477 6.35
    vertex 5.5562499999999995 7.9374999999999964 6.35
    vertex 5.637389126149156 8.553812851150376 6.35
  endloop
endfacet
facet normal 0.0 0.0 1.0
  outer loop
    vertex 5.883123829498741 15.604536246169477 6.35
    vertex 5.637389126149156 8.553812851150376 6.35
    vertex 5.875277007238305 9.128124999999997 6.35
  endloop
endfacet
facet normal 0.0 0.0 1.0
  outer loop
    vertex 5.883123829498741 15.604536246169477 6.35
    vertex 5.875277007238305 9.128124999999997 6.35
    vertex 6.253701977299534 9.621298022700463 6.35
  endloop
endfacet
facet normal 0.0 0.0 1.0
  outer loop
    vertex 5.883123829498741 15.604536246169477 6.35
    vertex 6.253701977299534 9.621298022700463 6.35
    vertex 7.9375 15.874999999999996 6.35
  endloop
endfacet
facet normal 0.0 0.0 1.0
  outer loop
    vertex 7.9375 15.874999999999996 6.35
    vertex 6.253701977299534 9.621298022700463 6.35
    vertex 6.746874999999999 9.999722992761692 6.35
  endloop
endfacet
facet normal 0.0 0.0 1.0
  outer loop
    vertex 7.9375 15.874999999999996 6.35
    vertex 6.746874999999999 9.999722992761692 6.35
    vertex 7.321187148849622 10.23761087385084 6.35
  endloop
endfacet
facet normal 0.0 0.0 1.0
  outer loop
    vertex 7.9375 15.874999999999996 6.35
    vertex 7.321187148849622 10.23761087385084 6.35
    vertex 7.9375 10.318749999999996 6.35
  endloop
endfacet
facet normal 0.0 0.0 1.0
  outer loop
    vertex 7.9375 15.874999999999996 6.35
    vertex 7.9375 10.318749999999996 6.35
    vertex 8.55381285115038 10.23761087385084 6.35
  endloop
endfacet
facet normal 0.0 0.0 1.0
  outer loop
    vertex 7.9375 15.874999999999996 6.35
    vertex 8.55381285115038 10.23761087385084 6.35
    vertex 9.991876170501264 15.604536246169474 6.35
  endloop
endfacet
facet normal 0.0 0.0 1.0
  outer loop
    vertex 9.991876170501264 15.604536246169474 6.35
    vertex 8.55381285115038 10.23761087385084 6.35
    vertex 9.128125 9.999722992761692 6.35
  endloop
endfacet
facet normal 0.0 0.0 1.0
  outer loop
    vertex 9.991876170501264 15.604536246169474 6.35
    vertex 9.128125 9.999722992761692 6.35
    vertex 9.621298022700465 9.621298022700463 6.35
  endloop
endfacet
facet normal 0.0 0.0 1.0
  outer loop
    vertex 9.991876170501264 15.604536246169474 6.35
    vertex 9.621298022700465 9.621298022700463 6.35
    vertex 9.999722992761694 9.128124999999995 6.35
  endloop
endfacet
facet normal 0.0 0.0 1.0
  outer loop
    vertex 9.991876170501264 15.604536246169474 6.35
    vertex 9.999722992761694 9.128124999999995 6.35
    vertex 11.906250000000002 14.811576642538977 6.35
  endloop
endfacet
facet normal 0.0 0.0 1.0
  outer loop
    vertex 11.906250000000002 14.811576642538977 6.35
    vertex 9.999722992761694 9.128124999999995 6.35
    vertex 10.237610873850844 8.553812851150374 6.35
  endloop
endfacet
facet normal 0.0 0.0 1.0
  outer loop
    vertex 11.906250000000002 14.811576642538977 6.35
    vertex 10.237610873850844 8.553812851150374 6.35
    vertex 10.31875 7.9374999999999964 6.35
  endloop
endfacet
facet normal -0.5000000000000013 -0.8660254037844378 0.0
  outer loop
    vertex 9.128125 9.999722992761692 6.35
    vertex 8.55381285115038 10.23761087385084 0.0
    vertex 9.128125 9.999722992761692 0.0
  endloop
endfacet
facet normal -0.25881904510252063 -0.9659258262890682 0.0
  outer loop
    vertex 8.55381285115038 10.23761087385084 0.0
    vertex 9.128125 9.999722992761692 6.35
    vertex 8.55381285115038 10.23761087385084 6.35
  endloop
endfacet
facet normal -0.9659258262890682 0.258819045102521 0.0
  outer loop
    vertex 0.27046375383052185 9.991876170501257 6.35
    vertex 0.0 7.9374999999999964 0.0
    vertex 0.0 7.9374999999999964 6.35
  endloop
endfacet
facet normal -0.9914448613738103 0.13052619222005216 0.0
  outer loop
    vertex 0.0 7.9374999999999964 0.0
    vertex 0.27046375383052185 9.991876170501257 6.35
    vertex 0.27046375383052185 9.991876170501257 0.0
  endloop
endfacet
facet normal 0.25881904510252113 0.9659258262890682 0.0
  outer loop
    vertex 9.991876170501264 15.604536246169474 6.35
    vertex 11.906250000000002 14.811576642538977 0.0
    vertex 9.991876170501264 15.604536246169474 0.0
  endloop
endfacet
facet normal 0.5 0.8660254037844387 0.0
  outer loop
    vertex 11.906250000000002 14.811576642538977 0.0
    vertex 9.991876170501264 15.604536246169474 6.35
    vertex 11.906250000000002 14.811576642538977 6.35
  endloop
endfacet
facet normal -0.9659258262890682 0.25881904510252063 0.0
  outer loop
    vertex 10.237610873850844 7.321187148849617 6.35
    vertex 9.999722992761694 6.746874999999996 0.0
    vertex 9.999722992761694 6.746874999999996 6.35
  endloop
endfacet
facet normal -0.8660254037844383 0.5000000000000007 0.0
  outer loop
    vertex 9.999722992761694 6.746874999999996 0.0
    vertex 10.237610873850844 7.321187148849617 6.35
    vertex 10.237610873850844 7.321187148849617 0.0
  endloop
endfacet
facet normal -0.8660254037844386 -0.5 0.0
  outer loop
    vertex 9.999722992761694 9.128124999999995 6.35
    vertex 10.237610873850844 8.553812851150374 0.0
    vertex 10.237610873850844 8.553812851150374 6.35
  endloop
endfacet
facet normal -0.9659258262890682 -0.2588190451025209 0.0
  outer loop
    vertex 10.237610873850844 8.553812851150374 0.0
    vertex 9.999722992761694 9.128124999999995 6.35
    vertex 9.999722992761694 9.128124999999995 0.0
  endloop
endfacet
facet normal 0.7071067811865477 0.7071067811865472 0.0
  outer loop
    vertex 13.550160075668224 13.550160075668218 0.0
    vertex 14.811576642538986 11.906249999999991 6.35
    vertex 14.811576642538986 11.906249999999991 0.0
  endloop
endfacet
facet normal 0.8660254037844393 0.4999999999999991 0.0
  outer loop
    vertex 14.811576642538986 11.906249999999991 6.35
    vertex 13.550160075668224 13.550160075668218 0.0
    vertex 13.550160075668224 13.550160075668218 6.35
  endloop
endfacet
facet normal 1.6039997812164427e-16 -1.0 0.0
  outer loop
    vertex 7.9375 10.318749999999996 6.35
    vertex 7.321187148849622 10.23761087385084 0.0
    vertex 7.9375 10.318749999999996 0.0
  endloop
endfacet
facet normal 0.2588190451025208 -0.9659258262890682 0.0
  outer loop
    vertex 7.321187148849622 10.23761087385084 0.0
    vertex 7.9375 10.318749999999996 6.35
    vertex 7.321187148849622 10.23761087385084 6.35
  endloop
endfacet
facet normal -0.0 -1.0 -0.0
  outer loop
    vertex 15.874999999999996 0.0 6.35
    vertex 2.8199664825478975e-15 0.0 0.0
    vertex 15.874999999999996 0.0 0.0
  endloop
endfacet
facet normal -0.0 -1.0 -0.0
  outer loop
    vertex 2.8199664825478975e-15 0.0 0.0
    vertex 15.874999999999996 0.0 6.35
    vertex 2.8199664825478975e-15 0.0 6.35
  endloop
endfacet
facet normal -0.7071067811865486 -0.7071067811865466 0.0
  outer loop
    vertex 9.621298022700465 9.621298022700463 6.35
    vertex 9.999722992761694 9.128124999999995 0.0
    vertex 9.999722992761694 9.128124999999995 6.35
  endloop
endfacet
facet normal -0.8660254037844386 -0.5 0.0
  outer loop
    vertex 9.999722992761694 9.128124999999995 0.0
    vertex 9.621298022700465 9.621298022700463 6.35
    vertex 9.621298022700465 9.621298022700463 0.0
  endloop
endfacet
facet normal -0.7071067811865486 -0.7071067811865466 0.0
  outer loop
    vertex 9.621298022700465 9.621298022700463 6.35
    vertex 9.128125 9.999722992761692 0.0
    vertex 9.621298022700465 9.621298022700463 0.0
  endloop
endfacet
facet normal -0.5000000000000013 -0.8660254037844378 0.0
  outer loop
    vertex 9.128125 9.999722992761692 0.0
    vertex 9.621298022700465 9.621298022700463 6.35
    vertex 9.128125 9.999722992761692 6.35
  endloop
endfacet
facet normal 0.5000000000000004 0.8660254037844384 0.0
  outer loop
    vertex 6.746874999999999 5.875277007238302 6.35
    vertex 7.321187148849622 5.637389126149153 0.0
    vertex 6.746874999999999 5.875277007238302 0.0
  endloop
endfacet
facet normal 0.2588190451025208 0.9659258262890682 0.0
  outer loop
    vertex 7.321187148849622 5.637389126149153 0.0
    vertex 6.746874999999999 5.875277007238302 6.35
    vertex 7.321187148849622 5.637389126149153 6.35
  endloop
endfacet
facet normal 0.8660254037844383 -0.5000000000000007 0.0
  outer loop
    vertex 5.875277007238305 9.128124999999997 0.0
    vertex 5.637389126149156 8.553812851150376 6.35
    vertex 5.637389126149156 8.553812851150376 0.0
  endloop
endfacet
facet normal 0.9659258262890682 -0.2588190451025208 0.0
  outer loop
    vertex 5.637389126149156 8.553812851150376 6.35
    vertex 5.875277007238305 9.128124999999997 0.0
    vertex 5.875277007238305 9.128124999999997 6.35
  endloop
endfacet
facet normal -0.2588190451025206 0.9659258262890684 0.0
  outer loop
    vertex 8.553812851150376 5.637389126149153 6.35
    vertex 9.128124999999999 5.875277007238302 0.0
    vertex 8.553812851150376 5.637389126149153 0.0
  endloop
endfacet
facet normal -0.4999999999999997 0.8660254037844389 0.0
  outer loop
    vertex 9.128124999999999 5.875277007238302 0.0
    vertex 8.553812851150376 5.637389126149153 6.35
    vertex 9.128124999999999 5.875277007238302 6.35
  endloop
endfacet
facet normal 0.2588190451025208 -0.9659258262890682 0.0
  outer loop
    vertex 7.321187148849622 10.23761087385084 6.35
    vertex 6.746874999999999 9.999722992761692 0.0
    vertex 7.321187148849622 10.23761087385084 0.0
  endloop
endfacet
facet normal 0.5000000000000007 -0.8660254037844383 0.0
  outer loop
    vertex 6.746874999999999 9.999722992761692 0.0
    vertex 7.321187148849622 10.23761087385084 6.35
    vertex 6.746874999999999 9.999722992761692 6.35
  endloop
endfacet
facet normal 1.0 1.3366664843470356e-16 0.0
  outer loop
    vertex 5.5562499999999995 7.9374999999999964 0.0
    vertex 5.637389126149156 7.32118714884962 6.35
    vertex 5.637389126149156 7.32118714884962 0.0
  endloop
endfacet
facet normal 0.9659258262890684 0.2588190451025206 0.0
  outer loop
    vertex 5.637389126149156 7.32118714884962 6.35
    vertex 5.5562499999999995 7.9374999999999964 0.0
    vertex 5.5562499999999995 7.9374999999999964 6.35
  endloop
endfacet
facet normal -0.7071067811865475 0.7071067811865477 0.0
  outer loop
    vertex 2.3248399243317794 13.550160075668218 6.35
    vertex 1.063423357461019 11.906249999999996 0.0
    vertex 1.063423357461019 11.906249999999996 6.35
  endloop
endfacet
facet normal -0.8660254037844387 0.5 0.0
  outer loop
    vertex 1.063423357461019 11.906249999999996 0.0
    vertex 2.3248399243317794 13.550160075668218 6.35
    vertex 2.3248399243317794 13.550160075668218 0.0
  endloop
endfacet
facet normal 0.5 0.8660254037844387 0.0
  outer loop
    vertex 11.906250000000002 14.811576642538977 6.35
    vertex 13.550160075668224 13.550160075668218 0.0
    vertex 11.906250000000002 14.811576642538977 0.0
  endloop
endfacet
facet normal 0.7071067811865477 0.7071067811865472 0.0
  outer loop
    vertex 13.550160075668224 13.550160075668218 0.0
    vertex 11.906250000000002 14.811576642538977 6.35
    vertex 13.550160075668224 13.550160075668218 6.35
  endloop
endfacet
facet normal -0.5000000000000003 0.8660254037844386 0.0
  outer loop
    vertex 3.9687500000000004 14.811576642538977 6.35
    vertex 5.883123829498741 15.604536246169477 0.0
    vertex 3.9687500000000004 14.811576642538977 0.0
  endloop
endfacet
facet normal -0.25881904510252096 0.9659258262890683 0.0
  outer loop
    vertex 5.883123829498741 15.604536246169477 0.0
    vertex 3.9687500000000004 14.811576642538977 6.35
    vertex 5.883123829498741 15.604536246169477 6.35
  endloop
endfacet
facet normal -1.3366664843470356e-16 1.0 0.0
  outer loop
    vertex 7.9375 5.556249999999997 6.35
    vertex 8.553812851150376 5.637389126149153 0.0
    vertex 7.9375 5.556249999999997 0.0
  endloop
endfacet
facet normal -0.2588190451025206 0.9659258262890684 0.0
  outer loop
    vertex 8.553812851150376 5.637389126149153 0.0
    vertex 7.9375 5.556249999999997 6.35
    vertex 8.553812851150376 5.637389126149153 6.35
  endloop
endfacet
facet normal -0.4999999999999997 0.8660254037844389 0.0
  outer loop
    vertex 9.128124999999999 5.875277007238302 6.35
    vertex 9.621298022700465 6.25370197729953 0.0
    vertex 9.128124999999999 5.875277007238302 0.0
  endloop
endfacet
facet normal -0.7071067811865469 0.7071067811865481 0.0
  outer loop
    vertex 9.621298022700465 6.25370197729953 0.0
    vertex 9.128124999999999 5.875277007238302 6.35
    vertex 9.621298022700465 6.25370197729953 6.35
  endloop
endfacet
facet normal 0.9659258262890684 0.2588190451025206 0.0
  outer loop
    vertex 5.637389126149156 7.32118714884962 0.0
    vertex 5.875277007238305 6.746874999999997 6.35
    vertex 5.875277007238305 6.746874999999997 0.0
  endloop
endfacet
facet normal 0.8660254037844387 0.5 0.0
  outer loop
    vertex 5.875277007238305 6.746874999999997 6.35
    vertex 5.637389126149156 7.32118714884962 0.0
    vertex 5.637389126149156 7.32118714884962 6.35
  endloop
endfacet
facet normal 0.5000000000000007 -0.8660254037844383 0.0
  outer loop
    vertex 6.746874999999999 9.999722992761692 6.35
    vertex 6.253701977299534 9.621298022700463 0.0
    vertex 6.746874999999999 9.999722992761692 0.0
  endloop
endfacet
facet normal 0.7071067811865476 -0.7071067811865476 0.0
  outer loop
    vertex 6.253701977299534 9.621298022700463 0.0
    vertex 6.746874999999999 9.999722992761692 6.35
    vertex 6.253701977299534 9.621298022700463 6.35
  endloop
endfacet
facet normal -1.0 -3.552713678800502e-16 -0.0
  outer loop
    vertex 0.0 7.9374999999999964 6.35
    vertex 2.8199664825478975e-15 0.0 0.0
    vertex 2.8199664825478975e-15 0.0 6.35
  endloop
endfacet
facet normal -1.0 -3.552713678800502e-16 -0.0
  outer loop
    vertex 2.8199664825478975e-15 0.0 0.0
    vertex 0.0 7.9374999999999964 6.35
    vertex 0.0 7.9374999999999964 0.0
  endloop
endfacet
facet normal 0.7071067811865476 -0.7071067811865476 0.0
  outer loop
    vertex 6.253701977299534 9.621298022700463 0.0
    vertex 5.875277007238305 9.128124999999997 6.35
    vertex 5.875277007238305 9.128124999999997 0.0
  endloop
endfacet
facet normal 0.8660254037844383 -0.5000000000000007 0.0
  outer loop
    vertex 5.875277007238305 9.128124999999997 6.35
    vertex 6.253701977299534 9.621298022700463 0.0
    vertex 6.253701977299534 9.621298022700463 6.35
  endloop
endfacet
facet normal 0.2588190451025208 0.9659258262890682 0.0
  outer loop
    vertex 7.321187148849622 5.637389126149153 6.35
    vertex 7.9375 5.556249999999997 0.0
    vertex 7.321187148849622 5.637389126149153 0.0
  endloop
endfacet
facet normal -1.3366664843470356e-16 1.0 0.0
  outer loop
    vertex 7.9375 5.556249999999997 0.0
    vertex 7.321187148849622 5.637389126149153 6.35
    vertex 7.9375 5.556249999999997 6.35
  endloop
endfacet
facet normal -0.25881904510252063 -0.9659258262890682 0.0
  outer loop
    vertex 8.55381285115038 10.23761087385084 6.35
    vertex 7.9375 10.318749999999996 0.0
    vertex 8.55381285115038 10.23761087385084 0.0
  endloop
endfacet
facet normal 1.6039997812164427e-16 -1.0 0.0
  outer loop
    vertex 7.9375 10.318749999999996 0.0
    vertex 8.55381285115038 10.23761087385084 6.35
    vertex 7.9375 10.318749999999996 6.35
  endloop
endfacet
facet normal 0.8660254037844393 0.4999999999999991 0.0
  outer loop
    vertex 14.811576642538986 11.906249999999991 0.0
    vertex 15.60453624616948 9.99187617050125 6.35
    vertex 15.60453624616948 9.99187617050125 0.0
  endloop
endfacet
facet normal 0.9659258262890686 0.2588190451025199 0.0
  outer loop
    vertex 15.60453624616948 9.99187617050125 6.35
    vertex 14.811576642538986 11.906249999999991 0.0
    vertex 14.811576642538986 11.906249999999991 6.35
  endloop
endfacet
facet normal 1.0 -3.5527136788005036e-16 0.0
  outer loop
    vertex 15.875 7.937499999999996 0.0
    vertex 15.874999999999996 0.0 6.35
    vertex 15.874999999999996 0.0 0.0
  endloop
endfacet
facet normal 1.0 -3.5527136788005036e-16 0.0
  outer loop
    vertex 15.874999999999996 0.0 6.35
    vertex 15.875 7.937499999999996 0.0
    vertex 15.875 7.937499999999996 6.35
  endloop
endfacet
facet normal 0.9659258262890686 0.2588190451025199 0.0
  outer loop
    vertex 15.60453624616948 9.99187617050125 0.0
    vertex 15.875 7.937499999999996 6.35
    vertex 15.875 7.937499999999996 0.0
  endloop
endfacet
facet normal 0.9914448613738106 0.13052619222005113 0.0
  outer loop
    vertex 15.875 7.937499999999996 6.35
    vertex 15.60453624616948 9.99187617050125 0.0
    vertex 15.60453624616948 9.99187617050125 6.35
  endloop
endfacet
endsolid Bucket Bracket
