solid Bucket
facet normal 1.3777131936937087e-15 -0.9914448613738107 0.1305261922200499
  outer loop
    vertex 44.449999999999946 15.874999999999964 22.22499999999998
    vertex 6.349999999999971 15.334072492338876 18.116247658997448
    vertex 44.44999999999997 15.334072492338933 18.116247658997427
  endloop
endfacet
facet normal 1.4669362572097065e-15 -0.9659258262890665 0.25881904510252757
  outer loop
    vertex 6.349999999999971 15.334072492338876 18.116247658997448
    vertex 44.449999999999946 15.874999999999964 22.22499999999998
    vertex 6.349999999999949 15.87499999999992 22.224999999999994
  endloop
endfacet
facet normal 2.9605947323337565e-16 -1.0 9.947598300641396e-16
  outer loop
    vertex 44.449999999999946 15.874999999999964 56.24285714285714
    vertex 6.349999999999949 15.87499999999992 22.224999999999994
    vertex 44.449999999999946 15.874999999999964 22.22499999999998
  endloop
endfacet
facet normal 2.9605947323337565e-16 -1.0 9.947598300641396e-16
  outer loop
    vertex 6.349999999999949 15.87499999999992 22.224999999999994
    vertex 44.449999999999946 15.874999999999964 56.24285714285714
    vertex 6.349999999999971 15.874999999999988 56.24285714285714
  endloop
endfacet
facet normal 1.4835259166631543e-15 0.9659258262890695 -0.25881904510251597
  outer loop
    vertex 0.0 21.467701489274553 16.472746722596405
    vertex 50.79999999999995 19.24741459910908 11.112499999999983
    vertex 0.0 19.24741459910915 11.112499999999914
  endloop
endfacet
facet normal 1.979474854213073e-15 0.8660254037844379 -0.5000000000000012
  outer loop
    vertex 50.79999999999995 19.24741459910908 11.112499999999983
    vertex 0.0 21.467701489274553 16.472746722596405
    vertex 50.799999999999926 21.467701489274486 16.47274672259655
  endloop
endfacet
facet normal 8.662107583471737e-16 0.5000000000000021 -0.8660254037844375
  outer loop
    vertex 50.79999999999995 11.11249999999995 2.9775854008908906
    vertex 0.0 5.752253277403492 0.7572985107254381
    vertex 0.0 11.11249999999996 2.97758540089084
  endloop
endfacet
facet normal -1.814191673990264e-16 0.25881904510252374 -0.9659258262890674
  outer loop
    vertex 0.0 5.752253277403492 0.7572985107254381
    vertex 50.79999999999995 11.11249999999995 2.9775854008908906
    vertex 50.79999999999995 5.752253277403481 0.757298510725407
  endloop
endfacet
facet normal 2.5243548967072488e-31 1.0 3.7303493627405327e-16
  outer loop
    vertex 6.349999999999949 -15.875000000000089 22.22500000000003
    vertex 44.449999999999925 -15.875000000000107 67.58214285714276
    vertex 44.449999999999946 -15.875000000000073 22.224999999999994
  endloop
endfacet
facet normal 2.5243548967072488e-31 1.0 3.7303493627405327e-16
  outer loop
    vertex 44.449999999999925 -15.875000000000107 67.58214285714276
    vertex 6.349999999999949 -15.875000000000089 22.22500000000003
    vertex 6.349999999999949 -15.875000000000089 67.5821428571428
  endloop
endfacet
facet normal -1.2856353900945218e-16 0.9914448613738105 0.1305261922200509
  outer loop
    vertex 6.349999999999949 -15.875000000000089 22.22500000000003
    vertex 44.44999999999997 -15.334072492339045 18.11624765899751
    vertex 6.349999999999971 -15.33407249233904 18.116247658997484
  endloop
endfacet
facet normal -5.2611975663197226e-17 0.965925826289067 0.25881904510252596
  outer loop
    vertex 44.44999999999997 -15.334072492339045 18.11624765899751
    vertex 6.349999999999949 -15.875000000000089 22.22500000000003
    vertex 44.449999999999946 -15.875000000000073 22.224999999999994
  endloop
endfacet
facet normal 4.2244968356298085e-16 0.866025403784437 0.5000000000000028
  outer loop
    vertex 6.349999999999949 -13.748153285078006 14.287500000000042
    vertex 44.44999999999997 -15.334072492339045 18.11624765899751
    vertex 44.44999999999997 -13.748153285078011 14.287500000000039
  endloop
endfacet
facet normal -5.2611975663197226e-17 0.965925826289067 0.25881904510252596
  outer loop
    vertex 44.44999999999997 -15.334072492339045 18.11624765899751
    vertex 6.349999999999949 -13.748153285078006 14.287500000000042
    vertex 6.349999999999971 -15.33407249233904 18.116247658997484
  endloop
endfacet
facet normal 6.991810679730343e-16 0.7071067811865476 0.7071067811865475
  outer loop
    vertex 6.349999999999994 -11.22532015133651 10.999679848663643
    vertex 44.44999999999997 -13.748153285078011 14.287500000000039
    vertex 44.449999999999925 -11.22532015133651 10.99967984866355
  endloop
endfacet
facet normal 4.2244968356298016e-16 0.8660254037844372 0.5000000000000026
  outer loop
    vertex 44.44999999999997 -13.748153285078011 14.287500000000039
    vertex 6.349999999999994 -11.22532015133651 10.999679848663643
    vertex 6.349999999999949 -13.748153285078006 14.287500000000042
  endloop
endfacet
facet normal 6.991810679730343e-16 0.7071067811865476 0.7071067811865475
  outer loop
    vertex 6.349999999999994 -11.22532015133651 10.999679848663643
    vertex 44.449999999999925 -7.937500000000056 8.476846714922106
    vertex 6.349999999999926 -7.937500000000056 8.476846714922068
  endloop
endfacet
facet normal -3.2693599118426173e-16 0.5000000000000004 0.8660254037844383
  outer loop
    vertex 44.449999999999925 -7.937500000000056 8.476846714922106
    vertex 6.349999999999994 -11.22532015133651 10.999679848663643
    vertex 44.449999999999925 -11.22532015133651 10.99967984866355
  endloop
endfacet
facet normal -3.2693599118426173e-16 0.5000000000000004 0.8660254037844383
  outer loop
    vertex 44.449999999999925 -7.937500000000056 8.476846714922106
    vertex 6.349999999999971 -4.108752341002582 6.890927507661036
    vertex 6.349999999999926 -7.937500000000056 8.476846714922068
  endloop
endfacet
facet normal -1.0458570844667406e-15 0.2588190451025272 0.9659258262890666
  outer loop
    vertex 6.349999999999971 -4.108752341002582 6.890927507661036
    vertex 44.449999999999925 -7.937500000000056 8.476846714922106
    vertex 44.44999999999997 -4.108752341002587 6.890927507661103
  endloop
endfacet
facet normal -1.0458570844667392e-15 0.2588190451025264 0.9659258262890666
  outer loop
    vertex 44.44999999999997 -4.108752341002587 6.890927507661103
    vertex 6.349999999999971 -1.0151879337172431e-13 6.350000000000005
    vertex 6.349999999999971 -4.108752341002582 6.890927507661036
  endloop
endfacet
facet normal -2.9624627197456156e-16 5.952621410292133e-15 1.0
  outer loop
    vertex 6.349999999999971 -1.0151879337172431e-13 6.350000000000005
    vertex 44.44999999999997 -4.108752341002587 6.890927507661103
    vertex 44.44999999999997 -1.0151879337172431e-13 6.350000000000005
  endloop
endfacet
facet normal -2.9624627197456057e-16 5.7120214431096556e-15 1.0
  outer loop
    vertex 44.44999999999997 -1.0151879337172431e-13 6.350000000000005
    vertex 6.349999999999971 4.108752341002513 6.890927507661048
    vertex 6.349999999999971 -1.0151879337172431e-13 6.350000000000005
  endloop
endfacet
facet normal 1.5646997596147394e-16 -0.2588190451025263 0.9659258262890668
  outer loop
    vertex 6.349999999999971 4.108752341002513 6.890927507661048
    vertex 44.44999999999997 -1.0151879337172431e-13 6.350000000000005
    vertex 44.44999999999999 4.108752341002496 6.890927507661025
  endloop
endfacet
facet normal 1.5646997596147418e-16 -0.25881904510252596 0.9659258262890669
  outer loop
    vertex 44.44999999999999 4.108752341002496 6.890927507661025
    vertex 6.349999999999971 7.937499999999864 8.476846714922049
    vertex 6.349999999999971 4.108752341002513 6.890927507661048
  endloop
endfacet
facet normal 6.762964419962093e-16 -0.5000000000000046 0.8660254037844362
  outer loop
    vertex 6.349999999999971 7.937499999999864 8.476846714922049
    vertex 44.44999999999999 4.108752341002496 6.890927507661025
    vertex 44.449999999999946 7.937499999999869 8.476846714922063
  endloop
endfacet
facet normal 6.762964419962073e-16 -0.5000000000000042 0.8660254037844363
  outer loop
    vertex 44.449999999999946 7.937499999999869 8.476846714922063
    vertex 6.349999999999994 11.225320151336362 10.999679848663655
    vertex 6.349999999999971 7.937499999999864 8.476846714922049
  endloop
endfacet
facet normal 1.642904117556693e-15 -0.7071067811865457 0.7071067811865495
  outer loop
    vertex 6.349999999999994 11.225320151336362 10.999679848663655
    vertex 44.449999999999946 7.937499999999869 8.476846714922063
    vertex 44.449999999999925 11.22532015133638 10.999679848663535
  endloop
endfacet
facet normal 1.761494237263972e-15 -0.8660254037844346 0.5000000000000068
  outer loop
    vertex 44.44999999999997 13.748153285077866 14.287499999999943
    vertex 6.349999999999994 11.225320151336362 10.999679848663655
    vertex 44.449999999999925 11.22532015133638 10.999679848663535
  endloop
endfacet
facet normal 1.642904117556693e-15 -0.7071067811865457 0.7071067811865495
  outer loop
    vertex 6.349999999999994 11.225320151336362 10.999679848663655
    vertex 44.44999999999997 13.748153285077866 14.287499999999943
    vertex 6.349999999999926 13.748153285077827 14.287499999999994
  endloop
endfacet
facet normal 1.4669362572097063e-15 -0.9659258262890664 0.25881904510252757
  outer loop
    vertex 44.44999999999997 15.334072492338933 18.116247658997427
    vertex 6.349999999999926 13.748153285077827 14.287499999999994
    vertex 44.44999999999997 13.748153285077866 14.287499999999943
  endloop
endfacet
facet normal 1.7614942372639722e-15 -0.8660254037844347 0.500000000000007
  outer loop
    vertex 6.349999999999926 13.748153285077827 14.287499999999994
    vertex 44.44999999999997 15.334072492338933 18.116247658997427
    vertex 6.349999999999971 15.334072492338876 18.116247658997448
  endloop
endfacet
facet normal -1.0 -3.76007040656759e-18 -4.737688712275369e-17
  outer loop
    vertex 0.0 -22.224999999999966 69.84999999999998
    vertex 0.0 -21.467701489274546 16.47274672259649
    vertex -2.255973186038318e-14 -22.224999999999994 22.225000000000026
  endloop
endfacet
facet normal -1.0 -3.76007040656759e-18 -4.737688712275369e-17
  outer loop
    vertex 0.0 -21.467701489274546 16.47274672259649
    vertex 0.0 -22.224999999999966 69.84999999999998
    vertex 0.0 22.224999999999948 53.97499999999993
  endloop
endfacet
facet normal -1.0 -3.76007040656759e-18 -4.737688712275369e-17
  outer loop
    vertex 0.0 -21.467701489274546 16.47274672259649
    vertex 0.0 22.224999999999948 53.97499999999993
    vertex 0.0 -19.247414599109145 11.112500000000049
  endloop
endfacet
facet normal -1.0 -3.76007040656759e-18 -4.737688712275369e-17
  outer loop
    vertex 0.0 -19.247414599109145 11.112500000000049
    vertex 0.0 22.224999999999948 53.97499999999993
    vertex 0.0 -15.715448211870976 6.509551788128942
  endloop
endfacet
facet normal -1.0 -3.76007040656759e-18 -4.737688712275369e-17
  outer loop
    vertex 0.0 -15.715448211870976 6.509551788128942
    vertex 0.0 22.224999999999948 53.97499999999993
    vertex 0.0 -11.112500000000038 2.977585400890846
  endloop
endfacet
facet normal -1.0 -3.76007040656759e-18 -4.737688712275369e-17
  outer loop
    vertex 0.0 -11.112500000000038 2.977585400890846
    vertex 0.0 22.224999999999948 53.97499999999993
    vertex 0.0 -5.752253277403542 0.7572985107254211
  endloop
endfacet
facet normal -1.0 -3.76007040656759e-18 -4.737688712275369e-17
  outer loop
    vertex 0.0 -5.752253277403542 0.7572985107254211
    vertex 0.0 22.224999999999948 53.97499999999993
    vertex 0.0 0.0 0.0
  endloop
endfacet
facet normal -1.0 -3.76007040656759e-18 -4.737688712275369e-17
  outer loop
    vertex 0.0 0.0 0.0
    vertex 0.0 22.224999999999948 53.97499999999993
    vertex 0.0 5.752253277403492 0.7572985107254381
  endloop
endfacet
facet normal -1.0 -3.76007040656759e-18 -4.737688712275369e-17
  outer loop
    vertex 0.0 5.752253277403492 0.7572985107254381
    vertex 0.0 22.224999999999948 53.97499999999993
    vertex 0.0 11.11249999999996 2.97758540089084
  endloop
endfacet
facet normal -1.0 -3.76007040656759e-18 -4.737688712275369e-17
  outer loop
    vertex 0.0 11.11249999999996 2.97758540089084
    vertex 0.0 22.224999999999948 53.97499999999993
    vertex 0.0 15.71544821187102 6.509551788128944
  endloop
endfacet
facet normal -1.0 -3.76007040656759e-18 -4.737688712275369e-17
  outer loop
    vertex 0.0 15.71544821187102 6.509551788128944
    vertex 0.0 22.224999999999948 53.97499999999993
    vertex 0.0 19.24741459910915 11.112499999999914
  endloop
endfacet
facet normal -1.0 -3.76007040656759e-18 -4.737688712275369e-17
  outer loop
    vertex 0.0 19.24741459910915 11.112499999999914
    vertex 0.0 22.224999999999948 53.97499999999993
    vertex 0.0 21.467701489274553 16.472746722596405
  endloop
endfacet
facet normal -1.0 -3.76007040656759e-18 -4.737688712275369e-17
  outer loop
    vertex 0.0 21.467701489274553 16.472746722596405
    vertex 0.0 22.224999999999948 53.97499999999993
    vertex -2.255973186038318e-14 22.224999999999927 22.224999999999948
  endloop
endfacet
facet normal 1.0 -1.6676885346615991e-16 1.5477719958328495e-16
  outer loop
    vertex 6.349999999999971 -15.33407249233904 18.116247658997484
    vertex 6.349999999999949 -15.875000000000089 67.5821428571428
    vertex 6.349999999999949 -15.875000000000089 22.22500000000003
  endloop
endfacet
facet normal 1.0 -1.6676885346615991e-16 1.5477719958328495e-16
  outer loop
    vertex 6.349999999999949 -15.875000000000089 67.5821428571428
    vertex 6.349999999999971 -15.33407249233904 18.116247658997484
    vertex 6.349999999999971 15.874999999999988 56.24285714285714
  endloop
endfacet
facet normal 1.0 -1.6676885346615991e-16 1.5477719958328495e-16
  outer loop
    vertex 6.349999999999971 15.874999999999988 56.24285714285714
    vertex 6.349999999999971 -15.33407249233904 18.116247658997484
    vertex 6.349999999999949 -13.748153285078006 14.287500000000042
  endloop
endfacet
facet normal 1.0 -1.6676885346615991e-16 1.5477719958328495e-16
  outer loop
    vertex 6.349999999999971 15.874999999999988 56.24285714285714
    vertex 6.349999999999949 -13.748153285078006 14.287500000000042
    vertex 6.349999999999994 -11.22532015133651 10.999679848663643
  endloop
endfacet
facet normal 1.0 -1.6676885346615991e-16 1.5477719958328495e-16
  outer loop
    vertex 6.349999999999971 15.874999999999988 56.24285714285714
    vertex 6.349999999999994 -11.22532015133651 10.999679848663643
    vertex 6.349999999999926 -7.937500000000056 8.476846714922068
  endloop
endfacet
facet normal 1.0 -1.6676885346615991e-16 1.5477719958328495e-16
  outer loop
    vertex 6.349999999999971 15.874999999999988 56.24285714285714
    vertex 6.349999999999926 -7.937500000000056 8.476846714922068
    vertex 6.349999999999971 -4.108752341002582 6.890927507661036
  endloop
endfacet
facet normal 1.0 -1.6676885346615991e-16 1.5477719958328495e-16
  outer loop
    vertex 6.349999999999971 15.874999999999988 56.24285714285714
    vertex 6.349999999999971 -4.108752341002582 6.890927507661036
    vertex 6.349999999999971 -1.0151879337172431e-13 6.350000000000005
  endloop
endfacet
facet normal 1.0 -1.6676885346615991e-16 1.5477719958328495e-16
  outer loop
    vertex 6.349999999999971 15.874999999999988 56.24285714285714
    vertex 6.349999999999971 -1.0151879337172431e-13 6.350000000000005
    vertex 6.349999999999971 4.108752341002513 6.890927507661048
  endloop
endfacet
facet normal 1.0 -1.6676885346615991e-16 1.5477719958328495e-16
  outer loop
    vertex 6.349999999999971 15.874999999999988 56.24285714285714
    vertex 6.349999999999971 4.108752341002513 6.890927507661048
    vertex 6.349999999999971 7.937499999999864 8.476846714922049
  endloop
endfacet
facet normal 1.0 -1.6676885346615991e-16 1.5477719958328495e-16
  outer loop
    vertex 6.349999999999971 15.874999999999988 56.24285714285714
    vertex 6.349999999999971 7.937499999999864 8.476846714922049
    vertex 6.349999999999994 11.225320151336362 10.999679848663655
  endloop
endfacet
facet normal 1.0 -1.6676885346615991e-16 1.5477719958328495e-16
  outer loop
    vertex 6.349999999999971 15.874999999999988 56.24285714285714
    vertex 6.349999999999994 11.225320151336362 10.999679848663655
    vertex 6.349999999999926 13.748153285077827 14.287499999999994
  endloop
endfacet
facet normal 1.0 -1.6676885346615991e-16 1.5477719958328495e-16
  outer loop
    vertex 6.349999999999971 15.874999999999988 56.24285714285714
    vertex 6.349999999999926 13.748153285077827 14.287499999999994
    vertex 6.349999999999971 15.334072492338876 18.116247658997448
  endloop
endfacet
facet normal 1.0 -1.6676885346615991e-16 1.5477719958328495e-16
  outer loop
    vertex 6.349999999999971 15.874999999999988 56.24285714285714
    vertex 6.349999999999971 15.334072492338876 18.116247658997448
    vertex 6.349999999999949 15.87499999999992 22.224999999999994
  endloop
endfacet
facet normal 9.351279229466756e-17 -0.7071067811865476 -0.7071067811865476
  outer loop
    vertex 50.79999999999995 -15.71544821187102 6.509551788129007
    vertex 0.0 -19.247414599109145 11.112500000000049
    vertex 0.0 -15.715448211870976 6.509551788128942
  endloop
endfacet
facet normal -5.342229386897257e-16 -0.8660254037844386 -0.5
  outer loop
    vertex 0.0 -19.247414599109145 11.112500000000049
    vertex 50.79999999999995 -15.71544821187102 6.509551788129007
    vertex 50.79999999999995 -19.247414599109177 11.112499999999992
  endloop
endfacet
facet normal -1.0 2.4582137063954587e-16 -4.018557987812388e-16
  outer loop
    vertex 44.449999999999946 15.874999999999964 56.24285714285714
    vertex 44.449999999999946 -15.875000000000073 22.224999999999994
    vertex 44.449999999999925 -15.875000000000107 67.58214285714276
  endloop
endfacet
facet normal -1.0 2.4582137063954587e-16 -4.018557987812388e-16
  outer loop
    vertex 44.449999999999946 -15.875000000000073 22.224999999999994
    vertex 44.449999999999946 15.874999999999964 56.24285714285714
    vertex 44.44999999999997 -15.334072492339045 18.11624765899751
  endloop
endfacet
facet normal -1.0 2.4582137063954587e-16 -4.018557987812388e-16
  outer loop
    vertex 44.44999999999997 -15.334072492339045 18.11624765899751
    vertex 44.449999999999946 15.874999999999964 56.24285714285714
    vertex 44.44999999999997 -13.748153285078011 14.287500000000039
  endloop
endfacet
facet normal -1.0 2.4582137063954587e-16 -4.018557987812388e-16
  outer loop
    vertex 44.44999999999997 -13.748153285078011 14.287500000000039
    vertex 44.449999999999946 15.874999999999964 56.24285714285714
    vertex 44.449999999999925 -11.22532015133651 10.99967984866355
  endloop
endfacet
facet normal -1.0 2.4582137063954587e-16 -4.018557987812388e-16
  outer loop
    vertex 44.449999999999925 -11.22532015133651 10.99967984866355
    vertex 44.449999999999946 15.874999999999964 56.24285714285714
    vertex 44.449999999999925 -7.937500000000056 8.476846714922106
  endloop
endfacet
facet normal -1.0 2.4582137063954587e-16 -4.018557987812388e-16
  outer loop
    vertex 44.449999999999925 -7.937500000000056 8.476846714922106
    vertex 44.449999999999946 15.874999999999964 56.24285714285714
    vertex 44.44999999999997 -4.108752341002587 6.890927507661103
  endloop
endfacet
facet normal -1.0 2.4582137063954587e-16 -4.018557987812388e-16
  outer loop
    vertex 44.44999999999997 -4.108752341002587 6.890927507661103
    vertex 44.449999999999946 15.874999999999964 56.24285714285714
    vertex 44.44999999999997 -1.0151879337172431e-13 6.350000000000005
  endloop
endfacet
facet normal -1.0 2.4582137063954587e-16 -4.018557987812388e-16
  outer loop
    vertex 44.44999999999997 -1.0151879337172431e-13 6.350000000000005
    vertex 44.449999999999946 15.874999999999964 56.24285714285714
    vertex 44.44999999999999 4.108752341002496 6.890927507661025
  endloop
endfacet
facet normal -1.0 2.4582137063954587e-16 -4.018557987812388e-16
  outer loop
    vertex 44.44999999999999 4.108752341002496 6.890927507661025
    vertex 44.449999999999946 15.874999999999964 56.24285714285714
    vertex 44.449999999999946 7.937499999999869 8.476846714922063
  endloop
endfacet
facet normal -1.0 2.4582137063954587e-16 -4.018557987812388e-16
  outer loop
    vertex 44.449999999999946 7.937499999999869 8.476846714922063
    vertex 44.449999999999946 15.874999999999964 56.24285714285714
    vertex 44.449999999999925 11.22532015133638 10.999679848663535
  endloop
endfacet
facet normal -1.0 2.4582137063954587e-16 -4.018557987812388e-16
  outer loop
    vertex 44.449999999999925 11.22532015133638 10.999679848663535
    vertex 44.449999999999946 15.874999999999964 56.24285714285714
    vertex 44.44999999999997 13.748153285077866 14.287499999999943
  endloop
endfacet
facet normal -1.0 2.4582137063954587e-16 -4.018557987812388e-16
  outer loop
    vertex 44.44999999999997 13.748153285077866 14.287499999999943
    vertex 44.449999999999946 15.874999999999964 56.24285714285714
    vertex 44.44999999999997 15.334072492338933 18.116247658997427
  endloop
endfacet
facet normal -1.0 2.4582137063954587e-16 -4.018557987812388e-16
  outer loop
    vertex 44.44999999999997 15.334072492338933 18.116247658997427
    vertex 44.449999999999946 15.874999999999964 56.24285714285714
    vertex 44.449999999999946 15.874999999999964 22.22499999999998
  endloop
endfacet
facet normal -1.8141916739902662e-16 0.2588190451025237 -0.9659258262890674
  outer loop
    vertex 50.79999999999995 5.752253277403481 0.757298510725407
    vertex 0.0 0.0 0.0
    vertex 0.0 5.752253277403492 0.7572985107254381
  endloop
endfacet
facet normal 2.972645744690883e-16 -6.398176905074482e-15 -1.0
  outer loop
    vertex 0.0 0.0 0.0
    vertex 50.79999999999995 5.752253277403481 0.757298510725407
    vertex 50.79999999999995 -1.6919798895287383e-14 -3.665956427312267e-14
  endloop
endfacet
facet normal -5.265639090734272e-16 -0.9659258262890682 -0.25881904510252074
  outer loop
    vertex 50.79999999999995 -21.467701489274564 16.472746722596536
    vertex 0.0 -19.247414599109145 11.112500000000049
    vertex 50.79999999999995 -19.247414599109177 11.112499999999992
  endloop
endfacet
facet normal -5.342229386897257e-16 -0.8660254037844386 -0.5
  outer loop
    vertex 0.0 -19.247414599109145 11.112500000000049
    vertex 50.79999999999995 -21.467701489274564 16.472746722596536
    vertex 0.0 -21.467701489274546 16.47274672259649
  endloop
endfacet
facet normal 1.6322347285208803e-15 -0.2588190451025248 -0.9659258262890672
  outer loop
    vertex 50.79999999999995 -5.752253277403588 0.7572985107255903
    vertex 0.0 -11.112500000000038 2.977585400890846
    vertex 0.0 -5.752253277403542 0.7572985107254211
  endloop
endfacet
facet normal 1.3990628424027115e-15 -0.4999999999999994 -0.866025403784439
  outer loop
    vertex 0.0 -11.112500000000038 2.977585400890846
    vertex 50.79999999999995 -5.752253277403588 0.7572985107255903
    vertex 50.79999999999995 -11.112500000000056 2.977585400890925
  endloop
endfacet
facet normal -9.708618711137284e-17 0.33633639699815737 0.9417419115948371
  outer loop
    vertex 0.0 -22.224999999999966 69.84999999999998
    vertex 6.349999999999949 -15.875000000000089 67.5821428571428
    vertex 0.0 22.224999999999948 53.97499999999993
  endloop
endfacet
facet normal -9.708618711137284e-17 0.33633639699815737 0.9417419115948371
  outer loop
    vertex 6.349999999999949 -15.875000000000089 67.5821428571428
    vertex 0.0 -22.224999999999966 69.84999999999998
    vertex 50.79999999999995 -22.224999999999998 69.84999999999998
  endloop
endfacet
facet normal -9.708618711137284e-17 0.33633639699815737 0.9417419115948371
  outer loop
    vertex 6.349999999999949 -15.875000000000089 67.5821428571428
    vertex 50.79999999999995 -22.224999999999998 69.84999999999998
    vertex 44.449999999999925 -15.875000000000107 67.58214285714276
  endloop
endfacet
facet normal -9.708618711137284e-17 0.33633639699815737 0.9417419115948371
  outer loop
    vertex 44.449999999999925 -15.875000000000107 67.58214285714276
    vertex 50.79999999999995 -22.224999999999998 69.84999999999998
    vertex 44.449999999999946 15.874999999999964 56.24285714285714
  endloop
endfacet
facet normal -9.708618711137284e-17 0.33633639699815737 0.9417419115948371
  outer loop
    vertex 44.449999999999946 15.874999999999964 56.24285714285714
    vertex 50.79999999999995 -22.224999999999998 69.84999999999998
    vertex 50.799999999999926 22.224999999999948 53.97499999999995
  endloop
endfacet
facet normal -9.708618711137284e-17 0.33633639699815737 0.9417419115948371
  outer loop
    vertex 0.0 22.224999999999948 53.97499999999993
    vertex 6.349999999999971 15.874999999999988 56.24285714285714
    vertex 50.799999999999926 22.224999999999948 53.97499999999995
  endloop
endfacet
facet normal -9.708618711137284e-17 0.33633639699815737 0.9417419115948371
  outer loop
    vertex 6.349999999999971 15.874999999999988 56.24285714285714
    vertex 0.0 22.224999999999948 53.97499999999993
    vertex 6.349999999999949 -15.875000000000089 67.5821428571428
  endloop
endfacet
facet normal -9.708618711137284e-17 0.33633639699815737 0.9417419115948371
  outer loop
    vertex 50.799999999999926 22.224999999999948 53.97499999999995
    vertex 6.349999999999971 15.874999999999988 56.24285714285714
    vertex 44.449999999999946 15.874999999999964 56.24285714285714
  endloop
endfacet
facet normal 1.0 2.0038484673041203e-16 1.473267369400332e-16
  outer loop
    vertex 50.79999999999995 -21.467701489274564 16.472746722596536
    vertex 50.79999999999995 -22.224999999999998 69.84999999999998
    vertex 50.799999999999926 -22.225000000000033 22.22499999999998
  endloop
endfacet
facet normal 1.0 2.0038484673041203e-16 1.473267369400332e-16
  outer loop
    vertex 50.79999999999995 -22.224999999999998 69.84999999999998
    vertex 50.79999999999995 -21.467701489274564 16.472746722596536
    vertex 50.799999999999926 22.224999999999948 53.97499999999995
  endloop
endfacet
facet normal 1.0 2.0038484673041203e-16 1.473267369400332e-16
  outer loop
    vertex 50.799999999999926 22.224999999999948 53.97499999999995
    vertex 50.79999999999995 -21.467701489274564 16.472746722596536
    vertex 50.79999999999995 -19.247414599109177 11.112499999999992
  endloop
endfacet
facet normal 1.0 2.0038484673041203e-16 1.473267369400332e-16
  outer loop
    vertex 50.799999999999926 22.224999999999948 53.97499999999995
    vertex 50.79999999999995 -19.247414599109177 11.112499999999992
    vertex 50.79999999999995 -15.71544821187102 6.509551788129007
  endloop
endfacet
facet normal 1.0 2.0038484673041203e-16 1.473267369400332e-16
  outer loop
    vertex 50.799999999999926 22.224999999999948 53.97499999999995
    vertex 50.79999999999995 -15.71544821187102 6.509551788129007
    vertex 50.79999999999995 -11.112500000000056 2.977585400890925
  endloop
endfacet
facet normal 1.0 2.0038484673041203e-16 1.473267369400332e-16
  outer loop
    vertex 50.799999999999926 22.224999999999948 53.97499999999995
    vertex 50.79999999999995 -11.112500000000056 2.977585400890925
    vertex 50.79999999999995 -5.752253277403588 0.7572985107255903
  endloop
endfacet
facet normal 1.0 2.0038484673041203e-16 1.473267369400332e-16
  outer loop
    vertex 50.799999999999926 22.224999999999948 53.97499999999995
    vertex 50.79999999999995 -5.752253277403588 0.7572985107255903
    vertex 50.79999999999995 -1.6919798895287383e-14 -3.665956427312267e-14
  endloop
endfacet
facet normal 1.0 2.0038484673041203e-16 1.473267369400332e-16
  outer loop
    vertex 50.799999999999926 22.224999999999948 53.97499999999995
    vertex 50.79999999999995 -1.6919798895287383e-14 -3.665956427312267e-14
    vertex 50.79999999999995 5.752253277403481 0.757298510725407
  endloop
endfacet
facet normal 1.0 2.0038484673041203e-16 1.473267369400332e-16
  outer loop
    vertex 50.799999999999926 22.224999999999948 53.97499999999995
    vertex 50.79999999999995 5.752253277403481 0.757298510725407
    vertex 50.79999999999995 11.11249999999995 2.9775854008908906
  endloop
endfacet
facet normal 1.0 2.0038484673041203e-16 1.473267369400332e-16
  outer loop
    vertex 50.799999999999926 22.224999999999948 53.97499999999995
    vertex 50.79999999999995 11.11249999999995 2.9775854008908906
    vertex 50.799999999999926 15.715448211870964 6.509551788129027
  endloop
endfacet
facet normal 1.0 2.0038484673041203e-16 1.473267369400332e-16
  outer loop
    vertex 50.799999999999926 22.224999999999948 53.97499999999995
    vertex 50.799999999999926 15.715448211870964 6.509551788129027
    vertex 50.79999999999995 19.24741459910908 11.112499999999983
  endloop
endfacet
facet normal 1.0 2.0038484673041203e-16 1.473267369400332e-16
  outer loop
    vertex 50.799999999999926 22.224999999999948 53.97499999999995
    vertex 50.79999999999995 19.24741459910908 11.112499999999983
    vertex 50.799999999999926 21.467701489274486 16.47274672259655
  endloop
endfacet
facet normal 1.0 2.0038484673041203e-16 1.473267369400332e-16
  outer loop
    vertex 50.799999999999926 22.224999999999948 53.97499999999995
    vertex 50.799999999999926 21.467701489274486 16.47274672259655
    vertex 50.79999999999995 22.224999999999927 22.224999999999987
  endloop
endfacet
facet normal 2.9726457446908866e-16 -6.451643564448364e-15 -1.0
  outer loop
    vertex 50.79999999999995 -1.6919798895287383e-14 -3.665956427312267e-14
    vertex 0.0 -5.752253277403542 0.7572985107254211
    vertex 0.0 0.0 0.0
  endloop
endfacet
facet normal 1.6322347285208793e-15 -0.2588190451025245 -0.9659258262890673
  outer loop
    vertex 0.0 -5.752253277403542 0.7572985107254211
    vertex 50.79999999999995 -1.6919798895287383e-14 -3.665956427312267e-14
    vertex 50.79999999999995 -5.752253277403588 0.7572985107255903
  endloop
endfacet
facet normal 1.9794748542130723e-15 0.8660254037844379 -0.5000000000000011
  outer loop
    vertex 0.0 19.24741459910915 11.112499999999914
    vertex 50.799999999999926 15.715448211870964 6.509551788129027
    vertex 0.0 15.71544821187102 6.509551788128944
  endloop
endfacet
facet normal 1.6824343156635007e-15 0.7071067811865446 -0.7071067811865505
  outer loop
    vertex 50.799999999999926 15.715448211870964 6.509551788129027
    vertex 0.0 19.24741459910915 11.112499999999914
    vertex 50.79999999999995 19.24741459910908 11.112499999999983
  endloop
endfacet
facet normal 1.3990628424027108e-15 -0.4999999999999996 -0.866025403784439
  outer loop
    vertex 50.79999999999995 -11.112500000000056 2.977585400890925
    vertex 0.0 -15.715448211870976 6.509551788128942
    vertex 0.0 -11.112500000000038 2.977585400890846
  endloop
endfacet
facet normal 9.351279229466889e-17 -0.7071067811865475 -0.7071067811865477
  outer loop
    vertex 0.0 -15.715448211870976 6.509551788128942
    vertex 50.79999999999995 -11.112500000000056 2.977585400890925
    vertex 50.79999999999995 -15.71544821187102 6.509551788129007
  endloop
endfacet
facet normal -5.265639090734272e-16 -0.9659258262890682 -0.25881904510252074
  outer loop
    vertex 50.79999999999995 -21.467701489274564 16.472746722596536
    vertex -2.255973186038318e-14 -22.224999999999994 22.225000000000026
    vertex 0.0 -21.467701489274546 16.47274672259649
  endloop
endfacet
facet normal -5.506828188016571e-16 -0.9914448613738103 -0.1305261922200524
  outer loop
    vertex -2.255973186038318e-14 -22.224999999999994 22.225000000000026
    vertex 50.79999999999995 -21.467701489274564 16.472746722596536
    vertex 50.799999999999926 -22.225000000000033 22.22499999999998
  endloop
endfacet
facet normal 1.6824343156635007e-15 0.7071067811865446 -0.7071067811865505
  outer loop
    vertex 50.799999999999926 15.715448211870964 6.509551788129027
    vertex 0.0 11.11249999999996 2.97758540089084
    vertex 0.0 15.71544821187102 6.509551788128944
  endloop
endfacet
facet normal 8.66210758347174e-16 0.5000000000000021 -0.8660254037844374
  outer loop
    vertex 0.0 11.11249999999996 2.97758540089084
    vertex 50.799999999999926 15.715448211870964 6.509551788129027
    vertex 50.79999999999995 11.11249999999995 2.9775854008908906
  endloop
endfacet
facet normal -7.216449660063522e-16 -1.0 6.513308411134258e-16
  outer loop
    vertex 50.79999999999995 -22.224999999999998 69.84999999999998
    vertex -2.255973186038318e-14 -22.224999999999994 22.225000000000026
    vertex 50.799999999999926 -22.225000000000033 22.22499999999998
  endloop
endfacet
facet normal -7.216449660063522e-16 -1.0 6.513308411134258e-16
  outer loop
    vertex -2.255973186038318e-14 -22.224999999999994 22.225000000000026
    vertex 50.79999999999995 -22.224999999999998 69.84999999999998
    vertex 0.0 -22.224999999999966 69.84999999999998
  endloop
endfacet
facet normal 8.995417011130166e-16 0.9914448613738114 -0.13052619222004383
  outer loop
    vertex -2.255973186038318e-14 22.224999999999927 22.224999999999948
    vertex 50.799999999999926 21.467701489274486 16.47274672259655
    vertex 0.0 21.467701489274553 16.472746722596405
  endloop
endfacet
facet normal 1.483525916663153e-15 0.9659258262890695 -0.25881904510251574
  outer loop
    vertex 50.799999999999926 21.467701489274486 16.47274672259655
    vertex -2.255973186038318e-14 22.224999999999927 22.224999999999948
    vertex 50.79999999999995 22.224999999999927 22.224999999999987
  endloop
endfacet
facet normal 4.338734978715577e-31 1.0 -7.105427357601008e-16
  outer loop
    vertex 0.0 22.224999999999948 53.97499999999993
    vertex 50.79999999999995 22.224999999999927 22.224999999999987
    vertex -2.255973186038318e-14 22.224999999999927 22.224999999999948
  endloop
endfacet
facet normal 4.338734978715577e-31 1.0 -7.105427357601008e-16
  outer loop
    vertex 50.79999999999995 22.224999999999927 22.224999999999987
    vertex 0.0 22.224999999999948 53.97499999999993
    vertex 50.799999999999926 22.224999999999948 53.97499999999995
  endloop
endfacet
endsolid Bucket
