solid Cab Bottom
facet normal 0.0 0.0 -1.0
  outer loop
    vertex 0.0 76.19999999999999 0.0
    vertex 3.175 73.02499999999999 0.0
    vertex 0.0 0.0 0.0
  endloop
endfacet
facet normal 0.0 0.0 -1.0
  outer loop
    vertex 3.175 73.02499999999999 0.0
    vertex 0.0 76.19999999999999 0.0
    vertex 95.25 76.19999999999999 0.0
  endloop
endfacet
facet normal 0.0 0.0 -1.0
  outer loop
    vertex 3.175 73.02499999999999 0.0
    vertex 95.25 76.19999999999999 0.0
    vertex 92.07499999999999 73.02499999999999 0.0
  endloop
endfacet
facet normal 0.0 0.0 -1.0
  outer loop
    vertex 92.07499999999999 73.02499999999999 0.0
    vertex 95.25 76.19999999999999 0.0
    vertex 92.07499999999999 3.175 0.0
  endloop
endfacet
facet normal 0.0 0.0 -1.0
  outer loop
    vertex 0.0 0.0 0.0
    vertex 3.175 3.175 0.0
    vertex 95.25 0.0 0.0
  endloop
endfacet
facet normal 0.0 0.0 -1.0
  outer loop
    vertex 3.175 3.175 0.0
    vertex 0.0 0.0 0.0
    vertex 3.175 73.02499999999999 0.0
  endloop
endfacet
facet normal 0.0 0.0 -1.0
  outer loop
    vertex 95.25 0.0 0.0
    vertex 3.175 3.175 0.0
    vertex 92.07499999999999 3.175 0.0
  endloop
endfacet
facet normal 0.0 0.0 -1.0
  outer loop
    vertex 95.25 0.0 0.0
    vertex 92.07499999999999 3.175 0.0
    vertex 95.25 76.19999999999999 0.0
  endloop
endfacet
facet normal 0.0 0.0 1.0
  outer loop
    vertex 0.0 0.0 50.8
    vertex 3.175 3.175 50.8
    vertex 0.0 76.19999999999999 50.8
  endloop
endfacet
facet normal 0.0 0.0 1.0
  outer loop
    vertex 3.175 3.175 50.8
    vertex 0.0 0.0 50.8
    vertex 95.25 0.0 50.8
  endloop
endfacet
facet normal 0.0 0.0 1.0
  outer loop
    vertex 3.175 3.175 50.8
    vertex 95.25 0.0 50.8
    vertex 92.07499999999999 3.175 50.8
  endloop
endfacet
facet normal 0.0 0.0 1.0
  outer loop
    vertex 92.07499999999999 3.175 50.8
    vertex 95.25 0.0 50.8
    vertex 92.07499999999999 73.02499999999999 50.8
  endloop
endfacet
facet normal 0.0 0.0 1.0
  outer loop
    vertex 0.0 76.19999999999999 50.8
    vertex 3.175 73.02499999999999 50.8
    vertex 95.25 76.19999999999999 50.8
  endloop
endfacet
facet normal 0.0 0.0 1.0
  outer loop
    vertex 3.175 73.02499999999999 50.8
    vertex 0.0 76.19999999999999 50.8
    vertex 3.175 3.175 50.8
  endloop
endfacet
facet normal 0.0 0.0 1.0
  outer loop
    vertex 95.25 76.19999999999999 50.8
    vertex 3.175 73.02499999999999 50.8
    vertex 92.07499999999999 73.02499999999999 50.8
  endloop
endfacet
facet normal 0.0 0.0 1.0
  outer loop
    vertex 95.25 76.19999999999999 50.8
    vertex 92.07499999999999 73.02499999999999 50.8
    vertex 95.25 0.0 50.8
  endloop
endfacet
facet normal 1.0 0.0 0.0
  outer loop
    vertex 95.25 76.19999999999999 0.0
    vertex 95.25 0.0 50.8
    vertex 95.25 0.0 0.0
  endloop
endfacet
facet normal 1.0 0.0 0.0
  outer loop
    vertex 95.25 0.0 50.8
    vertex 95.25 76.19999999999999 0.0
    vertex 95.25 76.19999999999999 50.8
  endloop
endfacet
facet normal -0.0 -1.0 -0.0
  outer loop
    vertex 95.25 0.0 50.8
    vertex 0.0 0.0 0.0
    vertex 95.25 0.0 0.0
  endloop
endfacet
facet normal -0.0 -1.0 -0.0
  outer loop
    vertex 0.0 0.0 0.0
    vertex 95.25 0.0 50.8
    vertex 0.0 0.0 50.8
  endloop
endfacet
facet normal -1.0 0.0 0.0
  outer loop
    vertex 0.0 76.19999999999999 50.8
    vertex 0.0 0.0 0.0
    vertex 0.0 0.0 50.8
  endloop
endfacet
facet normal -1.0 0.0 0.0
  outer loop
    vertex 0.0 0.0 0.0
    vertex 0.0 76.19999999999999 50.8
    vertex 0.0 76.19999999999999 0.0
  endloop
endfacet
facet normal -0.0 1.0 0.0
  outer loop
    vertex 0.0 76.19999999999999 50.8
    vertex 95.25 76.19999999999999 0.0
    vertex 0.0 76.19999999999999 0.0
  endloop
endfacet
facet normal -0.0 1.0 0.0
  outer loop
    vertex 95.25 76.19999999999999 0.0
    vertex 0.0 76.19999999999999 50.8
    vertex 95.25 76.19999999999999 50.8
  endloop
endfacet
facet normal 1.0 0.0 0.0
  outer loop
    vertex 3.175 73.02499999999999 0.0
    vertex 3.175 3.175 50.8
    vertex 3.175 3.175 0.0
  endloop
endfacet
facet normal 1.0 0.0 0.0
  outer loop
    vertex 3.175 3.175 50.8
    vertex 3.175 73.02499999999999 0.0
    vertex 3.175 73.02499999999999 50.8
  endloop
endfacet
facet normal -0.0 1.0 0.0
  outer loop
    vertex 3.175 3.175 50.8
    vertex 92.07499999999999 3.175 0.0
    vertex 3.175 3.175 0.0
  endloop
endfacet
facet normal -0.0 1.0 0.0
  outer loop
    vertex 92.07499999999999 3.175 0.0
    vertex 3.175 3.175 50.8
    vertex 92.07499999999999 3.175 50.8
  endloop
endfacet
facet normal -1.0 0.0 0.0
  outer loop
    vertex 92.07499999999999 73.02499999999999 50.8
    vertex 92.07499999999999 3.175 0.0
    vertex 92.07499999999999 3.175 50.8
  endloop
endfacet
facet normal -1.0 0.0 0.0
  outer loop
    vertex 92.07499999999999 3.175 0.0
    vertex 92.07499999999999 73.02499999999999 50.8
    vertex 92.07499999999999 73.02499999999999 0.0
  endloop
endfacet
facet normal -0.0 -1.0 -0.0
  outer loop
    vertex 92.07499999999999 73.02499999999999 50.8
    vertex 3.175 73.02499999999999 0.0
    vertex 92.07499999999999 73.02499999999999 0.0
  endloop
endfacet
facet normal -0.0 -1.0 -0.0
  outer loop
    vertex 3.175 73.02499999999999 0.0
    vertex 92.07499999999999 73.02499999999999 50.8
    vertex 3.175 73.02499999999999 50.8
  endloop
endfacet
endsolid Cab Bottom
