solid Cab Top
facet normal -0.0 -0.0 1.0
  outer loop
    vertex 66.675 9.524999999999999 57.15
    vertex 9.524999999999999 85.725 57.15
    vertex 9.524999999999999 9.525 57.15
  endloop
endfacet
facet normal -0.0 -0.0 1.0
  outer loop
    vertex 9.524999999999999 85.725 57.15
    vertex 66.675 9.524999999999999 57.15
    vertex 66.675 85.725 57.15
  endloop
endfacet
facet normal -1.2872533383796671e-17 0.3093925477063574 -0.9509344096328459
  outer loop
    vertex 7.281905359075761 42.7763812358805 43.69143215445457
    vertex 69.21309377654357 39.029173378334235 41.9214373407386
    vertex 6.986906223456436 39.02917337833422 41.9214373407386
  endloop
endfacet
facet normal -9.236890474778851e-17 0.5476683682221588 -0.8366954992402421
  outer loop
    vertex 69.21309377654357 39.029173378334235 41.9214373407386
    vertex 7.281905359075761 42.7763812358805 43.69143215445457
    vertex 68.91809464092424 42.7763812358805 43.69143215445457
  endloop
endfacet
facet normal 1.5308400364100066e-16 -0.46289351976873017 -0.8864138928040987
  outer loop
    vertex 69.08459618479027 54.88544047626399 42.69242289125843
    vertex 7.348420607066893 50.98418905423387 44.09052364240133
    vertex 7.11540381520974 54.885440476263966 42.69242289125843
  endloop
endfacet
facet normal 4.7458561074350775e-17 -0.21442511930459932 -0.9767404303146299
  outer loop
    vertex 7.348420607066893 50.98418905423387 44.09052364240133
    vertex 69.08459618479027 54.88544047626399 42.69242289125843
    vertex 68.85157939293312 50.98418905423389 44.09052364240133
  endloop
endfacet
facet normal 5.77639856070281e-17 -0.5350949377700847 0.8447919315268283
  outer loop
    vertex 73.66190622345646 56.220826621665786 15.2285626592614
    vertex 2.984682520286359 59.38224310022068 17.908095121718155
    vertex 2.5380937765435667 56.22082662166577 15.228562659261389
  endloop
endfacet
facet normal 7.519777052775888e-17 -0.7336549599162915 0.6795221849139473
  outer loop
    vertex 2.984682520286359 59.38224310022068 17.908095121718155
    vertex 73.66190622345646 56.220826621665786 15.2285626592614
    vertex 73.21531747971365 59.38224310022069 17.908095121718155
  endloop
endfacet
facet normal 1.4770890033583057e-16 -0.30134577848108884 0.9535149300307921
  outer loop
    vertex 73.95690535907579 52.47361876411949 13.458567845545415
    vertex 2.5380937765435667 56.22082662166577 15.228562659261389
    vertex 2.2430946409242387 52.47361876411951 13.458567845545439
  endloop
endfacet
facet normal 5.776398560702805e-17 -0.5350949377700847 0.8447919315268281
  outer loop
    vertex 2.5380937765435667 56.22082662166577 15.228562659261389
    vertex 73.95690535907579 52.47361876411949 13.458567845545415
    vertex 73.66190622345646 56.220826621665786 15.2285626592614
  endloop
endfacet
facet normal -1.706387750962722e-16 0.834353804805225 0.5512292884154874
  outer loop
    vertex 3.3298622297223717 34.2785626592614 19.979173378334224
    vertex 73.39704051670344 36.958095121718166 16.817756899779337
    vertex 2.8029594832965525 36.958095121718166 16.817756899779315
  endloop
endfacet
facet normal -1.9781610195978358e-16 0.66496954760131 0.746870471208301
  outer loop
    vertex 73.39704051670344 36.958095121718166 16.817756899779337
    vertex 3.3298622297223717 34.2785626592614 19.979173378334224
    vertex 72.87013777027764 34.27856265926141 19.979173378334234
  endloop
endfacet
facet normal -6.39971699535834e-17 0.7473696806836986 -0.6644084289010385
  outer loop
    vertex 6.54031747971364 35.86775689977932 39.241904878281865
    vertex 70.22742658728934 33.50757710874156 35.835440476263955
    vertex 5.972573412710659 33.50757710874155 35.83544047626393
  endloop
endfacet
facet normal -4.204255237403061e-17 0.894778112111737 -0.446511063788744
  outer loop
    vertex 70.22742658728934 33.50757710874156 35.835440476263955
    vertex 6.54031747971364 35.86775689977932 39.241904878281865
    vertex 69.65968252028637 35.867756899779316 39.241904878281844
  endloop
endfacet
facet normal 2.432232054632247e-16 -0.6786957467876644 -0.7344195553580629
  outer loop
    vertex 69.47795948329656 58.29190487828186 40.33224310022067
    vertex 7.11540381520974 54.885440476263966 42.69242289125843
    vertex 6.722040516703447 58.29190487828184 40.33224310022067
  endloop
endfacet
facet normal 1.5308400364100073e-16 -0.4628935197687302 -0.8864138928040988
  outer loop
    vertex 7.11540381520974 54.885440476263966 42.69242289125843
    vertex 69.47795948329656 58.29190487828186 40.33224310022067
    vertex 69.08459618479027 54.88544047626399 42.69242289125843
  endloop
endfacet
facet normal -4.20425523740306e-17 0.8947781121117371 -0.44651106378874406
  outer loop
    vertex 5.972573412710659 33.50757710874155 35.83544047626393
    vertex 70.87763515762771 32.109476357598666 31.934189054233876
    vertex 5.322364842372311 32.10947635759866 31.934189054233865
  endloop
endfacet
facet normal -7.736214624401214e-17 0.9800995906996482 -0.19850640370119577
  outer loop
    vertex 70.87763515762771 32.109476357598666 31.934189054233876
    vertex 5.972573412710659 33.50757710874155 35.83544047626393
    vertex 70.22742658728934 33.50757710874156 35.835440476263955
  endloop
endfacet
facet normal 8.263335446976232e-18 0.04922832661709368 -0.9987875509128459
  outer loop
    vertex 7.40521118298829 46.85401444948017 44.43126709792975
    vertex 68.91809464092424 42.7763812358805 43.69143215445457
    vertex 7.281905359075761 42.7763812358805 43.69143215445457
  endloop
endfacet
facet normal -1.2872533383796704e-17 0.30939254770635743 -0.9509344096328459
  outer loop
    vertex 68.91809464092424 42.7763812358805 43.69143215445457
    vertex 7.40521118298829 46.85401444948017 44.43126709792975
    vertex 68.7947888170117 46.85401444948016 44.43126709792975
  endloop
endfacet
facet normal 2.6952113287955023e-17 -0.8835925675501313 0.4682565264576319
  outer loop
    vertex 72.64757341271068 61.742422891258435 21.314559523735998
    vertex 2.984682520286359 59.38224310022068 17.908095121718155
    vertex 73.21531747971365 59.38224310022069 17.908095121718155
  endloop
endfacet
facet normal 7.519777052775888e-17 -0.7336549599162915 0.6795221849139473
  outer loop
    vertex 2.984682520286359 59.38224310022068 17.908095121718155
    vertex 72.64757341271068 61.742422891258435 21.314559523735998
    vertex 3.552426587289335 61.742422891258435 21.314559523736012
  endloop
endfacet
facet normal 1.0399524982229701e-16 0.20870060832541013 0.9779795785621518
  outer loop
    vertex 2.1765793929331125 44.2658109457661 13.059476357598669
    vertex 74.08021118298831 48.395985550519825 12.718732902070247
    vertex 2.1197888170117096 48.395985550519825 12.718732902070258
  endloop
endfacet
facet normal 1.8827032522639173e-16 -0.047885112853245114 0.9988528500069628
  outer loop
    vertex 74.08021118298831 48.395985550519825 12.718732902070247
    vertex 2.1765793929331125 44.2658109457661 13.059476357598669
    vertex 74.02342060706691 44.2658109457661 13.059476357598658
  endloop
endfacet
facet normal 1.8827032522639173e-16 -0.047885112853245114 0.9988528500069628
  outer loop
    vertex 74.08021118298831 48.395985550519825 12.718732902070247
    vertex 2.2430946409242387 52.47361876411951 13.458567845545439
    vertex 2.1197888170117096 48.395985550519825 12.718732902070258
  endloop
endfacet
facet normal 1.4770890033583065e-16 -0.30134577848108884 0.9535149300307922
  outer loop
    vertex 2.2430946409242387 52.47361876411951 13.458567845545439
    vertex 74.08021118298831 48.395985550519825 12.718732902070247
    vertex 73.95690535907579 52.47361876411949 13.458567845545415
  endloop
endfacet
facet normal -6.096190804681874e-17 0.9481230062334378 0.3179037040533947
  outer loop
    vertex 3.9543968726467504 32.50856784554543 23.726381235880503
    vertex 72.87013777027764 34.27856265926141 19.979173378334234
    vertex 3.3298622297223717 34.2785626592614 19.979173378334224
  endloop
endfacet
facet normal -1.7063877509627219e-16 0.834353804805225 0.5512292884154872
  outer loop
    vertex 72.87013777027764 34.27856265926141 19.979173378334234
    vertex 3.9543968726467504 32.50856784554543 23.726381235880503
    vertex 72.24560312735325 32.50856784554543 23.726381235880503
  endloop
endfacet
facet normal -1.194454781926066e-16 -0.9993915575518274 -0.03487857070082667
  outer loop
    vertex 71.30900240824668 63.48126709792974 29.345985550519828
    vertex 5.570603127353249 62.74143215445457 33.423618764119496
    vertex 4.890997591753298 63.48126709792975 29.345985550519792
  endloop
endfacet
facet normal 7.531233692694837e-17 -0.9561135291580037 -0.29299644940003494
  outer loop
    vertex 5.570603127353249 62.74143215445457 33.423618764119496
    vertex 71.30900240824668 63.48126709792974 29.345985550519828
    vertex 70.62939687264675 62.74143215445457 33.42361876411951
  endloop
endfacet
facet normal 7.531233692694857e-17 -0.9561135291580036 -0.2929964494000352
  outer loop
    vertex 70.62939687264675 62.74143215445457 33.42361876411951
    vertex 6.195137770277628 60.9714373407386 37.17082662166577
    vertex 5.570603127353249 62.74143215445457 33.423618764119496
  endloop
endfacet
facet normal 2.317193802566025e-16 -0.8468824691713355 -0.5317801081370589
  outer loop
    vertex 6.195137770277628 60.9714373407386 37.17082662166577
    vertex 70.62939687264675 62.74143215445457 33.42361876411951
    vertex 70.00486222972238 60.97143734073863 37.17082662166577
  endloop
endfacet
facet normal 2.432232054632247e-16 -0.6786957467876644 -0.7344195553580629
  outer loop
    vertex 69.47795948329656 58.29190487828186 40.33224310022067
    vertex 6.195137770277628 60.9714373407386 37.17082662166577
    vertex 70.00486222972238 60.97143734073863 37.17082662166577
  endloop
endfacet
facet normal 2.317193802566025e-16 -0.8468824691713355 -0.5317801081370589
  outer loop
    vertex 6.195137770277628 60.9714373407386 37.17082662166577
    vertex 69.47795948329656 58.29190487828186 40.33224310022067
    vertex 6.722040516703447 58.29190487828184 40.33224310022067
  endloop
endfacet
facet normal -1.3101398779668223e-16 -0.9744198476022397 0.22473531230945437
  outer loop
    vertex 71.9973648423723 63.140523642401334 25.21581094576611
    vertex 3.552426587289335 61.742422891258435 21.314559523736012
    vertex 72.64757341271068 61.742422891258435 21.314559523735998
  endloop
endfacet
facet normal 2.695211328795492e-17 -0.8835925675501312 0.4682565264576317
  outer loop
    vertex 3.552426587289335 61.742422891258435 21.314559523736012
    vertex 71.9973648423723 63.140523642401334 25.21581094576611
    vertex 4.202635157627683 63.14052364240135 25.215810945766098
  endloop
endfacet
facet normal -1.3101398779668223e-16 -0.9744198476022397 0.22473531230945437
  outer loop
    vertex 71.9973648423723 63.140523642401334 25.21581094576611
    vertex 4.890997591753298 63.48126709792975 29.345985550519792
    vertex 4.202635157627683 63.14052364240135 25.215810945766098
  endloop
endfacet
facet normal -1.1944547819260669e-16 -0.9993915575518274 -0.03487857070082656
  outer loop
    vertex 4.890997591753298 63.48126709792975 29.345985550519792
    vertex 71.9973648423723 63.140523642401334 25.21581094576611
    vertex 71.30900240824668 63.48126709792974 29.345985550519828
  endloop
endfacet
facet normal -7.736214624401214e-17 0.9800995906996484 -0.19850640370119568
  outer loop
    vertex 5.322364842372311 32.10947635759866 31.934189054233865
    vertex 71.56599759175329 31.76873290207026 27.80401444948016
    vertex 4.634002408246695 31.76873290207026 27.80401444948016
  endloop
endfacet
facet normal -3.489396290522361e-17 0.9980598228937275 0.06226226726791537
  outer loop
    vertex 71.56599759175329 31.76873290207026 27.80401444948016
    vertex 5.322364842372311 32.10947635759866 31.934189054233865
    vertex 70.87763515762771 32.109476357598666 31.934189054233876
  endloop
endfacet
facet normal -1.9781610195978358e-16 0.6649695476013101 0.7468704712083005
  outer loop
    vertex 2.8029594832965525 36.958095121718166 16.817756899779315
    vertex 73.79040381520977 40.364559523736034 14.45757710874156
    vertex 2.409596184790259 40.36455952373602 14.45757710874156
  endloop
endfacet
facet normal -5.943102068915302e-17 0.4516517300154409 0.8921943256791421
  outer loop
    vertex 73.79040381520977 40.364559523736034 14.45757710874156
    vertex 2.8029594832965525 36.958095121718166 16.817756899779315
    vertex 73.39704051670344 36.958095121718166 16.817756899779337
  endloop
endfacet
facet normal -5.943102068915331e-17 0.45165173001544123 0.8921943256791419
  outer loop
    vertex 2.409596184790259 40.36455952373602 14.45757710874156
    vertex 74.02342060706691 44.2658109457661 13.059476357598658
    vertex 2.1765793929331125 44.2658109457661 13.059476357598669
  endloop
endfacet
facet normal 1.0399524982229691e-16 0.2087006083254103 0.9779795785621517
  outer loop
    vertex 74.02342060706691 44.2658109457661 13.059476357598658
    vertex 2.409596184790259 40.36455952373602 14.45757710874156
    vertex 73.79040381520977 40.364559523736034 14.45757710874156
  endloop
endfacet
facet normal -9.23689047477885e-17 0.5476683682221587 -0.836695499240242
  outer loop
    vertex 6.986906223456436 39.02917337833422 41.9214373407386
    vertex 69.65968252028637 35.867756899779316 39.241904878281844
    vertex 6.54031747971364 35.86775689977932 39.241904878281865
  endloop
endfacet
facet normal -6.39971699535834e-17 0.7473696806836988 -0.6644084289010386
  outer loop
    vertex 69.65968252028637 35.867756899779316 39.241904878281844
    vertex 6.986906223456436 39.02917337833422 41.9214373407386
    vertex 69.21309377654357 39.029173378334235 41.9214373407386
  endloop
endfacet
facet normal 4.7458561074350886e-17 -0.21442511930459965 -0.97674043031463
  outer loop
    vertex 68.85157939293312 50.98418905423389 44.09052364240133
    vertex 7.40521118298829 46.85401444948017 44.43126709792975
    vertex 7.348420607066893 50.98418905423387 44.09052364240133
  endloop
endfacet
facet normal 8.263335446976232e-18 0.04922832661709368 -0.9987875509128459
  outer loop
    vertex 7.40521118298829 46.85401444948017 44.43126709792975
    vertex 68.85157939293312 50.98418905423389 44.09052364240133
    vertex 68.7947888170117 46.85401444948016 44.43126709792975
  endloop
endfacet
facet normal -3.489396290522355e-17 0.9980598228937274 0.062262267267915596
  outer loop
    vertex 4.634002408246695 31.76873290207026 27.80401444948016
    vertex 72.24560312735325 32.50856784554543 23.726381235880503
    vertex 3.9543968726467504 32.50856784554543 23.726381235880503
  endloop
endfacet
facet normal -6.096190804681883e-17 0.9481230062334377 0.317903704053395
  outer loop
    vertex 72.24560312735325 32.50856784554543 23.726381235880503
    vertex 4.634002408246695 31.76873290207026 27.80401444948016
    vertex 71.56599759175329 31.76873290207026 27.80401444948016
  endloop
endfacet
facet normal 0.9863939238321436 -0.0 0.16439898730535746
  outer loop
    vertex 76.2 0.0 0.0
    vertex 72.87013777027764 34.27856265926141 19.979173378334234
    vertex 66.675 9.524999999999999 57.15
  endloop
endfacet
facet normal 0.9863939238321436 -0.0 0.16439898730535746
  outer loop
    vertex 72.87013777027764 34.27856265926141 19.979173378334234
    vertex 76.2 0.0 0.0
    vertex 73.39704051670344 36.958095121718166 16.817756899779337
  endloop
endfacet
facet normal 0.9863939238321436 -0.0 0.16439898730535746
  outer loop
    vertex 73.39704051670344 36.958095121718166 16.817756899779337
    vertex 76.2 0.0 0.0
    vertex 73.79040381520977 40.364559523736034 14.45757710874156
  endloop
endfacet
facet normal 0.9863939238321436 -0.0 0.16439898730535746
  outer loop
    vertex 73.79040381520977 40.364559523736034 14.45757710874156
    vertex 76.2 0.0 0.0
    vertex 74.02342060706691 44.2658109457661 13.059476357598658
  endloop
endfacet
facet normal 0.9863939238321436 -0.0 0.16439898730535746
  outer loop
    vertex 74.02342060706691 44.2658109457661 13.059476357598658
    vertex 76.2 0.0 0.0
    vertex 76.2 95.25 0.0
  endloop
endfacet
facet normal 0.9863939238321436 -0.0 0.16439898730535746
  outer loop
    vertex 66.675 9.524999999999999 57.15
    vertex 72.87013777027764 34.27856265926141 19.979173378334234
    vertex 72.24560312735325 32.50856784554543 23.726381235880503
  endloop
endfacet
facet normal 0.9863939238321436 -0.0 0.16439898730535746
  outer loop
    vertex 66.675 9.524999999999999 57.15
    vertex 72.24560312735325 32.50856784554543 23.726381235880503
    vertex 71.56599759175329 31.76873290207026 27.80401444948016
  endloop
endfacet
facet normal 0.9863939238321436 -0.0 0.16439898730535746
  outer loop
    vertex 74.02342060706691 44.2658109457661 13.059476357598658
    vertex 76.2 95.25 0.0
    vertex 74.08021118298831 48.395985550519825 12.718732902070247
  endloop
endfacet
facet normal 0.9863939238321436 -0.0 0.16439898730535746
  outer loop
    vertex 74.08021118298831 48.395985550519825 12.718732902070247
    vertex 76.2 95.25 0.0
    vertex 73.95690535907579 52.47361876411949 13.458567845545415
  endloop
endfacet
facet normal 0.9863939238321436 -0.0 0.16439898730535746
  outer loop
    vertex 73.95690535907579 52.47361876411949 13.458567845545415
    vertex 76.2 95.25 0.0
    vertex 73.66190622345646 56.220826621665786 15.2285626592614
  endloop
endfacet
facet normal 0.9863939238321436 -0.0 0.16439898730535746
  outer loop
    vertex 73.66190622345646 56.220826621665786 15.2285626592614
    vertex 76.2 95.25 0.0
    vertex 73.21531747971365 59.38224310022069 17.908095121718155
  endloop
endfacet
facet normal 0.9863939238321436 -0.0 0.16439898730535746
  outer loop
    vertex 73.21531747971365 59.38224310022069 17.908095121718155
    vertex 76.2 95.25 0.0
    vertex 72.64757341271068 61.742422891258435 21.314559523735998
  endloop
endfacet
facet normal 0.9863939238321436 -0.0 0.16439898730535746
  outer loop
    vertex 72.64757341271068 61.742422891258435 21.314559523735998
    vertex 76.2 95.25 0.0
    vertex 71.9973648423723 63.140523642401334 25.21581094576611
  endloop
endfacet
facet normal 0.9863939238321436 -0.0 0.16439898730535746
  outer loop
    vertex 71.9973648423723 63.140523642401334 25.21581094576611
    vertex 76.2 95.25 0.0
    vertex 71.30900240824668 63.48126709792974 29.345985550519828
  endloop
endfacet
facet normal 0.9863939238321436 -0.0 0.16439898730535746
  outer loop
    vertex 71.30900240824668 63.48126709792974 29.345985550519828
    vertex 76.2 95.25 0.0
    vertex 66.675 85.725 57.15
  endloop
endfacet
facet normal 0.9863939238321436 -0.0 0.16439898730535746
  outer loop
    vertex 66.675 9.524999999999999 57.15
    vertex 68.91809464092424 42.7763812358805 43.69143215445457
    vertex 66.675 85.725 57.15
  endloop
endfacet
facet normal 0.9863939238321436 -0.0 0.16439898730535746
  outer loop
    vertex 68.91809464092424 42.7763812358805 43.69143215445457
    vertex 66.675 9.524999999999999 57.15
    vertex 69.21309377654357 39.029173378334235 41.9214373407386
  endloop
endfacet
facet normal 0.9863939238321436 -0.0 0.16439898730535746
  outer loop
    vertex 69.21309377654357 39.029173378334235 41.9214373407386
    vertex 66.675 9.524999999999999 57.15
    vertex 69.65968252028637 35.867756899779316 39.241904878281844
  endloop
endfacet
facet normal 0.9863939238321436 -0.0 0.16439898730535746
  outer loop
    vertex 69.65968252028637 35.867756899779316 39.241904878281844
    vertex 66.675 9.524999999999999 57.15
    vertex 70.22742658728934 33.50757710874156 35.835440476263955
  endloop
endfacet
facet normal 0.9863939238321436 -0.0 0.16439898730535746
  outer loop
    vertex 70.22742658728934 33.50757710874156 35.835440476263955
    vertex 66.675 9.524999999999999 57.15
    vertex 70.87763515762771 32.109476357598666 31.934189054233876
  endloop
endfacet
facet normal 0.9863939238321436 -0.0 0.16439898730535746
  outer loop
    vertex 70.87763515762771 32.109476357598666 31.934189054233876
    vertex 66.675 9.524999999999999 57.15
    vertex 71.56599759175329 31.76873290207026 27.80401444948016
  endloop
endfacet
facet normal 0.9863939238321436 -0.0 0.16439898730535746
  outer loop
    vertex 66.675 85.725 57.15
    vertex 68.91809464092424 42.7763812358805 43.69143215445457
    vertex 68.7947888170117 46.85401444948016 44.43126709792975
  endloop
endfacet
facet normal 0.9863939238321436 -0.0 0.16439898730535746
  outer loop
    vertex 66.675 85.725 57.15
    vertex 68.7947888170117 46.85401444948016 44.43126709792975
    vertex 68.85157939293312 50.98418905423389 44.09052364240133
  endloop
endfacet
facet normal 0.9863939238321436 -0.0 0.16439898730535746
  outer loop
    vertex 66.675 85.725 57.15
    vertex 68.85157939293312 50.98418905423389 44.09052364240133
    vertex 69.08459618479027 54.88544047626399 42.69242289125843
  endloop
endfacet
facet normal 0.9863939238321436 -0.0 0.16439898730535746
  outer loop
    vertex 66.675 85.725 57.15
    vertex 69.08459618479027 54.88544047626399 42.69242289125843
    vertex 69.47795948329656 58.29190487828186 40.33224310022067
  endloop
endfacet
facet normal 0.9863939238321436 -0.0 0.16439898730535746
  outer loop
    vertex 66.675 85.725 57.15
    vertex 69.47795948329656 58.29190487828186 40.33224310022067
    vertex 70.00486222972238 60.97143734073863 37.17082662166577
  endloop
endfacet
facet normal 0.9863939238321436 -0.0 0.16439898730535746
  outer loop
    vertex 66.675 85.725 57.15
    vertex 70.00486222972238 60.97143734073863 37.17082662166577
    vertex 70.62939687264675 62.74143215445457 33.42361876411951
  endloop
endfacet
facet normal 0.9863939238321436 -0.0 0.16439898730535746
  outer loop
    vertex 66.675 85.725 57.15
    vertex 70.62939687264675 62.74143215445457 33.42361876411951
    vertex 71.30900240824668 63.48126709792974 29.345985550519828
  endloop
endfacet
facet normal -0.9863939238321439 0.0 0.1643989873053573
  outer loop
    vertex 9.524999999999999 9.525 57.15
    vertex 5.322364842372311 32.10947635759866 31.934189054233865
    vertex 4.634002408246695 31.76873290207026 27.80401444948016
  endloop
endfacet
facet normal -0.9863939238321439 0.0 0.1643989873053573
  outer loop
    vertex 5.322364842372311 32.10947635759866 31.934189054233865
    vertex 9.524999999999999 9.525 57.15
    vertex 5.972573412710659 33.50757710874155 35.83544047626393
  endloop
endfacet
facet normal -0.9863939238321439 0.0 0.1643989873053573
  outer loop
    vertex 5.972573412710659 33.50757710874155 35.83544047626393
    vertex 9.524999999999999 9.525 57.15
    vertex 6.54031747971364 35.86775689977932 39.241904878281865
  endloop
endfacet
facet normal -0.9863939238321439 0.0 0.1643989873053573
  outer loop
    vertex 6.54031747971364 35.86775689977932 39.241904878281865
    vertex 9.524999999999999 9.525 57.15
    vertex 6.986906223456436 39.02917337833422 41.9214373407386
  endloop
endfacet
facet normal -0.9863939238321439 0.0 0.1643989873053573
  outer loop
    vertex 6.986906223456436 39.02917337833422 41.9214373407386
    vertex 9.524999999999999 9.525 57.15
    vertex 7.281905359075761 42.7763812358805 43.69143215445457
  endloop
endfacet
facet normal -0.9863939238321439 0.0 0.1643989873053573
  outer loop
    vertex 7.281905359075761 42.7763812358805 43.69143215445457
    vertex 9.524999999999999 9.525 57.15
    vertex 9.524999999999999 85.725 57.15
  endloop
endfacet
facet normal -0.9863939238321439 0.0 0.1643989873053573
  outer loop
    vertex 7.281905359075761 42.7763812358805 43.69143215445457
    vertex 9.524999999999999 85.725 57.15
    vertex 7.40521118298829 46.85401444948017 44.43126709792975
  endloop
endfacet
facet normal -0.9863939238321439 0.0 0.1643989873053573
  outer loop
    vertex 7.40521118298829 46.85401444948017 44.43126709792975
    vertex 9.524999999999999 85.725 57.15
    vertex 7.348420607066893 50.98418905423387 44.09052364240133
  endloop
endfacet
facet normal -0.9863939238321439 0.0 0.1643989873053573
  outer loop
    vertex 7.348420607066893 50.98418905423387 44.09052364240133
    vertex 9.524999999999999 85.725 57.15
    vertex 7.11540381520974 54.885440476263966 42.69242289125843
  endloop
endfacet
facet normal -0.9863939238321439 0.0 0.1643989873053573
  outer loop
    vertex 7.11540381520974 54.885440476263966 42.69242289125843
    vertex 9.524999999999999 85.725 57.15
    vertex 6.722040516703447 58.29190487828184 40.33224310022067
  endloop
endfacet
facet normal -0.9863939238321439 0.0 0.1643989873053573
  outer loop
    vertex 6.722040516703447 58.29190487828184 40.33224310022067
    vertex 9.524999999999999 85.725 57.15
    vertex 6.195137770277628 60.9714373407386 37.17082662166577
  endloop
endfacet
facet normal -0.9863939238321439 0.0 0.1643989873053573
  outer loop
    vertex 6.195137770277628 60.9714373407386 37.17082662166577
    vertex 9.524999999999999 85.725 57.15
    vertex 5.570603127353249 62.74143215445457 33.423618764119496
  endloop
endfacet
facet normal -0.9863939238321439 0.0 0.1643989873053573
  outer loop
    vertex 5.570603127353249 62.74143215445457 33.423618764119496
    vertex 9.524999999999999 85.725 57.15
    vertex 4.890997591753298 63.48126709792975 29.345985550519792
  endloop
endfacet
facet normal -0.9863939238321439 0.0 0.1643989873053573
  outer loop
    vertex 0.0 0.0 0.0
    vertex 2.1765793929331125 44.2658109457661 13.059476357598669
    vertex 0.0 95.25 0.0
  endloop
endfacet
facet normal -0.9863939238321439 0.0 0.1643989873053573
  outer loop
    vertex 2.1765793929331125 44.2658109457661 13.059476357598669
    vertex 0.0 0.0 0.0
    vertex 2.409596184790259 40.36455952373602 14.45757710874156
  endloop
endfacet
facet normal -0.9863939238321439 0.0 0.1643989873053573
  outer loop
    vertex 2.409596184790259 40.36455952373602 14.45757710874156
    vertex 0.0 0.0 0.0
    vertex 2.8029594832965525 36.958095121718166 16.817756899779315
  endloop
endfacet
facet normal -0.9863939238321439 0.0 0.1643989873053573
  outer loop
    vertex 2.8029594832965525 36.958095121718166 16.817756899779315
    vertex 0.0 0.0 0.0
    vertex 3.3298622297223717 34.2785626592614 19.979173378334224
  endloop
endfacet
facet normal -0.9863939238321439 0.0 0.1643989873053573
  outer loop
    vertex 3.3298622297223717 34.2785626592614 19.979173378334224
    vertex 0.0 0.0 0.0
    vertex 9.524999999999999 9.525 57.15
  endloop
endfacet
facet normal -0.9863939238321439 0.0 0.1643989873053573
  outer loop
    vertex 3.3298622297223717 34.2785626592614 19.979173378334224
    vertex 9.524999999999999 9.525 57.15
    vertex 3.9543968726467504 32.50856784554543 23.726381235880503
  endloop
endfacet
facet normal -0.9863939238321439 0.0 0.1643989873053573
  outer loop
    vertex 3.9543968726467504 32.50856784554543 23.726381235880503
    vertex 9.524999999999999 9.525 57.15
    vertex 4.634002408246695 31.76873290207026 27.80401444948016
  endloop
endfacet
facet normal -0.9863939238321439 0.0 0.1643989873053573
  outer loop
    vertex 0.0 95.25 0.0
    vertex 2.1765793929331125 44.2658109457661 13.059476357598669
    vertex 2.1197888170117096 48.395985550519825 12.718732902070258
  endloop
endfacet
facet normal -0.9863939238321439 0.0 0.1643989873053573
  outer loop
    vertex 0.0 95.25 0.0
    vertex 2.1197888170117096 48.395985550519825 12.718732902070258
    vertex 2.2430946409242387 52.47361876411951 13.458567845545439
  endloop
endfacet
facet normal -0.9863939238321439 0.0 0.1643989873053573
  outer loop
    vertex 0.0 95.25 0.0
    vertex 2.2430946409242387 52.47361876411951 13.458567845545439
    vertex 2.5380937765435667 56.22082662166577 15.228562659261389
  endloop
endfacet
facet normal -0.9863939238321439 0.0 0.1643989873053573
  outer loop
    vertex 0.0 95.25 0.0
    vertex 2.5380937765435667 56.22082662166577 15.228562659261389
    vertex 2.984682520286359 59.38224310022068 17.908095121718155
  endloop
endfacet
facet normal -0.9863939238321439 0.0 0.1643989873053573
  outer loop
    vertex 0.0 95.25 0.0
    vertex 2.984682520286359 59.38224310022068 17.908095121718155
    vertex 3.552426587289335 61.742422891258435 21.314559523736012
  endloop
endfacet
facet normal -0.9863939238321439 0.0 0.1643989873053573
  outer loop
    vertex 0.0 95.25 0.0
    vertex 3.552426587289335 61.742422891258435 21.314559523736012
    vertex 4.202635157627683 63.14052364240135 25.215810945766098
  endloop
endfacet
facet normal -0.9863939238321439 0.0 0.1643989873053573
  outer loop
    vertex 0.0 95.25 0.0
    vertex 4.202635157627683 63.14052364240135 25.215810945766098
    vertex 4.890997591753298 63.48126709792975 29.345985550519792
  endloop
endfacet
facet normal -0.9863939238321439 0.0 0.1643989873053573
  outer loop
    vertex 0.0 95.25 0.0
    vertex 4.890997591753298 63.48126709792975 29.345985550519792
    vertex 9.524999999999999 85.725 57.15
  endloop
endfacet
facet normal -1.2979167355126504e-17 -0.9863939238321439 0.16439898730535732
  outer loop
    vertex 66.675 9.524999999999999 57.15
    vertex 0.0 0.0 0.0
    vertex 76.2 0.0 0.0
  endloop
endfacet
facet normal -1.2979167355126504e-17 -0.9863939238321439 0.16439898730535732
  outer loop
    vertex 0.0 0.0 0.0
    vertex 66.675 9.524999999999999 57.15
    vertex 9.524999999999999 9.525 57.15
  endloop
endfacet
facet normal 0.0 0.0 -1.0
  outer loop
    vertex 76.2 95.25 0.0
    vertex 0.0 0.0 0.0
    vertex 0.0 95.25 0.0
  endloop
endfacet
facet normal 0.0 0.0 -1.0
  outer loop
    vertex 0.0 0.0 0.0
    vertex 76.2 95.25 0.0
    vertex 76.2 0.0 0.0
  endloop
endfacet
facet normal -5.191666942050602e-18 0.9863939238321439 0.16439898730535732
  outer loop
    vertex 9.524999999999999 85.725 57.15
    vertex 76.2 95.25 0.0
    vertex 0.0 95.25 0.0
  endloop
endfacet
facet normal -5.191666942050602e-18 0.9863939238321439 0.16439898730535732
  outer loop
    vertex 76.2 95.25 0.0
    vertex 9.524999999999999 85.725 57.15
    vertex 66.675 85.725 57.15
  endloop
endfacet
endsolid Cab Top
