solid Cab
facet normal 0.0 0.0 -1.0
  outer loop
    vertex 76.19999999999999 95.25 0.0
    vertex 0.0 0.0 0.0
    vertex 0.0 95.25 0.0
  endloop
endfacet
facet normal 0.0 0.0 -1.0
  outer loop
    vertex 0.0 0.0 0.0
    vertex 76.19999999999999 95.25 0.0
    vertex 76.19999999999999 0.0 0.0
  endloop
endfacet
facet normal -0.0 -0.0 1.0
  outer loop
    vertex 66.675 9.524999999999999 107.94999999999999
    vertex 9.524999999999999 85.725 107.94999999999999
    vertex 9.524999999999999 9.525 107.94999999999999
  endloop
endfacet
facet normal -0.0 -0.0 1.0
  outer loop
    vertex 9.524999999999999 85.725 107.94999999999999
    vertex 66.675 9.524999999999999 107.94999999999999
    vertex 66.675 85.725 107.94999999999999
  endloop
endfacet
facet normal -3.2908380993404932e-18 0.3093925477063561 -0.9509344096328464
  outer loop
    vertex 7.281905359075761 42.77638123588049 94.49143215445457
    vertex 69.21309377654356 39.02917337833423 92.7214373407386
    vertex 6.986906223456436 39.02917337833422 92.7214373407386
  endloop
endfacet
facet normal -4.625264671901774e-17 0.5476683682221599 -0.8366954992402412
  outer loop
    vertex 69.21309377654356 39.02917337833423 92.7214373407386
    vertex 7.281905359075761 42.77638123588049 94.49143215445457
    vertex 68.91809464092422 42.77638123588049 94.49143215445457
  endloop
endfacet
facet normal 3.318337556269511e-17 -0.4628935197687313 -0.8864138928040982
  outer loop
    vertex 69.08459618479026 54.88544047626399 93.49242289125843
    vertex 7.348420607066893 50.98418905423387 94.89052364240133
    vertex 7.11540381520974 54.885440476263966 93.49242289125843
  endloop
endfacet
facet normal 3.193122593528863e-18 -0.21442511930459862 -0.9767404303146301
  outer loop
    vertex 7.348420607066893 50.98418905423387 94.89052364240133
    vertex 69.08459618479026 54.88544047626399 93.49242289125843
    vertex 68.8515793929331 50.98418905423389 94.89052364240133
  endloop
endfacet
facet normal 5.821413275127166e-17 -0.5350949377700847 0.8447919315268281
  outer loop
    vertex 73.66190622345644 56.220826621665786 66.0285626592614
    vertex 2.984682520286359 59.38224310022068 68.70809512171816
    vertex 2.5380937765435654 56.22082662166577 66.02856265926138
  endloop
endfacet
facet normal 7.550476371845186e-17 -0.7336549599162915 0.6795221849139473
  outer loop
    vertex 2.984682520286359 59.38224310022068 68.70809512171816
    vertex 73.66190622345644 56.220826621665786 66.0285626592614
    vertex 73.21531747971365 59.38224310022069 68.70809512171816
  endloop
endfacet
facet normal 1.5209236614667874e-16 -0.3013457784810885 0.9535149300307921
  outer loop
    vertex 73.95690535907576 52.47361876411949 64.25856784554541
    vertex 2.5380937765435654 56.22082662166577 66.02856265926138
    vertex 2.2430946409242396 52.47361876411951 64.25856784554543
  endloop
endfacet
facet normal 5.821413275127166e-17 -0.5350949377700847 0.8447919315268281
  outer loop
    vertex 2.5380937765435654 56.22082662166577 66.02856265926138
    vertex 73.95690535907576 52.47361876411949 64.25856784554541
    vertex 73.66190622345644 56.220826621665786 66.0285626592614
  endloop
endfacet
facet normal -1.706604367814313e-16 0.834353804805225 0.5512292884154872
  outer loop
    vertex 3.3298622297223717 34.2785626592614 70.77917337833422
    vertex 73.39704051670344 36.958095121718166 67.61775689977934
    vertex 2.8029594832965525 36.958095121718166 67.61775689977931
  endloop
endfacet
facet normal -1.8542586266521254e-16 0.6649695476013103 0.7468704712083006
  outer loop
    vertex 73.39704051670344 36.958095121718166 67.61775689977934
    vertex 3.3298622297223717 34.2785626592614 70.77917337833422
    vertex 72.87013777027764 34.27856265926141 70.77917337833424
  endloop
endfacet
facet normal -2.39041975382215e-17 0.7473696806836992 -0.6644084289010377
  outer loop
    vertex 6.540317479713641 35.86775689977932 90.04190487828185
    vertex 70.22742658728934 33.50757710874156 86.63544047626395
    vertex 5.972573412710657 33.50757710874155 86.63544047626392
  endloop
endfacet
facet normal -3.4907549836889296e-17 0.8947781121117367 -0.4465110637887447
  outer loop
    vertex 70.22742658728934 33.50757710874156 86.63544047626395
    vertex 6.540317479713641 35.86775689977932 90.04190487828185
    vertex 69.65968252028635 35.867756899779316 90.04190487828184
  endloop
endfacet
facet normal 1.1124160881232607e-16 -0.6786957467876643 -0.7344195553580628
  outer loop
    vertex 69.47795948329656 58.29190487828186 91.13224310022066
    vertex 7.11540381520974 54.885440476263966 93.49242289125843
    vertex 6.722040516703447 58.29190487828184 91.13224310022066
  endloop
endfacet
facet normal 3.318337556269509e-17 -0.4628935197687312 -0.8864138928040982
  outer loop
    vertex 7.11540381520974 54.885440476263966 93.49242289125843
    vertex 69.47795948329656 58.29190487828186 91.13224310022066
    vertex 69.08459618479026 54.88544047626399 93.49242289125843
  endloop
endfacet
facet normal -3.490754983688929e-17 0.8947781121117367 -0.4465110637887447
  outer loop
    vertex 5.972573412710657 33.50757710874155 86.63544047626392
    vertex 70.8776351576277 32.109476357598666 82.73418905423388
    vertex 5.322364842372313 32.10947635759865 82.73418905423387
  endloop
endfacet
facet normal -7.669692301148175e-17 0.9800995906996481 -0.19850640370119635
  outer loop
    vertex 70.8776351576277 32.109476357598666 82.73418905423388
    vertex 5.972573412710657 33.50757710874155 86.63544047626392
    vertex 70.22742658728934 33.50757710874156 86.63544047626395
  endloop
endfacet
facet normal 7.773720670932526e-18 0.049228326617093573 -0.998787550912846
  outer loop
    vertex 7.405211182988292 46.85401444948017 95.23126709792973
    vertex 68.91809464092422 42.77638123588049 94.49143215445457
    vertex 7.281905359075761 42.77638123588049 94.49143215445457
  endloop
endfacet
facet normal -3.290838099340498e-18 0.30939254770635616 -0.9509344096328464
  outer loop
    vertex 68.91809464092422 42.77638123588049 94.49143215445457
    vertex 7.405211182988292 46.85401444948017 95.23126709792973
    vertex 68.7947888170117 46.85401444948016 95.23126709792973
  endloop
endfacet
facet normal 2.8265161316574724e-17 -0.8835925675501313 0.4682565264576318
  outer loop
    vertex 72.64757341271067 61.742422891258435 72.11455952373599
    vertex 2.984682520286359 59.38224310022068 68.70809512171816
    vertex 73.21531747971365 59.38224310022069 68.70809512171816
  endloop
endfacet
facet normal 7.550476371845186e-17 -0.7336549599162915 0.6795221849139473
  outer loop
    vertex 2.984682520286359 59.38224310022068 68.70809512171816
    vertex 72.64757341271067 61.742422891258435 72.11455952373599
    vertex 3.552426587289335 61.742422891258435 72.114559523736
  endloop
endfacet
facet normal 1.0907210455445105e-16 0.2087006083254102 0.9779795785621518
  outer loop
    vertex 2.1765793929331116 44.26581094576609 63.859476357598666
    vertex 74.0802111829883 48.395985550519825 63.51873290207024
    vertex 2.1197888170117096 48.39598555051982 63.518732902070255
  endloop
endfacet
facet normal 1.9023407760526014e-16 -0.04788511285324496 0.9988528500069628
  outer loop
    vertex 74.0802111829883 48.395985550519825 63.51873290207024
    vertex 2.1765793929331116 44.26581094576609 63.859476357598666
    vertex 74.0234206070669 44.26581094576609 63.85947635759866
  endloop
endfacet
facet normal 1.9023407760526014e-16 -0.04788511285324496 0.9988528500069628
  outer loop
    vertex 74.0802111829883 48.395985550519825 63.51873290207024
    vertex 2.2430946409242396 52.47361876411951 64.25856784554543
    vertex 2.1197888170117096 48.39598555051982 63.518732902070255
  endloop
endfacet
facet normal 1.520923661466787e-16 -0.30134577848108857 0.9535149300307921
  outer loop
    vertex 2.2430946409242396 52.47361876411951 64.25856784554543
    vertex 74.0802111829883 48.395985550519825 63.51873290207024
    vertex 73.95690535907576 52.47361876411949 64.25856784554541
  endloop
endfacet
facet normal -6.086809186742837e-17 0.9481230062334377 0.31790370405339524
  outer loop
    vertex 3.9543968726467504 32.50856784554543 74.52638123588049
    vertex 72.87013777027764 34.27856265926141 70.77917337833424
    vertex 3.3298622297223717 34.2785626592614 70.77917337833422
  endloop
endfacet
facet normal -1.7066043678143138e-16 0.834353804805225 0.5512292884154874
  outer loop
    vertex 72.87013777027764 34.27856265926141 70.77917337833424
    vertex 3.9543968726467504 32.50856784554543 74.52638123588049
    vertex 72.24560312735323 32.50856784554543 74.52638123588049
  endloop
endfacet
facet normal -1.1933877875534437e-16 -0.9993915575518274 -0.03487857070082676
  outer loop
    vertex 71.30900240824668 63.48126709792974 80.14598555051982
    vertex 5.570603127353248 62.74143215445457 84.2236187641195
    vertex 4.8909975917533 63.48126709792975 80.1459855505198
  endloop
endfacet
facet normal 5.833167774224443e-17 -0.9561135291580037 -0.29299644940003505
  outer loop
    vertex 5.570603127353248 62.74143215445457 84.2236187641195
    vertex 71.30900240824668 63.48126709792974 80.14598555051982
    vertex 70.62939687264675 62.74143215445457 84.22361876411951
  endloop
endfacet
facet normal 5.833167774224451e-17 -0.9561135291580036 -0.29299644940003516
  outer loop
    vertex 70.62939687264675 62.74143215445457 84.22361876411951
    vertex 6.195137770277628 60.9714373407386 87.97082662166576
    vertex 5.570603127353248 62.74143215445457 84.2236187641195
  endloop
endfacet
facet normal 1.5815571228602483e-16 -0.8468824691713351 -0.5317801081370593
  outer loop
    vertex 6.195137770277628 60.9714373407386 87.97082662166576
    vertex 70.62939687264675 62.74143215445457 84.22361876411951
    vertex 70.00486222972238 60.97143734073863 87.97082662166576
  endloop
endfacet
facet normal 1.1124160881232607e-16 -0.6786957467876643 -0.7344195553580628
  outer loop
    vertex 69.47795948329656 58.29190487828186 91.13224310022066
    vertex 6.195137770277628 60.9714373407386 87.97082662166576
    vertex 70.00486222972238 60.97143734073863 87.97082662166576
  endloop
endfacet
facet normal 1.5815571228602483e-16 -0.8468824691713351 -0.5317801081370593
  outer loop
    vertex 6.195137770277628 60.9714373407386 87.97082662166576
    vertex 69.47795948329656 58.29190487828186 91.13224310022066
    vertex 6.722040516703447 58.29190487828184 91.13224310022066
  endloop
endfacet
facet normal -1.3051179404751773e-16 -0.9744198476022397 0.22473531230945418
  outer loop
    vertex 71.9973648423723 63.140523642401334 76.0158109457661
    vertex 3.552426587289335 61.742422891258435 72.114559523736
    vertex 72.64757341271067 61.742422891258435 72.11455952373599
  endloop
endfacet
facet normal 2.826516131657455e-17 -0.8835925675501313 0.46825652645763155
  outer loop
    vertex 3.552426587289335 61.742422891258435 72.114559523736
    vertex 71.9973648423723 63.140523642401334 76.0158109457661
    vertex 4.202635157627684 63.14052364240135 76.01581094576609
  endloop
endfacet
facet normal -1.3051179404751773e-16 -0.9744198476022397 0.22473531230945418
  outer loop
    vertex 71.9973648423723 63.140523642401334 76.0158109457661
    vertex 4.8909975917533 63.48126709792975 80.1459855505198
    vertex 4.202635157627684 63.14052364240135 76.01581094576609
  endloop
endfacet
facet normal -1.1933877875534446e-16 -0.9993915575518273 -0.03487857070082656
  outer loop
    vertex 4.8909975917533 63.48126709792975 80.1459855505198
    vertex 71.9973648423723 63.140523642401334 76.0158109457661
    vertex 71.30900240824668 63.48126709792974 80.14598555051982
  endloop
endfacet
facet normal -7.669692301148171e-17 0.9800995906996481 -0.1985064037011962
  outer loop
    vertex 5.322364842372313 32.10947635759865 82.73418905423387
    vertex 71.56599759175329 31.76873290207025 78.60401444948016
    vertex 4.634002408246694 31.76873290207025 78.60401444948016
  endloop
endfacet
facet normal -3.4629736837083055e-17 0.9980598228937274 0.06226226726791613
  outer loop
    vertex 71.56599759175329 31.76873290207025 78.60401444948016
    vertex 5.322364842372313 32.10947635759865 82.73418905423387
    vertex 70.8776351576277 32.109476357598666 82.73418905423388
  endloop
endfacet
facet normal -1.854258626652125e-16 0.6649695476013102 0.7468704712083005
  outer loop
    vertex 2.8029594832965525 36.958095121718166 67.61775689977931
    vertex 73.79040381520976 40.36455952373603 65.25757710874156
    vertex 2.409596184790259 40.36455952373602 65.25757710874156
  endloop
endfacet
facet normal -4.1327079410166895e-17 0.4516517300154413 0.892194325679142
  outer loop
    vertex 73.79040381520976 40.36455952373603 65.25757710874156
    vertex 2.8029594832965525 36.958095121718166 67.61775689977931
    vertex 73.39704051670344 36.958095121718166 67.61775689977934
  endloop
endfacet
facet normal -4.1327079410167056e-17 0.4516517300154415 0.8921943256791419
  outer loop
    vertex 2.409596184790259 40.36455952373602 65.25757710874156
    vertex 74.0234206070669 44.26581094576609 63.85947635759866
    vertex 2.1765793929331116 44.26581094576609 63.859476357598666
  endloop
endfacet
facet normal 1.0907210455445101e-16 0.20870060832541026 0.9779795785621517
  outer loop
    vertex 74.0234206070669 44.26581094576609 63.85947635759866
    vertex 2.409596184790259 40.36455952373602 65.25757710874156
    vertex 73.79040381520976 40.36455952373603 65.25757710874156
  endloop
endfacet
facet normal -4.625264671901773e-17 0.5476683682221598 -0.8366954992402413
  outer loop
    vertex 6.986906223456436 39.02917337833422 92.7214373407386
    vertex 69.65968252028635 35.867756899779316 90.04190487828184
    vertex 6.540317479713641 35.86775689977932 90.04190487828185
  endloop
endfacet
facet normal -2.390419753822148e-17 0.7473696806836994 -0.6644084289010377
  outer loop
    vertex 69.65968252028635 35.867756899779316 90.04190487828184
    vertex 6.986906223456436 39.02917337833422 92.7214373407386
    vertex 69.21309377654356 39.02917337833423 92.7214373407386
  endloop
endfacet
facet normal 3.193122593528867e-18 -0.21442511930459876 -0.97674043031463
  outer loop
    vertex 68.8515793929331 50.98418905423389 94.89052364240133
    vertex 7.405211182988292 46.85401444948017 95.23126709792973
    vertex 7.348420607066893 50.98418905423387 94.89052364240133
  endloop
endfacet
facet normal 7.773720670932526e-18 0.049228326617093573 -0.998787550912846
  outer loop
    vertex 7.405211182988292 46.85401444948017 95.23126709792973
    vertex 68.8515793929331 50.98418905423389 94.89052364240133
    vertex 68.7947888170117 46.85401444948016 95.23126709792973
  endloop
endfacet
facet normal -3.462973683708298e-17 0.9980598228937274 0.06226226726791636
  outer loop
    vertex 4.634002408246694 31.76873290207025 78.60401444948016
    vertex 72.24560312735323 32.50856784554543 74.52638123588049
    vertex 3.9543968726467504 32.50856784554543 74.52638123588049
  endloop
endfacet
facet normal -6.086809186742845e-17 0.9481230062334377 0.3179037040533955
  outer loop
    vertex 72.24560312735323 32.50856784554543 74.52638123588049
    vertex 4.634002408246694 31.76873290207025 78.60401444948016
    vertex 71.56599759175329 31.76873290207025 78.60401444948016
  endloop
endfacet
facet normal 0.9863939238321439 -0.0 0.1643989873053573
  outer loop
    vertex 76.19999999999999 0.0 50.8
    vertex 72.87013777027764 34.27856265926141 70.77917337833424
    vertex 66.675 9.524999999999999 107.94999999999999
  endloop
endfacet
facet normal 0.9863939238321439 -0.0 0.1643989873053573
  outer loop
    vertex 72.87013777027764 34.27856265926141 70.77917337833424
    vertex 76.19999999999999 0.0 50.8
    vertex 73.39704051670344 36.958095121718166 67.61775689977934
  endloop
endfacet
facet normal 0.9863939238321439 -0.0 0.1643989873053573
  outer loop
    vertex 73.39704051670344 36.958095121718166 67.61775689977934
    vertex 76.19999999999999 0.0 50.8
    vertex 73.79040381520976 40.36455952373603 65.25757710874156
  endloop
endfacet
facet normal 0.9863939238321439 -0.0 0.1643989873053573
  outer loop
    vertex 73.79040381520976 40.36455952373603 65.25757710874156
    vertex 76.19999999999999 0.0 50.8
    vertex 74.0234206070669 44.26581094576609 63.85947635759866
  endloop
endfacet
facet normal 0.9863939238321439 -0.0 0.1643989873053573
  outer loop
    vertex 74.0234206070669 44.26581094576609 63.85947635759866
    vertex 76.19999999999999 0.0 50.8
    vertex 76.19999999999999 95.25 50.8
  endloop
endfacet
facet normal 0.9863939238321439 -0.0 0.1643989873053573
  outer loop
    vertex 66.675 9.524999999999999 107.94999999999999
    vertex 72.87013777027764 34.27856265926141 70.77917337833424
    vertex 72.24560312735323 32.50856784554543 74.52638123588049
  endloop
endfacet
facet normal 0.9863939238321439 -0.0 0.1643989873053573
  outer loop
    vertex 66.675 9.524999999999999 107.94999999999999
    vertex 72.24560312735323 32.50856784554543 74.52638123588049
    vertex 71.56599759175329 31.76873290207025 78.60401444948016
  endloop
endfacet
facet normal 0.9863939238321439 -0.0 0.1643989873053573
  outer loop
    vertex 74.0234206070669 44.26581094576609 63.85947635759866
    vertex 76.19999999999999 95.25 50.8
    vertex 74.0802111829883 48.395985550519825 63.51873290207024
  endloop
endfacet
facet normal 0.9863939238321439 -0.0 0.1643989873053573
  outer loop
    vertex 74.0802111829883 48.395985550519825 63.51873290207024
    vertex 76.19999999999999 95.25 50.8
    vertex 73.95690535907576 52.47361876411949 64.25856784554541
  endloop
endfacet
facet normal 0.9863939238321439 -0.0 0.1643989873053573
  outer loop
    vertex 73.95690535907576 52.47361876411949 64.25856784554541
    vertex 76.19999999999999 95.25 50.8
    vertex 73.66190622345644 56.220826621665786 66.0285626592614
  endloop
endfacet
facet normal 0.9863939238321439 -0.0 0.1643989873053573
  outer loop
    vertex 73.66190622345644 56.220826621665786 66.0285626592614
    vertex 76.19999999999999 95.25 50.8
    vertex 73.21531747971365 59.38224310022069 68.70809512171816
  endloop
endfacet
facet normal 0.9863939238321439 -0.0 0.1643989873053573
  outer loop
    vertex 73.21531747971365 59.38224310022069 68.70809512171816
    vertex 76.19999999999999 95.25 50.8
    vertex 72.64757341271067 61.742422891258435 72.11455952373599
  endloop
endfacet
facet normal 0.9863939238321439 -0.0 0.1643989873053573
  outer loop
    vertex 72.64757341271067 61.742422891258435 72.11455952373599
    vertex 76.19999999999999 95.25 50.8
    vertex 71.9973648423723 63.140523642401334 76.0158109457661
  endloop
endfacet
facet normal 0.9863939238321439 -0.0 0.1643989873053573
  outer loop
    vertex 71.9973648423723 63.140523642401334 76.0158109457661
    vertex 76.19999999999999 95.25 50.8
    vertex 71.30900240824668 63.48126709792974 80.14598555051982
  endloop
endfacet
facet normal 0.9863939238321439 -0.0 0.1643989873053573
  outer loop
    vertex 71.30900240824668 63.48126709792974 80.14598555051982
    vertex 76.19999999999999 95.25 50.8
    vertex 66.675 85.725 107.94999999999999
  endloop
endfacet
facet normal 0.9863939238321439 -0.0 0.1643989873053573
  outer loop
    vertex 66.675 9.524999999999999 107.94999999999999
    vertex 68.91809464092422 42.77638123588049 94.49143215445457
    vertex 66.675 85.725 107.94999999999999
  endloop
endfacet
facet normal 0.9863939238321439 -0.0 0.1643989873053573
  outer loop
    vertex 68.91809464092422 42.77638123588049 94.49143215445457
    vertex 66.675 9.524999999999999 107.94999999999999
    vertex 69.21309377654356 39.02917337833423 92.7214373407386
  endloop
endfacet
facet normal 0.9863939238321439 -0.0 0.1643989873053573
  outer loop
    vertex 69.21309377654356 39.02917337833423 92.7214373407386
    vertex 66.675 9.524999999999999 107.94999999999999
    vertex 69.65968252028635 35.867756899779316 90.04190487828184
  endloop
endfacet
facet normal 0.9863939238321439 -0.0 0.1643989873053573
  outer loop
    vertex 69.65968252028635 35.867756899779316 90.04190487828184
    vertex 66.675 9.524999999999999 107.94999999999999
    vertex 70.22742658728934 33.50757710874156 86.63544047626395
  endloop
endfacet
facet normal 0.9863939238321439 -0.0 0.1643989873053573
  outer loop
    vertex 70.22742658728934 33.50757710874156 86.63544047626395
    vertex 66.675 9.524999999999999 107.94999999999999
    vertex 70.8776351576277 32.109476357598666 82.73418905423388
  endloop
endfacet
facet normal 0.9863939238321439 -0.0 0.1643989873053573
  outer loop
    vertex 70.8776351576277 32.109476357598666 82.73418905423388
    vertex 66.675 9.524999999999999 107.94999999999999
    vertex 71.56599759175329 31.76873290207025 78.60401444948016
  endloop
endfacet
facet normal 0.9863939238321439 -0.0 0.1643989873053573
  outer loop
    vertex 66.675 85.725 107.94999999999999
    vertex 68.91809464092422 42.77638123588049 94.49143215445457
    vertex 68.7947888170117 46.85401444948016 95.23126709792973
  endloop
endfacet
facet normal 0.9863939238321439 -0.0 0.1643989873053573
  outer loop
    vertex 66.675 85.725 107.94999999999999
    vertex 68.7947888170117 46.85401444948016 95.23126709792973
    vertex 68.8515793929331 50.98418905423389 94.89052364240133
  endloop
endfacet
facet normal 0.9863939238321439 -0.0 0.1643989873053573
  outer loop
    vertex 66.675 85.725 107.94999999999999
    vertex 68.8515793929331 50.98418905423389 94.89052364240133
    vertex 69.08459618479026 54.88544047626399 93.49242289125843
  endloop
endfacet
facet normal 0.9863939238321439 -0.0 0.1643989873053573
  outer loop
    vertex 66.675 85.725 107.94999999999999
    vertex 69.08459618479026 54.88544047626399 93.49242289125843
    vertex 69.47795948329656 58.29190487828186 91.13224310022066
  endloop
endfacet
facet normal 0.9863939238321439 -0.0 0.1643989873053573
  outer loop
    vertex 66.675 85.725 107.94999999999999
    vertex 69.47795948329656 58.29190487828186 91.13224310022066
    vertex 70.00486222972238 60.97143734073863 87.97082662166576
  endloop
endfacet
facet normal 0.9863939238321439 -0.0 0.1643989873053573
  outer loop
    vertex 66.675 85.725 107.94999999999999
    vertex 70.00486222972238 60.97143734073863 87.97082662166576
    vertex 70.62939687264675 62.74143215445457 84.22361876411951
  endloop
endfacet
facet normal 0.9863939238321439 -0.0 0.1643989873053573
  outer loop
    vertex 66.675 85.725 107.94999999999999
    vertex 70.62939687264675 62.74143215445457 84.22361876411951
    vertex 71.30900240824668 63.48126709792974 80.14598555051982
  endloop
endfacet
facet normal 1.0 -0.0 -0.0
  outer loop
    vertex 76.19999999999999 95.25 0.0
    vertex 76.19999999999999 0.0 50.8
    vertex 76.19999999999999 0.0 0.0
  endloop
endfacet
facet normal 1.0 -0.0 -0.0
  outer loop
    vertex 76.19999999999999 0.0 50.8
    vertex 76.19999999999999 95.25 0.0
    vertex 76.19999999999999 95.25 50.8
  endloop
endfacet
facet normal -0.9863939238321439 0.0 0.16439898730535732
  outer loop
    vertex 9.524999999999999 9.525 107.94999999999999
    vertex 5.322364842372313 32.10947635759865 82.73418905423387
    vertex 4.634002408246694 31.76873290207025 78.60401444948016
  endloop
endfacet
facet normal -0.9863939238321439 0.0 0.16439898730535732
  outer loop
    vertex 5.322364842372313 32.10947635759865 82.73418905423387
    vertex 9.524999999999999 9.525 107.94999999999999
    vertex 5.972573412710657 33.50757710874155 86.63544047626392
  endloop
endfacet
facet normal -0.9863939238321439 0.0 0.16439898730535732
  outer loop
    vertex 5.972573412710657 33.50757710874155 86.63544047626392
    vertex 9.524999999999999 9.525 107.94999999999999
    vertex 6.540317479713641 35.86775689977932 90.04190487828185
  endloop
endfacet
facet normal -0.9863939238321439 0.0 0.16439898730535732
  outer loop
    vertex 6.540317479713641 35.86775689977932 90.04190487828185
    vertex 9.524999999999999 9.525 107.94999999999999
    vertex 6.986906223456436 39.02917337833422 92.7214373407386
  endloop
endfacet
facet normal -0.9863939238321439 0.0 0.16439898730535732
  outer loop
    vertex 6.986906223456436 39.02917337833422 92.7214373407386
    vertex 9.524999999999999 9.525 107.94999999999999
    vertex 7.281905359075761 42.77638123588049 94.49143215445457
  endloop
endfacet
facet normal -0.9863939238321439 0.0 0.16439898730535732
  outer loop
    vertex 7.281905359075761 42.77638123588049 94.49143215445457
    vertex 9.524999999999999 9.525 107.94999999999999
    vertex 9.524999999999999 85.725 107.94999999999999
  endloop
endfacet
facet normal -0.9863939238321439 0.0 0.16439898730535732
  outer loop
    vertex 7.281905359075761 42.77638123588049 94.49143215445457
    vertex 9.524999999999999 85.725 107.94999999999999
    vertex 7.405211182988292 46.85401444948017 95.23126709792973
  endloop
endfacet
facet normal -0.9863939238321439 0.0 0.16439898730535732
  outer loop
    vertex 7.405211182988292 46.85401444948017 95.23126709792973
    vertex 9.524999999999999 85.725 107.94999999999999
    vertex 7.348420607066893 50.98418905423387 94.89052364240133
  endloop
endfacet
facet normal -0.9863939238321439 0.0 0.16439898730535732
  outer loop
    vertex 7.348420607066893 50.98418905423387 94.89052364240133
    vertex 9.524999999999999 85.725 107.94999999999999
    vertex 7.11540381520974 54.885440476263966 93.49242289125843
  endloop
endfacet
facet normal -0.9863939238321439 0.0 0.16439898730535732
  outer loop
    vertex 7.11540381520974 54.885440476263966 93.49242289125843
    vertex 9.524999999999999 85.725 107.94999999999999
    vertex 6.722040516703447 58.29190487828184 91.13224310022066
  endloop
endfacet
facet normal -0.9863939238321439 0.0 0.16439898730535732
  outer loop
    vertex 6.722040516703447 58.29190487828184 91.13224310022066
    vertex 9.524999999999999 85.725 107.94999999999999
    vertex 6.195137770277628 60.9714373407386 87.97082662166576
  endloop
endfacet
facet normal -0.9863939238321439 0.0 0.16439898730535732
  outer loop
    vertex 6.195137770277628 60.9714373407386 87.97082662166576
    vertex 9.524999999999999 85.725 107.94999999999999
    vertex 5.570603127353248 62.74143215445457 84.2236187641195
  endloop
endfacet
facet normal -0.9863939238321439 0.0 0.16439898730535732
  outer loop
    vertex 5.570603127353248 62.74143215445457 84.2236187641195
    vertex 9.524999999999999 85.725 107.94999999999999
    vertex 4.8909975917533 63.48126709792975 80.1459855505198
  endloop
endfacet
facet normal -0.9863939238321439 0.0 0.16439898730535732
  outer loop
    vertex 0.0 0.0 50.8
    vertex 2.1765793929331116 44.26581094576609 63.859476357598666
    vertex 0.0 95.25 50.8
  endloop
endfacet
facet normal -0.9863939238321439 0.0 0.16439898730535732
  outer loop
    vertex 2.1765793929331116 44.26581094576609 63.859476357598666
    vertex 0.0 0.0 50.8
    vertex 2.409596184790259 40.36455952373602 65.25757710874156
  endloop
endfacet
facet normal -0.9863939238321439 0.0 0.16439898730535732
  outer loop
    vertex 2.409596184790259 40.36455952373602 65.25757710874156
    vertex 0.0 0.0 50.8
    vertex 2.8029594832965525 36.958095121718166 67.61775689977931
  endloop
endfacet
facet normal -0.9863939238321439 0.0 0.16439898730535732
  outer loop
    vertex 2.8029594832965525 36.958095121718166 67.61775689977931
    vertex 0.0 0.0 50.8
    vertex 3.3298622297223717 34.2785626592614 70.77917337833422
  endloop
endfacet
facet normal -0.9863939238321439 0.0 0.16439898730535732
  outer loop
    vertex 3.3298622297223717 34.2785626592614 70.77917337833422
    vertex 0.0 0.0 50.8
    vertex 9.524999999999999 9.525 107.94999999999999
  endloop
endfacet
facet normal -0.9863939238321439 0.0 0.16439898730535732
  outer loop
    vertex 3.3298622297223717 34.2785626592614 70.77917337833422
    vertex 9.524999999999999 9.525 107.94999999999999
    vertex 3.9543968726467504 32.50856784554543 74.52638123588049
  endloop
endfacet
facet normal -0.9863939238321439 0.0 0.16439898730535732
  outer loop
    vertex 3.9543968726467504 32.50856784554543 74.52638123588049
    vertex 9.524999999999999 9.525 107.94999999999999
    vertex 4.634002408246694 31.76873290207025 78.60401444948016
  endloop
endfacet
facet normal -0.9863939238321439 0.0 0.16439898730535732
  outer loop
    vertex 0.0 95.25 50.8
    vertex 2.1765793929331116 44.26581094576609 63.859476357598666
    vertex 2.1197888170117096 48.39598555051982 63.518732902070255
  endloop
endfacet
facet normal -0.9863939238321439 0.0 0.16439898730535732
  outer loop
    vertex 0.0 95.25 50.8
    vertex 2.1197888170117096 48.39598555051982 63.518732902070255
    vertex 2.2430946409242396 52.47361876411951 64.25856784554543
  endloop
endfacet
facet normal -0.9863939238321439 0.0 0.16439898730535732
  outer loop
    vertex 0.0 95.25 50.8
    vertex 2.2430946409242396 52.47361876411951 64.25856784554543
    vertex 2.5380937765435654 56.22082662166577 66.02856265926138
  endloop
endfacet
facet normal -0.9863939238321439 0.0 0.16439898730535732
  outer loop
    vertex 0.0 95.25 50.8
    vertex 2.5380937765435654 56.22082662166577 66.02856265926138
    vertex 2.984682520286359 59.38224310022068 68.70809512171816
  endloop
endfacet
facet normal -0.9863939238321439 0.0 0.16439898730535732
  outer loop
    vertex 0.0 95.25 50.8
    vertex 2.984682520286359 59.38224310022068 68.70809512171816
    vertex 3.552426587289335 61.742422891258435 72.114559523736
  endloop
endfacet
facet normal -0.9863939238321439 0.0 0.16439898730535732
  outer loop
    vertex 0.0 95.25 50.8
    vertex 3.552426587289335 61.742422891258435 72.114559523736
    vertex 4.202635157627684 63.14052364240135 76.01581094576609
  endloop
endfacet
facet normal -0.9863939238321439 0.0 0.16439898730535732
  outer loop
    vertex 0.0 95.25 50.8
    vertex 4.202635157627684 63.14052364240135 76.01581094576609
    vertex 4.8909975917533 63.48126709792975 80.1459855505198
  endloop
endfacet
facet normal -0.9863939238321439 0.0 0.16439898730535732
  outer loop
    vertex 0.0 95.25 50.8
    vertex 4.8909975917533 63.48126709792975 80.1459855505198
    vertex 9.524999999999999 85.725 107.94999999999999
  endloop
endfacet
facet normal -1.0 0.0 0.0
  outer loop
    vertex 0.0 95.25 50.8
    vertex 0.0 0.0 0.0
    vertex 0.0 0.0 50.8
  endloop
endfacet
facet normal -1.0 0.0 0.0
  outer loop
    vertex 0.0 0.0 0.0
    vertex 0.0 95.25 50.8
    vertex 0.0 95.25 0.0
  endloop
endfacet
facet normal -7.787500413075904e-18 -0.9863939238321439 0.1643989873053573
  outer loop
    vertex 66.675 9.524999999999999 107.94999999999999
    vertex 0.0 0.0 50.8
    vertex 76.19999999999999 0.0 50.8
  endloop
endfacet
facet normal -7.787500413075904e-18 -0.9863939238321439 0.1643989873053573
  outer loop
    vertex 0.0 0.0 50.8
    vertex 66.675 9.524999999999999 107.94999999999999
    vertex 9.524999999999999 9.525 107.94999999999999
  endloop
endfacet
facet normal 0.0 -1.0 0.0
  outer loop
    vertex 76.19999999999999 0.0 50.8
    vertex 0.0 0.0 0.0
    vertex 76.19999999999999 0.0 0.0
  endloop
endfacet
facet normal 0.0 -1.0 0.0
  outer loop
    vertex 0.0 0.0 0.0
    vertex 76.19999999999999 0.0 50.8
    vertex 0.0 0.0 50.8
  endloop
endfacet
facet normal 0.0 0.0 -1.0
  outer loop
    vertex 76.19999999999999 95.25 50.8
    vertex 0.0 0.0 50.8
    vertex 0.0 95.25 50.8
  endloop
endfacet
facet normal 0.0 0.0 -1.0
  outer loop
    vertex 0.0 0.0 50.8
    vertex 76.19999999999999 95.25 50.8
    vertex 76.19999999999999 0.0 50.8
  endloop
endfacet
facet normal -0.0 1.0 -0.0
  outer loop
    vertex 0.0 95.25 50.8
    vertex 76.19999999999999 95.25 0.0
    vertex 0.0 95.25 0.0
  endloop
endfacet
facet normal -0.0 1.0 -0.0
  outer loop
    vertex 76.19999999999999 95.25 0.0
    vertex 0.0 95.25 50.8
    vertex 76.19999999999999 95.25 50.8
  endloop
endfacet
facet normal -0.0 0.9863939238321439 0.1643989873053573
  outer loop
    vertex 9.524999999999999 85.725 107.94999999999999
    vertex 76.19999999999999 95.25 50.8
    vertex 0.0 95.25 50.8
  endloop
endfacet
facet normal -0.0 0.9863939238321439 0.1643989873053573
  outer loop
    vertex 76.19999999999999 95.25 50.8
    vertex 9.524999999999999 85.725 107.94999999999999
    vertex 66.675 85.725 107.94999999999999
  endloop
endfacet
endsolid Cab
