solid Chassis Back Hollow Top
facet normal -0.33124637530610873 0.9435442961761598 2.0759507445247425e-15
  outer loop
    vertex 39.546097457195756 8.580839432005954 -4.229949723821846e-15
    vertex 40.56294008606847 9.095473987739476 25.399999999999924
    vertex 40.56294008606847 9.09547398773952 -2.6789681584205025e-14
  endloop
endfacet
facet normal -0.564166662521068 0.8256609333738876 2.1996615644347607e-15
  outer loop
    vertex 40.56294008606847 9.095473987739476 25.399999999999924
    vertex 39.546097457195756 8.580839432005954 -4.229949723821846e-15
    vertex 39.546097457195756 8.580839432005865 25.39999999999999
  endloop
endfacet
facet normal -0.6515101424313987 -0.7586399240146925 2.3971600040439803e-15
  outer loop
    vertex 40.94424896555202 16.011937418276663 25.400000000000016
    vertex 39.990141052184995 16.635231688664472 -2.6789681584205025e-14
    vertex 40.94424896555202 16.011937418276528 -2.6789681584205025e-14
  endloop
endfacet
facet normal -0.4329600119536291 -0.9014131283984681 2.3510376222051704e-15
  outer loop
    vertex 39.990141052184995 16.635231688664472 -2.6789681584205025e-14
    vertex 40.94424896555202 16.011937418276663 25.400000000000016
    vertex 39.990141052184995 16.63523168866452 25.39999999999997
  endloop
endfacet
facet normal 0.5641666625210833 -0.8256609333738774 -1.4665827906765959e-15
  outer loop
    vertex 35.63705991393145 16.30452601226039 1.8329782136561334e-14
    vertex 34.78806258172335 15.544248965552065 25.39999999999999
    vertex 34.78806258172335 15.544248965552018 -4.229949723821846e-15
  endloop
endfacet
facet normal 0.7586399240146757 -0.6515101424314181 -9.122130453609843e-16
  outer loop
    vertex 34.78806258172335 15.544248965552065 25.39999999999999
    vertex 35.63705991393145 16.30452601226039 1.8329782136561334e-14
    vertex 35.63705991393145 16.30452601226025 25.39999999999995
  endloop
endfacet
facet normal -0.0 -1.77635683940025e-15 1.0
  outer loop
    vertex 12.7 -9.023892744153272e-14 25.39999999999995
    vertex 35.25575103444791 9.38806258172329 25.39999999999997
    vertex 12.7 25.399999999999913 25.39999999999999
  endloop
endfacet
facet normal -0.0 -1.77635683940025e-15 1.0
  outer loop
    vertex 35.25575103444791 9.38806258172329 25.39999999999997
    vertex 12.7 -9.023892744153272e-14 25.39999999999995
    vertex 36.209858947814936 8.76476831133539 25.39999999999995
  endloop
endfacet
facet normal -0.0 -1.77635683940025e-15 1.0
  outer loop
    vertex 36.209858947814936 8.76476831133539 25.39999999999995
    vertex 12.7 -9.023892744153272e-14 25.39999999999995
    vertex 37.29277685028257 8.409653577252083 25.39999999999995
  endloop
endfacet
facet normal -0.0 -1.77635683940025e-15 1.0
  outer loop
    vertex 37.29277685028257 8.409653577252083 25.39999999999995
    vertex 12.7 -9.023892744153272e-14 25.39999999999995
    vertex 63.5 -9.023892744153272e-14 25.39999999999995
  endloop
endfacet
facet normal -0.0 -1.77635683940025e-15 1.0
  outer loop
    vertex 12.7 25.399999999999913 25.39999999999999
    vertex 35.25575103444791 9.38806258172329 25.39999999999997
    vertex 34.495473987739565 10.237059913931478 25.39999999999997
  endloop
endfacet
facet normal -0.0 -1.77635683940025e-15 1.0
  outer loop
    vertex 12.7 25.399999999999913 25.39999999999999
    vertex 34.495473987739565 10.237059913931478 25.39999999999997
    vertex 33.98083943200593 11.253902542804193 25.400000000000016
  endloop
endfacet
facet normal -0.0 -1.77635683940025e-15 1.0
  outer loop
    vertex 12.7 25.399999999999913 25.39999999999999
    vertex 33.98083943200593 11.253902542804193 25.400000000000016
    vertex 33.746918861746394 12.369294323595822 25.39999999999999
  endloop
endfacet
facet normal -0.0 -1.77635683940025e-15 1.0
  outer loop
    vertex 37.29277685028257 8.409653577252083 25.39999999999995
    vertex 63.5 -9.023892744153272e-14 25.39999999999995
    vertex 38.43070567640413 8.34691886174635 25.39999999999997
  endloop
endfacet
facet normal -0.0 -1.77635683940025e-15 1.0
  outer loop
    vertex 38.43070567640413 8.34691886174635 25.39999999999997
    vertex 63.5 -9.023892744153272e-14 25.39999999999995
    vertex 39.546097457195756 8.580839432005865 25.39999999999999
  endloop
endfacet
facet normal -0.0 -1.77635683940025e-15 1.0
  outer loop
    vertex 39.546097457195756 8.580839432005865 25.39999999999999
    vertex 63.5 -9.023892744153272e-14 25.39999999999995
    vertex 40.56294008606847 9.095473987739476 25.399999999999924
  endloop
endfacet
facet normal -0.0 -1.77635683940025e-15 1.0
  outer loop
    vertex 40.56294008606847 9.095473987739476 25.399999999999924
    vertex 63.5 -9.023892744153272e-14 25.39999999999995
    vertex 41.411937418276615 9.855751034447845 25.39999999999999
  endloop
endfacet
facet normal -0.0 -1.77635683940025e-15 1.0
  outer loop
    vertex 41.411937418276615 9.855751034447845 25.39999999999999
    vertex 63.5 -9.023892744153272e-14 25.39999999999995
    vertex 42.03523168866452 10.809858947814915 25.39999999999999
  endloop
endfacet
facet normal -0.0 -1.77635683940025e-15 1.0
  outer loop
    vertex 42.03523168866452 10.809858947814915 25.39999999999999
    vertex 63.5 -9.023892744153272e-14 25.39999999999995
    vertex 42.39034642274787 11.892776850282619 25.40000000000006
  endloop
endfacet
facet normal -0.0 -1.77635683940025e-15 1.0
  outer loop
    vertex 42.39034642274787 11.892776850282619 25.40000000000006
    vertex 63.5 -9.023892744153272e-14 25.39999999999995
    vertex 42.45308113825356 13.03070567640413 25.39999999999997
  endloop
endfacet
facet normal -0.0 -1.77635683940025e-15 1.0
  outer loop
    vertex 12.7 25.399999999999913 25.39999999999999
    vertex 36.65390254280419 16.819160567994043 25.40000000000006
    vertex 63.5 25.399999999999913 25.39999999999999
  endloop
endfacet
facet normal -0.0 -1.77635683940025e-15 1.0
  outer loop
    vertex 36.65390254280419 16.819160567994043 25.40000000000006
    vertex 12.7 25.399999999999913 25.39999999999999
    vertex 35.63705991393145 16.30452601226025 25.39999999999995
  endloop
endfacet
facet normal -0.0 -1.77635683940025e-15 1.0
  outer loop
    vertex 35.63705991393145 16.30452601226025 25.39999999999995
    vertex 12.7 25.399999999999913 25.39999999999999
    vertex 34.78806258172335 15.544248965552065 25.39999999999999
  endloop
endfacet
facet normal -0.0 -1.77635683940025e-15 1.0
  outer loop
    vertex 34.78806258172335 15.544248965552065 25.39999999999999
    vertex 12.7 25.399999999999913 25.39999999999999
    vertex 34.164768311335386 14.590141052184993 25.39999999999997
  endloop
endfacet
facet normal -0.0 -1.77635683940025e-15 1.0
  outer loop
    vertex 34.164768311335386 14.590141052184993 25.39999999999997
    vertex 12.7 25.399999999999913 25.39999999999999
    vertex 33.80965357725211 13.507223149717424 25.400000000000016
  endloop
endfacet
facet normal -0.0 -1.77635683940025e-15 1.0
  outer loop
    vertex 33.80965357725211 13.507223149717424 25.400000000000016
    vertex 12.7 25.399999999999913 25.39999999999999
    vertex 33.746918861746394 12.369294323595822 25.39999999999999
  endloop
endfacet
facet normal -0.0 -1.77635683940025e-15 1.0
  outer loop
    vertex 63.5 25.399999999999913 25.39999999999999
    vertex 36.65390254280419 16.819160567994043 25.40000000000006
    vertex 37.76929432359578 17.053081138253606 25.400000000000038
  endloop
endfacet
facet normal -0.0 -1.77635683940025e-15 1.0
  outer loop
    vertex 63.5 25.399999999999913 25.39999999999999
    vertex 37.76929432359578 17.053081138253606 25.400000000000038
    vertex 38.907223149717375 16.990346422747827 25.39999999999997
  endloop
endfacet
facet normal -0.0 -1.77635683940025e-15 1.0
  outer loop
    vertex 63.5 25.399999999999913 25.39999999999999
    vertex 38.907223149717375 16.990346422747827 25.39999999999997
    vertex 39.990141052184995 16.63523168866452 25.39999999999997
  endloop
endfacet
facet normal -0.0 -1.77635683940025e-15 1.0
  outer loop
    vertex 63.5 25.399999999999913 25.39999999999999
    vertex 39.990141052184995 16.63523168866452 25.39999999999997
    vertex 40.94424896555202 16.011937418276663 25.400000000000016
  endloop
endfacet
facet normal -0.0 -1.77635683940025e-15 1.0
  outer loop
    vertex 63.5 25.399999999999913 25.39999999999999
    vertex 40.94424896555202 16.011937418276663 25.400000000000016
    vertex 41.70452601226034 15.16294008606843 25.39999999999995
  endloop
endfacet
facet normal -0.0 -1.77635683940025e-15 1.0
  outer loop
    vertex 63.5 25.399999999999913 25.39999999999999
    vertex 41.70452601226034 15.16294008606843 25.39999999999995
    vertex 42.219160567994045 14.146097457195717 25.39999999999995
  endloop
endfacet
facet normal -0.0 -1.77635683940025e-15 1.0
  outer loop
    vertex 63.5 25.399999999999913 25.39999999999999
    vertex 42.219160567994045 14.146097457195717 25.39999999999995
    vertex 42.45308113825356 13.03070567640413 25.39999999999997
  endloop
endfacet
facet normal -0.0 -1.77635683940025e-15 1.0
  outer loop
    vertex 63.5 25.399999999999913 25.39999999999999
    vertex 42.45308113825356 13.03070567640413 25.39999999999997
    vertex 63.5 -9.023892744153272e-14 25.39999999999995
  endloop
endfacet
facet normal -0.6515101424313987 -0.7586399240146925 2.3971600040439803e-15
  outer loop
    vertex 40.94424896555202 16.011937418276663 25.400000000000016
    vertex 41.70452601226034 15.16294008606843 -4.934941344458821e-14
    vertex 41.70452601226034 15.16294008606843 25.39999999999995
  endloop
endfacet
facet normal -0.8256609333738854 -0.5641666625210715 1.3014909865001543e-15
  outer loop
    vertex 41.70452601226034 15.16294008606843 -4.934941344458821e-14
    vertex 40.94424896555202 16.011937418276663 25.400000000000016
    vertex 40.94424896555202 16.011937418276528 -2.6789681584205025e-14
  endloop
endfacet
facet normal 0.07575219502456497 -0.9971266744746928 1.7711052498146429e-15
  outer loop
    vertex 37.76929432359578 17.053081138253606 25.400000000000038
    vertex 36.65390254280419 16.819160567994 6.34492458573277e-14
    vertex 37.76929432359578 17.05308113825356 4.088951399694451e-14
  endloop
endfacet
facet normal 0.33124637530615075 -0.943544296176145 7.739618398136197e-17
  outer loop
    vertex 36.65390254280419 16.819160567994 6.34492458573277e-14
    vertex 37.76929432359578 17.053081138253606 25.400000000000038
    vertex 36.65390254280419 16.819160567994043 25.40000000000006
  endloop
endfacet
facet normal -0.9435442961761507 -0.33124637530613454 4.0427032063584787e-16
  outer loop
    vertex 42.219160567994045 14.146097457195717 25.39999999999995
    vertex 42.45308113825356 13.03070567640422 1.8329782136561334e-14
    vertex 42.45308113825356 13.03070567640413 25.39999999999997
  endloop
endfacet
facet normal -0.9971266744746907 -0.07575219502459403 4.9353772661348324e-17
  outer loop
    vertex 42.45308113825356 13.03070567640422 1.8329782136561334e-14
    vertex 42.219160567994045 14.146097457195717 25.39999999999995
    vertex 42.219160567994045 14.146097457195626 -9.446887716535457e-14
  endloop
endfacet
facet normal 1.0 -0.0 -0.0
  outer loop
    vertex 63.5 0.0 6.349999999999995
    vertex 63.5 25.399999999999913 25.39999999999999
    vertex 63.5 -9.023892744153272e-14 25.39999999999995
  endloop
endfacet
facet normal 1.0 -0.0 -0.0
  outer loop
    vertex 63.5 25.399999999999913 25.39999999999999
    vertex 63.5 0.0 6.349999999999995
    vertex 63.5 25.399999999999913 6.34999999999995
  endloop
endfacet
facet normal -0.9827565177375166 0.18490437216147776 2.2511256413169164e-16
  outer loop
    vertex 42.39034642274787 11.892776850282619 25.40000000000006
    vertex 42.03523168866452 10.809858947815005 4.088951399694451e-14
    vertex 42.03523168866452 10.809858947814915 25.39999999999999
  endloop
endfacet
facet normal -0.9014131283984688 0.43296001195362804 1.1556814519783038e-15
  outer loop
    vertex 42.03523168866452 10.809858947815005 4.088951399694451e-14
    vertex 42.39034642274787 11.892776850282619 25.40000000000006
    vertex 42.206212418596365 11.331262527134529 -4.229949723821846e-15
  endloop
endfacet
facet normal -0.9502140358693919 0.3115979557647998 3.485600168035868e-16
  outer loop
    vertex 42.206212418596365 11.331262527134529 -4.229949723821846e-15
    vertex 42.39034642274787 11.892776850282619 25.40000000000006
    vertex 42.39034642274787 11.892776850282619 4.088951399694451e-14
  endloop
endfacet
facet normal -0.9435442961761507 -0.33124637530613454 4.0427032063584787e-16
  outer loop
    vertex 42.219160567994045 14.146097457195717 25.39999999999995
    vertex 41.70452601226034 15.16294008606843 -4.934941344458821e-14
    vertex 42.219160567994045 14.146097457195626 -9.446887716535457e-14
  endloop
endfacet
facet normal -0.8256609333738854 -0.5641666625210715 1.3014909865001543e-15
  outer loop
    vertex 41.70452601226034 15.16294008606843 -4.934941344458821e-14
    vertex 42.219160567994045 14.146097457195717 25.39999999999995
    vertex 41.70452601226034 15.16294008606843 25.39999999999995
  endloop
endfacet
facet normal -0.9971266744746914 -0.07575219502458434 4.9353772661351954e-17
  outer loop
    vertex 42.45308113825356 13.03070567640413 25.39999999999997
    vertex 42.39034642274787 11.892776850282619 4.088951399694451e-14
    vertex 42.39034642274787 11.892776850282619 25.40000000000006
  endloop
endfacet
facet normal -0.9827565177375164 0.18490437216147929 2.251125641316931e-16
  outer loop
    vertex 42.39034642274787 11.892776850282619 4.088951399694451e-14
    vertex 42.45308113825356 13.03070567640413 25.39999999999997
    vertex 42.45308113825356 13.03070567640422 1.8329782136561334e-14
  endloop
endfacet
facet normal -0.4329600119536291 -0.9014131283984681 2.3510376222051704e-15
  outer loop
    vertex 39.990141052184995 16.635231688664472 -2.6789681584205025e-14
    vertex 38.907223149717375 16.990346422747827 25.39999999999997
    vertex 38.907223149717375 16.99034642274778 -4.934941344458821e-14
  endloop
endfacet
facet normal -0.18490437216149996 -0.9827565177375125 1.7455765576027173e-15
  outer loop
    vertex 38.907223149717375 16.990346422747827 25.39999999999997
    vertex 39.990141052184995 16.635231688664472 -2.6789681584205025e-14
    vertex 39.990141052184995 16.63523168866452 25.39999999999997
  endloop
endfacet
facet normal 0.18490437216148017 0.9827565177375162 1.8572792182654943e-19
  outer loop
    vertex 37.29277685028257 8.409653577252083 25.39999999999995
    vertex 38.43070567640413 8.34691886174635 -2.6789681584205025e-14
    vertex 37.29277685028257 8.409653577252083 -7.190914530497138e-14
  endloop
endfacet
facet normal -0.07575219502457377 0.9971266744746924 8.768586479029375e-16
  outer loop
    vertex 38.43070567640413 8.34691886174635 -2.6789681584205025e-14
    vertex 37.29277685028257 8.409653577252083 25.39999999999995
    vertex 38.43070567640413 8.34691886174635 25.39999999999997
  endloop
endfacet
facet normal -0.901413128398468 0.4329600119536295 1.1556814519783127e-15
  outer loop
    vertex 42.03523168866452 10.809858947814915 25.39999999999999
    vertex 41.411937418276615 9.855751034447934 4.088951399694451e-14
    vertex 41.411937418276615 9.855751034447845 25.39999999999999
  endloop
endfacet
facet normal -0.7586399240147161 0.6515101424313713 1.980405535393588e-15
  outer loop
    vertex 41.411937418276615 9.855751034447934 4.088951399694451e-14
    vertex 42.03523168866452 10.809858947814915 25.39999999999999
    vertex 42.03523168866452 10.809858947815005 4.088951399694451e-14
  endloop
endfacet
facet normal -0.564166662521068 0.8256609333738876 2.1996615644347607e-15
  outer loop
    vertex 40.56294008606847 9.095473987739476 25.399999999999924
    vertex 41.411937418276615 9.855751034447934 4.088951399694451e-14
    vertex 40.56294008606847 9.09547398773952 -2.6789681584205025e-14
  endloop
endfacet
facet normal -0.7586399240147161 0.6515101424313713 1.980405535393588e-15
  outer loop
    vertex 41.411937418276615 9.855751034447934 4.088951399694451e-14
    vertex 40.56294008606847 9.095473987739476 25.399999999999924
    vertex 41.411937418276615 9.855751034447845 25.39999999999999
  endloop
endfacet
facet normal 0.4329600119536262 0.9014131283984695 -3.7824041741283267e-19
  outer loop
    vertex 36.209858947814936 8.76476831133539 -4.229949723821846e-15
    vertex 37.29277685028257 8.409653577252083 25.39999999999995
    vertex 37.29277685028257 8.409653577252083 -7.190914530497138e-14
  endloop
endfacet
facet normal 0.18490437216148017 0.9827565177375162 1.8572792182654943e-19
  outer loop
    vertex 37.29277685028257 8.409653577252083 25.39999999999995
    vertex 36.209858947814936 8.76476831133539 -4.229949723821846e-15
    vertex 36.209858947814936 8.76476831133539 25.39999999999995
  endloop
endfacet
facet normal 0.9502140358694073 -0.31159795576475247 4.2009350131713194e-17
  outer loop
    vertex 33.99378758140359 14.068737472865426 -4.229949723821846e-15
    vertex 33.80965357725211 13.507223149717424 25.400000000000016
    vertex 33.80965357725211 13.50722314971738 -4.229949723821846e-15
  endloop
endfacet
facet normal 0.9827565177375198 -0.18490437216145988 9.511724831014807e-17
  outer loop
    vertex 33.80965357725211 13.507223149717424 25.400000000000016
    vertex 33.99378758140359 14.068737472865426 -4.229949723821846e-15
    vertex 34.164768311335386 14.590141052184993 25.39999999999997
  endloop
endfacet
facet normal 0.9014131283984604 -0.432960011953645 -2.2370019561532367e-16
  outer loop
    vertex 34.164768311335386 14.590141052184993 25.39999999999997
    vertex 33.99378758140359 14.068737472865426 -4.229949723821846e-15
    vertex 34.164768311335386 14.590141052185084 4.088951399694451e-14
  endloop
endfacet
facet normal 0.9014131283984607 -0.4329600119536446 -2.2370019561532283e-16
  outer loop
    vertex 34.164768311335386 14.590141052185084 4.088951399694451e-14
    vertex 34.78806258172335 15.544248965552065 25.39999999999999
    vertex 34.164768311335386 14.590141052184993 25.39999999999997
  endloop
endfacet
facet normal 0.7586399240146757 -0.6515101424314181 -9.122130453609843e-16
  outer loop
    vertex 34.78806258172335 15.544248965552065 25.39999999999999
    vertex 34.164768311335386 14.590141052185084 4.088951399694451e-14
    vertex 34.78806258172335 15.544248965552018 -4.229949723821846e-15
  endloop
endfacet
facet normal 0.9971266744746918 0.0757521950245812 -2.0204857632814455e-16
  outer loop
    vertex 33.746918861746394 12.369294323595733 -2.6789681584205025e-14
    vertex 33.98083943200593 11.253902542804193 25.400000000000016
    vertex 33.98083943200593 11.253902542804147 -2.6789681584205025e-14
  endloop
endfacet
facet normal 0.9435442961761552 0.3312463753061213 -4.785901766453827e-16
  outer loop
    vertex 33.98083943200593 11.253902542804193 25.400000000000016
    vertex 33.746918861746394 12.369294323595733 -2.6789681584205025e-14
    vertex 33.746918861746394 12.369294323595822 25.39999999999999
  endloop
endfacet
facet normal 0.44721359549995476 -3.9720546451955963e-16 0.8944271909999174
  outer loop
    vertex 76.19999999999999 0.0 -4.229949723821846e-15
    vertex 63.5 25.399999999999913 6.34999999999995
    vertex 63.5 0.0 6.349999999999995
  endloop
endfacet
facet normal 0.44721359549995476 -3.9720546451955963e-16 0.8944271909999174
  outer loop
    vertex 63.5 25.399999999999913 6.34999999999995
    vertex 76.19999999999999 0.0 -4.229949723821846e-15
    vertex 76.19999999999999 25.40000000000005 6.34492458573277e-14
  endloop
endfacet
facet normal 0.8256609333738905 0.564166662521064 -2.028334894384222e-16
  outer loop
    vertex 34.495473987739565 10.237059913931478 4.088951399694451e-14
    vertex 35.25575103444791 9.38806258172329 25.39999999999997
    vertex 35.25575103444791 9.38806258172329 -4.934941344458821e-14
  endloop
endfacet
facet normal 0.6515101424313997 0.7586399240146918 -7.256615180705286e-19
  outer loop
    vertex 35.25575103444791 9.38806258172329 25.39999999999997
    vertex 34.495473987739565 10.237059913931478 4.088951399694451e-14
    vertex 34.495473987739565 10.237059913931478 25.39999999999997
  endloop
endfacet
facet normal 0.0 -1.0 -3.825999346400547e-15
  outer loop
    vertex 63.5 0.0 6.349999999999995
    vertex 0.0 0.0 -4.229949723821846e-15
    vertex 76.19999999999999 0.0 -4.229949723821846e-15
  endloop
endfacet
facet normal 0.0 -1.0 -3.825999346400547e-15
  outer loop
    vertex 0.0 0.0 -4.229949723821846e-15
    vertex 63.5 0.0 6.349999999999995
    vertex 12.7 0.0 6.349999999999995
  endloop
endfacet
facet normal 0.0 -1.0 -3.825999346400547e-15
  outer loop
    vertex 12.7 0.0 6.349999999999995
    vertex 63.5 0.0 6.349999999999995
    vertex 63.5 -9.023892744153272e-14 25.39999999999995
  endloop
endfacet
facet normal 0.0 -1.0 -3.825999346400547e-15
  outer loop
    vertex 12.7 0.0 6.349999999999995
    vertex 63.5 -9.023892744153272e-14 25.39999999999995
    vertex 12.7 -9.023892744153272e-14 25.39999999999995
  endloop
endfacet
facet normal -0.44721359549995476 -3.9720546451955963e-16 0.8944271909999174
  outer loop
    vertex 12.7 0.0 6.349999999999995
    vertex 0.0 25.40000000000005 6.34492458573277e-14
    vertex 0.0 0.0 -4.229949723821846e-15
  endloop
endfacet
facet normal -0.44721359549995476 -3.9720546451955963e-16 0.8944271909999174
  outer loop
    vertex 0.0 25.40000000000005 6.34492458573277e-14
    vertex 12.7 0.0 6.349999999999995
    vertex 12.7 25.399999999999913 6.34999999999995
  endloop
endfacet
facet normal -0.07575219502457788 0.9971266744746919 8.768586479029648e-16
  outer loop
    vertex 38.43070567640413 8.34691886174635 25.39999999999997
    vertex 39.546097457195756 8.580839432005954 -4.229949723821846e-15
    vertex 38.43070567640413 8.34691886174635 -2.6789681584205025e-14
  endloop
endfacet
facet normal -0.33124637530610873 0.9435442961761598 2.0759507445247425e-15
  outer loop
    vertex 39.546097457195756 8.580839432005954 -4.229949723821846e-15
    vertex 38.43070567640413 8.34691886174635 25.39999999999997
    vertex 39.546097457195756 8.580839432005865 25.39999999999999
  endloop
endfacet
facet normal -0.0 1.0 4.099285014000567e-15
  outer loop
    vertex 12.7 25.399999999999913 6.34999999999995
    vertex 76.19999999999999 25.40000000000005 6.34492458573277e-14
    vertex 0.0 25.40000000000005 6.34492458573277e-14
  endloop
endfacet
facet normal -0.0 1.0 4.099285014000567e-15
  outer loop
    vertex 76.19999999999999 25.40000000000005 6.34492458573277e-14
    vertex 12.7 25.399999999999913 6.34999999999995
    vertex 63.5 25.399999999999913 6.34999999999995
  endloop
endfacet
facet normal -0.0 1.0 4.099285014000567e-15
  outer loop
    vertex 63.5 25.399999999999913 6.34999999999995
    vertex 12.7 25.399999999999913 6.34999999999995
    vertex 12.7 25.399999999999913 25.39999999999999
  endloop
endfacet
facet normal -0.0 1.0 4.099285014000567e-15
  outer loop
    vertex 63.5 25.399999999999913 6.34999999999995
    vertex 12.7 25.399999999999913 25.39999999999999
    vertex 63.5 25.399999999999913 25.39999999999999
  endloop
endfacet
facet normal 0.6515101424313997 0.7586399240146918 -7.256615180705286e-19
  outer loop
    vertex 35.25575103444791 9.38806258172329 25.39999999999997
    vertex 36.209858947814936 8.76476831133539 -4.229949723821846e-15
    vertex 35.25575103444791 9.38806258172329 -4.934941344458821e-14
  endloop
endfacet
facet normal 0.4329600119536262 0.9014131283984695 -3.7824041741283267e-19
  outer loop
    vertex 36.209858947814936 8.76476831133539 -4.229949723821846e-15
    vertex 35.25575103444791 9.38806258172329 25.39999999999997
    vertex 36.209858947814936 8.76476831133539 25.39999999999995
  endloop
endfacet
facet normal 0.98275651773752 -0.1849043721614596 9.51172483101482e-17
  outer loop
    vertex 33.80965357725211 13.50722314971738 -4.229949723821846e-15
    vertex 33.746918861746394 12.369294323595822 25.39999999999999
    vertex 33.746918861746394 12.369294323595733 -2.6789681584205025e-14
  endloop
endfacet
facet normal 0.9971266744746918 0.07575219502457976 -2.020485763281407e-16
  outer loop
    vertex 33.746918861746394 12.369294323595822 25.39999999999999
    vertex 33.80965357725211 13.50722314971738 -4.229949723821846e-15
    vertex 33.80965357725211 13.507223149717424 25.400000000000016
  endloop
endfacet
facet normal 0.9435442961761557 0.33124637530612 -4.785901766453835e-16
  outer loop
    vertex 33.98083943200593 11.253902542804147 -2.6789681584205025e-14
    vertex 34.495473987739565 10.237059913931478 25.39999999999997
    vertex 34.495473987739565 10.237059913931478 4.088951399694451e-14
  endloop
endfacet
facet normal 0.8256609333738918 0.564166662521062 -2.0283348943842602e-16
  outer loop
    vertex 34.495473987739565 10.237059913931478 25.39999999999997
    vertex 33.98083943200593 11.253902542804147 -2.6789681584205025e-14
    vertex 33.98083943200593 11.253902542804193 25.400000000000016
  endloop
endfacet
facet normal 0.33124637530615075 -0.943544296176145 7.739618398136197e-17
  outer loop
    vertex 36.65390254280419 16.819160567994 6.34492458573277e-14
    vertex 35.63705991393145 16.30452601226025 25.39999999999995
    vertex 35.63705991393145 16.30452601226039 1.8329782136561334e-14
  endloop
endfacet
facet normal 0.5641666625210795 -0.8256609333738798 -1.4665827906766e-15
  outer loop
    vertex 35.63705991393145 16.30452601226025 25.39999999999995
    vertex 36.65390254280419 16.819160567994 6.34492458573277e-14
    vertex 36.65390254280419 16.819160567994043 25.40000000000006
  endloop
endfacet
facet normal -0.18490437216149996 -0.9827565177375125 1.7455765576027173e-15
  outer loop
    vertex 38.907223149717375 16.990346422747827 25.39999999999997
    vertex 37.76929432359578 17.05308113825356 4.088951399694451e-14
    vertex 38.907223149717375 16.99034642274778 -4.934941344458821e-14
  endloop
endfacet
facet normal 0.07575219502455756 -0.9971266744746935 1.7711052498146445e-15
  outer loop
    vertex 37.76929432359578 17.05308113825356 4.088951399694451e-14
    vertex 38.907223149717375 16.990346422747827 25.39999999999997
    vertex 37.76929432359578 17.053081138253606 25.400000000000038
  endloop
endfacet
facet normal -1.0 0.0 0.0
  outer loop
    vertex 12.7 25.399999999999913 25.39999999999999
    vertex 12.7 0.0 6.349999999999995
    vertex 12.7 -9.023892744153272e-14 25.39999999999995
  endloop
endfacet
facet normal -1.0 0.0 0.0
  outer loop
    vertex 12.7 0.0 6.349999999999995
    vertex 12.7 25.399999999999913 25.39999999999999
    vertex 12.7 25.399999999999913 6.34999999999995
  endloop
endfacet
facet normal 0.0 2.664535259100371e-15 -1.0
  outer loop
    vertex 0.0 25.40000000000005 6.34492458573277e-14
    vertex 36.65390254280419 16.819160567994 6.34492458573277e-14
    vertex 0.0 0.0 -4.229949723821846e-15
  endloop
endfacet
facet normal 0.0 2.664535259100371e-15 -1.0
  outer loop
    vertex 36.65390254280419 16.819160567994 6.34492458573277e-14
    vertex 0.0 25.40000000000005 6.34492458573277e-14
    vertex 76.19999999999999 25.40000000000005 6.34492458573277e-14
  endloop
endfacet
facet normal 0.0 2.664535259100371e-15 -1.0
  outer loop
    vertex 0.0 0.0 -4.229949723821846e-15
    vertex 36.65390254280419 16.819160567994 6.34492458573277e-14
    vertex 35.63705991393145 16.30452601226039 1.8329782136561334e-14
  endloop
endfacet
facet normal 0.0 2.664535259100371e-15 -1.0
  outer loop
    vertex 0.0 0.0 -4.229949723821846e-15
    vertex 35.63705991393145 16.30452601226039 1.8329782136561334e-14
    vertex 34.78806258172335 15.544248965552018 -4.229949723821846e-15
  endloop
endfacet
facet normal 0.0 2.664535259100371e-15 -1.0
  outer loop
    vertex 0.0 0.0 -4.229949723821846e-15
    vertex 34.78806258172335 15.544248965552018 -4.229949723821846e-15
    vertex 34.164768311335386 14.590141052185084 4.088951399694451e-14
  endloop
endfacet
facet normal 0.0 2.664535259100371e-15 -1.0
  outer loop
    vertex 0.0 0.0 -4.229949723821846e-15
    vertex 34.164768311335386 14.590141052185084 4.088951399694451e-14
    vertex 33.80965357725211 13.50722314971738 -4.229949723821846e-15
  endloop
endfacet
facet normal 0.0 2.664535259100371e-15 -1.0
  outer loop
    vertex 0.0 0.0 -4.229949723821846e-15
    vertex 33.80965357725211 13.50722314971738 -4.229949723821846e-15
    vertex 33.746918861746394 12.369294323595733 -2.6789681584205025e-14
  endloop
endfacet
facet normal 0.0 2.664535259100371e-15 -1.0
  outer loop
    vertex 33.80965357725211 13.50722314971738 -4.229949723821846e-15
    vertex 34.164768311335386 14.590141052185084 4.088951399694451e-14
    vertex 33.99378758140359 14.068737472865426 -4.229949723821846e-15
  endloop
endfacet
facet normal 0.0 2.664535259100371e-15 -1.0
  outer loop
    vertex 36.65390254280419 16.819160567994 6.34492458573277e-14
    vertex 76.19999999999999 25.40000000000005 6.34492458573277e-14
    vertex 37.76929432359578 17.05308113825356 4.088951399694451e-14
  endloop
endfacet
facet normal 0.0 2.664535259100371e-15 -1.0
  outer loop
    vertex 37.76929432359578 17.05308113825356 4.088951399694451e-14
    vertex 76.19999999999999 25.40000000000005 6.34492458573277e-14
    vertex 38.907223149717375 16.99034642274778 -4.934941344458821e-14
  endloop
endfacet
facet normal 0.0 2.664535259100371e-15 -1.0
  outer loop
    vertex 38.907223149717375 16.99034642274778 -4.934941344458821e-14
    vertex 76.19999999999999 25.40000000000005 6.34492458573277e-14
    vertex 39.990141052184995 16.635231688664472 -2.6789681584205025e-14
  endloop
endfacet
facet normal 0.0 2.664535259100371e-15 -1.0
  outer loop
    vertex 39.990141052184995 16.635231688664472 -2.6789681584205025e-14
    vertex 76.19999999999999 25.40000000000005 6.34492458573277e-14
    vertex 40.94424896555202 16.011937418276528 -2.6789681584205025e-14
  endloop
endfacet
facet normal 0.0 2.664535259100371e-15 -1.0
  outer loop
    vertex 40.94424896555202 16.011937418276528 -2.6789681584205025e-14
    vertex 76.19999999999999 25.40000000000005 6.34492458573277e-14
    vertex 41.70452601226034 15.16294008606843 -4.934941344458821e-14
  endloop
endfacet
facet normal 0.0 2.664535259100371e-15 -1.0
  outer loop
    vertex 41.70452601226034 15.16294008606843 -4.934941344458821e-14
    vertex 76.19999999999999 25.40000000000005 6.34492458573277e-14
    vertex 42.219160567994045 14.146097457195626 -9.446887716535457e-14
  endloop
endfacet
facet normal 0.0 2.664535259100371e-15 -1.0
  outer loop
    vertex 42.219160567994045 14.146097457195626 -9.446887716535457e-14
    vertex 76.19999999999999 25.40000000000005 6.34492458573277e-14
    vertex 42.45308113825356 13.03070567640422 1.8329782136561334e-14
  endloop
endfacet
facet normal 0.0 2.664535259100371e-15 -1.0
  outer loop
    vertex 0.0 0.0 -4.229949723821846e-15
    vertex 37.29277685028257 8.409653577252083 -7.190914530497138e-14
    vertex 76.19999999999999 0.0 -4.229949723821846e-15
  endloop
endfacet
facet normal 0.0 2.664535259100371e-15 -1.0
  outer loop
    vertex 37.29277685028257 8.409653577252083 -7.190914530497138e-14
    vertex 0.0 0.0 -4.229949723821846e-15
    vertex 36.209858947814936 8.76476831133539 -4.229949723821846e-15
  endloop
endfacet
facet normal 0.0 2.664535259100371e-15 -1.0
  outer loop
    vertex 36.209858947814936 8.76476831133539 -4.229949723821846e-15
    vertex 0.0 0.0 -4.229949723821846e-15
    vertex 35.25575103444791 9.38806258172329 -4.934941344458821e-14
  endloop
endfacet
facet normal 0.0 2.664535259100371e-15 -1.0
  outer loop
    vertex 35.25575103444791 9.38806258172329 -4.934941344458821e-14
    vertex 0.0 0.0 -4.229949723821846e-15
    vertex 34.495473987739565 10.237059913931478 4.088951399694451e-14
  endloop
endfacet
facet normal 0.0 2.664535259100371e-15 -1.0
  outer loop
    vertex 34.495473987739565 10.237059913931478 4.088951399694451e-14
    vertex 0.0 0.0 -4.229949723821846e-15
    vertex 33.98083943200593 11.253902542804147 -2.6789681584205025e-14
  endloop
endfacet
facet normal 0.0 2.664535259100371e-15 -1.0
  outer loop
    vertex 33.98083943200593 11.253902542804147 -2.6789681584205025e-14
    vertex 0.0 0.0 -4.229949723821846e-15
    vertex 33.746918861746394 12.369294323595733 -2.6789681584205025e-14
  endloop
endfacet
facet normal 0.0 2.664535259100371e-15 -1.0
  outer loop
    vertex 76.19999999999999 0.0 -4.229949723821846e-15
    vertex 37.29277685028257 8.409653577252083 -7.190914530497138e-14
    vertex 38.43070567640413 8.34691886174635 -2.6789681584205025e-14
  endloop
endfacet
facet normal 0.0 2.664535259100371e-15 -1.0
  outer loop
    vertex 76.19999999999999 0.0 -4.229949723821846e-15
    vertex 38.43070567640413 8.34691886174635 -2.6789681584205025e-14
    vertex 39.546097457195756 8.580839432005954 -4.229949723821846e-15
  endloop
endfacet
facet normal 0.0 2.664535259100371e-15 -1.0
  outer loop
    vertex 76.19999999999999 0.0 -4.229949723821846e-15
    vertex 39.546097457195756 8.580839432005954 -4.229949723821846e-15
    vertex 40.56294008606847 9.09547398773952 -2.6789681584205025e-14
  endloop
endfacet
facet normal 0.0 2.664535259100371e-15 -1.0
  outer loop
    vertex 76.19999999999999 0.0 -4.229949723821846e-15
    vertex 40.56294008606847 9.09547398773952 -2.6789681584205025e-14
    vertex 41.411937418276615 9.855751034447934 4.088951399694451e-14
  endloop
endfacet
facet normal 0.0 2.664535259100371e-15 -1.0
  outer loop
    vertex 76.19999999999999 0.0 -4.229949723821846e-15
    vertex 41.411937418276615 9.855751034447934 4.088951399694451e-14
    vertex 42.03523168866452 10.809858947815005 4.088951399694451e-14
  endloop
endfacet
facet normal 0.0 2.664535259100371e-15 -1.0
  outer loop
    vertex 76.19999999999999 0.0 -4.229949723821846e-15
    vertex 42.03523168866452 10.809858947815005 4.088951399694451e-14
    vertex 42.206212418596365 11.331262527134529 -4.229949723821846e-15
  endloop
endfacet
facet normal 0.0 2.664535259100371e-15 -1.0
  outer loop
    vertex 76.19999999999999 0.0 -4.229949723821846e-15
    vertex 42.206212418596365 11.331262527134529 -4.229949723821846e-15
    vertex 42.39034642274787 11.892776850282619 4.088951399694451e-14
  endloop
endfacet
facet normal 0.0 2.664535259100371e-15 -1.0
  outer loop
    vertex 76.19999999999999 0.0 -4.229949723821846e-15
    vertex 42.39034642274787 11.892776850282619 4.088951399694451e-14
    vertex 42.45308113825356 13.03070567640422 1.8329782136561334e-14
  endloop
endfacet
facet normal 0.0 2.664535259100371e-15 -1.0
  outer loop
    vertex 76.19999999999999 0.0 -4.229949723821846e-15
    vertex 42.45308113825356 13.03070567640422 1.8329782136561334e-14
    vertex 76.19999999999999 25.40000000000005 6.34492458573277e-14
  endloop
endfacet
endsolid Chassis Back Hollow Top
