solid Chassis Front
facet normal -0.9494486683584422 1.587282461077147e-16 -0.3139223250302229
  outer loop
    vertex 29.54493684280232 0.0 14.070467150210073
    vertex 29.75840454396157 -12.7 12.950981018804338
    vertex 29.54493684280232 -12.7 14.07046715021007
  endloop
endfacet
facet normal -0.9983460659038692 3.4361819212936774e-16 -0.05749028347701344
  outer loop
    vertex 29.75840454396157 -12.7 12.950981018804338
    vertex 29.54493684280232 0.0 14.070467150210073
    vertex 29.758404543961575 0.0 12.950981018804335
  endloop
endfacet
facet normal -0.9983460659038692 3.4361819212936774e-16 -0.05749028347701342
  outer loop
    vertex 29.758404543961575 0.0 12.950981018804335
    vertex 29.67485417805391 -12.7 11.81439094573283
    vertex 29.75840454396157 -12.7 12.950981018804338
  endloop
endfacet
facet normal -0.9792078289028299 2.7966281239035477e-16 0.20285962588796874
  outer loop
    vertex 29.67485417805391 -12.7 11.81439094573283
    vertex 29.758404543961575 0.0 12.950981018804335
    vertex 29.674854178053913 0.0 11.814390945732827
  endloop
endfacet
facet normal -0.9792078289028299 2.7966281239035477e-16 0.2028596258879688
  outer loop
    vertex 29.674854178053913 0.0 11.814390945732827
    vertex 29.299979564442427 -12.7 10.738153666171467
    vertex 29.67485417805391 -12.7 11.81439094573283
  endloop
endfacet
facet normal -0.89333819657951 6.190409128179675e-17 0.44938498699007395
  outer loop
    vertex 29.299979564442427 -12.7 10.738153666171467
    vertex 29.674854178053913 0.0 11.814390945732827
    vertex 29.299979564442424 0.0 10.738153666171465
  endloop
endfacet
facet normal -0.7465890424704699 4.6638098202041575e-17 0.665285503872606
  outer loop
    vertex 28.65932778853514 -12.700000000000022 9.795612972156158
    vertex 27.796558210133043 0.0 9.05100145436191
    vertex 27.796558210133043 -12.700000000000022 9.051001454361908
  endloop
endfacet
facet normal -0.5489610789137979 3.054089089236974e-17 0.8358479131024967
  outer loop
    vertex 27.796558210133043 0.0 9.05100145436191
    vertex 28.65932778853514 -12.700000000000022 9.795612972156158
    vertex 28.659327788535144 0.0 9.79561297215616
  endloop
endfacet
facet normal 0.20285962588797118 1.2435551379166488e-16 0.9792078289028292
  outer loop
    vertex 24.51439094573283 -12.7 8.425145821946087
    vertex 25.650981018804337 0.0 8.341595456038421
    vertex 24.514390945732824 0.0 8.425145821946085
  endloop
endfacet
facet normal -0.057490283477013474 8.209485264452449e-18 0.9983460659038693
  outer loop
    vertex 25.650981018804337 0.0 8.341595456038421
    vertex 24.51439094573283 -12.7 8.425145821946087
    vertex 25.650981018804337 -12.7 8.34159545603842
  endloop
endfacet
facet normal 0.4493849869900722 1.9211505062648817e-16 0.893338196579511
  outer loop
    vertex 23.438153666171463 -12.7 8.800020435557576
    vertex 22.495612972156156 0.0 9.44067221146485
    vertex 22.495612972156152 -12.7 9.440672211464856
  endloop
endfacet
facet normal 0.6652855038726044 4.606806174961449e-17 0.7465890424704711
  outer loop
    vertex 22.495612972156156 0.0 9.44067221146485
    vertex 23.438153666171463 -12.7 8.800020435557576
    vertex 23.438153666171463 0.0 8.800020435557572
  endloop
endfacet
facet normal 0.3139223250302236 -3.9067060854823006e-17 -0.949448668358442
  outer loop
    vertex 24.029532849789923 0.0 16.844936842802323
    vertex 23.00344178986697 -12.7 16.348998545638096
    vertex 23.003441789866955 0.0 16.348998545638093
  endloop
endfacet
facet normal 0.5489610789137982 9.889822359760621e-17 -0.8358479131024967
  outer loop
    vertex 23.00344178986697 -12.7 16.348998545638096
    vertex 24.029532849789923 0.0 16.844936842802323
    vertex 24.02953284978993 -12.7 16.844936842802326
  endloop
endfacet
facet normal -0.8358479131024986 4.8729866092349536e-17 -0.5489610789137953
  outer loop
    vertex 29.048998545638092 0.0 15.096558210133042
    vertex 29.54493684280232 -12.7 14.07046715021007
    vertex 29.048998545638092 -12.7 15.09655821013304
  endloop
endfacet
facet normal -0.9494486683584422 1.587282461077147e-16 -0.3139223250302228
  outer loop
    vertex 29.54493684280232 -12.7 14.07046715021007
    vertex 29.048998545638092 0.0 15.096558210133042
    vertex 29.54493684280232 0.0 14.070467150210073
  endloop
endfacet
facet normal 0.20285962588797118 1.2435551379166488e-16 0.9792078289028292
  outer loop
    vertex 24.51439094573283 -12.7 8.425145821946087
    vertex 23.438153666171463 0.0 8.800020435557572
    vertex 23.438153666171463 -12.7 8.800020435557576
  endloop
endfacet
facet normal 0.4493849869900722 1.9211505062648817e-16 0.893338196579511
  outer loop
    vertex 23.438153666171463 0.0 8.800020435557572
    vertex 24.51439094573283 -12.7 8.425145821946087
    vertex 24.514390945732824 0.0 8.425145821946085
  endloop
endfacet
facet normal -0.20285962588797243 1.057488377415075e-16 -0.9792078289028291
  outer loop
    vertex 26.285609054267173 0.0 16.974854178053914
    vertex 25.14901898119566 -12.7 17.058404543961576
    vertex 25.14901898119566 0.0 17.058404543961576
  endloop
endfacet
facet normal 0.05749028347701198 -3.4024297461549094e-17 -0.9983460659038692
  outer loop
    vertex 25.14901898119566 -12.7 17.058404543961576
    vertex 26.285609054267173 0.0 16.974854178053914
    vertex 26.285609054267173 -12.7 16.974854178053914
  endloop
endfacet
facet normal -0.6652855038726039 4.630604459121508e-17 -0.7465890424704715
  outer loop
    vertex 28.30438702784384 0.0 15.959327788535148
    vertex 27.361846333828534 -12.7 16.599979564442418
    vertex 27.361846333828534 0.0 16.599979564442425
  endloop
endfacet
facet normal -0.44938498699007173 1.5205488233272245e-16 -0.8933381965795111
  outer loop
    vertex 27.361846333828534 -12.7 16.599979564442418
    vertex 28.30438702784384 0.0 15.959327788535148
    vertex 28.30438702784384 -12.7 15.95932778853515
  endloop
endfacet
facet normal -0.5489610789137986 3.054089089236994e-17 0.8358479131024965
  outer loop
    vertex 27.796558210133043 -12.700000000000022 9.051001454361908
    vertex 26.770467150210074 0.0 8.555063157197678
    vertex 26.770467150210074 -12.7 8.55506315719768
  endloop
endfacet
facet normal -0.3139223250302251 -2.361163042268886e-19 0.9494486683584414
  outer loop
    vertex 26.770467150210074 0.0 8.555063157197678
    vertex 27.796558210133043 -12.700000000000022 9.051001454361908
    vertex 27.796558210133043 0.0 9.05100145436191
  endloop
endfacet
facet normal -0.3139223250302259 -2.3611630422689003e-19 0.9494486683584412
  outer loop
    vertex 26.770467150210074 -12.7 8.55506315719768
    vertex 25.650981018804337 0.0 8.341595456038421
    vertex 25.650981018804337 -12.7 8.34159545603842
  endloop
endfacet
facet normal -0.057490283477013474 8.209485264452449e-18 0.9983460659038693
  outer loop
    vertex 25.650981018804337 0.0 8.341595456038421
    vertex 26.770467150210074 -12.7 8.55506315719768
    vertex 26.770467150210074 0.0 8.555063157197678
  endloop
endfacet
facet normal -0.89333819657951 6.190409128179675e-17 0.44938498699007395
  outer loop
    vertex 29.299979564442427 -12.7 10.738153666171467
    vertex 28.659327788535144 0.0 9.79561297215616
    vertex 28.65932778853514 -12.700000000000022 9.795612972156158
  endloop
endfacet
facet normal -0.7465890424704703 4.663809820204147e-17 0.6652855038726054
  outer loop
    vertex 28.659327788535144 0.0 9.79561297215616
    vertex 29.299979564442427 -12.7 10.738153666171467
    vertex 29.299979564442424 0.0 10.738153666171465
  endloop
endfacet
facet normal -0.6652855038726039 4.630604459121508e-17 -0.7465890424704715
  outer loop
    vertex 28.30438702784384 0.0 15.959327788535148
    vertex 29.048998545638092 -12.7 15.09655821013304
    vertex 28.30438702784384 -12.7 15.95932778853515
  endloop
endfacet
facet normal -0.8358479131024986 4.8729866092349554e-17 -0.5489610789137953
  outer loop
    vertex 29.048998545638092 -12.7 15.09655821013304
    vertex 28.30438702784384 0.0 15.959327788535148
    vertex 29.048998545638092 0.0 15.096558210133042
  endloop
endfacet
facet normal 0.0 0.0 1.0
  outer loop
    vertex 50.8 -12.7 25.4
    vertex -1.4099832412739487e-15 0.0 25.4
    vertex -1.4099832412739487e-15 -12.7 25.4
  endloop
endfacet
facet normal 0.0 0.0 1.0
  outer loop
    vertex -1.4099832412739487e-15 0.0 25.4
    vertex 50.8 -12.7 25.4
    vertex 50.8 0.0 25.4
  endloop
endfacet
facet normal 0.0 0.0 -1.0
  outer loop
    vertex 50.8 0.0 0.0
    vertex 0.0 -12.7 0.0
    vertex 0.0 0.0 0.0
  endloop
endfacet
facet normal 0.0 0.0 -1.0
  outer loop
    vertex 0.0 -12.7 0.0
    vertex 50.8 0.0 0.0
    vertex 50.8 -12.7 0.0
  endloop
endfacet
facet normal 1.0 0.0 0.0
  outer loop
    vertex 50.8 0.0 0.0
    vertex 50.8 -12.7 25.4
    vertex 50.8 -12.7 0.0
  endloop
endfacet
facet normal 1.0 0.0 0.0
  outer loop
    vertex 50.8 -12.7 25.4
    vertex 50.8 0.0 0.0
    vertex 50.8 0.0 25.4
  endloop
endfacet
facet normal 0.0 -1.0 0.0
  outer loop
    vertex 50.8 -12.7 0.0
    vertex 26.770467150210074 -12.7 8.55506315719768
    vertex 0.0 -12.7 0.0
  endloop
endfacet
facet normal 0.0 -1.0 0.0
  outer loop
    vertex 26.770467150210074 -12.7 8.55506315719768
    vertex 50.8 -12.7 0.0
    vertex 27.796558210133043 -12.700000000000022 9.051001454361908
  endloop
endfacet
facet normal 0.0 -1.0 0.0
  outer loop
    vertex 27.796558210133043 -12.700000000000022 9.051001454361908
    vertex 50.8 -12.7 0.0
    vertex 50.8 -12.7 25.4
  endloop
endfacet
facet normal 0.0 -1.0 0.0
  outer loop
    vertex 0.0 -12.7 0.0
    vertex 26.770467150210074 -12.7 8.55506315719768
    vertex 25.650981018804337 -12.7 8.34159545603842
  endloop
endfacet
facet normal 0.0 -1.0 0.0
  outer loop
    vertex 27.796558210133043 -12.700000000000022 9.051001454361908
    vertex 50.8 -12.7 25.4
    vertex 28.65932778853514 -12.700000000000022 9.795612972156158
  endloop
endfacet
facet normal 0.0 -1.0 0.0
  outer loop
    vertex 28.65932778853514 -12.700000000000022 9.795612972156158
    vertex 50.8 -12.7 25.4
    vertex 29.299979564442427 -12.7 10.738153666171467
  endloop
endfacet
facet normal 0.0 -1.0 0.0
  outer loop
    vertex 29.299979564442427 -12.7 10.738153666171467
    vertex 50.8 -12.7 25.4
    vertex 29.67485417805391 -12.7 11.81439094573283
  endloop
endfacet
facet normal 0.0 -1.0 0.0
  outer loop
    vertex 29.67485417805391 -12.7 11.81439094573283
    vertex 50.8 -12.7 25.4
    vertex 29.75840454396157 -12.7 12.950981018804338
  endloop
endfacet
facet normal 0.0 -1.0 0.0
  outer loop
    vertex 29.75840454396157 -12.7 12.950981018804338
    vertex 50.8 -12.7 25.4
    vertex 29.54493684280232 -12.7 14.07046715021007
  endloop
endfacet
facet normal 0.0 -1.0 0.0
  outer loop
    vertex 29.54493684280232 -12.7 14.07046715021007
    vertex 50.8 -12.7 25.4
    vertex 29.048998545638092 -12.7 15.09655821013304
  endloop
endfacet
facet normal 0.0 -1.0 0.0
  outer loop
    vertex 29.048998545638092 -12.7 15.09655821013304
    vertex 50.8 -12.7 25.4
    vertex 28.30438702784384 -12.7 15.95932778853515
  endloop
endfacet
facet normal 0.0 -1.0 0.0
  outer loop
    vertex 28.30438702784384 -12.7 15.95932778853515
    vertex 50.8 -12.7 25.4
    vertex 27.361846333828534 -12.7 16.599979564442418
  endloop
endfacet
facet normal 0.0 -1.0 0.0
  outer loop
    vertex 27.361846333828534 -12.7 16.599979564442418
    vertex 50.8 -12.7 25.4
    vertex 26.285609054267173 -12.7 16.974854178053914
  endloop
endfacet
facet normal 0.0 -1.0 0.0
  outer loop
    vertex 26.285609054267173 -12.7 16.974854178053914
    vertex 50.8 -12.7 25.4
    vertex 25.14901898119566 -12.7 17.058404543961576
  endloop
endfacet
facet normal 0.0 -1.0 0.0
  outer loop
    vertex 0.0 -12.7 0.0
    vertex 22.495612972156152 -12.7 9.440672211464856
    vertex -1.4099832412739487e-15 -12.7 25.4
  endloop
endfacet
facet normal 0.0 -1.0 0.0
  outer loop
    vertex 22.495612972156152 -12.7 9.440672211464856
    vertex 0.0 -12.7 0.0
    vertex 23.438153666171463 -12.7 8.800020435557576
  endloop
endfacet
facet normal 0.0 -1.0 0.0
  outer loop
    vertex 23.438153666171463 -12.7 8.800020435557576
    vertex 0.0 -12.7 0.0
    vertex 24.51439094573283 -12.7 8.425145821946087
  endloop
endfacet
facet normal 0.0 -1.0 0.0
  outer loop
    vertex 24.51439094573283 -12.7 8.425145821946087
    vertex 0.0 -12.7 0.0
    vertex 25.650981018804337 -12.7 8.34159545603842
  endloop
endfacet
facet normal 0.0 -1.0 0.0
  outer loop
    vertex -1.4099832412739487e-15 -12.7 25.4
    vertex 22.495612972156152 -12.7 9.440672211464856
    vertex 21.751001454361905 -12.7 10.303441789866952
  endloop
endfacet
facet normal 0.0 -1.0 0.0
  outer loop
    vertex -1.4099832412739487e-15 -12.7 25.4
    vertex 21.751001454361905 -12.7 10.303441789866952
    vertex 21.25506315719768 -12.7 11.329532849789926
  endloop
endfacet
facet normal 0.0 -1.0 0.0
  outer loop
    vertex -1.4099832412739487e-15 -12.7 25.4
    vertex 21.25506315719768 -12.7 11.329532849789926
    vertex 21.041595456038422 -12.700000000000022 12.449018981195664
  endloop
endfacet
facet normal 0.0 -1.0 0.0
  outer loop
    vertex -1.4099832412739487e-15 -12.7 25.4
    vertex 21.041595456038422 -12.700000000000022 12.449018981195664
    vertex 21.125145821946084 -12.7 13.58560905426717
  endloop
endfacet
facet normal 0.0 -1.0 0.0
  outer loop
    vertex -1.4099832412739487e-15 -12.7 25.4
    vertex 21.125145821946084 -12.7 13.58560905426717
    vertex 21.500020435557573 -12.7 14.661846333828528
  endloop
endfacet
facet normal 0.0 -1.0 0.0
  outer loop
    vertex -1.4099832412739487e-15 -12.7 25.4
    vertex 21.500020435557573 -12.7 14.661846333828528
    vertex 22.140672211464853 -12.7 15.604387027843835
  endloop
endfacet
facet normal 0.0 -1.0 0.0
  outer loop
    vertex -1.4099832412739487e-15 -12.7 25.4
    vertex 22.140672211464853 -12.7 15.604387027843835
    vertex 23.00344178986697 -12.7 16.348998545638096
  endloop
endfacet
facet normal 0.0 -1.0 0.0
  outer loop
    vertex -1.4099832412739487e-15 -12.7 25.4
    vertex 23.00344178986697 -12.7 16.348998545638096
    vertex 24.02953284978993 -12.7 16.844936842802326
  endloop
endfacet
facet normal 0.0 -1.0 0.0
  outer loop
    vertex -1.4099832412739487e-15 -12.7 25.4
    vertex 24.02953284978993 -12.7 16.844936842802326
    vertex 25.14901898119566 -12.7 17.058404543961576
  endloop
endfacet
facet normal 0.0 -1.0 0.0
  outer loop
    vertex -1.4099832412739487e-15 -12.7 25.4
    vertex 25.14901898119566 -12.7 17.058404543961576
    vertex 50.8 -12.7 25.4
  endloop
endfacet
facet normal 0.6652855038726044 4.606806174961449e-17 0.7465890424704711
  outer loop
    vertex 22.495612972156156 0.0 9.44067221146485
    vertex 21.751001454361905 -12.7 10.303441789866952
    vertex 22.495612972156152 -12.7 9.440672211464856
  endloop
endfacet
facet normal 0.8358479131024981 -4.2083426872748576e-17 0.5489610789137961
  outer loop
    vertex 21.751001454361905 -12.7 10.303441789866952
    vertex 22.495612972156156 0.0 9.44067221146485
    vertex 21.751001454361905 0.0 10.303441789866953
  endloop
endfacet
facet normal 0.0 1.0 0.0
  outer loop
    vertex 0.0 0.0 0.0
    vertex 24.514390945732824 0.0 8.425145821946085
    vertex 50.8 0.0 0.0
  endloop
endfacet
facet normal 0.0 1.0 0.0
  outer loop
    vertex 24.514390945732824 0.0 8.425145821946085
    vertex 0.0 0.0 0.0
    vertex 23.438153666171463 0.0 8.800020435557572
  endloop
endfacet
facet normal 0.0 1.0 0.0
  outer loop
    vertex 23.438153666171463 0.0 8.800020435557572
    vertex 0.0 0.0 0.0
    vertex 22.495612972156156 0.0 9.44067221146485
  endloop
endfacet
facet normal 0.0 1.0 0.0
  outer loop
    vertex 22.495612972156156 0.0 9.44067221146485
    vertex 0.0 0.0 0.0
    vertex -1.4099832412739487e-15 0.0 25.4
  endloop
endfacet
facet normal 0.0 1.0 0.0
  outer loop
    vertex 50.8 0.0 0.0
    vertex 24.514390945732824 0.0 8.425145821946085
    vertex 25.650981018804337 0.0 8.341595456038421
  endloop
endfacet
facet normal 0.0 1.0 0.0
  outer loop
    vertex 22.495612972156156 0.0 9.44067221146485
    vertex -1.4099832412739487e-15 0.0 25.4
    vertex 21.751001454361905 0.0 10.303441789866953
  endloop
endfacet
facet normal 0.0 1.0 0.0
  outer loop
    vertex 21.751001454361905 0.0 10.303441789866953
    vertex -1.4099832412739487e-15 0.0 25.4
    vertex 21.25506315719768 0.0 11.329532849789926
  endloop
endfacet
facet normal 0.0 1.0 0.0
  outer loop
    vertex 21.25506315719768 0.0 11.329532849789926
    vertex -1.4099832412739487e-15 0.0 25.4
    vertex 21.041595456038422 0.0 12.449018981195662
  endloop
endfacet
facet normal 0.0 1.0 0.0
  outer loop
    vertex 21.041595456038422 0.0 12.449018981195662
    vertex -1.4099832412739487e-15 0.0 25.4
    vertex 21.125145821946084 0.0 13.58560905426717
  endloop
endfacet
facet normal 0.0 1.0 0.0
  outer loop
    vertex 21.125145821946084 0.0 13.58560905426717
    vertex -1.4099832412739487e-15 0.0 25.4
    vertex 21.500020435557573 0.0 14.661846333828532
  endloop
endfacet
facet normal 0.0 1.0 0.0
  outer loop
    vertex 21.500020435557573 0.0 14.661846333828532
    vertex -1.4099832412739487e-15 0.0 25.4
    vertex 22.140672211464853 0.0 15.604387027843838
  endloop
endfacet
facet normal 0.0 1.0 0.0
  outer loop
    vertex 22.140672211464853 0.0 15.604387027843838
    vertex -1.4099832412739487e-15 0.0 25.4
    vertex 23.003441789866955 0.0 16.348998545638093
  endloop
endfacet
facet normal 0.0 1.0 0.0
  outer loop
    vertex 23.003441789866955 0.0 16.348998545638093
    vertex -1.4099832412739487e-15 0.0 25.4
    vertex 24.029532849789923 0.0 16.844936842802323
  endloop
endfacet
facet normal 0.0 1.0 0.0
  outer loop
    vertex 24.029532849789923 0.0 16.844936842802323
    vertex -1.4099832412739487e-15 0.0 25.4
    vertex 25.14901898119566 0.0 17.058404543961576
  endloop
endfacet
facet normal 0.0 1.0 0.0
  outer loop
    vertex 50.8 0.0 0.0
    vertex 27.796558210133043 0.0 9.05100145436191
    vertex 50.8 0.0 25.4
  endloop
endfacet
facet normal 0.0 1.0 0.0
  outer loop
    vertex 27.796558210133043 0.0 9.05100145436191
    vertex 50.8 0.0 0.0
    vertex 26.770467150210074 0.0 8.555063157197678
  endloop
endfacet
facet normal 0.0 1.0 0.0
  outer loop
    vertex 26.770467150210074 0.0 8.555063157197678
    vertex 50.8 0.0 0.0
    vertex 25.650981018804337 0.0 8.341595456038421
  endloop
endfacet
facet normal 0.0 1.0 0.0
  outer loop
    vertex 50.8 0.0 25.4
    vertex 27.796558210133043 0.0 9.05100145436191
    vertex 28.659327788535144 0.0 9.79561297215616
  endloop
endfacet
facet normal 0.0 1.0 0.0
  outer loop
    vertex 50.8 0.0 25.4
    vertex 28.659327788535144 0.0 9.79561297215616
    vertex 29.299979564442424 0.0 10.738153666171465
  endloop
endfacet
facet normal 0.0 1.0 0.0
  outer loop
    vertex 50.8 0.0 25.4
    vertex 29.299979564442424 0.0 10.738153666171465
    vertex 29.674854178053913 0.0 11.814390945732827
  endloop
endfacet
facet normal 0.0 1.0 0.0
  outer loop
    vertex 50.8 0.0 25.4
    vertex 29.674854178053913 0.0 11.814390945732827
    vertex 29.758404543961575 0.0 12.950981018804335
  endloop
endfacet
facet normal 0.0 1.0 0.0
  outer loop
    vertex 50.8 0.0 25.4
    vertex 29.758404543961575 0.0 12.950981018804335
    vertex 29.54493684280232 0.0 14.070467150210073
  endloop
endfacet
facet normal 0.0 1.0 0.0
  outer loop
    vertex 50.8 0.0 25.4
    vertex 29.54493684280232 0.0 14.070467150210073
    vertex 29.048998545638092 0.0 15.096558210133042
  endloop
endfacet
facet normal 0.0 1.0 0.0
  outer loop
    vertex 50.8 0.0 25.4
    vertex 29.048998545638092 0.0 15.096558210133042
    vertex 28.30438702784384 0.0 15.959327788535148
  endloop
endfacet
facet normal 0.0 1.0 0.0
  outer loop
    vertex 50.8 0.0 25.4
    vertex 28.30438702784384 0.0 15.959327788535148
    vertex 27.361846333828534 0.0 16.599979564442425
  endloop
endfacet
facet normal 0.0 1.0 0.0
  outer loop
    vertex 50.8 0.0 25.4
    vertex 27.361846333828534 0.0 16.599979564442425
    vertex 26.285609054267173 0.0 16.974854178053914
  endloop
endfacet
facet normal 0.0 1.0 0.0
  outer loop
    vertex 50.8 0.0 25.4
    vertex 26.285609054267173 0.0 16.974854178053914
    vertex 25.14901898119566 0.0 17.058404543961576
  endloop
endfacet
facet normal 0.0 1.0 0.0
  outer loop
    vertex 50.8 0.0 25.4
    vertex 25.14901898119566 0.0 17.058404543961576
    vertex -1.4099832412739487e-15 0.0 25.4
  endloop
endfacet
facet normal 0.8358479131024981 -4.2083426872748576e-17 0.5489610789137961
  outer loop
    vertex 21.751001454361905 0.0 10.303441789866953
    vertex 21.25506315719768 -12.7 11.329532849789926
    vertex 21.751001454361905 -12.7 10.303441789866952
  endloop
endfacet
facet normal 0.9494486683584423 -6.7054713006821146e-18 0.31392232503022244
  outer loop
    vertex 21.25506315719768 -12.7 11.329532849789926
    vertex 21.751001454361905 0.0 10.303441789866953
    vertex 21.25506315719768 0.0 11.329532849789926
  endloop
endfacet
facet normal 0.9494486683584423 -6.7054713006821146e-18 0.31392232503022244
  outer loop
    vertex 21.25506315719768 -12.7 11.329532849789926
    vertex 21.041595456038422 0.0 12.449018981195662
    vertex 21.041595456038422 -12.700000000000022 12.449018981195664
  endloop
endfacet
facet normal 0.9983460659038691 3.4302471266211623e-18 0.05749028347701445
  outer loop
    vertex 21.041595456038422 0.0 12.449018981195662
    vertex 21.25506315719768 -12.7 11.329532849789926
    vertex 21.25506315719768 0.0 11.329532849789926
  endloop
endfacet
facet normal 0.9983460659038691 3.4302471266211623e-18 0.05749028347701445
  outer loop
    vertex 21.041595456038422 0.0 12.449018981195662
    vertex 21.125145821946084 -12.7 13.58560905426717
    vertex 21.041595456038422 -12.700000000000022 12.449018981195664
  endloop
endfacet
facet normal 0.9792078289028293 1.6370452014757026e-17 -0.20285962588797074
  outer loop
    vertex 21.125145821946084 -12.7 13.58560905426717
    vertex 21.041595456038422 0.0 12.449018981195662
    vertex 21.125145821946084 0.0 13.58560905426717
  endloop
endfacet
facet normal 0.9792078289028293 1.6370452014757156e-17 -0.20285962588797155
  outer loop
    vertex 21.125145821946084 0.0 13.58560905426717
    vertex 21.500020435557573 -12.7 14.661846333828528
    vertex 21.125145821946084 -12.7 13.58560905426717
  endloop
endfacet
facet normal 0.8933381965795099 8.136631178491024e-17 -0.4493849869900742
  outer loop
    vertex 21.500020435557573 -12.7 14.661846333828528
    vertex 21.125145821946084 0.0 13.58560905426717
    vertex 21.500020435557573 0.0 14.661846333828532
  endloop
endfacet
facet normal 0.8933381965795099 8.136631178491023e-17 -0.4493849869900741
  outer loop
    vertex 21.500020435557573 0.0 14.661846333828532
    vertex 22.140672211464853 -12.7 15.604387027843835
    vertex 21.500020435557573 -12.7 14.661846333828528
  endloop
endfacet
facet normal 0.7465890424704714 1.6689009866524921e-16 -0.665285503872604
  outer loop
    vertex 22.140672211464853 -12.7 15.604387027843835
    vertex 21.500020435557573 0.0 14.661846333828532
    vertex 22.140672211464853 0.0 15.604387027843838
  endloop
endfacet
facet normal 0.5489610789137982 9.889822359760635e-17 -0.8358479131024966
  outer loop
    vertex 23.003441789866955 0.0 16.348998545638093
    vertex 22.140672211464853 -12.7 15.604387027843835
    vertex 22.140672211464853 0.0 15.604387027843838
  endloop
endfacet
facet normal 0.7465890424704714 1.6689009866524921e-16 -0.665285503872604
  outer loop
    vertex 22.140672211464853 -12.7 15.604387027843835
    vertex 23.003441789866955 0.0 16.348998545638093
    vertex 23.00344178986697 -12.7 16.348998545638096
  endloop
endfacet
facet normal -1.0 0.0 -5.551115123125783e-17
  outer loop
    vertex -1.4099832412739487e-15 0.0 25.4
    vertex 0.0 -12.7 0.0
    vertex -1.4099832412739487e-15 -12.7 25.4
  endloop
endfacet
facet normal -1.0 0.0 -5.551115123125783e-17
  outer loop
    vertex 0.0 -12.7 0.0
    vertex -1.4099832412739487e-15 0.0 25.4
    vertex 0.0 0.0 0.0
  endloop
endfacet
facet normal 0.05749028347701198 -3.4024297461549094e-17 -0.9983460659038692
  outer loop
    vertex 25.14901898119566 0.0 17.058404543961576
    vertex 24.02953284978993 -12.7 16.844936842802326
    vertex 24.029532849789923 0.0 16.844936842802323
  endloop
endfacet
facet normal 0.3139223250302235 -3.906706085482302e-17 -0.949448668358442
  outer loop
    vertex 24.02953284978993 -12.7 16.844936842802326
    vertex 25.14901898119566 0.0 17.058404543961576
    vertex 25.14901898119566 -12.7 17.058404543961576
  endloop
endfacet
facet normal -0.4493849869900716 1.5205488233272245e-16 -0.8933381965795111
  outer loop
    vertex 27.361846333828534 0.0 16.599979564442425
    vertex 26.285609054267173 -12.7 16.974854178053914
    vertex 26.285609054267173 0.0 16.974854178053914
  endloop
endfacet
facet normal -0.20285962588797243 1.057488377415075e-16 -0.9792078289028291
  outer loop
    vertex 26.285609054267173 -12.7 16.974854178053914
    vertex 27.361846333828534 0.0 16.599979564442425
    vertex 27.361846333828534 -12.7 16.599979564442418
  endloop
endfacet
endsolid Chassis Front
