solid Chassis
facet normal -0.0 -0.0 1.0
  outer loop
    vertex 63.5 177.79999999999998 25.4
    vertex 12.699999999999998 190.5 25.4
    vertex 12.699999999999998 177.79999999999998 25.4
  endloop
endfacet
facet normal -0.0 -0.0 1.0
  outer loop
    vertex 12.699999999999998 190.5 25.4
    vertex 63.5 177.79999999999998 25.4
    vertex 63.5 190.5 25.4
  endloop
endfacet
facet normal -2.807396735456289e-17 -0.8660254037844375 0.500000000000002
  outer loop
    vertex 76.19999999999999 68.86824215339644 10.517187499999999
    vertex 0.0 68.17446304161751 9.61303695838248
    vertex 76.19999999999999 68.17446304161751 9.613036958382478
  endloop
endfacet
facet normal -1.3743870704610585e-18 -0.7071067811865489 0.7071067811865464
  outer loop
    vertex 0.0 68.17446304161751 9.61303695838248
    vertex 76.19999999999999 68.86824215339644 10.517187499999999
    vertex 0.0 68.86824215339644 10.517187499999999
  endloop
endfacet
facet normal -3.5789403870247535e-17 -1.0 -2.3257996827638413e-15
  outer loop
    vertex 76.19999999999999 69.453125 12.7
    vertex 0.0 69.30436993539323 11.57009310622431
    vertex 76.19999999999999 69.30436993539321 11.570093106224308
  endloop
endfacet
facet normal -6.54857281597505e-17 -0.9659258262890681 0.25881904510252185
  outer loop
    vertex 0.0 69.30436993539323 11.57009310622431
    vertex 76.19999999999999 69.453125 12.7
    vertex -0.0 69.453125 12.700000000000003
  endloop
endfacet
facet normal -5.680774437728812e-18 -0.8660254037844384 -0.5000000000000007
  outer loop
    vertex 76.19999999999999 68.86824215339644 14.882812500000002
    vertex -0.0 69.30436993539321 13.829906893775696
    vertex 76.19999999999999 69.30436993539321 13.829906893775696
  endloop
endfacet
facet normal -1.2180302839244437e-18 -0.9659258262890679 -0.2588190451025223
  outer loop
    vertex -0.0 69.30436993539321 13.829906893775696
    vertex 76.19999999999999 68.86824215339644 14.882812500000002
    vertex -0.0 68.86824215339644 14.882812500000002
  endloop
endfacet
facet normal -1.3084103822364778e-17 -0.7071067811865483 -0.7071067811865466
  outer loop
    vertex 76.19999999999999 68.17446304161751 15.78696304161752
    vertex 0.0 67.2703125 16.48074215339644
    vertex -0.0 68.17446304161751 15.786963041617524
  endloop
endfacet
facet normal -2.1687665787892528e-17 -0.5000000000000001 -0.8660254037844387
  outer loop
    vertex 0.0 67.2703125 16.48074215339644
    vertex 76.19999999999999 68.17446304161751 15.78696304161752
    vertex 76.19999999999999 67.2703125 16.48074215339644
  endloop
endfacet
facet normal -2.1687665787892528e-17 -0.5000000000000001 -0.8660254037844387
  outer loop
    vertex 76.19999999999999 67.2703125 16.48074215339644
    vertex 0.0 66.2174068937757 16.916869935393215
    vertex 0.0 67.2703125 16.48074215339644
  endloop
endfacet
facet normal -3.3280437213195224e-17 -0.25881904510252135 -0.9659258262890682
  outer loop
    vertex 0.0 66.2174068937757 16.916869935393215
    vertex 76.19999999999999 67.2703125 16.48074215339644
    vertex 76.19999999999999 66.21740689377569 16.916869935393215
  endloop
endfacet
facet normal -2.7755575615628824e-17 6.326888025909303e-16 -1.0
  outer loop
    vertex 76.19999999999999 65.08749999999999 17.065625
    vertex 0.0 63.957593106224316 16.916869935393215
    vertex 0.0 65.0875 17.065625
  endloop
endfacet
facet normal 2.566478663701998e-18 0.2588190451025211 -0.9659258262890683
  outer loop
    vertex 0.0 63.957593106224316 16.916869935393215
    vertex 76.19999999999999 65.08749999999999 17.065625
    vertex 76.19999999999999 63.95759310622431 16.916869935393212
  endloop
endfacet
facet normal 2.566478663701998e-18 0.2588190451025211 -0.9659258262890683
  outer loop
    vertex 76.19999999999999 63.95759310622431 16.916869935393212
    vertex 0.0 62.90468750000001 16.48074215339644
    vertex 0.0 63.957593106224316 16.916869935393215
  endloop
endfacet
facet normal 1.9242392451035502e-17 0.4999999999999985 -0.8660254037844397
  outer loop
    vertex 0.0 62.90468750000001 16.48074215339644
    vertex 76.19999999999999 63.95759310622431 16.916869935393212
    vertex 76.19999999999999 62.904687499999994 16.480742153396438
  endloop
endfacet
facet normal -8.360198485552776e-18 0.9659258262890679 -0.25881904510252196
  outer loop
    vertex 0.0 60.87063006460678 13.829906893775693
    vertex 76.19999999999999 61.30675784660356 14.8828125
    vertex 76.19999999999999 60.87063006460678 13.829906893775691
  endloop
endfacet
facet normal -1.8503717077085963e-17 0.8660254037844384 -0.5000000000000004
  outer loop
    vertex 76.19999999999999 61.30675784660356 14.8828125
    vertex 0.0 60.87063006460678 13.829906893775693
    vertex 0.0 61.30675784660356 14.882812500000002
  endloop
endfacet
facet normal -8.360198485552776e-18 0.9659258262890679 -0.25881904510252196
  outer loop
    vertex 0.0 60.87063006460678 13.829906893775693
    vertex 76.19999999999999 60.721875 12.7
    vertex 0.0 60.721875 12.7
  endloop
endfacet
facet normal -1.2180302839244458e-18 1.0 -7.128887916517521e-17
  outer loop
    vertex 76.19999999999999 60.721875 12.7
    vertex 0.0 60.87063006460678 13.829906893775693
    vertex 76.19999999999999 60.87063006460678 13.829906893775691
  endloop
endfacet
facet normal 2.750938374920226e-17 -1.2297331655992728e-15 1.0
  outer loop
    vertex 76.19999999999999 65.08749999999999 8.334375
    vertex 0.0 66.21740689377572 8.48313006460679
    vertex 0.0 65.08750000000002 8.334375000000003
  endloop
endfacet
facet normal -9.037088566242485e-18 -0.2588190451025225 0.9659258262890678
  outer loop
    vertex 0.0 66.21740689377572 8.48313006460679
    vertex 76.19999999999999 65.08749999999999 8.334375
    vertex 76.19999999999999 66.21740689377569 8.483130064606787
  endloop
endfacet
facet normal -1.689302465913393e-17 -0.5000000000000011 0.866025403784438
  outer loop
    vertex 76.19999999999999 67.2703125 8.91925784660356
    vertex 0.0 68.17446304161751 9.61303695838248
    vertex 0.0 67.2703125 8.919257846603566
  endloop
endfacet
facet normal -1.3743870704610585e-18 -0.7071067811865489 0.7071067811865464
  outer loop
    vertex 0.0 68.17446304161751 9.61303695838248
    vertex 76.19999999999999 67.2703125 8.91925784660356
    vertex 76.19999999999999 68.17446304161751 9.613036958382478
  endloop
endfacet
facet normal 1.6309418689647304e-18 0.7071067811865466 0.7071067811865486
  outer loop
    vertex 76.19999999999999 62.000536958382476 9.613036958382478
    vertex -0.0 62.90468750000001 8.919257846603557
    vertex 0.0 62.000536958382476 9.61303695838248
  endloop
endfacet
facet normal 4.698109072314803e-17 0.4999999999999983 0.8660254037844396
  outer loop
    vertex -0.0 62.90468750000001 8.919257846603557
    vertex 76.19999999999999 62.000536958382476 9.613036958382478
    vertex 76.19999999999999 62.904687499999994 8.919257846603559
  endloop
endfacet
facet normal -1.8503717077085963e-17 0.8660254037844384 -0.5000000000000004
  outer loop
    vertex 0.0 61.30675784660356 14.882812500000002
    vertex 76.19999999999999 62.000536958382476 15.786963041617517
    vertex 76.19999999999999 61.30675784660356 14.8828125
  endloop
endfacet
facet normal -3.4451098938143093e-18 0.7071067811865475 -0.7071067811865475
  outer loop
    vertex 76.19999999999999 62.000536958382476 15.786963041617517
    vertex 0.0 61.30675784660356 14.882812500000002
    vertex 0.0 62.000536958382476 15.78696304161752
  endloop
endfacet
facet normal 4.698109072314803e-17 0.4999999999999983 0.8660254037844396
  outer loop
    vertex 76.19999999999999 62.904687499999994 8.919257846603559
    vertex -0.0 63.957593106224316 8.483130064606787
    vertex -0.0 62.90468750000001 8.919257846603557
  endloop
endfacet
facet normal 4.812621491786904e-17 0.25881904510251935 0.9659258262890688
  outer loop
    vertex -0.0 63.957593106224316 8.483130064606787
    vertex 76.19999999999999 62.904687499999994 8.919257846603559
    vertex 76.19999999999999 63.95759310622431 8.483130064606787
  endloop
endfacet
facet normal -3.3280437213195224e-17 -0.25881904510252135 -0.9659258262890682
  outer loop
    vertex 76.19999999999999 66.21740689377569 16.916869935393215
    vertex 0.0 65.0875 17.065625
    vertex 0.0 66.2174068937757 16.916869935393215
  endloop
endfacet
facet normal -2.7755575615628824e-17 6.326888025909303e-16 -1.0
  outer loop
    vertex 0.0 65.0875 17.065625
    vertex 76.19999999999999 66.21740689377569 16.916869935393215
    vertex 76.19999999999999 65.08749999999999 17.065625
  endloop
endfacet
facet normal 1.6309418689647304e-18 0.7071067811865466 0.7071067811865486
  outer loop
    vertex 0.0 62.000536958382476 9.61303695838248
    vertex 76.19999999999999 61.30675784660356 10.517187499999999
    vertex 76.19999999999999 62.000536958382476 9.613036958382478
  endloop
endfacet
facet normal -5.200651045537807e-17 0.8660254037844386 0.5000000000000001
  outer loop
    vertex 76.19999999999999 61.30675784660356 10.517187499999999
    vertex 0.0 62.000536958382476 9.61303695838248
    vertex 0.0 61.306757846603546 10.5171875
  endloop
endfacet
facet normal -1.3084103822364778e-17 -0.7071067811865483 -0.7071067811865466
  outer loop
    vertex 76.19999999999999 68.17446304161751 15.78696304161752
    vertex -0.0 68.86824215339644 14.882812500000002
    vertex 76.19999999999999 68.86824215339644 14.882812500000002
  endloop
endfacet
facet normal -5.680774437728812e-18 -0.8660254037844384 -0.5000000000000007
  outer loop
    vertex -0.0 68.86824215339644 14.882812500000002
    vertex 76.19999999999999 68.17446304161751 15.78696304161752
    vertex -0.0 68.17446304161751 15.786963041617524
  endloop
endfacet
facet normal -5.200651045537807e-17 0.8660254037844386 0.5000000000000001
  outer loop
    vertex 0.0 61.306757846603546 10.5171875
    vertex 76.19999999999999 60.87063006460678 11.570093106224306
    vertex 76.19999999999999 61.30675784660356 10.517187499999999
  endloop
endfacet
facet normal -3.091435457342751e-17 0.9659258262890684 0.2588190451025201
  outer loop
    vertex 76.19999999999999 60.87063006460678 11.570093106224306
    vertex 0.0 61.306757846603546 10.5171875
    vertex 0.0 60.87063006460678 11.570093106224306
  endloop
endfacet
facet normal -6.54857281597505e-17 -0.9659258262890681 0.25881904510252185
  outer loop
    vertex 76.19999999999999 69.30436993539321 11.570093106224308
    vertex 0.0 68.86824215339644 10.517187499999999
    vertex 76.19999999999999 68.86824215339644 10.517187499999999
  endloop
endfacet
facet normal -2.807396735456289e-17 -0.8660254037844375 0.500000000000002
  outer loop
    vertex 0.0 68.86824215339644 10.517187499999999
    vertex 76.19999999999999 69.30436993539321 11.570093106224308
    vertex 0.0 69.30436993539323 11.57009310622431
  endloop
endfacet
facet normal -1.2180302839244437e-18 -0.9659258262890679 -0.2588190451025223
  outer loop
    vertex 76.19999999999999 69.30436993539321 13.829906893775696
    vertex -0.0 69.453125 12.700000000000003
    vertex 76.19999999999999 69.453125 12.7
  endloop
endfacet
facet normal -3.5789403870247535e-17 -1.0 -2.3257996827638413e-15
  outer loop
    vertex -0.0 69.453125 12.700000000000003
    vertex 76.19999999999999 69.30436993539321 13.829906893775696
    vertex -0.0 69.30436993539321 13.829906893775696
  endloop
endfacet
facet normal 1.9242392451035502e-17 0.4999999999999985 -0.8660254037844397
  outer loop
    vertex 76.19999999999999 62.904687499999994 16.480742153396438
    vertex 0.0 62.000536958382476 15.78696304161752
    vertex 0.0 62.90468750000001 16.48074215339644
  endloop
endfacet
facet normal -3.4451098938143093e-18 0.7071067811865475 -0.7071067811865475
  outer loop
    vertex 0.0 62.000536958382476 15.78696304161752
    vertex 76.19999999999999 62.904687499999994 16.480742153396438
    vertex 76.19999999999999 62.000536958382476 15.786963041617517
  endloop
endfacet
facet normal 4.812621491786904e-17 0.25881904510251935 0.9659258262890688
  outer loop
    vertex 76.19999999999999 63.95759310622431 8.483130064606787
    vertex 0.0 65.08750000000002 8.334375000000003
    vertex -0.0 63.957593106224316 8.483130064606787
  endloop
endfacet
facet normal 2.750938374920226e-17 -1.2653776051818603e-15 1.0
  outer loop
    vertex 0.0 65.08750000000002 8.334375000000003
    vertex 76.19999999999999 63.95759310622431 8.483130064606787
    vertex 76.19999999999999 65.08749999999999 8.334375
  endloop
endfacet
facet normal -1.2180302839244458e-18 1.0 -7.128887916517521e-17
  outer loop
    vertex 0.0 60.721875 12.7
    vertex 76.19999999999999 60.87063006460678 11.570093106224306
    vertex 0.0 60.87063006460678 11.570093106224306
  endloop
endfacet
facet normal -3.091435457342751e-17 0.9659258262890684 0.2588190451025201
  outer loop
    vertex 76.19999999999999 60.87063006460678 11.570093106224306
    vertex 0.0 60.721875 12.7
    vertex 76.19999999999999 60.721875 12.7
  endloop
endfacet
facet normal -9.03708856624248e-18 -0.25881904510252246 0.9659258262890678
  outer loop
    vertex 76.19999999999999 66.21740689377569 8.483130064606787
    vertex 0.0 67.2703125 8.919257846603566
    vertex 0.0 66.21740689377572 8.48313006460679
  endloop
endfacet
facet normal -1.689302465913393e-17 -0.5000000000000011 0.866025403784438
  outer loop
    vertex 0.0 67.2703125 8.919257846603566
    vertex 76.19999999999999 66.21740689377569 8.483130064606787
    vertex 76.19999999999999 67.2703125 8.91925784660356
  endloop
endfacet
facet normal 0.0 -1.0 0.0
  outer loop
    vertex 69.85 0.0 25.4
    vertex 6.35 0.0 0.0
    vertex 69.85 0.0 0.0
  endloop
endfacet
facet normal 0.0 -1.0 0.0
  outer loop
    vertex 6.35 0.0 0.0
    vertex 69.85 0.0 25.4
    vertex 6.35 0.0 25.4
  endloop
endfacet
facet normal 0.9615239476408232 -0.27472112789737796 -0.0
  outer loop
    vertex 76.19999999999999 22.225 0.0
    vertex 69.85 0.0 25.4
    vertex 69.85 0.0 0.0
  endloop
endfacet
facet normal 0.9615239476408232 -0.27472112789737796 -0.0
  outer loop
    vertex 69.85 0.0 25.4
    vertex 76.19999999999999 22.225 0.0
    vertex 76.19999999999999 22.225 25.4
  endloop
endfacet
facet normal -0.9615239476408232 -0.274721127897378 0.0
  outer loop
    vertex 0.0 22.224999999999998 25.4
    vertex 6.35 0.0 0.0
    vertex 6.35 0.0 25.4
  endloop
endfacet
facet normal -0.9615239476408232 -0.274721127897378 0.0
  outer loop
    vertex 6.35 0.0 0.0
    vertex 0.0 22.224999999999998 25.4
    vertex 0.0 22.224999999999998 0.0
  endloop
endfacet
facet normal 1.0 -0.0 -0.0
  outer loop
    vertex 76.19999999999999 22.225 0.0
    vertex 76.19999999999999 63.95759310622431 8.483130064606787
    vertex 76.19999999999999 22.225 25.4
  endloop
endfacet
facet normal 1.0 -0.0 -0.0
  outer loop
    vertex 76.19999999999999 63.95759310622431 8.483130064606787
    vertex 76.19999999999999 22.225 0.0
    vertex 76.19999999999999 65.08749999999999 8.334375
  endloop
endfacet
facet normal 1.0 -0.0 -0.0
  outer loop
    vertex 76.19999999999999 65.08749999999999 8.334375
    vertex 76.19999999999999 22.225 0.0
    vertex 76.19999999999999 149.225 0.0
  endloop
endfacet
facet normal 1.0 -0.0 -0.0
  outer loop
    vertex 76.19999999999999 22.225 25.4
    vertex 76.19999999999999 63.95759310622431 8.483130064606787
    vertex 76.19999999999999 62.904687499999994 8.919257846603559
  endloop
endfacet
facet normal 1.0 -0.0 -0.0
  outer loop
    vertex 76.19999999999999 22.225 25.4
    vertex 76.19999999999999 62.904687499999994 8.919257846603559
    vertex 76.19999999999999 62.000536958382476 9.613036958382478
  endloop
endfacet
facet normal 1.0 -0.0 -0.0
  outer loop
    vertex 76.19999999999999 22.225 25.4
    vertex 76.19999999999999 62.000536958382476 9.613036958382478
    vertex 76.19999999999999 61.30675784660356 10.517187499999999
  endloop
endfacet
facet normal 1.0 -0.0 -0.0
  outer loop
    vertex 76.19999999999999 22.225 25.4
    vertex 76.19999999999999 61.30675784660356 10.517187499999999
    vertex 76.19999999999999 60.87063006460678 11.570093106224306
  endloop
endfacet
facet normal 1.0 -0.0 -0.0
  outer loop
    vertex 76.19999999999999 22.225 25.4
    vertex 76.19999999999999 60.87063006460678 11.570093106224306
    vertex 76.19999999999999 60.721875 12.7
  endloop
endfacet
facet normal 1.0 -0.0 -0.0
  outer loop
    vertex 76.19999999999999 65.08749999999999 8.334375
    vertex 76.19999999999999 149.225 0.0
    vertex 76.19999999999999 66.21740689377569 8.483130064606787
  endloop
endfacet
facet normal 1.0 -0.0 -0.0
  outer loop
    vertex 76.19999999999999 66.21740689377569 8.483130064606787
    vertex 76.19999999999999 149.225 0.0
    vertex 76.19999999999999 67.2703125 8.91925784660356
  endloop
endfacet
facet normal 1.0 -0.0 -0.0
  outer loop
    vertex 76.19999999999999 67.2703125 8.91925784660356
    vertex 76.19999999999999 149.225 0.0
    vertex 76.19999999999999 68.17446304161751 9.613036958382478
  endloop
endfacet
facet normal 1.0 -0.0 -0.0
  outer loop
    vertex 76.19999999999999 68.17446304161751 9.613036958382478
    vertex 76.19999999999999 149.225 0.0
    vertex 76.19999999999999 68.86824215339644 10.517187499999999
  endloop
endfacet
facet normal 1.0 -0.0 -0.0
  outer loop
    vertex 76.19999999999999 68.86824215339644 10.517187499999999
    vertex 76.19999999999999 149.225 0.0
    vertex 76.19999999999999 69.30436993539321 11.570093106224308
  endloop
endfacet
facet normal 1.0 -0.0 -0.0
  outer loop
    vertex 76.19999999999999 69.30436993539321 11.570093106224308
    vertex 76.19999999999999 149.225 0.0
    vertex 76.19999999999999 69.453125 12.7
  endloop
endfacet
facet normal 1.0 -0.0 -0.0
  outer loop
    vertex 76.19999999999999 22.225 25.4
    vertex 76.19999999999999 65.08749999999999 17.065625
    vertex 76.19999999999999 149.225 25.4
  endloop
endfacet
facet normal 1.0 -0.0 -0.0
  outer loop
    vertex 76.19999999999999 65.08749999999999 17.065625
    vertex 76.19999999999999 22.225 25.4
    vertex 76.19999999999999 63.95759310622431 16.916869935393212
  endloop
endfacet
facet normal 1.0 -0.0 -0.0
  outer loop
    vertex 76.19999999999999 63.95759310622431 16.916869935393212
    vertex 76.19999999999999 22.225 25.4
    vertex 76.19999999999999 62.904687499999994 16.480742153396438
  endloop
endfacet
facet normal 1.0 -0.0 -0.0
  outer loop
    vertex 76.19999999999999 62.904687499999994 16.480742153396438
    vertex 76.19999999999999 22.225 25.4
    vertex 76.19999999999999 62.000536958382476 15.786963041617517
  endloop
endfacet
facet normal 1.0 -0.0 -0.0
  outer loop
    vertex 76.19999999999999 62.000536958382476 15.786963041617517
    vertex 76.19999999999999 22.225 25.4
    vertex 76.19999999999999 61.30675784660356 14.8828125
  endloop
endfacet
facet normal 1.0 -0.0 -0.0
  outer loop
    vertex 76.19999999999999 61.30675784660356 14.8828125
    vertex 76.19999999999999 22.225 25.4
    vertex 76.19999999999999 60.87063006460678 13.829906893775691
  endloop
endfacet
facet normal 1.0 -0.0 -0.0
  outer loop
    vertex 76.19999999999999 60.87063006460678 13.829906893775691
    vertex 76.19999999999999 22.225 25.4
    vertex 76.19999999999999 60.721875 12.7
  endloop
endfacet
facet normal 1.0 -0.0 -0.0
  outer loop
    vertex 76.19999999999999 149.225 25.4
    vertex 76.19999999999999 65.08749999999999 17.065625
    vertex 76.19999999999999 66.21740689377569 16.916869935393215
  endloop
endfacet
facet normal 1.0 -0.0 -0.0
  outer loop
    vertex 76.19999999999999 149.225 25.4
    vertex 76.19999999999999 66.21740689377569 16.916869935393215
    vertex 76.19999999999999 67.2703125 16.48074215339644
  endloop
endfacet
facet normal 1.0 -0.0 -0.0
  outer loop
    vertex 76.19999999999999 149.225 25.4
    vertex 76.19999999999999 67.2703125 16.48074215339644
    vertex 76.19999999999999 68.17446304161751 15.78696304161752
  endloop
endfacet
facet normal 1.0 -0.0 -0.0
  outer loop
    vertex 76.19999999999999 149.225 25.4
    vertex 76.19999999999999 68.17446304161751 15.78696304161752
    vertex 76.19999999999999 68.86824215339644 14.882812500000002
  endloop
endfacet
facet normal 1.0 -0.0 -0.0
  outer loop
    vertex 76.19999999999999 149.225 25.4
    vertex 76.19999999999999 68.86824215339644 14.882812500000002
    vertex 76.19999999999999 69.30436993539321 13.829906893775696
  endloop
endfacet
facet normal 1.0 -0.0 -0.0
  outer loop
    vertex 76.19999999999999 149.225 25.4
    vertex 76.19999999999999 69.30436993539321 13.829906893775696
    vertex 76.19999999999999 69.453125 12.7
  endloop
endfacet
facet normal 1.0 -0.0 -0.0
  outer loop
    vertex 76.19999999999999 149.225 25.4
    vertex 76.19999999999999 69.453125 12.7
    vertex 76.19999999999999 149.225 0.0
  endloop
endfacet
facet normal -0.0 1.0 -0.0
  outer loop
    vertex 12.7 190.5 0.0
    vertex 37.21439094573282 190.5 8.425145821946085
    vertex 63.5 190.5 0.0
  endloop
endfacet
facet normal -0.0 1.0 -0.0
  outer loop
    vertex 37.21439094573282 190.5 8.425145821946085
    vertex 12.7 190.5 0.0
    vertex 36.13815366617146 190.5 8.800020435557572
  endloop
endfacet
facet normal -0.0 1.0 -0.0
  outer loop
    vertex 36.13815366617146 190.5 8.800020435557572
    vertex 12.7 190.5 0.0
    vertex 35.195612972156155 190.5 9.44067221146485
  endloop
endfacet
facet normal -0.0 1.0 -0.0
  outer loop
    vertex 35.195612972156155 190.5 9.44067221146485
    vertex 12.7 190.5 0.0
    vertex 12.699999999999998 190.5 25.4
  endloop
endfacet
facet normal -0.0 1.0 -0.0
  outer loop
    vertex 63.5 190.5 0.0
    vertex 37.21439094573282 190.5 8.425145821946085
    vertex 38.35098101880433 190.5 8.341595456038421
  endloop
endfacet
facet normal -0.0 1.0 -0.0
  outer loop
    vertex 35.195612972156155 190.5 9.44067221146485
    vertex 12.699999999999998 190.5 25.4
    vertex 34.45100145436191 190.5 10.303441789866953
  endloop
endfacet
facet normal -0.0 1.0 -0.0
  outer loop
    vertex 34.45100145436191 190.5 10.303441789866953
    vertex 12.699999999999998 190.5 25.4
    vertex 33.95506315719768 190.5 11.329532849789926
  endloop
endfacet
facet normal -0.0 1.0 -0.0
  outer loop
    vertex 33.95506315719768 190.5 11.329532849789926
    vertex 12.699999999999998 190.5 25.4
    vertex 33.74159545603842 190.5 12.449018981195662
  endloop
endfacet
facet normal -0.0 1.0 -0.0
  outer loop
    vertex 33.74159545603842 190.5 12.449018981195662
    vertex 12.699999999999998 190.5 25.4
    vertex 33.82514582194608 190.5 13.58560905426717
  endloop
endfacet
facet normal -0.0 1.0 -0.0
  outer loop
    vertex 33.82514582194608 190.5 13.58560905426717
    vertex 12.699999999999998 190.5 25.4
    vertex 34.200020435557576 190.5 14.661846333828532
  endloop
endfacet
facet normal -0.0 1.0 -0.0
  outer loop
    vertex 34.200020435557576 190.5 14.661846333828532
    vertex 12.699999999999998 190.5 25.4
    vertex 34.84067221146485 190.5 15.604387027843838
  endloop
endfacet
facet normal -0.0 1.0 -0.0
  outer loop
    vertex 34.84067221146485 190.5 15.604387027843838
    vertex 12.699999999999998 190.5 25.4
    vertex 35.70344178986696 190.5 16.348998545638093
  endloop
endfacet
facet normal -0.0 1.0 -0.0
  outer loop
    vertex 35.70344178986696 190.5 16.348998545638093
    vertex 12.699999999999998 190.5 25.4
    vertex 36.729532849789926 190.5 16.844936842802323
  endloop
endfacet
facet normal -0.0 1.0 -0.0
  outer loop
    vertex 36.729532849789926 190.5 16.844936842802323
    vertex 12.699999999999998 190.5 25.4
    vertex 37.84901898119566 190.5 17.058404543961576
  endloop
endfacet
facet normal -0.0 1.0 -0.0
  outer loop
    vertex 63.5 190.5 0.0
    vertex 40.49655821013304 190.5 9.05100145436191
    vertex 63.5 190.5 25.4
  endloop
endfacet
facet normal -0.0 1.0 -0.0
  outer loop
    vertex 40.49655821013304 190.5 9.05100145436191
    vertex 63.5 190.5 0.0
    vertex 39.47046715021007 190.5 8.555063157197678
  endloop
endfacet
facet normal -0.0 1.0 -0.0
  outer loop
    vertex 39.47046715021007 190.5 8.555063157197678
    vertex 63.5 190.5 0.0
    vertex 38.35098101880433 190.5 8.341595456038421
  endloop
endfacet
facet normal -0.0 1.0 -0.0
  outer loop
    vertex 63.5 190.5 25.4
    vertex 40.49655821013304 190.5 9.05100145436191
    vertex 41.35932778853515 190.5 9.79561297215616
  endloop
endfacet
facet normal -0.0 1.0 -0.0
  outer loop
    vertex 63.5 190.5 25.4
    vertex 41.35932778853515 190.5 9.79561297215616
    vertex 41.99997956444242 190.5 10.738153666171465
  endloop
endfacet
facet normal -0.0 1.0 -0.0
  outer loop
    vertex 63.5 190.5 25.4
    vertex 41.99997956444242 190.5 10.738153666171465
    vertex 42.374854178053916 190.5 11.814390945732827
  endloop
endfacet
facet normal -0.0 1.0 -0.0
  outer loop
    vertex 63.5 190.5 25.4
    vertex 42.374854178053916 190.5 11.814390945732827
    vertex 42.45840454396158 190.5 12.950981018804335
  endloop
endfacet
facet normal -0.0 1.0 -0.0
  outer loop
    vertex 63.5 190.5 25.4
    vertex 42.45840454396158 190.5 12.950981018804335
    vertex 42.24493684280232 190.5 14.070467150210073
  endloop
endfacet
facet normal -0.0 1.0 -0.0
  outer loop
    vertex 63.5 190.5 25.4
    vertex 42.24493684280232 190.5 14.070467150210073
    vertex 41.74899854563809 190.5 15.096558210133042
  endloop
endfacet
facet normal -0.0 1.0 -0.0
  outer loop
    vertex 63.5 190.5 25.4
    vertex 41.74899854563809 190.5 15.096558210133042
    vertex 41.00438702784384 190.5 15.959327788535148
  endloop
endfacet
facet normal -0.0 1.0 -0.0
  outer loop
    vertex 63.5 190.5 25.4
    vertex 41.00438702784384 190.5 15.959327788535148
    vertex 40.061846333828534 190.5 16.599979564442425
  endloop
endfacet
facet normal -0.0 1.0 -0.0
  outer loop
    vertex 63.5 190.5 25.4
    vertex 40.061846333828534 190.5 16.599979564442425
    vertex 38.98560905426717 190.5 16.974854178053914
  endloop
endfacet
facet normal -0.0 1.0 -0.0
  outer loop
    vertex 63.5 190.5 25.4
    vertex 38.98560905426717 190.5 16.974854178053914
    vertex 37.84901898119566 190.5 17.058404543961576
  endloop
endfacet
facet normal -0.0 1.0 -0.0
  outer loop
    vertex 63.5 190.5 25.4
    vertex 37.84901898119566 190.5 17.058404543961576
    vertex 12.699999999999998 190.5 25.4
  endloop
endfacet
facet normal 0.0 0.0 -1.0
  outer loop
    vertex 63.5 174.625 0.0
    vertex 12.7 155.575 0.0
    vertex 12.7 174.625 0.0
  endloop
endfacet
facet normal 0.0 0.0 -1.0
  outer loop
    vertex 12.7 155.575 0.0
    vertex 0.0 22.224999999999998 0.0
    vertex 0.0 149.225 0.0
  endloop
endfacet
facet normal 0.0 0.0 -1.0
  outer loop
    vertex 0.0 22.224999999999998 0.0
    vertex 12.7 155.575 0.0
    vertex 6.35 0.0 0.0
  endloop
endfacet
facet normal 0.0 0.0 -1.0
  outer loop
    vertex 6.35 0.0 0.0
    vertex 12.7 155.575 0.0
    vertex 69.85 0.0 0.0
  endloop
endfacet
facet normal 0.0 0.0 -1.0
  outer loop
    vertex 69.85 0.0 0.0
    vertex 12.7 155.575 0.0
    vertex 63.5 155.575 0.0
  endloop
endfacet
facet normal 0.0 0.0 -1.0
  outer loop
    vertex 63.5 155.575 0.0
    vertex 12.7 155.575 0.0
    vertex 63.5 174.625 0.0
  endloop
endfacet
facet normal 0.0 0.0 -1.0
  outer loop
    vertex 69.85 0.0 0.0
    vertex 63.5 155.575 0.0
    vertex 76.19999999999999 149.225 0.0
  endloop
endfacet
facet normal 0.0 0.0 -1.0
  outer loop
    vertex 69.85 0.0 0.0
    vertex 76.19999999999999 149.225 0.0
    vertex 76.19999999999999 22.225 0.0
  endloop
endfacet
facet normal 0.44721359549995804 0.8944271909999161 -0.0
  outer loop
    vertex 63.5 155.575 25.4
    vertex 76.19999999999999 149.225 0.0
    vertex 63.5 155.575 0.0
  endloop
endfacet
facet normal 0.44721359549995804 0.8944271909999161 -0.0
  outer loop
    vertex 76.19999999999999 149.225 0.0
    vertex 63.5 155.575 25.4
    vertex 76.19999999999999 149.225 25.4
  endloop
endfacet
facet normal -1.0 0.0 0.0
  outer loop
    vertex 0.0 22.224999999999998 25.4
    vertex 0.0 63.957593106224316 16.916869935393215
    vertex 0.0 22.224999999999998 0.0
  endloop
endfacet
facet normal -1.0 0.0 0.0
  outer loop
    vertex 0.0 63.957593106224316 16.916869935393215
    vertex 0.0 22.224999999999998 25.4
    vertex 0.0 65.0875 17.065625
  endloop
endfacet
facet normal -1.0 0.0 0.0
  outer loop
    vertex 0.0 65.0875 17.065625
    vertex 0.0 22.224999999999998 25.4
    vertex 0.0 149.225 25.4
  endloop
endfacet
facet normal -1.0 0.0 0.0
  outer loop
    vertex 0.0 22.224999999999998 0.0
    vertex 0.0 63.957593106224316 16.916869935393215
    vertex 0.0 62.90468750000001 16.48074215339644
  endloop
endfacet
facet normal -1.0 0.0 0.0
  outer loop
    vertex 0.0 22.224999999999998 0.0
    vertex 0.0 62.90468750000001 16.48074215339644
    vertex 0.0 62.000536958382476 15.78696304161752
  endloop
endfacet
facet normal -1.0 0.0 0.0
  outer loop
    vertex 0.0 22.224999999999998 0.0
    vertex 0.0 62.000536958382476 15.78696304161752
    vertex 0.0 61.30675784660356 14.882812500000002
  endloop
endfacet
facet normal -1.0 0.0 0.0
  outer loop
    vertex 0.0 22.224999999999998 0.0
    vertex 0.0 61.30675784660356 14.882812500000002
    vertex 0.0 60.87063006460678 13.829906893775693
  endloop
endfacet
facet normal -1.0 0.0 0.0
  outer loop
    vertex 0.0 22.224999999999998 0.0
    vertex 0.0 60.87063006460678 13.829906893775693
    vertex 0.0 60.721875 12.7
  endloop
endfacet
facet normal -1.0 0.0 0.0
  outer loop
    vertex 0.0 65.0875 17.065625
    vertex 0.0 149.225 25.4
    vertex 0.0 66.2174068937757 16.916869935393215
  endloop
endfacet
facet normal -1.0 0.0 0.0
  outer loop
    vertex 0.0 66.2174068937757 16.916869935393215
    vertex 0.0 149.225 25.4
    vertex 0.0 67.2703125 16.48074215339644
  endloop
endfacet
facet normal -1.0 0.0 0.0
  outer loop
    vertex 0.0 67.2703125 16.48074215339644
    vertex 0.0 149.225 25.4
    vertex -0.0 68.17446304161751 15.786963041617524
  endloop
endfacet
facet normal -1.0 0.0 0.0
  outer loop
    vertex -0.0 68.17446304161751 15.786963041617524
    vertex 0.0 149.225 25.4
    vertex -0.0 68.86824215339644 14.882812500000002
  endloop
endfacet
facet normal -1.0 0.0 0.0
  outer loop
    vertex -0.0 68.86824215339644 14.882812500000002
    vertex 0.0 149.225 25.4
    vertex -0.0 69.30436993539321 13.829906893775696
  endloop
endfacet
facet normal -1.0 0.0 0.0
  outer loop
    vertex -0.0 69.30436993539321 13.829906893775696
    vertex 0.0 149.225 25.4
    vertex -0.0 69.453125 12.700000000000003
  endloop
endfacet
facet normal -1.0 0.0 0.0
  outer loop
    vertex 0.0 22.224999999999998 0.0
    vertex 0.0 65.08750000000002 8.334375000000003
    vertex 0.0 149.225 0.0
  endloop
endfacet
facet normal -1.0 0.0 0.0
  outer loop
    vertex 0.0 65.08750000000002 8.334375000000003
    vertex 0.0 22.224999999999998 0.0
    vertex -0.0 63.957593106224316 8.483130064606787
  endloop
endfacet
facet normal -1.0 0.0 0.0
  outer loop
    vertex -0.0 63.957593106224316 8.483130064606787
    vertex 0.0 22.224999999999998 0.0
    vertex -0.0 62.90468750000001 8.919257846603557
  endloop
endfacet
facet normal -1.0 0.0 0.0
  outer loop
    vertex -0.0 62.90468750000001 8.919257846603557
    vertex 0.0 22.224999999999998 0.0
    vertex 0.0 62.000536958382476 9.61303695838248
  endloop
endfacet
facet normal -1.0 0.0 0.0
  outer loop
    vertex 0.0 62.000536958382476 9.61303695838248
    vertex 0.0 22.224999999999998 0.0
    vertex 0.0 61.306757846603546 10.5171875
  endloop
endfacet
facet normal -1.0 0.0 0.0
  outer loop
    vertex 0.0 61.306757846603546 10.5171875
    vertex 0.0 22.224999999999998 0.0
    vertex 0.0 60.87063006460678 11.570093106224306
  endloop
endfacet
facet normal -1.0 0.0 0.0
  outer loop
    vertex 0.0 60.87063006460678 11.570093106224306
    vertex 0.0 22.224999999999998 0.0
    vertex 0.0 60.721875 12.7
  endloop
endfacet
facet normal -1.0 0.0 0.0
  outer loop
    vertex 0.0 149.225 0.0
    vertex 0.0 65.08750000000002 8.334375000000003
    vertex 0.0 66.21740689377572 8.48313006460679
  endloop
endfacet
facet normal -1.0 0.0 0.0
  outer loop
    vertex 0.0 149.225 0.0
    vertex 0.0 66.21740689377572 8.48313006460679
    vertex 0.0 67.2703125 8.919257846603566
  endloop
endfacet
facet normal -1.0 0.0 0.0
  outer loop
    vertex 0.0 149.225 0.0
    vertex 0.0 67.2703125 8.919257846603566
    vertex 0.0 68.17446304161751 9.61303695838248
  endloop
endfacet
facet normal -1.0 0.0 0.0
  outer loop
    vertex 0.0 149.225 0.0
    vertex 0.0 68.17446304161751 9.61303695838248
    vertex 0.0 68.86824215339644 10.517187499999999
  endloop
endfacet
facet normal -1.0 0.0 0.0
  outer loop
    vertex 0.0 149.225 0.0
    vertex 0.0 68.86824215339644 10.517187499999999
    vertex 0.0 69.30436993539323 11.57009310622431
  endloop
endfacet
facet normal -1.0 0.0 0.0
  outer loop
    vertex 0.0 149.225 0.0
    vertex 0.0 69.30436993539323 11.57009310622431
    vertex -0.0 69.453125 12.700000000000003
  endloop
endfacet
facet normal -1.0 0.0 0.0
  outer loop
    vertex 0.0 149.225 0.0
    vertex -0.0 69.453125 12.700000000000003
    vertex 0.0 149.225 25.4
  endloop
endfacet
facet normal -1.0 0.0 -5.551115123125783e-17
  outer loop
    vertex 12.699999999999998 174.625 25.4
    vertex 12.7 155.575 0.0
    vertex 12.699999999999998 155.575 25.4
  endloop
endfacet
facet normal -1.0 0.0 -5.551115123125783e-17
  outer loop
    vertex 12.7 155.575 0.0
    vertex 12.699999999999998 174.625 25.4
    vertex 12.7 174.625 0.0
  endloop
endfacet
facet normal -0.44721359549995804 0.8944271909999159 -1.2412670766236368e-17
  outer loop
    vertex 0.0 149.225 25.4
    vertex 12.7 155.575 0.0
    vertex 0.0 149.225 0.0
  endloop
endfacet
facet normal -0.44721359549995804 0.8944271909999159 -1.2412670766236368e-17
  outer loop
    vertex 12.7 155.575 0.0
    vertex 0.0 149.225 25.4
    vertex 12.699999999999998 155.575 25.4
  endloop
endfacet
facet normal -0.0 -0.0 1.0
  outer loop
    vertex 63.5 174.625 25.4
    vertex 12.699999999999998 174.625 25.4
    vertex 63.5 155.575 25.4
  endloop
endfacet
facet normal -0.0 -0.0 1.0
  outer loop
    vertex 6.35 0.0 25.4
    vertex 0.0 149.225 25.4
    vertex 0.0 22.224999999999998 25.4
  endloop
endfacet
facet normal -0.0 -0.0 1.0
  outer loop
    vertex 0.0 149.225 25.4
    vertex 6.35 0.0 25.4
    vertex 12.699999999999998 155.575 25.4
  endloop
endfacet
facet normal -0.0 -0.0 1.0
  outer loop
    vertex 12.699999999999998 155.575 25.4
    vertex 6.35 0.0 25.4
    vertex 69.85 0.0 25.4
  endloop
endfacet
facet normal -0.0 -0.0 1.0
  outer loop
    vertex 12.699999999999998 155.575 25.4
    vertex 69.85 0.0 25.4
    vertex 12.699999999999998 174.625 25.4
  endloop
endfacet
facet normal -0.0 -0.0 1.0
  outer loop
    vertex 12.699999999999998 174.625 25.4
    vertex 69.85 0.0 25.4
    vertex 63.5 155.575 25.4
  endloop
endfacet
facet normal -0.0 -0.0 1.0
  outer loop
    vertex 63.5 155.575 25.4
    vertex 69.85 0.0 25.4
    vertex 76.19999999999999 149.225 25.4
  endloop
endfacet
facet normal -0.0 -0.0 1.0
  outer loop
    vertex 76.19999999999999 149.225 25.4
    vertex 69.85 0.0 25.4
    vertex 76.19999999999999 22.225 25.4
  endloop
endfacet
facet normal -1.0 0.0 -5.551115123125783e-17
  outer loop
    vertex 12.699999999999998 190.5 25.4
    vertex 12.7 177.79999999999998 0.0
    vertex 12.699999999999998 177.79999999999998 25.4
  endloop
endfacet
facet normal -1.0 0.0 -5.551115123125783e-17
  outer loop
    vertex 12.7 177.79999999999998 0.0
    vertex 12.699999999999998 190.5 25.4
    vertex 12.7 190.5 0.0
  endloop
endfacet
facet normal 0.0 0.0 -1.0
  outer loop
    vertex 63.5 190.5 0.0
    vertex 12.7 177.79999999999998 0.0
    vertex 12.7 190.5 0.0
  endloop
endfacet
facet normal 0.0 0.0 -1.0
  outer loop
    vertex 12.7 177.79999999999998 0.0
    vertex 63.5 190.5 0.0
    vertex 63.5 177.79999999999998 0.0
  endloop
endfacet
facet normal 1.0 -0.0 -0.0
  outer loop
    vertex 63.5 190.5 0.0
    vertex 63.5 177.79999999999998 25.4
    vertex 63.5 177.79999999999998 0.0
  endloop
endfacet
facet normal 1.0 -0.0 -0.0
  outer loop
    vertex 63.5 177.79999999999998 25.4
    vertex 63.5 190.5 0.0
    vertex 63.5 190.5 25.4
  endloop
endfacet
facet normal 0.0 -1.0 0.0
  outer loop
    vertex 63.5 177.79999999999998 0.0
    vertex 39.47046715021007 177.79999999999998 8.55506315719768
    vertex 12.7 177.79999999999998 0.0
  endloop
endfacet
facet normal 0.0 -1.0 0.0
  outer loop
    vertex 39.47046715021007 177.79999999999998 8.55506315719768
    vertex 63.5 177.79999999999998 0.0
    vertex 40.49655821013304 177.79999999999995 9.051001454361908
  endloop
endfacet
facet normal 0.0 -1.0 0.0
  outer loop
    vertex 40.49655821013304 177.79999999999995 9.051001454361908
    vertex 63.5 177.79999999999998 0.0
    vertex 63.5 177.79999999999998 25.4
  endloop
endfacet
facet normal 0.0 -1.0 0.0
  outer loop
    vertex 12.7 177.79999999999998 0.0
    vertex 39.47046715021007 177.79999999999998 8.55506315719768
    vertex 38.35098101880433 177.79999999999998 8.34159545603842
  endloop
endfacet
facet normal 0.0 -1.0 0.0
  outer loop
    vertex 40.49655821013304 177.79999999999995 9.051001454361908
    vertex 63.5 177.79999999999998 25.4
    vertex 41.35932778853514 177.79999999999995 9.795612972156158
  endloop
endfacet
facet normal 0.0 -1.0 0.0
  outer loop
    vertex 41.35932778853514 177.79999999999995 9.795612972156158
    vertex 63.5 177.79999999999998 25.4
    vertex 41.99997956444243 177.79999999999998 10.738153666171467
  endloop
endfacet
facet normal 0.0 -1.0 0.0
  outer loop
    vertex 41.99997956444243 177.79999999999998 10.738153666171467
    vertex 63.5 177.79999999999998 25.4
    vertex 42.37485417805391 177.79999999999998 11.81439094573283
  endloop
endfacet
facet normal 0.0 -1.0 0.0
  outer loop
    vertex 42.37485417805391 177.79999999999998 11.81439094573283
    vertex 63.5 177.79999999999998 25.4
    vertex 42.45840454396157 177.79999999999998 12.950981018804338
  endloop
endfacet
facet normal 0.0 -1.0 0.0
  outer loop
    vertex 42.45840454396157 177.79999999999998 12.950981018804338
    vertex 63.5 177.79999999999998 25.4
    vertex 42.24493684280232 177.79999999999998 14.07046715021007
  endloop
endfacet
facet normal 0.0 -1.0 0.0
  outer loop
    vertex 42.24493684280232 177.79999999999998 14.07046715021007
    vertex 63.5 177.79999999999998 25.4
    vertex 41.74899854563809 177.79999999999998 15.09655821013304
  endloop
endfacet
facet normal 0.0 -1.0 0.0
  outer loop
    vertex 41.74899854563809 177.79999999999998 15.09655821013304
    vertex 63.5 177.79999999999998 25.4
    vertex 41.00438702784384 177.79999999999998 15.95932778853515
  endloop
endfacet
facet normal 0.0 -1.0 0.0
  outer loop
    vertex 41.00438702784384 177.79999999999998 15.95932778853515
    vertex 63.5 177.79999999999998 25.4
    vertex 40.061846333828534 177.79999999999998 16.599979564442418
  endloop
endfacet
facet normal 0.0 -1.0 0.0
  outer loop
    vertex 40.061846333828534 177.79999999999998 16.599979564442418
    vertex 63.5 177.79999999999998 25.4
    vertex 38.98560905426717 177.79999999999998 16.974854178053914
  endloop
endfacet
facet normal 0.0 -1.0 0.0
  outer loop
    vertex 38.98560905426717 177.79999999999998 16.974854178053914
    vertex 63.5 177.79999999999998 25.4
    vertex 37.84901898119566 177.79999999999998 17.058404543961576
  endloop
endfacet
facet normal 0.0 -1.0 0.0
  outer loop
    vertex 12.7 177.79999999999998 0.0
    vertex 35.19561297215615 177.79999999999998 9.440672211464856
    vertex 12.699999999999998 177.79999999999998 25.4
  endloop
endfacet
facet normal 0.0 -1.0 0.0
  outer loop
    vertex 35.19561297215615 177.79999999999998 9.440672211464856
    vertex 12.7 177.79999999999998 0.0
    vertex 36.13815366617146 177.79999999999998 8.800020435557576
  endloop
endfacet
facet normal 0.0 -1.0 0.0
  outer loop
    vertex 36.13815366617146 177.79999999999998 8.800020435557576
    vertex 12.7 177.79999999999998 0.0
    vertex 37.21439094573283 177.79999999999998 8.425145821946087
  endloop
endfacet
facet normal 0.0 -1.0 0.0
  outer loop
    vertex 37.21439094573283 177.79999999999998 8.425145821946087
    vertex 12.7 177.79999999999998 0.0
    vertex 38.35098101880433 177.79999999999998 8.34159545603842
  endloop
endfacet
facet normal 0.0 -1.0 0.0
  outer loop
    vertex 12.699999999999998 177.79999999999998 25.4
    vertex 35.19561297215615 177.79999999999998 9.440672211464856
    vertex 34.45100145436191 177.79999999999998 10.303441789866952
  endloop
endfacet
facet normal 0.0 -1.0 0.0
  outer loop
    vertex 12.699999999999998 177.79999999999998 25.4
    vertex 34.45100145436191 177.79999999999998 10.303441789866952
    vertex 33.95506315719768 177.79999999999998 11.329532849789926
  endloop
endfacet
facet normal 0.0 -1.0 0.0
  outer loop
    vertex 12.699999999999998 177.79999999999998 25.4
    vertex 33.95506315719768 177.79999999999998 11.329532849789926
    vertex 33.74159545603842 177.79999999999995 12.449018981195664
  endloop
endfacet
facet normal 0.0 -1.0 0.0
  outer loop
    vertex 12.699999999999998 177.79999999999998 25.4
    vertex 33.74159545603842 177.79999999999995 12.449018981195664
    vertex 33.82514582194608 177.79999999999998 13.58560905426717
  endloop
endfacet
facet normal 0.0 -1.0 0.0
  outer loop
    vertex 12.699999999999998 177.79999999999998 25.4
    vertex 33.82514582194608 177.79999999999998 13.58560905426717
    vertex 34.200020435557576 177.79999999999998 14.661846333828528
  endloop
endfacet
facet normal 0.0 -1.0 0.0
  outer loop
    vertex 12.699999999999998 177.79999999999998 25.4
    vertex 34.200020435557576 177.79999999999998 14.661846333828528
    vertex 34.84067221146485 177.79999999999998 15.604387027843835
  endloop
endfacet
facet normal 0.0 -1.0 0.0
  outer loop
    vertex 12.699999999999998 177.79999999999998 25.4
    vertex 34.84067221146485 177.79999999999998 15.604387027843835
    vertex 35.703441789866964 177.79999999999998 16.348998545638096
  endloop
endfacet
facet normal 0.0 -1.0 0.0
  outer loop
    vertex 12.699999999999998 177.79999999999998 25.4
    vertex 35.703441789866964 177.79999999999998 16.348998545638096
    vertex 36.729532849789926 177.79999999999998 16.844936842802326
  endloop
endfacet
facet normal 0.0 -1.0 0.0
  outer loop
    vertex 12.699999999999998 177.79999999999998 25.4
    vertex 36.729532849789926 177.79999999999998 16.844936842802326
    vertex 37.84901898119566 177.79999999999998 17.058404543961576
  endloop
endfacet
facet normal 0.0 -1.0 0.0
  outer loop
    vertex 12.699999999999998 177.79999999999998 25.4
    vertex 37.84901898119566 177.79999999999998 17.058404543961576
    vertex 63.5 177.79999999999998 25.4
  endloop
endfacet
facet normal 1.0 -0.0 -0.0
  outer loop
    vertex 63.5 174.625 0.0
    vertex 63.5 155.575 25.4
    vertex 63.5 155.575 0.0
  endloop
endfacet
facet normal 1.0 -0.0 -0.0
  outer loop
    vertex 63.5 155.575 25.4
    vertex 63.5 174.625 0.0
    vertex 63.5 174.625 25.4
  endloop
endfacet
facet normal -0.0 1.0 -0.0
  outer loop
    vertex 12.7 174.625 0.0
    vertex 36.65390254280422 174.625 8.580839432005968
    vertex 63.5 174.625 0.0
  endloop
endfacet
facet normal -0.0 1.0 -0.0
  outer loop
    vertex 36.65390254280422 174.625 8.580839432005968
    vertex 12.7 174.625 0.0
    vertex 35.63705991393147 174.625 9.095473987739611
  endloop
endfacet
facet normal -0.0 1.0 -0.0
  outer loop
    vertex 35.63705991393147 174.625 9.095473987739611
    vertex 12.7 174.625 0.0
    vertex 12.699999999999998 174.625 25.4
  endloop
endfacet
facet normal -0.0 1.0 -0.0
  outer loop
    vertex 63.5 174.625 0.0
    vertex 36.65390254280422 174.625 8.580839432005968
    vertex 37.76929432359582 174.625 8.346918861746424
  endloop
endfacet
facet normal -0.0 1.0 -0.0
  outer loop
    vertex 35.63705991393147 174.625 9.095473987739611
    vertex 12.699999999999998 174.625 25.4
    vertex 34.78806258172336 174.625 9.85575103444792
  endloop
endfacet
facet normal -0.0 1.0 -0.0
  outer loop
    vertex 34.78806258172336 174.625 9.85575103444792
    vertex 12.699999999999998 174.625 25.4
    vertex 34.164768311335436 174.625 10.809858947814947
  endloop
endfacet
facet normal -0.0 1.0 -0.0
  outer loop
    vertex 34.164768311335436 174.625 10.809858947814947
    vertex 12.699999999999998 174.625 25.4
    vertex 33.80965357725214 174.625 11.892776850282605
  endloop
endfacet
facet normal -0.0 1.0 -0.0
  outer loop
    vertex 33.80965357725214 174.625 11.892776850282605
    vertex 12.699999999999998 174.625 25.4
    vertex 33.74691886174642 174.625 13.030705676404178
  endloop
endfacet
facet normal -0.0 1.0 -0.0
  outer loop
    vertex 33.74691886174642 174.625 13.030705676404178
    vertex 12.699999999999998 174.625 25.4
    vertex 33.980839432005965 174.625 14.146097457195776
  endloop
endfacet
facet normal -0.0 1.0 -0.0
  outer loop
    vertex 33.980839432005965 174.625 14.146097457195776
    vertex 12.699999999999998 174.625 25.4
    vertex 34.49547398773961 174.625 15.16294008606852
  endloop
endfacet
facet normal -0.0 1.0 -0.0
  outer loop
    vertex 34.49547398773961 174.625 15.16294008606852
    vertex 12.699999999999998 174.625 25.4
    vertex 35.25575103444792 174.625 16.011937418276638
  endloop
endfacet
facet normal -0.0 1.0 -0.0
  outer loop
    vertex 35.25575103444792 174.625 16.011937418276638
    vertex 12.699999999999998 174.625 25.4
    vertex 36.20985894781495 174.625 16.635231688664568
  endloop
endfacet
facet normal -0.0 1.0 -0.0
  outer loop
    vertex 36.20985894781495 174.625 16.635231688664568
    vertex 12.699999999999998 174.625 25.4
    vertex 37.29277685028261 174.625 16.990346422747855
  endloop
endfacet
facet normal -0.0 1.0 -0.0
  outer loop
    vertex 37.29277685028261 174.625 16.990346422747855
    vertex 12.699999999999998 174.625 25.4
    vertex 38.43070567640417 174.625 17.053081138253578
  endloop
endfacet
facet normal -0.0 1.0 -0.0
  outer loop
    vertex 63.5 174.625 0.0
    vertex 40.94424896555208 174.625 9.388062581723362
    vertex 63.5 174.625 25.4
  endloop
endfacet
facet normal -0.0 1.0 -0.0
  outer loop
    vertex 40.94424896555208 174.625 9.388062581723362
    vertex 63.5 174.625 0.0
    vertex 39.990141052185045 174.625 8.764768311335432
  endloop
endfacet
facet normal -0.0 1.0 -0.0
  outer loop
    vertex 39.990141052185045 174.625 8.764768311335432
    vertex 63.5 174.625 0.0
    vertex 38.90722314971739 174.625 8.409653577252142
  endloop
endfacet
facet normal -0.0 1.0 -0.0
  outer loop
    vertex 38.90722314971739 174.625 8.409653577252142
    vertex 63.5 174.625 0.0
    vertex 37.76929432359582 174.625 8.346918861746424
  endloop
endfacet
facet normal -0.0 1.0 -0.0
  outer loop
    vertex 63.5 174.625 25.4
    vertex 40.94424896555208 174.625 9.388062581723362
    vertex 41.70452601226039 174.625 10.237059913931475
  endloop
endfacet
facet normal -0.0 1.0 -0.0
  outer loop
    vertex 63.5 174.625 25.4
    vertex 41.70452601226039 174.625 10.237059913931475
    vertex 42.21916056799403 174.625 11.253902542804223
  endloop
endfacet
facet normal -0.0 1.0 -0.0
  outer loop
    vertex 63.5 174.625 25.4
    vertex 42.21916056799403 174.625 11.253902542804223
    vertex 42.45308113825357 174.625 12.369294323595819
  endloop
endfacet
facet normal -0.0 1.0 -0.0
  outer loop
    vertex 63.5 174.625 25.4
    vertex 42.45308113825357 174.625 12.369294323595819
    vertex 42.39034642274786 174.625 13.50722314971739
  endloop
endfacet
facet normal -0.0 1.0 -0.0
  outer loop
    vertex 63.5 174.625 25.4
    vertex 42.39034642274786 174.625 13.50722314971739
    vertex 42.03523168866456 174.625 14.59014105218505
  endloop
endfacet
facet normal -0.0 1.0 -0.0
  outer loop
    vertex 63.5 174.625 25.4
    vertex 42.03523168866456 174.625 14.59014105218505
    vertex 41.411937418276636 174.625 15.54424896555208
  endloop
endfacet
facet normal -0.0 1.0 -0.0
  outer loop
    vertex 63.5 174.625 25.4
    vertex 41.411937418276636 174.625 15.54424896555208
    vertex 40.56294008606852 174.625 16.30452601226039
  endloop
endfacet
facet normal -0.0 1.0 -0.0
  outer loop
    vertex 63.5 174.625 25.4
    vertex 40.56294008606852 174.625 16.30452601226039
    vertex 39.54609745719578 174.625 16.81916056799403
  endloop
endfacet
facet normal -0.0 1.0 -0.0
  outer loop
    vertex 63.5 174.625 25.4
    vertex 39.54609745719578 174.625 16.81916056799403
    vertex 38.43070567640417 174.625 17.053081138253578
  endloop
endfacet
facet normal -0.0 1.0 -0.0
  outer loop
    vertex 63.5 174.625 25.4
    vertex 38.43070567640417 174.625 17.053081138253578
    vertex 12.699999999999998 174.625 25.4
  endloop
endfacet
facet normal 0.0 1.0 0.0
  outer loop
    vertex 37.21439094573282 163.5125 8.425145821946085
    vertex 39.47046715021007 163.5125 8.555063157197678
    vertex 38.35098101880433 163.5125 8.341595456038421
  endloop
endfacet
facet normal 0.0 1.0 0.0
  outer loop
    vertex 39.47046715021007 163.5125 8.555063157197678
    vertex 37.21439094573282 163.5125 8.425145821946085
    vertex 36.13815366617146 163.5125 8.800020435557572
  endloop
endfacet
facet normal 0.0 1.0 0.0
  outer loop
    vertex 39.47046715021007 163.5125 8.555063157197678
    vertex 36.13815366617146 163.5125 8.800020435557572
    vertex 40.49655821013304 163.5125 9.05100145436191
  endloop
endfacet
facet normal 0.0 1.0 0.0
  outer loop
    vertex 40.49655821013304 163.5125 9.05100145436191
    vertex 36.13815366617146 163.5125 8.800020435557572
    vertex 35.195612972156155 163.5125 9.44067221146485
  endloop
endfacet
facet normal 0.0 1.0 0.0
  outer loop
    vertex 40.49655821013304 163.5125 9.05100145436191
    vertex 35.195612972156155 163.5125 9.44067221146485
    vertex 41.35932778853515 163.5125 9.79561297215616
  endloop
endfacet
facet normal 0.0 1.0 0.0
  outer loop
    vertex 41.35932778853515 163.5125 9.79561297215616
    vertex 35.195612972156155 163.5125 9.44067221146485
    vertex 34.45100145436191 163.5125 10.303441789866953
  endloop
endfacet
facet normal 0.0 1.0 0.0
  outer loop
    vertex 41.35932778853515 163.5125 9.79561297215616
    vertex 34.45100145436191 163.5125 10.303441789866953
    vertex 41.99997956444242 163.5125 10.738153666171465
  endloop
endfacet
facet normal 0.0 1.0 0.0
  outer loop
    vertex 41.99997956444242 163.5125 10.738153666171465
    vertex 34.45100145436191 163.5125 10.303441789866953
    vertex 33.95506315719768 163.5125 11.329532849789926
  endloop
endfacet
facet normal 0.0 1.0 0.0
  outer loop
    vertex 41.99997956444242 163.5125 10.738153666171465
    vertex 33.95506315719768 163.5125 11.329532849789926
    vertex 42.374854178053916 163.5125 11.814390945732827
  endloop
endfacet
facet normal 0.0 1.0 0.0
  outer loop
    vertex 42.374854178053916 163.5125 11.814390945732827
    vertex 33.95506315719768 163.5125 11.329532849789926
    vertex 33.74159545603842 163.5125 12.449018981195662
  endloop
endfacet
facet normal 0.0 1.0 0.0
  outer loop
    vertex 42.374854178053916 163.5125 11.814390945732827
    vertex 33.74159545603842 163.5125 12.449018981195662
    vertex 42.45840454396158 163.5125 12.950981018804335
  endloop
endfacet
facet normal 0.0 1.0 0.0
  outer loop
    vertex 42.45840454396158 163.5125 12.950981018804335
    vertex 33.74159545603842 163.5125 12.449018981195662
    vertex 33.82514582194608 163.5125 13.58560905426717
  endloop
endfacet
facet normal 0.0 1.0 0.0
  outer loop
    vertex 42.45840454396158 163.5125 12.950981018804335
    vertex 33.82514582194608 163.5125 13.58560905426717
    vertex 42.24493684280232 163.5125 14.070467150210073
  endloop
endfacet
facet normal 0.0 1.0 0.0
  outer loop
    vertex 42.24493684280232 163.5125 14.070467150210073
    vertex 33.82514582194608 163.5125 13.58560905426717
    vertex 34.200020435557576 163.5125 14.661846333828532
  endloop
endfacet
facet normal 0.0 1.0 0.0
  outer loop
    vertex 42.24493684280232 163.5125 14.070467150210073
    vertex 34.200020435557576 163.5125 14.661846333828532
    vertex 41.74899854563809 163.5125 15.096558210133042
  endloop
endfacet
facet normal 0.0 1.0 0.0
  outer loop
    vertex 41.74899854563809 163.5125 15.096558210133042
    vertex 34.200020435557576 163.5125 14.661846333828532
    vertex 34.84067221146485 163.5125 15.604387027843838
  endloop
endfacet
facet normal 0.0 1.0 0.0
  outer loop
    vertex 41.74899854563809 163.5125 15.096558210133042
    vertex 34.84067221146485 163.5125 15.604387027843838
    vertex 41.00438702784384 163.5125 15.959327788535148
  endloop
endfacet
facet normal 0.0 1.0 0.0
  outer loop
    vertex 41.00438702784384 163.5125 15.959327788535148
    vertex 34.84067221146485 163.5125 15.604387027843838
    vertex 35.70344178986696 163.5125 16.348998545638093
  endloop
endfacet
facet normal 0.0 1.0 0.0
  outer loop
    vertex 41.00438702784384 163.5125 15.959327788535148
    vertex 35.70344178986696 163.5125 16.348998545638093
    vertex 40.061846333828534 163.5125 16.599979564442425
  endloop
endfacet
facet normal 0.0 1.0 0.0
  outer loop
    vertex 40.061846333828534 163.5125 16.599979564442425
    vertex 35.70344178986696 163.5125 16.348998545638093
    vertex 36.729532849789926 163.5125 16.844936842802323
  endloop
endfacet
facet normal 0.0 1.0 0.0
  outer loop
    vertex 40.061846333828534 163.5125 16.599979564442425
    vertex 36.729532849789926 163.5125 16.844936842802323
    vertex 38.98560905426717 163.5125 16.974854178053914
  endloop
endfacet
facet normal 0.0 1.0 0.0
  outer loop
    vertex 38.98560905426717 163.5125 16.974854178053914
    vertex 36.729532849789926 163.5125 16.844936842802323
    vertex 37.84901898119566 163.5125 17.058404543961576
  endloop
endfacet
facet normal 0.6652855038726043 4.606806174961448e-17 0.746589042470471
  outer loop
    vertex 35.195612972156155 190.5 9.44067221146485
    vertex 34.45100145436191 177.79999999999998 10.303441789866952
    vertex 35.19561297215615 177.79999999999998 9.440672211464856
  endloop
endfacet
facet normal 0.8358479131024978 -4.2083426872748564e-17 0.548961078913796
  outer loop
    vertex 34.45100145436191 177.79999999999998 10.303441789866952
    vertex 35.195612972156155 190.5 9.44067221146485
    vertex 34.45100145436191 190.5 10.303441789866953
  endloop
endfacet
facet normal 0.8358479131024978 -4.2083426872748564e-17 0.548961078913796
  outer loop
    vertex 34.45100145436191 190.5 10.303441789866953
    vertex 33.95506315719768 177.79999999999998 11.329532849789926
    vertex 34.45100145436191 177.79999999999998 10.303441789866952
  endloop
endfacet
facet normal 0.9494486683584423 -6.7054713006821146e-18 0.31392232503022244
  outer loop
    vertex 33.95506315719768 177.79999999999998 11.329532849789926
    vertex 34.45100145436191 190.5 10.303441789866953
    vertex 33.95506315719768 190.5 11.329532849789926
  endloop
endfacet
facet normal 0.9494486683584423 -6.7054713006821146e-18 0.31392232503022244
  outer loop
    vertex 33.95506315719768 177.79999999999998 11.329532849789926
    vertex 33.74159545603842 190.5 12.449018981195662
    vertex 33.74159545603842 177.79999999999995 12.449018981195664
  endloop
endfacet
facet normal 0.9983460659038691 3.4302471266211623e-18 0.05749028347701445
  outer loop
    vertex 33.74159545603842 190.5 12.449018981195662
    vertex 33.95506315719768 177.79999999999998 11.329532849789926
    vertex 33.95506315719768 190.5 11.329532849789926
  endloop
endfacet
facet normal 0.9983460659038691 3.4302471266211623e-18 0.05749028347701445
  outer loop
    vertex 33.74159545603842 190.5 12.449018981195662
    vertex 33.82514582194608 177.79999999999998 13.58560905426717
    vertex 33.74159545603842 177.79999999999995 12.449018981195664
  endloop
endfacet
facet normal 0.9792078289028293 1.6370452014757026e-17 -0.20285962588797074
  outer loop
    vertex 33.82514582194608 177.79999999999998 13.58560905426717
    vertex 33.74159545603842 190.5 12.449018981195662
    vertex 33.82514582194608 190.5 13.58560905426717
  endloop
endfacet
facet normal 0.9792078289028291 1.6370452014757153e-17 -0.2028596258879715
  outer loop
    vertex 33.82514582194608 190.5 13.58560905426717
    vertex 34.200020435557576 177.79999999999998 14.661846333828528
    vertex 33.82514582194608 177.79999999999998 13.58560905426717
  endloop
endfacet
facet normal 0.8933381965795099 8.136631178491024e-17 -0.4493849869900742
  outer loop
    vertex 34.200020435557576 177.79999999999998 14.661846333828528
    vertex 33.82514582194608 190.5 13.58560905426717
    vertex 34.200020435557576 190.5 14.661846333828532
  endloop
endfacet
facet normal 0.8933381965795099 8.136631178491023e-17 -0.4493849869900741
  outer loop
    vertex 34.200020435557576 190.5 14.661846333828532
    vertex 34.84067221146485 177.79999999999998 15.604387027843835
    vertex 34.200020435557576 177.79999999999998 14.661846333828528
  endloop
endfacet
facet normal 0.7465890424704714 1.6689009866524921e-16 -0.665285503872604
  outer loop
    vertex 34.84067221146485 177.79999999999998 15.604387027843835
    vertex 34.200020435557576 190.5 14.661846333828532
    vertex 34.84067221146485 190.5 15.604387027843838
  endloop
endfacet
facet normal 0.5489610789137982 9.889822359760635e-17 -0.8358479131024966
  outer loop
    vertex 35.70344178986696 190.5 16.348998545638093
    vertex 34.84067221146485 177.79999999999998 15.604387027843835
    vertex 34.84067221146485 190.5 15.604387027843838
  endloop
endfacet
facet normal 0.7465890424704714 1.6689009866524921e-16 -0.665285503872604
  outer loop
    vertex 34.84067221146485 177.79999999999998 15.604387027843835
    vertex 35.70344178986696 190.5 16.348998545638093
    vertex 35.703441789866964 177.79999999999998 16.348998545638096
  endloop
endfacet
facet normal 0.05749028347701198 -3.4024297461549094e-17 -0.9983460659038692
  outer loop
    vertex 37.84901898119566 190.5 17.058404543961576
    vertex 36.729532849789926 177.79999999999998 16.844936842802326
    vertex 36.729532849789926 190.5 16.844936842802323
  endloop
endfacet
facet normal 0.3139223250302235 -3.906706085482302e-17 -0.949448668358442
  outer loop
    vertex 36.729532849789926 177.79999999999998 16.844936842802326
    vertex 37.84901898119566 190.5 17.058404543961576
    vertex 37.84901898119566 177.79999999999998 17.058404543961576
  endloop
endfacet
facet normal -0.4493849869900716 1.5205488233272245e-16 -0.8933381965795111
  outer loop
    vertex 40.061846333828534 190.5 16.599979564442425
    vertex 38.98560905426717 177.79999999999998 16.974854178053914
    vertex 38.98560905426717 190.5 16.974854178053914
  endloop
endfacet
facet normal -0.20285962588797238 1.0574883774150748e-16 -0.9792078289028289
  outer loop
    vertex 38.98560905426717 177.79999999999998 16.974854178053914
    vertex 40.061846333828534 190.5 16.599979564442425
    vertex 40.061846333828534 177.79999999999998 16.599979564442418
  endloop
endfacet
facet normal -0.9494486683584422 1.587282461077147e-16 -0.3139223250302229
  outer loop
    vertex 42.24493684280232 190.5 14.070467150210073
    vertex 42.45840454396157 177.79999999999998 12.950981018804338
    vertex 42.24493684280232 177.79999999999998 14.07046715021007
  endloop
endfacet
facet normal -0.9983460659038692 3.4361819212936774e-16 -0.05749028347701344
  outer loop
    vertex 42.45840454396157 177.79999999999998 12.950981018804338
    vertex 42.24493684280232 190.5 14.070467150210073
    vertex 42.45840454396158 190.5 12.950981018804335
  endloop
endfacet
facet normal -0.9983460659038692 3.4361819212936774e-16 -0.05749028347701342
  outer loop
    vertex 42.45840454396158 190.5 12.950981018804335
    vertex 42.37485417805391 177.79999999999998 11.81439094573283
    vertex 42.45840454396157 177.79999999999998 12.950981018804338
  endloop
endfacet
facet normal -0.9792078289028296 2.796628123903547e-16 0.2028596258879687
  outer loop
    vertex 42.37485417805391 177.79999999999998 11.81439094573283
    vertex 42.45840454396158 190.5 12.950981018804335
    vertex 42.374854178053916 190.5 11.814390945732827
  endloop
endfacet
facet normal -0.9792078289028296 2.796628123903547e-16 0.20285962588796874
  outer loop
    vertex 42.374854178053916 190.5 11.814390945732827
    vertex 41.99997956444243 177.79999999999998 10.738153666171467
    vertex 42.37485417805391 177.79999999999998 11.81439094573283
  endloop
endfacet
facet normal -0.89333819657951 6.190409128179675e-17 0.44938498699007395
  outer loop
    vertex 41.99997956444243 177.79999999999998 10.738153666171467
    vertex 42.374854178053916 190.5 11.814390945732827
    vertex 41.99997956444242 190.5 10.738153666171465
  endloop
endfacet
facet normal -0.7465890424704699 4.6638098202041575e-17 0.665285503872606
  outer loop
    vertex 41.35932778853514 177.79999999999995 9.795612972156158
    vertex 40.49655821013304 190.5 9.05100145436191
    vertex 40.49655821013304 177.79999999999995 9.051001454361908
  endloop
endfacet
facet normal -0.5489610789137979 3.054089089236974e-17 0.8358479131024967
  outer loop
    vertex 40.49655821013304 190.5 9.05100145436191
    vertex 41.35932778853514 177.79999999999995 9.795612972156158
    vertex 41.35932778853515 190.5 9.79561297215616
  endloop
endfacet
facet normal 0.20285962588797118 1.2435551379166488e-16 0.9792078289028292
  outer loop
    vertex 37.21439094573283 177.79999999999998 8.425145821946087
    vertex 38.35098101880433 190.5 8.341595456038421
    vertex 37.21439094573282 190.5 8.425145821946085
  endloop
endfacet
facet normal -0.05749028347701346 8.209485264452447e-18 0.9983460659038691
  outer loop
    vertex 38.35098101880433 190.5 8.341595456038421
    vertex 37.21439094573283 177.79999999999998 8.425145821946087
    vertex 38.35098101880433 177.79999999999998 8.34159545603842
  endloop
endfacet
facet normal 0.44938498699007207 1.9211505062648812e-16 0.8933381965795107
  outer loop
    vertex 36.13815366617146 177.79999999999998 8.800020435557576
    vertex 35.195612972156155 190.5 9.44067221146485
    vertex 35.19561297215615 177.79999999999998 9.440672211464856
  endloop
endfacet
facet normal 0.6652855038726043 4.606806174961448e-17 0.746589042470471
  outer loop
    vertex 35.195612972156155 190.5 9.44067221146485
    vertex 36.13815366617146 177.79999999999998 8.800020435557576
    vertex 36.13815366617146 190.5 8.800020435557572
  endloop
endfacet
facet normal 0.3139223250302236 -3.9067060854823006e-17 -0.949448668358442
  outer loop
    vertex 36.729532849789926 190.5 16.844936842802323
    vertex 35.703441789866964 177.79999999999998 16.348998545638096
    vertex 35.70344178986696 190.5 16.348998545638093
  endloop
endfacet
facet normal 0.5489610789137982 9.889822359760621e-17 -0.8358479131024967
  outer loop
    vertex 35.703441789866964 177.79999999999998 16.348998545638096
    vertex 36.729532849789926 190.5 16.844936842802323
    vertex 36.729532849789926 177.79999999999998 16.844936842802326
  endloop
endfacet
facet normal -0.8358479131024986 4.8729866092349536e-17 -0.5489610789137953
  outer loop
    vertex 41.74899854563809 190.5 15.096558210133042
    vertex 42.24493684280232 177.79999999999998 14.07046715021007
    vertex 41.74899854563809 177.79999999999998 15.09655821013304
  endloop
endfacet
facet normal -0.9494486683584422 1.587282461077147e-16 -0.3139223250302228
  outer loop
    vertex 42.24493684280232 177.79999999999998 14.07046715021007
    vertex 41.74899854563809 190.5 15.096558210133042
    vertex 42.24493684280232 190.5 14.070467150210073
  endloop
endfacet
facet normal -0.3139223250302259 -2.3611630422689003e-19 0.9494486683584412
  outer loop
    vertex 39.47046715021007 177.79999999999998 8.55506315719768
    vertex 38.35098101880433 190.5 8.341595456038421
    vertex 38.35098101880433 177.79999999999998 8.34159545603842
  endloop
endfacet
facet normal -0.05749028347701346 8.209485264452447e-18 0.9983460659038691
  outer loop
    vertex 38.35098101880433 190.5 8.341595456038421
    vertex 39.47046715021007 177.79999999999998 8.55506315719768
    vertex 39.47046715021007 190.5 8.555063157197678
  endloop
endfacet
facet normal -0.89333819657951 6.190409128179675e-17 0.44938498699007395
  outer loop
    vertex 41.99997956444243 177.79999999999998 10.738153666171467
    vertex 41.35932778853515 190.5 9.79561297215616
    vertex 41.35932778853514 177.79999999999995 9.795612972156158
  endloop
endfacet
facet normal -0.7465890424704703 4.663809820204147e-17 0.6652855038726054
  outer loop
    vertex 41.35932778853515 190.5 9.79561297215616
    vertex 41.99997956444243 177.79999999999998 10.738153666171467
    vertex 41.99997956444242 190.5 10.738153666171465
  endloop
endfacet
facet normal -0.6652855038726039 4.630604459121508e-17 -0.7465890424704715
  outer loop
    vertex 41.00438702784384 190.5 15.959327788535148
    vertex 41.74899854563809 177.79999999999998 15.09655821013304
    vertex 41.00438702784384 177.79999999999998 15.95932778853515
  endloop
endfacet
facet normal -0.8358479131024986 4.8729866092349554e-17 -0.5489610789137953
  outer loop
    vertex 41.74899854563809 177.79999999999998 15.09655821013304
    vertex 41.00438702784384 190.5 15.959327788535148
    vertex 41.74899854563809 190.5 15.096558210133042
  endloop
endfacet
facet normal 0.20285962588797118 1.2435551379166488e-16 0.9792078289028292
  outer loop
    vertex 37.21439094573283 177.79999999999998 8.425145821946087
    vertex 36.13815366617146 190.5 8.800020435557572
    vertex 36.13815366617146 177.79999999999998 8.800020435557576
  endloop
endfacet
facet normal 0.44938498699007207 1.9211505062648812e-16 0.8933381965795107
  outer loop
    vertex 36.13815366617146 190.5 8.800020435557572
    vertex 37.21439094573283 177.79999999999998 8.425145821946087
    vertex 37.21439094573282 190.5 8.425145821946085
  endloop
endfacet
facet normal -0.20285962588797238 1.0574883774150748e-16 -0.9792078289028289
  outer loop
    vertex 38.98560905426717 190.5 16.974854178053914
    vertex 37.84901898119566 177.79999999999998 17.058404543961576
    vertex 37.84901898119566 190.5 17.058404543961576
  endloop
endfacet
facet normal 0.05749028347701198 -3.4024297461549094e-17 -0.9983460659038692
  outer loop
    vertex 37.84901898119566 177.79999999999998 17.058404543961576
    vertex 38.98560905426717 190.5 16.974854178053914
    vertex 38.98560905426717 177.79999999999998 16.974854178053914
  endloop
endfacet
facet normal -0.6652855038726039 4.630604459121508e-17 -0.7465890424704715
  outer loop
    vertex 41.00438702784384 190.5 15.959327788535148
    vertex 40.061846333828534 177.79999999999998 16.599979564442418
    vertex 40.061846333828534 190.5 16.599979564442425
  endloop
endfacet
facet normal -0.44938498699007173 1.5205488233272245e-16 -0.8933381965795111
  outer loop
    vertex 40.061846333828534 177.79999999999998 16.599979564442418
    vertex 41.00438702784384 190.5 15.959327788535148
    vertex 41.00438702784384 177.79999999999998 15.95932778853515
  endloop
endfacet
facet normal -0.5489610789137985 3.054089089236993e-17 0.8358479131024963
  outer loop
    vertex 40.49655821013304 177.79999999999995 9.051001454361908
    vertex 39.47046715021007 190.5 8.555063157197678
    vertex 39.47046715021007 177.79999999999998 8.55506315719768
  endloop
endfacet
facet normal -0.3139223250302251 -2.361163042268886e-19 0.9494486683584414
  outer loop
    vertex 39.47046715021007 190.5 8.555063157197678
    vertex 40.49655821013304 177.79999999999995 9.051001454361908
    vertex 40.49655821013304 190.5 9.05100145436191
  endloop
endfacet
facet normal 0.0 1.0 0.0
  outer loop
    vertex 36.65390254280422 149.225 8.580839432005968
    vertex 38.90722314971739 149.225 8.409653577252142
    vertex 37.76929432359582 149.225 8.346918861746424
  endloop
endfacet
facet normal 0.0 1.0 0.0
  outer loop
    vertex 38.90722314971739 149.225 8.409653577252142
    vertex 36.65390254280422 149.225 8.580839432005968
    vertex 39.990141052185045 149.225 8.764768311335432
  endloop
endfacet
facet normal 0.0 1.0 0.0
  outer loop
    vertex 39.990141052185045 149.225 8.764768311335432
    vertex 36.65390254280422 149.225 8.580839432005968
    vertex 35.63705991393147 149.225 9.095473987739611
  endloop
endfacet
facet normal 0.0 1.0 0.0
  outer loop
    vertex 39.990141052185045 149.225 8.764768311335432
    vertex 35.63705991393147 149.225 9.095473987739611
    vertex 40.94424896555208 149.225 9.388062581723362
  endloop
endfacet
facet normal 0.0 1.0 0.0
  outer loop
    vertex 40.94424896555208 149.225 9.388062581723362
    vertex 35.63705991393147 149.225 9.095473987739611
    vertex 34.78806258172336 149.225 9.85575103444792
  endloop
endfacet
facet normal 0.0 1.0 0.0
  outer loop
    vertex 40.94424896555208 149.225 9.388062581723362
    vertex 34.78806258172336 149.225 9.85575103444792
    vertex 41.70452601226039 149.225 10.237059913931475
  endloop
endfacet
facet normal 0.0 1.0 0.0
  outer loop
    vertex 41.70452601226039 149.225 10.237059913931475
    vertex 34.78806258172336 149.225 9.85575103444792
    vertex 34.164768311335436 149.225 10.809858947814947
  endloop
endfacet
facet normal 0.0 1.0 0.0
  outer loop
    vertex 41.70452601226039 149.225 10.237059913931475
    vertex 34.164768311335436 149.225 10.809858947814947
    vertex 42.21916056799403 149.225 11.253902542804223
  endloop
endfacet
facet normal 0.0 1.0 0.0
  outer loop
    vertex 42.21916056799403 149.225 11.253902542804223
    vertex 34.164768311335436 149.225 10.809858947814947
    vertex 33.80965357725214 149.225 11.892776850282605
  endloop
endfacet
facet normal 0.0 1.0 0.0
  outer loop
    vertex 42.21916056799403 149.225 11.253902542804223
    vertex 33.80965357725214 149.225 11.892776850282605
    vertex 42.45308113825357 149.225 12.369294323595819
  endloop
endfacet
facet normal 0.0 1.0 0.0
  outer loop
    vertex 42.45308113825357 149.225 12.369294323595819
    vertex 33.80965357725214 149.225 11.892776850282605
    vertex 33.74691886174642 149.225 13.030705676404178
  endloop
endfacet
facet normal 0.0 1.0 0.0
  outer loop
    vertex 42.45308113825357 149.225 12.369294323595819
    vertex 33.74691886174642 149.225 13.030705676404178
    vertex 42.39034642274786 149.225 13.50722314971739
  endloop
endfacet
facet normal 0.0 1.0 0.0
  outer loop
    vertex 42.39034642274786 149.225 13.50722314971739
    vertex 33.74691886174642 149.225 13.030705676404178
    vertex 33.980839432005965 149.225 14.146097457195776
  endloop
endfacet
facet normal 0.0 1.0 0.0
  outer loop
    vertex 42.39034642274786 149.225 13.50722314971739
    vertex 33.980839432005965 149.225 14.146097457195776
    vertex 42.03523168866456 149.225 14.59014105218505
  endloop
endfacet
facet normal 0.0 1.0 0.0
  outer loop
    vertex 42.03523168866456 149.225 14.59014105218505
    vertex 33.980839432005965 149.225 14.146097457195776
    vertex 34.49547398773961 149.225 15.16294008606852
  endloop
endfacet
facet normal 0.0 1.0 0.0
  outer loop
    vertex 42.03523168866456 149.225 14.59014105218505
    vertex 34.49547398773961 149.225 15.16294008606852
    vertex 41.411937418276636 149.225 15.54424896555208
  endloop
endfacet
facet normal 0.0 1.0 0.0
  outer loop
    vertex 41.411937418276636 149.225 15.54424896555208
    vertex 34.49547398773961 149.225 15.16294008606852
    vertex 35.25575103444792 149.225 16.011937418276638
  endloop
endfacet
facet normal 0.0 1.0 0.0
  outer loop
    vertex 41.411937418276636 149.225 15.54424896555208
    vertex 35.25575103444792 149.225 16.011937418276638
    vertex 40.56294008606852 149.225 16.30452601226039
  endloop
endfacet
facet normal 0.0 1.0 0.0
  outer loop
    vertex 40.56294008606852 149.225 16.30452601226039
    vertex 35.25575103444792 149.225 16.011937418276638
    vertex 36.20985894781495 149.225 16.635231688664568
  endloop
endfacet
facet normal 0.0 1.0 0.0
  outer loop
    vertex 40.56294008606852 149.225 16.30452601226039
    vertex 36.20985894781495 149.225 16.635231688664568
    vertex 39.54609745719578 149.225 16.81916056799403
  endloop
endfacet
facet normal 0.0 1.0 0.0
  outer loop
    vertex 39.54609745719578 149.225 16.81916056799403
    vertex 36.20985894781495 149.225 16.635231688664568
    vertex 37.29277685028261 149.225 16.990346422747855
  endloop
endfacet
facet normal 0.0 1.0 0.0
  outer loop
    vertex 39.54609745719578 149.225 16.81916056799403
    vertex 37.29277685028261 149.225 16.990346422747855
    vertex 38.43070567640417 149.225 17.053081138253578
  endloop
endfacet
facet normal -0.18490437216146405 0.0 0.982756517737519
  outer loop
    vertex 38.90722314971739 149.225 8.409653577252142
    vertex 37.76929432359582 174.625 8.346918861746424
    vertex 37.76929432359582 149.225 8.346918861746424
  endloop
endfacet
facet normal 0.07575219502457918 0.0 0.9971266744746918
  outer loop
    vertex 37.76929432359582 174.625 8.346918861746424
    vertex 38.90722314971739 149.225 8.409653577252142
    vertex 38.90722314971739 174.625 8.409653577252142
  endloop
endfacet
facet normal 0.07575219502457918 0.0 0.9971266744746918
  outer loop
    vertex 37.76929432359582 149.225 8.346918861746424
    vertex 36.65390254280422 174.625 8.580839432005968
    vertex 36.65390254280422 149.225 8.580839432005968
  endloop
endfacet
facet normal 0.33124637530611933 0.0 0.9435442961761561
  outer loop
    vertex 36.65390254280422 174.625 8.580839432005968
    vertex 37.76929432359582 149.225 8.346918861746424
    vertex 37.76929432359582 174.625 8.346918861746424
  endloop
endfacet
facet normal 0.33124637530611933 0.0 0.9435442961761561
  outer loop
    vertex 36.65390254280422 149.225 8.580839432005968
    vertex 35.63705991393147 174.625 9.095473987739611
    vertex 35.63705991393147 149.225 9.095473987739611
  endloop
endfacet
facet normal 0.5641666625210652 0.0 0.8256609333738897
  outer loop
    vertex 35.63705991393147 174.625 9.095473987739611
    vertex 36.65390254280422 149.225 8.580839432005968
    vertex 36.65390254280422 174.625 8.580839432005968
  endloop
endfacet
facet normal 0.5641666625210652 0.0 0.8256609333738897
  outer loop
    vertex 35.63705991393147 149.225 9.095473987739611
    vertex 34.78806258172336 174.625 9.85575103444792
    vertex 34.78806258172336 149.225 9.85575103444792
  endloop
endfacet
facet normal 0.7586399240146918 0.0 0.6515101424313998
  outer loop
    vertex 34.78806258172336 174.625 9.85575103444792
    vertex 35.63705991393147 149.225 9.095473987739611
    vertex 35.63705991393147 174.625 9.095473987739611
  endloop
endfacet
facet normal 0.7586399240146918 0.0 0.6515101424313998
  outer loop
    vertex 34.78806258172336 174.625 9.85575103444792
    vertex 34.164768311335436 149.225 10.809858947814947
    vertex 34.78806258172336 149.225 9.85575103444792
  endloop
endfacet
facet normal 0.9014131283984693 0.0 0.432960011953627
  outer loop
    vertex 34.164768311335436 149.225 10.809858947814947
    vertex 34.78806258172336 174.625 9.85575103444792
    vertex 34.164768311335436 174.625 10.809858947814947
  endloop
endfacet
facet normal 0.9014131283984693 0.0 0.432960011953627
  outer loop
    vertex 34.164768311335436 174.625 10.809858947814947
    vertex 33.80965357725214 149.225 11.892776850282605
    vertex 34.164768311335436 149.225 10.809858947814947
  endloop
endfacet
facet normal 0.9827565177375188 0.0 0.18490437216146577
  outer loop
    vertex 33.80965357725214 149.225 11.892776850282605
    vertex 34.164768311335436 174.625 10.809858947814947
    vertex 33.80965357725214 174.625 11.892776850282605
  endloop
endfacet
facet normal 0.9827565177375188 0.0 0.18490437216146577
  outer loop
    vertex 33.80965357725214 174.625 11.892776850282605
    vertex 33.74691886174642 149.225 13.030705676404178
    vertex 33.80965357725214 149.225 11.892776850282605
  endloop
endfacet
facet normal 0.997126674474692 0.0 -0.0757521950245774
  outer loop
    vertex 33.74691886174642 149.225 13.030705676404178
    vertex 33.80965357725214 174.625 11.892776850282605
    vertex 33.74691886174642 174.625 13.030705676404178
  endloop
endfacet
facet normal 0.997126674474692 0.0 -0.0757521950245774
  outer loop
    vertex 33.74691886174642 174.625 13.030705676404178
    vertex 33.980839432005965 149.225 14.146097457195776
    vertex 33.74691886174642 149.225 13.030705676404178
  endloop
endfacet
facet normal 0.9435442961761559 0.0 -0.3312463753061197
  outer loop
    vertex 33.980839432005965 149.225 14.146097457195776
    vertex 33.74691886174642 174.625 13.030705676404178
    vertex 33.980839432005965 174.625 14.146097457195776
  endloop
endfacet
facet normal 0.9435442961761559 0.0 -0.3312463753061197
  outer loop
    vertex 33.980839432005965 174.625 14.146097457195776
    vertex 34.49547398773961 149.225 15.16294008606852
    vertex 33.980839432005965 149.225 14.146097457195776
  endloop
endfacet
facet normal 0.8256609333738895 0.0 -0.5641666625210653
  outer loop
    vertex 34.49547398773961 149.225 15.16294008606852
    vertex 33.980839432005965 174.625 14.146097457195776
    vertex 34.49547398773961 174.625 15.16294008606852
  endloop
endfacet
facet normal 0.8256609333738895 0.0 -0.5641666625210653
  outer loop
    vertex 34.49547398773961 174.625 15.16294008606852
    vertex 35.25575103444792 149.225 16.011937418276638
    vertex 34.49547398773961 149.225 15.16294008606852
  endloop
endfacet
facet normal 0.6515101424314002 0.0 -0.7586399240146914
  outer loop
    vertex 35.25575103444792 149.225 16.011937418276638
    vertex 34.49547398773961 174.625 15.16294008606852
    vertex 35.25575103444792 174.625 16.011937418276638
  endloop
endfacet
facet normal 0.432960011953627 0.0 -0.9014131283984693
  outer loop
    vertex 36.20985894781495 174.625 16.635231688664568
    vertex 35.25575103444792 149.225 16.011937418276638
    vertex 35.25575103444792 174.625 16.011937418276638
  endloop
endfacet
facet normal 0.6515101424314002 0.0 -0.7586399240146914
  outer loop
    vertex 35.25575103444792 149.225 16.011937418276638
    vertex 36.20985894781495 174.625 16.635231688664568
    vertex 36.20985894781495 149.225 16.635231688664568
  endloop
endfacet
facet normal 0.1849043721614647 0.0 -0.9827565177375189
  outer loop
    vertex 37.29277685028261 174.625 16.990346422747855
    vertex 36.20985894781495 149.225 16.635231688664568
    vertex 36.20985894781495 174.625 16.635231688664568
  endloop
endfacet
facet normal 0.432960011953627 0.0 -0.9014131283984693
  outer loop
    vertex 36.20985894781495 149.225 16.635231688664568
    vertex 37.29277685028261 174.625 16.990346422747855
    vertex 37.29277685028261 149.225 16.990346422747855
  endloop
endfacet
facet normal -0.07575219502457917 0.0 -0.9971266744746918
  outer loop
    vertex 38.43070567640417 174.625 17.053081138253578
    vertex 37.29277685028261 149.225 16.990346422747855
    vertex 37.29277685028261 174.625 16.990346422747855
  endloop
endfacet
facet normal 0.1849043721614647 0.0 -0.9827565177375189
  outer loop
    vertex 37.29277685028261 149.225 16.990346422747855
    vertex 38.43070567640417 174.625 17.053081138253578
    vertex 38.43070567640417 149.225 17.053081138253578
  endloop
endfacet
facet normal -0.33124637530611867 0.0 -0.9435442961761561
  outer loop
    vertex 39.54609745719578 174.625 16.81916056799403
    vertex 38.43070567640417 149.225 17.053081138253578
    vertex 38.43070567640417 174.625 17.053081138253578
  endloop
endfacet
facet normal -0.07575219502457917 0.0 -0.9971266744746918
  outer loop
    vertex 38.43070567640417 149.225 17.053081138253578
    vertex 39.54609745719578 174.625 16.81916056799403
    vertex 39.54609745719578 149.225 16.81916056799403
  endloop
endfacet
facet normal -0.5641666625210653 0.0 -0.8256609333738895
  outer loop
    vertex 40.56294008606852 174.625 16.30452601226039
    vertex 39.54609745719578 149.225 16.81916056799403
    vertex 39.54609745719578 174.625 16.81916056799403
  endloop
endfacet
facet normal -0.33124637530611867 0.0 -0.9435442961761561
  outer loop
    vertex 39.54609745719578 149.225 16.81916056799403
    vertex 40.56294008606852 174.625 16.30452601226039
    vertex 40.56294008606852 149.225 16.30452601226039
  endloop
endfacet
facet normal -0.7586399240146933 0.0 -0.651510142431398
  outer loop
    vertex 41.411937418276636 174.625 15.54424896555208
    vertex 40.56294008606852 149.225 16.30452601226039
    vertex 40.56294008606852 174.625 16.30452601226039
  endloop
endfacet
facet normal -0.5641666625210653 0.0 -0.8256609333738895
  outer loop
    vertex 40.56294008606852 149.225 16.30452601226039
    vertex 41.411937418276636 174.625 15.54424896555208
    vertex 41.411937418276636 149.225 15.54424896555208
  endloop
endfacet
facet normal -0.7586399240146933 0.0 -0.651510142431398
  outer loop
    vertex 41.411937418276636 174.625 15.54424896555208
    vertex 42.03523168866456 149.225 14.59014105218505
    vertex 41.411937418276636 149.225 15.54424896555208
  endloop
endfacet
facet normal -0.9014131283984687 0.0 -0.4329600119536282
  outer loop
    vertex 42.03523168866456 149.225 14.59014105218505
    vertex 41.411937418276636 174.625 15.54424896555208
    vertex 42.03523168866456 174.625 14.59014105218505
  endloop
endfacet
facet normal -0.9014131283984687 0.0 -0.4329600119536282
  outer loop
    vertex 42.03523168866456 174.625 14.59014105218505
    vertex 42.39034642274786 149.225 13.50722314971739
    vertex 42.03523168866456 149.225 14.59014105218505
  endloop
endfacet
facet normal -0.9827565177375188 0.0 -0.18490437216146566
  outer loop
    vertex 42.39034642274786 149.225 13.50722314971739
    vertex 42.03523168866456 174.625 14.59014105218505
    vertex 42.39034642274786 174.625 13.50722314971739
  endloop
endfacet
facet normal -0.9827565177375188 0.0 -0.18490437216146566
  outer loop
    vertex 42.39034642274786 174.625 13.50722314971739
    vertex 42.45308113825357 149.225 12.369294323595819
    vertex 42.39034642274786 149.225 13.50722314971739
  endloop
endfacet
facet normal -0.9971266744746918 0.0 0.07575219502457992
  outer loop
    vertex 42.45308113825357 149.225 12.369294323595819
    vertex 42.39034642274786 174.625 13.50722314971739
    vertex 42.45308113825357 174.625 12.369294323595819
  endloop
endfacet
facet normal -0.9971266744746918 0.0 0.07575219502457992
  outer loop
    vertex 42.45308113825357 174.625 12.369294323595819
    vertex 42.21916056799403 149.225 11.253902542804223
    vertex 42.45308113825357 149.225 12.369294323595819
  endloop
endfacet
facet normal -0.9435442961761561 0.0 0.33124637530611933
  outer loop
    vertex 42.21916056799403 149.225 11.253902542804223
    vertex 42.45308113825357 174.625 12.369294323595819
    vertex 42.21916056799403 174.625 11.253902542804223
  endloop
endfacet
facet normal -0.9435442961761561 0.0 0.33124637530611933
  outer loop
    vertex 42.21916056799403 174.625 11.253902542804223
    vertex 41.70452601226039 149.225 10.237059913931475
    vertex 42.21916056799403 149.225 11.253902542804223
  endloop
endfacet
facet normal -0.8256609333738895 0.0 0.5641666625210655
  outer loop
    vertex 41.70452601226039 149.225 10.237059913931475
    vertex 42.21916056799403 174.625 11.253902542804223
    vertex 41.70452601226039 174.625 10.237059913931475
  endloop
endfacet
facet normal -0.8256609333738895 0.0 0.5641666625210655
  outer loop
    vertex 41.70452601226039 174.625 10.237059913931475
    vertex 40.94424896555208 149.225 9.388062581723362
    vertex 41.70452601226039 149.225 10.237059913931475
  endloop
endfacet
facet normal -0.6515101424313995 0.0 0.758639924014692
  outer loop
    vertex 40.94424896555208 149.225 9.388062581723362
    vertex 41.70452601226039 174.625 10.237059913931475
    vertex 40.94424896555208 174.625 9.388062581723362
  endloop
endfacet
facet normal -0.6515101424313995 0.0 0.758639924014692
  outer loop
    vertex 40.94424896555208 149.225 9.388062581723362
    vertex 39.990141052185045 174.625 8.764768311335432
    vertex 39.990141052185045 149.225 8.764768311335432
  endloop
endfacet
facet normal -0.432960011953627 0.0 0.9014131283984693
  outer loop
    vertex 39.990141052185045 174.625 8.764768311335432
    vertex 40.94424896555208 149.225 9.388062581723362
    vertex 40.94424896555208 174.625 9.388062581723362
  endloop
endfacet
facet normal -0.432960011953627 0.0 0.9014131283984693
  outer loop
    vertex 39.990141052185045 149.225 8.764768311335432
    vertex 38.90722314971739 174.625 8.409653577252142
    vertex 38.90722314971739 149.225 8.409653577252142
  endloop
endfacet
facet normal -0.18490437216146405 0.0 0.982756517737519
  outer loop
    vertex 38.90722314971739 174.625 8.409653577252142
    vertex 39.990141052185045 149.225 8.764768311335432
    vertex 39.990141052185045 174.625 8.764768311335432
  endloop
endfacet
endsolid Chassis
