solid Chassis Back Hollow Bottom
facet normal 0.9615239476408229 7.625043038567835e-18 -0.2747211278973787
  outer loop
    vertex 69.85000000000002 25.400000000000155 5.639932965095795e-14
    vertex 76.20000000000005 1.3535839116229907e-13 22.225000000000076
    vertex 69.85000000000002 -4.511946372076636e-14 5.639932965095795e-14
  endloop
endfacet
facet normal 0.9615239476408229 7.625043038567835e-18 -0.2747211278973787
  outer loop
    vertex 76.20000000000005 1.3535839116229907e-13 22.225000000000076
    vertex 69.85000000000002 25.400000000000155 5.639932965095795e-14
    vertex 76.20000000000005 25.400000000000087 22.225000000000076
  endloop
endfacet
facet normal -1.0 -1.8932661725303925e-30 1.0658141036401522e-15
  outer loop
    vertex 1.3535839116229907e-13 0.0 149.22499999999977
    vertex 4.511946372076636e-14 8.483130064606852 66.21740689377582
    vertex 0.0 9.023892744153272e-14 22.2250000000001
  endloop
endfacet
facet normal -1.0 -1.8932661725303925e-30 1.0658141036401522e-15
  outer loop
    vertex 4.511946372076636e-14 8.483130064606852 66.21740689377582
    vertex 1.3535839116229907e-13 0.0 149.22499999999977
    vertex 1.3535839116229907e-13 25.40000000000002 149.2249999999999
  endloop
endfacet
facet normal -1.0 -1.8932661725303925e-30 1.0658141036401522e-15
  outer loop
    vertex 0.0 9.023892744153272e-14 22.2250000000001
    vertex 4.511946372076636e-14 8.483130064606852 66.21740689377582
    vertex 4.511946372076636e-14 8.334375000000044 65.0875000000001
  endloop
endfacet
facet normal -1.0 -1.8932661725303925e-30 1.0658141036401522e-15
  outer loop
    vertex 4.511946372076636e-14 8.483130064606852 66.21740689377582
    vertex 1.3535839116229907e-13 25.40000000000002 149.2249999999999
    vertex 4.511946372076636e-14 8.919257846603598 67.27031250000006
  endloop
endfacet
facet normal -1.0 -1.8932661725303925e-30 1.0658141036401522e-15
  outer loop
    vertex 4.511946372076636e-14 8.919257846603598 67.27031250000006
    vertex 1.3535839116229907e-13 25.40000000000002 149.2249999999999
    vertex 9.023892744153272e-14 9.613036958382589 68.1744630416175
  endloop
endfacet
facet normal -1.0 -1.8932661725303925e-30 1.0658141036401522e-15
  outer loop
    vertex 9.023892744153272e-14 9.613036958382589 68.1744630416175
    vertex 1.3535839116229907e-13 25.40000000000002 149.2249999999999
    vertex 9.023892744153272e-14 10.517187499999954 68.86824215339648
  endloop
endfacet
facet normal -1.0 -1.8932661725303925e-30 1.0658141036401522e-15
  outer loop
    vertex 9.023892744153272e-14 10.517187499999954 68.86824215339648
    vertex 1.3535839116229907e-13 25.40000000000002 149.2249999999999
    vertex 4.511946372076636e-14 11.570093106224308 69.30436993539324
  endloop
endfacet
facet normal -1.0 -1.8932661725303925e-30 1.0658141036401522e-15
  outer loop
    vertex 4.511946372076636e-14 11.570093106224308 69.30436993539324
    vertex 1.3535839116229907e-13 25.40000000000002 149.2249999999999
    vertex 9.023892744153272e-14 12.7 69.453125
  endloop
endfacet
facet normal -1.0 -1.8932661725303925e-30 1.0658141036401522e-15
  outer loop
    vertex 9.023892744153272e-14 12.7 69.453125
    vertex 1.3535839116229907e-13 25.40000000000002 149.2249999999999
    vertex 4.511946372076636e-14 13.829906893775691 69.30436993539328
  endloop
endfacet
facet normal -1.0 -1.8932661725303925e-30 1.0658141036401522e-15
  outer loop
    vertex 4.511946372076636e-14 13.829906893775691 69.30436993539328
    vertex 1.3535839116229907e-13 25.40000000000002 149.2249999999999
    vertex 9.023892744153272e-14 14.882812500000089 68.86824215339648
  endloop
endfacet
facet normal -1.0 -1.8932661725303925e-30 1.0658141036401522e-15
  outer loop
    vertex 9.023892744153272e-14 14.882812500000089 68.86824215339648
    vertex 1.3535839116229907e-13 25.40000000000002 149.2249999999999
    vertex 9.023892744153272e-14 15.786963041617456 68.17446304161749
  endloop
endfacet
facet normal -1.0 -1.8932661725303925e-30 1.0658141036401522e-15
  outer loop
    vertex 9.023892744153272e-14 15.786963041617456 68.17446304161749
    vertex 1.3535839116229907e-13 25.40000000000002 149.2249999999999
    vertex 4.511946372076636e-14 16.480742153396445 67.27031250000007
  endloop
endfacet
facet normal -1.0 -1.8932661725303925e-30 1.0658141036401522e-15
  outer loop
    vertex 4.511946372076636e-14 16.480742153396445 67.27031250000007
    vertex 1.3535839116229907e-13 25.40000000000002 149.2249999999999
    vertex 4.511946372076636e-14 16.91686993539319 66.21740689377572
  endloop
endfacet
facet normal -1.0 -1.8932661725303925e-30 1.0658141036401522e-15
  outer loop
    vertex 4.511946372076636e-14 16.91686993539319 66.21740689377572
    vertex 1.3535839116229907e-13 25.40000000000002 149.2249999999999
    vertex 4.511946372076636e-14 17.065625 65.08749999999989
  endloop
endfacet
facet normal -1.0 -1.8932661725303925e-30 1.0658141036401522e-15
  outer loop
    vertex 0.0 9.023892744153272e-14 22.2250000000001
    vertex 4.511946372076636e-14 8.483130064606762 63.95759310622441
    vertex 0.0 25.400000000000112 22.225000000000055
  endloop
endfacet
facet normal -1.0 -1.8932661725303925e-30 1.0658141036401522e-15
  outer loop
    vertex 4.511946372076636e-14 8.483130064606762 63.95759310622441
    vertex 0.0 9.023892744153272e-14 22.2250000000001
    vertex 4.511946372076636e-14 8.334375000000044 65.0875000000001
  endloop
endfacet
facet normal -1.0 -1.8932661725303925e-30 1.0658141036401522e-15
  outer loop
    vertex 0.0 25.400000000000112 22.225000000000055
    vertex 4.511946372076636e-14 8.483130064606762 63.95759310622441
    vertex 4.511946372076636e-14 8.919257846603552 62.90468750000003
  endloop
endfacet
facet normal -1.0 -1.8932661725303925e-30 1.0658141036401522e-15
  outer loop
    vertex 0.0 25.400000000000112 22.225000000000055
    vertex 4.511946372076636e-14 8.919257846603552 62.90468750000003
    vertex 4.511946372076636e-14 9.613036958382542 62.000536958382476
  endloop
endfacet
facet normal -1.0 -1.8932661725303925e-30 1.0658141036401522e-15
  outer loop
    vertex 0.0 25.400000000000112 22.225000000000055
    vertex 4.511946372076636e-14 9.613036958382542 62.000536958382476
    vertex 4.511946372076636e-14 10.517187500000045 61.3067578466036
  endloop
endfacet
facet normal -1.0 -1.8932661725303925e-30 1.0658141036401522e-15
  outer loop
    vertex 0.0 25.400000000000112 22.225000000000055
    vertex 4.511946372076636e-14 10.517187500000045 61.3067578466036
    vertex 4.511946372076636e-14 11.570093106224263 60.87063006460681
  endloop
endfacet
facet normal -1.0 -1.8932661725303925e-30 1.0658141036401522e-15
  outer loop
    vertex 0.0 25.400000000000112 22.225000000000055
    vertex 4.511946372076636e-14 11.570093106224263 60.87063006460681
    vertex 4.511946372076636e-14 12.699999999999955 60.72187500000002
  endloop
endfacet
facet normal -1.0 -1.8932661725303925e-30 1.0658141036401522e-15
  outer loop
    vertex 0.0 25.400000000000112 22.225000000000055
    vertex 4.511946372076636e-14 12.699999999999955 60.72187500000002
    vertex 4.511946372076636e-14 13.829906893775691 60.870630064606814
  endloop
endfacet
facet normal -1.0 -1.8932661725303925e-30 1.0658141036401522e-15
  outer loop
    vertex 0.0 25.400000000000112 22.225000000000055
    vertex 4.511946372076636e-14 13.829906893775691 60.870630064606814
    vertex 4.511946372076636e-14 14.882812500000044 61.30675784660365
  endloop
endfacet
facet normal -1.0 -1.8932661725303925e-30 1.0658141036401522e-15
  outer loop
    vertex 0.0 25.400000000000112 22.225000000000055
    vertex 4.511946372076636e-14 14.882812500000044 61.30675784660365
    vertex 4.511946372076636e-14 15.786963041617545 62.00053695838256
  endloop
endfacet
facet normal -1.0 -1.8932661725303925e-30 1.0658141036401522e-15
  outer loop
    vertex 0.0 25.400000000000112 22.225000000000055
    vertex 4.511946372076636e-14 15.786963041617545 62.00053695838256
    vertex 4.511946372076636e-14 16.480742153396402 62.90468750000007
  endloop
endfacet
facet normal -1.0 -1.8932661725303925e-30 1.0658141036401522e-15
  outer loop
    vertex 0.0 25.400000000000112 22.225000000000055
    vertex 4.511946372076636e-14 16.480742153396402 62.90468750000007
    vertex 4.511946372076636e-14 16.916869935393237 63.95759310622437
  endloop
endfacet
facet normal -1.0 -1.8932661725303925e-30 1.0658141036401522e-15
  outer loop
    vertex 0.0 25.400000000000112 22.225000000000055
    vertex 4.511946372076636e-14 16.916869935393237 63.95759310622437
    vertex 4.511946372076636e-14 17.065625 65.08749999999989
  endloop
endfacet
facet normal -1.0 -1.8932661725303925e-30 1.0658141036401522e-15
  outer loop
    vertex 0.0 25.400000000000112 22.225000000000055
    vertex 4.511946372076636e-14 17.065625 65.08749999999989
    vertex 1.3535839116229907e-13 25.40000000000002 149.2249999999999
  endloop
endfacet
facet normal 1.0 -0.0 -0.0
  outer loop
    vertex 76.20000000000005 1.3535839116229907e-13 22.225000000000076
    vertex 76.2000000000001 8.483130064606762 63.95759310622427
    vertex 76.20000000000009 8.334375000000044 65.08749999999998
  endloop
endfacet
facet normal 1.0 -0.0 -0.0
  outer loop
    vertex 76.2000000000001 8.483130064606762 63.95759310622427
    vertex 76.20000000000005 1.3535839116229907e-13 22.225000000000076
    vertex 76.20000000000005 25.400000000000087 22.225000000000076
  endloop
endfacet
facet normal 1.0 -0.0 -0.0
  outer loop
    vertex 76.2000000000001 8.483130064606762 63.95759310622427
    vertex 76.20000000000005 25.400000000000087 22.225000000000076
    vertex 76.2000000000001 8.919257846603642 62.90468749999991
  endloop
endfacet
facet normal 1.0 -0.0 -0.0
  outer loop
    vertex 76.2000000000001 8.919257846603642 62.90468749999991
    vertex 76.20000000000005 25.400000000000087 22.225000000000076
    vertex 76.2000000000001 9.613036958382498 62.000536958382504
  endloop
endfacet
facet normal 1.0 -0.0 -0.0
  outer loop
    vertex 76.2000000000001 9.613036958382498 62.000536958382504
    vertex 76.20000000000005 25.400000000000087 22.225000000000076
    vertex 76.20000000000009 10.517187499999999 61.3067578466035
  endloop
endfacet
facet normal 1.0 -0.0 -0.0
  outer loop
    vertex 76.20000000000009 10.517187499999999 61.3067578466035
    vertex 76.20000000000005 25.400000000000087 22.225000000000076
    vertex 76.2000000000001 11.570093106224308 60.87063006460672
  endloop
endfacet
facet normal 1.0 -0.0 -0.0
  outer loop
    vertex 76.2000000000001 11.570093106224308 60.87063006460672
    vertex 76.20000000000005 25.400000000000087 22.225000000000076
    vertex 76.20000000000006 12.699999999999955 60.72187499999992
  endloop
endfacet
facet normal 1.0 -0.0 -0.0
  outer loop
    vertex 76.20000000000006 12.699999999999955 60.72187499999992
    vertex 76.20000000000005 25.400000000000087 22.225000000000076
    vertex 76.2000000000001 13.829906893775691 60.87063006460678
  endloop
endfacet
facet normal 1.0 -0.0 -0.0
  outer loop
    vertex 76.2000000000001 13.829906893775691 60.87063006460678
    vertex 76.20000000000005 25.400000000000087 22.225000000000076
    vertex 76.20000000000009 14.882812500000089 61.30675784660352
  endloop
endfacet
facet normal 1.0 -0.0 -0.0
  outer loop
    vertex 76.20000000000009 14.882812500000089 61.30675784660352
    vertex 76.20000000000005 25.400000000000087 22.225000000000076
    vertex 76.2000000000001 15.786963041617545 62.00053695838239
  endloop
endfacet
facet normal 1.0 -0.0 -0.0
  outer loop
    vertex 76.2000000000001 15.786963041617545 62.00053695838239
    vertex 76.20000000000005 25.400000000000087 22.225000000000076
    vertex 76.2000000000001 16.480742153396445 62.90468749999997
  endloop
endfacet
facet normal 1.0 -0.0 -0.0
  outer loop
    vertex 76.2000000000001 16.480742153396445 62.90468749999997
    vertex 76.20000000000005 25.400000000000087 22.225000000000076
    vertex 76.2000000000001 16.916869935393237 63.95759310622428
  endloop
endfacet
facet normal 1.0 -0.0 -0.0
  outer loop
    vertex 76.2000000000001 16.916869935393237 63.95759310622428
    vertex 76.20000000000005 25.400000000000087 22.225000000000076
    vertex 76.20000000000009 17.065625 65.08749999999998
  endloop
endfacet
facet normal 1.0 -0.0 -0.0
  outer loop
    vertex 76.20000000000009 17.065625 65.08749999999998
    vertex 76.20000000000005 25.400000000000087 22.225000000000076
    vertex 76.20000000000005 25.4 149.22499999999985
  endloop
endfacet
facet normal 1.0 -0.0 -0.0
  outer loop
    vertex 76.20000000000005 0.0 149.2249999999997
    vertex 76.20000000000006 8.483130064606808 66.21740689377576
    vertex 76.20000000000005 25.4 149.22499999999985
  endloop
endfacet
facet normal 1.0 -0.0 -0.0
  outer loop
    vertex 76.20000000000006 8.483130064606808 66.21740689377576
    vertex 76.20000000000005 0.0 149.2249999999997
    vertex 76.20000000000005 1.3535839116229907e-13 22.225000000000076
  endloop
endfacet
facet normal 1.0 -0.0 -0.0
  outer loop
    vertex 76.20000000000006 8.483130064606808 66.21740689377576
    vertex 76.20000000000005 1.3535839116229907e-13 22.225000000000076
    vertex 76.20000000000009 8.334375000000044 65.08749999999998
  endloop
endfacet
facet normal 1.0 -0.0 -0.0
  outer loop
    vertex 76.20000000000005 25.4 149.22499999999985
    vertex 76.20000000000006 8.483130064606808 66.21740689377576
    vertex 76.20000000000006 8.919257846603642 67.27031250000002
  endloop
endfacet
facet normal 1.0 -0.0 -0.0
  outer loop
    vertex 76.20000000000005 25.4 149.22499999999985
    vertex 76.20000000000006 8.919257846603642 67.27031250000002
    vertex 76.20000000000009 9.613036958382498 68.17446304161757
  endloop
endfacet
facet normal 1.0 -0.0 -0.0
  outer loop
    vertex 76.20000000000005 25.4 149.22499999999985
    vertex 76.20000000000009 9.613036958382498 68.17446304161757
    vertex 76.2000000000001 10.517187499999954 68.86824215339644
  endloop
endfacet
facet normal 1.0 -0.0 -0.0
  outer loop
    vertex 76.20000000000005 25.4 149.22499999999985
    vertex 76.2000000000001 10.517187499999954 68.86824215339644
    vertex 76.20000000000009 11.570093106224308 69.30436993539318
  endloop
endfacet
facet normal 1.0 -0.0 -0.0
  outer loop
    vertex 76.20000000000005 25.4 149.22499999999985
    vertex 76.20000000000009 11.570093106224308 69.30436993539318
    vertex 76.20000000000009 12.699999999999955 69.45312499999996
  endloop
endfacet
facet normal 1.0 -0.0 -0.0
  outer loop
    vertex 76.20000000000005 25.4 149.22499999999985
    vertex 76.20000000000009 12.699999999999955 69.45312499999996
    vertex 76.20000000000009 13.829906893775691 69.30436993539321
  endloop
endfacet
facet normal 1.0 -0.0 -0.0
  outer loop
    vertex 76.20000000000005 25.4 149.22499999999985
    vertex 76.20000000000009 13.829906893775691 69.30436993539321
    vertex 76.2000000000001 14.882812500000044 68.86824215339642
  endloop
endfacet
facet normal 1.0 -0.0 -0.0
  outer loop
    vertex 76.20000000000005 25.4 149.22499999999985
    vertex 76.2000000000001 14.882812500000044 68.86824215339642
    vertex 76.20000000000009 15.7869630416175 68.17446304161746
  endloop
endfacet
facet normal 1.0 -0.0 -0.0
  outer loop
    vertex 76.20000000000005 25.4 149.22499999999985
    vertex 76.20000000000009 15.7869630416175 68.17446304161746
    vertex 76.20000000000006 16.480742153396445 67.27031250000002
  endloop
endfacet
facet normal 1.0 -0.0 -0.0
  outer loop
    vertex 76.20000000000005 25.4 149.22499999999985
    vertex 76.20000000000006 16.480742153396445 67.27031250000002
    vertex 76.20000000000006 16.916869935393148 66.21740689377566
  endloop
endfacet
facet normal 1.0 -0.0 -0.0
  outer loop
    vertex 76.20000000000005 25.4 149.22499999999985
    vertex 76.20000000000006 16.916869935393148 66.21740689377566
    vertex 76.20000000000009 17.065625 65.08749999999998
  endloop
endfacet
facet normal 5.921189464667501e-16 -5.329070518200749e-15 1.0
  outer loop
    vertex 1.3535839116229907e-13 0.0 149.22499999999977
    vertex 3.17500000000009 3.17500000000009 149.22499999999982
    vertex 1.3535839116229907e-13 25.40000000000002 149.2249999999999
  endloop
endfacet
facet normal 5.921189464667501e-16 -5.329070518200749e-15 1.0
  outer loop
    vertex 3.17500000000009 3.17500000000009 149.22499999999982
    vertex 1.3535839116229907e-13 0.0 149.22499999999977
    vertex 76.20000000000005 0.0 149.2249999999997
  endloop
endfacet
facet normal 5.921189464667501e-16 -5.329070518200749e-15 1.0
  outer loop
    vertex 3.17500000000009 3.17500000000009 149.22499999999982
    vertex 76.20000000000005 0.0 149.2249999999997
    vertex 73.02500000000009 3.175000000000045 149.2249999999997
  endloop
endfacet
facet normal 5.921189464667501e-16 -5.329070518200749e-15 1.0
  outer loop
    vertex 73.02500000000009 3.175000000000045 149.2249999999997
    vertex 76.20000000000005 0.0 149.2249999999997
    vertex 73.02500000000009 22.22499999999997 149.22499999999982
  endloop
endfacet
facet normal 5.921189464667501e-16 -5.329070518200749e-15 1.0
  outer loop
    vertex 1.3535839116229907e-13 25.40000000000002 149.2249999999999
    vertex 3.17500000000009 22.22499999999997 149.22500000000008
    vertex 76.20000000000005 25.4 149.22499999999985
  endloop
endfacet
facet normal 5.921189464667501e-16 -5.329070518200749e-15 1.0
  outer loop
    vertex 3.17500000000009 22.22499999999997 149.22500000000008
    vertex 1.3535839116229907e-13 25.40000000000002 149.2249999999999
    vertex 3.17500000000009 3.17500000000009 149.22499999999982
  endloop
endfacet
facet normal 5.921189464667501e-16 -5.329070518200749e-15 1.0
  outer loop
    vertex 76.20000000000005 25.4 149.22499999999985
    vertex 3.17500000000009 22.22499999999997 149.22500000000008
    vertex 73.02500000000009 22.22499999999997 149.22499999999982
  endloop
endfacet
facet normal 5.921189464667501e-16 -5.329070518200749e-15 1.0
  outer loop
    vertex 76.20000000000005 25.4 149.22499999999985
    vertex 73.02500000000009 22.22499999999997 149.22499999999982
    vertex 76.20000000000005 0.0 149.2249999999997
  endloop
endfacet
facet normal 2.1975548528662928e-16 1.0 8.89559723618789e-16
  outer loop
    vertex 6.35 25.400000000000155 1.127986593019159e-13
    vertex 76.20000000000005 25.400000000000087 22.225000000000076
    vertex 69.85000000000002 25.400000000000155 5.639932965095795e-14
  endloop
endfacet
facet normal 2.1975548528662928e-16 1.0 8.89559723618789e-16
  outer loop
    vertex 76.20000000000005 25.400000000000087 22.225000000000076
    vertex 6.35 25.400000000000155 1.127986593019159e-13
    vertex 0.0 25.400000000000112 22.225000000000055
  endloop
endfacet
facet normal 2.1975548528662928e-16 1.0 8.89559723618789e-16
  outer loop
    vertex 76.20000000000005 25.400000000000087 22.225000000000076
    vertex 0.0 25.400000000000112 22.225000000000055
    vertex 1.3535839116229907e-13 25.40000000000002 149.2249999999999
  endloop
endfacet
facet normal 2.1975548528662928e-16 1.0 8.89559723618789e-16
  outer loop
    vertex 76.20000000000005 25.400000000000087 22.225000000000076
    vertex 1.3535839116229907e-13 25.40000000000002 149.2249999999999
    vertex 76.20000000000005 25.4 149.22499999999985
  endloop
endfacet
facet normal 3.6625914214438104e-17 -1.0 -2.0443297996208158e-16
  outer loop
    vertex 69.85000000000002 -4.511946372076636e-14 5.639932965095795e-14
    vertex 0.0 9.023892744153272e-14 22.2250000000001
    vertex 6.35 0.0 0.0
  endloop
endfacet
facet normal 3.6625914214438104e-17 -1.0 -2.0443297996208158e-16
  outer loop
    vertex 0.0 9.023892744153272e-14 22.2250000000001
    vertex 69.85000000000002 -4.511946372076636e-14 5.639932965095795e-14
    vertex 76.20000000000005 1.3535839116229907e-13 22.225000000000076
  endloop
endfacet
facet normal 3.6625914214438104e-17 -1.0 -2.0443297996208158e-16
  outer loop
    vertex 0.0 9.023892744153272e-14 22.2250000000001
    vertex 76.20000000000005 1.3535839116229907e-13 22.225000000000076
    vertex 76.20000000000005 0.0 149.2249999999997
  endloop
endfacet
facet normal 3.6625914214438104e-17 -1.0 -2.0443297996208158e-16
  outer loop
    vertex 0.0 9.023892744153272e-14 22.2250000000001
    vertex 76.20000000000005 0.0 149.2249999999997
    vertex 1.3535839116229907e-13 0.0 149.22499999999977
  endloop
endfacet
facet normal 7.88860905221005e-31 2.2204460492502953e-15 -1.0
  outer loop
    vertex 69.85000000000002 25.400000000000155 5.639932965095795e-14
    vertex 6.35 0.0 0.0
    vertex 6.35 25.400000000000155 1.127986593019159e-13
  endloop
endfacet
facet normal 7.88860905221005e-31 2.2204460492502953e-15 -1.0
  outer loop
    vertex 6.35 0.0 0.0
    vertex 69.85000000000002 25.400000000000155 5.639932965095795e-14
    vertex 69.85000000000002 -4.511946372076636e-14 5.639932965095795e-14
  endloop
endfacet
facet normal -0.9615239476408232 3.660020658511907e-16 -0.27472112789737774
  outer loop
    vertex 0.0 9.023892744153272e-14 22.2250000000001
    vertex 6.35 25.400000000000155 1.127986593019159e-13
    vertex 6.35 0.0 0.0
  endloop
endfacet
facet normal -0.9615239476408232 3.660020658511907e-16 -0.27472112789737774
  outer loop
    vertex 6.35 25.400000000000155 1.127986593019159e-13
    vertex 0.0 9.023892744153272e-14 22.2250000000001
    vertex 0.0 25.400000000000112 22.225000000000055
  endloop
endfacet
facet normal 0.9615239476408242 -1.2267847022048963e-15 0.27472112789737424
  outer loop
    vertex 8.74490698549509 22.225000000000016 3.1750000000000456
    vertex 3.175000000000045 3.17500000000009 22.66967444923291
    vertex 8.74490698549509 3.175000000000045 3.1750000000000007
  endloop
endfacet
facet normal 0.9615239476408242 -1.2267847022048963e-15 0.27472112789737424
  outer loop
    vertex 3.175000000000045 3.17500000000009 22.66967444923291
    vertex 8.74490698549509 22.225000000000016 3.1750000000000456
    vertex 3.175000000000045 22.225000000000104 22.669674449233035
  endloop
endfacet
facet normal 1.0 3.699903755657154e-30 -3.5651967646882566e-16
  outer loop
    vertex 3.175000000000045 3.17500000000009 22.66967444923291
    vertex 3.175000000000045 8.33437500000009 65.0875000000002
    vertex 3.17500000000009 3.17500000000009 149.22499999999982
  endloop
endfacet
facet normal 1.0 3.699903755657154e-30 -3.5651967646882566e-16
  outer loop
    vertex 3.175000000000045 8.33437500000009 65.0875000000002
    vertex 3.175000000000045 3.17500000000009 22.66967444923291
    vertex 3.175000000000045 8.483130064606808 63.95759310622431
  endloop
endfacet
facet normal 1.0 3.699903755657154e-30 -3.5651967646882566e-16
  outer loop
    vertex 3.175000000000045 8.483130064606808 63.95759310622431
    vertex 3.175000000000045 3.17500000000009 22.66967444923291
    vertex 3.175000000000045 22.225000000000104 22.669674449233035
  endloop
endfacet
facet normal 1.0 3.699903755657154e-30 -3.5651967646882566e-16
  outer loop
    vertex 3.175000000000045 8.483130064606808 63.95759310622431
    vertex 3.175000000000045 22.225000000000104 22.669674449233035
    vertex 3.175000000000045 8.919257846603552 62.90468749999999
  endloop
endfacet
facet normal 1.0 3.699903755657154e-30 -3.5651967646882566e-16
  outer loop
    vertex 3.175000000000045 8.919257846603552 62.90468749999999
    vertex 3.175000000000045 22.225000000000104 22.669674449233035
    vertex 3.175000000000045 9.613036958382454 62.0005369583825
  endloop
endfacet
facet normal 1.0 3.699903755657154e-30 -3.5651967646882566e-16
  outer loop
    vertex 3.175000000000045 9.613036958382454 62.0005369583825
    vertex 3.175000000000045 22.225000000000104 22.669674449233035
    vertex 3.175000000000045 10.517187499999999 61.30675784660358
  endloop
endfacet
facet normal 1.0 3.699903755657154e-30 -3.5651967646882566e-16
  outer loop
    vertex 3.175000000000045 10.517187499999999 61.30675784660358
    vertex 3.175000000000045 22.225000000000104 22.669674449233035
    vertex 3.175000000000045 11.570093106224263 60.87063006460681
  endloop
endfacet
facet normal 1.0 3.699903755657154e-30 -3.5651967646882566e-16
  outer loop
    vertex 3.175000000000045 11.570093106224263 60.87063006460681
    vertex 3.175000000000045 22.225000000000104 22.669674449233035
    vertex 3.175000000000045 12.699999999999955 60.72187499999996
  endloop
endfacet
facet normal 1.0 3.699903755657154e-30 -3.5651967646882566e-16
  outer loop
    vertex 3.175000000000045 12.699999999999955 60.72187499999996
    vertex 3.175000000000045 22.225000000000104 22.669674449233035
    vertex 3.175000000000045 13.829906893775691 60.87063006460679
  endloop
endfacet
facet normal 1.0 3.699903755657154e-30 -3.5651967646882566e-16
  outer loop
    vertex 3.175000000000045 13.829906893775691 60.87063006460679
    vertex 3.175000000000045 22.225000000000104 22.669674449233035
    vertex 3.175000000000045 14.882812500000044 61.306757846603595
  endloop
endfacet
facet normal 1.0 3.699903755657154e-30 -3.5651967646882566e-16
  outer loop
    vertex 3.175000000000045 14.882812500000044 61.306757846603595
    vertex 3.175000000000045 22.225000000000104 22.669674449233035
    vertex 3.175000000000045 15.786963041617545 62.00053695838256
  endloop
endfacet
facet normal 1.0 3.699903755657154e-30 -3.5651967646882566e-16
  outer loop
    vertex 3.175000000000045 15.786963041617545 62.00053695838256
    vertex 3.175000000000045 22.225000000000104 22.669674449233035
    vertex 3.175000000000045 16.480742153396402 62.904687500000065
  endloop
endfacet
facet normal 1.0 3.699903755657154e-30 -3.5651967646882566e-16
  outer loop
    vertex 3.175000000000045 16.480742153396402 62.904687500000065
    vertex 3.175000000000045 22.225000000000104 22.669674449233035
    vertex 3.175000000000045 16.916869935393237 63.95759310622435
  endloop
endfacet
facet normal 1.0 3.699903755657154e-30 -3.5651967646882566e-16
  outer loop
    vertex 3.175000000000045 16.916869935393237 63.95759310622435
    vertex 3.175000000000045 22.225000000000104 22.669674449233035
    vertex 3.175000000000045 17.065624999999955 65.0875
  endloop
endfacet
facet normal 1.0 3.699903755657154e-30 -3.5651967646882566e-16
  outer loop
    vertex 3.175000000000045 17.065624999999955 65.0875
    vertex 3.175000000000045 22.225000000000104 22.669674449233035
    vertex 3.17500000000009 22.22499999999997 149.22500000000008
  endloop
endfacet
facet normal 1.0 3.699903755657154e-30 -3.5651967646882566e-16
  outer loop
    vertex 3.17500000000009 3.17500000000009 149.22499999999982
    vertex 3.175000000000045 8.483130064606852 66.21740689377577
    vertex 3.17500000000009 22.22499999999997 149.22500000000008
  endloop
endfacet
facet normal 1.0 3.699903755657154e-30 -3.5651967646882566e-16
  outer loop
    vertex 3.175000000000045 8.483130064606852 66.21740689377577
    vertex 3.17500000000009 3.17500000000009 149.22499999999982
    vertex 3.175000000000045 8.33437500000009 65.0875000000002
  endloop
endfacet
facet normal 1.0 3.699903755657154e-30 -3.5651967646882566e-16
  outer loop
    vertex 3.17500000000009 22.22499999999997 149.22500000000008
    vertex 3.175000000000045 8.483130064606852 66.21740689377577
    vertex 3.175000000000045 8.919257846603598 67.27031250000006
  endloop
endfacet
facet normal 1.0 3.699903755657154e-30 -3.5651967646882566e-16
  outer loop
    vertex 3.17500000000009 22.22499999999997 149.22500000000008
    vertex 3.175000000000045 8.919257846603598 67.27031250000006
    vertex 3.175000000000045 9.613036958382542 68.17446304161761
  endloop
endfacet
facet normal 1.0 3.699903755657154e-30 -3.5651967646882566e-16
  outer loop
    vertex 3.17500000000009 22.22499999999997 149.22500000000008
    vertex 3.175000000000045 9.613036958382542 68.17446304161761
    vertex 3.175000000000045 10.517187499999954 68.86824215339645
  endloop
endfacet
facet normal 1.0 3.699903755657154e-30 -3.5651967646882566e-16
  outer loop
    vertex 3.17500000000009 22.22499999999997 149.22500000000008
    vertex 3.175000000000045 10.517187499999954 68.86824215339645
    vertex 3.175000000000045 11.570093106224354 69.30436993539321
  endloop
endfacet
facet normal 1.0 3.699903755657154e-30 -3.5651967646882566e-16
  outer loop
    vertex 3.17500000000009 22.22499999999997 149.22500000000008
    vertex 3.175000000000045 11.570093106224354 69.30436993539321
    vertex 3.175000000000045 12.7 69.453125
  endloop
endfacet
facet normal 1.0 3.699903755657154e-30 -3.5651967646882566e-16
  outer loop
    vertex 3.17500000000009 22.22499999999997 149.22500000000008
    vertex 3.175000000000045 12.7 69.453125
    vertex 3.175000000000045 13.829906893775691 69.30436993539324
  endloop
endfacet
facet normal 1.0 3.699903755657154e-30 -3.5651967646882566e-16
  outer loop
    vertex 3.17500000000009 22.22499999999997 149.22500000000008
    vertex 3.175000000000045 13.829906893775691 69.30436993539324
    vertex 3.175000000000045 14.882812500000044 68.86824215339644
  endloop
endfacet
facet normal 1.0 3.699903755657154e-30 -3.5651967646882566e-16
  outer loop
    vertex 3.17500000000009 22.22499999999997 149.22500000000008
    vertex 3.175000000000045 14.882812500000044 68.86824215339644
    vertex 3.175000000000045 15.7869630416175 68.17446304161751
  endloop
endfacet
facet normal 1.0 3.699903755657154e-30 -3.5651967646882566e-16
  outer loop
    vertex 3.17500000000009 22.22499999999997 149.22500000000008
    vertex 3.175000000000045 15.7869630416175 68.17446304161751
    vertex 3.175000000000045 16.48074215339649 67.2703125000001
  endloop
endfacet
facet normal 1.0 3.699903755657154e-30 -3.5651967646882566e-16
  outer loop
    vertex 3.17500000000009 22.22499999999997 149.22500000000008
    vertex 3.175000000000045 16.48074215339649 67.2703125000001
    vertex 3.175000000000045 16.91686993539319 66.21740689377572
  endloop
endfacet
facet normal 1.0 3.699903755657154e-30 -3.5651967646882566e-16
  outer loop
    vertex 3.17500000000009 22.22499999999997 149.22500000000008
    vertex 3.175000000000045 16.91686993539319 66.21740689377572
    vertex 3.175000000000045 17.065624999999955 65.0875
  endloop
endfacet
facet normal 2.3866800624446467e-16 1.0 -3.497197094666057e-17
  outer loop
    vertex 8.74490698549509 3.175000000000045 3.1750000000000007
    vertex 73.02500000000003 3.17500000000009 22.669674449232854
    vertex 67.45509301450495 3.175000000000045 3.1749999999997973
  endloop
endfacet
facet normal 2.3866800624446467e-16 1.0 -3.497197094666057e-17
  outer loop
    vertex 73.02500000000003 3.17500000000009 22.669674449232854
    vertex 8.74490698549509 3.175000000000045 3.1750000000000007
    vertex 3.175000000000045 3.17500000000009 22.66967444923291
  endloop
endfacet
facet normal 2.3866800624446467e-16 1.0 -3.497197094666057e-17
  outer loop
    vertex 73.02500000000003 3.17500000000009 22.669674449232854
    vertex 3.175000000000045 3.17500000000009 22.66967444923291
    vertex 73.02500000000009 3.175000000000045 149.2249999999997
  endloop
endfacet
facet normal 2.3866800624446467e-16 1.0 -3.497197094666057e-17
  outer loop
    vertex 73.02500000000009 3.175000000000045 149.2249999999997
    vertex 3.175000000000045 3.17500000000009 22.66967444923291
    vertex 3.17500000000009 3.17500000000009 149.22499999999982
  endloop
endfacet
facet normal -1.0 -5.921189464667553e-16 4.456495955860325e-16
  outer loop
    vertex 73.02500000000009 3.175000000000045 149.2249999999997
    vertex 73.02500000000006 8.33437500000009 65.08750000000005
    vertex 73.02500000000003 3.17500000000009 22.669674449232854
  endloop
endfacet
facet normal -1.0 -5.921189464667553e-16 4.456495955860325e-16
  outer loop
    vertex 73.02500000000006 8.33437500000009 65.08750000000005
    vertex 73.02500000000009 3.175000000000045 149.2249999999997
    vertex 73.0250000000001 8.483130064606852 66.21740689377572
  endloop
endfacet
facet normal -1.0 -5.921189464667553e-16 4.456495955860325e-16
  outer loop
    vertex 73.0250000000001 8.483130064606852 66.21740689377572
    vertex 73.02500000000009 3.175000000000045 149.2249999999997
    vertex 73.02500000000009 22.22499999999997 149.22499999999982
  endloop
endfacet
facet normal -1.0 -5.921189464667553e-16 4.456495955860325e-16
  outer loop
    vertex 73.0250000000001 8.483130064606852 66.21740689377572
    vertex 73.02500000000009 22.22499999999997 149.22499999999982
    vertex 73.02500000000003 8.919257846603642 67.27031250000002
  endloop
endfacet
facet normal -1.0 -5.921189464667553e-16 4.456495955860325e-16
  outer loop
    vertex 73.02500000000003 8.919257846603642 67.27031250000002
    vertex 73.02500000000009 22.22499999999997 149.22499999999982
    vertex 73.02500000000006 9.613036958382589 68.17446304161757
  endloop
endfacet
facet normal -1.0 -5.921189464667553e-16 4.456495955860325e-16
  outer loop
    vertex 73.02500000000006 9.613036958382589 68.17446304161757
    vertex 73.02500000000009 22.22499999999997 149.22499999999982
    vertex 73.02500000000009 10.517187499999954 68.86824215339644
  endloop
endfacet
facet normal -1.0 -5.921189464667553e-16 4.456495955860325e-16
  outer loop
    vertex 73.02500000000009 10.517187499999954 68.86824215339644
    vertex 73.02500000000009 22.22499999999997 149.22499999999982
    vertex 73.02500000000003 11.570093106224308 69.30436993539315
  endloop
endfacet
facet normal -1.0 -5.921189464667553e-16 4.456495955860325e-16
  outer loop
    vertex 73.02500000000003 11.570093106224308 69.30436993539315
    vertex 73.02500000000009 22.22499999999997 149.22499999999982
    vertex 73.02500000000003 12.699999999999955 69.45312499999996
  endloop
endfacet
facet normal -1.0 -5.921189464667553e-16 4.456495955860325e-16
  outer loop
    vertex 73.02500000000003 12.699999999999955 69.45312499999996
    vertex 73.02500000000009 22.22499999999997 149.22499999999982
    vertex 73.02500000000003 13.829906893775691 69.30436993539317
  endloop
endfacet
facet normal -1.0 -5.921189464667553e-16 4.456495955860325e-16
  outer loop
    vertex 73.02500000000003 13.829906893775691 69.30436993539317
    vertex 73.02500000000009 22.22499999999997 149.22499999999982
    vertex 73.02500000000009 14.882812500000044 68.86824215339642
  endloop
endfacet
facet normal -1.0 -5.921189464667553e-16 4.456495955860325e-16
  outer loop
    vertex 73.02500000000009 14.882812500000044 68.86824215339642
    vertex 73.02500000000009 22.22499999999997 149.22499999999982
    vertex 73.02500000000006 15.7869630416175 68.17446304161743
  endloop
endfacet
facet normal -1.0 -5.921189464667553e-16 4.456495955860325e-16
  outer loop
    vertex 73.02500000000006 15.7869630416175 68.17446304161743
    vertex 73.02500000000009 22.22499999999997 149.22499999999982
    vertex 73.02500000000003 16.480742153396445 67.27031250000002
  endloop
endfacet
facet normal -1.0 -5.921189464667553e-16 4.456495955860325e-16
  outer loop
    vertex 73.02500000000003 16.480742153396445 67.27031250000002
    vertex 73.02500000000009 22.22499999999997 149.22499999999982
    vertex 73.0250000000001 16.91686993539319 66.2174068937756
  endloop
endfacet
facet normal -1.0 -5.921189464667553e-16 4.456495955860325e-16
  outer loop
    vertex 73.0250000000001 16.91686993539319 66.2174068937756
    vertex 73.02500000000009 22.22499999999997 149.22499999999982
    vertex 73.02500000000006 17.065625 65.0874999999999
  endloop
endfacet
facet normal -1.0 -5.921189464667553e-16 4.456495955860325e-16
  outer loop
    vertex 73.02500000000003 3.17500000000009 22.669674449232854
    vertex 73.0250000000001 8.483130064606762 63.95759310622427
    vertex 73.02500000000002 22.225000000000062 22.66967444923301
  endloop
endfacet
facet normal -1.0 -5.921189464667553e-16 4.456495955860325e-16
  outer loop
    vertex 73.0250000000001 8.483130064606762 63.95759310622427
    vertex 73.02500000000003 3.17500000000009 22.669674449232854
    vertex 73.02500000000006 8.33437500000009 65.08750000000005
  endloop
endfacet
facet normal -1.0 -5.921189464667553e-16 4.456495955860325e-16
  outer loop
    vertex 73.02500000000002 22.225000000000062 22.66967444923301
    vertex 73.0250000000001 8.483130064606762 63.95759310622427
    vertex 73.02500000000003 8.919257846603642 62.90468749999991
  endloop
endfacet
facet normal -1.0 -5.921189464667553e-16 4.456495955860325e-16
  outer loop
    vertex 73.02500000000002 22.225000000000062 22.66967444923301
    vertex 73.02500000000003 8.919257846603642 62.90468749999991
    vertex 73.02500000000006 9.613036958382498 62.000536958382426
  endloop
endfacet
facet normal -1.0 -5.921189464667553e-16 4.456495955860325e-16
  outer loop
    vertex 73.02500000000002 22.225000000000062 22.66967444923301
    vertex 73.02500000000006 9.613036958382498 62.000536958382426
    vertex 73.02500000000006 10.517187500000045 61.30675784660356
  endloop
endfacet
facet normal -1.0 -5.921189464667553e-16 4.456495955860325e-16
  outer loop
    vertex 73.02500000000002 22.225000000000062 22.66967444923301
    vertex 73.02500000000006 10.517187500000045 61.30675784660356
    vertex 73.02500000000003 11.570093106224308 60.87063006460672
  endloop
endfacet
facet normal -1.0 -5.921189464667553e-16 4.456495955860325e-16
  outer loop
    vertex 73.02500000000002 22.225000000000062 22.66967444923301
    vertex 73.02500000000003 11.570093106224308 60.87063006460672
    vertex 73.02500000000009 12.699999999999955 60.721874999999926
  endloop
endfacet
facet normal -1.0 -5.921189464667553e-16 4.456495955860325e-16
  outer loop
    vertex 73.02500000000002 22.225000000000062 22.66967444923301
    vertex 73.02500000000009 12.699999999999955 60.721874999999926
    vertex 73.02500000000003 13.829906893775691 60.870630064606736
  endloop
endfacet
facet normal -1.0 -5.921189464667553e-16 4.456495955860325e-16
  outer loop
    vertex 73.02500000000002 22.225000000000062 22.66967444923301
    vertex 73.02500000000003 13.829906893775691 60.870630064606736
    vertex 73.02500000000006 14.882812500000044 61.3067578466035
  endloop
endfacet
facet normal -1.0 -5.921189464667553e-16 4.456495955860325e-16
  outer loop
    vertex 73.02500000000002 22.225000000000062 22.66967444923301
    vertex 73.02500000000006 14.882812500000044 61.3067578466035
    vertex 73.02500000000006 15.786963041617545 62.000536958382476
  endloop
endfacet
facet normal -1.0 -5.921189464667553e-16 4.456495955860325e-16
  outer loop
    vertex 73.02500000000002 22.225000000000062 22.66967444923301
    vertex 73.02500000000006 15.786963041617545 62.000536958382476
    vertex 73.02500000000003 16.480742153396445 62.90468749999997
  endloop
endfacet
facet normal -1.0 -5.921189464667553e-16 4.456495955860325e-16
  outer loop
    vertex 73.02500000000002 22.225000000000062 22.66967444923301
    vertex 73.02500000000003 16.480742153396445 62.90468749999997
    vertex 73.0250000000001 16.916869935393237 63.95759310622428
  endloop
endfacet
facet normal -1.0 -5.921189464667553e-16 4.456495955860325e-16
  outer loop
    vertex 73.02500000000002 22.225000000000062 22.66967444923301
    vertex 73.0250000000001 16.916869935393237 63.95759310622428
    vertex 73.02500000000006 17.065625 65.0874999999999
  endloop
endfacet
facet normal -1.0 -5.921189464667553e-16 4.456495955860325e-16
  outer loop
    vertex 73.02500000000002 22.225000000000062 22.66967444923301
    vertex 73.02500000000006 17.065625 65.0874999999999
    vertex 73.02500000000009 22.22499999999997 149.22499999999982
  endloop
endfacet
facet normal -0.9615239476408242 -3.178795720077926e-15 0.2747211278973746
  outer loop
    vertex 73.02500000000003 3.17500000000009 22.669674449232854
    vertex 67.45509301450495 22.225000000000062 3.1750000000000007
    vertex 67.45509301450495 3.175000000000045 3.1749999999997973
  endloop
endfacet
facet normal -0.9615239476408242 -3.178795720077926e-15 0.2747211278973746
  outer loop
    vertex 67.45509301450495 22.225000000000062 3.1750000000000007
    vertex 73.02500000000003 3.17500000000009 22.669674449232854
    vertex 73.02500000000002 22.225000000000062 22.66967444923301
  endloop
endfacet
facet normal 2.113407121053883e-15 -6.513308411134257e-15 1.0
  outer loop
    vertex 67.45509301450495 3.175000000000045 3.1749999999997973
    vertex 8.74490698549509 22.225000000000016 3.1750000000000456
    vertex 8.74490698549509 3.175000000000045 3.1750000000000007
  endloop
endfacet
facet normal 2.113407121053883e-15 -6.513308411134257e-15 1.0
  outer loop
    vertex 8.74490698549509 22.225000000000016 3.1750000000000456
    vertex 67.45509301450495 3.175000000000045 3.1749999999997973
    vertex 67.45509301450495 22.225000000000062 3.1750000000000007
  endloop
endfacet
facet normal -3.80632382303582e-17 -1.0 -6.170724664469534e-16
  outer loop
    vertex 73.02500000000002 22.225000000000062 22.66967444923301
    vertex 8.74490698549509 22.225000000000016 3.1750000000000456
    vertex 67.45509301450495 22.225000000000062 3.1750000000000007
  endloop
endfacet
facet normal -3.80632382303582e-17 -1.0 -6.170724664469534e-16
  outer loop
    vertex 8.74490698549509 22.225000000000016 3.1750000000000456
    vertex 73.02500000000002 22.225000000000062 22.66967444923301
    vertex 3.175000000000045 22.225000000000104 22.669674449233035
  endloop
endfacet
facet normal -3.80632382303582e-17 -1.0 -6.170724664469534e-16
  outer loop
    vertex 3.175000000000045 22.225000000000104 22.669674449233035
    vertex 73.02500000000002 22.225000000000062 22.66967444923301
    vertex 73.02500000000009 22.22499999999997 149.22499999999982
  endloop
endfacet
facet normal -3.80632382303582e-17 -1.0 -6.170724664469534e-16
  outer loop
    vertex 3.175000000000045 22.225000000000104 22.669674449233035
    vertex 73.02500000000009 22.22499999999997 149.22499999999982
    vertex 3.17500000000009 22.22499999999997 149.22500000000008
  endloop
endfacet
facet normal -1.3857417788846113e-14 0.9914448613738199 0.13052619221998016
  outer loop
    vertex 4.511946372076636e-14 8.483130064606762 63.95759310622441
    vertex 3.175000000000045 8.33437500000009 65.0875000000002
    vertex 3.175000000000045 8.483130064606808 63.95759310622431
  endloop
endfacet
facet normal -1.3857417788846113e-14 0.9914448613738199 0.13052619221998016
  outer loop
    vertex 3.175000000000045 8.33437500000009 65.0875000000002
    vertex 4.511946372076636e-14 8.483130064606762 63.95759310622441
    vertex 4.511946372076636e-14 8.334375000000044 65.0875000000001
  endloop
endfacet
facet normal 1.1487978084508215e-14 -0.3826834323651087 0.923879532511279
  outer loop
    vertex 3.175000000000045 13.829906893775691 60.87063006460679
    vertex 4.511946372076636e-14 14.882812500000044 61.30675784660365
    vertex 4.511946372076636e-14 13.829906893775691 60.870630064606814
  endloop
endfacet
facet normal 1.1487978084508215e-14 -0.3826834323651087 0.923879532511279
  outer loop
    vertex 4.511946372076636e-14 14.882812500000044 61.30675784660365
    vertex 3.175000000000045 13.829906893775691 60.87063006460679
    vertex 3.175000000000045 14.882812500000044 61.306757846603595
  endloop
endfacet
facet normal 8.805799301947978e-15 0.13052619222007503 0.9914448613738073
  outer loop
    vertex 3.175000000000045 11.570093106224263 60.87063006460681
    vertex 4.511946372076636e-14 12.699999999999955 60.72187500000002
    vertex 4.511946372076636e-14 11.570093106224263 60.87063006460681
  endloop
endfacet
facet normal 8.805799301947978e-15 0.13052619222007503 0.9914448613738073
  outer loop
    vertex 4.511946372076636e-14 12.699999999999955 60.72187500000002
    vertex 3.175000000000045 11.570093106224263 60.87063006460681
    vertex 3.175000000000045 12.699999999999955 60.72187499999996
  endloop
endfacet
facet normal 6.001408782344407e-15 0.3826834323651225 0.9238795325112733
  outer loop
    vertex 3.175000000000045 10.517187499999999 61.30675784660358
    vertex 4.511946372076636e-14 11.570093106224263 60.87063006460681
    vertex 4.511946372076636e-14 10.517187500000045 61.3067578466036
  endloop
endfacet
facet normal 6.001408782344407e-15 0.3826834323651225 0.9238795325112733
  outer loop
    vertex 4.511946372076636e-14 11.570093106224263 60.87063006460681
    vertex 3.175000000000045 10.517187499999999 61.30675784660358
    vertex 3.175000000000045 11.570093106224263 60.87063006460681
  endloop
endfacet
facet normal 1.2328119022727181e-14 -0.1305261922200699 0.9914448613738082
  outer loop
    vertex 3.175000000000045 12.699999999999955 60.72187499999996
    vertex 4.511946372076636e-14 13.829906893775691 60.870630064606814
    vertex 4.511946372076636e-14 12.699999999999955 60.72187500000002
  endloop
endfacet
facet normal 1.2328119022727181e-14 -0.1305261922200699 0.9914448613738082
  outer loop
    vertex 4.511946372076636e-14 13.829906893775691 60.870630064606814
    vertex 3.175000000000045 12.699999999999955 60.72187499999996
    vertex 3.175000000000045 13.829906893775691 60.87063006460679
  endloop
endfacet
facet normal 1.3436984112664274e-14 0.7933533402912241 0.6087614290087351
  outer loop
    vertex 4.511946372076636e-14 8.919257846603552 62.90468750000003
    vertex 3.175000000000045 9.613036958382454 62.0005369583825
    vertex 4.511946372076636e-14 9.613036958382542 62.000536958382476
  endloop
endfacet
facet normal 1.3436984112664274e-14 0.7933533402912241 0.6087614290087351
  outer loop
    vertex 3.175000000000045 9.613036958382454 62.0005369583825
    vertex 4.511946372076636e-14 8.919257846603552 62.90468750000003
    vertex 3.175000000000045 8.919257846603552 62.90468749999999
  endloop
endfacet
facet normal 2.272611415855801e-15 0.9238795325112941 0.3826834323650724
  outer loop
    vertex 4.511946372076636e-14 8.919257846603552 62.90468750000003
    vertex 3.175000000000045 8.483130064606808 63.95759310622431
    vertex 3.175000000000045 8.919257846603552 62.90468749999999
  endloop
endfacet
facet normal 2.272611415855801e-15 0.9238795325112941 0.3826834323650724
  outer loop
    vertex 3.175000000000045 8.483130064606808 63.95759310622431
    vertex 4.511946372076636e-14 8.919257846603552 62.90468750000003
    vertex 4.511946372076636e-14 8.483130064606762 63.95759310622441
  endloop
endfacet
facet normal 1.2976530335792174e-14 0.6087614290087038 0.7933533402912479
  outer loop
    vertex 3.175000000000045 9.613036958382454 62.0005369583825
    vertex 4.511946372076636e-14 10.517187500000045 61.3067578466036
    vertex 4.511946372076636e-14 9.613036958382542 62.000536958382476
  endloop
endfacet
facet normal 1.2976530335792174e-14 0.6087614290087038 0.7933533402912479
  outer loop
    vertex 4.511946372076636e-14 10.517187500000045 61.3067578466036
    vertex 3.175000000000045 9.613036958382454 62.0005369583825
    vertex 3.175000000000045 10.517187499999999 61.30675784660358
  endloop
endfacet
facet normal -4.451035532255497e-15 0.13052619222004352 -0.9914448613738116
  outer loop
    vertex 9.023892744153272e-14 12.7 69.453125
    vertex 3.175000000000045 11.570093106224354 69.30436993539321
    vertex 4.511946372076636e-14 11.570093106224308 69.30436993539324
  endloop
endfacet
facet normal -4.451035532255497e-15 0.13052619222004352 -0.9914448613738116
  outer loop
    vertex 3.175000000000045 11.570093106224354 69.30436993539321
    vertex 9.023892744153272e-14 12.7 69.453125
    vertex 3.175000000000045 12.7 69.453125
  endloop
endfacet
facet normal -7.045910875950902e-15 -0.13052619222001177 -0.9914448613738155
  outer loop
    vertex 3.175000000000045 13.829906893775691 69.30436993539324
    vertex 9.023892744153272e-14 12.7 69.453125
    vertex 4.511946372076636e-14 13.829906893775691 69.30436993539328
  endloop
endfacet
facet normal -7.045910875950902e-15 -0.13052619222001177 -0.9914448613738155
  outer loop
    vertex 9.023892744153272e-14 12.7 69.453125
    vertex 3.175000000000045 13.829906893775691 69.30436993539324
    vertex 3.175000000000045 12.7 69.453125
  endloop
endfacet
facet normal -1.420708059123232e-14 -0.38268343236508473 -0.9238795325112888
  outer loop
    vertex 9.023892744153272e-14 14.882812500000089 68.86824215339648
    vertex 3.175000000000045 13.829906893775691 69.30436993539324
    vertex 4.511946372076636e-14 13.829906893775691 69.30436993539328
  endloop
endfacet
facet normal -1.420708059123232e-14 -0.38268343236508473 -0.9238795325112888
  outer loop
    vertex 3.175000000000045 13.829906893775691 69.30436993539324
    vertex 9.023892744153272e-14 14.882812500000089 68.86824215339648
    vertex 3.175000000000045 14.882812500000044 68.86824215339644
  endloop
endfacet
facet normal -1.4092786320873127e-15 -0.6087614290087922 -0.7933533402911804
  outer loop
    vertex 3.175000000000045 15.7869630416175 68.17446304161751
    vertex 9.023892744153272e-14 14.882812500000089 68.86824215339648
    vertex 9.023892744153272e-14 15.786963041617456 68.17446304161749
  endloop
endfacet
facet normal -1.4092786320873127e-15 -0.6087614290087922 -0.7933533402911804
  outer loop
    vertex 9.023892744153272e-14 14.882812500000089 68.86824215339648
    vertex 3.175000000000045 15.7869630416175 68.17446304161751
    vertex 3.175000000000045 14.882812500000044 68.86824215339644
  endloop
endfacet
facet normal 1.667299587445432e-14 -0.7933533402911664 -0.6087614290088101
  outer loop
    vertex 3.175000000000045 16.48074215339649 67.2703125000001
    vertex 9.023892744153272e-14 15.786963041617456 68.17446304161749
    vertex 4.511946372076636e-14 16.480742153396445 67.27031250000007
  endloop
endfacet
facet normal 1.667299587445432e-14 -0.7933533402911664 -0.6087614290088101
  outer loop
    vertex 9.023892744153272e-14 15.786963041617456 68.17446304161749
    vertex 3.175000000000045 16.48074215339649 67.2703125000001
    vertex 3.175000000000045 15.7869630416175 68.17446304161751
  endloop
endfacet
facet normal -5.885333970203556e-15 0.9914448613738098 -0.13052619222005646
  outer loop
    vertex 4.511946372076636e-14 8.483130064606852 66.21740689377582
    vertex 3.175000000000045 8.33437500000009 65.0875000000002
    vertex 4.511946372076636e-14 8.334375000000044 65.0875000000001
  endloop
endfacet
facet normal -5.885333970203556e-15 0.9914448613738098 -0.13052619222005646
  outer loop
    vertex 3.175000000000045 8.33437500000009 65.0875000000002
    vertex 4.511946372076636e-14 8.483130064606852 66.21740689377582
    vertex 3.175000000000045 8.483130064606852 66.21740689377577
  endloop
endfacet
facet normal -2.0393469972206186e-15 0.9238795325112907 -0.38268343236507996
  outer loop
    vertex 4.511946372076636e-14 8.483130064606852 66.21740689377582
    vertex 3.175000000000045 8.919257846603598 67.27031250000006
    vertex 3.175000000000045 8.483130064606852 66.21740689377577
  endloop
endfacet
facet normal -2.0393469972206186e-15 0.9238795325112907 -0.38268343236507996
  outer loop
    vertex 3.175000000000045 8.919257846603598 67.27031250000006
    vertex 4.511946372076636e-14 8.483130064606852 66.21740689377582
    vertex 4.511946372076636e-14 8.919257846603598 67.27031250000006
  endloop
endfacet
facet normal 1.6442768986018927e-14 0.7933533402912035 -0.6087614290087618
  outer loop
    vertex 9.023892744153272e-14 9.613036958382589 68.1744630416175
    vertex 3.175000000000045 8.919257846603598 67.27031250000006
    vertex 4.511946372076636e-14 8.919257846603598 67.27031250000006
  endloop
endfacet
facet normal 1.6442768986018927e-14 0.7933533402912035 -0.6087614290087618
  outer loop
    vertex 3.175000000000045 8.919257846603598 67.27031250000006
    vertex 9.023892744153272e-14 9.613036958382589 68.1744630416175
    vertex 3.175000000000045 9.613036958382542 68.17446304161761
  endloop
endfacet
facet normal 1.559973916863004e-14 0.6087614290087737 -0.7933533402911944
  outer loop
    vertex 3.175000000000045 10.517187499999954 68.86824215339645
    vertex 9.023892744153272e-14 9.613036958382589 68.1744630416175
    vertex 9.023892744153272e-14 10.517187499999954 68.86824215339648
  endloop
endfacet
facet normal 1.559973916863004e-14 0.6087614290087737 -0.7933533402911944
  outer loop
    vertex 9.023892744153272e-14 9.613036958382589 68.1744630416175
    vertex 3.175000000000045 10.517187499999954 68.86824215339645
    vertex 3.175000000000045 9.613036958382542 68.17446304161761
  endloop
endfacet
facet normal -9.283661412157204e-15 0.38268343236505525 -0.9238795325113011
  outer loop
    vertex 3.175000000000045 11.570093106224354 69.30436993539321
    vertex 9.023892744153272e-14 10.517187499999954 68.86824215339648
    vertex 4.511946372076636e-14 11.570093106224308 69.30436993539324
  endloop
endfacet
facet normal -9.283661412157204e-15 0.38268343236505525 -0.9238795325113011
  outer loop
    vertex 9.023892744153272e-14 10.517187499999954 68.86824215339648
    vertex 3.175000000000045 11.570093106224354 69.30436993539321
    vertex 3.175000000000045 10.517187499999954 68.86824215339645
  endloop
endfacet
facet normal 7.046393160436708e-15 -0.6087614290087414 0.7933533402912192
  outer loop
    vertex 3.175000000000045 14.882812500000044 61.306757846603595
    vertex 4.511946372076636e-14 15.786963041617545 62.00053695838256
    vertex 4.511946372076636e-14 14.882812500000044 61.30675784660365
  endloop
endfacet
facet normal 7.046393160436708e-15 -0.6087614290087414 0.7933533402912192
  outer loop
    vertex 4.511946372076636e-14 15.786963041617545 62.00053695838256
    vertex 3.175000000000045 14.882812500000044 61.306757846603595
    vertex 3.175000000000045 15.786963041617545 62.00053695838256
  endloop
endfacet
facet normal 1.0813775279826607e-15 -0.7933533402912569 0.6087614290086923
  outer loop
    vertex 3.175000000000045 16.480742153396402 62.904687500000065
    vertex 4.511946372076636e-14 15.786963041617545 62.00053695838256
    vertex 3.175000000000045 15.786963041617545 62.00053695838256
  endloop
endfacet
facet normal 1.0813775279826607e-15 -0.7933533402912569 0.6087614290086923
  outer loop
    vertex 4.511946372076636e-14 15.786963041617545 62.00053695838256
    vertex 3.175000000000045 16.480742153396402 62.904687500000065
    vertex 4.511946372076636e-14 16.480742153396402 62.90468750000007
  endloop
endfacet
facet normal 2.039346997220942e-15 -0.9238795325112656 0.3826834323651406
  outer loop
    vertex 3.175000000000045 16.916869935393237 63.95759310622435
    vertex 4.511946372076636e-14 16.480742153396402 62.90468750000007
    vertex 3.175000000000045 16.480742153396402 62.904687500000065
  endloop
endfacet
facet normal 2.039346997220942e-15 -0.9238795325112656 0.3826834323651406
  outer loop
    vertex 4.511946372076636e-14 16.480742153396402 62.90468750000007
    vertex 3.175000000000045 16.916869935393237 63.95759310622435
    vertex 4.511946372076636e-14 16.916869935393237 63.95759310622437
  endloop
endfacet
facet normal -8.899528195725712e-15 -0.991444861373814 0.1305261922200233
  outer loop
    vertex 3.175000000000045 17.065624999999955 65.0875
    vertex 4.511946372076636e-14 16.916869935393237 63.95759310622437
    vertex 3.175000000000045 16.916869935393237 63.95759310622435
  endloop
endfacet
facet normal -8.899528195725712e-15 -0.991444861373814 0.1305261922200233
  outer loop
    vertex 4.511946372076636e-14 16.916869935393237 63.95759310622437
    vertex 3.175000000000045 17.065624999999955 65.0875
    vertex 4.511946372076636e-14 17.065625 65.08749999999989
  endloop
endfacet
facet normal -4.7260284988489875e-15 -0.9914448613738118 -0.13052619222004172
  outer loop
    vertex 3.175000000000045 17.065624999999955 65.0875
    vertex 4.511946372076636e-14 16.91686993539319 66.21740689377572
    vertex 4.511946372076636e-14 17.065625 65.08749999999989
  endloop
endfacet
facet normal -4.7260284988489875e-15 -0.9914448613738118 -0.13052619222004172
  outer loop
    vertex 4.511946372076636e-14 16.91686993539319 66.21740689377572
    vertex 3.175000000000045 17.065624999999955 65.0875
    vertex 3.175000000000045 16.91686993539319 66.21740689377572
  endloop
endfacet
facet normal 8.603905902653854e-15 -0.9238795325113109 -0.38268343236503155
  outer loop
    vertex 3.175000000000045 16.48074215339649 67.2703125000001
    vertex 4.511946372076636e-14 16.91686993539319 66.21740689377572
    vertex 3.175000000000045 16.91686993539319 66.21740689377572
  endloop
endfacet
facet normal 8.603905902653854e-15 -0.9238795325113109 -0.38268343236503155
  outer loop
    vertex 4.511946372076636e-14 16.91686993539319 66.21740689377572
    vertex 3.175000000000045 16.48074215339649 67.2703125000001
    vertex 4.511946372076636e-14 16.480742153396445 67.27031250000007
  endloop
endfacet
facet normal 3.8194365510341756e-15 -0.8660254037844412 0.4999999999999958
  outer loop
    vertex 76.2000000000001 16.480742153396445 62.90468749999997
    vertex 73.02500000000006 15.786963041617545 62.000536958382476
    vertex 76.2000000000001 15.786963041617545 62.00053695838239
  endloop
endfacet
facet normal 1.0263380664413409e-14 -0.7071067811865664 0.7071067811865287
  outer loop
    vertex 73.02500000000006 15.786963041617545 62.000536958382476
    vertex 76.2000000000001 16.480742153396445 62.90468749999997
    vertex 73.02500000000003 16.480742153396445 62.90468749999997
  endloop
endfacet
facet normal -7.001203608778236e-16 -0.9659258262890686 0.25881904510251963
  outer loop
    vertex 76.2000000000001 16.916869935393237 63.95759310622428
    vertex 73.02500000000003 16.480742153396445 62.90468749999997
    vertex 76.2000000000001 16.480742153396445 62.90468749999997
  endloop
endfacet
facet normal 3.819436551034224e-15 -0.8660254037844404 0.4999999999999973
  outer loop
    vertex 73.02500000000003 16.480742153396445 62.90468749999997
    vertex 76.2000000000001 16.916869935393237 63.95759310622428
    vertex 73.0250000000001 16.916869935393237 63.95759310622428
  endloop
endfacet
facet normal -2.968603782392468e-15 -1.0 -2.790959619316615e-14
  outer loop
    vertex 76.20000000000009 17.065625 65.08749999999998
    vertex 73.0250000000001 16.916869935393237 63.95759310622428
    vertex 76.2000000000001 16.916869935393237 63.95759310622428
  endloop
endfacet
facet normal -7.001203608778236e-16 -0.9659258262890685 0.2588190451025197
  outer loop
    vertex 73.0250000000001 16.916869935393237 63.95759310622428
    vertex 76.20000000000009 17.065625 65.08749999999998
    vertex 73.02500000000006 17.065625 65.0874999999999
  endloop
endfacet
facet normal -2.968603782392468e-15 -1.0 -2.790959619316615e-14
  outer loop
    vertex 76.20000000000009 17.065625 65.08749999999998
    vertex 73.0250000000001 16.91686993539319 66.2174068937756
    vertex 73.02500000000006 17.065625 65.0874999999999
  endloop
endfacet
facet normal -3.8638963537874255e-15 -0.9659258262890726 -0.2588190451025046
  outer loop
    vertex 73.0250000000001 16.91686993539319 66.2174068937756
    vertex 76.20000000000009 17.065625 65.08749999999998
    vertex 76.20000000000006 16.916869935393148 66.21740689377566
  endloop
endfacet
facet normal -3.863896353787417e-15 -0.9659258262890723 -0.25881904510250636
  outer loop
    vertex 76.20000000000006 16.916869935393148 66.21740689377566
    vertex 73.02500000000003 16.480742153396445 67.27031250000002
    vertex 73.0250000000001 16.91686993539319 66.2174068937756
  endloop
endfacet
facet normal -5.064126701765055e-16 -0.8660254037844375 -0.5000000000000021
  outer loop
    vertex 73.02500000000003 16.480742153396445 67.27031250000002
    vertex 76.20000000000006 16.916869935393148 66.21740689377566
    vertex 76.20000000000006 16.480742153396445 67.27031250000002
  endloop
endfacet
facet normal 2.5121479338939957e-15 -0.707106781186548 -0.707106781186547
  outer loop
    vertex 76.20000000000009 15.7869630416175 68.17446304161746
    vertex 73.02500000000003 16.480742153396445 67.27031250000002
    vertex 76.20000000000006 16.480742153396445 67.27031250000002
  endloop
endfacet
facet normal -5.064126701765055e-16 -0.8660254037844375 -0.5000000000000021
  outer loop
    vertex 73.02500000000003 16.480742153396445 67.27031250000002
    vertex 76.20000000000009 15.7869630416175 68.17446304161746
    vertex 73.02500000000006 15.7869630416175 68.17446304161743
  endloop
endfacet
facet normal 2.5121479338939957e-15 -0.707106781186548 -0.707106781186547
  outer loop
    vertex 76.20000000000009 15.7869630416175 68.17446304161746
    vertex 73.02500000000009 14.882812500000044 68.86824215339642
    vertex 73.02500000000006 15.7869630416175 68.17446304161743
  endloop
endfacet
facet normal 4.732680972461041e-15 -0.5000000000000241 -0.8660254037844248
  outer loop
    vertex 73.02500000000009 14.882812500000044 68.86824215339642
    vertex 76.20000000000009 15.7869630416175 68.17446304161746
    vertex 76.2000000000001 14.882812500000044 68.86824215339642
  endloop
endfacet
facet normal 4.732680972461041e-15 -0.5000000000000241 -0.8660254037844248
  outer loop
    vertex 73.02500000000009 14.882812500000044 68.86824215339642
    vertex 76.20000000000009 13.829906893775691 69.30436993539321
    vertex 73.02500000000003 13.829906893775691 69.30436993539317
  endloop
endfacet
facet normal 6.864120542033402e-15 -0.25881904510249887 -0.9659258262890742
  outer loop
    vertex 76.20000000000009 13.829906893775691 69.30436993539321
    vertex 73.02500000000009 14.882812500000044 68.86824215339642
    vertex 76.2000000000001 14.882812500000044 68.86824215339642
  endloop
endfacet
facet normal 6.864120542033402e-15 -0.25881904510249887 -0.9659258262890742
  outer loop
    vertex 76.20000000000009 13.829906893775691 69.30436993539321
    vertex 73.02500000000003 12.699999999999955 69.45312499999996
    vertex 73.02500000000003 13.829906893775691 69.30436993539317
  endloop
endfacet
facet normal 5.329070518200603e-15 1.4988486844478072e-14 -1.0
  outer loop
    vertex 73.02500000000003 12.699999999999955 69.45312499999996
    vertex 76.20000000000009 13.829906893775691 69.30436993539321
    vertex 76.20000000000009 12.699999999999955 69.45312499999996
  endloop
endfacet
facet normal 5.329070518200603e-15 1.4988486844478072e-14 -1.0
  outer loop
    vertex 76.20000000000009 12.699999999999955 69.45312499999996
    vertex 73.02500000000003 11.570093106224308 69.30436993539315
    vertex 73.02500000000003 12.699999999999955 69.45312499999996
  endloop
endfacet
facet normal 3.4330173430696475e-15 0.25881904510249815 -0.9659258262890744
  outer loop
    vertex 73.02500000000003 11.570093106224308 69.30436993539315
    vertex 76.20000000000009 12.699999999999955 69.45312499999996
    vertex 76.20000000000009 11.570093106224308 69.30436993539318
  endloop
endfacet
facet normal 3.4330173430696455e-15 0.25881904510250026 -0.9659258262890739
  outer loop
    vertex 76.20000000000009 11.570093106224308 69.30436993539318
    vertex 73.02500000000009 10.517187499999954 68.86824215339644
    vertex 73.02500000000003 11.570093106224308 69.30436993539315
  endloop
endfacet
facet normal 6.0193301392233324e-15 0.4999999999999851 -0.8660254037844471
  outer loop
    vertex 73.02500000000009 10.517187499999954 68.86824215339644
    vertex 76.20000000000009 11.570093106224308 69.30436993539318
    vertex 76.2000000000001 10.517187499999954 68.86824215339644
  endloop
endfacet
facet normal 6.0193301392233324e-15 0.4999999999999851 -0.8660254037844471
  outer loop
    vertex 73.02500000000009 10.517187499999954 68.86824215339644
    vertex 76.20000000000009 9.613036958382498 68.17446304161757
    vertex 73.02500000000006 9.613036958382589 68.17446304161757
  endloop
endfacet
facet normal 1.0048591735576193e-14 0.7071067811865641 -0.707106781186531
  outer loop
    vertex 76.20000000000009 9.613036958382498 68.17446304161757
    vertex 73.02500000000009 10.517187499999954 68.86824215339644
    vertex 76.2000000000001 10.517187499999954 68.86824215339644
  endloop
endfacet
facet normal 1.0048591735576193e-14 0.7071067811865642 -0.707106781186531
  outer loop
    vertex 73.02500000000006 9.613036958382589 68.17446304161757
    vertex 76.20000000000006 8.919257846603642 67.27031250000002
    vertex 73.02500000000003 8.919257846603642 67.27031250000002
  endloop
endfacet
facet normal 1.002363698647798e-14 0.866025403784436 -0.5000000000000047
  outer loop
    vertex 76.20000000000006 8.919257846603642 67.27031250000002
    vertex 73.02500000000006 9.613036958382589 68.17446304161757
    vertex 76.20000000000009 9.613036958382498 68.17446304161757
  endloop
endfacet
facet normal 1.002363698647799e-14 0.8660254037844356 -0.5000000000000054
  outer loop
    vertex 73.02500000000003 8.919257846603642 67.27031250000002
    vertex 76.20000000000006 8.483130064606808 66.21740689377576
    vertex 73.0250000000001 8.483130064606852 66.21740689377572
  endloop
endfacet
facet normal 1.1092213362317592e-14 0.9659258262890664 -0.25881904510252796
  outer loop
    vertex 76.20000000000006 8.483130064606808 66.21740689377576
    vertex 73.02500000000003 8.919257846603642 67.27031250000002
    vertex 76.20000000000006 8.919257846603642 67.27031250000002
  endloop
endfacet
facet normal 1.1008389118295046e-14 1.0 -3.1527506810799285e-14
  outer loop
    vertex 73.02500000000006 8.33437500000009 65.08750000000005
    vertex 76.20000000000006 8.483130064606808 66.21740689377576
    vertex 76.20000000000009 8.334375000000044 65.08749999999998
  endloop
endfacet
facet normal 1.1092213362317592e-14 0.9659258262890664 -0.25881904510252796
  outer loop
    vertex 76.20000000000006 8.483130064606808 66.21740689377576
    vertex 73.02500000000006 8.33437500000009 65.08750000000005
    vertex 73.0250000000001 8.483130064606852 66.21740689377572
  endloop
endfacet
facet normal 1.1008389118295046e-14 1.0 -3.1527506810799285e-14
  outer loop
    vertex 73.02500000000006 8.33437500000009 65.08750000000005
    vertex 76.2000000000001 8.483130064606762 63.95759310622427
    vertex 73.0250000000001 8.483130064606762 63.95759310622427
  endloop
endfacet
facet normal 4.253085891927283e-15 0.9659258262890703 0.258819045102513
  outer loop
    vertex 76.2000000000001 8.483130064606762 63.95759310622427
    vertex 73.02500000000006 8.33437500000009 65.08750000000005
    vertex 76.20000000000009 8.334375000000044 65.08749999999998
  endloop
endfacet
facet normal 4.253085891927283e-15 0.9659258262890703 0.25881904510251297
  outer loop
    vertex 73.0250000000001 8.483130064606762 63.95759310622427
    vertex 76.2000000000001 8.919257846603642 62.90468749999991
    vertex 73.02500000000003 8.919257846603642 62.90468749999991
  endloop
endfacet
facet normal -3.8182026063486665e-15 0.8660254037844219 0.5000000000000291
  outer loop
    vertex 76.2000000000001 8.919257846603642 62.90468749999991
    vertex 73.0250000000001 8.483130064606762 63.95759310622427
    vertex 76.2000000000001 8.483130064606762 63.95759310622427
  endloop
endfacet
facet normal -3.818202606348715e-15 0.866025403784421 0.5000000000000306
  outer loop
    vertex 73.02500000000003 8.919257846603642 62.90468749999991
    vertex 76.2000000000001 9.613036958382498 62.000536958382504
    vertex 73.02500000000006 9.613036958382498 62.000536958382426
  endloop
endfacet
facet normal -3.0573371472940286e-15 0.7071067811865527 0.7071067811865426
  outer loop
    vertex 76.2000000000001 9.613036958382498 62.000536958382504
    vertex 73.02500000000003 8.919257846603642 62.90468749999991
    vertex 76.2000000000001 8.919257846603642 62.90468749999991
  endloop
endfacet
facet normal -3.0573371472940286e-15 0.7071067811865527 0.7071067811865426
  outer loop
    vertex 76.2000000000001 9.613036958382498 62.000536958382504
    vertex 73.02500000000006 10.517187500000045 61.30675784660356
    vertex 73.02500000000006 9.613036958382498 62.000536958382426
  endloop
endfacet
facet normal 6.26637663429457e-15 0.5000000000000182 0.8660254037844283
  outer loop
    vertex 73.02500000000006 10.517187500000045 61.30675784660356
    vertex 76.2000000000001 9.613036958382498 62.000536958382504
    vertex 76.20000000000009 10.517187499999999 61.3067578466035
  endloop
endfacet
facet normal 6.26637663429457e-15 0.5000000000000182 0.8660254037844283
  outer loop
    vertex 73.02500000000006 10.517187500000045 61.30675784660356
    vertex 76.2000000000001 11.570093106224308 60.87063006460672
    vertex 73.02500000000003 11.570093106224308 60.87063006460672
  endloop
endfacet
facet normal 6.3944943454459394e-15 0.25881904510254705 0.9659258262890611
  outer loop
    vertex 76.2000000000001 11.570093106224308 60.87063006460672
    vertex 73.02500000000006 10.517187500000045 61.30675784660356
    vertex 76.20000000000009 10.517187499999999 61.3067578466035
  endloop
endfacet
facet normal 6.3944943454459394e-15 0.25881904510254705 0.9659258262890611
  outer loop
    vertex 76.2000000000001 11.570093106224308 60.87063006460672
    vertex 73.02500000000009 12.699999999999955 60.721874999999926
    vertex 73.02500000000003 11.570093106224308 60.87063006460672
  endloop
endfacet
facet normal -1.7763568394002203e-15 -9.56162091802892e-15 1.0
  outer loop
    vertex 73.02500000000009 12.699999999999955 60.721874999999926
    vertex 76.2000000000001 11.570093106224308 60.87063006460672
    vertex 76.20000000000006 12.699999999999955 60.72187499999992
  endloop
endfacet
facet normal -1.7763568394002203e-15 -9.56162091802892e-15 1.0
  outer loop
    vertex 73.02500000000009 12.699999999999955 60.721874999999926
    vertex 76.2000000000001 13.829906893775691 60.87063006460678
    vertex 73.02500000000003 13.829906893775691 60.870630064606736
  endloop
endfacet
facet normal -5.431491605296798e-15 -0.25881904510251996 0.9659258262890685
  outer loop
    vertex 76.2000000000001 13.829906893775691 60.87063006460678
    vertex 73.02500000000009 12.699999999999955 60.721874999999926
    vertex 76.20000000000006 12.699999999999955 60.72187499999992
  endloop
endfacet
facet normal -5.431491605296798e-15 -0.25881904510251996 0.9659258262890685
  outer loop
    vertex 76.2000000000001 13.829906893775691 60.87063006460678
    vertex 73.02500000000006 14.882812500000044 61.3067578466035
    vertex 73.02500000000003 13.829906893775691 60.870630064606736
  endloop
endfacet
facet normal 3.678861329752374e-15 -0.49999999999999156 0.8660254037844436
  outer loop
    vertex 73.02500000000006 14.882812500000044 61.3067578466035
    vertex 76.2000000000001 13.829906893775691 60.87063006460678
    vertex 76.20000000000009 14.882812500000089 61.30675784660352
  endloop
endfacet
facet normal 3.678861329752594e-15 -0.4999999999999942 0.8660254037844418
  outer loop
    vertex 76.20000000000009 14.882812500000089 61.30675784660352
    vertex 73.02500000000006 15.786963041617545 62.000536958382476
    vertex 73.02500000000006 14.882812500000044 61.3067578466035
  endloop
endfacet
facet normal 1.0263380664413409e-14 -0.7071067811865664 0.7071067811865287
  outer loop
    vertex 73.02500000000006 15.786963041617545 62.000536958382476
    vertex 76.20000000000009 14.882812500000089 61.30675784660352
    vertex 76.2000000000001 15.786963041617545 62.00053695838239
  endloop
endfacet
endsolid Chassis Back Hollow Bottom
