solid Fender
facet normal -0.0 -0.0 1.0
  outer loop
    vertex 6.350000000000009 -5.639932965095795e-15 19.049999999999997
    vertex 0.47697798499539323 3.623007491208059 19.049999999999997
    vertex 0.0 0.0 19.049999999999997
  endloop
endfacet
facet normal -0.0 -0.0 1.0
  outer loop
    vertex 0.47697798499539323 3.623007491208059 19.049999999999997
    vertex 6.350000000000009 -5.639932965095795e-15 19.049999999999997
    vertex 5.5519194482305885 15.874999999999993 19.049999999999997
  endloop
endfacet
facet normal -0.0 -0.0 1.0
  outer loop
    vertex 5.5519194482305885 15.874999999999993 19.049999999999997
    vertex 6.350000000000009 -5.639932965095795e-15 19.049999999999997
    vertex 6.6106069819309745 1.9795065548070525 19.049999999999997
  endloop
endfacet
facet normal -0.0 -0.0 1.0
  outer loop
    vertex 5.5519194482305885 15.874999999999993 19.049999999999997
    vertex 6.6106069819309745 1.9795065548070525 19.049999999999997
    vertex 13.624985476203452 26.396024484276605 19.049999999999997
  endloop
endfacet
facet normal -0.0 -0.0 1.0
  outer loop
    vertex 13.624985476203452 26.396024484276605 19.049999999999997
    vertex 6.6106069819309745 1.9795065548070525 19.049999999999997
    vertex 11.05118076226176 12.700000000000005 19.049999999999997
  endloop
endfacet
facet normal -0.0 -0.0 1.0
  outer loop
    vertex 13.624985476203452 26.396024484276605 19.049999999999997
    vertex 11.05118076226176 12.700000000000005 19.049999999999997
    vertex 18.115113536738033 21.905896423742032 19.049999999999997
  endloop
endfacet
facet normal -0.0 -0.0 1.0
  outer loop
    vertex 13.624985476203452 26.396024484276605 19.049999999999997
    vertex 18.115113536738033 21.905896423742032 19.049999999999997
    vertex 24.146009960480068 34.46909051224948 19.049999999999997
  endloop
endfacet
facet normal -0.0 -0.0 1.0
  outer loop
    vertex 24.146009960480068 34.46909051224948 19.049999999999997
    vertex 18.115113536738033 21.905896423742032 19.049999999999997
    vertex 27.321009960480062 28.969829198218296 19.049999999999997
  endloop
endfacet
facet normal -0.0 -0.0 1.0
  outer loop
    vertex 24.146009960480068 34.46909051224948 19.049999999999997
    vertex 27.321009960480062 28.969829198218296 19.049999999999997
    vertex 36.398002469272015 39.54403197548466 19.049999999999997
  endloop
endfacet
facet normal -0.0 -0.0 1.0
  outer loop
    vertex 36.398002469272015 39.54403197548466 19.049999999999997
    vertex 27.321009960480062 28.969829198218296 19.049999999999997
    vertex 38.04150340567302 33.41040297854908 19.049999999999997
  endloop
endfacet
facet normal -0.0 -0.0 1.0
  outer loop
    vertex 36.398002469272015 39.54403197548466 19.049999999999997
    vertex 38.04150340567302 33.41040297854908 19.049999999999997
    vertex 49.54600996048007 41.275 19.049999999999997
  endloop
endfacet
facet normal -0.0 -0.0 1.0
  outer loop
    vertex 49.54600996048007 41.275 19.049999999999997
    vertex 38.04150340567302 33.41040297854908 19.049999999999997
    vertex 49.54600996048006 34.92499999999999 19.049999999999997
  endloop
endfacet
facet normal -0.0 -0.0 1.0
  outer loop
    vertex 49.54600996048007 41.275 19.049999999999997
    vertex 49.54600996048006 34.92499999999999 19.049999999999997
    vertex 61.050516515287136 33.41040297854908 19.049999999999997
  endloop
endfacet
facet normal -0.0 -0.0 1.0
  outer loop
    vertex 49.54600996048007 41.275 19.049999999999997
    vertex 61.050516515287136 33.41040297854908 19.049999999999997
    vertex 62.69401745168815 39.54403197548466 19.049999999999997
  endloop
endfacet
facet normal -0.0 -0.0 1.0
  outer loop
    vertex 62.69401745168815 39.54403197548466 19.049999999999997
    vertex 61.050516515287136 33.41040297854908 19.049999999999997
    vertex 71.77100996048004 28.969829198218267 19.049999999999997
  endloop
endfacet
facet normal -0.0 -0.0 1.0
  outer loop
    vertex 62.69401745168815 39.54403197548466 19.049999999999997
    vertex 71.77100996048004 28.969829198218267 19.049999999999997
    vertex 74.94600996048005 34.46909051224945 19.049999999999997
  endloop
endfacet
facet normal -0.0 -0.0 1.0
  outer loop
    vertex 74.94600996048005 34.46909051224945 19.049999999999997
    vertex 71.77100996048004 28.969829198218267 19.049999999999997
    vertex 80.9769063842221 21.90589642374203 19.049999999999997
  endloop
endfacet
facet normal -0.0 -0.0 1.0
  outer loop
    vertex 74.94600996048005 34.46909051224945 19.049999999999997
    vertex 80.9769063842221 21.90589642374203 19.049999999999997
    vertex 85.46703444475668 26.396024484276605 19.049999999999997
  endloop
endfacet
facet normal -0.0 -0.0 1.0
  outer loop
    vertex 85.46703444475668 26.396024484276605 19.049999999999997
    vertex 80.9769063842221 21.90589642374203 19.049999999999997
    vertex 83.67824771004784 18.38543986722137 19.049999999999997
  endloop
endfacet
facet normal -0.0 -0.0 1.0
  outer loop
    vertex 85.46703444475668 26.396024484276605 19.049999999999997
    vertex 83.67824771004784 18.38543986722137 19.049999999999997
    vertex 87.64600996048007 18.385439867221393 19.049999999999997
  endloop
endfacet
facet normal -0.0 -0.0 1.0
  outer loop
    vertex 85.46703444475668 26.396024484276605 19.049999999999997
    vertex 87.64600996048007 18.385439867221393 19.049999999999997
    vertex 87.64600996048006 23.556328305386142 19.049999999999997
  endloop
endfacet
facet normal 0.0 0.0 -1.0
  outer loop
    vertex 0.47697798499539323 3.623007491208059 0.0
    vertex 6.350000000000009 -5.639932965095795e-15 0.0
    vertex 0.0 0.0 0.0
  endloop
endfacet
facet normal 0.0 0.0 -1.0
  outer loop
    vertex 6.350000000000009 -5.639932965095795e-15 0.0
    vertex 0.47697798499539323 3.623007491208059 0.0
    vertex 5.5519194482305885 15.874999999999993 0.0
  endloop
endfacet
facet normal 0.0 0.0 -1.0
  outer loop
    vertex 6.350000000000009 -5.639932965095795e-15 0.0
    vertex 5.5519194482305885 15.874999999999993 0.0
    vertex 6.6106069819309745 1.9795065548070525 0.0
  endloop
endfacet
facet normal 0.0 0.0 -1.0
  outer loop
    vertex 6.6106069819309745 1.9795065548070525 0.0
    vertex 5.5519194482305885 15.874999999999993 0.0
    vertex 13.624985476203452 26.396024484276605 0.0
  endloop
endfacet
facet normal 0.0 0.0 -1.0
  outer loop
    vertex 6.6106069819309745 1.9795065548070525 0.0
    vertex 13.624985476203452 26.396024484276605 0.0
    vertex 11.05118076226176 12.700000000000005 0.0
  endloop
endfacet
facet normal 0.0 0.0 -1.0
  outer loop
    vertex 11.05118076226176 12.700000000000005 0.0
    vertex 13.624985476203452 26.396024484276605 0.0
    vertex 18.115113536738033 21.905896423742032 0.0
  endloop
endfacet
facet normal 0.0 0.0 -1.0
  outer loop
    vertex 18.115113536738033 21.905896423742032 0.0
    vertex 13.624985476203452 26.396024484276605 0.0
    vertex 24.146009960480068 34.46909051224948 0.0
  endloop
endfacet
facet normal 0.0 0.0 -1.0
  outer loop
    vertex 18.115113536738033 21.905896423742032 0.0
    vertex 24.146009960480068 34.46909051224948 0.0
    vertex 27.321009960480062 28.969829198218296 0.0
  endloop
endfacet
facet normal 0.0 0.0 -1.0
  outer loop
    vertex 27.321009960480062 28.969829198218296 0.0
    vertex 24.146009960480068 34.46909051224948 0.0
    vertex 36.398002469272015 39.54403197548466 0.0
  endloop
endfacet
facet normal 0.0 0.0 -1.0
  outer loop
    vertex 27.321009960480062 28.969829198218296 0.0
    vertex 36.398002469272015 39.54403197548466 0.0
    vertex 38.04150340567302 33.41040297854908 0.0
  endloop
endfacet
facet normal 0.0 0.0 -1.0
  outer loop
    vertex 38.04150340567302 33.41040297854908 0.0
    vertex 36.398002469272015 39.54403197548466 0.0
    vertex 49.54600996048007 41.275 0.0
  endloop
endfacet
facet normal 0.0 0.0 -1.0
  outer loop
    vertex 38.04150340567302 33.41040297854908 0.0
    vertex 49.54600996048007 41.275 0.0
    vertex 49.54600996048006 34.92499999999999 0.0
  endloop
endfacet
facet normal 0.0 0.0 -1.0
  outer loop
    vertex 49.54600996048006 34.92499999999999 0.0
    vertex 49.54600996048007 41.275 0.0
    vertex 61.050516515287136 33.41040297854908 0.0
  endloop
endfacet
facet normal 0.0 0.0 -1.0
  outer loop
    vertex 61.050516515287136 33.41040297854908 0.0
    vertex 49.54600996048007 41.275 0.0
    vertex 62.69401745168815 39.54403197548466 0.0
  endloop
endfacet
facet normal 0.0 0.0 -1.0
  outer loop
    vertex 61.050516515287136 33.41040297854908 0.0
    vertex 62.69401745168815 39.54403197548466 0.0
    vertex 71.77100996048004 28.969829198218267 0.0
  endloop
endfacet
facet normal 0.0 0.0 -1.0
  outer loop
    vertex 71.77100996048004 28.969829198218267 0.0
    vertex 62.69401745168815 39.54403197548466 0.0
    vertex 74.94600996048005 34.46909051224945 0.0
  endloop
endfacet
facet normal 0.0 0.0 -1.0
  outer loop
    vertex 71.77100996048004 28.969829198218267 0.0
    vertex 74.94600996048005 34.46909051224945 0.0
    vertex 80.9769063842221 21.90589642374203 0.0
  endloop
endfacet
facet normal 0.0 0.0 -1.0
  outer loop
    vertex 80.9769063842221 21.90589642374203 0.0
    vertex 74.94600996048005 34.46909051224945 0.0
    vertex 85.46703444475668 26.396024484276605 0.0
  endloop
endfacet
facet normal 0.0 0.0 -1.0
  outer loop
    vertex 80.9769063842221 21.90589642374203 0.0
    vertex 85.46703444475668 26.396024484276605 0.0
    vertex 83.67824771004784 18.38543986722137 0.0
  endloop
endfacet
facet normal 0.0 0.0 -1.0
  outer loop
    vertex 83.67824771004784 18.38543986722137 0.0
    vertex 85.46703444475668 26.396024484276605 0.0
    vertex 87.64600996048007 18.385439867221393 0.0
  endloop
endfacet
facet normal 0.0 0.0 -1.0
  outer loop
    vertex 87.64600996048007 18.385439867221393 0.0
    vertex 85.46703444475668 26.396024484276605 0.0
    vertex 87.64600996048006 23.556328305386142 0.0
  endloop
endfacet
facet normal -0.707106781186549 -0.707106781186546 0.0
  outer loop
    vertex 80.9769063842221 21.90589642374203 19.049999999999997
    vertex 83.67824771004784 18.38543986722137 0.0
    vertex 83.67824771004784 18.38543986722137 19.049999999999997
  endloop
endfacet
facet normal -0.7933533402912392 -0.6087614290087154 0.0
  outer loop
    vertex 83.67824771004784 18.38543986722137 0.0
    vertex 80.9769063842221 21.90589642374203 19.049999999999997
    vertex 80.9769063842221 21.90589642374203 0.0
  endloop
endfacet
facet normal 6.396476588325413e-15 -1.0 0.0
  outer loop
    vertex 87.64600996048007 18.385439867221393 19.049999999999997
    vertex 83.67824771004784 18.38543986722137 0.0
    vertex 87.64600996048007 18.385439867221393 0.0
  endloop
endfacet
facet normal 6.396476588325413e-15 -1.0 0.0
  outer loop
    vertex 83.67824771004784 18.38543986722137 0.0
    vertex 87.64600996048007 18.385439867221393 19.049999999999997
    vertex 83.67824771004784 18.38543986722137 19.049999999999997
  endloop
endfacet
facet normal 1.0 2.1814173840878768e-15 -0.0
  outer loop
    vertex 87.64600996048006 23.556328305386142 0.0
    vertex 87.64600996048007 18.385439867221393 19.049999999999997
    vertex 87.64600996048007 18.385439867221393 0.0
  endloop
endfacet
facet normal 1.0 2.1814173840878768e-15 -0.0
  outer loop
    vertex 87.64600996048007 18.385439867221393 19.049999999999997
    vertex 87.64600996048006 23.556328305386142 0.0
    vertex 87.64600996048006 23.556328305386142 19.049999999999997
  endloop
endfacet
facet normal 0.7071067811865471 0.7071067811865478 0.0
  outer loop
    vertex 85.46703444475668 26.396024484276605 0.0
    vertex 87.64600996048006 23.556328305386142 19.049999999999997
    vertex 87.64600996048006 23.556328305386142 0.0
  endloop
endfacet
facet normal 0.7933533402912358 0.6087614290087199 -0.0
  outer loop
    vertex 87.64600996048006 23.556328305386142 19.049999999999997
    vertex 85.46703444475668 26.396024484276605 0.0
    vertex 85.46703444475668 26.396024484276605 19.049999999999997
  endloop
endfacet
facet normal 0.5000000000000003 0.8660254037844386 0.0
  outer loop
    vertex 74.94600996048005 34.46909051224945 19.049999999999997
    vertex 85.46703444475668 26.396024484276605 0.0
    vertex 74.94600996048005 34.46909051224945 0.0
  endloop
endfacet
facet normal 0.7071067811865471 0.7071067811865478 0.0
  outer loop
    vertex 85.46703444475668 26.396024484276605 0.0
    vertex 74.94600996048005 34.46909051224945 19.049999999999997
    vertex 85.46703444475668 26.396024484276605 19.049999999999997
  endloop
endfacet
facet normal 0.2588190451025224 0.9659258262890679 0.0
  outer loop
    vertex 62.69401745168815 39.54403197548466 19.049999999999997
    vertex 74.94600996048005 34.46909051224945 0.0
    vertex 62.69401745168815 39.54403197548466 0.0
  endloop
endfacet
facet normal 0.5000000000000003 0.8660254037844386 0.0
  outer loop
    vertex 74.94600996048005 34.46909051224945 0.0
    vertex 62.69401745168815 39.54403197548466 19.049999999999997
    vertex 74.94600996048005 34.46909051224945 19.049999999999997
  endloop
endfacet
facet normal -9.802220885211596e-17 1.0 0.0
  outer loop
    vertex 49.54600996048007 41.275 19.049999999999997
    vertex 62.69401745168815 39.54403197548466 0.0
    vertex 49.54600996048007 41.275 0.0
  endloop
endfacet
facet normal 0.2588190451025224 0.9659258262890679 0.0
  outer loop
    vertex 62.69401745168815 39.54403197548466 0.0
    vertex 49.54600996048007 41.275 19.049999999999997
    vertex 62.69401745168815 39.54403197548466 19.049999999999997
  endloop
endfacet
facet normal -0.2588190451025208 0.9659258262890683 0.0
  outer loop
    vertex 36.398002469272015 39.54403197548466 19.049999999999997
    vertex 49.54600996048007 41.275 0.0
    vertex 36.398002469272015 39.54403197548466 0.0
  endloop
endfacet
facet normal -9.802220885211596e-17 1.0 0.0
  outer loop
    vertex 49.54600996048007 41.275 0.0
    vertex 36.398002469272015 39.54403197548466 19.049999999999997
    vertex 49.54600996048007 41.275 19.049999999999997
  endloop
endfacet
facet normal -0.4999999999999999 0.8660254037844387 0.0
  outer loop
    vertex 24.146009960480068 34.46909051224948 19.049999999999997
    vertex 36.398002469272015 39.54403197548466 0.0
    vertex 24.146009960480068 34.46909051224948 0.0
  endloop
endfacet
facet normal -0.2588190451025208 0.9659258262890683 0.0
  outer loop
    vertex 36.398002469272015 39.54403197548466 0.0
    vertex 24.146009960480068 34.46909051224948 19.049999999999997
    vertex 36.398002469272015 39.54403197548466 19.049999999999997
  endloop
endfacet
facet normal -0.7071067811865477 0.7071067811865475 0.0
  outer loop
    vertex 13.624985476203452 26.396024484276605 19.049999999999997
    vertex 24.146009960480068 34.46909051224948 0.0
    vertex 13.624985476203452 26.396024484276605 0.0
  endloop
endfacet
facet normal -0.4999999999999999 0.8660254037844387 0.0
  outer loop
    vertex 24.146009960480068 34.46909051224948 0.0
    vertex 13.624985476203452 26.396024484276605 19.049999999999997
    vertex 24.146009960480068 34.46909051224948 19.049999999999997
  endloop
endfacet
facet normal -0.7071067811865477 0.7071067811865475 0.0
  outer loop
    vertex 13.624985476203452 26.396024484276605 19.049999999999997
    vertex 5.5519194482305885 15.874999999999993 0.0
    vertex 5.5519194482305885 15.874999999999993 19.049999999999997
  endloop
endfacet
facet normal -0.8660254037844385 0.5000000000000004 0.0
  outer loop
    vertex 5.5519194482305885 15.874999999999993 0.0
    vertex 13.624985476203452 26.396024484276605 19.049999999999997
    vertex 13.624985476203452 26.396024484276605 0.0
  endloop
endfacet
facet normal -0.8660254037844385 0.5000000000000004 0.0
  outer loop
    vertex 5.5519194482305885 15.874999999999993 19.049999999999997
    vertex 0.47697798499539323 3.623007491208059 0.0
    vertex 0.47697798499539323 3.623007491208059 19.049999999999997
  endloop
endfacet
facet normal -0.9659258262890679 0.25881904510252224 0.0
  outer loop
    vertex 0.47697798499539323 3.623007491208059 0.0
    vertex 5.5519194482305885 15.874999999999993 19.049999999999997
    vertex 5.5519194482305885 15.874999999999993 0.0
  endloop
endfacet
facet normal -0.9659258262890679 0.25881904510252224 0.0
  outer loop
    vertex 0.47697798499539323 3.623007491208059 19.049999999999997
    vertex 0.0 0.0 0.0
    vertex 0.0 0.0 19.049999999999997
  endloop
endfacet
facet normal -0.9914448613738103 0.13052619222005354 0.0
  outer loop
    vertex 0.0 0.0 0.0
    vertex 0.47697798499539323 3.623007491208059 19.049999999999997
    vertex 0.47697798499539323 3.623007491208059 0.0
  endloop
endfacet
facet normal -8.881784197001239e-16 -1.0 0.0
  outer loop
    vertex 6.350000000000009 -5.639932965095795e-15 19.049999999999997
    vertex 0.0 0.0 0.0
    vertex 6.350000000000009 -5.639932965095795e-15 0.0
  endloop
endfacet
facet normal -8.881784197001239e-16 -1.0 0.0
  outer loop
    vertex 0.0 0.0 0.0
    vertex 6.350000000000009 -5.639932965095795e-15 19.049999999999997
    vertex 0.0 0.0 19.049999999999997
  endloop
endfacet
facet normal 0.9659258262890686 -0.2588190451025194 0.0
  outer loop
    vertex 6.6106069819309745 1.9795065548070525 0.0
    vertex 6.350000000000009 -5.639932965095795e-15 19.049999999999997
    vertex 6.350000000000009 -5.639932965095795e-15 0.0
  endloop
endfacet
facet normal 0.9914448613738107 -0.13052619222004908 -0.0
  outer loop
    vertex 6.350000000000009 -5.639932965095795e-15 19.049999999999997
    vertex 6.6106069819309745 1.9795065548070525 0.0
    vertex 6.6106069819309745 1.9795065548070525 19.049999999999997
  endloop
endfacet
facet normal 0.8660254037844384 -0.5000000000000004 0.0
  outer loop
    vertex 11.05118076226176 12.700000000000005 0.0
    vertex 6.6106069819309745 1.9795065548070525 19.049999999999997
    vertex 6.6106069819309745 1.9795065548070525 0.0
  endloop
endfacet
facet normal 0.9659258262890686 -0.2588190451025194 0.0
  outer loop
    vertex 6.6106069819309745 1.9795065548070525 19.049999999999997
    vertex 11.05118076226176 12.700000000000005 0.0
    vertex 11.05118076226176 12.700000000000005 19.049999999999997
  endloop
endfacet
facet normal 0.7071067811865474 -0.7071067811865477 0.0
  outer loop
    vertex 18.115113536738033 21.905896423742032 0.0
    vertex 11.05118076226176 12.700000000000005 19.049999999999997
    vertex 11.05118076226176 12.700000000000005 0.0
  endloop
endfacet
facet normal 0.8660254037844384 -0.5000000000000004 0.0
  outer loop
    vertex 11.05118076226176 12.700000000000005 19.049999999999997
    vertex 18.115113536738033 21.905896423742032 0.0
    vertex 18.115113536738033 21.905896423742032 19.049999999999997
  endloop
endfacet
facet normal 0.49999999999999994 -0.8660254037844387 0.0
  outer loop
    vertex 27.321009960480062 28.969829198218296 19.049999999999997
    vertex 18.115113536738033 21.905896423742032 0.0
    vertex 27.321009960480062 28.969829198218296 0.0
  endloop
endfacet
facet normal 0.7071067811865474 -0.7071067811865477 0.0
  outer loop
    vertex 18.115113536738033 21.905896423742032 0.0
    vertex 27.321009960480062 28.969829198218296 19.049999999999997
    vertex 18.115113536738033 21.905896423742032 19.049999999999997
  endloop
endfacet
facet normal 0.2588190451025205 -0.9659258262890684 0.0
  outer loop
    vertex 38.04150340567302 33.41040297854908 19.049999999999997
    vertex 27.321009960480062 28.969829198218296 0.0
    vertex 38.04150340567302 33.41040297854908 0.0
  endloop
endfacet
facet normal 0.49999999999999994 -0.8660254037844387 0.0
  outer loop
    vertex 27.321009960480062 28.969829198218296 0.0
    vertex 38.04150340567302 33.41040297854908 19.049999999999997
    vertex 27.321009960480062 28.969829198218296 19.049999999999997
  endloop
endfacet
facet normal 1.6931108801729119e-16 -1.0 0.0
  outer loop
    vertex 49.54600996048006 34.92499999999999 19.049999999999997
    vertex 38.04150340567302 33.41040297854908 0.0
    vertex 49.54600996048006 34.92499999999999 0.0
  endloop
endfacet
facet normal 0.2588190451025205 -0.9659258262890684 0.0
  outer loop
    vertex 38.04150340567302 33.41040297854908 0.0
    vertex 49.54600996048006 34.92499999999999 19.049999999999997
    vertex 38.04150340567302 33.41040297854908 19.049999999999997
  endloop
endfacet
facet normal -0.2588190451025221 -0.9659258262890679 0.0
  outer loop
    vertex 61.050516515287136 33.41040297854908 19.049999999999997
    vertex 49.54600996048006 34.92499999999999 0.0
    vertex 61.050516515287136 33.41040297854908 0.0
  endloop
endfacet
facet normal 1.6931108801729119e-16 -1.0 0.0
  outer loop
    vertex 49.54600996048006 34.92499999999999 0.0
    vertex 61.050516515287136 33.41040297854908 19.049999999999997
    vertex 49.54600996048006 34.92499999999999 19.049999999999997
  endloop
endfacet
facet normal -0.5000000000000003 -0.8660254037844386 0.0
  outer loop
    vertex 71.77100996048004 28.969829198218267 19.049999999999997
    vertex 61.050516515287136 33.41040297854908 0.0
    vertex 71.77100996048004 28.969829198218267 0.0
  endloop
endfacet
facet normal -0.2588190451025221 -0.9659258262890679 0.0
  outer loop
    vertex 61.050516515287136 33.41040297854908 0.0
    vertex 71.77100996048004 28.969829198218267 19.049999999999997
    vertex 61.050516515287136 33.41040297854908 19.049999999999997
  endloop
endfacet
facet normal -0.707106781186549 -0.707106781186546 0.0
  outer loop
    vertex 80.9769063842221 21.90589642374203 19.049999999999997
    vertex 71.77100996048004 28.969829198218267 0.0
    vertex 80.9769063842221 21.90589642374203 0.0
  endloop
endfacet
facet normal -0.5000000000000003 -0.8660254037844386 0.0
  outer loop
    vertex 71.77100996048004 28.969829198218267 0.0
    vertex 80.9769063842221 21.90589642374203 19.049999999999997
    vertex 71.77100996048004 28.969829198218267 19.049999999999997
  endloop
endfacet
endsolid Fender
