solid Front Axle
facet normal 0.0 0.0 -1.0
  outer loop
    vertex 0.0 19.049999999999997 0.0
    vertex 40.145093106224316 13.741869935393215 0.0
    vertex 0.0 0.0 0.0
  endloop
endfacet
facet normal 0.0 0.0 -1.0
  outer loop
    vertex 40.145093106224316 13.741869935393215 0.0
    vertex 0.0 19.049999999999997 0.0
    vertex 41.275000000000006 13.890625 0.0
  endloop
endfacet
facet normal 0.0 0.0 -1.0
  outer loop
    vertex 41.275000000000006 13.890625 0.0
    vertex 0.0 19.049999999999997 0.0
    vertex 82.55 19.049999999999997 0.0
  endloop
endfacet
facet normal 0.0 0.0 -1.0
  outer loop
    vertex 0.0 0.0 0.0
    vertex 40.145093106224316 13.741869935393215 0.0
    vertex 39.09218750000001 13.30574215339644 0.0
  endloop
endfacet
facet normal 0.0 0.0 -1.0
  outer loop
    vertex 0.0 0.0 0.0
    vertex 39.09218750000001 13.30574215339644 0.0
    vertex 38.18803695838248 12.611963041617521 0.0
  endloop
endfacet
facet normal 0.0 0.0 -1.0
  outer loop
    vertex 0.0 0.0 0.0
    vertex 38.18803695838248 12.611963041617521 0.0
    vertex 37.49425784660356 11.707812500000003 0.0
  endloop
endfacet
facet normal 0.0 0.0 -1.0
  outer loop
    vertex 0.0 0.0 0.0
    vertex 37.49425784660356 11.707812500000003 0.0
    vertex 37.058130064606786 10.654906893775694 0.0
  endloop
endfacet
facet normal 0.0 0.0 -1.0
  outer loop
    vertex 0.0 0.0 0.0
    vertex 37.058130064606786 10.654906893775694 0.0
    vertex 36.909375000000004 9.524999999999999 0.0
  endloop
endfacet
facet normal 0.0 0.0 -1.0
  outer loop
    vertex 41.275000000000006 13.890625 0.0
    vertex 82.55 19.049999999999997 0.0
    vertex 42.4049068937757 13.741869935393211 0.0
  endloop
endfacet
facet normal 0.0 0.0 -1.0
  outer loop
    vertex 42.4049068937757 13.741869935393211 0.0
    vertex 82.55 19.049999999999997 0.0
    vertex 43.4578125 13.305742153396439 0.0
  endloop
endfacet
facet normal 0.0 0.0 -1.0
  outer loop
    vertex 43.4578125 13.305742153396439 0.0
    vertex 82.55 19.049999999999997 0.0
    vertex 44.36196304161753 12.61196304161752 0.0
  endloop
endfacet
facet normal 0.0 0.0 -1.0
  outer loop
    vertex 44.36196304161753 12.61196304161752 0.0
    vertex 82.55 19.049999999999997 0.0
    vertex 45.055742153396444 11.707812499999998 0.0
  endloop
endfacet
facet normal 0.0 0.0 -1.0
  outer loop
    vertex 45.055742153396444 11.707812499999998 0.0
    vertex 82.55 19.049999999999997 0.0
    vertex 45.49186993539322 10.65490689377569 0.0
  endloop
endfacet
facet normal 0.0 0.0 -1.0
  outer loop
    vertex 45.49186993539322 10.65490689377569 0.0
    vertex 82.55 19.049999999999997 0.0
    vertex 45.640625 9.524999999999999 0.0
  endloop
endfacet
facet normal 0.0 0.0 -1.0
  outer loop
    vertex 0.0 0.0 0.0
    vertex 41.275000000000006 5.159375 0.0
    vertex 82.55 0.0 0.0
  endloop
endfacet
facet normal 0.0 0.0 -1.0
  outer loop
    vertex 41.275000000000006 5.159375 0.0
    vertex 0.0 0.0 0.0
    vertex 40.145093106224316 5.308130064606786 0.0
  endloop
endfacet
facet normal 0.0 0.0 -1.0
  outer loop
    vertex 40.145093106224316 5.308130064606786 0.0
    vertex 0.0 0.0 0.0
    vertex 39.0921875 5.74425784660356 0.0
  endloop
endfacet
facet normal 0.0 0.0 -1.0
  outer loop
    vertex 39.0921875 5.74425784660356 0.0
    vertex 0.0 0.0 0.0
    vertex 38.18803695838248 6.438036958382479 0.0
  endloop
endfacet
facet normal 0.0 0.0 -1.0
  outer loop
    vertex 38.18803695838248 6.438036958382479 0.0
    vertex 0.0 0.0 0.0
    vertex 37.49425784660356 7.3421875 0.0
  endloop
endfacet
facet normal 0.0 0.0 -1.0
  outer loop
    vertex 37.49425784660356 7.3421875 0.0
    vertex 0.0 0.0 0.0
    vertex 37.058130064606786 8.395093106224307 0.0
  endloop
endfacet
facet normal 0.0 0.0 -1.0
  outer loop
    vertex 37.058130064606786 8.395093106224307 0.0
    vertex 0.0 0.0 0.0
    vertex 36.909375000000004 9.524999999999999 0.0
  endloop
endfacet
facet normal 0.0 0.0 -1.0
  outer loop
    vertex 82.55 0.0 0.0
    vertex 41.275000000000006 5.159375 0.0
    vertex 42.404906893775696 5.308130064606786 0.0
  endloop
endfacet
facet normal 0.0 0.0 -1.0
  outer loop
    vertex 82.55 0.0 0.0
    vertex 42.404906893775696 5.308130064606786 0.0
    vertex 43.4578125 5.744257846603559 0.0
  endloop
endfacet
facet normal 0.0 0.0 -1.0
  outer loop
    vertex 82.55 0.0 0.0
    vertex 43.4578125 5.744257846603559 0.0
    vertex 44.36196304161752 6.438036958382479 0.0
  endloop
endfacet
facet normal 0.0 0.0 -1.0
  outer loop
    vertex 82.55 0.0 0.0
    vertex 44.36196304161752 6.438036958382479 0.0
    vertex 45.055742153396444 7.342187499999998 0.0
  endloop
endfacet
facet normal 0.0 0.0 -1.0
  outer loop
    vertex 82.55 0.0 0.0
    vertex 45.055742153396444 7.342187499999998 0.0
    vertex 45.49186993539322 8.395093106224305 0.0
  endloop
endfacet
facet normal 0.0 0.0 -1.0
  outer loop
    vertex 82.55 0.0 0.0
    vertex 45.49186993539322 8.395093106224305 0.0
    vertex 45.640625 9.524999999999999 0.0
  endloop
endfacet
facet normal 0.0 0.0 -1.0
  outer loop
    vertex 82.55 0.0 0.0
    vertex 45.640625 9.524999999999999 0.0
    vertex 82.55 19.049999999999997 0.0
  endloop
endfacet
facet normal 0.0 0.0 1.0
  outer loop
    vertex 0.0 0.0 19.049999999999997
    vertex 40.145093106224316 5.308130064606786 19.049999999999997
    vertex 0.0 19.049999999999997 19.049999999999997
  endloop
endfacet
facet normal 0.0 0.0 1.0
  outer loop
    vertex 40.145093106224316 5.308130064606786 19.049999999999997
    vertex 0.0 0.0 19.049999999999997
    vertex 41.275000000000006 5.159375 19.049999999999997
  endloop
endfacet
facet normal 0.0 0.0 1.0
  outer loop
    vertex 41.275000000000006 5.159375 19.049999999999997
    vertex 0.0 0.0 19.049999999999997
    vertex 82.55 0.0 19.049999999999997
  endloop
endfacet
facet normal 0.0 0.0 1.0
  outer loop
    vertex 0.0 19.049999999999997 19.049999999999997
    vertex 40.145093106224316 5.308130064606786 19.049999999999997
    vertex 39.0921875 5.74425784660356 19.049999999999997
  endloop
endfacet
facet normal 0.0 0.0 1.0
  outer loop
    vertex 0.0 19.049999999999997 19.049999999999997
    vertex 39.0921875 5.74425784660356 19.049999999999997
    vertex 38.18803695838248 6.438036958382479 19.049999999999997
  endloop
endfacet
facet normal 0.0 0.0 1.0
  outer loop
    vertex 0.0 19.049999999999997 19.049999999999997
    vertex 38.18803695838248 6.438036958382479 19.049999999999997
    vertex 37.49425784660356 7.3421875 19.049999999999997
  endloop
endfacet
facet normal 0.0 0.0 1.0
  outer loop
    vertex 0.0 19.049999999999997 19.049999999999997
    vertex 37.49425784660356 7.3421875 19.049999999999997
    vertex 37.058130064606786 8.395093106224307 19.049999999999997
  endloop
endfacet
facet normal 0.0 0.0 1.0
  outer loop
    vertex 0.0 19.049999999999997 19.049999999999997
    vertex 37.058130064606786 8.395093106224307 19.049999999999997
    vertex 36.909375000000004 9.524999999999999 19.049999999999997
  endloop
endfacet
facet normal 0.0 0.0 1.0
  outer loop
    vertex 41.275000000000006 5.159375 19.049999999999997
    vertex 82.55 0.0 19.049999999999997
    vertex 42.404906893775696 5.308130064606786 19.049999999999997
  endloop
endfacet
facet normal 0.0 0.0 1.0
  outer loop
    vertex 42.404906893775696 5.308130064606786 19.049999999999997
    vertex 82.55 0.0 19.049999999999997
    vertex 43.4578125 5.744257846603559 19.049999999999997
  endloop
endfacet
facet normal 0.0 0.0 1.0
  outer loop
    vertex 43.4578125 5.744257846603559 19.049999999999997
    vertex 82.55 0.0 19.049999999999997
    vertex 44.36196304161752 6.438036958382479 19.049999999999997
  endloop
endfacet
facet normal 0.0 0.0 1.0
  outer loop
    vertex 44.36196304161752 6.438036958382479 19.049999999999997
    vertex 82.55 0.0 19.049999999999997
    vertex 45.055742153396444 7.342187499999998 19.049999999999997
  endloop
endfacet
facet normal 0.0 0.0 1.0
  outer loop
    vertex 45.055742153396444 7.342187499999998 19.049999999999997
    vertex 82.55 0.0 19.049999999999997
    vertex 45.49186993539322 8.395093106224305 19.049999999999997
  endloop
endfacet
facet normal 0.0 0.0 1.0
  outer loop
    vertex 45.49186993539322 8.395093106224305 19.049999999999997
    vertex 82.55 0.0 19.049999999999997
    vertex 45.640625 9.524999999999999 19.049999999999997
  endloop
endfacet
facet normal 0.0 0.0 1.0
  outer loop
    vertex 0.0 19.049999999999997 19.049999999999997
    vertex 41.275000000000006 13.890625 19.049999999999997
    vertex 82.55 19.049999999999997 19.049999999999997
  endloop
endfacet
facet normal 0.0 0.0 1.0
  outer loop
    vertex 41.275000000000006 13.890625 19.049999999999997
    vertex 0.0 19.049999999999997 19.049999999999997
    vertex 40.145093106224316 13.741869935393215 19.049999999999997
  endloop
endfacet
facet normal 0.0 0.0 1.0
  outer loop
    vertex 40.145093106224316 13.741869935393215 19.049999999999997
    vertex 0.0 19.049999999999997 19.049999999999997
    vertex 39.09218750000001 13.30574215339644 19.049999999999997
  endloop
endfacet
facet normal 0.0 0.0 1.0
  outer loop
    vertex 39.09218750000001 13.30574215339644 19.049999999999997
    vertex 0.0 19.049999999999997 19.049999999999997
    vertex 38.18803695838248 12.611963041617521 19.049999999999997
  endloop
endfacet
facet normal 0.0 0.0 1.0
  outer loop
    vertex 38.18803695838248 12.611963041617521 19.049999999999997
    vertex 0.0 19.049999999999997 19.049999999999997
    vertex 37.49425784660356 11.707812500000003 19.049999999999997
  endloop
endfacet
facet normal 0.0 0.0 1.0
  outer loop
    vertex 37.49425784660356 11.707812500000003 19.049999999999997
    vertex 0.0 19.049999999999997 19.049999999999997
    vertex 37.058130064606786 10.654906893775694 19.049999999999997
  endloop
endfacet
facet normal 0.0 0.0 1.0
  outer loop
    vertex 37.058130064606786 10.654906893775694 19.049999999999997
    vertex 0.0 19.049999999999997 19.049999999999997
    vertex 36.909375000000004 9.524999999999999 19.049999999999997
  endloop
endfacet
facet normal 0.0 0.0 1.0
  outer loop
    vertex 82.55 19.049999999999997 19.049999999999997
    vertex 41.275000000000006 13.890625 19.049999999999997
    vertex 42.4049068937757 13.741869935393211 19.049999999999997
  endloop
endfacet
facet normal 0.0 0.0 1.0
  outer loop
    vertex 82.55 19.049999999999997 19.049999999999997
    vertex 42.4049068937757 13.741869935393211 19.049999999999997
    vertex 43.4578125 13.305742153396439 19.049999999999997
  endloop
endfacet
facet normal 0.0 0.0 1.0
  outer loop
    vertex 82.55 19.049999999999997 19.049999999999997
    vertex 43.4578125 13.305742153396439 19.049999999999997
    vertex 44.36196304161753 12.61196304161752 19.049999999999997
  endloop
endfacet
facet normal 0.0 0.0 1.0
  outer loop
    vertex 82.55 19.049999999999997 19.049999999999997
    vertex 44.36196304161753 12.61196304161752 19.049999999999997
    vertex 45.055742153396444 11.707812499999998 19.049999999999997
  endloop
endfacet
facet normal 0.0 0.0 1.0
  outer loop
    vertex 82.55 19.049999999999997 19.049999999999997
    vertex 45.055742153396444 11.707812499999998 19.049999999999997
    vertex 45.49186993539322 10.65490689377569 19.049999999999997
  endloop
endfacet
facet normal 0.0 0.0 1.0
  outer loop
    vertex 82.55 19.049999999999997 19.049999999999997
    vertex 45.49186993539322 10.65490689377569 19.049999999999997
    vertex 45.640625 9.524999999999999 19.049999999999997
  endloop
endfacet
facet normal 0.0 0.0 1.0
  outer loop
    vertex 82.55 19.049999999999997 19.049999999999997
    vertex 45.640625 9.524999999999999 19.049999999999997
    vertex 82.55 0.0 19.049999999999997
  endloop
endfacet
facet normal -0.0 -1.0 -0.0
  outer loop
    vertex 82.55 0.0 19.049999999999997
    vertex 0.0 0.0 0.0
    vertex 82.55 0.0 0.0
  endloop
endfacet
facet normal -0.0 -1.0 -0.0
  outer loop
    vertex 0.0 0.0 0.0
    vertex 82.55 0.0 19.049999999999997
    vertex 0.0 0.0 19.049999999999997
  endloop
endfacet
facet normal -1.0 0.0 0.0
  outer loop
    vertex 0.0 0.0 19.049999999999997
    vertex 0.0 5.8876786472228435 11.93924419172054
    vertex 0.0 0.0 0.0
  endloop
endfacet
facet normal -1.0 0.0 0.0
  outer loop
    vertex 0.0 5.8876786472228435 11.93924419172054
    vertex 0.0 0.0 19.049999999999997
    vertex 0.0 6.636469743185274 12.79838885500804
  endloop
endfacet
facet normal -1.0 0.0 0.0
  outer loop
    vertex 0.0 6.636469743185274 12.79838885500804
    vertex 0.0 0.0 19.049999999999997
    vertex 0.0 7.582109402627675 13.434457477357597
  endloop
endfacet
facet normal -1.0 0.0 0.0
  outer loop
    vertex 0.0 7.582109402627675 13.434457477357597
    vertex 0.0 0.0 19.049999999999997
    vertex 0.0 19.049999999999997 19.049999999999997
  endloop
endfacet
facet normal -1.0 0.0 0.0
  outer loop
    vertex 0.0 0.0 0.0
    vertex 0.0 5.8876786472228435 11.93924419172054
    vertex 0.0 5.386764990494437 10.915572776494454
  endloop
endfacet
facet normal -1.0 0.0 0.0
  outer loop
    vertex 0.0 0.0 0.0
    vertex 0.0 5.386764990494437 10.915572776494454
    vertex 0.0 5.167865210907132 9.797136124580438
  endloop
endfacet
facet normal -1.0 0.0 0.0
  outer loop
    vertex 0.0 7.582109402627675 13.434457477357597
    vertex 0.0 19.049999999999997 19.049999999999997
    vertex 0.0 8.660153845502478 13.80410303330918
  endloop
endfacet
facet normal -1.0 0.0 0.0
  outer loop
    vertex 0.0 8.660153845502478 13.80410303330918
    vertex 0.0 19.049999999999997 19.049999999999997
    vertex 0.0 9.797136124580442 13.882134789092868
  endloop
endfacet
facet normal -1.0 0.0 0.0
  outer loop
    vertex 0.0 9.797136124580442 13.882134789092868
    vertex 0.0 19.049999999999997 19.049999999999997
    vertex 0.0 10.915572776494455 13.663235009505563
  endloop
endfacet
facet normal -1.0 0.0 0.0
  outer loop
    vertex 0.0 10.915572776494455 13.663235009505563
    vertex 0.0 19.049999999999997 19.049999999999997
    vertex 0.0 11.93924419172054 13.162321352777154
  endloop
endfacet
facet normal -1.0 0.0 0.0
  outer loop
    vertex 0.0 11.93924419172054 13.162321352777154
    vertex 0.0 19.049999999999997 19.049999999999997
    vertex 0.0 12.79838885500804 12.413530256814726
  endloop
endfacet
facet normal -1.0 0.0 0.0
  outer loop
    vertex 0.0 12.79838885500804 12.413530256814726
    vertex 0.0 19.049999999999997 19.049999999999997
    vertex 0.0 13.434457477357597 11.467890597372325
  endloop
endfacet
facet normal -1.0 0.0 0.0
  outer loop
    vertex 0.0 13.434457477357597 11.467890597372325
    vertex 0.0 19.049999999999997 19.049999999999997
    vertex 0.0 13.80410303330918 10.389846154497521
  endloop
endfacet
facet normal -1.0 0.0 0.0
  outer loop
    vertex 0.0 13.80410303330918 10.389846154497521
    vertex 0.0 19.049999999999997 19.049999999999997
    vertex 0.0 13.882134789092866 9.252863875419559
  endloop
endfacet
facet normal -1.0 0.0 0.0
  outer loop
    vertex 0.0 0.0 0.0
    vertex 0.0 7.110755808279458 5.8876786472228435
    vertex 0.0 19.049999999999997 0.0
  endloop
endfacet
facet normal -1.0 0.0 0.0
  outer loop
    vertex 0.0 7.110755808279458 5.8876786472228435
    vertex 0.0 0.0 0.0
    vertex 0.0 6.251611144991959 6.636469743185271
  endloop
endfacet
facet normal -1.0 0.0 0.0
  outer loop
    vertex 0.0 6.251611144991959 6.636469743185271
    vertex 0.0 0.0 0.0
    vertex 0.0 5.6155425226424045 7.582109402627673
  endloop
endfacet
facet normal -1.0 0.0 0.0
  outer loop
    vertex 0.0 5.6155425226424045 7.582109402627673
    vertex 0.0 0.0 0.0
    vertex 0.0 5.245896966690816 8.660153845502478
  endloop
endfacet
facet normal -1.0 0.0 0.0
  outer loop
    vertex 0.0 5.245896966690816 8.660153845502478
    vertex 0.0 0.0 0.0
    vertex 0.0 5.167865210907132 9.797136124580438
  endloop
endfacet
facet normal -1.0 0.0 0.0
  outer loop
    vertex 0.0 19.049999999999997 0.0
    vertex 0.0 7.110755808279458 5.8876786472228435
    vertex 0.0 8.134427223505545 5.386764990494437
  endloop
endfacet
facet normal -1.0 0.0 0.0
  outer loop
    vertex 0.0 19.049999999999997 0.0
    vertex 0.0 8.134427223505545 5.386764990494437
    vertex 0.0 9.252863875419559 5.167865210907133
  endloop
endfacet
facet normal -1.0 0.0 0.0
  outer loop
    vertex 0.0 19.049999999999997 0.0
    vertex 0.0 9.252863875419559 5.167865210907133
    vertex 0.0 10.389846154497521 5.245896966690816
  endloop
endfacet
facet normal -1.0 0.0 0.0
  outer loop
    vertex 0.0 19.049999999999997 0.0
    vertex 0.0 10.389846154497521 5.245896966690816
    vertex 0.0 11.467890597372325 5.6155425226424045
  endloop
endfacet
facet normal -1.0 0.0 0.0
  outer loop
    vertex 0.0 19.049999999999997 0.0
    vertex 0.0 11.467890597372325 5.6155425226424045
    vertex 0.0 12.413530256814727 6.251611144991959
  endloop
endfacet
facet normal -1.0 0.0 0.0
  outer loop
    vertex 0.0 19.049999999999997 0.0
    vertex 0.0 12.413530256814727 6.251611144991959
    vertex 0.0 13.162321352777154 7.110755808279458
  endloop
endfacet
facet normal -1.0 0.0 0.0
  outer loop
    vertex 0.0 19.049999999999997 0.0
    vertex 0.0 13.162321352777154 7.110755808279458
    vertex 0.0 13.663235009505563 8.134427223505543
  endloop
endfacet
facet normal -1.0 0.0 0.0
  outer loop
    vertex 0.0 19.049999999999997 0.0
    vertex 0.0 13.663235009505563 8.134427223505543
    vertex 0.0 13.882134789092866 9.252863875419559
  endloop
endfacet
facet normal -1.0 0.0 0.0
  outer loop
    vertex 0.0 19.049999999999997 0.0
    vertex 0.0 13.882134789092866 9.252863875419559
    vertex 0.0 19.049999999999997 19.049999999999997
  endloop
endfacet
facet normal -0.0 1.0 0.0
  outer loop
    vertex 0.0 19.049999999999997 19.049999999999997
    vertex 82.55 19.049999999999997 0.0
    vertex 0.0 19.049999999999997 0.0
  endloop
endfacet
facet normal -0.0 1.0 0.0
  outer loop
    vertex 82.55 19.049999999999997 0.0
    vertex 0.0 19.049999999999997 19.049999999999997
    vertex 82.55 19.049999999999997 19.049999999999997
  endloop
endfacet
facet normal 1.0 0.0 0.0
  outer loop
    vertex 82.55 0.0 0.0
    vertex 82.55 5.864538441152543 7.145987007848621
    vertex 82.55 0.0 19.049999999999997
  endloop
endfacet
facet normal 1.0 0.0 0.0
  outer loop
    vertex 82.55 5.864538441152543 7.145987007848621
    vertex 82.55 0.0 0.0
    vertex 82.55 6.6049995150860115 6.279652744508367
  endloop
endfacet
facet normal 1.0 0.0 0.0
  outer loop
    vertex 82.55 6.6049995150860115 6.279652744508367
    vertex 82.55 0.0 0.0
    vertex 82.55 7.544453796537406 5.634483533439949
  endloop
endfacet
facet normal 1.0 0.0 0.0
  outer loop
    vertex 82.55 7.544453796537406 5.634483533439949
    vertex 82.55 0.0 0.0
    vertex 82.55 19.049999999999997 0.0
  endloop
endfacet
facet normal 1.0 0.0 0.0
  outer loop
    vertex 82.55 0.0 19.049999999999997
    vertex 82.55 5.864538441152543 7.145987007848621
    vertex 82.55 5.373531773255791 8.174447075099133
  endloop
endfacet
facet normal 1.0 0.0 0.0
  outer loop
    vertex 82.55 0.0 19.049999999999997
    vertex 82.55 5.373531773255791 8.174447075099133
    vertex 82.55 5.165440804386027 9.294945092287405
  endloop
endfacet
facet normal 1.0 0.0 0.0
  outer loop
    vertex 82.55 7.544453796537406 5.634483533439949
    vertex 82.55 19.049999999999997 0.0
    vertex 82.55 8.618879028747422 5.254446590185145
  endloop
endfacet
facet normal 1.0 0.0 0.0
  outer loop
    vertex 82.55 8.618879028747422 5.254446590185145
    vertex 82.55 19.049999999999997 0.0
    vertex 82.55 9.755054907712594 5.165440804386027
  endloop
endfacet
facet normal 1.0 0.0 0.0
  outer loop
    vertex 82.55 9.755054907712594 5.165440804386027
    vertex 82.55 19.049999999999997 0.0
    vertex 82.55 10.875552924900866 5.373531773255791
  endloop
endfacet
facet normal 1.0 0.0 0.0
  outer loop
    vertex 82.55 10.875552924900866 5.373531773255791
    vertex 82.55 19.049999999999997 0.0
    vertex 82.55 11.904012992151378 5.864538441152543
  endloop
endfacet
facet normal 1.0 0.0 0.0
  outer loop
    vertex 82.55 11.904012992151378 5.864538441152543
    vertex 82.55 19.049999999999997 0.0
    vertex 82.55 12.77034725549163 6.6049995150860115
  endloop
endfacet
facet normal 1.0 0.0 0.0
  outer loop
    vertex 82.55 12.77034725549163 6.6049995150860115
    vertex 82.55 19.049999999999997 0.0
    vertex 82.55 13.41551646656005 7.544453796537405
  endloop
endfacet
facet normal 1.0 0.0 0.0
  outer loop
    vertex 82.55 13.41551646656005 7.544453796537405
    vertex 82.55 19.049999999999997 0.0
    vertex 82.55 13.795553409814854 8.618879028747422
  endloop
endfacet
facet normal 1.0 0.0 0.0
  outer loop
    vertex 82.55 13.795553409814854 8.618879028747422
    vertex 82.55 19.049999999999997 0.0
    vertex 82.55 13.88455919561397 9.755054907712594
  endloop
endfacet
facet normal 1.0 0.0 0.0
  outer loop
    vertex 82.55 0.0 19.049999999999997
    vertex 82.55 7.145987007848621 13.185461558847456
    vertex 82.55 19.049999999999997 19.049999999999997
  endloop
endfacet
facet normal 1.0 0.0 0.0
  outer loop
    vertex 82.55 7.145987007848621 13.185461558847456
    vertex 82.55 0.0 19.049999999999997
    vertex 82.55 6.2796527445083665 12.445000484913987
  endloop
endfacet
facet normal 1.0 0.0 0.0
  outer loop
    vertex 82.55 6.2796527445083665 12.445000484913987
    vertex 82.55 0.0 19.049999999999997
    vertex 82.55 5.634483533439948 11.505546203462591
  endloop
endfacet
facet normal 1.0 0.0 0.0
  outer loop
    vertex 82.55 5.634483533439948 11.505546203462591
    vertex 82.55 0.0 19.049999999999997
    vertex 82.55 5.254446590185145 10.431120971252575
  endloop
endfacet
facet normal 1.0 0.0 0.0
  outer loop
    vertex 82.55 5.254446590185145 10.431120971252575
    vertex 82.55 0.0 19.049999999999997
    vertex 82.55 5.165440804386027 9.294945092287405
  endloop
endfacet
facet normal 1.0 0.0 0.0
  outer loop
    vertex 82.55 19.049999999999997 19.049999999999997
    vertex 82.55 7.145987007848621 13.185461558847456
    vertex 82.55 8.174447075099133 13.676468226744209
  endloop
endfacet
facet normal 1.0 0.0 0.0
  outer loop
    vertex 82.55 19.049999999999997 19.049999999999997
    vertex 82.55 8.174447075099133 13.676468226744209
    vertex 82.55 9.294945092287401 13.88455919561397
  endloop
endfacet
facet normal 1.0 0.0 0.0
  outer loop
    vertex 82.55 19.049999999999997 19.049999999999997
    vertex 82.55 9.294945092287401 13.88455919561397
    vertex 82.55 10.431120971252577 13.795553409814854
  endloop
endfacet
facet normal 1.0 0.0 0.0
  outer loop
    vertex 82.55 19.049999999999997 19.049999999999997
    vertex 82.55 10.431120971252577 13.795553409814854
    vertex 82.55 11.505546203462591 13.41551646656005
  endloop
endfacet
facet normal 1.0 0.0 0.0
  outer loop
    vertex 82.55 19.049999999999997 19.049999999999997
    vertex 82.55 11.505546203462591 13.41551646656005
    vertex 82.55 12.445000484913987 12.77034725549163
  endloop
endfacet
facet normal 1.0 0.0 0.0
  outer loop
    vertex 82.55 19.049999999999997 19.049999999999997
    vertex 82.55 12.445000484913987 12.77034725549163
    vertex 82.55 13.185461558847456 11.904012992151376
  endloop
endfacet
facet normal 1.0 0.0 0.0
  outer loop
    vertex 82.55 19.049999999999997 19.049999999999997
    vertex 82.55 13.185461558847456 11.904012992151376
    vertex 82.55 13.676468226744209 10.875552924900864
  endloop
endfacet
facet normal 1.0 0.0 0.0
  outer loop
    vertex 82.55 19.049999999999997 19.049999999999997
    vertex 82.55 13.676468226744209 10.875552924900864
    vertex 82.55 13.88455919561397 9.755054907712594
  endloop
endfacet
facet normal 1.0 0.0 0.0
  outer loop
    vertex 82.55 19.049999999999997 19.049999999999997
    vertex 82.55 13.88455919561397 9.755054907712594
    vertex 82.55 19.049999999999997 0.0
  endloop
endfacet
facet normal -0.7071067811865472 -0.7071067811865477 0.0
  outer loop
    vertex 44.36196304161753 12.61196304161752 19.049999999999997
    vertex 45.055742153396444 11.707812499999998 0.0
    vertex 45.055742153396444 11.707812499999998 19.049999999999997
  endloop
endfacet
facet normal -0.8660254037844388 -0.4999999999999998 0.0
  outer loop
    vertex 45.055742153396444 11.707812499999998 0.0
    vertex 44.36196304161753 12.61196304161752 19.049999999999997
    vertex 44.36196304161753 12.61196304161752 0.0
  endloop
endfacet
facet normal -0.7071067811865472 -0.7071067811865477 0.0
  outer loop
    vertex 44.36196304161753 12.61196304161752 19.049999999999997
    vertex 43.4578125 13.305742153396439 0.0
    vertex 44.36196304161753 12.61196304161752 0.0
  endloop
endfacet
facet normal -0.5000000000000001 -0.8660254037844386 0.0
  outer loop
    vertex 43.4578125 13.305742153396439 0.0
    vertex 44.36196304161753 12.61196304161752 19.049999999999997
    vertex 43.4578125 13.305742153396439 19.049999999999997
  endloop
endfacet
facet normal -0.5000000000000001 -0.8660254037844386 0.0
  outer loop
    vertex 43.4578125 13.305742153396439 19.049999999999997
    vertex 42.4049068937757 13.741869935393211 0.0
    vertex 43.4578125 13.305742153396439 0.0
  endloop
endfacet
facet normal -0.2588190451025216 -0.9659258262890681 0.0
  outer loop
    vertex 42.4049068937757 13.741869935393211 0.0
    vertex 43.4578125 13.305742153396439 19.049999999999997
    vertex 42.4049068937757 13.741869935393211 19.049999999999997
  endloop
endfacet
facet normal -0.2588190451025216 -0.9659258262890681 0.0
  outer loop
    vertex 42.4049068937757 13.741869935393211 19.049999999999997
    vertex 41.275000000000006 13.890625 0.0
    vertex 42.4049068937757 13.741869935393211 0.0
  endloop
endfacet
facet normal -9.089332093559842e-16 -1.0 0.0
  outer loop
    vertex 41.275000000000006 13.890625 0.0
    vertex 42.4049068937757 13.741869935393211 19.049999999999997
    vertex 41.275000000000006 13.890625 19.049999999999997
  endloop
endfacet
facet normal -9.089332093559842e-16 -1.0 0.0
  outer loop
    vertex 41.275000000000006 13.890625 19.049999999999997
    vertex 40.145093106224316 13.741869935393215 0.0
    vertex 41.275000000000006 13.890625 0.0
  endloop
endfacet
facet normal 0.25881904510252074 -0.9659258262890682 0.0
  outer loop
    vertex 40.145093106224316 13.741869935393215 0.0
    vertex 41.275000000000006 13.890625 19.049999999999997
    vertex 40.145093106224316 13.741869935393215 19.049999999999997
  endloop
endfacet
facet normal 0.25881904510252074 -0.9659258262890682 0.0
  outer loop
    vertex 40.145093106224316 13.741869935393215 19.049999999999997
    vertex 39.09218750000001 13.30574215339644 0.0
    vertex 40.145093106224316 13.741869935393215 0.0
  endloop
endfacet
facet normal 0.5000000000000001 -0.8660254037844386 0.0
  outer loop
    vertex 39.09218750000001 13.30574215339644 0.0
    vertex 40.145093106224316 13.741869935393215 19.049999999999997
    vertex 39.09218750000001 13.30574215339644 19.049999999999997
  endloop
endfacet
facet normal 0.5000000000000001 -0.8660254037844386 0.0
  outer loop
    vertex 39.09218750000001 13.30574215339644 19.049999999999997
    vertex 38.18803695838248 12.611963041617521 0.0
    vertex 39.09218750000001 13.30574215339644 0.0
  endloop
endfacet
facet normal 0.7071067811865456 -0.7071067811865493 0.0
  outer loop
    vertex 38.18803695838248 12.611963041617521 0.0
    vertex 39.09218750000001 13.30574215339644 19.049999999999997
    vertex 38.18803695838248 12.611963041617521 19.049999999999997
  endloop
endfacet
facet normal 0.7071067811865456 -0.7071067811865493 0.0
  outer loop
    vertex 38.18803695838248 12.611963041617521 0.0
    vertex 37.49425784660356 11.707812500000003 19.049999999999997
    vertex 37.49425784660356 11.707812500000003 0.0
  endloop
endfacet
facet normal 0.8660254037844376 -0.5000000000000018 0.0
  outer loop
    vertex 37.49425784660356 11.707812500000003 19.049999999999997
    vertex 38.18803695838248 12.611963041617521 0.0
    vertex 38.18803695838248 12.611963041617521 19.049999999999997
  endloop
endfacet
facet normal 0.8660254037844376 -0.5000000000000018 0.0
  outer loop
    vertex 37.49425784660356 11.707812500000003 0.0
    vertex 37.058130064606786 10.654906893775694 19.049999999999997
    vertex 37.058130064606786 10.654906893775694 0.0
  endloop
endfacet
facet normal 0.9659258262890686 -0.25881904510251985 0.0
  outer loop
    vertex 37.058130064606786 10.654906893775694 19.049999999999997
    vertex 37.49425784660356 11.707812500000003 0.0
    vertex 37.49425784660356 11.707812500000003 19.049999999999997
  endloop
endfacet
facet normal 0.9659258262890686 -0.25881904510251985 0.0
  outer loop
    vertex 37.058130064606786 10.654906893775694 0.0
    vertex 36.909375000000004 9.524999999999999 19.049999999999997
    vertex 36.909375000000004 9.524999999999999 0.0
  endloop
endfacet
facet normal 1.0 1.3366664843470356e-16 0.0
  outer loop
    vertex 36.909375000000004 9.524999999999999 19.049999999999997
    vertex 37.058130064606786 10.654906893775694 0.0
    vertex 37.058130064606786 10.654906893775694 19.049999999999997
  endloop
endfacet
facet normal 1.0 1.3366664843470356e-16 0.0
  outer loop
    vertex 36.909375000000004 9.524999999999999 0.0
    vertex 37.058130064606786 8.395093106224307 19.049999999999997
    vertex 37.058130064606786 8.395093106224307 0.0
  endloop
endfacet
facet normal 0.9659258262890685 0.25881904510252 0.0
  outer loop
    vertex 37.058130064606786 8.395093106224307 19.049999999999997
    vertex 36.909375000000004 9.524999999999999 0.0
    vertex 36.909375000000004 9.524999999999999 19.049999999999997
  endloop
endfacet
facet normal 0.9659258262890685 0.25881904510252 0.0
  outer loop
    vertex 37.058130064606786 8.395093106224307 0.0
    vertex 37.49425784660356 7.3421875 19.049999999999997
    vertex 37.49425784660356 7.3421875 0.0
  endloop
endfacet
facet normal 0.8660254037844388 0.4999999999999998 0.0
  outer loop
    vertex 37.49425784660356 7.3421875 19.049999999999997
    vertex 37.058130064606786 8.395093106224307 0.0
    vertex 37.058130064606786 8.395093106224307 19.049999999999997
  endloop
endfacet
facet normal 0.8660254037844388 0.4999999999999998 0.0
  outer loop
    vertex 37.49425784660356 7.3421875 0.0
    vertex 38.18803695838248 6.438036958382479 19.049999999999997
    vertex 38.18803695838248 6.438036958382479 0.0
  endloop
endfacet
facet normal 0.7071067811865474 0.7071067811865479 0.0
  outer loop
    vertex 38.18803695838248 6.438036958382479 19.049999999999997
    vertex 37.49425784660356 7.3421875 0.0
    vertex 37.49425784660356 7.3421875 19.049999999999997
  endloop
endfacet
facet normal 0.7071067811865474 0.7071067811865479 0.0
  outer loop
    vertex 38.18803695838248 6.438036958382479 19.049999999999997
    vertex 39.0921875 5.74425784660356 0.0
    vertex 38.18803695838248 6.438036958382479 0.0
  endloop
endfacet
facet normal 0.49999999999999944 0.8660254037844389 0.0
  outer loop
    vertex 39.0921875 5.74425784660356 0.0
    vertex 38.18803695838248 6.438036958382479 19.049999999999997
    vertex 39.0921875 5.74425784660356 19.049999999999997
  endloop
endfacet
facet normal 0.49999999999999944 0.8660254037844389 0.0
  outer loop
    vertex 39.0921875 5.74425784660356 19.049999999999997
    vertex 40.145093106224316 5.308130064606786 0.0
    vertex 39.0921875 5.74425784660356 0.0
  endloop
endfacet
facet normal 0.25881904510252063 0.9659258262890682 0.0
  outer loop
    vertex 40.145093106224316 5.308130064606786 0.0
    vertex 39.0921875 5.74425784660356 19.049999999999997
    vertex 40.145093106224316 5.308130064606786 19.049999999999997
  endloop
endfacet
facet normal 0.25881904510252063 0.9659258262890682 0.0
  outer loop
    vertex 40.145093106224316 5.308130064606786 19.049999999999997
    vertex 41.275000000000006 5.159375 0.0
    vertex 40.145093106224316 5.308130064606786 0.0
  endloop
endfacet
facet normal 0.0 1.0 0.0
  outer loop
    vertex 41.275000000000006 5.159375 0.0
    vertex 40.145093106224316 5.308130064606786 19.049999999999997
    vertex 41.275000000000006 5.159375 19.049999999999997
  endloop
endfacet
facet normal 0.0 1.0 0.0
  outer loop
    vertex 41.275000000000006 5.159375 19.049999999999997
    vertex 42.404906893775696 5.308130064606786 0.0
    vertex 41.275000000000006 5.159375 0.0
  endloop
endfacet
facet normal -0.2588190451025204 0.9659258262890683 0.0
  outer loop
    vertex 42.404906893775696 5.308130064606786 0.0
    vertex 41.275000000000006 5.159375 19.049999999999997
    vertex 42.404906893775696 5.308130064606786 19.049999999999997
  endloop
endfacet
facet normal -0.2588190451025204 0.9659258262890683 0.0
  outer loop
    vertex 42.404906893775696 5.308130064606786 19.049999999999997
    vertex 43.4578125 5.744257846603559 0.0
    vertex 42.404906893775696 5.308130064606786 0.0
  endloop
endfacet
facet normal -0.5000000000000007 0.8660254037844384 0.0
  outer loop
    vertex 43.4578125 5.744257846603559 0.0
    vertex 42.404906893775696 5.308130064606786 19.049999999999997
    vertex 43.4578125 5.744257846603559 19.049999999999997
  endloop
endfacet
facet normal -0.5000000000000007 0.8660254037844384 0.0
  outer loop
    vertex 43.4578125 5.744257846603559 19.049999999999997
    vertex 44.36196304161752 6.438036958382479 0.0
    vertex 43.4578125 5.744257846603559 0.0
  endloop
endfacet
facet normal -0.7071067811865467 0.7071067811865482 0.0
  outer loop
    vertex 44.36196304161752 6.438036958382479 0.0
    vertex 43.4578125 5.744257846603559 19.049999999999997
    vertex 44.36196304161752 6.438036958382479 19.049999999999997
  endloop
endfacet
facet normal -0.8660254037844376 0.5000000000000018 0.0
  outer loop
    vertex 45.055742153396444 7.342187499999998 19.049999999999997
    vertex 44.36196304161752 6.438036958382479 0.0
    vertex 44.36196304161752 6.438036958382479 19.049999999999997
  endloop
endfacet
facet normal -0.7071067811865467 0.7071067811865482 0.0
  outer loop
    vertex 44.36196304161752 6.438036958382479 0.0
    vertex 45.055742153396444 7.342187499999998 19.049999999999997
    vertex 45.055742153396444 7.342187499999998 0.0
  endloop
endfacet
facet normal -0.9659258262890686 0.2588190451025199 0.0
  outer loop
    vertex 45.49186993539322 8.395093106224305 19.049999999999997
    vertex 45.055742153396444 7.342187499999998 0.0
    vertex 45.055742153396444 7.342187499999998 19.049999999999997
  endloop
endfacet
facet normal -0.8660254037844376 0.5000000000000018 0.0
  outer loop
    vertex 45.055742153396444 7.342187499999998 0.0
    vertex 45.49186993539322 8.395093106224305 19.049999999999997
    vertex 45.49186993539322 8.395093106224305 0.0
  endloop
endfacet
facet normal -1.0 -1.6931108801729116e-16 0.0
  outer loop
    vertex 45.640625 9.524999999999999 19.049999999999997
    vertex 45.49186993539322 8.395093106224305 0.0
    vertex 45.49186993539322 8.395093106224305 19.049999999999997
  endloop
endfacet
facet normal -0.9659258262890686 0.2588190451025199 0.0
  outer loop
    vertex 45.49186993539322 8.395093106224305 0.0
    vertex 45.640625 9.524999999999999 19.049999999999997
    vertex 45.640625 9.524999999999999 0.0
  endloop
endfacet
facet normal -0.9659258262890684 -0.25881904510252 0.0
  outer loop
    vertex 45.49186993539322 10.65490689377569 19.049999999999997
    vertex 45.640625 9.524999999999999 0.0
    vertex 45.640625 9.524999999999999 19.049999999999997
  endloop
endfacet
facet normal -1.0 -1.6931108801729116e-16 0.0
  outer loop
    vertex 45.640625 9.524999999999999 0.0
    vertex 45.49186993539322 10.65490689377569 19.049999999999997
    vertex 45.49186993539322 10.65490689377569 0.0
  endloop
endfacet
facet normal -0.8660254037844388 -0.4999999999999998 0.0
  outer loop
    vertex 45.055742153396444 11.707812499999998 19.049999999999997
    vertex 45.49186993539322 10.65490689377569 0.0
    vertex 45.49186993539322 10.65490689377569 19.049999999999997
  endloop
endfacet
facet normal -0.9659258262890684 -0.25881904510252 0.0
  outer loop
    vertex 45.49186993539322 10.65490689377569 0.0
    vertex 45.055742153396444 11.707812499999998 19.049999999999997
    vertex 45.055742153396444 11.707812499999998 0.0
  endloop
endfacet
facet normal 1.0 0.0 0.0
  outer loop
    vertex 57.15 5.373531773255791 8.174447075099133
    vertex 57.15 5.254446590185145 10.431120971252575
    vertex 57.15 5.165440804386027 9.294945092287405
  endloop
endfacet
facet normal 1.0 0.0 0.0
  outer loop
    vertex 57.15 5.254446590185145 10.431120971252575
    vertex 57.15 5.373531773255791 8.174447075099133
    vertex 57.15 5.634483533439948 11.505546203462591
  endloop
endfacet
facet normal 1.0 0.0 0.0
  outer loop
    vertex 57.15 5.634483533439948 11.505546203462591
    vertex 57.15 5.373531773255791 8.174447075099133
    vertex 57.15 5.864538441152543 7.145987007848621
  endloop
endfacet
facet normal 1.0 0.0 0.0
  outer loop
    vertex 57.15 5.634483533439948 11.505546203462591
    vertex 57.15 5.864538441152543 7.145987007848621
    vertex 57.15 6.2796527445083665 12.445000484913987
  endloop
endfacet
facet normal 1.0 0.0 0.0
  outer loop
    vertex 57.15 6.2796527445083665 12.445000484913987
    vertex 57.15 5.864538441152543 7.145987007848621
    vertex 57.15 6.6049995150860115 6.279652744508367
  endloop
endfacet
facet normal 1.0 0.0 0.0
  outer loop
    vertex 57.15 6.2796527445083665 12.445000484913987
    vertex 57.15 6.6049995150860115 6.279652744508367
    vertex 57.15 7.145987007848621 13.185461558847456
  endloop
endfacet
facet normal 1.0 0.0 0.0
  outer loop
    vertex 57.15 7.145987007848621 13.185461558847456
    vertex 57.15 6.6049995150860115 6.279652744508367
    vertex 57.15 7.544453796537406 5.634483533439949
  endloop
endfacet
facet normal 1.0 0.0 0.0
  outer loop
    vertex 57.15 7.145987007848621 13.185461558847456
    vertex 57.15 7.544453796537406 5.634483533439949
    vertex 57.15 8.174447075099133 13.676468226744209
  endloop
endfacet
facet normal 1.0 0.0 0.0
  outer loop
    vertex 57.15 8.174447075099133 13.676468226744209
    vertex 57.15 7.544453796537406 5.634483533439949
    vertex 57.15 8.618879028747422 5.254446590185145
  endloop
endfacet
facet normal 1.0 0.0 0.0
  outer loop
    vertex 57.15 8.174447075099133 13.676468226744209
    vertex 57.15 8.618879028747422 5.254446590185145
    vertex 57.15 9.294945092287401 13.88455919561397
  endloop
endfacet
facet normal 1.0 0.0 0.0
  outer loop
    vertex 57.15 9.294945092287401 13.88455919561397
    vertex 57.15 8.618879028747422 5.254446590185145
    vertex 57.15 9.755054907712594 5.165440804386027
  endloop
endfacet
facet normal 1.0 0.0 0.0
  outer loop
    vertex 57.15 9.294945092287401 13.88455919561397
    vertex 57.15 9.755054907712594 5.165440804386027
    vertex 57.15 10.431120971252577 13.795553409814854
  endloop
endfacet
facet normal 1.0 0.0 0.0
  outer loop
    vertex 57.15 10.431120971252577 13.795553409814854
    vertex 57.15 9.755054907712594 5.165440804386027
    vertex 57.15 10.875552924900866 5.373531773255791
  endloop
endfacet
facet normal 1.0 0.0 0.0
  outer loop
    vertex 57.15 10.431120971252577 13.795553409814854
    vertex 57.15 10.875552924900866 5.373531773255791
    vertex 57.15 11.505546203462591 13.41551646656005
  endloop
endfacet
facet normal 1.0 0.0 0.0
  outer loop
    vertex 57.15 11.505546203462591 13.41551646656005
    vertex 57.15 10.875552924900866 5.373531773255791
    vertex 57.15 11.904012992151378 5.864538441152543
  endloop
endfacet
facet normal 1.0 0.0 0.0
  outer loop
    vertex 57.15 11.505546203462591 13.41551646656005
    vertex 57.15 11.904012992151378 5.864538441152543
    vertex 57.15 12.445000484913987 12.77034725549163
  endloop
endfacet
facet normal 1.0 0.0 0.0
  outer loop
    vertex 57.15 12.445000484913987 12.77034725549163
    vertex 57.15 11.904012992151378 5.864538441152543
    vertex 57.15 12.77034725549163 6.6049995150860115
  endloop
endfacet
facet normal 1.0 0.0 0.0
  outer loop
    vertex 57.15 12.445000484913987 12.77034725549163
    vertex 57.15 12.77034725549163 6.6049995150860115
    vertex 57.15 13.185461558847456 11.904012992151376
  endloop
endfacet
facet normal 1.0 0.0 0.0
  outer loop
    vertex 57.15 13.185461558847456 11.904012992151376
    vertex 57.15 12.77034725549163 6.6049995150860115
    vertex 57.15 13.41551646656005 7.544453796537405
  endloop
endfacet
facet normal 1.0 0.0 0.0
  outer loop
    vertex 57.15 13.185461558847456 11.904012992151376
    vertex 57.15 13.41551646656005 7.544453796537405
    vertex 57.15 13.676468226744209 10.875552924900864
  endloop
endfacet
facet normal 1.0 0.0 0.0
  outer loop
    vertex 57.15 13.676468226744209 10.875552924900864
    vertex 57.15 13.41551646656005 7.544453796537405
    vertex 57.15 13.795553409814854 8.618879028747422
  endloop
endfacet
facet normal 1.0 0.0 0.0
  outer loop
    vertex 57.15 13.676468226744209 10.875552924900864
    vertex 57.15 13.795553409814854 8.618879028747422
    vertex 57.15 13.88455919561397 9.755054907712594
  endloop
endfacet
facet normal 0.0 -0.0526969008360992 0.9986105530397074
  outer loop
    vertex 82.55 9.755054907712594 5.165440804386027
    vertex 57.15 10.875552924900866 5.373531773255791
    vertex 57.15 9.755054907712594 5.165440804386027
  endloop
endfacet
facet normal 0.0 -0.30936072725001923 0.9509447620316014
  outer loop
    vertex 57.15 10.875552924900866 5.373531773255791
    vertex 82.55 9.755054907712594 5.165440804386027
    vertex 82.55 10.875552924900866 5.373531773255791
  endloop
endfacet
facet normal 0.0 -0.30936072725001923 0.9509447620316014
  outer loop
    vertex 82.55 10.875552924900866 5.373531773255791
    vertex 57.15 11.904012992151378 5.864538441152543
    vertex 57.15 10.875552924900866 5.373531773255791
  endloop
endfacet
facet normal 0.0 -0.5449421313446251 0.8384736570015647
  outer loop
    vertex 57.15 11.904012992151378 5.864538441152543
    vertex 82.55 10.875552924900866 5.373531773255791
    vertex 82.55 11.904012992151378 5.864538441152543
  endloop
endfacet
facet normal 0.0 -0.5449421313446251 0.8384736570015647
  outer loop
    vertex 82.55 11.904012992151378 5.864538441152543
    vertex 57.15 12.77034725549163 6.6049995150860115
    vertex 57.15 11.904012992151378 5.864538441152543
  endloop
endfacet
facet normal 0.0 -0.7433866297475463 0.6688619578901049
  outer loop
    vertex 57.15 12.77034725549163 6.6049995150860115
    vertex 82.55 11.904012992151378 5.864538441152543
    vertex 82.55 12.77034725549163 6.6049995150860115
  endloop
endfacet
facet normal 0.0 -0.8911705578376637 0.45366842169508254
  outer loop
    vertex 82.55 13.41551646656005 7.544453796537405
    vertex 57.15 12.77034725549163 6.6049995150860115
    vertex 82.55 12.77034725549163 6.6049995150860115
  endloop
endfacet
facet normal 0.0 -0.7433866297475463 0.6688619578901049
  outer loop
    vertex 57.15 12.77034725549163 6.6049995150860115
    vertex 82.55 13.41551646656005 7.544453796537405
    vertex 57.15 13.41551646656005 7.544453796537405
  endloop
endfacet
facet normal 0.0 -0.9782226851401242 0.2075581322840546
  outer loop
    vertex 82.55 13.795553409814854 8.618879028747422
    vertex 57.15 13.41551646656005 7.544453796537405
    vertex 82.55 13.41551646656005 7.544453796537405
  endloop
endfacet
facet normal 0.0 -0.8911705578376637 0.45366842169508254
  outer loop
    vertex 57.15 13.41551646656005 7.544453796537405
    vertex 82.55 13.795553409814854 8.618879028747422
    vertex 57.15 13.795553409814854 8.618879028747422
  endloop
endfacet
facet normal 0.0 -0.9986105530397074 -0.05269690083609931
  outer loop
    vertex 82.55 13.88455919561397 9.755054907712594
    vertex 57.15 13.795553409814854 8.618879028747422
    vertex 82.55 13.795553409814854 8.618879028747422
  endloop
endfacet
facet normal 0.0 -0.9782226851401242 0.2075581322840546
  outer loop
    vertex 57.15 13.795553409814854 8.618879028747422
    vertex 82.55 13.88455919561397 9.755054907712594
    vertex 57.15 13.88455919561397 9.755054907712594
  endloop
endfacet
facet normal 0.0 -0.9509447620316014 -0.30936072725001906
  outer loop
    vertex 82.55 13.676468226744209 10.875552924900864
    vertex 57.15 13.88455919561397 9.755054907712594
    vertex 82.55 13.88455919561397 9.755054907712594
  endloop
endfacet
facet normal 0.0 -0.9986105530397074 -0.05269690083609931
  outer loop
    vertex 57.15 13.88455919561397 9.755054907712594
    vertex 82.55 13.676468226744209 10.875552924900864
    vertex 57.15 13.676468226744209 10.875552924900864
  endloop
endfacet
facet normal 0.0 -0.8384736570015647 -0.5449421313446251
  outer loop
    vertex 82.55 13.185461558847456 11.904012992151376
    vertex 57.15 13.676468226744209 10.875552924900864
    vertex 82.55 13.676468226744209 10.875552924900864
  endloop
endfacet
facet normal 0.0 -0.9509447620316014 -0.30936072725001906
  outer loop
    vertex 57.15 13.676468226744209 10.875552924900864
    vertex 82.55 13.185461558847456 11.904012992151376
    vertex 57.15 13.185461558847456 11.904012992151376
  endloop
endfacet
facet normal 0.0 -0.6688619578901046 -0.7433866297475465
  outer loop
    vertex 82.55 12.445000484913987 12.77034725549163
    vertex 57.15 13.185461558847456 11.904012992151376
    vertex 82.55 13.185461558847456 11.904012992151376
  endloop
endfacet
facet normal 0.0 -0.8384736570015647 -0.5449421313446251
  outer loop
    vertex 57.15 13.185461558847456 11.904012992151376
    vertex 82.55 12.445000484913987 12.77034725549163
    vertex 57.15 12.445000484913987 12.77034725549163
  endloop
endfacet
facet normal 0.0 -0.6688619578901046 -0.7433866297475465
  outer loop
    vertex 82.55 12.445000484913987 12.77034725549163
    vertex 57.15 11.505546203462591 13.41551646656005
    vertex 57.15 12.445000484913987 12.77034725549163
  endloop
endfacet
facet normal 0.0 -0.4536684216950826 -0.8911705578376639
  outer loop
    vertex 57.15 11.505546203462591 13.41551646656005
    vertex 82.55 12.445000484913987 12.77034725549163
    vertex 82.55 11.505546203462591 13.41551646656005
  endloop
endfacet
facet normal 0.0 -0.4536684216950826 -0.8911705578376639
  outer loop
    vertex 82.55 11.505546203462591 13.41551646656005
    vertex 57.15 10.431120971252577 13.795553409814854
    vertex 57.15 11.505546203462591 13.41551646656005
  endloop
endfacet
facet normal 0.0 -0.20755813228405495 -0.9782226851401243
  outer loop
    vertex 57.15 10.431120971252577 13.795553409814854
    vertex 82.55 11.505546203462591 13.41551646656005
    vertex 82.55 10.431120971252577 13.795553409814854
  endloop
endfacet
facet normal 0.0 -0.20755813228405495 -0.9782226851401243
  outer loop
    vertex 82.55 10.431120971252577 13.795553409814854
    vertex 57.15 9.294945092287401 13.88455919561397
    vertex 57.15 10.431120971252577 13.795553409814854
  endloop
endfacet
facet normal 0.0 0.052696900836099424 -0.9986105530397075
  outer loop
    vertex 57.15 9.294945092287401 13.88455919561397
    vertex 82.55 10.431120971252577 13.795553409814854
    vertex 82.55 9.294945092287401 13.88455919561397
  endloop
endfacet
facet normal 0.0 0.052696900836099424 -0.9986105530397075
  outer loop
    vertex 82.55 9.294945092287401 13.88455919561397
    vertex 57.15 8.174447075099133 13.676468226744209
    vertex 57.15 9.294945092287401 13.88455919561397
  endloop
endfacet
facet normal 0.0 0.3093607272500194 -0.9509447620316015
  outer loop
    vertex 57.15 8.174447075099133 13.676468226744209
    vertex 82.55 9.294945092287401 13.88455919561397
    vertex 82.55 8.174447075099133 13.676468226744209
  endloop
endfacet
facet normal 0.0 0.3093607272500194 -0.9509447620316015
  outer loop
    vertex 82.55 8.174447075099133 13.676468226744209
    vertex 57.15 7.145987007848621 13.185461558847456
    vertex 57.15 8.174447075099133 13.676468226744209
  endloop
endfacet
facet normal 0.0 0.5449421313446253 -0.8384736570015646
  outer loop
    vertex 57.15 7.145987007848621 13.185461558847456
    vertex 82.55 8.174447075099133 13.676468226744209
    vertex 82.55 7.145987007848621 13.185461558847456
  endloop
endfacet
facet normal 0.0 0.5449421313446253 -0.8384736570015646
  outer loop
    vertex 82.55 7.145987007848621 13.185461558847456
    vertex 57.15 6.2796527445083665 12.445000484913987
    vertex 57.15 7.145987007848621 13.185461558847456
  endloop
endfacet
facet normal 0.0 0.7433866297475467 -0.6688619578901045
  outer loop
    vertex 57.15 6.2796527445083665 12.445000484913987
    vertex 82.55 7.145987007848621 13.185461558847456
    vertex 82.55 6.2796527445083665 12.445000484913987
  endloop
endfacet
facet normal 0.0 0.7433866297475467 -0.6688619578901045
  outer loop
    vertex 57.15 6.2796527445083665 12.445000484913987
    vertex 82.55 5.634483533439948 11.505546203462591
    vertex 57.15 5.634483533439948 11.505546203462591
  endloop
endfacet
facet normal 0.0 0.8911705578376642 -0.453668421695082
  outer loop
    vertex 82.55 5.634483533439948 11.505546203462591
    vertex 57.15 6.2796527445083665 12.445000484913987
    vertex 82.55 6.2796527445083665 12.445000484913987
  endloop
endfacet
facet normal 0.0 0.8911705578376642 -0.453668421695082
  outer loop
    vertex 57.15 5.634483533439948 11.505546203462591
    vertex 82.55 5.254446590185145 10.431120971252575
    vertex 57.15 5.254446590185145 10.431120971252575
  endloop
endfacet
facet normal 0.0 0.9782226851401242 -0.20755813228405492
  outer loop
    vertex 82.55 5.254446590185145 10.431120971252575
    vertex 57.15 5.634483533439948 11.505546203462591
    vertex 82.55 5.634483533439948 11.505546203462591
  endloop
endfacet
facet normal 0.0 0.9782226851401242 -0.20755813228405492
  outer loop
    vertex 57.15 5.254446590185145 10.431120971252575
    vertex 82.55 5.165440804386027 9.294945092287405
    vertex 57.15 5.165440804386027 9.294945092287405
  endloop
endfacet
facet normal 0.0 0.9986105530397074 0.052696900836099035
  outer loop
    vertex 82.55 5.165440804386027 9.294945092287405
    vertex 57.15 5.254446590185145 10.431120971252575
    vertex 82.55 5.254446590185145 10.431120971252575
  endloop
endfacet
facet normal 0.0 0.9986105530397074 0.052696900836099035
  outer loop
    vertex 57.15 5.165440804386027 9.294945092287405
    vertex 82.55 5.373531773255791 8.174447075099133
    vertex 57.15 5.373531773255791 8.174447075099133
  endloop
endfacet
facet normal 0.0 0.9509447620316015 0.30936072725001945
  outer loop
    vertex 82.55 5.373531773255791 8.174447075099133
    vertex 57.15 5.165440804386027 9.294945092287405
    vertex 82.55 5.165440804386027 9.294945092287405
  endloop
endfacet
facet normal 0.0 0.9509447620316015 0.30936072725001945
  outer loop
    vertex 57.15 5.373531773255791 8.174447075099133
    vertex 82.55 5.864538441152543 7.145987007848621
    vertex 57.15 5.864538441152543 7.145987007848621
  endloop
endfacet
facet normal 0.0 0.8384736570015647 0.5449421313446251
  outer loop
    vertex 82.55 5.864538441152543 7.145987007848621
    vertex 57.15 5.373531773255791 8.174447075099133
    vertex 82.55 5.373531773255791 8.174447075099133
  endloop
endfacet
facet normal 0.0 0.8384736570015647 0.5449421313446251
  outer loop
    vertex 57.15 5.864538441152543 7.145987007848621
    vertex 82.55 6.6049995150860115 6.279652744508367
    vertex 57.15 6.6049995150860115 6.279652744508367
  endloop
endfacet
facet normal 0.0 0.6688619578901047 0.7433866297475465
  outer loop
    vertex 82.55 6.6049995150860115 6.279652744508367
    vertex 57.15 5.864538441152543 7.145987007848621
    vertex 82.55 5.864538441152543 7.145987007848621
  endloop
endfacet
facet normal 0.0 0.6688619578901047 0.7433866297475465
  outer loop
    vertex 82.55 6.6049995150860115 6.279652744508367
    vertex 57.15 7.544453796537406 5.634483533439949
    vertex 57.15 6.6049995150860115 6.279652744508367
  endloop
endfacet
facet normal 0.0 0.4536684216950822 0.891170557837664
  outer loop
    vertex 57.15 7.544453796537406 5.634483533439949
    vertex 82.55 6.6049995150860115 6.279652744508367
    vertex 82.55 7.544453796537406 5.634483533439949
  endloop
endfacet
facet normal 0.0 0.4536684216950822 0.891170557837664
  outer loop
    vertex 82.55 7.544453796537406 5.634483533439949
    vertex 57.15 8.618879028747422 5.254446590185145
    vertex 57.15 7.544453796537406 5.634483533439949
  endloop
endfacet
facet normal 0.0 0.20755813228405512 0.9782226851401242
  outer loop
    vertex 57.15 8.618879028747422 5.254446590185145
    vertex 82.55 7.544453796537406 5.634483533439949
    vertex 82.55 8.618879028747422 5.254446590185145
  endloop
endfacet
facet normal 0.0 0.20755813228405512 0.9782226851401242
  outer loop
    vertex 82.55 8.618879028747422 5.254446590185145
    vertex 57.15 9.755054907712594 5.165440804386027
    vertex 57.15 8.618879028747422 5.254446590185145
  endloop
endfacet
facet normal 0.0 -0.0526969008360992 0.9986105530397074
  outer loop
    vertex 57.15 9.755054907712594 5.165440804386027
    vertex 82.55 8.618879028747422 5.254446590185145
    vertex 82.55 9.755054907712594 5.165440804386027
  endloop
endfacet
facet normal -1.0 0.0 0.0
  outer loop
    vertex 25.4 5.386764990494437 10.915572776494454
    vertex 25.4 5.245896966690816 8.660153845502478
    vertex 25.4 5.167865210907132 9.797136124580438
  endloop
endfacet
facet normal -1.0 0.0 0.0
  outer loop
    vertex 25.4 5.245896966690816 8.660153845502478
    vertex 25.4 5.386764990494437 10.915572776494454
    vertex 25.4 5.6155425226424045 7.582109402627673
  endloop
endfacet
facet normal -1.0 0.0 0.0
  outer loop
    vertex 25.4 5.6155425226424045 7.582109402627673
    vertex 25.4 5.386764990494437 10.915572776494454
    vertex 25.4 5.8876786472228435 11.93924419172054
  endloop
endfacet
facet normal -1.0 0.0 0.0
  outer loop
    vertex 25.4 5.6155425226424045 7.582109402627673
    vertex 25.4 5.8876786472228435 11.93924419172054
    vertex 25.4 6.251611144991959 6.636469743185271
  endloop
endfacet
facet normal -1.0 0.0 0.0
  outer loop
    vertex 25.4 6.251611144991959 6.636469743185271
    vertex 25.4 5.8876786472228435 11.93924419172054
    vertex 25.4 6.636469743185274 12.79838885500804
  endloop
endfacet
facet normal -1.0 0.0 0.0
  outer loop
    vertex 25.4 6.251611144991959 6.636469743185271
    vertex 25.4 6.636469743185274 12.79838885500804
    vertex 25.4 7.110755808279458 5.8876786472228435
  endloop
endfacet
facet normal -1.0 0.0 0.0
  outer loop
    vertex 25.4 7.110755808279458 5.8876786472228435
    vertex 25.4 6.636469743185274 12.79838885500804
    vertex 25.4 7.582109402627675 13.434457477357597
  endloop
endfacet
facet normal -1.0 0.0 0.0
  outer loop
    vertex 25.4 7.110755808279458 5.8876786472228435
    vertex 25.4 7.582109402627675 13.434457477357597
    vertex 25.4 8.134427223505545 5.386764990494437
  endloop
endfacet
facet normal -1.0 0.0 0.0
  outer loop
    vertex 25.4 8.134427223505545 5.386764990494437
    vertex 25.4 7.582109402627675 13.434457477357597
    vertex 25.4 8.660153845502478 13.80410303330918
  endloop
endfacet
facet normal -1.0 0.0 0.0
  outer loop
    vertex 25.4 8.134427223505545 5.386764990494437
    vertex 25.4 8.660153845502478 13.80410303330918
    vertex 25.4 9.252863875419559 5.167865210907133
  endloop
endfacet
facet normal -1.0 0.0 0.0
  outer loop
    vertex 25.4 9.252863875419559 5.167865210907133
    vertex 25.4 8.660153845502478 13.80410303330918
    vertex 25.4 9.797136124580442 13.882134789092868
  endloop
endfacet
facet normal -1.0 0.0 0.0
  outer loop
    vertex 25.4 9.252863875419559 5.167865210907133
    vertex 25.4 9.797136124580442 13.882134789092868
    vertex 25.4 10.389846154497521 5.245896966690816
  endloop
endfacet
facet normal -1.0 0.0 0.0
  outer loop
    vertex 25.4 10.389846154497521 5.245896966690816
    vertex 25.4 9.797136124580442 13.882134789092868
    vertex 25.4 10.915572776494455 13.663235009505563
  endloop
endfacet
facet normal -1.0 0.0 0.0
  outer loop
    vertex 25.4 10.389846154497521 5.245896966690816
    vertex 25.4 10.915572776494455 13.663235009505563
    vertex 25.4 11.467890597372325 5.6155425226424045
  endloop
endfacet
facet normal -1.0 0.0 0.0
  outer loop
    vertex 25.4 11.467890597372325 5.6155425226424045
    vertex 25.4 10.915572776494455 13.663235009505563
    vertex 25.4 11.93924419172054 13.162321352777154
  endloop
endfacet
facet normal -1.0 0.0 0.0
  outer loop
    vertex 25.4 11.467890597372325 5.6155425226424045
    vertex 25.4 11.93924419172054 13.162321352777154
    vertex 25.4 12.413530256814727 6.251611144991959
  endloop
endfacet
facet normal -1.0 0.0 0.0
  outer loop
    vertex 25.4 12.413530256814727 6.251611144991959
    vertex 25.4 11.93924419172054 13.162321352777154
    vertex 25.4 12.79838885500804 12.413530256814726
  endloop
endfacet
facet normal -1.0 0.0 0.0
  outer loop
    vertex 25.4 12.413530256814727 6.251611144991959
    vertex 25.4 12.79838885500804 12.413530256814726
    vertex 25.4 13.162321352777154 7.110755808279458
  endloop
endfacet
facet normal -1.0 0.0 0.0
  outer loop
    vertex 25.4 13.162321352777154 7.110755808279458
    vertex 25.4 12.79838885500804 12.413530256814726
    vertex 25.4 13.434457477357597 11.467890597372325
  endloop
endfacet
facet normal -1.0 0.0 0.0
  outer loop
    vertex 25.4 13.162321352777154 7.110755808279458
    vertex 25.4 13.434457477357597 11.467890597372325
    vertex 25.4 13.663235009505563 8.134427223505543
  endloop
endfacet
facet normal -1.0 0.0 0.0
  outer loop
    vertex 25.4 13.663235009505563 8.134427223505543
    vertex 25.4 13.434457477357597 11.467890597372325
    vertex 25.4 13.80410303330918 10.389846154497521
  endloop
endfacet
facet normal -1.0 0.0 0.0
  outer loop
    vertex 25.4 13.663235009505563 8.134427223505543
    vertex 25.4 13.80410303330918 10.389846154497521
    vertex 25.4 13.882134789092866 9.252863875419559
  endloop
endfacet
facet normal 0.0 -0.44504294284834883 0.895509228886493
  outer loop
    vertex 25.4 11.467890597372325 5.6155425226424045
    vertex 0.0 12.413530256814727 6.251611144991959
    vertex 0.0 11.467890597372325 5.6155425226424045
  endloop
endfacet
facet normal 0.0 -0.6616533158058073 0.7498099023640463
  outer loop
    vertex 0.0 12.413530256814727 6.251611144991959
    vertex 25.4 11.467890597372325 5.6155425226424045
    vertex 25.4 12.413530256814727 6.251611144991959
  endloop
endfacet
facet normal 0.0 -0.19810362880401372 0.9801810813592974
  outer loop
    vertex 25.4 10.389846154497521 5.245896966690816
    vertex 0.0 11.467890597372325 5.6155425226424045
    vertex 0.0 10.389846154497521 5.245896966690816
  endloop
endfacet
facet normal 0.0 -0.44504294284834883 0.895509228886493
  outer loop
    vertex 0.0 11.467890597372325 5.6155425226424045
    vertex 25.4 10.389846154497521 5.245896966690816
    vertex 25.4 11.467890597372325 5.6155425226424045
  endloop
endfacet
facet normal 0.0 0.062336120161589646 0.9980552129632909
  outer loop
    vertex 25.4 9.252863875419559 5.167865210907133
    vertex 0.0 10.389846154497521 5.245896966690816
    vertex 0.0 9.252863875419559 5.167865210907133
  endloop
endfacet
facet normal 0.0 -0.19810362880401372 0.9801810813592974
  outer loop
    vertex 0.0 10.389846154497521 5.245896966690816
    vertex 25.4 9.252863875419559 5.167865210907133
    vertex 25.4 10.389846154497521 5.245896966690816
  endloop
endfacet
facet normal 0.0 0.3185277655534899 0.9479135311680602
  outer loop
    vertex 25.4 8.134427223505545 5.386764990494437
    vertex 0.0 9.252863875419559 5.167865210907133
    vertex 0.0 8.134427223505545 5.386764990494437
  endloop
endfacet
facet normal 0.0 0.062336120161589646 0.9980552129632909
  outer loop
    vertex 0.0 9.252863875419559 5.167865210907133
    vertex 25.4 8.134427223505545 5.386764990494437
    vertex 25.4 9.252863875419559 5.167865210907133
  endloop
endfacet
facet normal 0.0 0.5530122701149413 0.8331731087249034
  outer loop
    vertex 25.4 7.110755808279458 5.8876786472228435
    vertex 0.0 8.134427223505545 5.386764990494437
    vertex 0.0 7.110755808279458 5.8876786472228435
  endloop
endfacet
facet normal 0.0 0.3185277655534899 0.9479135311680602
  outer loop
    vertex 0.0 8.134427223505545 5.386764990494437
    vertex 25.4 7.110755808279458 5.8876786472228435
    vertex 25.4 8.134427223505545 5.386764990494437
  endloop
endfacet
facet normal 0.0 0.7498099023640463 0.6616533158058073
  outer loop
    vertex 25.4 6.251611144991959 6.636469743185271
    vertex 0.0 7.110755808279458 5.8876786472228435
    vertex 0.0 6.251611144991959 6.636469743185271
  endloop
endfacet
facet normal 0.0 0.5530122701149413 0.8331731087249034
  outer loop
    vertex 0.0 7.110755808279458 5.8876786472228435
    vertex 25.4 6.251611144991959 6.636469743185271
    vertex 25.4 7.110755808279458 5.8876786472228435
  endloop
endfacet
facet normal 0.0 0.8955092288864929 0.445042942848349
  outer loop
    vertex 0.0 5.6155425226424045 7.582109402627673
    vertex 25.4 6.251611144991959 6.636469743185271
    vertex 0.0 6.251611144991959 6.636469743185271
  endloop
endfacet
facet normal 0.0 0.7498099023640463 0.6616533158058073
  outer loop
    vertex 25.4 6.251611144991959 6.636469743185271
    vertex 0.0 5.6155425226424045 7.582109402627673
    vertex 25.4 5.6155425226424045 7.582109402627673
  endloop
endfacet
facet normal 0.0 0.9801810813592974 0.19810362880401383
  outer loop
    vertex 0.0 5.245896966690816 8.660153845502478
    vertex 25.4 5.6155425226424045 7.582109402627673
    vertex 0.0 5.6155425226424045 7.582109402627673
  endloop
endfacet
facet normal 0.0 0.8955092288864929 0.445042942848349
  outer loop
    vertex 25.4 5.6155425226424045 7.582109402627673
    vertex 0.0 5.245896966690816 8.660153845502478
    vertex 25.4 5.245896966690816 8.660153845502478
  endloop
endfacet
facet normal 0.0 0.9980552129632909 -0.06233612016158948
  outer loop
    vertex 0.0 5.167865210907132 9.797136124580438
    vertex 25.4 5.245896966690816 8.660153845502478
    vertex 0.0 5.245896966690816 8.660153845502478
  endloop
endfacet
facet normal 0.0 0.9801810813592974 0.19810362880401383
  outer loop
    vertex 25.4 5.245896966690816 8.660153845502478
    vertex 0.0 5.167865210907132 9.797136124580438
    vertex 25.4 5.167865210907132 9.797136124580438
  endloop
endfacet
facet normal 0.0 0.9479135311680601 -0.31852776555349005
  outer loop
    vertex 0.0 5.386764990494437 10.915572776494454
    vertex 25.4 5.167865210907132 9.797136124580438
    vertex 0.0 5.167865210907132 9.797136124580438
  endloop
endfacet
facet normal 0.0 0.9980552129632909 -0.06233612016158948
  outer loop
    vertex 25.4 5.167865210907132 9.797136124580438
    vertex 0.0 5.386764990494437 10.915572776494454
    vertex 25.4 5.386764990494437 10.915572776494454
  endloop
endfacet
facet normal 0.0 0.8331731087249028 -0.5530122701149417
  outer loop
    vertex 0.0 5.8876786472228435 11.93924419172054
    vertex 25.4 5.386764990494437 10.915572776494454
    vertex 0.0 5.386764990494437 10.915572776494454
  endloop
endfacet
facet normal 0.0 0.9479135311680601 -0.31852776555349005
  outer loop
    vertex 25.4 5.386764990494437 10.915572776494454
    vertex 0.0 5.8876786472228435 11.93924419172054
    vertex 25.4 5.8876786472228435 11.93924419172054
  endloop
endfacet
facet normal 0.0 0.6616533158058074 -0.7498099023640461
  outer loop
    vertex 0.0 6.636469743185274 12.79838885500804
    vertex 25.4 5.8876786472228435 11.93924419172054
    vertex 0.0 5.8876786472228435 11.93924419172054
  endloop
endfacet
facet normal 0.0 0.8331731087249028 -0.5530122701149417
  outer loop
    vertex 25.4 5.8876786472228435 11.93924419172054
    vertex 0.0 6.636469743185274 12.79838885500804
    vertex 25.4 6.636469743185274 12.79838885500804
  endloop
endfacet
facet normal 0.0 0.4450429428483489 -0.8955092288864929
  outer loop
    vertex 25.4 7.582109402627675 13.434457477357597
    vertex 0.0 6.636469743185274 12.79838885500804
    vertex 0.0 7.582109402627675 13.434457477357597
  endloop
endfacet
facet normal 0.0 0.6616533158058074 -0.7498099023640461
  outer loop
    vertex 0.0 6.636469743185274 12.79838885500804
    vertex 25.4 7.582109402627675 13.434457477357597
    vertex 25.4 6.636469743185274 12.79838885500804
  endloop
endfacet
facet normal 0.0 0.19810362880401344 -0.9801810813592975
  outer loop
    vertex 25.4 8.660153845502478 13.80410303330918
    vertex 0.0 7.582109402627675 13.434457477357597
    vertex 0.0 8.660153845502478 13.80410303330918
  endloop
endfacet
facet normal 0.0 0.4450429428483489 -0.8955092288864929
  outer loop
    vertex 0.0 7.582109402627675 13.434457477357597
    vertex 25.4 8.660153845502478 13.80410303330918
    vertex 25.4 7.582109402627675 13.434457477357597
  endloop
endfacet
facet normal 0.0 -0.062336120161589376 -0.9980552129632908
  outer loop
    vertex 25.4 9.797136124580442 13.882134789092868
    vertex 0.0 8.660153845502478 13.80410303330918
    vertex 0.0 9.797136124580442 13.882134789092868
  endloop
endfacet
facet normal 0.0 0.19810362880401344 -0.9801810813592975
  outer loop
    vertex 0.0 8.660153845502478 13.80410303330918
    vertex 25.4 9.797136124580442 13.882134789092868
    vertex 25.4 8.660153845502478 13.80410303330918
  endloop
endfacet
facet normal 0.0 -0.3185277655534915 -0.9479135311680597
  outer loop
    vertex 25.4 10.915572776494455 13.663235009505563
    vertex 0.0 9.797136124580442 13.882134789092868
    vertex 0.0 10.915572776494455 13.663235009505563
  endloop
endfacet
facet normal 0.0 -0.062336120161589376 -0.9980552129632908
  outer loop
    vertex 0.0 9.797136124580442 13.882134789092868
    vertex 25.4 10.915572776494455 13.663235009505563
    vertex 25.4 9.797136124580442 13.882134789092868
  endloop
endfacet
facet normal 0.0 -0.553012270114942 -0.8331731087249026
  outer loop
    vertex 25.4 11.93924419172054 13.162321352777154
    vertex 0.0 10.915572776494455 13.663235009505563
    vertex 0.0 11.93924419172054 13.162321352777154
  endloop
endfacet
facet normal 0.0 -0.3185277655534915 -0.9479135311680597
  outer loop
    vertex 0.0 10.915572776494455 13.663235009505563
    vertex 25.4 11.93924419172054 13.162321352777154
    vertex 25.4 10.915572776494455 13.663235009505563
  endloop
endfacet
facet normal 0.0 -0.7498099023640458 -0.6616533158058078
  outer loop
    vertex 25.4 12.79838885500804 12.413530256814726
    vertex 0.0 11.93924419172054 13.162321352777154
    vertex 0.0 12.79838885500804 12.413530256814726
  endloop
endfacet
facet normal 0.0 -0.553012270114942 -0.8331731087249026
  outer loop
    vertex 0.0 11.93924419172054 13.162321352777154
    vertex 25.4 12.79838885500804 12.413530256814726
    vertex 25.4 11.93924419172054 13.162321352777154
  endloop
endfacet
facet normal 0.0 -0.7498099023640458 -0.6616533158058078
  outer loop
    vertex 25.4 12.79838885500804 12.413530256814726
    vertex 0.0 13.434457477357597 11.467890597372325
    vertex 25.4 13.434457477357597 11.467890597372325
  endloop
endfacet
facet normal 0.0 -0.8955092288864931 -0.4450429428483487
  outer loop
    vertex 0.0 13.434457477357597 11.467890597372325
    vertex 25.4 12.79838885500804 12.413530256814726
    vertex 0.0 12.79838885500804 12.413530256814726
  endloop
endfacet
facet normal 0.0 -0.8955092288864931 -0.4450429428483487
  outer loop
    vertex 25.4 13.434457477357597 11.467890597372325
    vertex 0.0 13.80410303330918 10.389846154497521
    vertex 25.4 13.80410303330918 10.389846154497521
  endloop
endfacet
facet normal 0.0 -0.9801810813592978 -0.19810362880401214
  outer loop
    vertex 0.0 13.80410303330918 10.389846154497521
    vertex 25.4 13.434457477357597 11.467890597372325
    vertex 0.0 13.434457477357597 11.467890597372325
  endloop
endfacet
facet normal 0.0 -0.9801810813592978 -0.19810362880401214
  outer loop
    vertex 25.4 13.80410303330918 10.389846154497521
    vertex 0.0 13.882134789092866 9.252863875419559
    vertex 25.4 13.882134789092866 9.252863875419559
  endloop
endfacet
facet normal 0.0 -0.9980552129632909 0.0623361201615892
  outer loop
    vertex 0.0 13.882134789092866 9.252863875419559
    vertex 25.4 13.80410303330918 10.389846154497521
    vertex 0.0 13.80410303330918 10.389846154497521
  endloop
endfacet
facet normal 0.0 -0.9980552129632909 0.0623361201615892
  outer loop
    vertex 25.4 13.882134789092866 9.252863875419559
    vertex 0.0 13.663235009505563 8.134427223505543
    vertex 25.4 13.663235009505563 8.134427223505543
  endloop
endfacet
facet normal 0.0 -0.9479135311680601 0.3185277655534903
  outer loop
    vertex 0.0 13.663235009505563 8.134427223505543
    vertex 25.4 13.882134789092866 9.252863875419559
    vertex 0.0 13.882134789092866 9.252863875419559
  endloop
endfacet
facet normal 0.0 -0.9479135311680601 0.3185277655534903
  outer loop
    vertex 25.4 13.663235009505563 8.134427223505543
    vertex 0.0 13.162321352777154 7.110755808279458
    vertex 25.4 13.162321352777154 7.110755808279458
  endloop
endfacet
facet normal 0.0 -0.8331731087249029 0.5530122701149414
  outer loop
    vertex 0.0 13.162321352777154 7.110755808279458
    vertex 25.4 13.663235009505563 8.134427223505543
    vertex 0.0 13.663235009505563 8.134427223505543
  endloop
endfacet
facet normal 0.0 -0.8331731087249029 0.5530122701149414
  outer loop
    vertex 25.4 13.162321352777154 7.110755808279458
    vertex 0.0 12.413530256814727 6.251611144991959
    vertex 25.4 12.413530256814727 6.251611144991959
  endloop
endfacet
facet normal 0.0 -0.6616533158058073 0.7498099023640463
  outer loop
    vertex 0.0 12.413530256814727 6.251611144991959
    vertex 25.4 13.162321352777154 7.110755808279458
    vertex 0.0 13.162321352777154 7.110755808279458
  endloop
endfacet
endsolid Front Axle
