solid Hood Hollow
facet normal 1.0 -0.0 -0.0
  outer loop
    vertex 50.80000000000001 -1.0148023914247073e-15 0.0
    vertex 50.80000000000001 68.64709380806788 12.408101719771663
    vertex 50.80000000000001 68.57271812905606 13.025267294521996
  endloop
endfacet
facet normal 1.0 -0.0 -0.0
  outer loop
    vertex 50.80000000000001 68.64709380806788 12.408101719771663
    vertex 50.80000000000001 -1.0148023914247073e-15 0.0
    vertex 50.80000000000001 68.8786694020002 11.831215394244522
  endloop
endfacet
facet normal 1.0 -0.0 -0.0
  outer loop
    vertex 50.80000000000001 68.8786694020002 11.831215394244522
    vertex 50.80000000000001 -1.0148023914247073e-15 0.0
    vertex 50.80000000000001 69.25166341682335 11.333922167675423
  endloop
endfacet
facet normal 1.0 -0.0 -0.0
  outer loop
    vertex 50.80000000000001 69.25166341682335 11.333922167675423
    vertex 50.80000000000001 -1.0148023914247073e-15 0.0
    vertex 50.80000000000001 69.74065692682878 10.950111751639175
  endloop
endfacet
facet normal 1.0 -0.0 -0.0
  outer loop
    vertex 50.80000000000001 69.74065692682878 10.950111751639175
    vertex 50.80000000000001 -1.0148023914247073e-15 0.0
    vertex 50.80000000000001 70.31232583240967 10.70594019171199
  endloop
endfacet
facet normal 1.0 -0.0 -0.0
  outer loop
    vertex 50.80000000000001 70.31232583240967 10.70594019171199
    vertex 50.80000000000001 -1.0148023914247073e-15 0.0
    vertex 50.80000000000001 99.44391949737302 2.9609648066752924e-14
  endloop
endfacet
facet normal 1.0 -0.0 -0.0
  outer loop
    vertex 50.80000000000001 70.31232583240967 10.70594019171199
    vertex 50.80000000000001 99.44391949737302 2.9609648066752924e-14
    vertex 50.80000000000001 70.92771184237826 10.618047376190228
  endloop
endfacet
facet normal 1.0 -0.0 -0.0
  outer loop
    vertex 50.80000000000001 70.92771184237826 10.618047376190228
    vertex 50.80000000000001 99.44391949737302 2.9609648066752924e-14
    vertex 50.80000000000001 71.54487741712856 10.692423055202084
  endloop
endfacet
facet normal 1.0 -0.0 -0.0
  outer loop
    vertex 50.80000000000001 71.54487741712856 10.692423055202084
    vertex 50.80000000000001 99.44391949737302 2.9609648066752924e-14
    vertex 50.80000000000001 72.12176374265574 10.923998649134383
  endloop
endfacet
facet normal 1.0 -0.0 -0.0
  outer loop
    vertex 50.80000000000001 72.12176374265574 10.923998649134383
    vertex 50.80000000000001 99.44391949737302 2.9609648066752924e-14
    vertex 50.80000000000001 72.61905696922484 11.296992663957486
  endloop
endfacet
facet normal 1.0 -0.0 -0.0
  outer loop
    vertex 50.80000000000001 72.61905696922484 11.296992663957486
    vertex 50.80000000000001 99.44391949737302 2.9609648066752924e-14
    vertex 50.80000000000001 73.00286738526104 11.785986173962945
  endloop
endfacet
facet normal 1.0 -0.0 -0.0
  outer loop
    vertex 50.80000000000001 73.00286738526104 11.785986173962945
    vertex 50.80000000000001 99.44391949737302 2.9609648066752924e-14
    vertex 50.80000000000001 73.24703894518825 12.35765507954385
  endloop
endfacet
facet normal 1.0 -0.0 -0.0
  outer loop
    vertex 50.80000000000001 73.24703894518825 12.35765507954385
    vertex 50.80000000000001 99.44391949737302 2.9609648066752924e-14
    vertex 50.80000000000001 73.33493176070996 12.973041089512405
  endloop
endfacet
facet normal 1.0 -0.0 -0.0
  outer loop
    vertex 50.80000000000001 73.33493176070996 12.973041089512405
    vertex 50.80000000000001 99.44391949737302 2.9609648066752924e-14
    vertex 50.80000000000001 95.8908322806157 7.22106712642061
  endloop
endfacet
facet normal 1.0 -0.0 -0.0
  outer loop
    vertex 50.80000000000001 73.33493176070996 12.973041089512405
    vertex 50.80000000000001 95.8908322806157 7.22106712642061
    vertex 50.80000000000001 81.29355969384534 55.878642415655094
  endloop
endfacet
facet normal 1.0 -0.0 -0.0
  outer loop
    vertex 50.80000000000001 -1.0148023914247073e-15 0.0
    vertex 50.80000000000001 81.29355969384534 55.878642415655094
    vertex 50.80000000000001 -8.667130598394877 28.890435327982967
  endloop
endfacet
facet normal 1.0 -0.0 -0.0
  outer loop
    vertex 50.80000000000001 81.29355969384534 55.878642415655094
    vertex 50.80000000000001 -1.0148023914247073e-15 0.0
    vertex 50.80000000000001 68.6606109445778 13.640653304490526
  endloop
endfacet
facet normal 1.0 -0.0 -0.0
  outer loop
    vertex 50.80000000000001 68.6606109445778 13.640653304490526
    vertex 50.80000000000001 -1.0148023914247073e-15 0.0
    vertex 50.80000000000001 68.57271812905606 13.025267294521996
  endloop
endfacet
facet normal 1.0 -0.0 -0.0
  outer loop
    vertex 50.80000000000001 81.29355969384534 55.878642415655094
    vertex 50.80000000000001 68.6606109445778 13.640653304490526
    vertex 50.80000000000001 68.90478250450502 14.212322210071406
  endloop
endfacet
facet normal 1.0 -0.0 -0.0
  outer loop
    vertex 50.80000000000001 81.29355969384534 55.878642415655094
    vertex 50.80000000000001 68.90478250450502 14.212322210071406
    vertex 50.80000000000001 69.28859292054122 14.701315720076897
  endloop
endfacet
facet normal 1.0 -0.0 -0.0
  outer loop
    vertex 50.80000000000001 81.29355969384534 55.878642415655094
    vertex 50.80000000000001 69.28859292054122 14.701315720076897
    vertex 50.80000000000001 69.78588614711035 15.074309734899995
  endloop
endfacet
facet normal 1.0 -0.0 -0.0
  outer loop
    vertex 50.80000000000001 81.29355969384534 55.878642415655094
    vertex 50.80000000000001 69.78588614711035 15.074309734899995
    vertex 50.80000000000001 70.36277247263754 15.305885328832334
  endloop
endfacet
facet normal 1.0 -0.0 -0.0
  outer loop
    vertex 50.80000000000001 81.29355969384534 55.878642415655094
    vertex 50.80000000000001 70.36277247263754 15.305885328832334
    vertex 50.80000000000001 70.97993804738783 15.38026100784415
  endloop
endfacet
facet normal 1.0 -0.0 -0.0
  outer loop
    vertex 50.80000000000001 81.29355969384534 55.878642415655094
    vertex 50.80000000000001 70.97993804738783 15.38026100784415
    vertex 50.80000000000001 71.59532405735638 15.292368192322405
  endloop
endfacet
facet normal 1.0 -0.0 -0.0
  outer loop
    vertex 50.80000000000001 81.29355969384534 55.878642415655094
    vertex 50.80000000000001 71.59532405735638 15.292368192322405
    vertex 50.80000000000001 72.1669929629373 15.048196632395241
  endloop
endfacet
facet normal 1.0 -0.0 -0.0
  outer loop
    vertex 50.80000000000001 81.29355969384534 55.878642415655094
    vertex 50.80000000000001 72.1669929629373 15.048196632395241
    vertex 50.80000000000001 72.65598647294274 14.664386216358961
  endloop
endfacet
facet normal 1.0 -0.0 -0.0
  outer loop
    vertex 50.80000000000001 81.29355969384534 55.878642415655094
    vertex 50.80000000000001 72.65598647294274 14.664386216358961
    vertex 50.80000000000001 73.02898048776582 14.167092989789873
  endloop
endfacet
facet normal 1.0 -0.0 -0.0
  outer loop
    vertex 50.80000000000001 81.29355969384534 55.878642415655094
    vertex 50.80000000000001 73.02898048776582 14.167092989789873
    vertex 50.80000000000001 73.22438197029024 13.680321299639356
  endloop
endfacet
facet normal 1.0 -0.0 -0.0
  outer loop
    vertex 50.80000000000001 81.29355969384534 55.878642415655094
    vertex 50.80000000000001 73.22438197029024 13.680321299639356
    vertex 50.80000000000001 73.26055608169817 13.590206664262752
  endloop
endfacet
facet normal 1.0 -0.0 -0.0
  outer loop
    vertex 50.80000000000001 81.29355969384534 55.878642415655094
    vertex 50.80000000000001 73.26055608169817 13.590206664262752
    vertex 50.80000000000001 73.33493176070996 12.973041089512405
  endloop
endfacet
facet normal -0.0 0.8972641933256588 0.4414940173724383
  outer loop
    vertex 0.0 95.8908322806157 7.22106712642061
    vertex 50.80000000000001 99.44391949737302 2.9609648066752924e-14
    vertex 0.0 99.44391949737302 2.9609648066752924e-14
  endloop
endfacet
facet normal -0.0 0.8972641933256588 0.4414940173724383
  outer loop
    vertex 50.80000000000001 99.44391949737302 2.9609648066752924e-14
    vertex 0.0 95.8908322806157 7.22106712642061
    vertex 50.80000000000001 95.8908322806157 7.22106712642061
  endloop
endfacet
facet normal -0.0 0.9578262852211513 0.28734788556634555
  outer loop
    vertex 0.0 81.29355969384534 55.878642415655094
    vertex 50.80000000000001 95.8908322806157 7.22106712642061
    vertex 0.0 95.8908322806157 7.22106712642061
  endloop
endfacet
facet normal -0.0 0.9578262852211513 0.28734788556634555
  outer loop
    vertex 50.80000000000001 95.8908322806157 7.22106712642061
    vertex 0.0 81.29355969384534 55.878642415655094
    vertex 50.80000000000001 81.29355969384534 55.878642415655094
  endloop
endfacet
facet normal 0.0 -0.9578262852211515 -0.287347885566345
  outer loop
    vertex 50.80000000000001 -8.667130598394877 28.890435327982967
    vertex 46.03749999999999 -1.0148023914247073e-15 0.0
    vertex 50.80000000000001 -1.0148023914247073e-15 0.0
  endloop
endfacet
facet normal 0.0 -0.9578262852211515 -0.287347885566345
  outer loop
    vertex 46.03749999999999 -1.0148023914247073e-15 0.0
    vertex 50.80000000000001 -8.667130598394877 28.890435327982967
    vertex 46.03749999999999 -8.667130598394877 28.890435327982967
  endloop
endfacet
facet normal -1.0 0.0 0.0
  outer loop
    vertex 0.0 81.29355969384534 55.878642415655094
    vertex 0.0 -1.0148023914247073e-15 0.0
    vertex 0.0 -8.667130598394877 28.890435327982967
  endloop
endfacet
facet normal -1.0 0.0 0.0
  outer loop
    vertex 0.0 -1.0148023914247073e-15 0.0
    vertex 0.0 81.29355969384534 55.878642415655094
    vertex 0.0 68.6606109445778 13.640653304490526
  endloop
endfacet
facet normal -1.0 0.0 0.0
  outer loop
    vertex 0.0 -1.0148023914247073e-15 0.0
    vertex 0.0 68.6606109445778 13.640653304490526
    vertex 0.0 68.57271812905606 13.025267294521996
  endloop
endfacet
facet normal -1.0 0.0 0.0
  outer loop
    vertex 0.0 68.6606109445778 13.640653304490526
    vertex 0.0 81.29355969384534 55.878642415655094
    vertex 0.0 68.90478250450502 14.21232221007144
  endloop
endfacet
facet normal -1.0 0.0 0.0
  outer loop
    vertex 0.0 68.90478250450502 14.21232221007144
    vertex 0.0 81.29355969384534 55.878642415655094
    vertex 0.0 69.28859292054125 14.701315720076886
  endloop
endfacet
facet normal -1.0 0.0 0.0
  outer loop
    vertex 0.0 69.28859292054125 14.701315720076886
    vertex 0.0 81.29355969384534 55.878642415655094
    vertex 0.0 69.78588614711035 15.074309734899995
  endloop
endfacet
facet normal -1.0 0.0 0.0
  outer loop
    vertex 0.0 69.78588614711035 15.074309734899995
    vertex 0.0 81.29355969384534 55.878642415655094
    vertex 0.0 70.36277247263754 15.305885328832334
  endloop
endfacet
facet normal -1.0 0.0 0.0
  outer loop
    vertex 0.0 70.36277247263754 15.305885328832334
    vertex 0.0 81.29355969384534 55.878642415655094
    vertex 0.0 70.97993804738783 15.380261007844137
  endloop
endfacet
facet normal -1.0 0.0 0.0
  outer loop
    vertex 0.0 70.97993804738783 15.380261007844137
    vertex 0.0 81.29355969384534 55.878642415655094
    vertex 0.0 71.59532405735638 15.2923681923224
  endloop
endfacet
facet normal -1.0 0.0 0.0
  outer loop
    vertex 0.0 71.59532405735638 15.2923681923224
    vertex 0.0 81.29355969384534 55.878642415655094
    vertex 0.0 72.1669929629373 15.048196632395241
  endloop
endfacet
facet normal -1.0 0.0 0.0
  outer loop
    vertex 0.0 72.1669929629373 15.048196632395241
    vertex 0.0 81.29355969384534 55.878642415655094
    vertex 0.0 72.65598647294274 14.664386216358961
  endloop
endfacet
facet normal -1.0 0.0 0.0
  outer loop
    vertex 0.0 72.65598647294274 14.664386216358961
    vertex 0.0 81.29355969384534 55.878642415655094
    vertex 0.0 73.02898048776586 14.167092989789873
  endloop
endfacet
facet normal -1.0 0.0 0.0
  outer loop
    vertex 0.0 73.02898048776586 14.167092989789873
    vertex 0.0 81.29355969384534 55.878642415655094
    vertex 0.0 73.22438197029024 13.680321299639356
  endloop
endfacet
facet normal -1.0 0.0 0.0
  outer loop
    vertex 0.0 73.22438197029024 13.680321299639356
    vertex 0.0 81.29355969384534 55.878642415655094
    vertex 0.0 73.26055608169817 13.590206664262752
  endloop
endfacet
facet normal -1.0 0.0 0.0
  outer loop
    vertex 0.0 73.26055608169817 13.590206664262752
    vertex 0.0 81.29355969384534 55.878642415655094
    vertex 0.0 73.33493176070996 12.973041089512384
  endloop
endfacet
facet normal -1.0 0.0 0.0
  outer loop
    vertex 0.0 -1.0148023914247073e-15 0.0
    vertex 0.0 70.31232583240967 10.70594019171199
    vertex 0.0 99.44391949737302 2.9609648066752924e-14
  endloop
endfacet
facet normal -1.0 0.0 0.0
  outer loop
    vertex 0.0 70.31232583240967 10.70594019171199
    vertex 0.0 -1.0148023914247073e-15 0.0
    vertex 0.0 69.74065692682878 10.950111751639175
  endloop
endfacet
facet normal -1.0 0.0 0.0
  outer loop
    vertex 0.0 69.74065692682878 10.950111751639175
    vertex 0.0 -1.0148023914247073e-15 0.0
    vertex 0.0 69.25166341682335 11.333922167675423
  endloop
endfacet
facet normal -1.0 0.0 0.0
  outer loop
    vertex 0.0 69.25166341682335 11.333922167675423
    vertex 0.0 -1.0148023914247073e-15 0.0
    vertex 0.0 68.87866940200023 11.831215394244493
  endloop
endfacet
facet normal -1.0 0.0 0.0
  outer loop
    vertex 0.0 68.87866940200023 11.831215394244493
    vertex 0.0 -1.0148023914247073e-15 0.0
    vertex 0.0 68.64709380806791 12.408101719771658
  endloop
endfacet
facet normal -1.0 0.0 0.0
  outer loop
    vertex 0.0 68.64709380806791 12.408101719771658
    vertex 0.0 -1.0148023914247073e-15 0.0
    vertex 0.0 68.57271812905606 13.025267294521996
  endloop
endfacet
facet normal -1.0 0.0 0.0
  outer loop
    vertex 0.0 99.44391949737302 2.9609648066752924e-14
    vertex 0.0 70.31232583240967 10.70594019171199
    vertex 0.0 70.92771184237826 10.618047376190228
  endloop
endfacet
facet normal -1.0 0.0 0.0
  outer loop
    vertex 0.0 99.44391949737302 2.9609648066752924e-14
    vertex 0.0 70.92771184237826 10.618047376190228
    vertex 0.0 71.54487741712856 10.692423055202084
  endloop
endfacet
facet normal -1.0 0.0 0.0
  outer loop
    vertex 0.0 99.44391949737302 2.9609648066752924e-14
    vertex 0.0 71.54487741712856 10.692423055202084
    vertex 0.0 72.12176374265574 10.923998649134383
  endloop
endfacet
facet normal -1.0 0.0 0.0
  outer loop
    vertex 0.0 99.44391949737302 2.9609648066752924e-14
    vertex 0.0 72.12176374265574 10.923998649134383
    vertex 0.0 72.61905696922481 11.296992663957498
  endloop
endfacet
facet normal -1.0 0.0 0.0
  outer loop
    vertex 0.0 99.44391949737302 2.9609648066752924e-14
    vertex 0.0 72.61905696922481 11.296992663957498
    vertex 0.0 73.00286738526103 11.78598617396295
  endloop
endfacet
facet normal -1.0 0.0 0.0
  outer loop
    vertex 0.0 99.44391949737302 2.9609648066752924e-14
    vertex 0.0 73.00286738526103 11.78598617396295
    vertex 0.0 73.24703894518828 12.357655079543866
  endloop
endfacet
facet normal -1.0 0.0 0.0
  outer loop
    vertex 0.0 99.44391949737302 2.9609648066752924e-14
    vertex 0.0 73.24703894518828 12.357655079543866
    vertex 0.0 73.33493176070996 12.973041089512384
  endloop
endfacet
facet normal -1.0 0.0 0.0
  outer loop
    vertex 0.0 99.44391949737302 2.9609648066752924e-14
    vertex 0.0 73.33493176070996 12.973041089512384
    vertex 0.0 95.8908322806157 7.22106712642061
  endloop
endfacet
facet normal -1.0 0.0 0.0
  outer loop
    vertex 0.0 95.8908322806157 7.22106712642061
    vertex 0.0 73.33493176070996 12.973041089512384
    vertex 0.0 81.29355969384534 55.878642415655094
  endloop
endfacet
facet normal -4.767211254684917e-19 3.7244497383851067e-16 -1.0
  outer loop
    vertex 0.0 99.44391949737302 2.9609648066752924e-14
    vertex 35.350369342984386 81.21253425618794 1.5509815654013436e-14
    vertex 0.0 -1.0148023914247073e-15 0.0
  endloop
endfacet
facet normal -4.767211254684917e-19 3.7244497383851067e-16 -1.0
  outer loop
    vertex 35.350369342984386 81.21253425618794 1.5509815654013436e-14
    vertex 0.0 99.44391949737302 2.9609648066752924e-14
    vertex 35.85493596973269 81.89905125871041 5.2169379927136103e-14
  endloop
endfacet
facet normal -4.767211254684917e-19 3.7244497383851067e-16 -1.0
  outer loop
    vertex 35.85493596973269 81.89905125871041 5.2169379927136103e-14
    vertex 0.0 99.44391949737302 2.9609648066752924e-14
    vertex 50.80000000000001 99.44391949737302 2.9609648066752924e-14
  endloop
endfacet
facet normal -4.767211254684917e-19 3.7244497383851067e-16 -1.0
  outer loop
    vertex 0.0 -1.0148023914247073e-15 0.0
    vertex 35.350369342984386 81.21253425618794 1.5509815654013436e-14
    vertex 35.0331855015322 80.41306827408376 3.8069547514396615e-14
  endloop
endfacet
facet normal -4.767211254684917e-19 3.7244497383851067e-16 -1.0
  outer loop
    vertex 0.0 -1.0148023914247073e-15 0.0
    vertex 35.0331855015322 80.41306827408376 3.8069547514396615e-14
    vertex 4.994504685686089 3.314797316579113 -2.1149748619109232e-14
  endloop
endfacet
facet normal -4.767211254684917e-19 3.7244497383851067e-16 -1.0
  outer loop
    vertex 4.994504685686089 3.314797316579113 -2.1149748619109232e-14
    vertex 35.0331855015322 80.41306827408376 3.8069547514396615e-14
    vertex 8.16950468568609 3.314797316579113 -2.1149748619109232e-14
  endloop
endfacet
facet normal -4.767211254684917e-19 3.7244497383851067e-16 -1.0
  outer loop
    vertex 8.16950468568609 3.314797316579113 -2.1149748619109232e-14
    vertex 35.0331855015322 80.41306827408376 3.8069547514396615e-14
    vertex 11.164682851933433 3.314797316579113 -2.1149748619109232e-14
  endloop
endfacet
facet normal -4.767211254684917e-19 3.7244497383851067e-16 -1.0
  outer loop
    vertex 8.16950468568609 3.314797316579113 -2.1149748619109232e-14
    vertex 11.164682851933433 3.314797316579113 -2.1149748619109232e-14
    vertex 11.112499999999999 -1.0148023914247073e-15 0.0
  endloop
endfacet
facet normal -4.767211254684917e-19 3.7244497383851067e-16 -1.0
  outer loop
    vertex 11.164682851933433 3.314797316579113 -2.1149748619109232e-14
    vertex 35.0331855015322 80.41306827408376 3.8069547514396615e-14
    vertex 14.339682851933434 3.314797316579113 -2.1149748619109232e-14
  endloop
endfacet
facet normal -4.767211254684917e-19 3.7244497383851067e-16 -1.0
  outer loop
    vertex 14.339682851933434 3.314797316579113 -2.1149748619109232e-14
    vertex 35.0331855015322 80.41306827408376 3.8069547514396615e-14
    vertex 17.514682851933433 3.314797316579113 -2.1149748619109232e-14
  endloop
endfacet
facet normal -4.767211254684917e-19 3.7244497383851067e-16 -1.0
  outer loop
    vertex 14.339682851933434 3.314797316579113 -2.1149748619109232e-14
    vertex 17.514682851933433 3.314797316579113 -2.1149748619109232e-14
    vertex 17.4625 -1.0148023914247073e-15 0.0
  endloop
endfacet
facet normal -4.767211254684917e-19 3.7244497383851067e-16 -1.0
  outer loop
    vertex 17.514682851933433 3.314797316579113 -2.1149748619109232e-14
    vertex 35.0331855015322 80.41306827408376 3.8069547514396615e-14
    vertex 20.689682851933433 3.314797316579113 -2.1149748619109232e-14
  endloop
endfacet
facet normal -4.767211254684917e-19 3.7244497383851067e-16 -1.0
  outer loop
    vertex 20.689682851933433 3.314797316579113 -2.1149748619109232e-14
    vertex 35.0331855015322 80.41306827408376 3.8069547514396615e-14
    vertex 20.689682851933433 -1.0148023914247073e-15 0.0
  endloop
endfacet
facet normal -4.767211254684917e-19 3.7244497383851067e-16 -1.0
  outer loop
    vertex 20.689682851933433 -1.0148023914247073e-15 0.0
    vertex 35.0331855015322 80.41306827408376 3.8069547514396615e-14
    vertex 23.812499999999986 3.314797316579113 -2.1149748619109232e-14
  endloop
endfacet
facet normal -4.767211254684917e-19 3.7244497383851067e-16 -1.0
  outer loop
    vertex 23.812499999999986 3.314797316579113 -2.1149748619109232e-14
    vertex 35.0331855015322 80.41306827408376 3.8069547514396615e-14
    vertex 34.925 79.55513559789838 4.934941344458821e-14
  endloop
endfacet
facet normal -4.767211254684917e-19 3.7244497383851067e-16 -1.0
  outer loop
    vertex 23.812499999999986 3.314797316579113 -2.1149748619109232e-14
    vertex 34.925 79.55513559789838 4.934941344458821e-14
    vertex 26.987499999999986 3.314797316579113 -2.1149748619109232e-14
  endloop
endfacet
facet normal -4.767211254684917e-19 3.7244497383851067e-16 -1.0
  outer loop
    vertex 26.987499999999986 3.314797316579113 -2.1149748619109232e-14
    vertex 34.925 79.55513559789838 4.934941344458821e-14
    vertex 26.987499999999986 -1.0148023914247073e-15 0.0
  endloop
endfacet
facet normal -4.767211254684917e-19 3.7244497383851067e-16 -1.0
  outer loop
    vertex 26.987499999999986 -1.0148023914247073e-15 0.0
    vertex 34.925 79.55513559789838 4.934941344458821e-14
    vertex 30.162499999999987 3.314797316579113 -2.1149748619109232e-14
  endloop
endfacet
facet normal -4.767211254684917e-19 3.7244497383851067e-16 -1.0
  outer loop
    vertex 30.162499999999987 3.314797316579113 -2.1149748619109232e-14
    vertex 34.925 79.55513559789838 4.934941344458821e-14
    vertex 33.337499999999984 3.314797316579113 -2.1149748619109232e-14
  endloop
endfacet
facet normal -4.767211254684917e-19 3.7244497383851067e-16 -1.0
  outer loop
    vertex 33.337499999999984 3.314797316579113 -2.1149748619109232e-14
    vertex 34.925 79.55513559789838 4.934941344458821e-14
    vertex 33.337499999999984 -1.0148023914247073e-15 0.0
  endloop
endfacet
facet normal -4.767211254684917e-19 3.7244497383851067e-16 -1.0
  outer loop
    vertex 35.85493596973269 81.89905125871041 5.2169379927136103e-14
    vertex 50.80000000000001 99.44391949737302 2.9609648066752924e-14
    vertex 36.512499999999996 82.42583428245239 4.934941344458821e-14
  endloop
endfacet
facet normal -4.767211254684917e-19 3.7244497383851067e-16 -1.0
  outer loop
    vertex 36.512499999999996 82.42583428245239 4.934941344458821e-14
    vertex 50.80000000000001 99.44391949737302 2.9609648066752924e-14
    vertex 37.27824953179949 82.75698393489581 5.4989346409684e-14
  endloop
endfacet
facet normal -4.767211254684917e-19 3.7244497383851067e-16 -1.0
  outer loop
    vertex 37.27824953179949 82.75698393489581 5.4989346409684e-14
    vertex 50.80000000000001 99.44391949737302 2.9609648066752924e-14
    vertex 38.09999999999997 82.86993291447747 9.86988268891764e-15
  endloop
endfacet
facet normal -4.767211254684917e-19 3.7244497383851067e-16 -1.0
  outer loop
    vertex 38.09999999999997 82.86993291447747 9.86988268891764e-15
    vertex 50.80000000000001 99.44391949737302 2.9609648066752924e-14
    vertex 38.921750468200486 82.75698393489581 5.4989346409684e-14
  endloop
endfacet
facet normal -4.767211254684917e-19 3.7244497383851067e-16 -1.0
  outer loop
    vertex 38.921750468200486 82.75698393489581 5.4989346409684e-14
    vertex 50.80000000000001 99.44391949737302 2.9609648066752924e-14
    vertex 39.6875 82.42583428245234 7.472911178751928e-14
  endloop
endfacet
facet normal -4.767211254684917e-19 3.7244497383851067e-16 -1.0
  outer loop
    vertex 39.6875 82.42583428245234 7.472911178751928e-14
    vertex 50.80000000000001 99.44391949737302 2.9609648066752924e-14
    vertex 40.345064030267274 81.89905125871039 5.4989346409684e-14
  endloop
endfacet
facet normal -4.767211254684917e-19 3.7244497383851067e-16 -1.0
  outer loop
    vertex 40.345064030267274 81.89905125871039 5.4989346409684e-14
    vertex 50.80000000000001 99.44391949737302 2.9609648066752924e-14
    vertex 40.849630657015574 81.21253425618794 1.5509815654013436e-14
  endloop
endfacet
facet normal -4.767211254684917e-19 3.7244497383851067e-16 -1.0
  outer loop
    vertex 40.849630657015574 81.21253425618794 1.5509815654013436e-14
    vertex 50.80000000000001 99.44391949737302 2.9609648066752924e-14
    vertex 41.16681449846778 80.41306827408376 3.8069547514396615e-14
  endloop
endfacet
facet normal -4.767211254684917e-19 3.7244497383851067e-16 -1.0
  outer loop
    vertex 41.16681449846778 80.41306827408376 3.8069547514396615e-14
    vertex 50.80000000000001 99.44391949737302 2.9609648066752924e-14
    vertex 41.274999999999984 79.55513559789838 4.934941344458821e-14
  endloop
endfacet
facet normal -4.767211254684917e-19 3.7244497383851067e-16 -1.0
  outer loop
    vertex 41.274999999999984 79.55513559789838 4.934941344458821e-14
    vertex 50.80000000000001 99.44391949737302 2.9609648066752924e-14
    vertex 42.86249999999998 3.314797316579113 -2.1149748619109232e-14
  endloop
endfacet
facet normal -4.767211254684917e-19 3.7244497383851067e-16 -1.0
  outer loop
    vertex 42.86249999999998 3.314797316579113 -2.1149748619109232e-14
    vertex 50.80000000000001 99.44391949737302 2.9609648066752924e-14
    vertex 46.03749999999999 3.314797316579113 -2.1149748619109232e-14
  endloop
endfacet
facet normal -4.767211254684917e-19 3.7244497383851067e-16 -1.0
  outer loop
    vertex 46.03749999999999 3.314797316579113 -2.1149748619109232e-14
    vertex 50.80000000000001 99.44391949737302 2.9609648066752924e-14
    vertex 46.03749999999999 -1.0148023914247073e-15 0.0
  endloop
endfacet
facet normal -4.767211254684917e-19 3.7244497383851067e-16 -1.0
  outer loop
    vertex 46.03749999999999 -1.0148023914247073e-15 0.0
    vertex 50.80000000000001 99.44391949737302 2.9609648066752924e-14
    vertex 50.80000000000001 -1.0148023914247073e-15 0.0
  endloop
endfacet
facet normal -4.767211254684917e-19 3.7244497383851067e-16 -1.0
  outer loop
    vertex 37.278249531799474 76.35328726090093 5.4989346409684e-14
    vertex 36.51249999999999 3.314797316579113 -2.1149748619109232e-14
    vertex 36.512499999999974 76.6844369133444 8.318901123516297e-14
  endloop
endfacet
facet normal -4.767211254684917e-19 3.7244497383851067e-16 -1.0
  outer loop
    vertex 36.51249999999999 3.314797316579113 -2.1149748619109232e-14
    vertex 37.278249531799474 76.35328726090093 5.4989346409684e-14
    vertex 39.687499999999986 3.314797316579113 -2.1149748619109232e-14
  endloop
endfacet
facet normal -4.767211254684917e-19 3.7244497383851067e-16 -1.0
  outer loop
    vertex 39.687499999999986 3.314797316579113 -2.1149748619109232e-14
    vertex 37.278249531799474 76.35328726090093 5.4989346409684e-14
    vertex 38.09999999999999 76.24033828131927 5.780931289223189e-14
  endloop
endfacet
facet normal -4.767211254684917e-19 3.7244497383851067e-16 -1.0
  outer loop
    vertex 39.687499999999986 3.314797316579113 -2.1149748619109232e-14
    vertex 38.09999999999999 76.24033828131927 5.780931289223189e-14
    vertex 38.9217504682005 76.35328726090091 5.2169379927136103e-14
  endloop
endfacet
facet normal -4.767211254684917e-19 3.7244497383851067e-16 -1.0
  outer loop
    vertex 39.687499999999986 3.314797316579113 -2.1149748619109232e-14
    vertex 38.9217504682005 76.35328726090091 5.2169379927136103e-14
    vertex 39.687499999999986 76.68443691334437 7.754907827006718e-14
  endloop
endfacet
facet normal -4.767211254684917e-19 3.7244497383851067e-16 -1.0
  outer loop
    vertex 39.687499999999986 3.314797316579113 -2.1149748619109232e-14
    vertex 39.687499999999986 76.68443691334437 7.754907827006718e-14
    vertex 40.345064030267274 77.21121993708633 3.8069547514396615e-14
  endloop
endfacet
facet normal -4.767211254684917e-19 3.7244497383851067e-16 -1.0
  outer loop
    vertex 39.687499999999986 3.314797316579113 -2.1149748619109232e-14
    vertex 40.345064030267274 77.21121993708633 3.8069547514396615e-14
    vertex 39.687499999999986 -1.0148023914247073e-15 0.0
  endloop
endfacet
facet normal -4.767211254684917e-19 3.7244497383851067e-16 -1.0
  outer loop
    vertex 39.687499999999986 -1.0148023914247073e-15 0.0
    vertex 40.345064030267274 77.21121993708633 3.8069547514396615e-14
    vertex 42.86249999999998 -1.0148023914247073e-15 0.0
  endloop
endfacet
facet normal -4.767211254684917e-19 3.7244497383851067e-16 -1.0
  outer loop
    vertex 42.86249999999998 -1.0148023914247073e-15 0.0
    vertex 40.345064030267274 77.21121993708633 3.8069547514396615e-14
    vertex 40.849630657015574 77.8977369396088 5.780931289223189e-14
  endloop
endfacet
facet normal -4.767211254684917e-19 3.7244497383851067e-16 -1.0
  outer loop
    vertex 42.86249999999998 -1.0148023914247073e-15 0.0
    vertex 40.849630657015574 77.8977369396088 5.780931289223189e-14
    vertex 41.16681449846778 78.69720292171297 3.524958103184872e-14
  endloop
endfacet
facet normal -4.767211254684917e-19 3.7244497383851067e-16 -1.0
  outer loop
    vertex 42.86249999999998 -1.0148023914247073e-15 0.0
    vertex 41.16681449846778 78.69720292171297 3.524958103184872e-14
    vertex 41.274999999999984 79.55513559789838 4.934941344458821e-14
  endloop
endfacet
facet normal -4.767211254684917e-19 3.7244497383851067e-16 -1.0
  outer loop
    vertex 42.86249999999998 -1.0148023914247073e-15 0.0
    vertex 41.274999999999984 79.55513559789838 4.934941344458821e-14
    vertex 42.86249999999998 3.314797316579113 -2.1149748619109232e-14
  endloop
endfacet
facet normal -4.767211254684917e-19 3.7244497383851067e-16 -1.0
  outer loop
    vertex 34.925 79.55513559789838 4.934941344458821e-14
    vertex 36.51249999999999 -1.0148023914247073e-15 0.0
    vertex 33.337499999999984 -1.0148023914247073e-15 0.0
  endloop
endfacet
facet normal -4.767211254684917e-19 3.7244497383851067e-16 -1.0
  outer loop
    vertex 36.51249999999999 -1.0148023914247073e-15 0.0
    vertex 34.925 79.55513559789838 4.934941344458821e-14
    vertex 35.0331855015322 78.69720292171299 2.3969715101657127e-14
  endloop
endfacet
facet normal -4.767211254684917e-19 3.7244497383851067e-16 -1.0
  outer loop
    vertex 36.51249999999999 -1.0148023914247073e-15 0.0
    vertex 35.0331855015322 78.69720292171299 2.3969715101657127e-14
    vertex 35.350369342984386 77.89773693960882 6.06292793747798e-14
  endloop
endfacet
facet normal -4.767211254684917e-19 3.7244497383851067e-16 -1.0
  outer loop
    vertex 36.51249999999999 -1.0148023914247073e-15 0.0
    vertex 35.350369342984386 77.89773693960882 6.06292793747798e-14
    vertex 35.85493596973269 77.21121993708633 3.8069547514396615e-14
  endloop
endfacet
facet normal -4.767211254684917e-19 3.7244497383851067e-16 -1.0
  outer loop
    vertex 36.51249999999999 -1.0148023914247073e-15 0.0
    vertex 35.85493596973269 77.21121993708633 3.8069547514396615e-14
    vertex 36.512499999999974 76.6844369133444 8.318901123516297e-14
  endloop
endfacet
facet normal -4.767211254684917e-19 3.7244497383851067e-16 -1.0
  outer loop
    vertex 36.51249999999999 -1.0148023914247073e-15 0.0
    vertex 36.512499999999974 76.6844369133444 8.318901123516297e-14
    vertex 36.51249999999999 3.314797316579113 -2.1149748619109232e-14
  endloop
endfacet
facet normal -4.767211254684917e-19 3.7244497383851067e-16 -1.0
  outer loop
    vertex 17.4625 -1.0148023914247073e-15 0.0
    vertex 14.2875 -1.0148023914247073e-15 0.0
    vertex 14.339682851933434 3.314797316579113 -2.1149748619109232e-14
  endloop
endfacet
facet normal -4.767211254684917e-19 3.7244497383851067e-16 -1.0
  outer loop
    vertex 11.112499999999999 -1.0148023914247073e-15 0.0
    vertex 8.117321833752655 -1.0148023914247073e-15 0.0
    vertex 8.16950468568609 3.314797316579113 -2.1149748619109232e-14
  endloop
endfacet
facet normal -4.767211254684917e-19 3.7244497383851067e-16 -1.0
  outer loop
    vertex 30.162499999999987 -1.0148023914247073e-15 0.0
    vertex 26.987499999999986 -1.0148023914247073e-15 0.0
    vertex 30.162499999999987 3.314797316579113 -2.1149748619109232e-14
  endloop
endfacet
facet normal -4.767211254684917e-19 3.7244497383851067e-16 -1.0
  outer loop
    vertex 23.812499999999986 -1.0148023914247073e-15 0.0
    vertex 20.689682851933433 -1.0148023914247073e-15 0.0
    vertex 23.812499999999986 3.314797316579113 -2.1149748619109232e-14
  endloop
endfacet
facet normal -4.767211254684917e-19 3.7244497383851067e-16 -1.0
  outer loop
    vertex 4.994504685686089 -1.0148023914247073e-15 0.0
    vertex 0.0 -1.0148023914247073e-15 0.0
    vertex 4.994504685686089 3.314797316579113 -2.1149748619109232e-14
  endloop
endfacet
facet normal -2.4434662400275806e-18 -0.28734788556634605 0.9578262852211513
  outer loop
    vertex 11.112499999999999 -8.667130598394877 28.890435327982967
    vertex 8.16950468568609 -5.62603214281774 29.80276486465612
    vertex 8.117321833752655 -8.667130598394877 28.890435327982967
  endloop
endfacet
facet normal -2.4434662400275806e-18 -0.28734788556634605 0.9578262852211513
  outer loop
    vertex 17.4625 -8.667130598394877 28.890435327982967
    vertex 14.339682851933434 -5.62603214281774 29.80276486465612
    vertex 14.2875 -8.667130598394877 28.890435327982967
  endloop
endfacet
facet normal -2.4434662400275806e-18 -0.28734788556634605 0.9578262852211513
  outer loop
    vertex 23.812499999999986 -8.667130598394877 28.890435327982967
    vertex 20.689682851933433 -5.62603214281774 29.80276486465612
    vertex 20.689682851933433 -8.667130598394877 28.890435327982967
  endloop
endfacet
facet normal -2.4434662400275806e-18 -0.28734788556634605 0.9578262852211513
  outer loop
    vertex 30.162499999999987 -8.667130598394877 28.890435327982967
    vertex 26.987499999999986 -5.62603214281774 29.80276486465612
    vertex 26.987499999999986 -8.667130598394877 28.890435327982967
  endloop
endfacet
facet normal -2.4434662400275806e-18 -0.28734788556634605 0.9578262852211513
  outer loop
    vertex 36.51249999999999 -8.667130598394877 28.890435327982967
    vertex 33.337499999999984 -5.62603214281774 29.80276486465612
    vertex 33.337499999999984 -8.667130598394877 28.890435327982967
  endloop
endfacet
facet normal -2.4434662400275806e-18 -0.28734788556634605 0.9578262852211513
  outer loop
    vertex 42.86249999999998 -8.667130598394877 28.890435327982967
    vertex 39.687499999999986 -5.62603214281774 29.80276486465612
    vertex 39.687499999999986 -8.667130598394877 28.890435327982967
  endloop
endfacet
facet normal -2.4434662400275806e-18 -0.28734788556634605 0.9578262852211513
  outer loop
    vertex 50.80000000000001 -8.667130598394877 28.890435327982967
    vertex 46.03749999999999 -5.62603214281774 29.80276486465612
    vertex 46.03749999999999 -8.667130598394877 28.890435327982967
  endloop
endfacet
facet normal -2.4434662400275806e-18 -0.28734788556634605 0.9578262852211513
  outer loop
    vertex 46.03749999999999 -5.62603214281774 29.80276486465612
    vertex 50.80000000000001 -8.667130598394877 28.890435327982967
    vertex 47.625 -2.58493368724056 30.715094401329274
  endloop
endfacet
facet normal -2.4434662400275806e-18 -0.28734788556634605 0.9578262852211513
  outer loop
    vertex 47.625 -2.58493368724056 30.715094401329274
    vertex 50.80000000000001 -8.667130598394877 28.890435327982967
    vertex 47.625 78.2524612382682 54.96631287898195
  endloop
endfacet
facet normal -2.4434662400275806e-18 -0.28734788556634605 0.9578262852211513
  outer loop
    vertex 0.0 81.29355969384534 55.878642415655094
    vertex 3.175 78.2524612382682 54.96631287898195
    vertex 50.80000000000001 81.29355969384534 55.878642415655094
  endloop
endfacet
facet normal -2.4434662400275806e-18 -0.28734788556634605 0.9578262852211513
  outer loop
    vertex 3.175 78.2524612382682 54.96631287898195
    vertex 0.0 81.29355969384534 55.878642415655094
    vertex 3.175 -2.58493368724056 30.715094401329274
  endloop
endfacet
facet normal -2.4434662400275806e-18 -0.28734788556634605 0.9578262852211513
  outer loop
    vertex 50.80000000000001 81.29355969384534 55.878642415655094
    vertex 3.175 78.2524612382682 54.96631287898195
    vertex 47.625 78.2524612382682 54.96631287898195
  endloop
endfacet
facet normal -2.4434662400275806e-18 -0.28734788556634605 0.9578262852211513
  outer loop
    vertex 50.80000000000001 81.29355969384534 55.878642415655094
    vertex 47.625 78.2524612382682 54.96631287898195
    vertex 50.80000000000001 -8.667130598394877 28.890435327982967
  endloop
endfacet
facet normal -2.4434662400275806e-18 -0.28734788556634605 0.9578262852211513
  outer loop
    vertex 0.0 -8.667130598394877 28.890435327982967
    vertex 3.175 -2.58493368724056 30.715094401329274
    vertex 0.0 81.29355969384534 55.878642415655094
  endloop
endfacet
facet normal -2.4434662400275806e-18 -0.28734788556634605 0.9578262852211513
  outer loop
    vertex 3.175 -2.58493368724056 30.715094401329274
    vertex 0.0 -8.667130598394877 28.890435327982967
    vertex 4.994504685686089 -8.667130598394877 28.890435327982967
  endloop
endfacet
facet normal -2.4434662400275806e-18 -0.28734788556634605 0.9578262852211513
  outer loop
    vertex 3.175 -2.58493368724056 30.715094401329274
    vertex 4.994504685686089 -8.667130598394877 28.890435327982967
    vertex 4.994504685686089 -5.62603214281774 29.80276486465612
  endloop
endfacet
facet normal -2.4434662400275806e-18 -0.28734788556634605 0.9578262852211513
  outer loop
    vertex 3.175 -2.58493368724056 30.715094401329274
    vertex 4.994504685686089 -5.62603214281774 29.80276486465612
    vertex 47.625 -2.58493368724056 30.715094401329274
  endloop
endfacet
facet normal -2.4434662400275806e-18 -0.28734788556634605 0.9578262852211513
  outer loop
    vertex 47.625 -2.58493368724056 30.715094401329274
    vertex 4.994504685686089 -5.62603214281774 29.80276486465612
    vertex 8.16950468568609 -5.62603214281774 29.80276486465612
  endloop
endfacet
facet normal -2.4434662400275806e-18 -0.28734788556634605 0.9578262852211513
  outer loop
    vertex 47.625 -2.58493368724056 30.715094401329274
    vertex 8.16950468568609 -5.62603214281774 29.80276486465612
    vertex 11.164682851933433 -5.62603214281774 29.80276486465612
  endloop
endfacet
facet normal -2.4434662400275806e-18 -0.28734788556634605 0.9578262852211513
  outer loop
    vertex 11.164682851933433 -5.62603214281774 29.80276486465612
    vertex 8.16950468568609 -5.62603214281774 29.80276486465612
    vertex 11.112499999999999 -8.667130598394877 28.890435327982967
  endloop
endfacet
facet normal -2.4434662400275806e-18 -0.28734788556634605 0.9578262852211513
  outer loop
    vertex 47.625 -2.58493368724056 30.715094401329274
    vertex 11.164682851933433 -5.62603214281774 29.80276486465612
    vertex 14.339682851933434 -5.62603214281774 29.80276486465612
  endloop
endfacet
facet normal -2.4434662400275806e-18 -0.28734788556634605 0.9578262852211513
  outer loop
    vertex 47.625 -2.58493368724056 30.715094401329274
    vertex 14.339682851933434 -5.62603214281774 29.80276486465612
    vertex 17.514682851933433 -5.62603214281774 29.80276486465612
  endloop
endfacet
facet normal -2.4434662400275806e-18 -0.28734788556634605 0.9578262852211513
  outer loop
    vertex 17.514682851933433 -5.62603214281774 29.80276486465612
    vertex 14.339682851933434 -5.62603214281774 29.80276486465612
    vertex 17.4625 -8.667130598394877 28.890435327982967
  endloop
endfacet
facet normal -2.4434662400275806e-18 -0.28734788556634605 0.9578262852211513
  outer loop
    vertex 47.625 -2.58493368724056 30.715094401329274
    vertex 17.514682851933433 -5.62603214281774 29.80276486465612
    vertex 20.689682851933433 -5.62603214281774 29.80276486465612
  endloop
endfacet
facet normal -2.4434662400275806e-18 -0.28734788556634605 0.9578262852211513
  outer loop
    vertex 47.625 -2.58493368724056 30.715094401329274
    vertex 20.689682851933433 -5.62603214281774 29.80276486465612
    vertex 23.812499999999986 -5.62603214281774 29.80276486465612
  endloop
endfacet
facet normal -2.4434662400275806e-18 -0.28734788556634605 0.9578262852211513
  outer loop
    vertex 23.812499999999986 -5.62603214281774 29.80276486465612
    vertex 20.689682851933433 -5.62603214281774 29.80276486465612
    vertex 23.812499999999986 -8.667130598394877 28.890435327982967
  endloop
endfacet
facet normal -2.4434662400275806e-18 -0.28734788556634605 0.9578262852211513
  outer loop
    vertex 47.625 -2.58493368724056 30.715094401329274
    vertex 23.812499999999986 -5.62603214281774 29.80276486465612
    vertex 26.987499999999986 -5.62603214281774 29.80276486465612
  endloop
endfacet
facet normal -2.4434662400275806e-18 -0.28734788556634605 0.9578262852211513
  outer loop
    vertex 47.625 -2.58493368724056 30.715094401329274
    vertex 26.987499999999986 -5.62603214281774 29.80276486465612
    vertex 30.162499999999987 -5.62603214281774 29.80276486465612
  endloop
endfacet
facet normal -2.4434662400275806e-18 -0.28734788556634605 0.9578262852211513
  outer loop
    vertex 30.162499999999987 -5.62603214281774 29.80276486465612
    vertex 26.987499999999986 -5.62603214281774 29.80276486465612
    vertex 30.162499999999987 -8.667130598394877 28.890435327982967
  endloop
endfacet
facet normal -2.4434662400275806e-18 -0.28734788556634605 0.9578262852211513
  outer loop
    vertex 47.625 -2.58493368724056 30.715094401329274
    vertex 30.162499999999987 -5.62603214281774 29.80276486465612
    vertex 33.337499999999984 -5.62603214281774 29.80276486465612
  endloop
endfacet
facet normal -2.4434662400275806e-18 -0.28734788556634605 0.9578262852211513
  outer loop
    vertex 47.625 -2.58493368724056 30.715094401329274
    vertex 33.337499999999984 -5.62603214281774 29.80276486465612
    vertex 36.51249999999999 -5.62603214281774 29.80276486465612
  endloop
endfacet
facet normal -2.4434662400275806e-18 -0.28734788556634605 0.9578262852211513
  outer loop
    vertex 36.51249999999999 -5.62603214281774 29.80276486465612
    vertex 33.337499999999984 -5.62603214281774 29.80276486465612
    vertex 36.51249999999999 -8.667130598394877 28.890435327982967
  endloop
endfacet
facet normal -2.4434662400275806e-18 -0.28734788556634605 0.9578262852211513
  outer loop
    vertex 47.625 -2.58493368724056 30.715094401329274
    vertex 36.51249999999999 -5.62603214281774 29.80276486465612
    vertex 39.687499999999986 -5.62603214281774 29.80276486465612
  endloop
endfacet
facet normal -2.4434662400275806e-18 -0.28734788556634605 0.9578262852211513
  outer loop
    vertex 47.625 -2.58493368724056 30.715094401329274
    vertex 39.687499999999986 -5.62603214281774 29.80276486465612
    vertex 42.86249999999998 -5.62603214281774 29.80276486465612
  endloop
endfacet
facet normal -2.4434662400275806e-18 -0.28734788556634605 0.9578262852211513
  outer loop
    vertex 42.86249999999998 -5.62603214281774 29.80276486465612
    vertex 39.687499999999986 -5.62603214281774 29.80276486465612
    vertex 42.86249999999998 -8.667130598394877 28.890435327982967
  endloop
endfacet
facet normal -2.4434662400275806e-18 -0.28734788556634605 0.9578262852211513
  outer loop
    vertex 47.625 -2.58493368724056 30.715094401329274
    vertex 42.86249999999998 -5.62603214281774 29.80276486465612
    vertex 46.03749999999999 -5.62603214281774 29.80276486465612
  endloop
endfacet
facet normal 0.0 -0.9578262852211515 -0.28734788556634505
  outer loop
    vertex 42.86249999999998 -8.667130598394877 28.890435327982967
    vertex 39.687499999999986 -1.0148023914247073e-15 0.0
    vertex 42.86249999999998 -1.0148023914247073e-15 0.0
  endloop
endfacet
facet normal 0.0 -0.9578262852211515 -0.28734788556634505
  outer loop
    vertex 39.687499999999986 -1.0148023914247073e-15 0.0
    vertex 42.86249999999998 -8.667130598394877 28.890435327982967
    vertex 39.687499999999986 -8.667130598394877 28.890435327982967
  endloop
endfacet
facet normal 0.0 -0.9578262852211515 -0.28734788556634505
  outer loop
    vertex 36.51249999999999 -8.667130598394877 28.890435327982967
    vertex 33.337499999999984 -1.0148023914247073e-15 0.0
    vertex 36.51249999999999 -1.0148023914247073e-15 0.0
  endloop
endfacet
facet normal 0.0 -0.9578262852211515 -0.28734788556634505
  outer loop
    vertex 33.337499999999984 -1.0148023914247073e-15 0.0
    vertex 36.51249999999999 -8.667130598394877 28.890435327982967
    vertex 33.337499999999984 -8.667130598394877 28.890435327982967
  endloop
endfacet
facet normal 0.0 -0.9578262852211515 -0.28734788556634505
  outer loop
    vertex 30.162499999999987 -8.667130598394877 28.890435327982967
    vertex 26.987499999999986 -1.0148023914247073e-15 0.0
    vertex 30.162499999999987 -1.0148023914247073e-15 0.0
  endloop
endfacet
facet normal 0.0 -0.9578262852211515 -0.28734788556634505
  outer loop
    vertex 26.987499999999986 -1.0148023914247073e-15 0.0
    vertex 30.162499999999987 -8.667130598394877 28.890435327982967
    vertex 26.987499999999986 -8.667130598394877 28.890435327982967
  endloop
endfacet
facet normal 0.0 -0.9578262852211515 -0.28734788556634505
  outer loop
    vertex 23.812499999999986 -8.667130598394877 28.890435327982967
    vertex 20.689682851933433 -1.0148023914247073e-15 0.0
    vertex 23.812499999999986 -1.0148023914247073e-15 0.0
  endloop
endfacet
facet normal 0.0 -0.9578262852211515 -0.28734788556634505
  outer loop
    vertex 20.689682851933433 -1.0148023914247073e-15 0.0
    vertex 23.812499999999986 -8.667130598394877 28.890435327982967
    vertex 20.689682851933433 -8.667130598394877 28.890435327982967
  endloop
endfacet
facet normal 0.0 -0.9578262852211515 -0.28734788556634505
  outer loop
    vertex 17.4625 -8.667130598394877 28.890435327982967
    vertex 14.2875 -1.0148023914247073e-15 0.0
    vertex 17.4625 -1.0148023914247073e-15 0.0
  endloop
endfacet
facet normal 0.0 -0.9578262852211515 -0.28734788556634505
  outer loop
    vertex 14.2875 -1.0148023914247073e-15 0.0
    vertex 17.4625 -8.667130598394877 28.890435327982967
    vertex 14.2875 -8.667130598394877 28.890435327982967
  endloop
endfacet
facet normal -1.0613028597157822e-31 -0.9578262852211515 -0.28734788556634505
  outer loop
    vertex 11.112499999999999 -8.667130598394877 28.890435327982967
    vertex 8.117321833752655 -1.0148023914247073e-15 0.0
    vertex 11.112499999999999 -1.0148023914247073e-15 0.0
  endloop
endfacet
facet normal -1.0613028597157822e-31 -0.9578262852211515 -0.28734788556634505
  outer loop
    vertex 8.117321833752655 -1.0148023914247073e-15 0.0
    vertex 11.112499999999999 -8.667130598394877 28.890435327982967
    vertex 8.117321833752655 -8.667130598394877 28.890435327982967
  endloop
endfacet
facet normal 0.0 -0.9578262852211515 -0.28734788556634505
  outer loop
    vertex 4.994504685686089 -8.667130598394877 28.890435327982967
    vertex 0.0 -1.0148023914247073e-15 0.0
    vertex 4.994504685686089 -1.0148023914247073e-15 0.0
  endloop
endfacet
facet normal 0.0 -0.9578262852211515 -0.28734788556634505
  outer loop
    vertex 0.0 -1.0148023914247073e-15 0.0
    vertex 4.994504685686089 -8.667130598394877 28.890435327982967
    vertex 0.0 -8.667130598394877 28.890435327982967
  endloop
endfacet
facet normal -1.0 0.0 0.0
  outer loop
    vertex 46.03749999999999 -5.62603214281774 29.80276486465612
    vertex 46.03749999999999 -1.0148023914247073e-15 0.0
    vertex 46.03749999999999 -8.667130598394877 28.890435327982967
  endloop
endfacet
facet normal -1.0 0.0 0.0
  outer loop
    vertex 46.03749999999999 -1.0148023914247073e-15 0.0
    vertex 46.03749999999999 -5.62603214281774 29.80276486465612
    vertex 46.03749999999999 3.314797316579113 -2.1149748619109232e-14
  endloop
endfacet
facet normal 0.0 -0.9578262852211513 -0.2873478855663458
  outer loop
    vertex 46.03749999999999 -5.62603214281774 29.80276486465612
    vertex 42.86249999999998 3.314797316579113 -2.1149748619109232e-14
    vertex 46.03749999999999 3.314797316579113 -2.1149748619109232e-14
  endloop
endfacet
facet normal 0.0 -0.9578262852211513 -0.2873478855663458
  outer loop
    vertex 42.86249999999998 3.314797316579113 -2.1149748619109232e-14
    vertex 46.03749999999999 -5.62603214281774 29.80276486465612
    vertex 42.86249999999998 -5.62603214281774 29.80276486465612
  endloop
endfacet
facet normal 1.0 -0.0 -0.0
  outer loop
    vertex 42.86249999999998 -1.0148023914247073e-15 0.0
    vertex 42.86249999999998 -5.62603214281774 29.80276486465612
    vertex 42.86249999999998 -8.667130598394877 28.890435327982967
  endloop
endfacet
facet normal 1.0 -0.0 -0.0
  outer loop
    vertex 42.86249999999998 -5.62603214281774 29.80276486465612
    vertex 42.86249999999998 -1.0148023914247073e-15 0.0
    vertex 42.86249999999998 3.314797316579113 -2.1149748619109232e-14
  endloop
endfacet
facet normal 0.0 -0.9578262852211513 -0.2873478855663458
  outer loop
    vertex 39.687499999999986 -5.62603214281774 29.80276486465612
    vertex 36.51249999999999 3.314797316579113 -2.1149748619109232e-14
    vertex 39.687499999999986 3.314797316579113 -2.1149748619109232e-14
  endloop
endfacet
facet normal 0.0 -0.9578262852211513 -0.2873478855663458
  outer loop
    vertex 36.51249999999999 3.314797316579113 -2.1149748619109232e-14
    vertex 39.687499999999986 -5.62603214281774 29.80276486465612
    vertex 36.51249999999999 -5.62603214281774 29.80276486465612
  endloop
endfacet
facet normal 1.0 -0.0 -0.0
  outer loop
    vertex 36.51249999999999 -1.0148023914247073e-15 0.0
    vertex 36.51249999999999 -5.62603214281774 29.80276486465612
    vertex 36.51249999999999 -8.667130598394877 28.890435327982967
  endloop
endfacet
facet normal 1.0 -0.0 -0.0
  outer loop
    vertex 36.51249999999999 -5.62603214281774 29.80276486465612
    vertex 36.51249999999999 -1.0148023914247073e-15 0.0
    vertex 36.51249999999999 3.314797316579113 -2.1149748619109232e-14
  endloop
endfacet
facet normal -1.0 0.0 0.0
  outer loop
    vertex 39.687499999999986 -5.62603214281774 29.80276486465612
    vertex 39.687499999999986 -1.0148023914247073e-15 0.0
    vertex 39.687499999999986 -8.667130598394877 28.890435327982967
  endloop
endfacet
facet normal -1.0 0.0 0.0
  outer loop
    vertex 39.687499999999986 -1.0148023914247073e-15 0.0
    vertex 39.687499999999986 -5.62603214281774 29.80276486465612
    vertex 39.687499999999986 3.314797316579113 -2.1149748619109232e-14
  endloop
endfacet
facet normal -1.0 0.0 0.0
  outer loop
    vertex 33.337499999999984 -5.62603214281774 29.80276486465612
    vertex 33.337499999999984 -1.0148023914247073e-15 0.0
    vertex 33.337499999999984 -8.667130598394877 28.890435327982967
  endloop
endfacet
facet normal -1.0 0.0 0.0
  outer loop
    vertex 33.337499999999984 -1.0148023914247073e-15 0.0
    vertex 33.337499999999984 -5.62603214281774 29.80276486465612
    vertex 33.337499999999984 3.314797316579113 -2.1149748619109232e-14
  endloop
endfacet
facet normal 0.0 -0.9578262852211513 -0.2873478855663458
  outer loop
    vertex 33.337499999999984 -5.62603214281774 29.80276486465612
    vertex 30.162499999999987 3.314797316579113 -2.1149748619109232e-14
    vertex 33.337499999999984 3.314797316579113 -2.1149748619109232e-14
  endloop
endfacet
facet normal 0.0 -0.9578262852211513 -0.2873478855663458
  outer loop
    vertex 30.162499999999987 3.314797316579113 -2.1149748619109232e-14
    vertex 33.337499999999984 -5.62603214281774 29.80276486465612
    vertex 30.162499999999987 -5.62603214281774 29.80276486465612
  endloop
endfacet
facet normal 1.0 -0.0 -0.0
  outer loop
    vertex 30.162499999999987 -1.0148023914247073e-15 0.0
    vertex 30.162499999999987 -5.62603214281774 29.80276486465612
    vertex 30.162499999999987 -8.667130598394877 28.890435327982967
  endloop
endfacet
facet normal 1.0 -0.0 -0.0
  outer loop
    vertex 30.162499999999987 -5.62603214281774 29.80276486465612
    vertex 30.162499999999987 -1.0148023914247073e-15 0.0
    vertex 30.162499999999987 3.314797316579113 -2.1149748619109232e-14
  endloop
endfacet
facet normal -1.0 0.0 0.0
  outer loop
    vertex 26.987499999999986 -5.62603214281774 29.80276486465612
    vertex 26.987499999999986 -1.0148023914247073e-15 0.0
    vertex 26.987499999999986 -8.667130598394877 28.890435327982967
  endloop
endfacet
facet normal -1.0 0.0 0.0
  outer loop
    vertex 26.987499999999986 -1.0148023914247073e-15 0.0
    vertex 26.987499999999986 -5.62603214281774 29.80276486465612
    vertex 26.987499999999986 3.314797316579113 -2.1149748619109232e-14
  endloop
endfacet
facet normal 1.0 -0.0 -0.0
  outer loop
    vertex 23.812499999999986 -1.0148023914247073e-15 0.0
    vertex 23.812499999999986 -5.62603214281774 29.80276486465612
    vertex 23.812499999999986 -8.667130598394877 28.890435327982967
  endloop
endfacet
facet normal 1.0 -0.0 -0.0
  outer loop
    vertex 23.812499999999986 -5.62603214281774 29.80276486465612
    vertex 23.812499999999986 -1.0148023914247073e-15 0.0
    vertex 23.812499999999986 3.314797316579113 -2.1149748619109232e-14
  endloop
endfacet
facet normal 0.0 -0.9578262852211513 -0.2873478855663458
  outer loop
    vertex 26.987499999999986 -5.62603214281774 29.80276486465612
    vertex 23.812499999999986 3.314797316579113 -2.1149748619109232e-14
    vertex 26.987499999999986 3.314797316579113 -2.1149748619109232e-14
  endloop
endfacet
facet normal 0.0 -0.9578262852211513 -0.2873478855663458
  outer loop
    vertex 23.812499999999986 3.314797316579113 -2.1149748619109232e-14
    vertex 26.987499999999986 -5.62603214281774 29.80276486465612
    vertex 23.812499999999986 -5.62603214281774 29.80276486465612
  endloop
endfacet
facet normal -1.0 0.0 0.0
  outer loop
    vertex 20.689682851933433 -5.62603214281774 29.80276486465612
    vertex 20.689682851933433 -1.0148023914247073e-15 0.0
    vertex 20.689682851933433 -8.667130598394877 28.890435327982967
  endloop
endfacet
facet normal -1.0 0.0 0.0
  outer loop
    vertex 20.689682851933433 -1.0148023914247073e-15 0.0
    vertex 20.689682851933433 -5.62603214281774 29.80276486465612
    vertex 20.689682851933433 3.314797316579113 -2.1149748619109232e-14
  endloop
endfacet
facet normal 0.0 -0.9578262852211513 -0.2873478855663458
  outer loop
    vertex 20.689682851933433 -5.62603214281774 29.80276486465612
    vertex 17.514682851933433 3.314797316579113 -2.1149748619109232e-14
    vertex 20.689682851933433 3.314797316579113 -2.1149748619109232e-14
  endloop
endfacet
facet normal 0.0 -0.9578262852211513 -0.2873478855663458
  outer loop
    vertex 17.514682851933433 3.314797316579113 -2.1149748619109232e-14
    vertex 20.689682851933433 -5.62603214281774 29.80276486465612
    vertex 17.514682851933433 -5.62603214281774 29.80276486465612
  endloop
endfacet
facet normal 0.9998649638051782 -0.015740270181442195 -0.004722081054432659
  outer loop
    vertex 17.4625 -1.0148023914247073e-15 0.0
    vertex 17.514682851933433 -5.62603214281774 29.80276486465612
    vertex 17.4625 -8.667130598394877 28.890435327982967
  endloop
endfacet
facet normal 0.9998649638051782 -0.015740270181442195 -0.004722081054432659
  outer loop
    vertex 17.514682851933433 -5.62603214281774 29.80276486465612
    vertex 17.4625 -1.0148023914247073e-15 0.0
    vertex 17.514682851933433 3.314797316579113 -2.1149748619109232e-14
  endloop
endfacet
facet normal -0.9998649638051782 0.015740270181442195 0.004722081054432659
  outer loop
    vertex 14.339682851933434 -5.62603214281774 29.80276486465612
    vertex 14.2875 -1.0148023914247073e-15 0.0
    vertex 14.2875 -8.667130598394877 28.890435327982967
  endloop
endfacet
facet normal -0.9998649638051782 0.015740270181442195 0.004722081054432659
  outer loop
    vertex 14.2875 -1.0148023914247073e-15 0.0
    vertex 14.339682851933434 -5.62603214281774 29.80276486465612
    vertex 14.339682851933434 3.314797316579113 -2.1149748619109232e-14
  endloop
endfacet
facet normal 0.0 -0.9578262852211513 -0.2873478855663458
  outer loop
    vertex 14.339682851933434 -5.62603214281774 29.80276486465612
    vertex 11.164682851933433 3.314797316579113 -2.1149748619109232e-14
    vertex 14.339682851933434 3.314797316579113 -2.1149748619109232e-14
  endloop
endfacet
facet normal 0.0 -0.9578262852211513 -0.2873478855663458
  outer loop
    vertex 11.164682851933433 3.314797316579113 -2.1149748619109232e-14
    vertex 14.339682851933434 -5.62603214281774 29.80276486465612
    vertex 11.164682851933433 -5.62603214281774 29.80276486465612
  endloop
endfacet
facet normal 0.9998649638051782 -0.015740270181442195 -0.004722081054432659
  outer loop
    vertex 11.112499999999999 -1.0148023914247073e-15 0.0
    vertex 11.164682851933433 -5.62603214281774 29.80276486465612
    vertex 11.112499999999999 -8.667130598394877 28.890435327982967
  endloop
endfacet
facet normal 0.9998649638051782 -0.015740270181442195 -0.004722081054432659
  outer loop
    vertex 11.164682851933433 -5.62603214281774 29.80276486465612
    vertex 11.112499999999999 -1.0148023914247073e-15 0.0
    vertex 11.164682851933433 3.314797316579113 -2.1149748619109232e-14
  endloop
endfacet
facet normal 1.0 -0.0 -0.0
  outer loop
    vertex 4.994504685686089 -1.0148023914247073e-15 0.0
    vertex 4.994504685686089 -5.62603214281774 29.80276486465612
    vertex 4.994504685686089 -8.667130598394877 28.890435327982967
  endloop
endfacet
facet normal 1.0 -0.0 -0.0
  outer loop
    vertex 4.994504685686089 -5.62603214281774 29.80276486465612
    vertex 4.994504685686089 -1.0148023914247073e-15 0.0
    vertex 4.994504685686089 3.314797316579113 -2.1149748619109232e-14
  endloop
endfacet
facet normal -0.9998649638051782 0.015740270181442233 0.00472208105443267
  outer loop
    vertex 8.16950468568609 -5.62603214281774 29.80276486465612
    vertex 8.117321833752655 -1.0148023914247073e-15 0.0
    vertex 8.117321833752655 -8.667130598394877 28.890435327982967
  endloop
endfacet
facet normal -0.9998649638051782 0.015740270181442233 0.00472208105443267
  outer loop
    vertex 8.117321833752655 -1.0148023914247073e-15 0.0
    vertex 8.16950468568609 -5.62603214281774 29.80276486465612
    vertex 8.16950468568609 3.314797316579113 -2.1149748619109232e-14
  endloop
endfacet
facet normal 0.0 -0.9578262852211513 -0.2873478855663458
  outer loop
    vertex 8.16950468568609 -5.62603214281774 29.80276486465612
    vertex 4.994504685686089 3.314797316579113 -2.1149748619109232e-14
    vertex 8.16950468568609 3.314797316579113 -2.1149748619109232e-14
  endloop
endfacet
facet normal 0.0 -0.9578262852211513 -0.2873478855663458
  outer loop
    vertex 4.994504685686089 3.314797316579113 -2.1149748619109232e-14
    vertex 8.16950468568609 -5.62603214281774 29.80276486465612
    vertex 4.994504685686089 -5.62603214281774 29.80276486465612
  endloop
endfacet
facet normal -1.2583576079417188e-16 0.28734788556634305 -0.9578262852211522
  outer loop
    vertex 35.0331855015322 78.33510481555271 6.926544861770355
    vertex 35.0331855015322 76.76091641888225 6.454288342769187
    vertex 34.92499999999999 77.54801061721744 6.690416602269785
  endloop
endfacet
facet normal -1.2583576079417188e-16 0.28734788556634305 -0.9578262852211522
  outer loop
    vertex 35.0331855015322 76.76091641888225 6.454288342769187
    vertex 35.0331855015322 78.33510481555271 6.926544861770355
    vertex 35.3503693429844 79.06855984500602 7.146581370606323
  endloop
endfacet
facet normal -1.2583576079417188e-16 0.28734788556634305 -0.9578262852211522
  outer loop
    vertex 35.0331855015322 76.76091641888225 6.454288342769187
    vertex 35.3503693429844 79.06855984500602 7.146581370606323
    vertex 35.3503693429844 76.02746138942888 6.234251833933225
  endloop
endfacet
facet normal -1.2583576079417188e-16 0.28734788556634305 -0.9578262852211522
  outer loop
    vertex 35.3503693429844 76.02746138942888 6.234251833933225
    vertex 35.3503693429844 79.06855984500602 7.146581370606323
    vertex 35.8549359697327 79.698391957412 7.335531004328124
  endloop
endfacet
facet normal -1.2583576079417188e-16 0.28734788556634305 -0.9578262852211522
  outer loop
    vertex 35.3503693429844 76.02746138942888 6.234251833933225
    vertex 35.8549359697327 79.698391957412 7.335531004328124
    vertex 35.8549359697327 75.39762927702293 6.045302200211413
  endloop
endfacet
facet normal -1.2583576079417188e-16 0.28734788556634305 -0.9578262852211522
  outer loop
    vertex 35.8549359697327 75.39762927702293 6.045302200211413
    vertex 35.8549359697327 79.698391957412 7.335531004328124
    vertex 36.51249999999999 80.18167913515691 7.480517157651607
  endloop
endfacet
facet normal -1.2583576079417188e-16 0.28734788556634305 -0.9578262852211522
  outer loop
    vertex 35.8549359697327 75.39762927702293 6.045302200211413
    vertex 36.51249999999999 80.18167913515691 7.480517157651607
    vertex 36.51249999999999 74.91434209927803 5.900316046887942
  endloop
endfacet
facet normal -1.2583576079417188e-16 0.28734788556634305 -0.9578262852211522
  outer loop
    vertex 36.51249999999999 74.91434209927803 5.900316046887942
    vertex 36.51249999999999 80.18167913515691 7.480517157651607
    vertex 37.27824953179949 80.48548615574727 7.571659263828688
  endloop
endfacet
facet normal -1.2583576079417188e-16 0.28734788556634305 -0.9578262852211522
  outer loop
    vertex 36.51249999999999 74.91434209927803 5.900316046887942
    vertex 37.27824953179949 80.48548615574727 7.571659263828688
    vertex 37.27824953179949 74.61053507868766 5.809173940710831
  endloop
endfacet
facet normal -1.2583576079417188e-16 0.28734788556634305 -0.9578262852211522
  outer loop
    vertex 37.27824953179949 74.61053507868766 5.809173940710831
    vertex 37.27824953179949 80.48548615574727 7.571659263828688
    vertex 38.09999999999999 80.58910907279461 7.602746138942923
  endloop
endfacet
facet normal -1.2583576079417188e-16 0.28734788556634305 -0.9578262852211522
  outer loop
    vertex 37.27824953179949 74.61053507868766 5.809173940710831
    vertex 38.09999999999999 80.58910907279461 7.602746138942923
    vertex 38.09999999999999 74.50691216164029 5.778087065596664
  endloop
endfacet
facet normal -1.2583576079417188e-16 0.28734788556634305 -0.9578262852211522
  outer loop
    vertex 38.09999999999999 74.50691216164029 5.778087065596664
    vertex 38.09999999999999 80.58910907279461 7.602746138942923
    vertex 38.9217504682005 80.48548615574727 7.571659263828688
  endloop
endfacet
facet normal -1.2583576079417188e-16 0.28734788556634305 -0.9578262852211522
  outer loop
    vertex 38.09999999999999 74.50691216164029 5.778087065596664
    vertex 38.9217504682005 80.48548615574727 7.571659263828688
    vertex 38.921750468200486 74.6105350786877 5.809173940710825
  endloop
endfacet
facet normal -1.2583576079417188e-16 0.28734788556634305 -0.9578262852211522
  outer loop
    vertex 38.921750468200486 74.6105350786877 5.809173940710825
    vertex 38.9217504682005 80.48548615574727 7.571659263828688
    vertex 39.687499999999986 74.91434209927803 5.900316046887942
  endloop
endfacet
facet normal -1.2583576079417188e-16 0.28734788556634305 -0.9578262852211522
  outer loop
    vertex 39.687499999999986 74.91434209927803 5.900316046887942
    vertex 38.9217504682005 80.48548615574727 7.571659263828688
    vertex 39.687499999999986 80.18167913515691 7.480517157651607
  endloop
endfacet
facet normal -1.2583576079417188e-16 0.28734788556634305 -0.9578262852211522
  outer loop
    vertex 39.687499999999986 74.91434209927803 5.900316046887942
    vertex 39.687499999999986 80.18167913515691 7.480517157651607
    vertex 40.34506403026728 79.698391957412 7.335531004328124
  endloop
endfacet
facet normal -1.2583576079417188e-16 0.28734788556634305 -0.9578262852211522
  outer loop
    vertex 39.687499999999986 74.91434209927803 5.900316046887942
    vertex 40.34506403026728 79.698391957412 7.335531004328124
    vertex 40.34506403026728 75.39762927702293 6.045302200211413
  endloop
endfacet
facet normal -1.2583576079417188e-16 0.28734788556634305 -0.9578262852211522
  outer loop
    vertex 40.34506403026728 75.39762927702293 6.045302200211413
    vertex 40.34506403026728 79.698391957412 7.335531004328124
    vertex 40.84963065701559 79.06855984500602 7.146581370606323
  endloop
endfacet
facet normal -1.2583576079417188e-16 0.28734788556634305 -0.9578262852211522
  outer loop
    vertex 40.34506403026728 75.39762927702293 6.045302200211413
    vertex 40.84963065701559 79.06855984500602 7.146581370606323
    vertex 40.849630657015574 76.02746138942888 6.234251833933225
  endloop
endfacet
facet normal -1.2583576079417188e-16 0.28734788556634305 -0.9578262852211522
  outer loop
    vertex 40.849630657015574 76.02746138942888 6.234251833933225
    vertex 40.84963065701559 79.06855984500602 7.146581370606323
    vertex 41.16681449846778 76.76091641888225 6.454288342769187
  endloop
endfacet
facet normal -1.2583576079417188e-16 0.28734788556634305 -0.9578262852211522
  outer loop
    vertex 41.16681449846778 76.76091641888225 6.454288342769187
    vertex 40.84963065701559 79.06855984500602 7.146581370606323
    vertex 41.16681449846778 78.33510481555271 6.926544861770355
  endloop
endfacet
facet normal -1.2583576079417188e-16 0.28734788556634305 -0.9578262852211522
  outer loop
    vertex 41.16681449846778 76.76091641888225 6.454288342769187
    vertex 41.16681449846778 78.33510481555271 6.926544861770355
    vertex 41.274999999999984 77.54801061721744 6.690416602269785
  endloop
endfacet
facet normal 0.8762735610557698 0.46149402989433225 0.1384482089682978
  outer loop
    vertex 35.350369342984386 77.89773693960882 6.06292793747798e-14
    vertex 35.0331855015322 76.76091641888225 6.454288342769187
    vertex 35.3503693429844 76.02746138942888 6.234251833933225
  endloop
endfacet
facet normal 0.9659258262890694 0.24790368451502892 0.07437110535450839
  outer loop
    vertex 35.0331855015322 76.76091641888225 6.454288342769187
    vertex 35.350369342984386 77.89773693960882 6.06292793747798e-14
    vertex 35.0331855015322 78.69720292171299 2.3969715101657127e-14
  endloop
endfacet
facet normal 0.9997065764364848 -0.023201570447531652 -0.006960471134258379
  outer loop
    vertex 34.925 79.55513559789838 4.934941344458821e-14
    vertex 35.0331855015322 78.33510481555271 6.926544861770355
    vertex 34.92499999999999 77.54801061721744 6.690416602269785
  endloop
endfacet
facet normal 0.965925826289069 -0.24790368451503086 -0.07437110535450857
  outer loop
    vertex 35.0331855015322 78.33510481555271 6.926544861770355
    vertex 34.925 79.55513559789838 4.934941344458821e-14
    vertex 35.0331855015322 80.41306827408376 3.8069547514396615e-14
  endloop
endfacet
facet normal 0.9595544035384823 -0.2696503795690825 -0.08089511387072416
  outer loop
    vertex 35.0331855015322 80.41306827408376 3.8069547514396615e-14
    vertex 35.3503693429844 79.06855984500602 7.146581370606323
    vertex 35.0331855015322 78.33510481555271 6.926544861770355
  endloop
endfacet
facet normal 0.8660254037844399 -0.4789131426105733 -0.14367394278317303
  outer loop
    vertex 35.3503693429844 79.06855984500602 7.146581370606323
    vertex 35.0331855015322 80.41306827408376 3.8069547514396615e-14
    vertex 35.350369342984386 81.21253425618794 1.5509815654013436e-14
  endloop
endfacet
facet normal 0.2524502149766955 -0.9268021814000603 -0.2780406544200149
  outer loop
    vertex 37.27824953179949 82.75698393489581 5.4989346409684e-14
    vertex 36.51249999999999 80.18167913515691 7.480517157651607
    vertex 36.512499999999996 82.42583428245239 4.934941344458821e-14
  endloop
endfacet
facet normal 0.5000000000000037 -0.8295018954139949 -0.248850568624197
  outer loop
    vertex 36.51249999999999 80.18167913515691 7.480517157651607
    vertex 37.27824953179949 82.75698393489581 5.4989346409684e-14
    vertex 37.27824953179949 80.48548615574727 7.571659263828688
  endloop
endfacet
facet normal 1.1851776161210628e-15 -0.9578262852211524 -0.2873478855663421
  outer loop
    vertex 38.09999999999999 80.58910907279461 7.602746138942923
    vertex 37.27824953179949 82.75698393489581 5.4989346409684e-14
    vertex 38.09999999999997 82.86993291447747 9.86988268891764e-15
  endloop
endfacet
facet normal 0.2524502149766955 -0.9268021814000603 -0.2780406544200149
  outer loop
    vertex 37.27824953179949 82.75698393489581 5.4989346409684e-14
    vertex 38.09999999999999 80.58910907279461 7.602746138942923
    vertex 37.27824953179949 80.48548615574727 7.571659263828688
  endloop
endfacet
facet normal -0.707106781186553 -0.6772854614785916 -0.20318563844357534
  outer loop
    vertex 40.34506403026728 79.698391957412 7.335531004328124
    vertex 40.849630657015574 81.21253425618794 1.5509815654013436e-14
    vertex 40.84963065701559 79.06855984500602 7.146581370606323
  endloop
endfacet
facet normal -0.8551441005825088 -0.49652791456671874 -0.14895837437001425
  outer loop
    vertex 40.849630657015574 81.21253425618794 1.5509815654013436e-14
    vertex 40.34506403026728 79.698391957412 7.335531004328124
    vertex 40.345064030267274 81.89905125871039 5.4989346409684e-14
  endloop
endfacet
facet normal -0.8660254037844355 -0.47891314261058127 -0.143673942783173
  outer loop
    vertex 40.84963065701559 79.06855984500602 7.146581370606323
    vertex 41.16681449846778 80.41306827408376 3.8069547514396615e-14
    vertex 41.16681449846778 78.33510481555271 6.926544861770355
  endloop
endfacet
facet normal -0.9595544035384809 -0.2696503795690868 -0.08089511387072487
  outer loop
    vertex 41.16681449846778 80.41306827408376 3.8069547514396615e-14
    vertex 40.84963065701559 79.06855984500602 7.146581370606323
    vertex 40.849630657015574 81.21253425618794 1.5509815654013436e-14
  endloop
endfacet
facet normal -0.9659258262890684 0.2479036845150334 0.074371105354509
  outer loop
    vertex 41.16681449846778 76.76091641888225 6.454288342769187
    vertex 40.849630657015574 77.8977369396088 5.780931289223189e-14
    vertex 40.849630657015574 76.02746138942888 6.234251833933225
  endloop
endfacet
facet normal -0.8762735610557639 0.4614940298943422 0.13844820896830098
  outer loop
    vertex 40.849630657015574 77.8977369396088 5.780931289223189e-14
    vertex 41.16681449846778 76.76091641888225 6.454288342769187
    vertex 41.16681449846778 78.69720292171297 3.524958103184872e-14
  endloop
endfacet
facet normal -0.5104452912553352 0.8236446217684699 0.24709338653053872
  outer loop
    vertex 39.687499999999986 76.68443691334437 7.754907827006718e-14
    vertex 40.34506403026728 75.39762927702293 6.045302200211413
    vertex 40.345064030267274 77.21121993708633 3.8069547514396615e-14
  endloop
endfacet
facet normal -0.7071067811865477 0.6772854614785967 0.20318563844357768
  outer loop
    vertex 40.34506403026728 75.39762927702293 6.045302200211413
    vertex 39.687499999999986 76.68443691334437 7.754907827006718e-14
    vertex 39.687499999999986 74.91434209927803 5.900316046887942
  endloop
endfacet
facet normal -0.2588190451025234 0.9251891459936298 0.27755674379808565
  outer loop
    vertex 38.921750468200486 74.6105350786877 5.809173940710825
    vertex 39.687499999999986 76.68443691334437 7.754907827006718e-14
    vertex 38.9217504682005 76.35328726090091 5.2169379927136103e-14
  endloop
endfacet
facet normal -0.5104452912553352 0.8236446217684699 0.24709338653053872
  outer loop
    vertex 39.687499999999986 76.68443691334437 7.754907827006718e-14
    vertex 38.921750468200486 74.6105350786877 5.809173940710825
    vertex 39.687499999999986 74.91434209927803 5.900316046887942
  endloop
endfacet
facet normal -5.581855396782958e-15 0.9578262852211515 0.2873478855663451
  outer loop
    vertex 38.09999999999999 76.24033828131927 5.780931289223189e-14
    vertex 38.921750468200486 74.6105350786877 5.809173940710825
    vertex 38.9217504682005 76.35328726090091 5.2169379927136103e-14
  endloop
endfacet
facet normal -0.2588190451025234 0.9251891459936298 0.27755674379808565
  outer loop
    vertex 38.921750468200486 74.6105350786877 5.809173940710825
    vertex 38.09999999999999 76.24033828131927 5.780931289223189e-14
    vertex 38.09999999999999 74.50691216164029 5.778087065596664
  endloop
endfacet
facet normal 0.5104452912553401 0.8236446217684663 0.2470933865305405
  outer loop
    vertex 36.512499999999974 76.6844369133444 8.318901123516297e-14
    vertex 37.27824953179949 74.61053507868766 5.809173940710831
    vertex 37.278249531799474 76.35328726090093 5.4989346409684e-14
  endloop
endfacet
facet normal 0.25881904510252773 0.925189145993627 0.2775567437980908
  outer loop
    vertex 37.27824953179949 74.61053507868766 5.809173940710831
    vertex 36.512499999999974 76.6844369133444 8.318901123516297e-14
    vertex 36.51249999999999 74.91434209927803 5.900316046887942
  endloop
endfacet
facet normal 0.7190747532135955 0.6656248352996705 0.1996874505898991
  outer loop
    vertex 35.85493596973269 77.21121993708633 3.8069547514396615e-14
    vertex 35.3503693429844 76.02746138942888 6.234251833933225
    vertex 35.8549359697327 75.39762927702293 6.045302200211413
  endloop
endfacet
facet normal 0.8660254037844412 0.4789131426105721 0.14367394278316964
  outer loop
    vertex 35.3503693429844 76.02746138942888 6.234251833933225
    vertex 35.85493596973269 77.21121993708633 3.8069547514396615e-14
    vertex 35.350369342984386 77.89773693960882 6.06292793747798e-14
  endloop
endfacet
facet normal -0.9659258262890683 -0.24790368451503367 -0.07437110535450905
  outer loop
    vertex 41.16681449846778 78.33510481555271 6.926544861770355
    vertex 41.274999999999984 79.55513559789838 4.934941344458821e-14
    vertex 41.274999999999984 77.54801061721744 6.690416602269785
  endloop
endfacet
facet normal -0.9997065764364849 -0.023201570447531555 -0.006960471134259257
  outer loop
    vertex 41.274999999999984 79.55513559789838 4.934941344458821e-14
    vertex 41.16681449846778 78.33510481555271 6.926544861770355
    vertex 41.16681449846778 80.41306827408376 3.8069547514396615e-14
  endloop
endfacet
facet normal 0.9716941699091366 0.22627911676315524 0.06788373502894647
  outer loop
    vertex 35.0331855015322 78.69720292171299 2.3969715101657127e-14
    vertex 34.92499999999999 77.54801061721744 6.690416602269785
    vertex 35.0331855015322 76.76091641888225 6.454288342769187
  endloop
endfacet
facet normal 1.0 -5.25755483843177e-16 9.178443192516478e-16
  outer loop
    vertex 34.92499999999999 77.54801061721744 6.690416602269785
    vertex 35.0331855015322 78.69720292171299 2.3969715101657127e-14
    vertex 34.925 79.55513559789838 4.934941344458821e-14
  endloop
endfacet
facet normal 0.25881904510252773 0.925189145993627 0.2775567437980908
  outer loop
    vertex 37.27824953179949 74.61053507868766 5.809173940710831
    vertex 38.09999999999999 76.24033828131927 5.780931289223189e-14
    vertex 37.278249531799474 76.35328726090093 5.4989346409684e-14
  endloop
endfacet
facet normal -5.581855396782958e-15 0.9578262852211515 0.2873478855663451
  outer loop
    vertex 38.09999999999999 76.24033828131927 5.780931289223189e-14
    vertex 37.27824953179949 74.61053507868766 5.809173940710831
    vertex 38.09999999999999 74.50691216164029 5.778087065596664
  endloop
endfacet
facet normal -0.8660254037844365 0.47891314261057977 0.14367394278317228
  outer loop
    vertex 40.849630657015574 76.02746138942888 6.234251833933225
    vertex 40.345064030267274 77.21121993708633 3.8069547514396615e-14
    vertex 40.34506403026728 75.39762927702293 6.045302200211413
  endloop
endfacet
facet normal -0.7190747532135969 0.665624835299669 0.19968745058989937
  outer loop
    vertex 40.345064030267274 77.21121993708633 3.8069547514396615e-14
    vertex 40.849630657015574 76.02746138942888 6.234251833933225
    vertex 40.849630657015574 77.8977369396088 5.780931289223189e-14
  endloop
endfacet
facet normal -0.707106781186553 -0.6772854614785916 -0.20318563844357534
  outer loop
    vertex 40.34506403026728 79.698391957412 7.335531004328124
    vertex 39.6875 82.42583428245234 7.472911178751928e-14
    vertex 40.345064030267274 81.89905125871039 5.4989346409684e-14
  endloop
endfacet
facet normal -0.48902611361753323 -0.8354823142540572 -0.2506446942762131
  outer loop
    vertex 39.6875 82.42583428245234 7.472911178751928e-14
    vertex 40.34506403026728 79.698391957412 7.335531004328124
    vertex 39.687499999999986 80.18167913515691 7.480517157651607
  endloop
endfacet
facet normal -0.48902611361753323 -0.8354823142540572 -0.2506446942762131
  outer loop
    vertex 39.6875 82.42583428245234 7.472911178751928e-14
    vertex 38.9217504682005 80.48548615574727 7.571659263828688
    vertex 38.921750468200486 82.75698393489581 5.4989346409684e-14
  endloop
endfacet
facet normal -0.2588190451025134 -0.9251891459936324 -0.2775567437980854
  outer loop
    vertex 38.9217504682005 80.48548615574727 7.571659263828688
    vertex 39.6875 82.42583428245234 7.472911178751928e-14
    vertex 39.687499999999986 80.18167913515691 7.480517157651607
  endloop
endfacet
facet normal -0.25245021497670045 -0.9268021814000593 -0.2780406544200136
  outer loop
    vertex 38.921750468200486 82.75698393489581 5.4989346409684e-14
    vertex 38.09999999999999 80.58910907279461 7.602746138942923
    vertex 38.09999999999997 82.86993291447747 9.86988268891764e-15
  endloop
endfacet
facet normal 1.1851776161210628e-15 -0.9578262852211524 -0.2873478855663421
  outer loop
    vertex 38.09999999999999 80.58910907279461 7.602746138942923
    vertex 38.921750468200486 82.75698393489581 5.4989346409684e-14
    vertex 38.9217504682005 80.48548615574727 7.571659263828688
  endloop
endfacet
facet normal -1.0 -1.1049776270602354e-15 -1.8490553033467645e-16
  outer loop
    vertex 41.274999999999984 77.54801061721744 6.690416602269785
    vertex 41.16681449846778 78.69720292171297 3.524958103184872e-14
    vertex 41.16681449846778 76.76091641888225 6.454288342769187
  endloop
endfacet
facet normal -0.9716941699091359 0.22627911676315832 0.06788373502894662
  outer loop
    vertex 41.16681449846778 78.69720292171297 3.524958103184872e-14
    vertex 41.274999999999984 77.54801061721744 6.690416602269785
    vertex 41.274999999999984 79.55513559789838 4.934941344458821e-14
  endloop
endfacet
facet normal 0.5000000000000037 -0.8295018954139949 -0.248850568624197
  outer loop
    vertex 36.51249999999999 80.18167913515691 7.480517157651607
    vertex 35.85493596973269 81.89905125871041 5.2169379927136103e-14
    vertex 36.512499999999996 82.42583428245239 4.934941344458821e-14
  endloop
endfacet
facet normal 0.6945112195597235 -0.6891386499192574 -0.20674159497577818
  outer loop
    vertex 35.85493596973269 81.89905125871041 5.2169379927136103e-14
    vertex 36.51249999999999 80.18167913515691 7.480517157651607
    vertex 35.8549359697327 79.698391957412 7.335531004328124
  endloop
endfacet
facet normal 0.7071067811865456 0.6772854614785988 0.20318563844357762
  outer loop
    vertex 35.8549359697327 75.39762927702293 6.045302200211413
    vertex 36.512499999999974 76.6844369133444 8.318901123516297e-14
    vertex 35.85493596973269 77.21121993708633 3.8069547514396615e-14
  endloop
endfacet
facet normal 0.5104452912553401 0.8236446217684663 0.2470933865305405
  outer loop
    vertex 36.512499999999974 76.6844369133444 8.318901123516297e-14
    vertex 35.8549359697327 75.39762927702293 6.045302200211413
    vertex 36.51249999999999 74.91434209927803 5.900316046887942
  endloop
endfacet
facet normal 0.8551441005825131 -0.49652791456671125 -0.1489583743700146
  outer loop
    vertex 35.350369342984386 81.21253425618794 1.5509815654013436e-14
    vertex 35.8549359697327 79.698391957412 7.335531004328124
    vertex 35.3503693429844 79.06855984500602 7.146581370606323
  endloop
endfacet
facet normal 0.7071067811865545 -0.6772854614785894 -0.20318563844357787
  outer loop
    vertex 35.8549359697327 79.698391957412 7.335531004328124
    vertex 35.350369342984386 81.21253425618794 1.5509815654013436e-14
    vertex 35.85493596973269 81.89905125871041 5.2169379927136103e-14
  endloop
endfacet
facet normal 2.5309259059753405e-16 0.9687059892137021 0.24821101196663925
  outer loop
    vertex 0.0 68.64709380806791 12.408101719771658
    vertex 50.80000000000001 68.8786694020002 11.831215394244522
    vertex 0.0 68.87866940200023 11.831215394244493
  endloop
endfacet
facet normal 1.5085963843811173e-16 0.8714563959612753 0.49047298594131034
  outer loop
    vertex 50.80000000000001 68.8786694020002 11.831215394244522
    vertex 0.0 68.64709380806791 12.408101719771658
    vertex 50.80000000000001 68.64709380806788 12.408101719771663
  endloop
endfacet
facet normal 0.0 0.509466884222267 0.8604902636758042
  outer loop
    vertex 50.80000000000001 69.74065692682878 10.950111751639175
    vertex 0.0 70.31232583240967 10.70594019171199
    vertex 0.0 69.74065692682878 10.950111751639175
  endloop
endfacet
facet normal 0.0 0.2693959527447237 0.9630295014405128
  outer loop
    vertex 0.0 70.31232583240967 10.70594019171199
    vertex 50.80000000000001 69.74065692682878 10.950111751639175
    vertex 50.80000000000001 70.31232583240967 10.70594019171199
  endloop
endfacet
facet normal 0.0 -0.9280205369289194 -0.3725290365034118
  outer loop
    vertex 50.80000000000001 73.22438197029024 13.680321299639356
    vertex 0.0 73.26055608169817 13.590206664262752
    vertex 50.80000000000001 73.26055608169817 13.590206664262752
  endloop
endfacet
facet normal 1.3397999272105953e-17 -0.9687059892137257 -0.24821101196654646
  outer loop
    vertex 0.0 73.26055608169817 13.590206664262752
    vertex 50.80000000000001 73.22438197029024 13.680321299639356
    vertex 0.0 73.22438197029024 13.680321299639356
  endloop
endfacet
facet normal -3.8700438230122596e-16 -0.8714563959612753 -0.49047298594131067
  outer loop
    vertex 50.80000000000001 73.02898048776582 14.167092989789873
    vertex 0.0 73.22438197029024 13.680321299639356
    vertex 50.80000000000001 73.22438197029024 13.680321299639356
  endloop
endfacet
facet normal -4.121239069693647e-16 -0.9280205369288522 -0.37252903650357877
  outer loop
    vertex 0.0 73.22438197029024 13.680321299639356
    vertex 50.80000000000001 73.02898048776582 14.167092989789873
    vertex 0.0 73.02898048776586 14.167092989789873
  endloop
endfacet
facet normal -1.7916432834285604e-16 -0.714818489473919 -0.6993100364689646
  outer loop
    vertex 50.80000000000001 72.65598647294274 14.664386216358961
    vertex 0.0 73.02898048776586 14.167092989789873
    vertex 50.80000000000001 73.02898048776582 14.167092989789873
  endloop
endfacet
facet normal -3.8700438230122596e-16 -0.8714563959612753 -0.4904729859413106
  outer loop
    vertex 0.0 73.02898048776586 14.167092989789873
    vertex 50.80000000000001 72.65598647294274 14.664386216358961
    vertex 0.0 72.65598647294274 14.664386216358961
  endloop
endfacet
facet normal 1.508596384381116e-16 0.8714563959612752 0.4904729859413105
  outer loop
    vertex 0.0 68.87866940200023 11.831215394244493
    vertex 50.80000000000001 69.25166341682335 11.333922167675423
    vertex 0.0 69.25166341682335 11.333922167675423
  endloop
endfacet
facet normal 5.593459706829774e-18 0.7148184894738957 0.6993100364689885
  outer loop
    vertex 50.80000000000001 69.25166341682335 11.333922167675423
    vertex 0.0 68.87866940200023 11.831215394244493
    vertex 50.80000000000001 68.8786694020002 11.831215394244522
  endloop
endfacet
facet normal -1.0141558490861308e-16 -0.9999398701635501 0.010966132285476339
  outer loop
    vertex 50.80000000000001 73.33493176070996 12.973041089512405
    vertex 0.0 73.26055608169817 13.590206664262752
    vertex 0.0 73.33493176070996 12.973041089512384
  endloop
endfacet
facet normal 1.3397999272105953e-17 -0.9687059892137257 -0.24821101196654646
  outer loop
    vertex 0.0 73.26055608169817 13.590206664262752
    vertex 50.80000000000001 73.33493176070996 12.973041089512405
    vertex 50.80000000000001 73.26055608169817 13.590206664262752
  endloop
endfacet
facet normal 0.0 0.010966132285469603 0.9999398701635502
  outer loop
    vertex 50.80000000000001 70.92771184237826 10.618047376190228
    vertex 0.0 71.54487741712856 10.692423055202084
    vertex 0.0 70.92771184237826 10.618047376190228
  endloop
endfacet
facet normal 0.0 -0.2482110119666357 0.9687059892137029
  outer loop
    vertex 0.0 71.54487741712856 10.692423055202084
    vertex 50.80000000000001 70.92771184237826 10.618047376190228
    vertex 50.80000000000001 71.54487741712856 10.692423055202084
  endloop
endfacet
facet normal 1.0782641186625289e-16 0.9999398701635502 -0.010966132285475085
  outer loop
    vertex 0.0 68.57271812905606 13.025267294521996
    vertex 50.80000000000001 68.64709380806788 12.408101719771663
    vertex 0.0 68.64709380806791 12.408101719771658
  endloop
endfacet
facet normal 2.5309259059753405e-16 0.9687059892137021 0.24821101196663922
  outer loop
    vertex 50.80000000000001 68.64709380806788 12.408101719771663
    vertex 0.0 68.57271812905606 13.025267294521996
    vertex 50.80000000000001 68.57271812905606 13.025267294521996
  endloop
endfacet
facet normal -1.0141558490861308e-16 -0.9999398701635501 0.010966132285476339
  outer loop
    vertex 50.80000000000001 73.33493176070996 12.973041089512405
    vertex 0.0 73.24703894518828 12.357655079543866
    vertex 50.80000000000001 73.24703894518825 12.35765507954385
  endloop
endfacet
facet normal -7.082863606810906e-17 -0.9630295014405167 0.2693959527447099
  outer loop
    vertex 0.0 73.24703894518828 12.357655079543866
    vertex 50.80000000000001 73.33493176070996 12.973041089512405
    vertex 0.0 73.33493176070996 12.973041089512384
  endloop
endfacet
facet normal 0.0 0.2693959527447237 0.9630295014405128
  outer loop
    vertex 50.80000000000001 70.31232583240967 10.70594019171199
    vertex 0.0 70.92771184237826 10.618047376190228
    vertex 0.0 70.31232583240967 10.70594019171199
  endloop
endfacet
facet normal 0.0 0.010966132285469603 0.9999398701635502
  outer loop
    vertex 0.0 70.92771184237826 10.618047376190228
    vertex 50.80000000000001 70.31232583240967 10.70594019171199
    vertex 50.80000000000001 70.92771184237826 10.618047376190228
  endloop
endfacet
facet normal -4.702978988962793e-17 0.8604902636758096 -0.5094668842222582
  outer loop
    vertex 0.0 68.90478250450502 14.21232221007144
    vertex 50.80000000000001 68.6606109445778 13.640653304490526
    vertex 0.0 68.6606109445778 13.640653304490526
  endloop
endfacet
facet normal -6.597742216891792e-17 0.963029501440508 -0.26939595274474104
  outer loop
    vertex 50.80000000000001 68.6606109445778 13.640653304490526
    vertex 0.0 68.90478250450502 14.21232221007144
    vertex 50.80000000000001 68.90478250450502 14.212322210071406
  endloop
endfacet
facet normal 1.0888654716211277e-16 -0.2693959527446885 -0.9630295014405227
  outer loop
    vertex 50.80000000000001 71.59532405735638 15.292368192322405
    vertex 0.0 70.97993804738783 15.380261007844137
    vertex 0.0 71.59532405735638 15.2923681923224
  endloop
endfacet
facet normal 1.3872946214336904e-16 -0.010966132285492862 -0.99993987016355
  outer loop
    vertex 0.0 70.97993804738783 15.380261007844137
    vertex 50.80000000000001 71.59532405735638 15.292368192322405
    vertex 50.80000000000001 70.97993804738783 15.38026100784415
  endloop
endfacet
facet normal 5.558795584214059e-17 0.24821101196662493 -0.9687059892137055
  outer loop
    vertex 50.80000000000001 70.36277247263754 15.305885328832334
    vertex 0.0 69.78588614711035 15.074309734899995
    vertex 0.0 70.36277247263754 15.305885328832334
  endloop
endfacet
facet normal 1.1198204565738533e-16 0.4904729859412824 -0.8714563959612912
  outer loop
    vertex 0.0 69.78588614711035 15.074309734899995
    vertex 50.80000000000001 70.36277247263754 15.305885328832334
    vertex 50.80000000000001 69.78588614711035 15.074309734899995
  endloop
endfacet
facet normal -1.7916432834285604e-16 -0.714818489473919 -0.6993100364689646
  outer loop
    vertex 50.80000000000001 72.65598647294274 14.664386216358961
    vertex 0.0 72.1669929629373 15.048196632395241
    vertex 0.0 72.65598647294274 14.664386216358961
  endloop
endfacet
facet normal 2.5745040860885513e-17 -0.5094668842222535 -0.8604902636758124
  outer loop
    vertex 0.0 72.1669929629373 15.048196632395241
    vertex 50.80000000000001 72.65598647294274 14.664386216358961
    vertex 50.80000000000001 72.1669929629373 15.048196632395241
  endloop
endfacet
facet normal 2.7201363119268215e-16 -0.860490263675812 0.5094668842222542
  outer loop
    vertex 50.80000000000001 73.00286738526104 11.785986173962945
    vertex 0.0 72.61905696922481 11.296992663957498
    vertex 50.80000000000001 72.61905696922484 11.296992663957486
  endloop
endfacet
facet normal 3.400107287374606e-16 -0.6993100364690086 0.7148184894738762
  outer loop
    vertex 0.0 72.61905696922481 11.296992663957498
    vertex 50.80000000000001 73.00286738526104 11.785986173962945
    vertex 0.0 73.00286738526103 11.78598617396295
  endloop
endfacet
facet normal -6.597742216891792e-17 0.963029501440508 -0.26939595274474104
  outer loop
    vertex 0.0 68.6606109445778 13.640653304490526
    vertex 50.80000000000001 68.57271812905606 13.025267294521996
    vertex 0.0 68.57271812905606 13.025267294521996
  endloop
endfacet
facet normal 1.0782641186625289e-16 0.9999398701635502 -0.010966132285475085
  outer loop
    vertex 50.80000000000001 68.57271812905606 13.025267294521996
    vertex 0.0 68.6606109445778 13.640653304490526
    vertex 50.80000000000001 68.6606109445778 13.640653304490526
  endloop
endfacet
facet normal -7.082863606810897e-17 -0.9630295014405167 0.26939595274471
  outer loop
    vertex 50.80000000000001 73.24703894518825 12.35765507954385
    vertex 0.0 73.00286738526103 11.78598617396295
    vertex 50.80000000000001 73.00286738526104 11.785986173962945
  endloop
endfacet
facet normal 2.7201363119268225e-16 -0.860490263675812 0.5094668842222542
  outer loop
    vertex 0.0 73.00286738526103 11.78598617396295
    vertex 50.80000000000001 73.24703894518825 12.35765507954385
    vertex 0.0 73.24703894518828 12.357655079543866
  endloop
endfacet
facet normal 0.0 -0.2482110119666357 0.9687059892137029
  outer loop
    vertex 50.80000000000001 71.54487741712856 10.692423055202084
    vertex 0.0 72.12176374265574 10.923998649134383
    vertex 0.0 71.54487741712856 10.692423055202084
  endloop
endfacet
facet normal 1.1198204565738747e-16 -0.49047298594127525 0.8714563959612952
  outer loop
    vertex 0.0 72.12176374265574 10.923998649134383
    vertex 50.80000000000001 71.54487741712856 10.692423055202084
    vertex 50.80000000000001 72.12176374265574 10.923998649134383
  endloop
endfacet
facet normal 1.3872946214336904e-16 -0.010966132285492862 -0.99993987016355
  outer loop
    vertex 50.80000000000001 70.97993804738783 15.38026100784415
    vertex 0.0 70.36277247263754 15.305885328832334
    vertex 0.0 70.97993804738783 15.380261007844137
  endloop
endfacet
facet normal 5.558795584214059e-17 0.24821101196662493 -0.9687059892137055
  outer loop
    vertex 0.0 70.36277247263754 15.305885328832334
    vertex 50.80000000000001 70.97993804738783 15.38026100784415
    vertex 50.80000000000001 70.36277247263754 15.305885328832334
  endloop
endfacet
facet normal 1.1198204565738533e-16 0.4904729859412824 -0.8714563959612912
  outer loop
    vertex 50.80000000000001 69.78588614711035 15.074309734899995
    vertex 0.0 69.28859292054125 14.701315720076886
    vertex 0.0 69.78588614711035 15.074309734899995
  endloop
endfacet
facet normal 1.3092967793667575e-16 0.6993100364689979 -0.7148184894738863
  outer loop
    vertex 0.0 69.28859292054125 14.701315720076886
    vertex 50.80000000000001 69.78588614711035 15.074309734899995
    vertex 50.80000000000001 69.28859292054122 14.701315720076897
  endloop
endfacet
facet normal 5.593459706829774e-18 0.7148184894738957 0.6993100364689885
  outer loop
    vertex 50.80000000000001 69.25166341682335 11.333922167675423
    vertex 0.0 69.74065692682878 10.950111751639175
    vertex 0.0 69.25166341682335 11.333922167675423
  endloop
endfacet
facet normal 0.0 0.509466884222267 0.8604902636758042
  outer loop
    vertex 0.0 69.74065692682878 10.950111751639175
    vertex 50.80000000000001 69.25166341682335 11.333922167675423
    vertex 50.80000000000001 69.74065692682878 10.950111751639175
  endloop
endfacet
facet normal 2.5745040860885513e-17 -0.5094668842222535 -0.8604902636758124
  outer loop
    vertex 50.80000000000001 72.1669929629373 15.048196632395241
    vertex 0.0 71.59532405735638 15.2923681923224
    vertex 0.0 72.1669929629373 15.048196632395241
  endloop
endfacet
facet normal 1.0888654716211277e-16 -0.2693959527446885 -0.9630295014405227
  outer loop
    vertex 0.0 71.59532405735638 15.2923681923224
    vertex 50.80000000000001 72.1669929629373 15.048196632395241
    vertex 50.80000000000001 71.59532405735638 15.292368192322405
  endloop
endfacet
facet normal -4.702978988962793e-17 0.8604902636758096 -0.5094668842222582
  outer loop
    vertex 0.0 68.90478250450502 14.21232221007144
    vertex 50.80000000000001 69.28859292054122 14.701315720076897
    vertex 50.80000000000001 68.90478250450502 14.212322210071406
  endloop
endfacet
facet normal 1.3092967793667575e-16 0.699310036468998 -0.7148184894738862
  outer loop
    vertex 50.80000000000001 69.28859292054122 14.701315720076897
    vertex 0.0 68.90478250450502 14.21232221007144
    vertex 0.0 69.28859292054125 14.701315720076886
  endloop
endfacet
facet normal 1.1198204565738747e-16 -0.49047298594127525 0.8714563959612952
  outer loop
    vertex 50.80000000000001 72.12176374265574 10.923998649134383
    vertex 0.0 72.61905696922481 11.296992663957498
    vertex 0.0 72.12176374265574 10.923998649134383
  endloop
endfacet
facet normal 3.400107287374606e-16 -0.6993100364690086 0.7148184894738762
  outer loop
    vertex 0.0 72.61905696922481 11.296992663957498
    vertex 50.80000000000001 72.12176374265574 10.923998649134383
    vertex 50.80000000000001 72.61905696922484 11.296992663957486
  endloop
endfacet
facet normal 7.710119493918738e-33 -0.2873478855663458 0.9578262852211513
  outer loop
    vertex 47.625 6.082196911154338 1.8246590733462944
    vertex 3.175 86.9195918366631 26.075877550998953
    vertex 3.175 6.082196911154338 1.8246590733462944
  endloop
endfacet
facet normal 7.710119493918738e-33 -0.2873478855663458 0.9578262852211513
  outer loop
    vertex 3.175 86.9195918366631 26.075877550998953
    vertex 47.625 6.082196911154338 1.8246590733462944
    vertex 47.625 86.9195918366631 26.075877550998953
  endloop
endfacet
facet normal 5.208493691969164e-18 0.9578262852211513 0.2873478855663456
  outer loop
    vertex 3.175 -2.58493368724056 30.715094401329274
    vertex 47.625 6.082196911154338 1.8246590733462944
    vertex 3.175 6.082196911154338 1.8246590733462944
  endloop
endfacet
facet normal 5.208493691969164e-18 0.9578262852211513 0.2873478855663456
  outer loop
    vertex 47.625 6.082196911154338 1.8246590733462944
    vertex 3.175 -2.58493368724056 30.715094401329274
    vertex 47.625 -2.58493368724056 30.715094401329274
  endloop
endfacet
facet normal -1.0 0.0 0.0
  outer loop
    vertex 47.625 78.2524612382682 54.96631287898195
    vertex 47.625 6.082196911154338 1.8246590733462944
    vertex 47.625 -2.58493368724056 30.715094401329274
  endloop
endfacet
facet normal -1.0 0.0 0.0
  outer loop
    vertex 47.625 6.082196911154338 1.8246590733462944
    vertex 47.625 78.2524612382682 54.96631287898195
    vertex 47.625 86.9195918366631 26.075877550998953
  endloop
endfacet
facet normal -4.6260716963512436e-33 -0.9578262852211515 -0.2873478855663454
  outer loop
    vertex 47.625 78.2524612382682 54.96631287898195
    vertex 3.175 86.9195918366631 26.075877550998953
    vertex 47.625 86.9195918366631 26.075877550998953
  endloop
endfacet
facet normal -4.6260716963512436e-33 -0.9578262852211515 -0.2873478855663454
  outer loop
    vertex 3.175 86.9195918366631 26.075877550998953
    vertex 47.625 78.2524612382682 54.96631287898195
    vertex 3.175 78.2524612382682 54.96631287898195
  endloop
endfacet
facet normal 1.0 -0.0 -0.0
  outer loop
    vertex 3.175 6.082196911154338 1.8246590733462944
    vertex 3.175 78.2524612382682 54.96631287898195
    vertex 3.175 -2.58493368724056 30.715094401329274
  endloop
endfacet
facet normal 1.0 -0.0 -0.0
  outer loop
    vertex 3.175 78.2524612382682 54.96631287898195
    vertex 3.175 6.082196911154338 1.8246590733462944
    vertex 3.175 86.9195918366631 26.075877550998953
  endloop
endfacet
endsolid Hood Hollow
