solid Hood
facet normal 1.0 -0.0 -0.0
  outer loop
    vertex 50.8 1.328281959583768 0.0
    vertex 50.8 22.279887053571905 36.08783276643241
    vertex 50.8 1.328281959583768 50.8
  endloop
endfacet
facet normal 1.0 -0.0 -0.0
  outer loop
    vertex 50.8 22.279887053571905 36.08783276643241
    vertex 50.8 1.328281959583768 0.0
    vertex 50.8 95.25 0.0
  endloop
endfacet
facet normal 1.0 -0.0 -0.0
  outer loop
    vertex 50.8 1.328281959583768 50.8
    vertex 50.8 22.279887053571905 36.08783276643241
    vertex 50.8 21.80248973082342 36.48597455589684
  endloop
endfacet
facet normal 1.0 -0.0 -0.0
  outer loop
    vertex 50.8 1.328281959583768 50.8
    vertex 50.8 21.80248973082342 36.48597455589684
    vertex 50.8 21.444406005144 36.99410951207374
  endloop
endfacet
facet normal 1.0 -0.0 -0.0
  outer loop
    vertex 50.8 1.328281959583768 50.8
    vertex 50.8 21.444406005144 36.99410951207374
    vertex 50.8 21.230038690677354 37.57760907743238
  endloop
endfacet
facet normal 1.0 -0.0 -0.0
  outer loop
    vertex 50.8 1.328281959583768 50.8
    vertex 50.8 21.230038690677354 37.57760907743238
    vertex 50.8 21.182750830462634 38.099999999999994
  endloop
endfacet
facet normal 1.0 -0.0 -0.0
  outer loop
    vertex 50.8 1.328281959583768 50.8
    vertex 50.8 21.182750830462634 38.099999999999994
    vertex 50.8 21.173996565645645 38.196708720872174
  endloop
endfacet
facet normal 1.0 -0.0 -0.0
  outer loop
    vertex 50.8 22.279887053571905 36.08783276643241
    vertex 50.8 95.25 0.0
    vertex 50.8 22.84406413478051 35.82681684867204
  endloop
endfacet
facet normal 1.0 -0.0 -0.0
  outer loop
    vertex 50.8 22.84406413478051 35.82681684867204
    vertex 50.8 95.25 0.0
    vertex 50.8 23.456573238711588 35.720714606061875
  endloop
endfacet
facet normal 1.0 -0.0 -0.0
  outer loop
    vertex 50.8 23.456573238711588 35.720714606061875
    vertex 50.8 95.25 0.0
    vertex 50.8 24.075672882151387 35.776756731093585
  endloop
endfacet
facet normal 1.0 -0.0 -0.0
  outer loop
    vertex 50.8 24.075672882151387 35.776756731093585
    vertex 50.8 95.25 0.0
    vertex 50.8 24.659172447510024 35.991124045560234
  endloop
endfacet
facet normal 1.0 -0.0 -0.0
  outer loop
    vertex 50.8 24.659172447510024 35.991124045560234
    vertex 50.8 95.25 0.0
    vertex 50.8 25.16730740368692 36.349207771239655
  endloop
endfacet
facet normal 1.0 -0.0 -0.0
  outer loop
    vertex 50.8 25.16730740368692 36.349207771239655
    vertex 50.8 95.25 0.0
    vertex 50.8 25.565449193151355 36.826605093988135
  endloop
endfacet
facet normal 1.0 -0.0 -0.0
  outer loop
    vertex 50.8 25.565449193151355 36.826605093988135
    vertex 50.8 95.25 0.0
    vertex 50.8 25.82646511091173 37.39078217519675
  endloop
endfacet
facet normal 1.0 -0.0 -0.0
  outer loop
    vertex 50.8 25.82646511091173 37.39078217519675
    vertex 50.8 95.25 0.0
    vertex 50.8 25.932567353521886 38.00329127912782
  endloop
endfacet
facet normal 1.0 -0.0 -0.0
  outer loop
    vertex 50.8 1.328281959583768 50.8
    vertex 50.8 95.25 30.162499999999994
    vertex 50.8 0.0 58.7375
  endloop
endfacet
facet normal 1.0 -0.0 -0.0
  outer loop
    vertex 50.8 95.25 30.162499999999994
    vertex 50.8 1.328281959583768 50.8
    vertex 50.8 23.64999068045594 40.47928539393812
  endloop
endfacet
facet normal 1.0 -0.0 -0.0
  outer loop
    vertex 50.8 23.64999068045594 40.47928539393812
    vertex 50.8 1.328281959583768 50.8
    vertex 50.8 23.03089103701614 40.42324326890641
  endloop
endfacet
facet normal 1.0 -0.0 -0.0
  outer loop
    vertex 50.8 23.03089103701614 40.42324326890641
    vertex 50.8 1.328281959583768 50.8
    vertex 50.8 22.447391471657507 40.20887595443976
  endloop
endfacet
facet normal 1.0 -0.0 -0.0
  outer loop
    vertex 50.8 22.447391471657507 40.20887595443976
    vertex 50.8 1.328281959583768 50.8
    vertex 50.8 21.939256515480608 39.85079222876034
  endloop
endfacet
facet normal 1.0 -0.0 -0.0
  outer loop
    vertex 50.8 21.939256515480608 39.85079222876034
    vertex 50.8 1.328281959583768 50.8
    vertex 50.8 21.541114726016175 39.37339490601186
  endloop
endfacet
facet normal 1.0 -0.0 -0.0
  outer loop
    vertex 50.8 21.541114726016175 39.37339490601186
    vertex 50.8 1.328281959583768 50.8
    vertex 50.8 21.280098808255797 38.80921782480325
  endloop
endfacet
facet normal 1.0 -0.0 -0.0
  outer loop
    vertex 50.8 21.280098808255797 38.80921782480325
    vertex 50.8 1.328281959583768 50.8
    vertex 50.8 21.173996565645645 38.196708720872174
  endloop
endfacet
facet normal 1.0 -0.0 -0.0
  outer loop
    vertex 50.8 95.25 30.162499999999994
    vertex 50.8 23.64999068045594 40.47928539393812
    vertex 50.8 24.262499784387018 40.37318315132796
  endloop
endfacet
facet normal 1.0 -0.0 -0.0
  outer loop
    vertex 50.8 95.25 30.162499999999994
    vertex 50.8 24.262499784387018 40.37318315132796
    vertex 50.8 24.826676865595626 40.11216723356758
  endloop
endfacet
facet normal 1.0 -0.0 -0.0
  outer loop
    vertex 50.8 95.25 30.162499999999994
    vertex 50.8 24.826676865595626 40.11216723356758
    vertex 50.8 25.304074188344106 39.71402544410316
  endloop
endfacet
facet normal 1.0 -0.0 -0.0
  outer loop
    vertex 50.8 95.25 30.162499999999994
    vertex 50.8 25.304074188344106 39.71402544410316
    vertex 50.8 25.66215791402353 39.205890487926254
  endloop
endfacet
facet normal 1.0 -0.0 -0.0
  outer loop
    vertex 50.8 95.25 30.162499999999994
    vertex 50.8 25.66215791402353 39.205890487926254
    vertex 50.8 25.876525228490177 38.62239092256762
  endloop
endfacet
facet normal 1.0 -0.0 -0.0
  outer loop
    vertex 50.8 95.25 30.162499999999994
    vertex 50.8 25.876525228490177 38.62239092256762
    vertex 50.8 25.932567353521886 38.00329127912782
  endloop
endfacet
facet normal 1.0 -0.0 -0.0
  outer loop
    vertex 50.8 95.25 30.162499999999994
    vertex 50.8 25.932567353521886 38.00329127912782
    vertex 50.8 95.25 0.0
  endloop
endfacet
facet normal 0.0 -0.9862856015372314 -0.16504760586067768
  outer loop
    vertex 50.8 0.0 58.7375
    vertex 0.0 1.328281959583768 50.8
    vertex 50.8 1.328281959583768 50.8
  endloop
endfacet
facet normal 0.0 -0.9862856015372314 -0.16504760586067768
  outer loop
    vertex 0.0 1.328281959583768 50.8
    vertex 50.8 0.0 58.7375
    vertex 0.0 0.0 58.7375
  endloop
endfacet
facet normal 0.0 -1.0 0.0
  outer loop
    vertex 50.8 1.328281959583768 50.8
    vertex 0.0 1.328281959583768 0.0
    vertex 50.8 1.328281959583768 0.0
  endloop
endfacet
facet normal 0.0 -1.0 0.0
  outer loop
    vertex 0.0 1.328281959583768 0.0
    vertex 50.8 1.328281959583768 50.8
    vertex 0.0 1.328281959583768 50.8
  endloop
endfacet
facet normal -0.0 1.0 -0.0
  outer loop
    vertex 46.037499999999994 95.25 30.162499999999994
    vertex 50.8 95.25 0.0
    vertex 46.037499999999994 95.25 0.0
  endloop
endfacet
facet normal -0.0 1.0 -0.0
  outer loop
    vertex 50.8 95.25 0.0
    vertex 46.037499999999994 95.25 30.162499999999994
    vertex 50.8 95.25 30.162499999999994
  endloop
endfacet
facet normal -1.0 0.0 0.0
  outer loop
    vertex 0.0 95.25 30.162499999999994
    vertex 0.0 1.328281959583768 50.8
    vertex 0.0 0.0 58.7375
  endloop
endfacet
facet normal -1.0 0.0 0.0
  outer loop
    vertex 0.0 1.328281959583768 50.8
    vertex 0.0 95.25 30.162499999999994
    vertex 0.0 23.64999068045594 40.47928539393812
  endloop
endfacet
facet normal -1.0 0.0 0.0
  outer loop
    vertex 0.0 1.328281959583768 50.8
    vertex 0.0 23.64999068045594 40.47928539393812
    vertex 0.0 23.03089103701615 40.42324326890641
  endloop
endfacet
facet normal -1.0 0.0 0.0
  outer loop
    vertex 0.0 1.328281959583768 50.8
    vertex 0.0 23.03089103701615 40.42324326890641
    vertex 0.0 22.447391471657507 40.20887595443977
  endloop
endfacet
facet normal -1.0 0.0 0.0
  outer loop
    vertex 0.0 1.328281959583768 50.8
    vertex 0.0 22.447391471657507 40.20887595443977
    vertex 0.0 21.93925651548062 39.850792228760355
  endloop
endfacet
facet normal -1.0 0.0 0.0
  outer loop
    vertex 0.0 1.328281959583768 50.8
    vertex 0.0 21.93925651548062 39.850792228760355
    vertex 0.0 21.541114726016172 39.37339490601185
  endloop
endfacet
facet normal -1.0 0.0 0.0
  outer loop
    vertex 0.0 1.328281959583768 50.8
    vertex 0.0 21.541114726016172 39.37339490601185
    vertex 0.0 1.328281959583768 0.0
  endloop
endfacet
facet normal -1.0 0.0 0.0
  outer loop
    vertex 0.0 1.328281959583768 0.0
    vertex 0.0 21.541114726016172 39.37339490601185
    vertex 0.0 21.2800988082558 38.80921782480326
  endloop
endfacet
facet normal -1.0 0.0 0.0
  outer loop
    vertex 0.0 1.328281959583768 0.0
    vertex 0.0 21.2800988082558 38.80921782480326
    vertex 0.0 21.173996565645645 38.196708720872174
  endloop
endfacet
facet normal -1.0 0.0 0.0
  outer loop
    vertex 0.0 23.64999068045594 40.47928539393812
    vertex 0.0 95.25 30.162499999999994
    vertex 0.0 24.262499784387018 40.37318315132796
  endloop
endfacet
facet normal -1.0 0.0 0.0
  outer loop
    vertex 0.0 24.262499784387018 40.37318315132796
    vertex 0.0 95.25 30.162499999999994
    vertex 0.0 24.826676865595637 40.11216723356758
  endloop
endfacet
facet normal -1.0 0.0 0.0
  outer loop
    vertex 0.0 24.826676865595637 40.11216723356758
    vertex 0.0 95.25 30.162499999999994
    vertex 0.0 25.304074188344114 39.71402544410315
  endloop
endfacet
facet normal -1.0 0.0 0.0
  outer loop
    vertex 0.0 25.304074188344114 39.71402544410315
    vertex 0.0 95.25 30.162499999999994
    vertex 0.0 25.66215791402353 39.205890487926254
  endloop
endfacet
facet normal -1.0 0.0 0.0
  outer loop
    vertex 0.0 25.66215791402353 39.205890487926254
    vertex 0.0 95.25 30.162499999999994
    vertex 0.0 25.876525228490173 38.62239092256763
  endloop
endfacet
facet normal -1.0 0.0 0.0
  outer loop
    vertex 0.0 25.876525228490173 38.62239092256763
    vertex 0.0 95.25 30.162499999999994
    vertex 0.0 25.93256735352188 38.003291279127836
  endloop
endfacet
facet normal -1.0 0.0 0.0
  outer loop
    vertex 0.0 1.328281959583768 0.0
    vertex 0.0 22.279887053571912 36.08783276643241
    vertex 0.0 95.25 0.0
  endloop
endfacet
facet normal -1.0 0.0 0.0
  outer loop
    vertex 0.0 22.279887053571912 36.08783276643241
    vertex 0.0 1.328281959583768 0.0
    vertex 0.0 21.80248973082343 36.48597455589684
  endloop
endfacet
facet normal -1.0 0.0 0.0
  outer loop
    vertex 0.0 21.80248973082343 36.48597455589684
    vertex 0.0 1.328281959583768 0.0
    vertex 0.0 21.444406005144 36.99410951207374
  endloop
endfacet
facet normal -1.0 0.0 0.0
  outer loop
    vertex 0.0 21.444406005144 36.99410951207374
    vertex 0.0 1.328281959583768 0.0
    vertex 0.0 21.230038690677354 37.57760907743239
  endloop
endfacet
facet normal -1.0 0.0 0.0
  outer loop
    vertex 0.0 21.230038690677354 37.57760907743239
    vertex 0.0 1.328281959583768 0.0
    vertex 0.0 21.182750830462634 38.1
  endloop
endfacet
facet normal -1.0 0.0 0.0
  outer loop
    vertex 0.0 21.182750830462634 38.1
    vertex 0.0 1.328281959583768 0.0
    vertex 0.0 21.173996565645645 38.196708720872174
  endloop
endfacet
facet normal -1.0 0.0 0.0
  outer loop
    vertex 0.0 95.25 0.0
    vertex 0.0 22.279887053571912 36.08783276643241
    vertex 0.0 22.844064134780513 35.82681684867204
  endloop
endfacet
facet normal -1.0 0.0 0.0
  outer loop
    vertex 0.0 95.25 0.0
    vertex 0.0 22.844064134780513 35.82681684867204
    vertex 0.0 23.45657323871159 35.720714606061875
  endloop
endfacet
facet normal -1.0 0.0 0.0
  outer loop
    vertex 0.0 95.25 0.0
    vertex 0.0 23.45657323871159 35.720714606061875
    vertex 0.0 24.07567288215139 35.776756731093585
  endloop
endfacet
facet normal -1.0 0.0 0.0
  outer loop
    vertex 0.0 95.25 0.0
    vertex 0.0 24.07567288215139 35.776756731093585
    vertex 0.0 24.659172447510024 35.991124045560234
  endloop
endfacet
facet normal -1.0 0.0 0.0
  outer loop
    vertex 0.0 95.25 0.0
    vertex 0.0 24.659172447510024 35.991124045560234
    vertex 0.0 25.167307403686916 36.349207771239655
  endloop
endfacet
facet normal -1.0 0.0 0.0
  outer loop
    vertex 0.0 95.25 0.0
    vertex 0.0 25.167307403686916 36.349207771239655
    vertex 0.0 25.56544919315136 36.82660509398814
  endloop
endfacet
facet normal -1.0 0.0 0.0
  outer loop
    vertex 0.0 95.25 0.0
    vertex 0.0 25.56544919315136 36.82660509398814
    vertex 0.0 25.82646511091173 37.39078217519675
  endloop
endfacet
facet normal -1.0 0.0 0.0
  outer loop
    vertex 0.0 95.25 0.0
    vertex 0.0 25.82646511091173 37.39078217519675
    vertex 0.0 25.93256735352188 38.003291279127836
  endloop
endfacet
facet normal -1.0 0.0 0.0
  outer loop
    vertex 0.0 95.25 0.0
    vertex 0.0 25.93256735352188 38.003291279127836
    vertex 0.0 95.25 30.162499999999994
  endloop
endfacet
facet normal 2.427290425065063e-17 0.2873478855663454 0.9578262852211515
  outer loop
    vertex 0.0 0.0 58.7375
    vertex 35.3503693429844 17.462499999999995 53.49874999999999
    vertex 0.0 95.25 30.162499999999994
  endloop
endfacet
facet normal 2.427290425065063e-17 0.2873478855663454 0.9578262852211515
  outer loop
    vertex 35.3503693429844 17.462499999999995 53.49874999999999
    vertex 0.0 0.0 58.7375
    vertex 35.8549359697327 16.804935969732703 53.69601920908018
  endloop
endfacet
facet normal 2.427290425065063e-17 0.2873478855663454 0.9578262852211515
  outer loop
    vertex 35.8549359697327 16.804935969732703 53.69601920908018
    vertex 0.0 0.0 58.7375
    vertex 50.8 0.0 58.7375
  endloop
endfacet
facet normal 2.427290425065063e-17 0.2873478855663454 0.9578262852211515
  outer loop
    vertex 0.0 95.25 30.162499999999994
    vertex 35.3503693429844 17.462499999999995 53.49874999999999
    vertex 35.03318550153221 18.2282495317995 53.26902514046014
  endloop
endfacet
facet normal 2.427290425065063e-17 0.2873478855663454 0.9578262852211515
  outer loop
    vertex 0.0 95.25 30.162499999999994
    vertex 35.03318550153221 18.2282495317995 53.26902514046014
    vertex 4.994504685686088 92.07499999999999 31.114999999999995
  endloop
endfacet
facet normal 2.427290425065063e-17 0.2873478855663454 0.9578262852211515
  outer loop
    vertex 4.994504685686088 92.07499999999999 31.114999999999995
    vertex 35.03318550153221 18.2282495317995 53.26902514046014
    vertex 8.169504685686087 92.07499999999999 31.114999999999995
  endloop
endfacet
facet normal 2.427290425065063e-17 0.2873478855663454 0.9578262852211515
  outer loop
    vertex 8.169504685686087 92.07499999999999 31.114999999999995
    vertex 35.03318550153221 18.2282495317995 53.26902514046014
    vertex 11.164682851933433 92.07499999999999 31.114999999999995
  endloop
endfacet
facet normal 2.427290425065063e-17 0.2873478855663454 0.9578262852211515
  outer loop
    vertex 8.169504685686087 92.07499999999999 31.114999999999995
    vertex 11.164682851933433 92.07499999999999 31.114999999999995
    vertex 11.112499999999999 95.25 30.162499999999994
  endloop
endfacet
facet normal 2.427290425065063e-17 0.2873478855663454 0.9578262852211515
  outer loop
    vertex 11.164682851933433 92.07499999999999 31.114999999999995
    vertex 35.03318550153221 18.2282495317995 53.26902514046014
    vertex 14.339682851933434 92.07499999999999 31.114999999999995
  endloop
endfacet
facet normal 2.427290425065063e-17 0.2873478855663454 0.9578262852211515
  outer loop
    vertex 14.339682851933434 92.07499999999999 31.114999999999995
    vertex 35.03318550153221 18.2282495317995 53.26902514046014
    vertex 17.514682851933433 92.07499999999999 31.114999999999995
  endloop
endfacet
facet normal 2.427290425065063e-17 0.2873478855663454 0.9578262852211515
  outer loop
    vertex 14.339682851933434 92.07499999999999 31.114999999999995
    vertex 17.514682851933433 92.07499999999999 31.114999999999995
    vertex 17.4625 95.25 30.162499999999994
  endloop
endfacet
facet normal 2.427290425065063e-17 0.2873478855663454 0.9578262852211515
  outer loop
    vertex 17.514682851933433 92.07499999999999 31.114999999999995
    vertex 35.03318550153221 18.2282495317995 53.26902514046014
    vertex 20.689682851933433 92.07499999999999 31.114999999999995
  endloop
endfacet
facet normal 2.427290425065063e-17 0.2873478855663454 0.9578262852211515
  outer loop
    vertex 20.689682851933433 92.07499999999999 31.114999999999995
    vertex 35.03318550153221 18.2282495317995 53.26902514046014
    vertex 20.689682851933433 95.25 30.162499999999994
  endloop
endfacet
facet normal 2.427290425065063e-17 0.2873478855663454 0.9578262852211515
  outer loop
    vertex 20.689682851933433 95.25 30.162499999999994
    vertex 35.03318550153221 18.2282495317995 53.26902514046014
    vertex 23.8125 92.07499999999999 31.114999999999995
  endloop
endfacet
facet normal 2.427290425065063e-17 0.2873478855663454 0.9578262852211515
  outer loop
    vertex 23.8125 92.07499999999999 31.114999999999995
    vertex 35.03318550153221 18.2282495317995 53.26902514046014
    vertex 34.925000000000004 19.05 53.02249999999999
  endloop
endfacet
facet normal 2.427290425065063e-17 0.2873478855663454 0.9578262852211515
  outer loop
    vertex 23.8125 92.07499999999999 31.114999999999995
    vertex 34.925000000000004 19.05 53.02249999999999
    vertex 26.987499999999997 92.07499999999999 31.114999999999995
  endloop
endfacet
facet normal 2.427290425065063e-17 0.2873478855663454 0.9578262852211515
  outer loop
    vertex 26.987499999999997 92.07499999999999 31.114999999999995
    vertex 34.925000000000004 19.05 53.02249999999999
    vertex 26.987499999999997 95.25 30.162499999999994
  endloop
endfacet
facet normal 2.427290425065063e-17 0.2873478855663454 0.9578262852211515
  outer loop
    vertex 26.987499999999997 95.25 30.162499999999994
    vertex 34.925000000000004 19.05 53.02249999999999
    vertex 30.162499999999998 92.07499999999999 31.114999999999995
  endloop
endfacet
facet normal 2.427290425065063e-17 0.2873478855663454 0.9578262852211515
  outer loop
    vertex 30.162499999999998 92.07499999999999 31.114999999999995
    vertex 34.925000000000004 19.05 53.02249999999999
    vertex 33.3375 92.07499999999999 31.114999999999995
  endloop
endfacet
facet normal 2.427290425065063e-17 0.2873478855663454 0.9578262852211515
  outer loop
    vertex 33.3375 92.07499999999999 31.114999999999995
    vertex 34.925000000000004 19.05 53.02249999999999
    vertex 33.3375 95.25 30.162499999999994
  endloop
endfacet
facet normal 2.427290425065063e-17 0.2873478855663454 0.9578262852211515
  outer loop
    vertex 35.8549359697327 16.804935969732703 53.69601920908018
    vertex 50.8 0.0 58.7375
    vertex 36.5125 16.300369342984403 53.84738919710467
  endloop
endfacet
facet normal 2.427290425065063e-17 0.2873478855663454 0.9578262852211515
  outer loop
    vertex 36.5125 16.300369342984403 53.84738919710467
    vertex 50.8 0.0 58.7375
    vertex 37.278249531799496 15.983185501532203 53.942544349540334
  endloop
endfacet
facet normal 2.427290425065063e-17 0.2873478855663454 0.9578262852211515
  outer loop
    vertex 37.278249531799496 15.983185501532203 53.942544349540334
    vertex 50.8 0.0 58.7375
    vertex 38.09999999999999 15.874999999999996 53.974999999999994
  endloop
endfacet
facet normal 2.427290425065063e-17 0.2873478855663454 0.9578262852211515
  outer loop
    vertex 38.09999999999999 15.874999999999996 53.974999999999994
    vertex 50.8 0.0 58.7375
    vertex 38.9217504682005 15.983185501532203 53.942544349540334
  endloop
endfacet
facet normal 2.427290425065063e-17 0.2873478855663454 0.9578262852211515
  outer loop
    vertex 38.9217504682005 15.983185501532203 53.942544349540334
    vertex 50.8 0.0 58.7375
    vertex 39.68750000000001 16.300369342984414 53.847389197104654
  endloop
endfacet
facet normal 2.427290425065063e-17 0.2873478855663454 0.9578262852211515
  outer loop
    vertex 39.68750000000001 16.300369342984414 53.847389197104654
    vertex 50.8 0.0 58.7375
    vertex 40.34506403026728 16.804935969732707 53.69601920908017
  endloop
endfacet
facet normal 2.427290425065063e-17 0.2873478855663454 0.9578262852211515
  outer loop
    vertex 40.34506403026728 16.804935969732707 53.69601920908017
    vertex 50.8 0.0 58.7375
    vertex 40.84963065701559 17.462499999999995 53.49874999999999
  endloop
endfacet
facet normal 2.427290425065063e-17 0.2873478855663454 0.9578262852211515
  outer loop
    vertex 40.84963065701559 17.462499999999995 53.49874999999999
    vertex 50.8 0.0 58.7375
    vertex 41.16681449846779 18.2282495317995 53.26902514046014
  endloop
endfacet
facet normal 2.427290425065063e-17 0.2873478855663454 0.9578262852211515
  outer loop
    vertex 41.16681449846779 18.2282495317995 53.26902514046014
    vertex 50.8 0.0 58.7375
    vertex 41.275 19.05 53.02249999999999
  endloop
endfacet
facet normal 2.427290425065063e-17 0.2873478855663454 0.9578262852211515
  outer loop
    vertex 41.275 19.05 53.02249999999999
    vertex 50.8 0.0 58.7375
    vertex 42.8625 92.07499999999999 31.114999999999995
  endloop
endfacet
facet normal 2.427290425065063e-17 0.2873478855663454 0.9578262852211515
  outer loop
    vertex 42.8625 92.07499999999999 31.114999999999995
    vertex 50.8 0.0 58.7375
    vertex 46.037499999999994 92.07499999999999 31.114999999999995
  endloop
endfacet
facet normal 2.427290425065063e-17 0.2873478855663454 0.9578262852211515
  outer loop
    vertex 46.037499999999994 92.07499999999999 31.114999999999995
    vertex 50.8 0.0 58.7375
    vertex 46.037499999999994 95.25 30.162499999999994
  endloop
endfacet
facet normal 2.427290425065063e-17 0.2873478855663454 0.9578262852211515
  outer loop
    vertex 46.037499999999994 95.25 30.162499999999994
    vertex 50.8 0.0 58.7375
    vertex 50.8 95.25 30.162499999999994
  endloop
endfacet
facet normal 2.427290425065063e-17 0.2873478855663454 0.9578262852211515
  outer loop
    vertex 37.27824953179948 22.116814498467782 52.102455650459646
    vertex 36.512499999999996 92.07499999999999 31.114999999999995
    vertex 36.51249999999999 21.799630657015584 52.1976108028953
  endloop
endfacet
facet normal 2.427290425065063e-17 0.2873478855663454 0.9578262852211515
  outer loop
    vertex 36.512499999999996 92.07499999999999 31.114999999999995
    vertex 37.27824953179948 22.116814498467782 52.102455650459646
    vertex 39.6875 92.07499999999999 31.114999999999995
  endloop
endfacet
facet normal 2.427290425065063e-17 0.2873478855663454 0.9578262852211515
  outer loop
    vertex 39.6875 92.07499999999999 31.114999999999995
    vertex 37.27824953179948 22.116814498467782 52.102455650459646
    vertex 38.099999999999994 22.224999999999994 52.06999999999998
  endloop
endfacet
facet normal 2.427290425065063e-17 0.2873478855663454 0.9578262852211515
  outer loop
    vertex 39.6875 92.07499999999999 31.114999999999995
    vertex 38.099999999999994 22.224999999999994 52.06999999999998
    vertex 38.92175046820051 22.11681449846779 52.102455650459646
  endloop
endfacet
facet normal 2.427290425065063e-17 0.2873478855663454 0.9578262852211515
  outer loop
    vertex 39.6875 92.07499999999999 31.114999999999995
    vertex 38.92175046820051 22.11681449846779 52.102455650459646
    vertex 39.68749999999999 21.799630657015598 52.1976108028953
  endloop
endfacet
facet normal 2.427290425065063e-17 0.2873478855663454 0.9578262852211515
  outer loop
    vertex 39.6875 92.07499999999999 31.114999999999995
    vertex 39.68749999999999 21.799630657015598 52.1976108028953
    vertex 40.34506403026728 21.295064030267287 52.348980790919796
  endloop
endfacet
facet normal 2.427290425065063e-17 0.2873478855663454 0.9578262852211515
  outer loop
    vertex 39.6875 92.07499999999999 31.114999999999995
    vertex 40.34506403026728 21.295064030267287 52.348980790919796
    vertex 39.6875 95.25 30.162499999999994
  endloop
endfacet
facet normal 2.427290425065063e-17 0.2873478855663454 0.9578262852211515
  outer loop
    vertex 39.6875 95.25 30.162499999999994
    vertex 40.34506403026728 21.295064030267287 52.348980790919796
    vertex 42.8625 95.25 30.162499999999994
  endloop
endfacet
facet normal 2.427290425065063e-17 0.2873478855663454 0.9578262852211515
  outer loop
    vertex 42.8625 95.25 30.162499999999994
    vertex 40.34506403026728 21.295064030267287 52.348980790919796
    vertex 40.84963065701559 20.637500000000006 52.546249999999986
  endloop
endfacet
facet normal 2.427290425065063e-17 0.2873478855663454 0.9578262852211515
  outer loop
    vertex 42.8625 95.25 30.162499999999994
    vertex 40.84963065701559 20.637500000000006 52.546249999999986
    vertex 41.166814498467794 19.871750468200506 52.77597485953983
  endloop
endfacet
facet normal 2.427290425065063e-17 0.2873478855663454 0.9578262852211515
  outer loop
    vertex 42.8625 95.25 30.162499999999994
    vertex 41.166814498467794 19.871750468200506 52.77597485953983
    vertex 41.275 19.05 53.02249999999999
  endloop
endfacet
facet normal 2.427290425065063e-17 0.2873478855663454 0.9578262852211515
  outer loop
    vertex 42.8625 95.25 30.162499999999994
    vertex 41.275 19.05 53.02249999999999
    vertex 42.8625 92.07499999999999 31.114999999999995
  endloop
endfacet
facet normal 2.427290425065063e-17 0.2873478855663454 0.9578262852211515
  outer loop
    vertex 34.925000000000004 19.05 53.02249999999999
    vertex 36.512499999999996 95.25 30.162499999999994
    vertex 33.3375 95.25 30.162499999999994
  endloop
endfacet
facet normal 2.427290425065063e-17 0.2873478855663454 0.9578262852211515
  outer loop
    vertex 36.512499999999996 95.25 30.162499999999994
    vertex 34.925000000000004 19.05 53.02249999999999
    vertex 35.03318550153221 19.871750468200496 52.77597485953984
  endloop
endfacet
facet normal 2.427290425065063e-17 0.2873478855663454 0.9578262852211515
  outer loop
    vertex 36.512499999999996 95.25 30.162499999999994
    vertex 35.03318550153221 19.871750468200496 52.77597485953984
    vertex 35.3503693429844 20.637499999999992 52.546249999999986
  endloop
endfacet
facet normal 2.427290425065063e-17 0.2873478855663454 0.9578262852211515
  outer loop
    vertex 36.512499999999996 95.25 30.162499999999994
    vertex 35.3503693429844 20.637499999999992 52.546249999999986
    vertex 35.8549359697327 21.29506403026728 52.348980790919796
  endloop
endfacet
facet normal 2.427290425065063e-17 0.2873478855663454 0.9578262852211515
  outer loop
    vertex 36.512499999999996 95.25 30.162499999999994
    vertex 35.8549359697327 21.29506403026728 52.348980790919796
    vertex 36.51249999999999 21.799630657015584 52.1976108028953
  endloop
endfacet
facet normal 2.427290425065063e-17 0.2873478855663454 0.9578262852211515
  outer loop
    vertex 36.512499999999996 95.25 30.162499999999994
    vertex 36.51249999999999 21.799630657015584 52.1976108028953
    vertex 36.512499999999996 92.07499999999999 31.114999999999995
  endloop
endfacet
facet normal 2.427290425065063e-17 0.2873478855663454 0.9578262852211515
  outer loop
    vertex 17.4625 95.25 30.162499999999994
    vertex 14.2875 95.25 30.162499999999994
    vertex 14.339682851933434 92.07499999999999 31.114999999999995
  endloop
endfacet
facet normal 2.427290425065063e-17 0.2873478855663454 0.9578262852211515
  outer loop
    vertex 11.112499999999999 95.25 30.162499999999994
    vertex 8.117321833752653 95.25 30.162499999999994
    vertex 8.169504685686087 92.07499999999999 31.114999999999995
  endloop
endfacet
facet normal 2.427290425065063e-17 0.2873478855663454 0.9578262852211515
  outer loop
    vertex 30.162499999999998 95.25 30.162499999999994
    vertex 26.987499999999997 95.25 30.162499999999994
    vertex 30.162499999999998 92.07499999999999 31.114999999999995
  endloop
endfacet
facet normal 2.427290425065063e-17 0.2873478855663454 0.9578262852211515
  outer loop
    vertex 23.8125 95.25 30.162499999999994
    vertex 20.689682851933433 95.25 30.162499999999994
    vertex 23.8125 92.07499999999999 31.114999999999995
  endloop
endfacet
facet normal 2.427290425065063e-17 0.2873478855663454 0.9578262852211515
  outer loop
    vertex 4.994504685686088 95.25 30.162499999999994
    vertex 0.0 95.25 30.162499999999994
    vertex 4.994504685686088 92.07499999999999 31.114999999999995
  endloop
endfacet
facet normal 0.0 0.0 -1.0
  outer loop
    vertex 11.112499999999999 95.25 0.0
    vertex 8.169504685686087 92.07499999999999 0.0
    vertex 8.117321833752653 95.25 0.0
  endloop
endfacet
facet normal 0.0 0.0 -1.0
  outer loop
    vertex 17.4625 95.25 0.0
    vertex 14.339682851933434 92.07499999999999 0.0
    vertex 14.2875 95.25 0.0
  endloop
endfacet
facet normal 0.0 0.0 -1.0
  outer loop
    vertex 23.8125 95.25 0.0
    vertex 20.689682851933433 92.07499999999999 0.0
    vertex 20.689682851933433 95.25 0.0
  endloop
endfacet
facet normal 0.0 0.0 -1.0
  outer loop
    vertex 30.162499999999998 95.25 0.0
    vertex 26.987499999999997 92.07499999999999 0.0
    vertex 26.987499999999997 95.25 0.0
  endloop
endfacet
facet normal 0.0 0.0 -1.0
  outer loop
    vertex 36.512499999999996 95.25 0.0
    vertex 33.3375 92.07499999999999 0.0
    vertex 33.3375 95.25 0.0
  endloop
endfacet
facet normal 0.0 0.0 -1.0
  outer loop
    vertex 42.8625 95.25 0.0
    vertex 39.6875 92.07499999999999 0.0
    vertex 39.6875 95.25 0.0
  endloop
endfacet
facet normal 0.0 0.0 -1.0
  outer loop
    vertex 50.8 95.25 0.0
    vertex 46.037499999999994 92.07499999999999 0.0
    vertex 46.037499999999994 95.25 0.0
  endloop
endfacet
facet normal 0.0 0.0 -1.0
  outer loop
    vertex 4.994504685686088 95.25 0.0
    vertex 0.0 1.328281959583768 0.0
    vertex 0.0 95.25 0.0
  endloop
endfacet
facet normal 0.0 0.0 -1.0
  outer loop
    vertex 0.0 1.328281959583768 0.0
    vertex 4.994504685686088 95.25 0.0
    vertex 4.994504685686088 92.07499999999999 0.0
  endloop
endfacet
facet normal 0.0 0.0 -1.0
  outer loop
    vertex 0.0 1.328281959583768 0.0
    vertex 4.994504685686088 92.07499999999999 0.0
    vertex 50.8 1.328281959583768 0.0
  endloop
endfacet
facet normal 0.0 0.0 -1.0
  outer loop
    vertex 50.8 1.328281959583768 0.0
    vertex 4.994504685686088 92.07499999999999 0.0
    vertex 8.169504685686087 92.07499999999999 0.0
  endloop
endfacet
facet normal 0.0 0.0 -1.0
  outer loop
    vertex 50.8 1.328281959583768 0.0
    vertex 8.169504685686087 92.07499999999999 0.0
    vertex 11.164682851933433 92.07499999999999 0.0
  endloop
endfacet
facet normal 0.0 0.0 -1.0
  outer loop
    vertex 11.164682851933433 92.07499999999999 0.0
    vertex 8.169504685686087 92.07499999999999 0.0
    vertex 11.112499999999999 95.25 0.0
  endloop
endfacet
facet normal 0.0 0.0 -1.0
  outer loop
    vertex 50.8 1.328281959583768 0.0
    vertex 11.164682851933433 92.07499999999999 0.0
    vertex 14.339682851933434 92.07499999999999 0.0
  endloop
endfacet
facet normal 0.0 0.0 -1.0
  outer loop
    vertex 50.8 1.328281959583768 0.0
    vertex 14.339682851933434 92.07499999999999 0.0
    vertex 17.514682851933433 92.07499999999999 0.0
  endloop
endfacet
facet normal 0.0 0.0 -1.0
  outer loop
    vertex 17.514682851933433 92.07499999999999 0.0
    vertex 14.339682851933434 92.07499999999999 0.0
    vertex 17.4625 95.25 0.0
  endloop
endfacet
facet normal 0.0 0.0 -1.0
  outer loop
    vertex 50.8 1.328281959583768 0.0
    vertex 17.514682851933433 92.07499999999999 0.0
    vertex 20.689682851933433 92.07499999999999 0.0
  endloop
endfacet
facet normal 0.0 0.0 -1.0
  outer loop
    vertex 50.8 1.328281959583768 0.0
    vertex 20.689682851933433 92.07499999999999 0.0
    vertex 23.8125 92.07499999999999 0.0
  endloop
endfacet
facet normal 0.0 0.0 -1.0
  outer loop
    vertex 23.8125 92.07499999999999 0.0
    vertex 20.689682851933433 92.07499999999999 0.0
    vertex 23.8125 95.25 0.0
  endloop
endfacet
facet normal 0.0 0.0 -1.0
  outer loop
    vertex 50.8 1.328281959583768 0.0
    vertex 23.8125 92.07499999999999 0.0
    vertex 26.987499999999997 92.07499999999999 0.0
  endloop
endfacet
facet normal 0.0 0.0 -1.0
  outer loop
    vertex 50.8 1.328281959583768 0.0
    vertex 26.987499999999997 92.07499999999999 0.0
    vertex 30.162499999999998 92.07499999999999 0.0
  endloop
endfacet
facet normal 0.0 0.0 -1.0
  outer loop
    vertex 30.162499999999998 92.07499999999999 0.0
    vertex 26.987499999999997 92.07499999999999 0.0
    vertex 30.162499999999998 95.25 0.0
  endloop
endfacet
facet normal 0.0 0.0 -1.0
  outer loop
    vertex 50.8 1.328281959583768 0.0
    vertex 30.162499999999998 92.07499999999999 0.0
    vertex 33.3375 92.07499999999999 0.0
  endloop
endfacet
facet normal 0.0 0.0 -1.0
  outer loop
    vertex 50.8 1.328281959583768 0.0
    vertex 33.3375 92.07499999999999 0.0
    vertex 36.512499999999996 92.07499999999999 0.0
  endloop
endfacet
facet normal 0.0 0.0 -1.0
  outer loop
    vertex 36.512499999999996 92.07499999999999 0.0
    vertex 33.3375 92.07499999999999 0.0
    vertex 36.512499999999996 95.25 0.0
  endloop
endfacet
facet normal 0.0 0.0 -1.0
  outer loop
    vertex 50.8 1.328281959583768 0.0
    vertex 36.512499999999996 92.07499999999999 0.0
    vertex 39.6875 92.07499999999999 0.0
  endloop
endfacet
facet normal 0.0 0.0 -1.0
  outer loop
    vertex 50.8 1.328281959583768 0.0
    vertex 39.6875 92.07499999999999 0.0
    vertex 42.8625 92.07499999999999 0.0
  endloop
endfacet
facet normal 0.0 0.0 -1.0
  outer loop
    vertex 42.8625 92.07499999999999 0.0
    vertex 39.6875 92.07499999999999 0.0
    vertex 42.8625 95.25 0.0
  endloop
endfacet
facet normal 0.0 0.0 -1.0
  outer loop
    vertex 50.8 1.328281959583768 0.0
    vertex 42.8625 92.07499999999999 0.0
    vertex 46.037499999999994 92.07499999999999 0.0
  endloop
endfacet
facet normal 0.0 0.0 -1.0
  outer loop
    vertex 50.8 1.328281959583768 0.0
    vertex 46.037499999999994 92.07499999999999 0.0
    vertex 50.8 95.25 0.0
  endloop
endfacet
facet normal -0.0 1.0 -0.0
  outer loop
    vertex 39.6875 95.25 30.162499999999994
    vertex 42.8625 95.25 0.0
    vertex 39.6875 95.25 0.0
  endloop
endfacet
facet normal -0.0 1.0 -0.0
  outer loop
    vertex 42.8625 95.25 0.0
    vertex 39.6875 95.25 30.162499999999994
    vertex 42.8625 95.25 30.162499999999994
  endloop
endfacet
facet normal -0.0 1.0 -0.0
  outer loop
    vertex 33.3375 95.25 30.162499999999994
    vertex 36.512499999999996 95.25 0.0
    vertex 33.3375 95.25 0.0
  endloop
endfacet
facet normal -0.0 1.0 -0.0
  outer loop
    vertex 36.512499999999996 95.25 0.0
    vertex 33.3375 95.25 30.162499999999994
    vertex 36.512499999999996 95.25 30.162499999999994
  endloop
endfacet
facet normal -0.0 1.0 -0.0
  outer loop
    vertex 26.987499999999997 95.25 30.162499999999994
    vertex 30.162499999999998 95.25 0.0
    vertex 26.987499999999997 95.25 0.0
  endloop
endfacet
facet normal -0.0 1.0 -0.0
  outer loop
    vertex 30.162499999999998 95.25 0.0
    vertex 26.987499999999997 95.25 30.162499999999994
    vertex 30.162499999999998 95.25 30.162499999999994
  endloop
endfacet
facet normal -0.0 1.0 -0.0
  outer loop
    vertex 20.689682851933433 95.25 30.162499999999994
    vertex 23.8125 95.25 0.0
    vertex 20.689682851933433 95.25 0.0
  endloop
endfacet
facet normal -0.0 1.0 -0.0
  outer loop
    vertex 23.8125 95.25 0.0
    vertex 20.689682851933433 95.25 30.162499999999994
    vertex 23.8125 95.25 30.162499999999994
  endloop
endfacet
facet normal -0.0 1.0 -0.0
  outer loop
    vertex 14.2875 95.25 30.162499999999994
    vertex 17.4625 95.25 0.0
    vertex 14.2875 95.25 0.0
  endloop
endfacet
facet normal -0.0 1.0 -0.0
  outer loop
    vertex 17.4625 95.25 0.0
    vertex 14.2875 95.25 30.162499999999994
    vertex 17.4625 95.25 30.162499999999994
  endloop
endfacet
facet normal -0.0 1.0 -0.0
  outer loop
    vertex 8.117321833752653 95.25 30.162499999999994
    vertex 11.112499999999999 95.25 0.0
    vertex 8.117321833752653 95.25 0.0
  endloop
endfacet
facet normal -0.0 1.0 -0.0
  outer loop
    vertex 11.112499999999999 95.25 0.0
    vertex 8.117321833752653 95.25 30.162499999999994
    vertex 11.112499999999999 95.25 30.162499999999994
  endloop
endfacet
facet normal -0.0 1.0 -0.0
  outer loop
    vertex 0.0 95.25 30.162499999999994
    vertex 4.994504685686088 95.25 0.0
    vertex 0.0 95.25 0.0
  endloop
endfacet
facet normal -0.0 1.0 -0.0
  outer loop
    vertex 4.994504685686088 95.25 0.0
    vertex 0.0 95.25 30.162499999999994
    vertex 4.994504685686088 95.25 30.162499999999994
  endloop
endfacet
facet normal -1.0 0.0 0.0
  outer loop
    vertex 46.037499999999994 95.25 30.162499999999994
    vertex 46.037499999999994 92.07499999999999 0.0
    vertex 46.037499999999994 92.07499999999999 31.114999999999995
  endloop
endfacet
facet normal -1.0 0.0 0.0
  outer loop
    vertex 46.037499999999994 92.07499999999999 0.0
    vertex 46.037499999999994 95.25 30.162499999999994
    vertex 46.037499999999994 95.25 0.0
  endloop
endfacet
facet normal -0.0 1.0 -0.0
  outer loop
    vertex 42.8625 92.07499999999999 31.114999999999995
    vertex 46.037499999999994 92.07499999999999 0.0
    vertex 42.8625 92.07499999999999 0.0
  endloop
endfacet
facet normal -0.0 1.0 -0.0
  outer loop
    vertex 46.037499999999994 92.07499999999999 0.0
    vertex 42.8625 92.07499999999999 31.114999999999995
    vertex 46.037499999999994 92.07499999999999 31.114999999999995
  endloop
endfacet
facet normal 1.0 -0.0 -0.0
  outer loop
    vertex 42.8625 95.25 0.0
    vertex 42.8625 92.07499999999999 31.114999999999995
    vertex 42.8625 92.07499999999999 0.0
  endloop
endfacet
facet normal 1.0 -0.0 -0.0
  outer loop
    vertex 42.8625 92.07499999999999 31.114999999999995
    vertex 42.8625 95.25 0.0
    vertex 42.8625 95.25 30.162499999999994
  endloop
endfacet
facet normal -0.0 1.0 -0.0
  outer loop
    vertex 36.512499999999996 92.07499999999999 31.114999999999995
    vertex 39.6875 92.07499999999999 0.0
    vertex 36.512499999999996 92.07499999999999 0.0
  endloop
endfacet
facet normal -0.0 1.0 -0.0
  outer loop
    vertex 39.6875 92.07499999999999 0.0
    vertex 36.512499999999996 92.07499999999999 31.114999999999995
    vertex 39.6875 92.07499999999999 31.114999999999995
  endloop
endfacet
facet normal 1.0 -0.0 -0.0
  outer loop
    vertex 36.512499999999996 95.25 0.0
    vertex 36.512499999999996 92.07499999999999 31.114999999999995
    vertex 36.512499999999996 92.07499999999999 0.0
  endloop
endfacet
facet normal 1.0 -0.0 -0.0
  outer loop
    vertex 36.512499999999996 92.07499999999999 31.114999999999995
    vertex 36.512499999999996 95.25 0.0
    vertex 36.512499999999996 95.25 30.162499999999994
  endloop
endfacet
facet normal -1.0 0.0 0.0
  outer loop
    vertex 39.6875 95.25 30.162499999999994
    vertex 39.6875 92.07499999999999 0.0
    vertex 39.6875 92.07499999999999 31.114999999999995
  endloop
endfacet
facet normal -1.0 0.0 0.0
  outer loop
    vertex 39.6875 92.07499999999999 0.0
    vertex 39.6875 95.25 30.162499999999994
    vertex 39.6875 95.25 0.0
  endloop
endfacet
facet normal -1.0 0.0 0.0
  outer loop
    vertex 33.3375 95.25 30.162499999999994
    vertex 33.3375 92.07499999999999 0.0
    vertex 33.3375 92.07499999999999 31.114999999999995
  endloop
endfacet
facet normal -1.0 0.0 0.0
  outer loop
    vertex 33.3375 92.07499999999999 0.0
    vertex 33.3375 95.25 30.162499999999994
    vertex 33.3375 95.25 0.0
  endloop
endfacet
facet normal -0.0 1.0 -0.0
  outer loop
    vertex 30.162499999999998 92.07499999999999 31.114999999999995
    vertex 33.3375 92.07499999999999 0.0
    vertex 30.162499999999998 92.07499999999999 0.0
  endloop
endfacet
facet normal -0.0 1.0 -0.0
  outer loop
    vertex 33.3375 92.07499999999999 0.0
    vertex 30.162499999999998 92.07499999999999 31.114999999999995
    vertex 33.3375 92.07499999999999 31.114999999999995
  endloop
endfacet
facet normal 1.0 -0.0 -0.0
  outer loop
    vertex 30.162499999999998 95.25 0.0
    vertex 30.162499999999998 92.07499999999999 31.114999999999995
    vertex 30.162499999999998 92.07499999999999 0.0
  endloop
endfacet
facet normal 1.0 -0.0 -0.0
  outer loop
    vertex 30.162499999999998 92.07499999999999 31.114999999999995
    vertex 30.162499999999998 95.25 0.0
    vertex 30.162499999999998 95.25 30.162499999999994
  endloop
endfacet
facet normal -1.0 0.0 0.0
  outer loop
    vertex 26.987499999999997 95.25 30.162499999999994
    vertex 26.987499999999997 92.07499999999999 0.0
    vertex 26.987499999999997 92.07499999999999 31.114999999999995
  endloop
endfacet
facet normal -1.0 0.0 0.0
  outer loop
    vertex 26.987499999999997 92.07499999999999 0.0
    vertex 26.987499999999997 95.25 30.162499999999994
    vertex 26.987499999999997 95.25 0.0
  endloop
endfacet
facet normal 1.0 -0.0 -0.0
  outer loop
    vertex 23.8125 95.25 0.0
    vertex 23.8125 92.07499999999999 31.114999999999995
    vertex 23.8125 92.07499999999999 0.0
  endloop
endfacet
facet normal 1.0 -0.0 -0.0
  outer loop
    vertex 23.8125 92.07499999999999 31.114999999999995
    vertex 23.8125 95.25 0.0
    vertex 23.8125 95.25 30.162499999999994
  endloop
endfacet
facet normal -0.0 1.0 -0.0
  outer loop
    vertex 23.8125 92.07499999999999 31.114999999999995
    vertex 26.987499999999997 92.07499999999999 0.0
    vertex 23.8125 92.07499999999999 0.0
  endloop
endfacet
facet normal -0.0 1.0 -0.0
  outer loop
    vertex 26.987499999999997 92.07499999999999 0.0
    vertex 23.8125 92.07499999999999 31.114999999999995
    vertex 26.987499999999997 92.07499999999999 31.114999999999995
  endloop
endfacet
facet normal -1.0 0.0 0.0
  outer loop
    vertex 20.689682851933433 95.25 30.162499999999994
    vertex 20.689682851933433 92.07499999999999 0.0
    vertex 20.689682851933433 92.07499999999999 31.114999999999995
  endloop
endfacet
facet normal -1.0 0.0 0.0
  outer loop
    vertex 20.689682851933433 92.07499999999999 0.0
    vertex 20.689682851933433 95.25 30.162499999999994
    vertex 20.689682851933433 95.25 0.0
  endloop
endfacet
facet normal -0.0 1.0 -0.0
  outer loop
    vertex 17.514682851933433 92.07499999999999 31.114999999999995
    vertex 20.689682851933433 92.07499999999999 0.0
    vertex 17.514682851933433 92.07499999999999 0.0
  endloop
endfacet
facet normal -0.0 1.0 -0.0
  outer loop
    vertex 20.689682851933433 92.07499999999999 0.0
    vertex 17.514682851933433 92.07499999999999 31.114999999999995
    vertex 20.689682851933433 92.07499999999999 31.114999999999995
  endloop
endfacet
facet normal 0.9998649638051784 0.01643332452273216 -1.396604132416832e-20
  outer loop
    vertex 17.4625 95.25 0.0
    vertex 17.514682851933433 92.07499999999999 31.114999999999995
    vertex 17.514682851933433 92.07499999999999 0.0
  endloop
endfacet
facet normal 0.9998649638051784 0.01643332452273216 -1.396604132416832e-20
  outer loop
    vertex 17.514682851933433 92.07499999999999 31.114999999999995
    vertex 17.4625 95.25 0.0
    vertex 17.4625 95.25 30.162499999999994
  endloop
endfacet
facet normal -0.9998649638051784 -0.01643332452273216 1.396604132416832e-20
  outer loop
    vertex 14.2875 95.25 30.162499999999994
    vertex 14.339682851933434 92.07499999999999 0.0
    vertex 14.339682851933434 92.07499999999999 31.114999999999995
  endloop
endfacet
facet normal -0.9998649638051784 -0.01643332452273216 1.396604132416832e-20
  outer loop
    vertex 14.339682851933434 92.07499999999999 0.0
    vertex 14.2875 95.25 30.162499999999994
    vertex 14.2875 95.25 0.0
  endloop
endfacet
facet normal -0.0 1.0 -0.0
  outer loop
    vertex 11.164682851933433 92.07499999999999 31.114999999999995
    vertex 14.339682851933434 92.07499999999999 0.0
    vertex 11.164682851933433 92.07499999999999 0.0
  endloop
endfacet
facet normal -0.0 1.0 -0.0
  outer loop
    vertex 14.339682851933434 92.07499999999999 0.0
    vertex 11.164682851933433 92.07499999999999 31.114999999999995
    vertex 14.339682851933434 92.07499999999999 31.114999999999995
  endloop
endfacet
facet normal 0.9998649638051784 0.01643332452273216 -1.396604132416832e-20
  outer loop
    vertex 11.112499999999999 95.25 0.0
    vertex 11.164682851933433 92.07499999999999 31.114999999999995
    vertex 11.164682851933433 92.07499999999999 0.0
  endloop
endfacet
facet normal 0.9998649638051784 0.01643332452273216 -1.396604132416832e-20
  outer loop
    vertex 11.164682851933433 92.07499999999999 31.114999999999995
    vertex 11.112499999999999 95.25 0.0
    vertex 11.112499999999999 95.25 30.162499999999994
  endloop
endfacet
facet normal 1.0 -0.0 -0.0
  outer loop
    vertex 4.994504685686088 95.25 0.0
    vertex 4.994504685686088 92.07499999999999 31.114999999999995
    vertex 4.994504685686088 92.07499999999999 0.0
  endloop
endfacet
facet normal 1.0 -0.0 -0.0
  outer loop
    vertex 4.994504685686088 92.07499999999999 31.114999999999995
    vertex 4.994504685686088 95.25 0.0
    vertex 4.994504685686088 95.25 30.162499999999994
  endloop
endfacet
facet normal -0.9998649638051784 -0.01643332452273216 1.396604132416832e-20
  outer loop
    vertex 8.117321833752653 95.25 30.162499999999994
    vertex 8.169504685686087 92.07499999999999 0.0
    vertex 8.169504685686087 92.07499999999999 31.114999999999995
  endloop
endfacet
facet normal -0.9998649638051784 -0.01643332452273216 1.396604132416832e-20
  outer loop
    vertex 8.169504685686087 92.07499999999999 0.0
    vertex 8.117321833752653 95.25 30.162499999999994
    vertex 8.117321833752653 95.25 0.0
  endloop
endfacet
facet normal -0.0 1.0 -0.0
  outer loop
    vertex 4.994504685686088 92.07499999999999 31.114999999999995
    vertex 8.169504685686087 92.07499999999999 0.0
    vertex 4.994504685686088 92.07499999999999 0.0
  endloop
endfacet
facet normal -0.0 1.0 -0.0
  outer loop
    vertex 8.169504685686087 92.07499999999999 0.0
    vertex 4.994504685686088 92.07499999999999 31.114999999999995
    vertex 8.169504685686087 92.07499999999999 31.114999999999995
  endloop
endfacet
facet normal 0.0 0.0 1.0
  outer loop
    vertex 35.03318550153221 18.22824953179949 46.037499999999994
    vertex 35.03318550153221 19.8717504682005 46.037499999999994
    vertex 34.925 19.049999999999997 46.037499999999994
  endloop
endfacet
facet normal 0.0 0.0 1.0
  outer loop
    vertex 35.03318550153221 19.8717504682005 46.037499999999994
    vertex 35.03318550153221 18.22824953179949 46.037499999999994
    vertex 35.3503693429844 17.462499999999995 46.037499999999994
  endloop
endfacet
facet normal 0.0 0.0 1.0
  outer loop
    vertex 35.03318550153221 19.8717504682005 46.037499999999994
    vertex 35.3503693429844 17.462499999999995 46.037499999999994
    vertex 35.3503693429844 20.637499999999996 46.037499999999994
  endloop
endfacet
facet normal 0.0 0.0 1.0
  outer loop
    vertex 35.3503693429844 20.637499999999996 46.037499999999994
    vertex 35.3503693429844 17.462499999999995 46.037499999999994
    vertex 35.85493596973271 16.804935969732707 46.037499999999994
  endloop
endfacet
facet normal 0.0 0.0 1.0
  outer loop
    vertex 35.3503693429844 20.637499999999996 46.037499999999994
    vertex 35.85493596973271 16.804935969732707 46.037499999999994
    vertex 35.85493596973271 21.295064030267284 46.037499999999994
  endloop
endfacet
facet normal 0.0 0.0 1.0
  outer loop
    vertex 35.85493596973271 21.295064030267284 46.037499999999994
    vertex 35.85493596973271 16.804935969732707 46.037499999999994
    vertex 36.512499999999996 16.300369342984403 46.037499999999994
  endloop
endfacet
facet normal 0.0 0.0 1.0
  outer loop
    vertex 35.85493596973271 21.295064030267284 46.037499999999994
    vertex 36.512499999999996 16.300369342984403 46.037499999999994
    vertex 36.512499999999996 21.799630657015587 46.037499999999994
  endloop
endfacet
facet normal 0.0 0.0 1.0
  outer loop
    vertex 36.512499999999996 21.799630657015587 46.037499999999994
    vertex 36.512499999999996 16.300369342984403 46.037499999999994
    vertex 37.278249531799496 15.983185501532203 46.037499999999994
  endloop
endfacet
facet normal 0.0 0.0 1.0
  outer loop
    vertex 36.512499999999996 21.799630657015587 46.037499999999994
    vertex 37.278249531799496 15.983185501532203 46.037499999999994
    vertex 37.27824953179949 22.116814498467786 46.037499999999994
  endloop
endfacet
facet normal 0.0 0.0 1.0
  outer loop
    vertex 37.27824953179949 22.116814498467786 46.037499999999994
    vertex 37.278249531799496 15.983185501532203 46.037499999999994
    vertex 38.099999999999994 22.224999999999994 46.037499999999994
  endloop
endfacet
facet normal 0.0 0.0 1.0
  outer loop
    vertex 38.099999999999994 22.224999999999994 46.037499999999994
    vertex 37.278249531799496 15.983185501532203 46.037499999999994
    vertex 38.099999999999994 15.874999999999996 46.037499999999994
  endloop
endfacet
facet normal 0.0 0.0 1.0
  outer loop
    vertex 38.099999999999994 22.224999999999994 46.037499999999994
    vertex 38.099999999999994 15.874999999999996 46.037499999999994
    vertex 38.92175046820051 15.983185501532203 46.037499999999994
  endloop
endfacet
facet normal 0.0 0.0 1.0
  outer loop
    vertex 38.099999999999994 22.224999999999994 46.037499999999994
    vertex 38.92175046820051 15.983185501532203 46.037499999999994
    vertex 38.9217504682005 22.11681449846779 46.037499999999994
  endloop
endfacet
facet normal 0.0 0.0 1.0
  outer loop
    vertex 38.9217504682005 22.11681449846779 46.037499999999994
    vertex 38.92175046820051 15.983185501532203 46.037499999999994
    vertex 39.6875 21.79963065701559 46.037499999999994
  endloop
endfacet
facet normal 0.0 0.0 1.0
  outer loop
    vertex 39.6875 21.79963065701559 46.037499999999994
    vertex 38.92175046820051 15.983185501532203 46.037499999999994
    vertex 39.6875 16.300369342984403 46.037499999999994
  endloop
endfacet
facet normal 0.0 0.0 1.0
  outer loop
    vertex 39.6875 21.79963065701559 46.037499999999994
    vertex 39.6875 16.300369342984403 46.037499999999994
    vertex 40.34506403026729 16.80493596973271 46.037499999999994
  endloop
endfacet
facet normal 0.0 0.0 1.0
  outer loop
    vertex 39.6875 21.79963065701559 46.037499999999994
    vertex 40.34506403026729 16.80493596973271 46.037499999999994
    vertex 40.34506403026729 21.295064030267287 46.037499999999994
  endloop
endfacet
facet normal 0.0 0.0 1.0
  outer loop
    vertex 40.34506403026729 21.295064030267287 46.037499999999994
    vertex 40.34506403026729 16.80493596973271 46.037499999999994
    vertex 40.849630657015595 17.462499999999995 46.037499999999994
  endloop
endfacet
facet normal 0.0 0.0 1.0
  outer loop
    vertex 40.34506403026729 21.295064030267287 46.037499999999994
    vertex 40.849630657015595 17.462499999999995 46.037499999999994
    vertex 40.84963065701559 20.6375 46.037499999999994
  endloop
endfacet
facet normal 0.0 0.0 1.0
  outer loop
    vertex 40.84963065701559 20.6375 46.037499999999994
    vertex 40.849630657015595 17.462499999999995 46.037499999999994
    vertex 41.16681449846779 19.871750468200503 46.037499999999994
  endloop
endfacet
facet normal 0.0 0.0 1.0
  outer loop
    vertex 41.16681449846779 19.871750468200503 46.037499999999994
    vertex 40.849630657015595 17.462499999999995 46.037499999999994
    vertex 41.16681449846779 18.22824953179949 46.037499999999994
  endloop
endfacet
facet normal 0.0 0.0 1.0
  outer loop
    vertex 41.16681449846779 19.871750468200503 46.037499999999994
    vertex 41.16681449846779 18.22824953179949 46.037499999999994
    vertex 41.275 19.049999999999997 46.037499999999994
  endloop
endfacet
facet normal 0.9659258262890693 -0.2588190451025171 -8.254906083644685e-17
  outer loop
    vertex 35.03318550153221 19.8717504682005 46.037499999999994
    vertex 35.3503693429844 20.637499999999992 52.546249999999986
    vertex 35.03318550153221 19.871750468200496 52.77597485953984
  endloop
endfacet
facet normal 0.876273561055768 -0.4818139124129184 3.116338253841101e-16
  outer loop
    vertex 35.3503693429844 20.637499999999992 52.546249999999986
    vertex 35.03318550153221 19.8717504682005 46.037499999999994
    vertex 35.3503693429844 20.637499999999996 46.037499999999994
  endloop
endfacet
facet normal 1.0 -3.2079995624328853e-16 -4.418288356469014e-16
  outer loop
    vertex 34.925 19.049999999999997 46.037499999999994
    vertex 35.03318550153221 18.2282495317995 53.26902514046014
    vertex 35.03318550153221 18.22824953179949 46.037499999999994
  endloop
endfacet
facet normal 0.9595544035384835 0.2815232612945247 -2.9609327418812956e-17
  outer loop
    vertex 35.03318550153221 18.2282495317995 53.26902514046014
    vertex 34.925 19.049999999999997 46.037499999999994
    vertex 34.925000000000004 19.05 53.02249999999999
  endloop
endfacet
facet normal 0.8660254037844412 0.49999999999999595 5.602655103997342e-16
  outer loop
    vertex 35.3503693429844 17.462499999999995 46.037499999999994
    vertex 35.03318550153221 18.2282495317995 53.26902514046014
    vertex 35.3503693429844 17.462499999999995 53.49874999999999
  endloop
endfacet
facet normal 0.9595544035384835 0.2815232612945247 -2.9609327418812956e-17
  outer loop
    vertex 35.03318550153221 18.2282495317995 53.26902514046014
    vertex 35.3503693429844 17.462499999999995 46.037499999999994
    vertex 35.03318550153221 18.22824953179949 46.037499999999994
  endloop
endfacet
facet normal 0.4890261136175203 0.8722691443586342 -1.1799683058217193e-17
  outer loop
    vertex 36.5125 16.300369342984403 53.84738919710467
    vertex 37.278249531799496 15.983185501532203 46.037499999999994
    vertex 36.512499999999996 16.300369342984403 46.037499999999994
  endloop
endfacet
facet normal 0.2588190451025218 0.9659258262890681 -2.1192089198593333e-17
  outer loop
    vertex 37.278249531799496 15.983185501532203 46.037499999999994
    vertex 36.5125 16.300369342984403 53.84738919710467
    vertex 37.278249531799496 15.983185501532203 53.942544349540334
  endloop
endfacet
facet normal 0.25245021497671166 0.9676098846943495 -1.54727957046456e-17
  outer loop
    vertex 37.278249531799496 15.983185501532203 53.942544349540334
    vertex 38.099999999999994 15.874999999999996 46.037499999999994
    vertex 37.278249531799496 15.983185501532203 46.037499999999994
  endloop
endfacet
facet normal 9.802220885211593e-16 1.0 -2.4076605119762166e-17
  outer loop
    vertex 38.099999999999994 15.874999999999996 46.037499999999994
    vertex 37.278249531799496 15.983185501532203 53.942544349540334
    vertex 38.09999999999999 15.874999999999996 53.974999999999994
  endloop
endfacet
facet normal -0.8551441005825127 0.5183903618306626 -3.970075642172348e-16
  outer loop
    vertex 40.84963065701559 17.462499999999995 53.49874999999999
    vertex 40.34506403026729 16.80493596973271 46.037499999999994
    vertex 40.34506403026728 16.804935969732707 53.69601920908017
  endloop
endfacet
facet normal -0.7071067811865468 0.7071067811865483 -2.9228471391478405e-16
  outer loop
    vertex 40.34506403026729 16.80493596973271 46.037499999999994
    vertex 40.84963065701559 17.462499999999995 53.49874999999999
    vertex 40.849630657015595 17.462499999999995 46.037499999999994
  endloop
endfacet
facet normal -0.9595544035384822 0.28152326129452954 -2.9846012015295086e-16
  outer loop
    vertex 41.16681449846779 18.2282495317995 53.26902514046014
    vertex 40.849630657015595 17.462499999999995 46.037499999999994
    vertex 40.84963065701559 17.462499999999995 53.49874999999999
  endloop
endfacet
facet normal -0.8660254037844389 0.4999999999999994 -4.022140654661741e-16
  outer loop
    vertex 40.849630657015595 17.462499999999995 46.037499999999994
    vertex 41.16681449846779 18.2282495317995 53.26902514046014
    vertex 41.16681449846779 18.22824953179949 46.037499999999994
  endloop
endfacet
facet normal -0.9716941699091353 -0.23624233355729543 6.359681024526241e-16
  outer loop
    vertex 41.166814498467794 19.871750468200506 52.77597485953983
    vertex 40.84963065701559 20.6375 46.037499999999994
    vertex 41.16681449846779 19.871750468200503 46.037499999999994
  endloop
endfacet
facet normal -0.8660254037844373 -0.5000000000000024 5.072735609494535e-16
  outer loop
    vertex 40.84963065701559 20.6375 46.037499999999994
    vertex 41.166814498467794 19.871750468200506 52.77597485953983
    vertex 40.84963065701559 20.637500000000006 52.546249999999986
  endloop
endfacet
facet normal -0.7190747532135977 -0.6949327300471633 1.8574930572562238e-16
  outer loop
    vertex 40.34506403026728 21.295064030267287 52.348980790919796
    vertex 39.6875 21.79963065701559 46.037499999999994
    vertex 40.34506403026729 21.295064030267287 46.037499999999994
  endloop
endfacet
facet normal -0.49999999999999933 -0.8660254037844389 4.0729800089288617e-16
  outer loop
    vertex 39.6875 21.79963065701559 46.037499999999994
    vertex 40.34506403026728 21.295064030267287 52.348980790919796
    vertex 39.68749999999999 21.799630657015598 52.1976108028953
  endloop
endfacet
facet normal -0.5104452912553323 -0.8599102305678535 3.851987836026735e-16
  outer loop
    vertex 39.68749999999999 21.799630657015598 52.1976108028953
    vertex 38.9217504682005 22.11681449846779 46.037499999999994
    vertex 39.6875 21.79963065701559 46.037499999999994
  endloop
endfacet
facet normal -0.25881904510251796 -0.965925826289069 3.5488126009097024e-16
  outer loop
    vertex 38.9217504682005 22.11681449846779 46.037499999999994
    vertex 39.68749999999999 21.799630657015598 52.1976108028953
    vertex 38.92175046820051 22.11681449846779 52.102455650459646
  endloop
endfacet
facet normal -0.26487978636715775 -0.9642814416829191 3.6882512552622373e-16
  outer loop
    vertex 38.92175046820051 22.11681449846779 52.102455650459646
    vertex 38.099999999999994 22.224999999999994 46.037499999999994
    vertex 38.9217504682005 22.11681449846779 46.037499999999994
  endloop
endfacet
facet normal 1.862421968190203e-15 -1.0 -2.4000499176426332e-17
  outer loop
    vertex 38.099999999999994 22.224999999999994 46.037499999999994
    vertex 38.92175046820051 22.11681449846779 52.102455650459646
    vertex 38.099999999999994 22.224999999999994 52.06999999999998
  endloop
endfacet
facet normal 0.2648797863671626 -0.9642814416829179 -1.8758558375334022e-17
  outer loop
    vertex 37.27824953179948 22.116814498467782 52.102455650459646
    vertex 36.512499999999996 21.799630657015587 46.037499999999994
    vertex 37.27824953179949 22.116814498467786 46.037499999999994
  endloop
endfacet
facet normal 0.5000000000000009 -0.866025403784438 1.769738883186379e-16
  outer loop
    vertex 36.512499999999996 21.799630657015587 46.037499999999994
    vertex 37.27824953179948 22.116814498467782 52.102455650459646
    vertex 36.51249999999999 21.799630657015584 52.1976108028953
  endloop
endfacet
facet normal 0.8660254037844402 -0.4999999999999976 3.2811470884301613e-16
  outer loop
    vertex 35.3503693429844 20.637499999999996 46.037499999999994
    vertex 35.8549359697327 21.29506403026728 52.348980790919796
    vertex 35.3503693429844 20.637499999999992 52.546249999999986
  endloop
endfacet
facet normal 0.7190747532135973 -0.6949327300471638 3.6967267807273955e-16
  outer loop
    vertex 35.8549359697327 21.29506403026728 52.348980790919796
    vertex 35.3503693429844 20.637499999999996 46.037499999999994
    vertex 35.85493596973271 21.295064030267284 46.037499999999994
  endloop
endfacet
facet normal -0.9595544035384822 0.28152326129452954 -2.9846012015295086e-16
  outer loop
    vertex 41.16681449846779 18.2282495317995 53.26902514046014
    vertex 41.275 19.049999999999997 46.037499999999994
    vertex 41.16681449846779 18.22824953179949 46.037499999999994
  endloop
endfacet
facet normal -1.0 2.0317330562074942e-15 2.0354511937561244e-16
  outer loop
    vertex 41.275 19.049999999999997 46.037499999999994
    vertex 41.16681449846779 18.2282495317995 53.26902514046014
    vertex 41.275 19.05 53.02249999999999
  endloop
endfacet
facet normal 0.9659258262890693 -0.2588190451025171 -8.254906083644685e-17
  outer loop
    vertex 35.03318550153221 19.8717504682005 46.037499999999994
    vertex 34.925000000000004 19.05 53.02249999999999
    vertex 34.925 19.049999999999997 46.037499999999994
  endloop
endfacet
facet normal 0.9997065764364849 0.024223150696031263 -4.512873892774062e-16
  outer loop
    vertex 34.925000000000004 19.05 53.02249999999999
    vertex 35.03318550153221 19.8717504682005 46.037499999999994
    vertex 35.03318550153221 19.871750468200496 52.77597485953984
  endloop
endfacet
facet normal 1.834535029160759e-15 -1.0 -2.400049917642631e-17
  outer loop
    vertex 38.099999999999994 22.224999999999994 52.06999999999998
    vertex 37.27824953179949 22.116814498467786 46.037499999999994
    vertex 38.099999999999994 22.224999999999994 46.037499999999994
  endloop
endfacet
facet normal 0.25881904510252274 -0.9659258262890679 -2.2931786235987155e-17
  outer loop
    vertex 37.27824953179949 22.116814498467786 46.037499999999994
    vertex 38.099999999999994 22.224999999999994 52.06999999999998
    vertex 37.27824953179948 22.116814498467782 52.102455650459646
  endloop
endfacet
facet normal -0.8762735610557644 -0.4818139124129247 5.558731529798214e-16
  outer loop
    vertex 40.84963065701559 20.637500000000006 52.546249999999986
    vertex 40.34506403026729 21.295064030267287 46.037499999999994
    vertex 40.84963065701559 20.6375 46.037499999999994
  endloop
endfacet
facet normal -0.7071067811865481 -0.707106781186547 1.83648874606276e-16
  outer loop
    vertex 40.34506403026729 21.295064030267287 46.037499999999994
    vertex 40.84963065701559 20.637500000000006 52.546249999999986
    vertex 40.34506403026728 21.295064030267287 52.348980790919796
  endloop
endfacet
facet normal -0.4890261136175246 0.8722691443586319 -3.8524506103604736e-16
  outer loop
    vertex 39.68750000000001 16.300369342984414 53.847389197104654
    vertex 40.34506403026729 16.80493596973271 46.037499999999994
    vertex 39.6875 16.300369342984403 46.037499999999994
  endloop
endfacet
facet normal -0.7071067811865468 0.7071067811865483 -2.9228471391478405e-16
  outer loop
    vertex 40.34506403026729 16.80493596973271 46.037499999999994
    vertex 39.68750000000001 16.300369342984414 53.847389197104654
    vertex 40.34506403026728 16.804935969732707 53.69601920908017
  endloop
endfacet
facet normal -0.2524502149767118 0.9676098846943494 -3.2431515350050385e-16
  outer loop
    vertex 38.9217504682005 15.983185501532203 53.942544349540334
    vertex 39.6875 16.300369342984403 46.037499999999994
    vertex 38.92175046820051 15.983185501532203 46.037499999999994
  endloop
endfacet
facet normal -0.5000000000000021 0.8660254037844374 -3.7027516186221173e-16
  outer loop
    vertex 39.6875 16.300369342984403 46.037499999999994
    vertex 38.9217504682005 15.983185501532203 53.942544349540334
    vertex 39.68750000000001 16.300369342984414 53.847389197104654
  endloop
endfacet
facet normal 1.1606291184971833e-15 1.0 -2.4076605119761996e-17
  outer loop
    vertex 38.09999999999999 15.874999999999996 53.974999999999994
    vertex 38.92175046820051 15.983185501532203 46.037499999999994
    vertex 38.099999999999994 15.874999999999996 46.037499999999994
  endloop
endfacet
facet normal -0.25881904510252257 0.9659258262890678 -3.3396558714834907e-16
  outer loop
    vertex 38.92175046820051 15.983185501532203 46.037499999999994
    vertex 38.09999999999999 15.874999999999996 53.974999999999994
    vertex 38.9217504682005 15.983185501532203 53.942544349540334
  endloop
endfacet
facet normal -0.9997065764364846 0.024223150696034233 1.468350897003356e-16
  outer loop
    vertex 41.275 19.05 53.02249999999999
    vertex 41.16681449846779 19.871750468200503 46.037499999999994
    vertex 41.275 19.049999999999997 46.037499999999994
  endloop
endfacet
facet normal -0.9659258262890679 -0.25881904510252207 6.629659862228223e-16
  outer loop
    vertex 41.16681449846779 19.871750468200503 46.037499999999994
    vertex 41.275 19.05 53.02249999999999
    vertex 41.166814498467794 19.871750468200506 52.77597485953983
  endloop
endfacet
facet normal 0.6945112195597096 0.7194818732293989 4.3625456567937993e-16
  outer loop
    vertex 35.8549359697327 16.804935969732703 53.69601920908018
    vertex 36.512499999999996 16.300369342984403 46.037499999999994
    vertex 35.85493596973271 16.804935969732707 46.037499999999994
  endloop
endfacet
facet normal 0.49999999999999734 0.8660254037844403 1.3196609784262406e-18
  outer loop
    vertex 36.512499999999996 16.300369342984403 46.037499999999994
    vertex 35.8549359697327 16.804935969732703 53.69601920908018
    vertex 36.5125 16.300369342984403 53.84738919710467
  endloop
endfacet
facet normal 0.5104452912553342 -0.8599102305678524 1.8729682068215954e-16
  outer loop
    vertex 36.51249999999999 21.799630657015584 52.1976108028953
    vertex 35.85493596973271 21.295064030267284 46.037499999999994
    vertex 36.512499999999996 21.799630657015587 46.037499999999994
  endloop
endfacet
facet normal 0.7071067811865471 -0.7071067811865481 3.6050520896341497e-16
  outer loop
    vertex 35.85493596973271 21.295064030267284 46.037499999999994
    vertex 36.51249999999999 21.799630657015584 52.1976108028953
    vertex 35.8549359697327 21.29506403026728 52.348980790919796
  endloop
endfacet
facet normal 0.7071067811865446 0.7071067811865505 4.825198388684569e-16
  outer loop
    vertex 35.85493596973271 16.804935969732707 46.037499999999994
    vertex 35.3503693429844 17.462499999999995 53.49874999999999
    vertex 35.8549359697327 16.804935969732703 53.69601920908018
  endloop
endfacet
facet normal 0.8551441005825143 0.5183903618306599 6.034154733447547e-16
  outer loop
    vertex 35.3503693429844 17.462499999999995 53.49874999999999
    vertex 35.85493596973271 16.804935969732707 46.037499999999994
    vertex 35.3503693429844 17.462499999999995 46.037499999999994
  endloop
endfacet
facet normal 5.011272534276537e-17 -0.9756402179134535 -0.2193767653827291
  outer loop
    vertex 50.8 25.876525228490177 38.62239092256762
    vertex 0.0 25.93256735352188 38.003291279127836
    vertex 50.8 25.932567353521886 38.00329127912782
  endloop
endfacet
facet normal 8.506208469309417e-17 -0.999174968582937 0.04061258619303838
  outer loop
    vertex 0.0 25.93256735352188 38.003291279127836
    vertex 50.8 25.876525228490177 38.62239092256762
    vertex 0.0 25.876525228490173 38.62239092256763
  endloop
endfacet
facet normal -2.899117873280295e-17 -0.7352408309754717 -0.6778059607782289
  outer loop
    vertex 50.8 25.304074188344106 39.71402544410316
    vertex 0.0 24.826676865595637 40.11216723356758
    vertex 0.0 25.304074188344114 39.71402544410315
  endloop
endfacet
facet normal -3.0163245355632177e-18 -0.5347590156480233 -0.8450046125218237
  outer loop
    vertex 0.0 24.826676865595637 40.11216723356758
    vertex 50.8 25.304074188344106 39.71402544410316
    vertex 50.8 24.826676865595626 40.11216723356758
  endloop
endfacet
facet normal 5.004517029812265e-18 0.9959278944468778 0.09015336412252727
  outer loop
    vertex 0.0 21.182750830462634 38.1
    vertex 50.8 21.173996565645645 38.196708720872174
    vertex 50.8 21.182750830462634 38.099999999999994
  endloop
endfacet
facet normal 6.759383923934725e-18 0.9991749685829368 -0.04061258619304211
  outer loop
    vertex 50.8 21.173996565645645 38.196708720872174
    vertex 0.0 21.182750830462634 38.1
    vertex 0.0 21.173996565645645 38.196708720872174
  endloop
endfacet
facet normal 3.905742080434716e-17 0.9756402179134538 0.21937676538272824
  outer loop
    vertex 0.0 21.230038690677354 37.57760907743239
    vertex 50.8 21.182750830462634 38.099999999999994
    vertex 50.8 21.230038690677354 37.57760907743238
  endloop
endfacet
facet normal 2.0018068119250442e-17 0.9959278944468771 0.0901533641225335
  outer loop
    vertex 50.8 21.182750830462634 38.099999999999994
    vertex 0.0 21.230038690677354 37.57760907743239
    vertex 0.0 21.182750830462634 38.1
  endloop
endfacet
facet normal 3.905742080434716e-17 0.9756402179134538 0.21937676538272824
  outer loop
    vertex 0.0 21.230038690677354 37.57760907743239
    vertex 50.8 21.444406005144 36.99410951207374
    vertex 0.0 21.444406005144 36.99410951207374
  endloop
endfacet
facet normal 7.472961326516538e-17 0.8856171987148614 0.4644159529349111
  outer loop
    vertex 50.8 21.444406005144 36.99410951207374
    vertex 0.0 21.230038690677354 37.57760907743239
    vertex 50.8 21.230038690677354 37.57760907743238
  endloop
endfacet
facet normal -1.1229617336921078e-17 -0.885617198714862 -0.46441595293490984
  outer loop
    vertex 50.8 25.66215791402353 39.205890487926254
    vertex 0.0 25.876525228490173 38.62239092256763
    vertex 50.8 25.876525228490177 38.62239092256762
  endloop
endfacet
facet normal 5.011272534276536e-17 -0.9756402179134535 -0.21937676538272916
  outer loop
    vertex 0.0 25.876525228490173 38.62239092256763
    vertex 50.8 25.66215791402353 39.205890487926254
    vertex 0.0 25.66215791402353 39.205890487926254
  endloop
endfacet
facet normal -7.519287151693701e-18 0.9546175963582003 -0.2978342571352264
  outer loop
    vertex 0.0 21.2800988082558 38.80921782480326
    vertex 50.8 21.173996565645645 38.196708720872174
    vertex 0.0 21.173996565645645 38.196708720872174
  endloop
endfacet
facet normal 6.759383923934725e-18 0.9991749685829368 -0.04061258619304211
  outer loop
    vertex 50.8 21.173996565645645 38.196708720872174
    vertex 0.0 21.2800988082558 38.80921782480326
    vertex 50.8 21.280098808255797 38.80921782480325
  endloop
endfacet
facet normal 7.775416439433993e-18 -0.29783425713522516 -0.9546175963582008
  outer loop
    vertex 50.8 24.262499784387018 40.37318315132796
    vertex 0.0 23.64999068045594 40.47928539393812
    vertex 0.0 24.262499784387018 40.37318315132796
  endloop
endfacet
facet normal 3.785775607489111e-18 -0.040612586193041686 -0.9991749685829369
  outer loop
    vertex 0.0 23.64999068045594 40.47928539393812
    vertex 50.8 24.262499784387018 40.37318315132796
    vertex 50.8 23.64999068045594 40.47928539393812
  endloop
endfacet
facet normal 8.506208469309415e-17 -0.999174968582937 0.040612586193038425
  outer loop
    vertex 50.8 25.932567353521886 38.00329127912782
    vertex 0.0 25.82646511091173 37.39078217519675
    vertex 50.8 25.82646511091173 37.39078217519675
  endloop
endfacet
facet normal 2.826635299646156e-17 -0.9546175963582019 0.2978342571352211
  outer loop
    vertex 0.0 25.82646511091173 37.39078217519675
    vertex 50.8 25.932567353521886 38.00329127912782
    vertex 0.0 25.93256735352188 38.003291279127836
  endloop
endfacet
facet normal -7.519287151693701e-18 0.9546175963582003 -0.2978342571352264
  outer loop
    vertex 0.0 21.2800988082558 38.80921782480326
    vertex 50.8 21.541114726016175 39.37339490601186
    vertex 50.8 21.280098808255797 38.80921782480325
  endloop
endfacet
facet normal -1.536605942206369e-17 0.8450046125218218 -0.5347590156480261
  outer loop
    vertex 50.8 21.541114726016175 39.37339490601186
    vertex 0.0 21.2800988082558 38.80921782480326
    vertex 0.0 21.541114726016172 39.37339490601185
  endloop
endfacet
facet normal -3.016324535563212e-18 -0.5347590156480232 -0.8450046125218237
  outer loop
    vertex 50.8 24.826676865595626 40.11216723356758
    vertex 0.0 24.262499784387018 40.37318315132796
    vertex 0.0 24.826676865595637 40.11216723356758
  endloop
endfacet
facet normal 7.775416439433993e-18 -0.29783425713522516 -0.9546175963582008
  outer loop
    vertex 0.0 24.262499784387018 40.37318315132796
    vertex 50.8 24.826676865595626 40.11216723356758
    vertex 50.8 24.262499784387018 40.37318315132796
  endloop
endfacet
facet normal -6.472324551182217e-18 -0.8450046125218215 0.5347590156480266
  outer loop
    vertex 50.8 25.565449193151355 36.826605093988135
    vertex 0.0 25.167307403686916 36.349207771239655
    vertex 50.8 25.16730740368692 36.349207771239655
  endloop
endfacet
facet normal 7.180502223569666e-18 -0.6778059607782284 0.7352408309754721
  outer loop
    vertex 0.0 25.167307403686916 36.349207771239655
    vertex 50.8 25.565449193151355 36.826605093988135
    vertex 0.0 25.56544919315136 36.82660509398814
  endloop
endfacet
facet normal 1.331727578955618e-16 0.5347590156480247 0.8450046125218228
  outer loop
    vertex 50.8 22.279887053571905 36.08783276643241
    vertex 0.0 22.844064134780513 35.82681684867204
    vertex 0.0 22.279887053571912 36.08783276643241
  endloop
endfacet
facet normal 5.369559060570626e-17 0.2978342571352288 0.9546175963581995
  outer loop
    vertex 0.0 22.844064134780513 35.82681684867204
    vertex 50.8 22.279887053571905 36.08783276643241
    vertex 50.8 22.84406413478051 35.82681684867204
  endloop
endfacet
facet normal 2.2544514140544264e-18 0.04061258619304161 0.9991749685829369
  outer loop
    vertex 50.8 23.456573238711588 35.720714606061875
    vertex 0.0 24.07567288215139 35.776756731093585
    vertex 0.0 23.45657323871159 35.720714606061875
  endloop
endfacet
facet normal -1.2177856799784865e-17 -0.21937676538272952 0.9756402179134533
  outer loop
    vertex 0.0 24.07567288215139 35.776756731093585
    vertex 50.8 23.456573238711588 35.720714606061875
    vertex 50.8 24.075672882151387 35.776756731093585
  endloop
endfacet
facet normal 7.472961326516538e-17 0.8856171987148614 0.4644159529349111
  outer loop
    vertex 0.0 21.444406005144 36.99410951207374
    vertex 50.8 21.80248973082342 36.48597455589684
    vertex 0.0 21.80248973082343 36.48597455589684
  endloop
endfacet
facet normal 1.3002306318969207e-16 0.7352408309754678 0.6778059607782331
  outer loop
    vertex 50.8 21.80248973082342 36.48597455589684
    vertex 0.0 21.444406005144 36.99410951207374
    vertex 50.8 21.444406005144 36.99410951207374
  endloop
endfacet
facet normal -7.107949617428687e-17 0.464415952934909 -0.8856171987148627
  outer loop
    vertex 50.8 22.447391471657507 40.20887595443976
    vertex 0.0 21.93925651548062 39.850792228760355
    vertex 0.0 22.447391471657507 40.20887595443977
  endloop
endfacet
facet normal -6.289391130743373e-17 0.6778059607782299 -0.7352408309754705
  outer loop
    vertex 0.0 21.93925651548062 39.850792228760355
    vertex 50.8 22.447391471657507 40.20887595443976
    vertex 50.8 21.939256515480608 39.85079222876034
  endloop
endfacet
facet normal 2.826635299646156e-17 -0.9546175963582019 0.2978342571352211
  outer loop
    vertex 50.8 25.82646511091173 37.39078217519675
    vertex 0.0 25.56544919315136 36.82660509398814
    vertex 50.8 25.565449193151355 36.826605093988135
  endloop
endfacet
facet normal -6.472324551182217e-18 -0.8450046125218215 0.5347590156480266
  outer loop
    vertex 0.0 25.56544919315136 36.82660509398814
    vertex 50.8 25.82646511091173 37.39078217519675
    vertex 0.0 25.82646511091173 37.39078217519675
  endloop
endfacet
facet normal -6.289391130743373e-17 0.6778059607782299 -0.7352408309754705
  outer loop
    vertex 0.0 21.93925651548062 39.850792228760355
    vertex 50.8 21.541114726016175 39.37339490601186
    vertex 0.0 21.541114726016172 39.37339490601185
  endloop
endfacet
facet normal -1.536605942206369e-17 0.8450046125218218 -0.5347590156480261
  outer loop
    vertex 50.8 21.541114726016175 39.37339490601186
    vertex 0.0 21.93925651548062 39.850792228760355
    vertex 50.8 21.939256515480608 39.85079222876034
  endloop
endfacet
facet normal 3.785775607489111e-18 -0.040612586193041686 -0.9991749685829369
  outer loop
    vertex 50.8 23.64999068045594 40.47928539393812
    vertex 0.0 23.03089103701615 40.42324326890641
    vertex 0.0 23.64999068045594 40.47928539393812
  endloop
endfacet
facet normal -8.011048010791865e-18 0.21937676538272655 -0.9756402179134541
  outer loop
    vertex 0.0 23.03089103701615 40.42324326890641
    vertex 50.8 23.64999068045594 40.47928539393812
    vertex 50.8 23.03089103701614 40.42324326890641
  endloop
endfacet
facet normal 5.369559060570626e-17 0.2978342571352288 0.9546175963581995
  outer loop
    vertex 50.8 22.84406413478051 35.82681684867204
    vertex 0.0 23.45657323871159 35.720714606061875
    vertex 0.0 22.844064134780513 35.82681684867204
  endloop
endfacet
facet normal 2.2544514140544264e-18 0.04061258619304161 0.9991749685829369
  outer loop
    vertex 0.0 23.45657323871159 35.720714606061875
    vertex 50.8 22.84406413478051 35.82681684867204
    vertex 50.8 23.456573238711588 35.720714606061875
  endloop
endfacet
facet normal -1.2177856799784865e-17 -0.21937676538272952 0.9756402179134533
  outer loop
    vertex 50.8 24.075672882151387 35.776756731093585
    vertex 0.0 24.659172447510024 35.991124045560234
    vertex 0.0 24.07567288215139 35.776756731093585
  endloop
endfacet
facet normal -9.654006394792148e-18 -0.464415952934914 0.88561719871486
  outer loop
    vertex 0.0 24.659172447510024 35.991124045560234
    vertex 50.8 24.075672882151387 35.776756731093585
    vertex 50.8 24.659172447510024 35.991124045560234
  endloop
endfacet
facet normal -2.899117873280295e-17 -0.7352408309754717 -0.6778059607782289
  outer loop
    vertex 50.8 25.304074188344106 39.71402544410316
    vertex 0.0 25.66215791402353 39.205890487926254
    vertex 50.8 25.66215791402353 39.205890487926254
  endloop
endfacet
facet normal -1.1229617336921078e-17 -0.885617198714862 -0.46441595293490984
  outer loop
    vertex 0.0 25.66215791402353 39.205890487926254
    vertex 50.8 25.304074188344106 39.71402544410316
    vertex 0.0 25.304074188344114 39.71402544410315
  endloop
endfacet
facet normal 1.3002306318969207e-16 0.7352408309754678 0.6778059607782331
  outer loop
    vertex 50.8 21.80248973082342 36.48597455589684
    vertex 0.0 22.279887053571912 36.08783276643241
    vertex 0.0 21.80248973082343 36.48597455589684
  endloop
endfacet
facet normal 1.331727578955618e-16 0.5347590156480247 0.8450046125218228
  outer loop
    vertex 0.0 22.279887053571912 36.08783276643241
    vertex 50.8 21.80248973082342 36.48597455589684
    vertex 50.8 22.279887053571905 36.08783276643241
  endloop
endfacet
facet normal -9.654006394792148e-18 -0.464415952934914 0.88561719871486
  outer loop
    vertex 50.8 24.659172447510024 35.991124045560234
    vertex 0.0 25.167307403686916 36.349207771239655
    vertex 0.0 24.659172447510024 35.991124045560234
  endloop
endfacet
facet normal 7.180502223569666e-18 -0.6778059607782284 0.7352408309754721
  outer loop
    vertex 0.0 25.167307403686916 36.349207771239655
    vertex 50.8 24.659172447510024 35.991124045560234
    vertex 50.8 25.16730740368692 36.349207771239655
  endloop
endfacet
facet normal -8.011048010791865e-18 0.21937676538272655 -0.9756402179134541
  outer loop
    vertex 50.8 23.03089103701614 40.42324326890641
    vertex 0.0 22.447391471657507 40.20887595443977
    vertex 0.0 23.03089103701615 40.42324326890641
  endloop
endfacet
facet normal -7.107949617428687e-17 0.464415952934909 -0.8856171987148627
  outer loop
    vertex 0.0 22.447391471657507 40.20887595443977
    vertex 50.8 23.03089103701614 40.42324326890641
    vertex 50.8 22.447391471657507 40.20887595443976
  endloop
endfacet
endsolid Hood
