solid Loader
facet normal -0.0 -0.0 1.0
  outer loop
    vertex 114.3 0.0 6.35
    vertex 0.0 26.987499999999997 6.35
    vertex 0.0 0.0 6.35
  endloop
endfacet
facet normal -0.0 -0.0 1.0
  outer loop
    vertex 0.0 26.987499999999997 6.35
    vertex 114.3 0.0 6.35
    vertex 114.3 26.987499999999997 6.35
  endloop
endfacet
facet normal -0.0 0.42261826174070294 0.9063077870366484
  outer loop
    vertex 114.3 -19.13285031940777 49.63399525186035
    vertex 0.0 -15.063412293353508 47.73638513592407
    vertex 0.0 -19.13285031940777 49.63399525186035
  endloop
endfacet
facet normal -0.0 0.42261826174070294 0.9063077870366484
  outer loop
    vertex 0.0 -15.063412293353508 47.73638513592407
    vertex 114.3 -19.13285031940777 49.63399525186035
    vertex 114.3 -15.063412293353508 47.73638513592407
  endloop
endfacet
facet normal -1.9017155159258997e-16 0.34037955021304694 0.9402881270104202
  outer loop
    vertex 107.95000000000002 41.967570163232516 47.76663685212927
    vertex 6.350000000000042 47.938399769748756 45.60522670827637
    vertex 6.350000000000014 41.96757016323254 47.76663685212922
  endloop
endfacet
facet normal -1.9017155159258997e-16 0.34037955021304694 0.9402881270104202
  outer loop
    vertex 6.350000000000042 47.938399769748756 45.60522670827637
    vertex 107.95000000000002 41.967570163232516 47.76663685212927
    vertex 107.95000000000002 47.93839976974876 45.60522670827637
  endloop
endfacet
facet normal -0.7071067811865439 0.24068468813287947 0.664884110878267
  outer loop
    vertex 6.350000000000014 41.96757016323254 47.76663685212922
    vertex 3.665956427312267e-14 45.77698962589587 39.634397101760236
    vertex -2.8199664825478976e-14 39.80616001937973 41.795807245613105
  endloop
endfacet
facet normal -0.7071067811865439 0.24068468813287947 0.664884110878267
  outer loop
    vertex 3.665956427312267e-14 45.77698962589587 39.634397101760236
    vertex 6.350000000000014 41.96757016323254 47.76663685212922
    vertex 6.350000000000042 47.938399769748756 45.60522670827637
  endloop
endfacet
facet normal 0.7071067811865471 0.24068468813287336 0.6648841108782659
  outer loop
    vertex 114.30000000000001 45.77698962589585 39.63439710176024
    vertex 107.95000000000002 41.967570163232516 47.76663685212927
    vertex 114.3 39.80616001937971 41.795807245613105
  endloop
endfacet
facet normal 0.7071067811865471 0.24068468813287336 0.6648841108782659
  outer loop
    vertex 107.95000000000002 41.967570163232516 47.76663685212927
    vertex 114.30000000000001 45.77698962589585 39.63439710176024
    vertex 107.95000000000002 47.93839976974876 45.60522670827637
  endloop
endfacet
facet normal -1.0 6.15818286174805e-15 -4.0088985525250716e-15
  outer loop
    vertex -2.8199664825478976e-14 39.80616001937973 41.795807245613105
    vertex 2.255973186038318e-14 44.33846707467404 35.66052242420119
    vertex -2.038355025934847e-15 38.08524998808701 37.03719400803419
  endloop
endfacet
facet normal -1.0 6.15818286174805e-15 -4.0088985525250716e-15
  outer loop
    vertex 2.255973186038318e-14 44.33846707467404 35.66052242420119
    vertex -2.8199664825478976e-14 39.80616001937973 41.795807245613105
    vertex 3.665956427312267e-14 45.77698962589587 39.634397101760236
  endloop
endfacet
facet normal -1.6080268206501762e-16 -0.9403855502790549 0.3401103009706692
  outer loop
    vertex 114.3 38.08524998808699 37.0371940080342
    vertex 0.0 26.987499999999997 6.35
    vertex 114.3 26.987499999999997 6.35
  endloop
endfacet
facet normal -1.6080268206501762e-16 -0.9403855502790549 0.3401103009706692
  outer loop
    vertex 0.0 26.987499999999997 6.35
    vertex 114.3 38.08524998808699 37.0371940080342
    vertex -2.038355025934847e-15 38.08524998808701 37.03719400803419
  endloop
endfacet
facet normal -1.6080268206501762e-16 -0.9403855502790549 0.3401103009706692
  outer loop
    vertex -2.038355025934847e-15 38.08524998808701 37.03719400803419
    vertex 114.3 38.08524998808699 37.0371940080342
    vertex -2.8199664825478976e-14 39.80616001937973 41.795807245613105
  endloop
endfacet
facet normal -1.6080268206501762e-16 -0.9403855502790549 0.3401103009706692
  outer loop
    vertex -2.8199664825478976e-14 39.80616001937973 41.795807245613105
    vertex 114.3 38.08524998808699 37.0371940080342
    vertex 114.3 39.80616001937971 41.795807245613105
  endloop
endfacet
facet normal -1.6080268206501762e-16 -0.9403855502790549 0.3401103009706692
  outer loop
    vertex -2.8199664825478976e-14 39.80616001937973 41.795807245613105
    vertex 114.3 39.80616001937971 41.795807245613105
    vertex 107.95000000000002 41.967570163232516 47.76663685212927
  endloop
endfacet
facet normal -1.6080268206501762e-16 -0.9403855502790549 0.3401103009706692
  outer loop
    vertex -2.8199664825478976e-14 39.80616001937973 41.795807245613105
    vertex 107.95000000000002 41.967570163232516 47.76663685212927
    vertex 6.350000000000014 41.96757016323254 47.76663685212922
  endloop
endfacet
facet normal -0.0 0.9396926207859089 0.3420201433256678
  outer loop
    vertex 0.0 -15.063412293353508 47.73638513592407
    vertex 114.3 0.0 6.35
    vertex 0.0 0.0 6.35
  endloop
endfacet
facet normal -0.0 0.9396926207859089 0.3420201433256678
  outer loop
    vertex 114.3 0.0 6.35
    vertex 0.0 -15.063412293353508 47.73638513592407
    vertex 114.3 -15.063412293353508 47.73638513592407
  endloop
endfacet
facet normal 1.0 -3.3411734669232196e-15 1.2087913745411224e-15
  outer loop
    vertex 114.30000000000001 44.338467074674064 35.66052242420119
    vertex 114.3 39.80616001937971 41.795807245613105
    vertex 114.3 38.08524998808699 37.0371940080342
  endloop
endfacet
facet normal 1.0 -3.3411734669232196e-15 1.2087913745411224e-15
  outer loop
    vertex 114.3 39.80616001937971 41.795807245613105
    vertex 114.30000000000001 44.338467074674064 35.66052242420119
    vertex 114.30000000000001 45.77698962589585 39.63439710176024
  endloop
endfacet
facet normal 1.0 -4.0869847892833674e-16 -4.24626897387772e-17
  outer loop
    vertex 120.64999999999999 -4.446317867631593 -5.0759396685862156e-14
    vertex 120.64999999999999 -19.13285031940776 49.63399525186032
    vertex 120.64999999999999 -22.116374390403053 48.54808129680132
  endloop
endfacet
facet normal 1.0 -4.0869847892833674e-16 -4.24626897387772e-17
  outer loop
    vertex 120.64999999999999 -19.13285031940776 49.63399525186032
    vertex 120.64999999999999 -4.446317867631593 -5.0759396685862156e-14
    vertex 120.65000000000002 44.33846707467406 35.66052242420119
  endloop
endfacet
facet normal 1.0 -4.0869847892833674e-16 -4.24626897387772e-17
  outer loop
    vertex 120.65000000000002 44.33846707467406 35.66052242420119
    vertex 120.64999999999999 -4.446317867631593 -5.0759396685862156e-14
    vertex 120.65000000000002 31.433807575329272 0.011794106794368408
  endloop
endfacet
facet normal -1.0 2.5270508720732715e-16 2.878529454165509e-17
  outer loop
    vertex 114.3 38.08524998808699 37.0371940080342
    vertex 114.3 -15.063412293353508 47.73638513592407
    vertex 114.3 -19.13285031940777 49.63399525186035
  endloop
endfacet
facet normal -1.0 2.5270508720732715e-16 2.878529454165509e-17
  outer loop
    vertex 114.3 -15.063412293353508 47.73638513592407
    vertex 114.3 38.08524998808699 37.0371940080342
    vertex 114.3 0.0 6.35
  endloop
endfacet
facet normal -1.0 2.5270508720732715e-16 2.878529454165509e-17
  outer loop
    vertex 114.3 0.0 6.35
    vertex 114.3 38.08524998808699 37.0371940080342
    vertex 114.3 26.987499999999997 6.35
  endloop
endfacet
facet normal -5.2013658448279156e-17 0.940288127010419 -0.34037955021305005
  outer loop
    vertex 3.665956427312267e-14 45.77698962589587 39.634397101760236
    vertex 114.30000000000001 44.338467074674064 35.66052242420119
    vertex 2.255973186038318e-14 44.33846707467404 35.66052242420119
  endloop
endfacet
facet normal -5.2013658448279156e-17 0.940288127010419 -0.34037955021305005
  outer loop
    vertex 114.30000000000001 44.338467074674064 35.66052242420119
    vertex 3.665956427312267e-14 45.77698962589587 39.634397101760236
    vertex 114.30000000000001 45.77698962589585 39.63439710176024
  endloop
endfacet
facet normal -5.2013658448279156e-17 0.940288127010419 -0.34037955021305005
  outer loop
    vertex 114.30000000000001 45.77698962589585 39.63439710176024
    vertex 3.665956427312267e-14 45.77698962589587 39.634397101760236
    vertex 6.350000000000042 47.938399769748756 45.60522670827637
  endloop
endfacet
facet normal -5.2013658448279156e-17 0.940288127010419 -0.34037955021305005
  outer loop
    vertex 114.30000000000001 45.77698962589585 39.63439710176024
    vertex 6.350000000000042 47.938399769748756 45.60522670827637
    vertex 107.95000000000002 47.93839976974876 45.60522670827637
  endloop
endfacet
facet normal -5.2013658448279156e-17 0.940288127010419 -0.34037955021305005
  outer loop
    vertex -6.349999999999977 31.433807575329265 0.011794106794372637
    vertex 120.65000000000002 44.33846707467406 35.66052242420119
    vertex 120.65000000000002 31.433807575329272 0.011794106794368408
  endloop
endfacet
facet normal -5.2013658448279156e-17 0.940288127010419 -0.34037955021305005
  outer loop
    vertex 120.65000000000002 44.33846707467406 35.66052242420119
    vertex -6.349999999999977 31.433807575329265 0.011794106794372637
    vertex -6.349999999999977 44.33846707467404 35.66052242420119
  endloop
endfacet
facet normal -5.2013658448279156e-17 0.940288127010419 -0.34037955021305005
  outer loop
    vertex 120.65000000000002 44.33846707467406 35.66052242420119
    vertex -6.349999999999977 44.33846707467404 35.66052242420119
    vertex 2.255973186038318e-14 44.33846707467404 35.66052242420119
  endloop
endfacet
facet normal -5.2013658448279156e-17 0.940288127010419 -0.34037955021305005
  outer loop
    vertex 120.65000000000002 44.33846707467406 35.66052242420119
    vertex 2.255973186038318e-14 44.33846707467404 35.66052242420119
    vertex 114.30000000000001 44.338467074674064 35.66052242420119
  endloop
endfacet
facet normal 1.0 3.575745745483123e-17 2.738151485892542e-17
  outer loop
    vertex 0.0 -15.063412293353508 47.73638513592407
    vertex -2.038355025934847e-15 38.08524998808701 37.03719400803419
    vertex 0.0 -19.13285031940777 49.63399525186035
  endloop
endfacet
facet normal 1.0 3.575745745483123e-17 2.738151485892542e-17
  outer loop
    vertex -2.038355025934847e-15 38.08524998808701 37.03719400803419
    vertex 0.0 -15.063412293353508 47.73638513592407
    vertex 0.0 0.0 6.35
  endloop
endfacet
facet normal 1.0 3.575745745483123e-17 2.738151485892542e-17
  outer loop
    vertex -2.038355025934847e-15 38.08524998808701 37.03719400803419
    vertex 0.0 0.0 6.35
    vertex 0.0 26.987499999999997 6.35
  endloop
endfacet
facet normal -1.79273955486315e-17 -0.9396926207859083 -0.34202014332566927
  outer loop
    vertex 120.64999999999999 -22.116374390403053 48.54808129680132
    vertex -6.35 -4.446317867631591 -4.6529446962040307e-14
    vertex 120.64999999999999 -4.446317867631593 -5.0759396685862156e-14
  endloop
endfacet
facet normal -1.79273955486315e-17 -0.9396926207859083 -0.34202014332566927
  outer loop
    vertex -6.35 -4.446317867631591 -4.6529446962040307e-14
    vertex 120.64999999999999 -22.116374390403053 48.54808129680132
    vertex -6.35 -22.116374390403053 48.54808129680132
  endloop
endfacet
facet normal -1.0 4.0869847892833684e-16 4.2462689738777204e-17
  outer loop
    vertex -6.35 -19.13285031940776 49.63399525186035
    vertex -6.35 -4.446317867631591 -4.6529446962040307e-14
    vertex -6.35 -22.116374390403053 48.54808129680132
  endloop
endfacet
facet normal -1.0 4.0869847892833684e-16 4.2462689738777204e-17
  outer loop
    vertex -6.35 -4.446317867631591 -4.6529446962040307e-14
    vertex -6.35 -19.13285031940776 49.63399525186035
    vertex -6.349999999999977 44.33846707467404 35.66052242420119
  endloop
endfacet
facet normal -1.0 4.0869847892833684e-16 4.2462689738777204e-17
  outer loop
    vertex -6.35 -4.446317867631591 -4.6529446962040307e-14
    vertex -6.349999999999977 44.33846707467404 35.66052242420119
    vertex -6.349999999999977 31.433807575329265 0.011794106794372637
  endloop
endfacet
facet normal 2.090532097514287e-16 0.21500535905236662 0.9766128688373725
  outer loop
    vertex 2.255973186038318e-14 44.33846707467404 35.66052242420119
    vertex -6.349999999999977 44.33846707467404 35.66052242420119
    vertex -2.038355025934847e-15 38.08524998808701 37.03719400803419
  endloop
endfacet
facet normal 2.090532097514287e-16 0.21500535905236662 0.9766128688373725
  outer loop
    vertex 0.0 -19.13285031940777 49.63399525186035
    vertex -6.349999999999977 44.33846707467404 35.66052242420119
    vertex -6.35 -19.13285031940776 49.63399525186035
  endloop
endfacet
facet normal 2.090532097514287e-16 0.21500535905236662 0.9766128688373725
  outer loop
    vertex -6.349999999999977 44.33846707467404 35.66052242420119
    vertex 0.0 -19.13285031940777 49.63399525186035
    vertex -2.038355025934847e-15 38.08524998808701 37.03719400803419
  endloop
endfacet
facet normal -1.8403286308234594e-17 0.0003287086098959052 -0.9999999459753235
  outer loop
    vertex -6.349999999999977 31.433807575329265 0.011794106794372637
    vertex 120.64999999999999 -4.446317867631593 -5.0759396685862156e-14
    vertex -6.35 -4.446317867631591 -4.6529446962040307e-14
  endloop
endfacet
facet normal -1.8403286308234594e-17 0.0003287086098959052 -0.9999999459753235
  outer loop
    vertex 120.64999999999999 -4.446317867631593 -5.0759396685862156e-14
    vertex -6.349999999999977 31.433807575329265 0.011794106794372637
    vertex 120.65000000000002 31.433807575329272 0.011794106794368408
  endloop
endfacet
facet normal 1.7769522828871364e-15 0.21500535905236642 0.9766128688373725
  outer loop
    vertex 120.64999999999999 -19.13285031940776 49.63399525186032
    vertex 114.3 38.08524998808699 37.0371940080342
    vertex 114.3 -19.13285031940777 49.63399525186035
  endloop
endfacet
facet normal 1.7769522828871364e-15 0.21500535905236642 0.9766128688373725
  outer loop
    vertex 114.3 38.08524998808699 37.0371940080342
    vertex 120.64999999999999 -19.13285031940776 49.63399525186032
    vertex 114.30000000000001 44.338467074674064 35.66052242420119
  endloop
endfacet
facet normal 1.7769522828871364e-15 0.21500535905236642 0.9766128688373725
  outer loop
    vertex 114.30000000000001 44.338467074674064 35.66052242420119
    vertex 120.64999999999999 -19.13285031940776 49.63399525186032
    vertex 120.65000000000002 44.33846707467406 35.66052242420119
  endloop
endfacet
facet normal 7.026194032258936e-17 -0.34202014332567227 0.9396926207859071
  outer loop
    vertex 120.64999999999999 -22.116374390403053 48.54808129680132
    vertex -6.35 -19.13285031940776 49.63399525186035
    vertex -6.35 -22.116374390403053 48.54808129680132
  endloop
endfacet
facet normal 7.026194032258936e-17 -0.34202014332567227 0.9396926207859071
  outer loop
    vertex -6.35 -19.13285031940776 49.63399525186035
    vertex 120.64999999999999 -22.116374390403053 48.54808129680132
    vertex 0.0 -19.13285031940777 49.63399525186035
  endloop
endfacet
facet normal 7.026194032258936e-17 -0.34202014332567227 0.9396926207859071
  outer loop
    vertex 0.0 -19.13285031940777 49.63399525186035
    vertex 120.64999999999999 -22.116374390403053 48.54808129680132
    vertex 114.3 -19.13285031940777 49.63399525186035
  endloop
endfacet
facet normal 7.026194032258936e-17 -0.34202014332567227 0.9396926207859071
  outer loop
    vertex 114.3 -19.13285031940777 49.63399525186035
    vertex 120.64999999999999 -22.116374390403053 48.54808129680132
    vertex 120.64999999999999 -19.13285031940776 49.63399525186032
  endloop
endfacet
endsolid Loader
