solid Loader Arm
facet normal 0.0 0.0 -1.0
  outer loop
    vertex 1.8038710030644167 134.993500936401 0.0
    vertex 1.803871003064416 131.70649906359898 0.0
    vertex 1.5875 133.35 0.0
  endloop
endfacet
facet normal 0.0 0.0 -1.0
  outer loop
    vertex 1.803871003064416 131.70649906359898 0.0
    vertex 1.8038710030644167 134.993500936401 0.0
    vertex 22.224999999999998 76.19999999999999 0.0
  endloop
endfacet
facet normal 0.0 0.0 -1.0
  outer loop
    vertex 22.224999999999998 76.19999999999999 0.0
    vertex 1.8038710030644167 134.993500936401 0.0
    vertex 2.4382386859688148 136.525 0.0
  endloop
endfacet
facet normal 0.0 0.0 -1.0
  outer loop
    vertex 22.224999999999998 76.19999999999999 0.0
    vertex 2.4382386859688148 136.525 0.0
    vertex 3.4473719394654236 137.84012806053457 0.0
  endloop
endfacet
facet normal 0.0 0.0 -1.0
  outer loop
    vertex 22.224999999999998 76.19999999999999 0.0
    vertex 3.4473719394654236 137.84012806053457 0.0
    vertex 5.637389126149156 132.7336871488496 0.0
  endloop
endfacet
facet normal 0.0 0.0 -1.0
  outer loop
    vertex 5.637389126149156 132.7336871488496 0.0
    vertex 3.4473719394654236 137.84012806053457 0.0
    vertex 4.762499999999999 138.84926131403117 0.0
  endloop
endfacet
facet normal 0.0 0.0 -1.0
  outer loop
    vertex 5.637389126149156 132.7336871488496 0.0
    vertex 4.762499999999999 138.84926131403117 0.0
    vertex 5.5562499999999995 133.35 0.0
  endloop
endfacet
facet normal 0.0 0.0 -1.0
  outer loop
    vertex 22.224999999999998 76.19999999999999 0.0
    vertex 5.637389126149156 132.7336871488496 0.0
    vertex 5.875277007238305 132.15937499999998 0.0
  endloop
endfacet
facet normal 0.0 0.0 -1.0
  outer loop
    vertex 22.224999999999998 76.19999999999999 0.0
    vertex 5.875277007238305 132.15937499999998 0.0
    vertex 6.253701977299533 131.66620197729952 0.0
  endloop
endfacet
facet normal 0.0 0.0 -1.0
  outer loop
    vertex 22.224999999999998 76.19999999999999 0.0
    vertex 6.253701977299533 131.66620197729952 0.0
    vertex 6.746874999999998 131.2877770072383 0.0
  endloop
endfacet
facet normal 0.0 0.0 -1.0
  outer loop
    vertex 22.224999999999998 76.19999999999999 0.0
    vertex 6.746874999999998 131.2877770072383 0.0
    vertex 7.32118714884962 131.04988912614917 0.0
  endloop
endfacet
facet normal 0.0 0.0 -1.0
  outer loop
    vertex 22.224999999999998 76.19999999999999 0.0
    vertex 7.32118714884962 131.04988912614917 0.0
    vertex 7.9375 130.96875 0.0
  endloop
endfacet
facet normal 0.0 0.0 -1.0
  outer loop
    vertex 22.224999999999998 76.19999999999999 0.0
    vertex 7.9375 130.96875 0.0
    vertex 8.553812851150377 131.04988912614917 0.0
  endloop
endfacet
facet normal 0.0 0.0 -1.0
  outer loop
    vertex 22.224999999999998 76.19999999999999 0.0
    vertex 8.553812851150377 131.04988912614917 0.0
    vertex 9.128124999999999 131.2877770072383 0.0
  endloop
endfacet
facet normal 0.0 0.0 -1.0
  outer loop
    vertex 22.224999999999998 76.19999999999999 0.0
    vertex 9.128124999999999 131.2877770072383 0.0
    vertex 9.621298022700465 131.66620197729952 0.0
  endloop
endfacet
facet normal 0.0 0.0 -1.0
  outer loop
    vertex 22.224999999999998 76.19999999999999 0.0
    vertex 9.621298022700465 131.66620197729952 0.0
    vertex 9.999722992761694 132.15937499999998 0.0
  endloop
endfacet
facet normal 0.0 0.0 -1.0
  outer loop
    vertex 22.224999999999998 76.19999999999999 0.0
    vertex 9.999722992761694 132.15937499999998 0.0
    vertex 10.237610873850844 132.7336871488496 0.0
  endloop
endfacet
facet normal 0.0 0.0 -1.0
  outer loop
    vertex 22.224999999999998 76.19999999999999 0.0
    vertex 10.237610873850844 132.7336871488496 0.0
    vertex 10.31875 133.35 0.0
  endloop
endfacet
facet normal 0.0 0.0 -1.0
  outer loop
    vertex 22.224999999999998 76.19999999999999 0.0
    vertex 10.31875 133.35 0.0
    vertex 11.112500000000002 138.84926131403117 0.0
  endloop
endfacet
facet normal 0.0 0.0 -1.0
  outer loop
    vertex 22.224999999999998 76.19999999999999 0.0
    vertex 11.112500000000002 138.84926131403117 0.0
    vertex 12.427628060534577 137.84012806053457 0.0
  endloop
endfacet
facet normal 0.0 0.0 -1.0
  outer loop
    vertex 22.224999999999998 76.19999999999999 0.0
    vertex 12.427628060534577 137.84012806053457 0.0
    vertex 13.43676131403119 136.525 0.0
  endloop
endfacet
facet normal 0.0 0.0 -1.0
  outer loop
    vertex 22.224999999999998 76.19999999999999 0.0
    vertex 13.43676131403119 136.525 0.0
    vertex 14.076423405448297 134.95328591116612 0.0
  endloop
endfacet
facet normal 0.0 0.0 -1.0
  outer loop
    vertex 22.224999999999998 76.19999999999999 0.0
    vertex 14.076423405448297 134.95328591116612 0.0
    vertex 47.625 76.21376722970396 0.0
  endloop
endfacet
facet normal 0.0 0.0 -1.0
  outer loop
    vertex 22.224999999999998 76.19999999999999 0.0
    vertex 47.625 76.21376722970396 0.0
    vertex 32.02046375383051 5.883123829498745 0.0
  endloop
endfacet
facet normal 0.0 0.0 -1.0
  outer loop
    vertex 32.02046375383051 5.883123829498745 0.0
    vertex 47.625 76.21376722970396 0.0
    vertex 32.81342335746101 3.9687500000000053 0.0
  endloop
endfacet
facet normal 0.0 0.0 -1.0
  outer loop
    vertex 32.81342335746101 3.9687500000000053 0.0
    vertex 47.625 76.21376722970396 0.0
    vertex 34.074839924331776 2.3248399243317794 0.0
  endloop
endfacet
facet normal 0.0 0.0 -1.0
  outer loop
    vertex 34.074839924331776 2.3248399243317794 0.0
    vertex 47.625 76.21376722970396 0.0
    vertex 35.71874999999999 1.0634233574610203 0.0
  endloop
endfacet
facet normal 0.0 0.0 -1.0
  outer loop
    vertex 35.71874999999999 1.0634233574610203 0.0
    vertex 47.625 76.21376722970396 0.0
    vertex 37.3410057143084 8.34285926006037 0.0
  endloop
endfacet
facet normal 0.0 0.0 -1.0
  outer loop
    vertex 35.71874999999999 1.0634233574610203 0.0
    vertex 37.3410057143084 8.34285926006037 0.0
    vertex 37.316045871598476 7.721729567856517 0.0
  endloop
endfacet
facet normal 0.0 0.0 -1.0
  outer loop
    vertex 37.3410057143084 8.34285926006037 0.0
    vertex 47.625 76.21376722970396 0.0
    vertex 37.52587526482305 8.936364388578957 0.0
  endloop
endfacet
facet normal 0.0 0.0 -1.0
  outer loop
    vertex 37.52587526482305 8.936364388578957 0.0
    vertex 47.625 76.21376722970396 0.0
    vertex 37.858055968786246 9.46179855971734 0.0
  endloop
endfacet
facet normal 0.0 0.0 -1.0
  outer loop
    vertex 37.858055968786246 9.46179855971734 0.0
    vertex 47.625 76.21376722970396 0.0
    vertex 38.314910260177435 9.883354303033459 0.0
  endloop
endfacet
facet normal 0.0 0.0 -1.0
  outer loop
    vertex 38.314910260177435 9.883354303033459 0.0
    vertex 47.625 76.21376722970396 0.0
    vertex 38.86530427402574 10.172303291274126 0.0
  endloop
endfacet
facet normal 0.0 0.0 -1.0
  outer loop
    vertex 38.86530427402574 10.172303291274126 0.0
    vertex 47.625 76.21376722970396 0.0
    vertex 39.471729567856514 10.30895412840152 0.0
  endloop
endfacet
facet normal 0.0 0.0 -1.0
  outer loop
    vertex 39.471729567856514 10.30895412840152 0.0
    vertex 47.625 76.21376722970396 0.0
    vertex 40.092859260060365 10.283994285691595 0.0
  endloop
endfacet
facet normal 0.0 0.0 -1.0
  outer loop
    vertex 40.092859260060365 10.283994285691595 0.0
    vertex 47.625 76.21376722970396 0.0
    vertex 40.68636438857895 10.099124735176941 0.0
  endloop
endfacet
facet normal 0.0 0.0 -1.0
  outer loop
    vertex 40.68636438857895 10.099124735176941 0.0
    vertex 47.625 76.21376722970396 0.0
    vertex 41.21179855971734 9.766944031213757 0.0
  endloop
endfacet
facet normal 0.0 0.0 -1.0
  outer loop
    vertex 41.21179855971734 9.766944031213757 0.0
    vertex 47.625 76.21376722970396 0.0
    vertex 41.63335430303346 9.310089739822562 0.0
  endloop
endfacet
facet normal 0.0 0.0 -1.0
  outer loop
    vertex 41.63335430303346 9.310089739822562 0.0
    vertex 47.625 76.21376722970396 0.0
    vertex 41.92230329127412 8.759695725974256 0.0
  endloop
endfacet
facet normal 0.0 0.0 -1.0
  outer loop
    vertex 41.92230329127412 8.759695725974256 0.0
    vertex 47.625 76.21376722970396 0.0
    vertex 42.05895412840152 8.153270432143481 0.0
  endloop
endfacet
facet normal 0.0 0.0 -1.0
  outer loop
    vertex 42.05895412840152 8.153270432143481 0.0
    vertex 47.625 76.21376722970396 0.0
    vertex 43.65625 1.0634233574610175 0.0
  endloop
endfacet
facet normal 0.0 0.0 -1.0
  outer loop
    vertex 43.65625 1.0634233574610175 0.0
    vertex 47.625 76.21376722970396 0.0
    vertex 45.30016007566822 2.3248399243317786 0.0
  endloop
endfacet
facet normal 0.0 0.0 -1.0
  outer loop
    vertex 45.30016007566822 2.3248399243317786 0.0
    vertex 47.625 76.21376722970396 0.0
    vertex 46.561576642538974 3.968749999999999 0.0
  endloop
endfacet
facet normal 0.0 0.0 -1.0
  outer loop
    vertex 46.561576642538974 3.968749999999999 0.0
    vertex 47.625 76.21376722970396 0.0
    vertex 47.354536246169474 5.88312382949874 0.0
  endloop
endfacet
facet normal 0.0 0.0 -1.0
  outer loop
    vertex 47.354536246169474 5.88312382949874 0.0
    vertex 47.625 76.21376722970396 0.0
    vertex 47.625 7.9375 0.0
  endloop
endfacet
facet normal 0.0 0.0 -1.0
  outer loop
    vertex 37.316045871598476 7.721729567856517 0.0
    vertex 37.633123829498736 0.27046375383052185 0.0
    vertex 35.71874999999999 1.0634233574610203 0.0
  endloop
endfacet
facet normal 0.0 0.0 -1.0
  outer loop
    vertex 37.633123829498736 0.27046375383052185 0.0
    vertex 37.316045871598476 7.721729567856517 0.0
    vertex 37.452696708725874 7.1153042740257435 0.0
  endloop
endfacet
facet normal 0.0 0.0 -1.0
  outer loop
    vertex 37.633123829498736 0.27046375383052185 0.0
    vertex 37.452696708725874 7.1153042740257435 0.0
    vertex 37.74164569696654 6.564910260177437 0.0
  endloop
endfacet
facet normal 0.0 0.0 -1.0
  outer loop
    vertex 37.633123829498736 0.27046375383052185 0.0
    vertex 37.74164569696654 6.564910260177437 0.0
    vertex 39.6875 0.0 0.0
  endloop
endfacet
facet normal 0.0 0.0 -1.0
  outer loop
    vertex 39.6875 0.0 0.0
    vertex 37.74164569696654 6.564910260177437 0.0
    vertex 38.163201440282656 6.108055968786243 0.0
  endloop
endfacet
facet normal 0.0 0.0 -1.0
  outer loop
    vertex 39.6875 0.0 0.0
    vertex 38.163201440282656 6.108055968786243 0.0
    vertex 38.688635611421034 5.775875264823058 0.0
  endloop
endfacet
facet normal 0.0 0.0 -1.0
  outer loop
    vertex 39.6875 0.0 0.0
    vertex 38.688635611421034 5.775875264823058 0.0
    vertex 39.28214073993963 5.591005714308404 0.0
  endloop
endfacet
facet normal 0.0 0.0 -1.0
  outer loop
    vertex 39.6875 0.0 0.0
    vertex 39.28214073993963 5.591005714308404 0.0
    vertex 39.90327043214348 5.566045871598479 0.0
  endloop
endfacet
facet normal 0.0 0.0 -1.0
  outer loop
    vertex 39.6875 0.0 0.0
    vertex 39.90327043214348 5.566045871598479 0.0
    vertex 41.74187617050126 0.27046375383052046 0.0
  endloop
endfacet
facet normal 0.0 0.0 -1.0
  outer loop
    vertex 41.74187617050126 0.27046375383052046 0.0
    vertex 39.90327043214348 5.566045871598479 0.0
    vertex 40.509695725974254 5.702696708725873 0.0
  endloop
endfacet
facet normal 0.0 0.0 -1.0
  outer loop
    vertex 41.74187617050126 0.27046375383052046 0.0
    vertex 40.509695725974254 5.702696708725873 0.0
    vertex 41.06008973982256 5.99164569696654 0.0
  endloop
endfacet
facet normal 0.0 0.0 -1.0
  outer loop
    vertex 41.74187617050126 0.27046375383052046 0.0
    vertex 41.06008973982256 5.99164569696654 0.0
    vertex 41.516944031213754 6.413201440282659 0.0
  endloop
endfacet
facet normal 0.0 0.0 -1.0
  outer loop
    vertex 41.74187617050126 0.27046375383052046 0.0
    vertex 41.516944031213754 6.413201440282659 0.0
    vertex 41.84912473517694 6.9386356114210415 0.0
  endloop
endfacet
facet normal 0.0 0.0 -1.0
  outer loop
    vertex 41.74187617050126 0.27046375383052046 0.0
    vertex 41.84912473517694 6.9386356114210415 0.0
    vertex 43.65625 1.0634233574610175 0.0
  endloop
endfacet
facet normal 0.0 0.0 -1.0
  outer loop
    vertex 43.65625 1.0634233574610175 0.0
    vertex 41.84912473517694 6.9386356114210415 0.0
    vertex 42.03399428569159 7.53214073993963 0.0
  endloop
endfacet
facet normal 0.0 0.0 -1.0
  outer loop
    vertex 43.65625 1.0634233574610175 0.0
    vertex 42.03399428569159 7.53214073993963 0.0
    vertex 42.05895412840152 8.153270432143481 0.0
  endloop
endfacet
facet normal 0.0 0.0 -1.0
  outer loop
    vertex 6.293999063598993 139.48362899693558 0.0
    vertex 5.5562499999999995 133.35 0.0
    vertex 4.762499999999999 138.84926131403117 0.0
  endloop
endfacet
facet normal 0.0 0.0 -1.0
  outer loop
    vertex 5.5562499999999995 133.35 0.0
    vertex 6.293999063598993 139.48362899693558 0.0
    vertex 5.637389126149157 133.96631285115038 0.0
  endloop
endfacet
facet normal 0.0 0.0 -1.0
  outer loop
    vertex 5.637389126149157 133.96631285115038 0.0
    vertex 6.293999063598993 139.48362899693558 0.0
    vertex 5.875277007238306 134.540625 0.0
  endloop
endfacet
facet normal 0.0 0.0 -1.0
  outer loop
    vertex 5.875277007238306 134.540625 0.0
    vertex 6.293999063598993 139.48362899693558 0.0
    vertex 6.253701977299534 135.03379802270044 0.0
  endloop
endfacet
facet normal 0.0 0.0 -1.0
  outer loop
    vertex 6.253701977299534 135.03379802270044 0.0
    vertex 6.293999063598993 139.48362899693558 0.0
    vertex 6.746874999999999 135.41222299276168 0.0
  endloop
endfacet
facet normal 0.0 0.0 -1.0
  outer loop
    vertex 6.746874999999999 135.41222299276168 0.0
    vertex 6.293999063598993 139.48362899693558 0.0
    vertex 7.9375 139.7 0.0
  endloop
endfacet
facet normal 0.0 0.0 -1.0
  outer loop
    vertex 6.746874999999999 135.41222299276168 0.0
    vertex 7.9375 139.7 0.0
    vertex 7.3211871488496225 135.65011087385082 0.0
  endloop
endfacet
facet normal 0.0 0.0 -1.0
  outer loop
    vertex 7.3211871488496225 135.65011087385082 0.0
    vertex 7.9375 139.7 0.0
    vertex 7.9375 135.73125 0.0
  endloop
endfacet
facet normal 0.0 0.0 -1.0
  outer loop
    vertex 7.9375 135.73125 0.0
    vertex 7.9375 139.7 0.0
    vertex 9.581000936401011 139.48362899693558 0.0
  endloop
endfacet
facet normal 0.0 0.0 -1.0
  outer loop
    vertex 7.9375 135.73125 0.0
    vertex 9.581000936401011 139.48362899693558 0.0
    vertex 8.553812851150377 135.65011087385082 0.0
  endloop
endfacet
facet normal 0.0 0.0 -1.0
  outer loop
    vertex 8.553812851150377 135.65011087385082 0.0
    vertex 9.581000936401011 139.48362899693558 0.0
    vertex 9.128124999999999 135.41222299276168 0.0
  endloop
endfacet
facet normal 0.0 0.0 -1.0
  outer loop
    vertex 9.128124999999999 135.41222299276168 0.0
    vertex 9.581000936401011 139.48362899693558 0.0
    vertex 9.621298022700465 135.03379802270044 0.0
  endloop
endfacet
facet normal 0.0 0.0 -1.0
  outer loop
    vertex 9.621298022700465 135.03379802270044 0.0
    vertex 9.581000936401011 139.48362899693558 0.0
    vertex 11.112500000000002 138.84926131403117 0.0
  endloop
endfacet
facet normal 0.0 0.0 -1.0
  outer loop
    vertex 9.621298022700465 135.03379802270044 0.0
    vertex 11.112500000000002 138.84926131403117 0.0
    vertex 9.999722992761694 134.540625 0.0
  endloop
endfacet
facet normal 0.0 0.0 -1.0
  outer loop
    vertex 9.999722992761694 134.540625 0.0
    vertex 11.112500000000002 138.84926131403117 0.0
    vertex 10.237610873850844 133.96631285115038 0.0
  endloop
endfacet
facet normal 0.0 0.0 -1.0
  outer loop
    vertex 10.237610873850844 133.96631285115038 0.0
    vertex 11.112500000000002 138.84926131403117 0.0
    vertex 10.31875 133.35 0.0
  endloop
endfacet
facet normal 0.0 0.0 1.0
  outer loop
    vertex 37.633123829498736 0.27046375383052185 9.524999999999999
    vertex 37.316045871598476 7.721729567856517 9.524999999999999
    vertex 35.71874999999999 1.0634233574610203 9.524999999999999
  endloop
endfacet
facet normal 0.0 0.0 1.0
  outer loop
    vertex 37.316045871598476 7.721729567856517 9.524999999999999
    vertex 37.633123829498736 0.27046375383052185 9.524999999999999
    vertex 37.452696708725874 7.1153042740257435 9.524999999999999
  endloop
endfacet
facet normal 0.0 0.0 1.0
  outer loop
    vertex 37.452696708725874 7.1153042740257435 9.524999999999999
    vertex 37.633123829498736 0.27046375383052185 9.524999999999999
    vertex 37.74164569696654 6.564910260177437 9.524999999999999
  endloop
endfacet
facet normal 0.0 0.0 1.0
  outer loop
    vertex 37.74164569696654 6.564910260177437 9.524999999999999
    vertex 37.633123829498736 0.27046375383052185 9.524999999999999
    vertex 39.6875 0.0 9.524999999999999
  endloop
endfacet
facet normal 0.0 0.0 1.0
  outer loop
    vertex 37.74164569696654 6.564910260177437 9.524999999999999
    vertex 39.6875 0.0 9.524999999999999
    vertex 38.163201440282656 6.108055968786243 9.524999999999999
  endloop
endfacet
facet normal 0.0 0.0 1.0
  outer loop
    vertex 38.163201440282656 6.108055968786243 9.524999999999999
    vertex 39.6875 0.0 9.524999999999999
    vertex 38.688635611421034 5.775875264823058 9.524999999999999
  endloop
endfacet
facet normal 0.0 0.0 1.0
  outer loop
    vertex 38.688635611421034 5.775875264823058 9.524999999999999
    vertex 39.6875 0.0 9.524999999999999
    vertex 39.28214073993963 5.591005714308404 9.524999999999999
  endloop
endfacet
facet normal 0.0 0.0 1.0
  outer loop
    vertex 39.28214073993963 5.591005714308404 9.524999999999999
    vertex 39.6875 0.0 9.524999999999999
    vertex 39.90327043214348 5.566045871598479 9.524999999999999
  endloop
endfacet
facet normal 0.0 0.0 1.0
  outer loop
    vertex 39.90327043214348 5.566045871598479 9.524999999999999
    vertex 39.6875 0.0 9.524999999999999
    vertex 41.74187617050126 0.27046375383052046 9.524999999999999
  endloop
endfacet
facet normal 0.0 0.0 1.0
  outer loop
    vertex 39.90327043214348 5.566045871598479 9.524999999999999
    vertex 41.74187617050126 0.27046375383052046 9.524999999999999
    vertex 40.509695725974254 5.702696708725873 9.524999999999999
  endloop
endfacet
facet normal 0.0 0.0 1.0
  outer loop
    vertex 40.509695725974254 5.702696708725873 9.524999999999999
    vertex 41.74187617050126 0.27046375383052046 9.524999999999999
    vertex 41.06008973982256 5.99164569696654 9.524999999999999
  endloop
endfacet
facet normal 0.0 0.0 1.0
  outer loop
    vertex 41.06008973982256 5.99164569696654 9.524999999999999
    vertex 41.74187617050126 0.27046375383052046 9.524999999999999
    vertex 41.516944031213754 6.413201440282659 9.524999999999999
  endloop
endfacet
facet normal 0.0 0.0 1.0
  outer loop
    vertex 41.516944031213754 6.413201440282659 9.524999999999999
    vertex 41.74187617050126 0.27046375383052046 9.524999999999999
    vertex 41.84912473517694 6.9386356114210415 9.524999999999999
  endloop
endfacet
facet normal 0.0 0.0 1.0
  outer loop
    vertex 41.84912473517694 6.9386356114210415 9.524999999999999
    vertex 41.74187617050126 0.27046375383052046 9.524999999999999
    vertex 43.65625 1.0634233574610175 9.524999999999999
  endloop
endfacet
facet normal 0.0 0.0 1.0
  outer loop
    vertex 41.84912473517694 6.9386356114210415 9.524999999999999
    vertex 43.65625 1.0634233574610175 9.524999999999999
    vertex 42.03399428569159 7.53214073993963 9.524999999999999
  endloop
endfacet
facet normal 0.0 0.0 1.0
  outer loop
    vertex 42.03399428569159 7.53214073993963 9.524999999999999
    vertex 43.65625 1.0634233574610175 9.524999999999999
    vertex 42.05895412840152 8.153270432143481 9.524999999999999
  endloop
endfacet
facet normal 0.0 0.0 1.0
  outer loop
    vertex 1.803871003064416 131.70649906359898 9.524999999999999
    vertex 1.8038710030644167 134.993500936401 9.524999999999999
    vertex 1.5875 133.35 9.524999999999999
  endloop
endfacet
facet normal 0.0 0.0 1.0
  outer loop
    vertex 1.8038710030644167 134.993500936401 9.524999999999999
    vertex 1.803871003064416 131.70649906359898 9.524999999999999
    vertex 22.224999999999998 76.19999999999999 9.524999999999999
  endloop
endfacet
facet normal 0.0 0.0 1.0
  outer loop
    vertex 1.8038710030644167 134.993500936401 9.524999999999999
    vertex 22.224999999999998 76.19999999999999 9.524999999999999
    vertex 2.4382386859688148 136.525 9.524999999999999
  endloop
endfacet
facet normal 0.0 0.0 1.0
  outer loop
    vertex 2.4382386859688148 136.525 9.524999999999999
    vertex 22.224999999999998 76.19999999999999 9.524999999999999
    vertex 3.4473719394654236 137.84012806053457 9.524999999999999
  endloop
endfacet
facet normal 0.0 0.0 1.0
  outer loop
    vertex 3.4473719394654236 137.84012806053457 9.524999999999999
    vertex 22.224999999999998 76.19999999999999 9.524999999999999
    vertex 5.637389126149156 132.7336871488496 9.524999999999999
  endloop
endfacet
facet normal 0.0 0.0 1.0
  outer loop
    vertex 3.4473719394654236 137.84012806053457 9.524999999999999
    vertex 5.637389126149156 132.7336871488496 9.524999999999999
    vertex 4.762499999999999 138.84926131403117 9.524999999999999
  endloop
endfacet
facet normal 0.0 0.0 1.0
  outer loop
    vertex 4.762499999999999 138.84926131403117 9.524999999999999
    vertex 5.637389126149156 132.7336871488496 9.524999999999999
    vertex 5.5562499999999995 133.35 9.524999999999999
  endloop
endfacet
facet normal 0.0 0.0 1.0
  outer loop
    vertex 5.637389126149156 132.7336871488496 9.524999999999999
    vertex 22.224999999999998 76.19999999999999 9.524999999999999
    vertex 5.875277007238305 132.15937499999998 9.524999999999999
  endloop
endfacet
facet normal 0.0 0.0 1.0
  outer loop
    vertex 5.875277007238305 132.15937499999998 9.524999999999999
    vertex 22.224999999999998 76.19999999999999 9.524999999999999
    vertex 6.253701977299533 131.66620197729952 9.524999999999999
  endloop
endfacet
facet normal 0.0 0.0 1.0
  outer loop
    vertex 6.253701977299533 131.66620197729952 9.524999999999999
    vertex 22.224999999999998 76.19999999999999 9.524999999999999
    vertex 6.746874999999998 131.2877770072383 9.524999999999999
  endloop
endfacet
facet normal 0.0 0.0 1.0
  outer loop
    vertex 6.746874999999998 131.2877770072383 9.524999999999999
    vertex 22.224999999999998 76.19999999999999 9.524999999999999
    vertex 7.32118714884962 131.04988912614917 9.524999999999999
  endloop
endfacet
facet normal 0.0 0.0 1.0
  outer loop
    vertex 7.32118714884962 131.04988912614917 9.524999999999999
    vertex 22.224999999999998 76.19999999999999 9.524999999999999
    vertex 7.9375 130.96875 9.524999999999999
  endloop
endfacet
facet normal 0.0 0.0 1.0
  outer loop
    vertex 7.9375 130.96875 9.524999999999999
    vertex 22.224999999999998 76.19999999999999 9.524999999999999
    vertex 8.553812851150377 131.04988912614917 9.524999999999999
  endloop
endfacet
facet normal 0.0 0.0 1.0
  outer loop
    vertex 8.553812851150377 131.04988912614917 9.524999999999999
    vertex 22.224999999999998 76.19999999999999 9.524999999999999
    vertex 9.128124999999999 131.2877770072383 9.524999999999999
  endloop
endfacet
facet normal 0.0 0.0 1.0
  outer loop
    vertex 9.128124999999999 131.2877770072383 9.524999999999999
    vertex 22.224999999999998 76.19999999999999 9.524999999999999
    vertex 9.621298022700465 131.66620197729952 9.524999999999999
  endloop
endfacet
facet normal 0.0 0.0 1.0
  outer loop
    vertex 9.621298022700465 131.66620197729952 9.524999999999999
    vertex 22.224999999999998 76.19999999999999 9.524999999999999
    vertex 9.999722992761694 132.15937499999998 9.524999999999999
  endloop
endfacet
facet normal 0.0 0.0 1.0
  outer loop
    vertex 9.999722992761694 132.15937499999998 9.524999999999999
    vertex 22.224999999999998 76.19999999999999 9.524999999999999
    vertex 10.237610873850844 132.7336871488496 9.524999999999999
  endloop
endfacet
facet normal 0.0 0.0 1.0
  outer loop
    vertex 10.237610873850844 132.7336871488496 9.524999999999999
    vertex 22.224999999999998 76.19999999999999 9.524999999999999
    vertex 10.31875 133.35 9.524999999999999
  endloop
endfacet
facet normal 0.0 0.0 1.0
  outer loop
    vertex 10.31875 133.35 9.524999999999999
    vertex 22.224999999999998 76.19999999999999 9.524999999999999
    vertex 11.112500000000002 138.84926131403117 9.524999999999999
  endloop
endfacet
facet normal 0.0 0.0 1.0
  outer loop
    vertex 11.112500000000002 138.84926131403117 9.524999999999999
    vertex 22.224999999999998 76.19999999999999 9.524999999999999
    vertex 12.427628060534577 137.84012806053457 9.524999999999999
  endloop
endfacet
facet normal 0.0 0.0 1.0
  outer loop
    vertex 12.427628060534577 137.84012806053457 9.524999999999999
    vertex 22.224999999999998 76.19999999999999 9.524999999999999
    vertex 13.43676131403119 136.525 9.524999999999999
  endloop
endfacet
facet normal 0.0 0.0 1.0
  outer loop
    vertex 13.43676131403119 136.525 9.524999999999999
    vertex 22.224999999999998 76.19999999999999 9.524999999999999
    vertex 14.076423405448297 134.95328591116612 9.524999999999999
  endloop
endfacet
facet normal 0.0 0.0 1.0
  outer loop
    vertex 14.076423405448297 134.95328591116612 9.524999999999999
    vertex 22.224999999999998 76.19999999999999 9.524999999999999
    vertex 47.625 76.21376722970396 9.524999999999999
  endloop
endfacet
facet normal 0.0 0.0 1.0
  outer loop
    vertex 47.625 76.21376722970396 9.524999999999999
    vertex 22.224999999999998 76.19999999999999 9.524999999999999
    vertex 32.02046375383051 5.883123829498745 9.524999999999999
  endloop
endfacet
facet normal 0.0 0.0 1.0
  outer loop
    vertex 47.625 76.21376722970396 9.524999999999999
    vertex 32.02046375383051 5.883123829498745 9.524999999999999
    vertex 32.81342335746101 3.9687500000000053 9.524999999999999
  endloop
endfacet
facet normal 0.0 0.0 1.0
  outer loop
    vertex 47.625 76.21376722970396 9.524999999999999
    vertex 32.81342335746101 3.9687500000000053 9.524999999999999
    vertex 34.074839924331776 2.3248399243317794 9.524999999999999
  endloop
endfacet
facet normal 0.0 0.0 1.0
  outer loop
    vertex 47.625 76.21376722970396 9.524999999999999
    vertex 34.074839924331776 2.3248399243317794 9.524999999999999
    vertex 35.71874999999999 1.0634233574610203 9.524999999999999
  endloop
endfacet
facet normal 0.0 0.0 1.0
  outer loop
    vertex 47.625 76.21376722970396 9.524999999999999
    vertex 35.71874999999999 1.0634233574610203 9.524999999999999
    vertex 37.3410057143084 8.34285926006037 9.524999999999999
  endloop
endfacet
facet normal 0.0 0.0 1.0
  outer loop
    vertex 37.3410057143084 8.34285926006037 9.524999999999999
    vertex 35.71874999999999 1.0634233574610203 9.524999999999999
    vertex 37.316045871598476 7.721729567856517 9.524999999999999
  endloop
endfacet
facet normal 0.0 0.0 1.0
  outer loop
    vertex 47.625 76.21376722970396 9.524999999999999
    vertex 37.3410057143084 8.34285926006037 9.524999999999999
    vertex 37.52587526482305 8.936364388578957 9.524999999999999
  endloop
endfacet
facet normal 0.0 0.0 1.0
  outer loop
    vertex 47.625 76.21376722970396 9.524999999999999
    vertex 37.52587526482305 8.936364388578957 9.524999999999999
    vertex 37.858055968786246 9.46179855971734 9.524999999999999
  endloop
endfacet
facet normal 0.0 0.0 1.0
  outer loop
    vertex 47.625 76.21376722970396 9.524999999999999
    vertex 37.858055968786246 9.46179855971734 9.524999999999999
    vertex 38.314910260177435 9.883354303033459 9.524999999999999
  endloop
endfacet
facet normal 0.0 0.0 1.0
  outer loop
    vertex 47.625 76.21376722970396 9.524999999999999
    vertex 38.314910260177435 9.883354303033459 9.524999999999999
    vertex 38.86530427402574 10.172303291274126 9.524999999999999
  endloop
endfacet
facet normal 0.0 0.0 1.0
  outer loop
    vertex 47.625 76.21376722970396 9.524999999999999
    vertex 38.86530427402574 10.172303291274126 9.524999999999999
    vertex 39.471729567856514 10.30895412840152 9.524999999999999
  endloop
endfacet
facet normal 0.0 0.0 1.0
  outer loop
    vertex 47.625 76.21376722970396 9.524999999999999
    vertex 39.471729567856514 10.30895412840152 9.524999999999999
    vertex 40.092859260060365 10.283994285691595 9.524999999999999
  endloop
endfacet
facet normal 0.0 0.0 1.0
  outer loop
    vertex 47.625 76.21376722970396 9.524999999999999
    vertex 40.092859260060365 10.283994285691595 9.524999999999999
    vertex 40.68636438857895 10.099124735176941 9.524999999999999
  endloop
endfacet
facet normal 0.0 0.0 1.0
  outer loop
    vertex 47.625 76.21376722970396 9.524999999999999
    vertex 40.68636438857895 10.099124735176941 9.524999999999999
    vertex 41.21179855971734 9.766944031213757 9.524999999999999
  endloop
endfacet
facet normal 0.0 0.0 1.0
  outer loop
    vertex 47.625 76.21376722970396 9.524999999999999
    vertex 41.21179855971734 9.766944031213757 9.524999999999999
    vertex 41.63335430303346 9.310089739822562 9.524999999999999
  endloop
endfacet
facet normal 0.0 0.0 1.0
  outer loop
    vertex 47.625 76.21376722970396 9.524999999999999
    vertex 41.63335430303346 9.310089739822562 9.524999999999999
    vertex 41.92230329127412 8.759695725974256 9.524999999999999
  endloop
endfacet
facet normal 0.0 0.0 1.0
  outer loop
    vertex 47.625 76.21376722970396 9.524999999999999
    vertex 41.92230329127412 8.759695725974256 9.524999999999999
    vertex 42.05895412840152 8.153270432143481 9.524999999999999
  endloop
endfacet
facet normal 0.0 0.0 1.0
  outer loop
    vertex 47.625 76.21376722970396 9.524999999999999
    vertex 42.05895412840152 8.153270432143481 9.524999999999999
    vertex 43.65625 1.0634233574610175 9.524999999999999
  endloop
endfacet
facet normal 0.0 0.0 1.0
  outer loop
    vertex 47.625 76.21376722970396 9.524999999999999
    vertex 43.65625 1.0634233574610175 9.524999999999999
    vertex 45.30016007566822 2.3248399243317786 9.524999999999999
  endloop
endfacet
facet normal 0.0 0.0 1.0
  outer loop
    vertex 47.625 76.21376722970396 9.524999999999999
    vertex 45.30016007566822 2.3248399243317786 9.524999999999999
    vertex 46.561576642538974 3.968749999999999 9.524999999999999
  endloop
endfacet
facet normal 0.0 0.0 1.0
  outer loop
    vertex 47.625 76.21376722970396 9.524999999999999
    vertex 46.561576642538974 3.968749999999999 9.524999999999999
    vertex 47.354536246169474 5.88312382949874 9.524999999999999
  endloop
endfacet
facet normal 0.0 0.0 1.0
  outer loop
    vertex 47.625 76.21376722970396 9.524999999999999
    vertex 47.354536246169474 5.88312382949874 9.524999999999999
    vertex 47.625 7.9375 9.524999999999999
  endloop
endfacet
facet normal 0.0 0.0 1.0
  outer loop
    vertex 5.5562499999999995 133.35 9.524999999999999
    vertex 6.293999063598993 139.48362899693558 9.524999999999999
    vertex 4.762499999999999 138.84926131403117 9.524999999999999
  endloop
endfacet
facet normal 0.0 0.0 1.0
  outer loop
    vertex 6.293999063598993 139.48362899693558 9.524999999999999
    vertex 5.5562499999999995 133.35 9.524999999999999
    vertex 5.637389126149157 133.96631285115038 9.524999999999999
  endloop
endfacet
facet normal 0.0 0.0 1.0
  outer loop
    vertex 6.293999063598993 139.48362899693558 9.524999999999999
    vertex 5.637389126149157 133.96631285115038 9.524999999999999
    vertex 5.875277007238306 134.540625 9.524999999999999
  endloop
endfacet
facet normal 0.0 0.0 1.0
  outer loop
    vertex 6.293999063598993 139.48362899693558 9.524999999999999
    vertex 5.875277007238306 134.540625 9.524999999999999
    vertex 6.253701977299534 135.03379802270044 9.524999999999999
  endloop
endfacet
facet normal 0.0 0.0 1.0
  outer loop
    vertex 6.293999063598993 139.48362899693558 9.524999999999999
    vertex 6.253701977299534 135.03379802270044 9.524999999999999
    vertex 6.746874999999999 135.41222299276168 9.524999999999999
  endloop
endfacet
facet normal 0.0 0.0 1.0
  outer loop
    vertex 6.293999063598993 139.48362899693558 9.524999999999999
    vertex 6.746874999999999 135.41222299276168 9.524999999999999
    vertex 7.9375 139.7 9.524999999999999
  endloop
endfacet
facet normal 0.0 0.0 1.0
  outer loop
    vertex 7.9375 139.7 9.524999999999999
    vertex 6.746874999999999 135.41222299276168 9.524999999999999
    vertex 7.3211871488496225 135.65011087385082 9.524999999999999
  endloop
endfacet
facet normal 0.0 0.0 1.0
  outer loop
    vertex 7.9375 139.7 9.524999999999999
    vertex 7.3211871488496225 135.65011087385082 9.524999999999999
    vertex 7.9375 135.73125 9.524999999999999
  endloop
endfacet
facet normal 0.0 0.0 1.0
  outer loop
    vertex 7.9375 139.7 9.524999999999999
    vertex 7.9375 135.73125 9.524999999999999
    vertex 8.553812851150377 135.65011087385082 9.524999999999999
  endloop
endfacet
facet normal 0.0 0.0 1.0
  outer loop
    vertex 7.9375 139.7 9.524999999999999
    vertex 8.553812851150377 135.65011087385082 9.524999999999999
    vertex 9.581000936401011 139.48362899693558 9.524999999999999
  endloop
endfacet
facet normal 0.0 0.0 1.0
  outer loop
    vertex 9.581000936401011 139.48362899693558 9.524999999999999
    vertex 8.553812851150377 135.65011087385082 9.524999999999999
    vertex 9.128124999999999 135.41222299276168 9.524999999999999
  endloop
endfacet
facet normal 0.0 0.0 1.0
  outer loop
    vertex 9.581000936401011 139.48362899693558 9.524999999999999
    vertex 9.128124999999999 135.41222299276168 9.524999999999999
    vertex 9.621298022700465 135.03379802270044 9.524999999999999
  endloop
endfacet
facet normal 0.0 0.0 1.0
  outer loop
    vertex 9.581000936401011 139.48362899693558 9.524999999999999
    vertex 9.621298022700465 135.03379802270044 9.524999999999999
    vertex 11.112500000000002 138.84926131403117 9.524999999999999
  endloop
endfacet
facet normal 0.0 0.0 1.0
  outer loop
    vertex 11.112500000000002 138.84926131403117 9.524999999999999
    vertex 9.621298022700465 135.03379802270044 9.524999999999999
    vertex 9.999722992761694 134.540625 9.524999999999999
  endloop
endfacet
facet normal 0.0 0.0 1.0
  outer loop
    vertex 11.112500000000002 138.84926131403117 9.524999999999999
    vertex 9.999722992761694 134.540625 9.524999999999999
    vertex 10.237610873850844 133.96631285115038 9.524999999999999
  endloop
endfacet
facet normal 0.0 0.0 1.0
  outer loop
    vertex 11.112500000000002 138.84926131403117 9.524999999999999
    vertex 10.237610873850844 133.96631285115038 9.524999999999999
    vertex 10.31875 133.35 9.524999999999999
  endloop
endfacet
facet normal 1.0 0.0 0.0
  outer loop
    vertex 47.625 76.21376722970396 0.0
    vertex 47.625 7.9375 9.524999999999999
    vertex 47.625 7.9375 0.0
  endloop
endfacet
facet normal 1.0 0.0 0.0
  outer loop
    vertex 47.625 7.9375 9.524999999999999
    vertex 47.625 76.21376722970396 0.0
    vertex 47.625 76.21376722970396 9.524999999999999
  endloop
endfacet
facet normal 0.9914448613738105 -0.13052619222005218 0.0
  outer loop
    vertex 47.625 7.9375 0.0
    vertex 47.354536246169474 5.88312382949874 9.524999999999999
    vertex 47.354536246169474 5.88312382949874 0.0
  endloop
endfacet
facet normal 0.965925826289068 -0.2588190451025215 0.0
  outer loop
    vertex 47.354536246169474 5.88312382949874 9.524999999999999
    vertex 47.625 7.9375 0.0
    vertex 47.625 7.9375 9.524999999999999
  endloop
endfacet
facet normal 0.965925826289068 -0.2588190451025215 0.0
  outer loop
    vertex 47.354536246169474 5.88312382949874 0.0
    vertex 46.561576642538974 3.968749999999999 9.524999999999999
    vertex 46.561576642538974 3.968749999999999 0.0
  endloop
endfacet
facet normal 0.8660254037844388 -0.5 0.0
  outer loop
    vertex 46.561576642538974 3.968749999999999 9.524999999999999
    vertex 47.354536246169474 5.88312382949874 0.0
    vertex 47.354536246169474 5.88312382949874 9.524999999999999
  endloop
endfacet
facet normal 0.8660254037844388 -0.5 0.0
  outer loop
    vertex 46.561576642538974 3.968749999999999 0.0
    vertex 45.30016007566822 2.3248399243317786 9.524999999999999
    vertex 45.30016007566822 2.3248399243317786 0.0
  endloop
endfacet
facet normal 0.707106781186548 -0.7071067811865471 0.0
  outer loop
    vertex 45.30016007566822 2.3248399243317786 9.524999999999999
    vertex 46.561576642538974 3.968749999999999 0.0
    vertex 46.561576642538974 3.968749999999999 9.524999999999999
  endloop
endfacet
facet normal 0.707106781186548 -0.7071067811865471 0.0
  outer loop
    vertex 45.30016007566822 2.3248399243317786 9.524999999999999
    vertex 43.65625 1.0634233574610175 0.0
    vertex 45.30016007566822 2.3248399243317786 0.0
  endloop
endfacet
facet normal 0.4999999999999998 -0.8660254037844388 0.0
  outer loop
    vertex 43.65625 1.0634233574610175 0.0
    vertex 45.30016007566822 2.3248399243317786 9.524999999999999
    vertex 43.65625 1.0634233574610175 9.524999999999999
  endloop
endfacet
facet normal 0.4999999999999998 -0.8660254037844388 0.0
  outer loop
    vertex 43.65625 1.0634233574610175 9.524999999999999
    vertex 41.74187617050126 0.27046375383052046 0.0
    vertex 43.65625 1.0634233574610175 0.0
  endloop
endfacet
facet normal 0.2588190451025205 -0.9659258262890684 0.0
  outer loop
    vertex 41.74187617050126 0.27046375383052046 0.0
    vertex 43.65625 1.0634233574610175 9.524999999999999
    vertex 41.74187617050126 0.27046375383052046 9.524999999999999
  endloop
endfacet
facet normal 0.2588190451025205 -0.9659258262890684 0.0
  outer loop
    vertex 41.74187617050126 0.27046375383052046 9.524999999999999
    vertex 39.6875 0.0 0.0
    vertex 41.74187617050126 0.27046375383052046 0.0
  endloop
endfacet
facet normal 0.13052619222005168 -0.9914448613738105 0.0
  outer loop
    vertex 39.6875 0.0 0.0
    vertex 41.74187617050126 0.27046375383052046 9.524999999999999
    vertex 39.6875 0.0 9.524999999999999
  endloop
endfacet
facet normal -0.13052619222005202 -0.9914448613738105 0.0
  outer loop
    vertex 39.6875 0.0 9.524999999999999
    vertex 37.633123829498736 0.27046375383052185 0.0
    vertex 39.6875 0.0 0.0
  endloop
endfacet
facet normal -0.13052619222005202 -0.9914448613738105 0.0
  outer loop
    vertex 37.633123829498736 0.27046375383052185 0.0
    vertex 39.6875 0.0 9.524999999999999
    vertex 37.633123829498736 0.27046375383052185 9.524999999999999
  endloop
endfacet
facet normal -0.38268343236508984 -0.9238795325112867 -0.0
  outer loop
    vertex 37.633123829498736 0.27046375383052185 9.524999999999999
    vertex 35.71874999999999 1.0634233574610203 0.0
    vertex 37.633123829498736 0.27046375383052185 0.0
  endloop
endfacet
facet normal -0.38268343236508984 -0.9238795325112867 -0.0
  outer loop
    vertex 35.71874999999999 1.0634233574610203 0.0
    vertex 37.633123829498736 0.27046375383052185 9.524999999999999
    vertex 35.71874999999999 1.0634233574610203 9.524999999999999
  endloop
endfacet
facet normal -0.6087614290087214 -0.7933533402912347 -0.0
  outer loop
    vertex 35.71874999999999 1.0634233574610203 9.524999999999999
    vertex 34.074839924331776 2.3248399243317794 0.0
    vertex 35.71874999999999 1.0634233574610203 0.0
  endloop
endfacet
facet normal -0.6087614290087214 -0.7933533402912347 -0.0
  outer loop
    vertex 34.074839924331776 2.3248399243317794 0.0
    vertex 35.71874999999999 1.0634233574610203 9.524999999999999
    vertex 34.074839924331776 2.3248399243317794 9.524999999999999
  endloop
endfacet
facet normal -0.7933533402912357 -0.6087614290087201 -0.0
  outer loop
    vertex 32.81342335746101 3.9687500000000053 9.524999999999999
    vertex 34.074839924331776 2.3248399243317794 0.0
    vertex 34.074839924331776 2.3248399243317794 9.524999999999999
  endloop
endfacet
facet normal -0.7933533402912357 -0.6087614290087201 -0.0
  outer loop
    vertex 34.074839924331776 2.3248399243317794 0.0
    vertex 32.81342335746101 3.9687500000000053 9.524999999999999
    vertex 32.81342335746101 3.9687500000000053 0.0
  endloop
endfacet
facet normal -0.9238795325112863 -0.382683432365091 -0.0
  outer loop
    vertex 32.02046375383051 5.883123829498745 9.524999999999999
    vertex 32.81342335746101 3.9687500000000053 0.0
    vertex 32.81342335746101 3.9687500000000053 9.524999999999999
  endloop
endfacet
facet normal -0.9238795325112863 -0.382683432365091 -0.0
  outer loop
    vertex 32.81342335746101 3.9687500000000053 0.0
    vertex 32.02046375383051 5.883123829498745 9.524999999999999
    vertex 32.02046375383051 5.883123829498745 0.0
  endloop
endfacet
facet normal -0.9904360886581416 -0.137972295347877 -0.0
  outer loop
    vertex 22.224999999999998 76.19999999999999 9.524999999999999
    vertex 32.02046375383051 5.883123829498745 0.0
    vertex 32.02046375383051 5.883123829498745 9.524999999999999
  endloop
endfacet
facet normal -0.9904360886581416 -0.137972295347877 -0.0
  outer loop
    vertex 32.02046375383051 5.883123829498745 0.0
    vertex 22.224999999999998 76.19999999999999 9.524999999999999
    vertex 22.224999999999998 76.19999999999999 0.0
  endloop
endfacet
facet normal -0.9385000698264047 -0.34527904502855894 -0.0
  outer loop
    vertex 1.803871003064416 131.70649906359898 9.524999999999999
    vertex 22.224999999999998 76.19999999999999 0.0
    vertex 22.224999999999998 76.19999999999999 9.524999999999999
  endloop
endfacet
facet normal -0.9385000698264047 -0.34527904502855894 -0.0
  outer loop
    vertex 22.224999999999998 76.19999999999999 0.0
    vertex 1.803871003064416 131.70649906359898 9.524999999999999
    vertex 1.803871003064416 131.70649906359898 0.0
  endloop
endfacet
facet normal -0.9914448613738104 -0.13052619222005196 -0.0
  outer loop
    vertex 1.5875 133.35 9.524999999999999
    vertex 1.803871003064416 131.70649906359898 0.0
    vertex 1.803871003064416 131.70649906359898 9.524999999999999
  endloop
endfacet
facet normal -0.9914448613738104 -0.13052619222005196 -0.0
  outer loop
    vertex 1.803871003064416 131.70649906359898 0.0
    vertex 1.5875 133.35 9.524999999999999
    vertex 1.5875 133.35 0.0
  endloop
endfacet
facet normal -0.9914448613738104 0.13052619222005238 0.0
  outer loop
    vertex 1.8038710030644167 134.993500936401 9.524999999999999
    vertex 1.5875 133.35 0.0
    vertex 1.5875 133.35 9.524999999999999
  endloop
endfacet
facet normal -0.9914448613738104 0.13052619222005238 0.0
  outer loop
    vertex 1.5875 133.35 0.0
    vertex 1.8038710030644167 134.993500936401 9.524999999999999
    vertex 1.8038710030644167 134.993500936401 0.0
  endloop
endfacet
facet normal -0.9238795325112875 0.3826834323650885 0.0
  outer loop
    vertex 2.4382386859688148 136.525 9.524999999999999
    vertex 1.8038710030644167 134.993500936401 0.0
    vertex 1.8038710030644167 134.993500936401 9.524999999999999
  endloop
endfacet
facet normal -0.9238795325112875 0.3826834323650885 0.0
  outer loop
    vertex 1.8038710030644167 134.993500936401 0.0
    vertex 2.4382386859688148 136.525 9.524999999999999
    vertex 2.4382386859688148 136.525 0.0
  endloop
endfacet
facet normal -0.7933533402912332 0.6087614290087232 0.0
  outer loop
    vertex 3.4473719394654236 137.84012806053457 9.524999999999999
    vertex 2.4382386859688148 136.525 0.0
    vertex 2.4382386859688148 136.525 9.524999999999999
  endloop
endfacet
facet normal -0.7933533402912332 0.6087614290087232 0.0
  outer loop
    vertex 2.4382386859688148 136.525 0.0
    vertex 3.4473719394654236 137.84012806053457 9.524999999999999
    vertex 3.4473719394654236 137.84012806053457 0.0
  endloop
endfacet
facet normal -0.6087614290087213 0.7933533402912347 0.0
  outer loop
    vertex 3.4473719394654236 137.84012806053457 9.524999999999999
    vertex 4.762499999999999 138.84926131403117 0.0
    vertex 3.4473719394654236 137.84012806053457 0.0
  endloop
endfacet
facet normal -0.6087614290087213 0.7933533402912347 0.0
  outer loop
    vertex 4.762499999999999 138.84926131403117 0.0
    vertex 3.4473719394654236 137.84012806053457 9.524999999999999
    vertex 4.762499999999999 138.84926131403117 9.524999999999999
  endloop
endfacet
facet normal -0.3826834323650977 0.9238795325112836 0.0
  outer loop
    vertex 4.762499999999999 138.84926131403117 9.524999999999999
    vertex 6.293999063598993 139.48362899693558 0.0
    vertex 4.762499999999999 138.84926131403117 0.0
  endloop
endfacet
facet normal -0.3826834323650977 0.9238795325112836 0.0
  outer loop
    vertex 6.293999063598993 139.48362899693558 0.0
    vertex 4.762499999999999 138.84926131403117 9.524999999999999
    vertex 6.293999063598993 139.48362899693558 9.524999999999999
  endloop
endfacet
facet normal -0.1305261922200469 0.991444861373811 0.0
  outer loop
    vertex 6.293999063598993 139.48362899693558 9.524999999999999
    vertex 7.9375 139.7 0.0
    vertex 6.293999063598993 139.48362899693558 0.0
  endloop
endfacet
facet normal -0.1305261922200469 0.991444861373811 0.0
  outer loop
    vertex 7.9375 139.7 0.0
    vertex 6.293999063598993 139.48362899693558 9.524999999999999
    vertex 7.9375 139.7 9.524999999999999
  endloop
endfacet
facet normal 0.13052619222004647 0.9914448613738112 0.0
  outer loop
    vertex 7.9375 139.7 9.524999999999999
    vertex 9.581000936401011 139.48362899693558 0.0
    vertex 7.9375 139.7 0.0
  endloop
endfacet
facet normal 0.13052619222004647 0.9914448613738112 0.0
  outer loop
    vertex 9.581000936401011 139.48362899693558 0.0
    vertex 7.9375 139.7 9.524999999999999
    vertex 9.581000936401011 139.48362899693558 9.524999999999999
  endloop
endfacet
facet normal 0.38268343236509816 0.9238795325112832 0.0
  outer loop
    vertex 9.581000936401011 139.48362899693558 9.524999999999999
    vertex 11.112500000000002 138.84926131403117 0.0
    vertex 9.581000936401011 139.48362899693558 0.0
  endloop
endfacet
facet normal 0.38268343236509816 0.9238795325112832 0.0
  outer loop
    vertex 11.112500000000002 138.84926131403117 0.0
    vertex 9.581000936401011 139.48362899693558 9.524999999999999
    vertex 11.112500000000002 138.84926131403117 9.524999999999999
  endloop
endfacet
facet normal 0.6087614290087218 0.7933533402912344 0.0
  outer loop
    vertex 11.112500000000002 138.84926131403117 9.524999999999999
    vertex 12.427628060534577 137.84012806053457 0.0
    vertex 11.112500000000002 138.84926131403117 0.0
  endloop
endfacet
facet normal 0.6087614290087218 0.7933533402912344 0.0
  outer loop
    vertex 12.427628060534577 137.84012806053457 0.0
    vertex 11.112500000000002 138.84926131403117 9.524999999999999
    vertex 12.427628060534577 137.84012806053457 9.524999999999999
  endloop
endfacet
facet normal 0.7933533402912323 0.6087614290087243 0.0
  outer loop
    vertex 12.427628060534577 137.84012806053457 0.0
    vertex 13.43676131403119 136.525 9.524999999999999
    vertex 13.43676131403119 136.525 0.0
  endloop
endfacet
facet normal 0.7933533402912323 0.6087614290087243 0.0
  outer loop
    vertex 13.43676131403119 136.525 9.524999999999999
    vertex 12.427628060534577 137.84012806053457 0.0
    vertex 12.427628060534577 137.84012806053457 9.524999999999999
  endloop
endfacet
facet normal 0.9262294096663958 0.3769603171012037 0.0
  outer loop
    vertex 13.43676131403119 136.525 0.0
    vertex 14.076423405448297 134.95328591116612 9.524999999999999
    vertex 14.076423405448297 134.95328591116612 0.0
  endloop
endfacet
facet normal 0.9262294096663958 0.3769603171012037 0.0
  outer loop
    vertex 14.076423405448297 134.95328591116612 9.524999999999999
    vertex 13.43676131403119 136.525 0.0
    vertex 13.43676131403119 136.525 9.524999999999999
  endloop
endfacet
facet normal 0.8683505047130228 0.49595100661722524 0.0
  outer loop
    vertex 14.076423405448297 134.95328591116612 0.0
    vertex 47.625 76.21376722970396 9.524999999999999
    vertex 47.625 76.21376722970396 0.0
  endloop
endfacet
facet normal 0.8683505047130228 0.49595100661722524 0.0
  outer loop
    vertex 47.625 76.21376722970396 9.524999999999999
    vertex 14.076423405448297 134.95328591116612 0.0
    vertex 14.076423405448297 134.95328591116612 9.524999999999999
  endloop
endfacet
facet normal -0.9385000698264042 -0.3452790450285602 0.0
  outer loop
    vertex 41.92230329127412 8.759695725974256 9.524999999999999
    vertex 42.05895412840152 8.153270432143481 0.0
    vertex 42.05895412840152 8.153270432143481 9.524999999999999
  endloop
endfacet
facet normal -0.99588624814762 -0.09061225496839216 0.0
  outer loop
    vertex 42.05895412840152 8.153270432143481 0.0
    vertex 41.92230329127412 8.759695725974256 9.524999999999999
    vertex 41.92230329127412 8.759695725974256 0.0
  endloop
endfacet
facet normal -0.8171566626912182 -0.5764156387706276 0.0
  outer loop
    vertex 41.63335430303346 9.310089739822562 9.524999999999999
    vertex 41.92230329127412 8.759695725974256 0.0
    vertex 41.92230329127412 8.759695725974256 9.524999999999999
  endloop
endfacet
facet normal -0.9385000698264042 -0.3452790450285602 0.0
  outer loop
    vertex 41.92230329127412 8.759695725974256 0.0
    vertex 41.63335430303346 9.310089739822562 9.524999999999999
    vertex 41.63335430303346 9.310089739822562 0.0
  endloop
endfacet
facet normal -0.6401253794088569 -0.768270459302365 0.0
  outer loop
    vertex 41.21179855971734 9.766944031213757 9.524999999999999
    vertex 41.63335430303346 9.310089739822562 0.0
    vertex 41.63335430303346 9.310089739822562 9.524999999999999
  endloop
endfacet
facet normal -0.8171566626912182 -0.5764156387706276 0.0
  outer loop
    vertex 41.63335430303346 9.310089739822562 0.0
    vertex 41.21179855971734 9.766944031213757 9.524999999999999
    vertex 41.21179855971734 9.766944031213757 0.0
  endloop
endfacet
facet normal -0.6401253794088569 -0.768270459302365 0.0
  outer loop
    vertex 41.21179855971734 9.766944031213757 9.524999999999999
    vertex 40.68636438857895 10.099124735176941 0.0
    vertex 41.21179855971734 9.766944031213757 0.0
  endloop
endfacet
facet normal -0.41947060937698816 -0.9077689176596092 0.0
  outer loop
    vertex 40.68636438857895 10.099124735176941 0.0
    vertex 41.21179855971734 9.766944031213757 9.524999999999999
    vertex 40.68636438857895 10.099124735176941 9.524999999999999
  endloop
endfacet
facet normal -0.41947060937698816 -0.9077689176596092 0.0
  outer loop
    vertex 40.68636438857895 10.099124735176941 9.524999999999999
    vertex 40.092859260060365 10.283994285691595 0.0
    vertex 40.68636438857895 10.099124735176941 0.0
  endloop
endfacet
facet normal -0.17022961052404012 -0.9854044244374152 0.0
  outer loop
    vertex 40.092859260060365 10.283994285691595 0.0
    vertex 40.68636438857895 10.099124735176941 9.524999999999999
    vertex 40.092859260060365 10.283994285691595 9.524999999999999
  endloop
endfacet
facet normal -0.17022961052404012 -0.9854044244374152 0.0
  outer loop
    vertex 40.092859260060365 10.283994285691595 9.524999999999999
    vertex 39.471729567856514 10.30895412840152 0.0
    vertex 40.092859260060365 10.283994285691595 0.0
  endloop
endfacet
facet normal 0.09061225496839082 -0.9958862481476201 0.0
  outer loop
    vertex 39.471729567856514 10.30895412840152 0.0
    vertex 40.092859260060365 10.283994285691595 9.524999999999999
    vertex 39.471729567856514 10.30895412840152 9.524999999999999
  endloop
endfacet
facet normal 0.09061225496839082 -0.9958862481476201 0.0
  outer loop
    vertex 39.471729567856514 10.30895412840152 9.524999999999999
    vertex 38.86530427402574 10.172303291274126 0.0
    vertex 39.471729567856514 10.30895412840152 0.0
  endloop
endfacet
facet normal 0.34527904502855844 -0.9385000698264048 0.0
  outer loop
    vertex 38.86530427402574 10.172303291274126 0.0
    vertex 39.471729567856514 10.30895412840152 9.524999999999999
    vertex 38.86530427402574 10.172303291274126 9.524999999999999
  endloop
endfacet
facet normal 0.34527904502855844 -0.9385000698264048 0.0
  outer loop
    vertex 38.86530427402574 10.172303291274126 9.524999999999999
    vertex 38.314910260177435 9.883354303033459 0.0
    vertex 38.86530427402574 10.172303291274126 0.0
  endloop
endfacet
facet normal 0.5764156387706321 -0.8171566626912151 0.0
  outer loop
    vertex 38.314910260177435 9.883354303033459 0.0
    vertex 38.86530427402574 10.172303291274126 9.524999999999999
    vertex 38.314910260177435 9.883354303033459 9.524999999999999
  endloop
endfacet
facet normal 0.5764156387706321 -0.8171566626912151 0.0
  outer loop
    vertex 38.314910260177435 9.883354303033459 9.524999999999999
    vertex 37.858055968786246 9.46179855971734 0.0
    vertex 38.314910260177435 9.883354303033459 0.0
  endloop
endfacet
facet normal 0.7682704593023645 -0.6401253794088577 0.0
  outer loop
    vertex 37.858055968786246 9.46179855971734 0.0
    vertex 38.314910260177435 9.883354303033459 9.524999999999999
    vertex 37.858055968786246 9.46179855971734 9.524999999999999
  endloop
endfacet
facet normal 0.7682704593023645 -0.6401253794088577 0.0
  outer loop
    vertex 37.858055968786246 9.46179855971734 0.0
    vertex 37.52587526482305 8.936364388578957 9.524999999999999
    vertex 37.52587526482305 8.936364388578957 0.0
  endloop
endfacet
facet normal 0.9077689176596084 -0.41947060937698993 0.0
  outer loop
    vertex 37.52587526482305 8.936364388578957 9.524999999999999
    vertex 37.858055968786246 9.46179855971734 0.0
    vertex 37.858055968786246 9.46179855971734 9.524999999999999
  endloop
endfacet
facet normal 0.9077689176596084 -0.41947060937698993 0.0
  outer loop
    vertex 37.52587526482305 8.936364388578957 0.0
    vertex 37.3410057143084 8.34285926006037 9.524999999999999
    vertex 37.3410057143084 8.34285926006037 0.0
  endloop
endfacet
facet normal 0.9854044244374157 -0.17022961052403768 0.0
  outer loop
    vertex 37.3410057143084 8.34285926006037 9.524999999999999
    vertex 37.52587526482305 8.936364388578957 0.0
    vertex 37.52587526482305 8.936364388578957 9.524999999999999
  endloop
endfacet
facet normal 0.9854044244374157 -0.17022961052403768 0.0
  outer loop
    vertex 37.3410057143084 8.34285926006037 0.0
    vertex 37.316045871598476 7.721729567856517 9.524999999999999
    vertex 37.316045871598476 7.721729567856517 0.0
  endloop
endfacet
facet normal 0.99588624814762 0.09061225496839216 0.0
  outer loop
    vertex 37.316045871598476 7.721729567856517 9.524999999999999
    vertex 37.3410057143084 8.34285926006037 0.0
    vertex 37.3410057143084 8.34285926006037 9.524999999999999
  endloop
endfacet
facet normal 0.99588624814762 0.09061225496839216 0.0
  outer loop
    vertex 37.316045871598476 7.721729567856517 0.0
    vertex 37.452696708725874 7.1153042740257435 9.524999999999999
    vertex 37.452696708725874 7.1153042740257435 0.0
  endloop
endfacet
facet normal 0.9385000698264042 0.3452790450285602 0.0
  outer loop
    vertex 37.452696708725874 7.1153042740257435 9.524999999999999
    vertex 37.316045871598476 7.721729567856517 0.0
    vertex 37.316045871598476 7.721729567856517 9.524999999999999
  endloop
endfacet
facet normal 0.9385000698264042 0.3452790450285602 0.0
  outer loop
    vertex 37.452696708725874 7.1153042740257435 0.0
    vertex 37.74164569696654 6.564910260177437 9.524999999999999
    vertex 37.74164569696654 6.564910260177437 0.0
  endloop
endfacet
facet normal 0.817156662691218 0.576415638770628 0.0
  outer loop
    vertex 37.74164569696654 6.564910260177437 9.524999999999999
    vertex 37.452696708725874 7.1153042740257435 0.0
    vertex 37.452696708725874 7.1153042740257435 9.524999999999999
  endloop
endfacet
facet normal 0.817156662691218 0.576415638770628 0.0
  outer loop
    vertex 37.74164569696654 6.564910260177437 0.0
    vertex 38.163201440282656 6.108055968786243 9.524999999999999
    vertex 38.163201440282656 6.108055968786243 0.0
  endloop
endfacet
facet normal 0.6401253794088586 0.7682704593023637 0.0
  outer loop
    vertex 38.163201440282656 6.108055968786243 9.524999999999999
    vertex 37.74164569696654 6.564910260177437 0.0
    vertex 37.74164569696654 6.564910260177437 9.524999999999999
  endloop
endfacet
facet normal 0.6401253794088586 0.7682704593023637 0.0
  outer loop
    vertex 38.163201440282656 6.108055968786243 9.524999999999999
    vertex 38.688635611421034 5.775875264823058 0.0
    vertex 38.163201440282656 6.108055968786243 0.0
  endloop
endfacet
facet normal 0.41947060937698966 0.9077689176596085 0.0
  outer loop
    vertex 38.688635611421034 5.775875264823058 0.0
    vertex 38.163201440282656 6.108055968786243 9.524999999999999
    vertex 38.688635611421034 5.775875264823058 9.524999999999999
  endloop
endfacet
facet normal 0.41947060937698966 0.9077689176596085 0.0
  outer loop
    vertex 38.688635611421034 5.775875264823058 9.524999999999999
    vertex 39.28214073993963 5.591005714308404 0.0
    vertex 38.688635611421034 5.775875264823058 0.0
  endloop
endfacet
facet normal 0.1702296105240394 0.9854044244374154 0.0
  outer loop
    vertex 39.28214073993963 5.591005714308404 0.0
    vertex 38.688635611421034 5.775875264823058 9.524999999999999
    vertex 39.28214073993963 5.591005714308404 9.524999999999999
  endloop
endfacet
facet normal 0.1702296105240394 0.9854044244374154 0.0
  outer loop
    vertex 39.28214073993963 5.591005714308404 9.524999999999999
    vertex 39.90327043214348 5.566045871598479 0.0
    vertex 39.28214073993963 5.591005714308404 0.0
  endloop
endfacet
facet normal -0.09061225496839082 0.9958862481476201 0.0
  outer loop
    vertex 39.90327043214348 5.566045871598479 0.0
    vertex 39.28214073993963 5.591005714308404 9.524999999999999
    vertex 39.90327043214348 5.566045871598479 9.524999999999999
  endloop
endfacet
facet normal -0.09061225496839082 0.9958862481476201 0.0
  outer loop
    vertex 39.90327043214348 5.566045871598479 9.524999999999999
    vertex 40.509695725974254 5.702696708725873 0.0
    vertex 39.90327043214348 5.566045871598479 0.0
  endloop
endfacet
facet normal -0.34527904502855994 0.9385000698264043 0.0
  outer loop
    vertex 40.509695725974254 5.702696708725873 0.0
    vertex 39.90327043214348 5.566045871598479 9.524999999999999
    vertex 40.509695725974254 5.702696708725873 9.524999999999999
  endloop
endfacet
facet normal -0.34527904502855994 0.9385000698264043 0.0
  outer loop
    vertex 40.509695725974254 5.702696708725873 9.524999999999999
    vertex 41.06008973982256 5.99164569696654 0.0
    vertex 40.509695725974254 5.702696708725873 0.0
  endloop
endfacet
facet normal -0.5764156387706311 0.8171566626912157 0.0
  outer loop
    vertex 41.06008973982256 5.99164569696654 0.0
    vertex 40.509695725974254 5.702696708725873 9.524999999999999
    vertex 41.06008973982256 5.99164569696654 9.524999999999999
  endloop
endfacet
facet normal -0.5764156387706311 0.8171566626912157 0.0
  outer loop
    vertex 41.06008973982256 5.99164569696654 9.524999999999999
    vertex 41.516944031213754 6.413201440282659 0.0
    vertex 41.06008973982256 5.99164569696654 0.0
  endloop
endfacet
facet normal -0.7682704593023628 0.6401253794088597 0.0
  outer loop
    vertex 41.516944031213754 6.413201440282659 0.0
    vertex 41.06008973982256 5.99164569696654 9.524999999999999
    vertex 41.516944031213754 6.413201440282659 9.524999999999999
  endloop
endfacet
facet normal -0.9077689176596084 0.41947060937698993 0.0
  outer loop
    vertex 41.84912473517694 6.9386356114210415 9.524999999999999
    vertex 41.516944031213754 6.413201440282659 0.0
    vertex 41.516944031213754 6.413201440282659 9.524999999999999
  endloop
endfacet
facet normal -0.7682704593023628 0.6401253794088597 0.0
  outer loop
    vertex 41.516944031213754 6.413201440282659 0.0
    vertex 41.84912473517694 6.9386356114210415 9.524999999999999
    vertex 41.84912473517694 6.9386356114210415 0.0
  endloop
endfacet
facet normal -0.9854044244374157 0.17022961052403768 0.0
  outer loop
    vertex 42.03399428569159 7.53214073993963 9.524999999999999
    vertex 41.84912473517694 6.9386356114210415 0.0
    vertex 41.84912473517694 6.9386356114210415 9.524999999999999
  endloop
endfacet
facet normal -0.9077689176596084 0.41947060937698993 0.0
  outer loop
    vertex 41.84912473517694 6.9386356114210415 0.0
    vertex 42.03399428569159 7.53214073993963 9.524999999999999
    vertex 42.03399428569159 7.53214073993963 0.0
  endloop
endfacet
facet normal -0.99588624814762 -0.09061225496839216 0.0
  outer loop
    vertex 42.05895412840152 8.153270432143481 9.524999999999999
    vertex 42.03399428569159 7.53214073993963 0.0
    vertex 42.03399428569159 7.53214073993963 9.524999999999999
  endloop
endfacet
facet normal -0.9854044244374157 0.17022961052403768 0.0
  outer loop
    vertex 42.03399428569159 7.53214073993963 0.0
    vertex 42.05895412840152 8.153270432143481 9.524999999999999
    vertex 42.05895412840152 8.153270432143481 0.0
  endloop
endfacet
facet normal -0.9659258262890681 0.2588190451025214 0.0
  outer loop
    vertex 10.237610873850844 132.7336871488496 9.524999999999999
    vertex 9.999722992761694 132.15937499999998 0.0
    vertex 9.999722992761694 132.15937499999998 9.524999999999999
  endloop
endfacet
facet normal -0.8660254037844358 0.5000000000000051 0.0
  outer loop
    vertex 9.999722992761694 132.15937499999998 0.0
    vertex 10.237610873850844 132.7336871488496 9.524999999999999
    vertex 10.237610873850844 132.7336871488496 0.0
  endloop
endfacet
facet normal -1.0 0.0 0.0
  outer loop
    vertex 10.31875 133.35 9.524999999999999
    vertex 10.237610873850844 132.7336871488496 0.0
    vertex 10.237610873850844 132.7336871488496 9.524999999999999
  endloop
endfacet
facet normal -0.9659258262890681 0.2588190451025214 0.0
  outer loop
    vertex 10.237610873850844 132.7336871488496 0.0
    vertex 10.31875 133.35 9.524999999999999
    vertex 10.31875 133.35 0.0
  endloop
endfacet
facet normal -0.9659258262890681 -0.2588190451025214 0.0
  outer loop
    vertex 10.237610873850844 133.96631285115038 9.524999999999999
    vertex 10.31875 133.35 0.0
    vertex 10.31875 133.35 9.524999999999999
  endloop
endfacet
facet normal -1.0 0.0 0.0
  outer loop
    vertex 10.31875 133.35 0.0
    vertex 10.237610873850844 133.96631285115038 9.524999999999999
    vertex 10.237610873850844 133.96631285115038 0.0
  endloop
endfacet
facet normal -0.8660254037844358 -0.5000000000000051 0.0
  outer loop
    vertex 9.999722992761694 134.540625 9.524999999999999
    vertex 10.237610873850844 133.96631285115038 0.0
    vertex 10.237610873850844 133.96631285115038 9.524999999999999
  endloop
endfacet
facet normal -0.9659258262890681 -0.2588190451025214 0.0
  outer loop
    vertex 10.237610873850844 133.96631285115038 0.0
    vertex 9.999722992761694 134.540625 9.524999999999999
    vertex 9.999722992761694 134.540625 0.0
  endloop
endfacet
facet normal -0.7071067811865486 -0.7071067811865467 0.0
  outer loop
    vertex 9.621298022700465 135.03379802270044 9.524999999999999
    vertex 9.999722992761694 134.540625 0.0
    vertex 9.999722992761694 134.540625 9.524999999999999
  endloop
endfacet
facet normal -0.8660254037844358 -0.5000000000000051 0.0
  outer loop
    vertex 9.999722992761694 134.540625 0.0
    vertex 9.621298022700465 135.03379802270044 9.524999999999999
    vertex 9.621298022700465 135.03379802270044 0.0
  endloop
endfacet
facet normal -0.7071067811865486 -0.7071067811865467 0.0
  outer loop
    vertex 9.621298022700465 135.03379802270044 9.524999999999999
    vertex 9.128124999999999 135.41222299276168 0.0
    vertex 9.621298022700465 135.03379802270044 0.0
  endloop
endfacet
facet normal -0.5000000000000018 -0.8660254037844376 0.0
  outer loop
    vertex 9.128124999999999 135.41222299276168 0.0
    vertex 9.621298022700465 135.03379802270044 9.524999999999999
    vertex 9.128124999999999 135.41222299276168 9.524999999999999
  endloop
endfacet
facet normal -0.5000000000000018 -0.8660254037844376 0.0
  outer loop
    vertex 9.128124999999999 135.41222299276168 9.524999999999999
    vertex 8.553812851150377 135.65011087385082 0.0
    vertex 9.128124999999999 135.41222299276168 0.0
  endloop
endfacet
facet normal -0.25881904510252113 -0.9659258262890682 0.0
  outer loop
    vertex 8.553812851150377 135.65011087385082 0.0
    vertex 9.128124999999999 135.41222299276168 9.524999999999999
    vertex 8.553812851150377 135.65011087385082 9.524999999999999
  endloop
endfacet
facet normal -0.25881904510252113 -0.9659258262890682 0.0
  outer loop
    vertex 8.553812851150377 135.65011087385082 9.524999999999999
    vertex 7.9375 135.73125 0.0
    vertex 8.553812851150377 135.65011087385082 0.0
  endloop
endfacet
facet normal 1.5148886822599752e-16 -1.0 0.0
  outer loop
    vertex 7.9375 135.73125 0.0
    vertex 8.553812851150377 135.65011087385082 9.524999999999999
    vertex 7.9375 135.73125 9.524999999999999
  endloop
endfacet
facet normal 1.5148886822599752e-16 -1.0 0.0
  outer loop
    vertex 7.9375 135.73125 9.524999999999999
    vertex 7.3211871488496225 135.65011087385082 0.0
    vertex 7.9375 135.73125 0.0
  endloop
endfacet
facet normal 0.25881904510252085 -0.9659258262890684 0.0
  outer loop
    vertex 7.3211871488496225 135.65011087385082 0.0
    vertex 7.9375 135.73125 9.524999999999999
    vertex 7.3211871488496225 135.65011087385082 9.524999999999999
  endloop
endfacet
facet normal 0.25881904510252085 -0.9659258262890684 0.0
  outer loop
    vertex 7.3211871488496225 135.65011087385082 9.524999999999999
    vertex 6.746874999999999 135.41222299276168 0.0
    vertex 7.3211871488496225 135.65011087385082 0.0
  endloop
endfacet
facet normal 0.5000000000000013 -0.8660254037844378 0.0
  outer loop
    vertex 6.746874999999999 135.41222299276168 0.0
    vertex 7.3211871488496225 135.65011087385082 9.524999999999999
    vertex 6.746874999999999 135.41222299276168 9.524999999999999
  endloop
endfacet
facet normal 0.5000000000000013 -0.8660254037844378 0.0
  outer loop
    vertex 6.746874999999999 135.41222299276168 9.524999999999999
    vertex 6.253701977299534 135.03379802270044 0.0
    vertex 6.746874999999999 135.41222299276168 0.0
  endloop
endfacet
facet normal 0.7071067811865489 -0.7071067811865464 0.0
  outer loop
    vertex 6.253701977299534 135.03379802270044 0.0
    vertex 6.746874999999999 135.41222299276168 9.524999999999999
    vertex 6.253701977299534 135.03379802270044 9.524999999999999
  endloop
endfacet
facet normal 0.7071067811865489 -0.7071067811865464 0.0
  outer loop
    vertex 6.253701977299534 135.03379802270044 0.0
    vertex 5.875277007238306 134.540625 9.524999999999999
    vertex 5.875277007238306 134.540625 0.0
  endloop
endfacet
facet normal 0.866025403784436 -0.5000000000000047 0.0
  outer loop
    vertex 5.875277007238306 134.540625 9.524999999999999
    vertex 6.253701977299534 135.03379802270044 0.0
    vertex 6.253701977299534 135.03379802270044 9.524999999999999
  endloop
endfacet
facet normal 0.866025403784436 -0.5000000000000047 0.0
  outer loop
    vertex 5.875277007238306 134.540625 0.0
    vertex 5.637389126149157 133.96631285115038 9.524999999999999
    vertex 5.637389126149157 133.96631285115038 0.0
  endloop
endfacet
facet normal 0.9659258262890679 -0.25881904510252196 0.0
  outer loop
    vertex 5.637389126149157 133.96631285115038 9.524999999999999
    vertex 5.875277007238306 134.540625 0.0
    vertex 5.875277007238306 134.540625 9.524999999999999
  endloop
endfacet
facet normal 0.9659258262890679 -0.25881904510252196 0.0
  outer loop
    vertex 5.637389126149157 133.96631285115038 0.0
    vertex 5.5562499999999995 133.35 9.524999999999999
    vertex 5.5562499999999995 133.35 0.0
  endloop
endfacet
facet normal 1.0 -5.613999234257549e-16 0.0
  outer loop
    vertex 5.5562499999999995 133.35 9.524999999999999
    vertex 5.637389126149157 133.96631285115038 0.0
    vertex 5.637389126149157 133.96631285115038 9.524999999999999
  endloop
endfacet
facet normal 1.0 -5.613999234257549e-16 0.0
  outer loop
    vertex 5.5562499999999995 133.35 0.0
    vertex 5.637389126149156 132.7336871488496 9.524999999999999
    vertex 5.637389126149156 132.7336871488496 0.0
  endloop
endfacet
facet normal 0.9659258262890682 0.2588190451025208 0.0
  outer loop
    vertex 5.637389126149156 132.7336871488496 9.524999999999999
    vertex 5.5562499999999995 133.35 0.0
    vertex 5.5562499999999995 133.35 9.524999999999999
  endloop
endfacet
facet normal 0.9659258262890682 0.2588190451025208 0.0
  outer loop
    vertex 5.637389126149156 132.7336871488496 0.0
    vertex 5.875277007238305 132.15937499999998 9.524999999999999
    vertex 5.875277007238305 132.15937499999998 0.0
  endloop
endfacet
facet normal 0.8660254037844359 0.5000000000000047 0.0
  outer loop
    vertex 5.875277007238305 132.15937499999998 9.524999999999999
    vertex 5.637389126149156 132.7336871488496 0.0
    vertex 5.637389126149156 132.7336871488496 9.524999999999999
  endloop
endfacet
facet normal 0.8660254037844359 0.5000000000000047 0.0
  outer loop
    vertex 5.875277007238305 132.15937499999998 0.0
    vertex 6.253701977299533 131.66620197729952 9.524999999999999
    vertex 6.253701977299533 131.66620197729952 0.0
  endloop
endfacet
facet normal 0.7071067811865487 0.7071067811865466 0.0
  outer loop
    vertex 6.253701977299533 131.66620197729952 9.524999999999999
    vertex 5.875277007238305 132.15937499999998 0.0
    vertex 5.875277007238305 132.15937499999998 9.524999999999999
  endloop
endfacet
facet normal 0.7071067811865487 0.7071067811865466 0.0
  outer loop
    vertex 6.253701977299533 131.66620197729952 9.524999999999999
    vertex 6.746874999999998 131.2877770072383 0.0
    vertex 6.253701977299533 131.66620197729952 0.0
  endloop
endfacet
facet normal 0.5000000000000021 0.8660254037844375 0.0
  outer loop
    vertex 6.746874999999998 131.2877770072383 0.0
    vertex 6.253701977299533 131.66620197729952 9.524999999999999
    vertex 6.746874999999998 131.2877770072383 9.524999999999999
  endloop
endfacet
facet normal 0.5000000000000021 0.8660254037844375 0.0
  outer loop
    vertex 6.746874999999998 131.2877770072383 9.524999999999999
    vertex 7.32118714884962 131.04988912614917 0.0
    vertex 6.746874999999998 131.2877770072383 0.0
  endloop
endfacet
facet normal 0.2588190451025209 0.9659258262890682 0.0
  outer loop
    vertex 7.32118714884962 131.04988912614917 0.0
    vertex 6.746874999999998 131.2877770072383 9.524999999999999
    vertex 7.32118714884962 131.04988912614917 9.524999999999999
  endloop
endfacet
facet normal 0.2588190451025209 0.9659258262890682 0.0
  outer loop
    vertex 7.32118714884962 131.04988912614917 9.524999999999999
    vertex 7.9375 130.96875 0.0
    vertex 7.32118714884962 131.04988912614917 0.0
  endloop
endfacet
facet normal -1.5148886822599752e-16 1.0 0.0
  outer loop
    vertex 7.9375 130.96875 0.0
    vertex 7.32118714884962 131.04988912614917 9.524999999999999
    vertex 7.9375 130.96875 9.524999999999999
  endloop
endfacet
facet normal -1.5148886822599752e-16 1.0 0.0
  outer loop
    vertex 7.9375 130.96875 9.524999999999999
    vertex 8.553812851150377 131.04988912614917 0.0
    vertex 7.9375 130.96875 0.0
  endloop
endfacet
facet normal -0.25881904510252113 0.9659258262890682 0.0
  outer loop
    vertex 8.553812851150377 131.04988912614917 0.0
    vertex 7.9375 130.96875 9.524999999999999
    vertex 8.553812851150377 131.04988912614917 9.524999999999999
  endloop
endfacet
facet normal -0.25881904510252113 0.9659258262890682 0.0
  outer loop
    vertex 8.553812851150377 131.04988912614917 9.524999999999999
    vertex 9.128124999999999 131.2877770072383 0.0
    vertex 8.553812851150377 131.04988912614917 0.0
  endloop
endfacet
facet normal -0.5000000000000018 0.8660254037844376 0.0
  outer loop
    vertex 9.128124999999999 131.2877770072383 0.0
    vertex 8.553812851150377 131.04988912614917 9.524999999999999
    vertex 9.128124999999999 131.2877770072383 9.524999999999999
  endloop
endfacet
facet normal -0.5000000000000018 0.8660254037844376 0.0
  outer loop
    vertex 9.128124999999999 131.2877770072383 9.524999999999999
    vertex 9.621298022700465 131.66620197729952 0.0
    vertex 9.128124999999999 131.2877770072383 0.0
  endloop
endfacet
facet normal -0.7071067811865486 0.7071067811865467 0.0
  outer loop
    vertex 9.621298022700465 131.66620197729952 0.0
    vertex 9.128124999999999 131.2877770072383 9.524999999999999
    vertex 9.621298022700465 131.66620197729952 9.524999999999999
  endloop
endfacet
facet normal -0.8660254037844358 0.5000000000000051 0.0
  outer loop
    vertex 9.999722992761694 132.15937499999998 9.524999999999999
    vertex 9.621298022700465 131.66620197729952 0.0
    vertex 9.621298022700465 131.66620197729952 9.524999999999999
  endloop
endfacet
facet normal -0.7071067811865486 0.7071067811865467 0.0
  outer loop
    vertex 9.621298022700465 131.66620197729952 0.0
    vertex 9.999722992761694 132.15937499999998 9.524999999999999
    vertex 9.999722992761694 132.15937499999998 0.0
  endloop
endfacet
endsolid Loader Arm
