solid Pivot Block
facet normal 0.0 0.0 1.0
  outer loop
    vertex 50.799999999999976 0.0 8.334375
    vertex 0.0 4.762499999999999 8.334375
    vertex 0.0 0.0 8.334375
  endloop
endfacet
facet normal 0.0 0.0 1.0
  outer loop
    vertex 0.0 4.762499999999999 8.334375
    vertex 50.799999999999976 0.0 8.334375
    vertex 17.15110802895321 46.03749999999998 8.334375
  endloop
endfacet
facet normal 0.0 0.0 1.0
  outer loop
    vertex 17.15110802895321 46.03749999999998 8.334375
    vertex 50.799999999999976 0.0 8.334375
    vertex 23.44375909865698 39.91725440585774 8.334375
  endloop
endfacet
facet normal 0.0 0.0 1.0
  outer loop
    vertex 17.15110802895321 46.03749999999998 8.334375
    vertex 23.44375909865698 39.91725440585774 8.334375
    vertex 18.664807909198124 48.01019209080185 8.334375
  endloop
endfacet
facet normal 0.0 0.0 1.0
  outer loop
    vertex 18.664807909198124 48.01019209080185 8.334375
    vertex 23.44375909865698 39.91725440585774 8.334375
    vertex 23.15900597278172 40.469830867163886 8.334375
  endloop
endfacet
facet normal 0.0 0.0 1.0
  outer loop
    vertex 18.664807909198124 48.01019209080185 8.334375
    vertex 23.15900597278172 40.469830867163886 8.334375
    vertex 20.63749999999999 49.523891971046766 8.334375
  endloop
endfacet
facet normal 0.0 0.0 1.0
  outer loop
    vertex 20.63749999999999 49.523891971046766 8.334375
    vertex 23.15900597278172 40.469830867163886 8.334375
    vertex 23.02697288644365 41.07727827426791 8.334375
  endloop
endfacet
facet normal 0.0 0.0 1.0
  outer loop
    vertex 20.63749999999999 49.523891971046766 8.334375
    vertex 23.02697288644365 41.07727827426791 8.334375
    vertex 22.93474859539847 50.47544349540336 8.334375
  endloop
endfacet
facet normal 0.0 0.0 1.0
  outer loop
    vertex 23.44375909865698 39.91725440585774 8.334375
    vertex 50.799999999999976 0.0 8.334375
    vertex 23.861826809117822 39.457206063011704 8.334375
  endloop
endfacet
facet normal 0.0 0.0 1.0
  outer loop
    vertex 23.861826809117822 39.457206063011704 8.334375
    vertex 50.799999999999976 0.0 8.334375
    vertex 24.384718480585903 39.1210373729249 8.334375
  endloop
endfacet
facet normal 0.0 0.0 1.0
  outer loop
    vertex 24.384718480585903 39.1210373729249 8.334375
    vertex 50.799999999999976 0.0 8.334375
    vertex 24.97679990977001 38.93165767628172 8.334375
  endloop
endfacet
facet normal 0.0 0.0 1.0
  outer loop
    vertex 24.97679990977001 38.93165767628172 8.334375
    vertex 50.799999999999976 0.0 8.334375
    vertex 25.59772172573207 38.90197288644365 8.334375
  endloop
endfacet
facet normal 0.0 0.0 1.0
  outer loop
    vertex 25.59772172573207 38.90197288644365 8.334375
    vertex 50.799999999999976 0.0 8.334375
    vertex 26.20516913283609 39.03400597278172 8.334375
  endloop
endfacet
facet normal 0.0 0.0 1.0
  outer loop
    vertex 26.20516913283609 39.03400597278172 8.334375
    vertex 50.799999999999976 0.0 8.334375
    vertex 26.757745594142236 39.31875909865698 8.334375
  endloop
endfacet
facet normal 0.0 0.0 1.0
  outer loop
    vertex 26.757745594142236 39.31875909865698 8.334375
    vertex 50.799999999999976 0.0 8.334375
    vertex 27.217793936988276 39.73682680911783 8.334375
  endloop
endfacet
facet normal 0.0 0.0 1.0
  outer loop
    vertex 27.217793936988276 39.73682680911783 8.334375
    vertex 50.799999999999976 0.0 8.334375
    vertex 27.553962627075077 40.2597184805859 8.334375
  endloop
endfacet
facet normal 0.0 0.0 1.0
  outer loop
    vertex 27.553962627075077 40.2597184805859 8.334375
    vertex 50.799999999999976 0.0 8.334375
    vertex 27.743342323718256 40.851799909770016 8.334375
  endloop
endfacet
facet normal 0.0 0.0 1.0
  outer loop
    vertex 27.743342323718256 40.851799909770016 8.334375
    vertex 50.799999999999976 0.0 8.334375
    vertex 27.773027113556328 41.47272172573207 8.334375
  endloop
endfacet
facet normal 0.0 0.0 1.0
  outer loop
    vertex 27.773027113556328 41.47272172573207 8.334375
    vertex 50.799999999999976 0.0 8.334375
    vertex 27.865251404601494 50.47544349540336 8.334375
  endloop
endfacet
facet normal 0.0 0.0 1.0
  outer loop
    vertex 27.865251404601494 50.47544349540336 8.334375
    vertex 50.799999999999976 0.0 8.334375
    vertex 30.16249999999998 49.523891971046766 8.334375
  endloop
endfacet
facet normal 0.0 0.0 1.0
  outer loop
    vertex 30.16249999999998 49.523891971046766 8.334375
    vertex 50.799999999999976 0.0 8.334375
    vertex 32.13519209080185 48.01019209080185 8.334375
  endloop
endfacet
facet normal 0.0 0.0 1.0
  outer loop
    vertex 32.13519209080185 48.01019209080185 8.334375
    vertex 50.799999999999976 0.0 8.334375
    vertex 33.64889197104676 46.037499999999994 8.334375
  endloop
endfacet
facet normal 0.0 0.0 1.0
  outer loop
    vertex 33.64889197104676 46.037499999999994 8.334375
    vertex 50.799999999999976 0.0 8.334375
    vertex 50.799999999999976 4.762499999999999 8.334375
  endloop
endfacet
facet normal 0.0 0.0 1.0
  outer loop
    vertex 22.93474859539847 50.47544349540336 8.334375
    vertex 23.056657676281716 41.698200090229975 8.334375
    vertex 25.399999999999988 50.79999999999998 8.334375
  endloop
endfacet
facet normal 0.0 0.0 1.0
  outer loop
    vertex 23.056657676281716 41.698200090229975 8.334375
    vertex 22.93474859539847 50.47544349540336 8.334375
    vertex 23.02697288644365 41.07727827426791 8.334375
  endloop
endfacet
facet normal 0.0 0.0 1.0
  outer loop
    vertex 25.399999999999988 50.79999999999998 8.334375
    vertex 23.056657676281716 41.698200090229975 8.334375
    vertex 23.246037372924896 42.29028151941408 8.334375
  endloop
endfacet
facet normal 0.0 0.0 1.0
  outer loop
    vertex 25.399999999999988 50.79999999999998 8.334375
    vertex 23.246037372924896 42.29028151941408 8.334375
    vertex 23.5822060630117 42.81317319088216 8.334375
  endloop
endfacet
facet normal 0.0 0.0 1.0
  outer loop
    vertex 25.399999999999988 50.79999999999998 8.334375
    vertex 23.5822060630117 42.81317319088216 8.334375
    vertex 24.04225440585774 43.231240901343 8.334375
  endloop
endfacet
facet normal 0.0 0.0 1.0
  outer loop
    vertex 25.399999999999988 50.79999999999998 8.334375
    vertex 24.04225440585774 43.231240901343 8.334375
    vertex 24.594830867163882 43.51599402721826 8.334375
  endloop
endfacet
facet normal 0.0 0.0 1.0
  outer loop
    vertex 25.399999999999988 50.79999999999998 8.334375
    vertex 24.594830867163882 43.51599402721826 8.334375
    vertex 25.202278274267908 43.64802711355633 8.334375
  endloop
endfacet
facet normal 0.0 0.0 1.0
  outer loop
    vertex 25.399999999999988 50.79999999999998 8.334375
    vertex 25.202278274267908 43.64802711355633 8.334375
    vertex 25.823200090229967 43.61834232371826 8.334375
  endloop
endfacet
facet normal 0.0 0.0 1.0
  outer loop
    vertex 25.399999999999988 50.79999999999998 8.334375
    vertex 25.823200090229967 43.61834232371826 8.334375
    vertex 27.865251404601494 50.47544349540336 8.334375
  endloop
endfacet
facet normal 0.0 0.0 1.0
  outer loop
    vertex 27.865251404601494 50.47544349540336 8.334375
    vertex 25.823200090229967 43.61834232371826 8.334375
    vertex 26.415281519414073 43.42896262707508 8.334375
  endloop
endfacet
facet normal 0.0 0.0 1.0
  outer loop
    vertex 27.865251404601494 50.47544349540336 8.334375
    vertex 26.415281519414073 43.42896262707508 8.334375
    vertex 26.938173190882154 43.09279393698828 8.334375
  endloop
endfacet
facet normal 0.0 0.0 1.0
  outer loop
    vertex 27.865251404601494 50.47544349540336 8.334375
    vertex 26.938173190882154 43.09279393698828 8.334375
    vertex 27.356240901342996 42.63274559414224 8.334375
  endloop
endfacet
facet normal 0.0 0.0 1.0
  outer loop
    vertex 27.865251404601494 50.47544349540336 8.334375
    vertex 27.356240901342996 42.63274559414224 8.334375
    vertex 27.640994027218255 42.0801691328361 8.334375
  endloop
endfacet
facet normal 0.0 0.0 1.0
  outer loop
    vertex 27.865251404601494 50.47544349540336 8.334375
    vertex 27.640994027218255 42.0801691328361 8.334375
    vertex 27.773027113556328 41.47272172573207 8.334375
  endloop
endfacet
facet normal -0.0 -0.0 -1.0
  outer loop
    vertex 22.93474859539847 50.47544349540336 0.0
    vertex 23.056657676281716 41.698200090229975 0.0
    vertex 23.02697288644365 41.07727827426791 0.0
  endloop
endfacet
facet normal -0.0 -0.0 -1.0
  outer loop
    vertex 23.056657676281716 41.698200090229975 0.0
    vertex 22.93474859539847 50.47544349540336 0.0
    vertex 25.399999999999988 50.79999999999998 0.0
  endloop
endfacet
facet normal -0.0 -0.0 -1.0
  outer loop
    vertex 23.056657676281716 41.698200090229975 0.0
    vertex 25.399999999999988 50.79999999999998 0.0
    vertex 23.246037372924896 42.29028151941408 0.0
  endloop
endfacet
facet normal -0.0 -0.0 -1.0
  outer loop
    vertex 23.246037372924896 42.29028151941408 0.0
    vertex 25.399999999999988 50.79999999999998 0.0
    vertex 23.5822060630117 42.81317319088216 0.0
  endloop
endfacet
facet normal -0.0 -0.0 -1.0
  outer loop
    vertex 23.5822060630117 42.81317319088216 0.0
    vertex 25.399999999999988 50.79999999999998 0.0
    vertex 24.04225440585774 43.231240901343 0.0
  endloop
endfacet
facet normal -0.0 -0.0 -1.0
  outer loop
    vertex 24.04225440585774 43.231240901343 0.0
    vertex 25.399999999999988 50.79999999999998 0.0
    vertex 24.594830867163882 43.51599402721826 0.0
  endloop
endfacet
facet normal -0.0 -0.0 -1.0
  outer loop
    vertex 24.594830867163882 43.51599402721826 0.0
    vertex 25.399999999999988 50.79999999999998 0.0
    vertex 25.202278274267908 43.64802711355633 0.0
  endloop
endfacet
facet normal -0.0 -0.0 -1.0
  outer loop
    vertex 25.202278274267908 43.64802711355633 0.0
    vertex 25.399999999999988 50.79999999999998 0.0
    vertex 25.823200090229967 43.61834232371826 0.0
  endloop
endfacet
facet normal -0.0 -0.0 -1.0
  outer loop
    vertex 25.823200090229967 43.61834232371826 0.0
    vertex 25.399999999999988 50.79999999999998 0.0
    vertex 27.865251404601494 50.47544349540336 0.0
  endloop
endfacet
facet normal -0.0 -0.0 -1.0
  outer loop
    vertex 25.823200090229967 43.61834232371826 0.0
    vertex 27.865251404601494 50.47544349540336 0.0
    vertex 26.415281519414073 43.42896262707508 0.0
  endloop
endfacet
facet normal -0.0 -0.0 -1.0
  outer loop
    vertex 26.415281519414073 43.42896262707508 0.0
    vertex 27.865251404601494 50.47544349540336 0.0
    vertex 26.938173190882154 43.09279393698828 0.0
  endloop
endfacet
facet normal -0.0 -0.0 -1.0
  outer loop
    vertex 26.938173190882154 43.09279393698828 0.0
    vertex 27.865251404601494 50.47544349540336 0.0
    vertex 27.356240901342996 42.63274559414224 0.0
  endloop
endfacet
facet normal -0.0 -0.0 -1.0
  outer loop
    vertex 27.356240901342996 42.63274559414224 0.0
    vertex 27.865251404601494 50.47544349540336 0.0
    vertex 27.640994027218255 42.0801691328361 0.0
  endloop
endfacet
facet normal -0.0 -0.0 -1.0
  outer loop
    vertex 27.640994027218255 42.0801691328361 0.0
    vertex 27.865251404601494 50.47544349540336 0.0
    vertex 27.773027113556328 41.47272172573207 0.0
  endloop
endfacet
facet normal -0.0 -0.0 -1.0
  outer loop
    vertex 17.15110802895321 46.03749999999998 0.0
    vertex 0.0 0.0 0.0
    vertex 0.0 4.762499999999999 0.0
  endloop
endfacet
facet normal -0.0 -0.0 -1.0
  outer loop
    vertex 0.0 0.0 0.0
    vertex 17.15110802895321 46.03749999999998 0.0
    vertex 50.799999999999976 0.0 0.0
  endloop
endfacet
facet normal -0.0 -0.0 -1.0
  outer loop
    vertex 50.799999999999976 0.0 0.0
    vertex 17.15110802895321 46.03749999999998 0.0
    vertex 23.44375909865698 39.91725440585774 0.0
  endloop
endfacet
facet normal -0.0 -0.0 -1.0
  outer loop
    vertex 23.44375909865698 39.91725440585774 0.0
    vertex 17.15110802895321 46.03749999999998 0.0
    vertex 18.664807909198124 48.01019209080185 0.0
  endloop
endfacet
facet normal -0.0 -0.0 -1.0
  outer loop
    vertex 23.44375909865698 39.91725440585774 0.0
    vertex 18.664807909198124 48.01019209080185 0.0
    vertex 23.15900597278172 40.469830867163886 0.0
  endloop
endfacet
facet normal -0.0 -0.0 -1.0
  outer loop
    vertex 23.15900597278172 40.469830867163886 0.0
    vertex 18.664807909198124 48.01019209080185 0.0
    vertex 20.63749999999999 49.523891971046766 0.0
  endloop
endfacet
facet normal -0.0 -0.0 -1.0
  outer loop
    vertex 23.15900597278172 40.469830867163886 0.0
    vertex 20.63749999999999 49.523891971046766 0.0
    vertex 23.02697288644365 41.07727827426791 0.0
  endloop
endfacet
facet normal -0.0 -0.0 -1.0
  outer loop
    vertex 23.02697288644365 41.07727827426791 0.0
    vertex 20.63749999999999 49.523891971046766 0.0
    vertex 22.93474859539847 50.47544349540336 0.0
  endloop
endfacet
facet normal -0.0 -0.0 -1.0
  outer loop
    vertex 50.799999999999976 0.0 0.0
    vertex 23.44375909865698 39.91725440585774 0.0
    vertex 23.861826809117822 39.457206063011704 0.0
  endloop
endfacet
facet normal -0.0 -0.0 -1.0
  outer loop
    vertex 50.799999999999976 0.0 0.0
    vertex 23.861826809117822 39.457206063011704 0.0
    vertex 24.384718480585903 39.1210373729249 0.0
  endloop
endfacet
facet normal -0.0 -0.0 -1.0
  outer loop
    vertex 50.799999999999976 0.0 0.0
    vertex 24.384718480585903 39.1210373729249 0.0
    vertex 24.97679990977001 38.93165767628172 0.0
  endloop
endfacet
facet normal -0.0 -0.0 -1.0
  outer loop
    vertex 50.799999999999976 0.0 0.0
    vertex 24.97679990977001 38.93165767628172 0.0
    vertex 25.59772172573207 38.90197288644365 0.0
  endloop
endfacet
facet normal -0.0 -0.0 -1.0
  outer loop
    vertex 50.799999999999976 0.0 0.0
    vertex 25.59772172573207 38.90197288644365 0.0
    vertex 26.20516913283609 39.03400597278172 0.0
  endloop
endfacet
facet normal -0.0 -0.0 -1.0
  outer loop
    vertex 50.799999999999976 0.0 0.0
    vertex 26.20516913283609 39.03400597278172 0.0
    vertex 26.757745594142236 39.31875909865698 0.0
  endloop
endfacet
facet normal -0.0 -0.0 -1.0
  outer loop
    vertex 50.799999999999976 0.0 0.0
    vertex 26.757745594142236 39.31875909865698 0.0
    vertex 27.217793936988276 39.73682680911783 0.0
  endloop
endfacet
facet normal -0.0 -0.0 -1.0
  outer loop
    vertex 50.799999999999976 0.0 0.0
    vertex 27.217793936988276 39.73682680911783 0.0
    vertex 27.553962627075077 40.2597184805859 0.0
  endloop
endfacet
facet normal -0.0 -0.0 -1.0
  outer loop
    vertex 50.799999999999976 0.0 0.0
    vertex 27.553962627075077 40.2597184805859 0.0
    vertex 27.743342323718256 40.851799909770016 0.0
  endloop
endfacet
facet normal -0.0 -0.0 -1.0
  outer loop
    vertex 50.799999999999976 0.0 0.0
    vertex 27.743342323718256 40.851799909770016 0.0
    vertex 27.773027113556328 41.47272172573207 0.0
  endloop
endfacet
facet normal -0.0 -0.0 -1.0
  outer loop
    vertex 50.799999999999976 0.0 0.0
    vertex 27.773027113556328 41.47272172573207 0.0
    vertex 27.865251404601494 50.47544349540336 0.0
  endloop
endfacet
facet normal -0.0 -0.0 -1.0
  outer loop
    vertex 50.799999999999976 0.0 0.0
    vertex 27.865251404601494 50.47544349540336 0.0
    vertex 30.16249999999998 49.523891971046766 0.0
  endloop
endfacet
facet normal -0.0 -0.0 -1.0
  outer loop
    vertex 50.799999999999976 0.0 0.0
    vertex 30.16249999999998 49.523891971046766 0.0
    vertex 32.13519209080185 48.01019209080185 0.0
  endloop
endfacet
facet normal -0.0 -0.0 -1.0
  outer loop
    vertex 50.799999999999976 0.0 0.0
    vertex 32.13519209080185 48.01019209080185 0.0
    vertex 33.64889197104676 46.037499999999994 0.0
  endloop
endfacet
facet normal -0.0 -0.0 -1.0
  outer loop
    vertex 50.799999999999976 0.0 0.0
    vertex 33.64889197104676 46.037499999999994 0.0
    vertex 50.799999999999976 4.762499999999999 0.0
  endloop
endfacet
facet normal 0.923448297475801 0.383722871209216 0.0
  outer loop
    vertex 33.64889197104676 46.037499999999994 0.0
    vertex 50.799999999999976 4.762499999999999 8.334375
    vertex 50.799999999999976 4.762499999999999 0.0
  endloop
endfacet
facet normal 0.923448297475801 0.383722871209216 0.0
  outer loop
    vertex 50.799999999999976 4.762499999999999 8.334375
    vertex 33.64889197104676 46.037499999999994 0.0
    vertex 33.64889197104676 46.037499999999994 8.334375
  endloop
endfacet
facet normal 0.7933533402912356 0.6087614290087202 0.0
  outer loop
    vertex 32.13519209080185 48.01019209080185 0.0
    vertex 33.64889197104676 46.037499999999994 8.334375
    vertex 33.64889197104676 46.037499999999994 0.0
  endloop
endfacet
facet normal 0.7933533402912356 0.6087614290087202 0.0
  outer loop
    vertex 33.64889197104676 46.037499999999994 8.334375
    vertex 32.13519209080185 48.01019209080185 0.0
    vertex 32.13519209080185 48.01019209080185 8.334375
  endloop
endfacet
facet normal 0.6087614290087191 0.7933533402912365 0.0
  outer loop
    vertex 30.16249999999998 49.523891971046766 8.334375
    vertex 32.13519209080185 48.01019209080185 0.0
    vertex 30.16249999999998 49.523891971046766 0.0
  endloop
endfacet
facet normal 0.6087614290087191 0.7933533402912365 0.0
  outer loop
    vertex 32.13519209080185 48.01019209080185 0.0
    vertex 30.16249999999998 49.523891971046766 8.334375
    vertex 32.13519209080185 48.01019209080185 8.334375
  endloop
endfacet
facet normal 0.38268343236509034 0.9238795325112867 0.0
  outer loop
    vertex 27.865251404601494 50.47544349540336 8.334375
    vertex 30.16249999999998 49.523891971046766 0.0
    vertex 27.865251404601494 50.47544349540336 0.0
  endloop
endfacet
facet normal 0.38268343236509034 0.9238795325112867 0.0
  outer loop
    vertex 30.16249999999998 49.523891971046766 0.0
    vertex 27.865251404601494 50.47544349540336 8.334375
    vertex 30.16249999999998 49.523891971046766 8.334375
  endloop
endfacet
facet normal 0.13052619222005155 0.9914448613738106 0.0
  outer loop
    vertex 25.399999999999988 50.79999999999998 8.334375
    vertex 27.865251404601494 50.47544349540336 0.0
    vertex 25.399999999999988 50.79999999999998 0.0
  endloop
endfacet
facet normal 0.13052619222005155 0.9914448613738106 0.0
  outer loop
    vertex 27.865251404601494 50.47544349540336 0.0
    vertex 25.399999999999988 50.79999999999998 8.334375
    vertex 27.865251404601494 50.47544349540336 8.334375
  endloop
endfacet
facet normal -0.13052619222005107 0.9914448613738105 0.0
  outer loop
    vertex 22.93474859539847 50.47544349540336 8.334375
    vertex 25.399999999999988 50.79999999999998 0.0
    vertex 22.93474859539847 50.47544349540336 0.0
  endloop
endfacet
facet normal -0.13052619222005107 0.9914448613738105 0.0
  outer loop
    vertex 25.399999999999988 50.79999999999998 0.0
    vertex 22.93474859539847 50.47544349540336 8.334375
    vertex 25.399999999999988 50.79999999999998 8.334375
  endloop
endfacet
facet normal -0.3826834323650907 0.9238795325112865 0.0
  outer loop
    vertex 20.63749999999999 49.523891971046766 8.334375
    vertex 22.93474859539847 50.47544349540336 0.0
    vertex 20.63749999999999 49.523891971046766 0.0
  endloop
endfacet
facet normal -0.3826834323650907 0.9238795325112865 0.0
  outer loop
    vertex 22.93474859539847 50.47544349540336 0.0
    vertex 20.63749999999999 49.523891971046766 8.334375
    vertex 22.93474859539847 50.47544349540336 8.334375
  endloop
endfacet
facet normal -0.6087614290087217 0.7933533402912345 0.0
  outer loop
    vertex 18.664807909198124 48.01019209080185 8.334375
    vertex 20.63749999999999 49.523891971046766 0.0
    vertex 18.664807909198124 48.01019209080185 0.0
  endloop
endfacet
facet normal -0.6087614290087217 0.7933533402912345 0.0
  outer loop
    vertex 20.63749999999999 49.523891971046766 0.0
    vertex 18.664807909198124 48.01019209080185 8.334375
    vertex 20.63749999999999 49.523891971046766 8.334375
  endloop
endfacet
facet normal -0.7933533402912353 0.6087614290087204 0.0
  outer loop
    vertex 18.664807909198124 48.01019209080185 8.334375
    vertex 17.15110802895321 46.03749999999998 0.0
    vertex 17.15110802895321 46.03749999999998 8.334375
  endloop
endfacet
facet normal -0.7933533402912353 0.6087614290087204 0.0
  outer loop
    vertex 17.15110802895321 46.03749999999998 0.0
    vertex 18.664807909198124 48.01019209080185 8.334375
    vertex 18.664807909198124 48.01019209080185 0.0
  endloop
endfacet
facet normal -0.9234482974758011 0.38372287120921605 0.0
  outer loop
    vertex 17.15110802895321 46.03749999999998 8.334375
    vertex 0.0 4.762499999999999 0.0
    vertex 0.0 4.762499999999999 8.334375
  endloop
endfacet
facet normal -0.9234482974758011 0.38372287120921605 0.0
  outer loop
    vertex 0.0 4.762499999999999 0.0
    vertex 17.15110802895321 46.03749999999998 8.334375
    vertex 17.15110802895321 46.03749999999998 0.0
  endloop
endfacet
facet normal -1.0 -0.0 -0.0
  outer loop
    vertex 0.0 4.762499999999999 8.334375
    vertex 0.0 0.0 0.0
    vertex 0.0 0.0 8.334375
  endloop
endfacet
facet normal -1.0 -0.0 -0.0
  outer loop
    vertex 0.0 0.0 0.0
    vertex 0.0 4.762499999999999 8.334375
    vertex 0.0 4.762499999999999 0.0
  endloop
endfacet
facet normal 0.0 -1.0 0.0
  outer loop
    vertex 50.799999999999976 0.0 8.334375
    vertex 0.0 0.0 0.0
    vertex 50.799999999999976 0.0 0.0
  endloop
endfacet
facet normal 0.0 -1.0 0.0
  outer loop
    vertex 0.0 0.0 0.0
    vertex 50.799999999999976 0.0 8.334375
    vertex 0.0 0.0 8.334375
  endloop
endfacet
facet normal 1.0 -0.0 0.0
  outer loop
    vertex 50.799999999999976 4.762499999999999 0.0
    vertex 50.799999999999976 0.0 8.334375
    vertex 50.799999999999976 0.0 0.0
  endloop
endfacet
facet normal 1.0 -0.0 0.0
  outer loop
    vertex 50.799999999999976 0.0 8.334375
    vertex 50.799999999999976 4.762499999999999 0.0
    vertex 50.799999999999976 4.762499999999999 8.334375
  endloop
endfacet
facet normal 0.8215184887529704 0.5701818768051434 0.0
  outer loop
    vertex 23.44375909865698 39.91725440585774 0.0
    vertex 23.861826809117822 39.457206063011704 8.334375
    vertex 23.861826809117822 39.457206063011704 0.0
  endloop
endfacet
facet normal 0.6459519961709893 0.7633780312811697 0.0
  outer loop
    vertex 23.861826809117822 39.457206063011704 8.334375
    vertex 23.44375909865698 39.91725440585774 0.0
    vertex 23.44375909865698 39.91725440585774 8.334375
  endloop
endfacet
facet normal 0.9410998539499291 0.33812876969495237 0.0
  outer loop
    vertex 23.15900597278172 40.469830867163886 0.0
    vertex 23.44375909865698 39.91725440585774 8.334375
    vertex 23.44375909865698 39.91725440585774 0.0
  endloop
endfacet
facet normal 0.8215184887529704 0.5701818768051434 0.0
  outer loop
    vertex 23.44375909865698 39.91725440585774 8.334375
    vertex 23.15900597278172 40.469830867163886 0.0
    vertex 23.15900597278172 40.469830867163886 8.334375
  endloop
endfacet
facet normal 0.9965468193412443 0.08303274571426177 0.0
  outer loop
    vertex 23.02697288644365 41.07727827426791 0.0
    vertex 23.15900597278172 40.469830867163886 8.334375
    vertex 23.15900597278172 40.469830867163886 0.0
  endloop
endfacet
facet normal 0.9410998539499291 0.33812876969495237 0.0
  outer loop
    vertex 23.15900597278172 40.469830867163886 8.334375
    vertex 23.02697288644365 41.07727827426791 0.0
    vertex 23.02697288644365 41.07727827426791 8.334375
  endloop
endfacet
facet normal 0.9840807658659401 -0.17772182266875677 0.0
  outer loop
    vertex 23.056657676281716 41.698200090229975 0.0
    vertex 23.02697288644365 41.07727827426791 8.334375
    vertex 23.02697288644365 41.07727827426791 0.0
  endloop
endfacet
facet normal 0.9965468193412443 0.08303274571426177 0.0
  outer loop
    vertex 23.02697288644365 41.07727827426791 8.334375
    vertex 23.056657676281716 41.698200090229975 0.0
    vertex 23.056657676281716 41.698200090229975 8.334375
  endloop
endfacet
facet normal 0.9045512344672295 -0.42636494253609913 0.0
  outer loop
    vertex 23.246037372924896 42.29028151941408 0.0
    vertex 23.056657676281716 41.698200090229975 8.334375
    vertex 23.056657676281716 41.698200090229975 0.0
  endloop
endfacet
facet normal 0.9840807658659401 -0.17772182266875677 0.0
  outer loop
    vertex 23.056657676281716 41.698200090229975 8.334375
    vertex 23.246037372924896 42.29028151941408 0.0
    vertex 23.246037372924896 42.29028151941408 8.334375
  endloop
endfacet
facet normal 0.7633780312811697 -0.6459519961709893 0.0
  outer loop
    vertex 23.5822060630117 42.81317319088216 0.0
    vertex 23.246037372924896 42.29028151941408 8.334375
    vertex 23.246037372924896 42.29028151941408 0.0
  endloop
endfacet
facet normal 0.9045512344672295 -0.42636494253609913 0.0
  outer loop
    vertex 23.246037372924896 42.29028151941408 8.334375
    vertex 23.5822060630117 42.81317319088216 0.0
    vertex 23.5822060630117 42.81317319088216 8.334375
  endloop
endfacet
facet normal 0.5701818768051434 -0.8215184887529704 0.0
  outer loop
    vertex 24.04225440585774 43.231240901343 8.334375
    vertex 23.5822060630117 42.81317319088216 0.0
    vertex 24.04225440585774 43.231240901343 0.0
  endloop
endfacet
facet normal 0.7633780312811697 -0.6459519961709893 0.0
  outer loop
    vertex 23.5822060630117 42.81317319088216 0.0
    vertex 24.04225440585774 43.231240901343 8.334375
    vertex 23.5822060630117 42.81317319088216 8.334375
  endloop
endfacet
facet normal 0.338128769694954 -0.9410998539499285 0.0
  outer loop
    vertex 24.594830867163882 43.51599402721826 8.334375
    vertex 24.04225440585774 43.231240901343 0.0
    vertex 24.594830867163882 43.51599402721826 0.0
  endloop
endfacet
facet normal 0.5701818768051434 -0.8215184887529704 0.0
  outer loop
    vertex 24.04225440585774 43.231240901343 0.0
    vertex 24.594830867163882 43.51599402721826 8.334375
    vertex 24.04225440585774 43.231240901343 8.334375
  endloop
endfacet
facet normal 0.08303274571426114 -0.9965468193412444 0.0
  outer loop
    vertex 25.202278274267908 43.64802711355633 8.334375
    vertex 24.594830867163882 43.51599402721826 0.0
    vertex 25.202278274267908 43.64802711355633 0.0
  endloop
endfacet
facet normal 0.338128769694954 -0.9410998539499285 0.0
  outer loop
    vertex 24.594830867163882 43.51599402721826 0.0
    vertex 25.202278274267908 43.64802711355633 8.334375
    vertex 24.594830867163882 43.51599402721826 8.334375
  endloop
endfacet
facet normal -0.17772182266875905 -0.9840807658659395 0.0
  outer loop
    vertex 25.823200090229967 43.61834232371826 8.334375
    vertex 25.202278274267908 43.64802711355633 0.0
    vertex 25.823200090229967 43.61834232371826 0.0
  endloop
endfacet
facet normal 0.08303274571426114 -0.9965468193412444 0.0
  outer loop
    vertex 25.202278274267908 43.64802711355633 0.0
    vertex 25.823200090229967 43.61834232371826 8.334375
    vertex 25.202278274267908 43.64802711355633 8.334375
  endloop
endfacet
facet normal -0.42636494253609913 -0.9045512344672295 0.0
  outer loop
    vertex 26.415281519414073 43.42896262707508 8.334375
    vertex 25.823200090229967 43.61834232371826 0.0
    vertex 26.415281519414073 43.42896262707508 0.0
  endloop
endfacet
facet normal -0.17772182266875905 -0.9840807658659395 0.0
  outer loop
    vertex 25.823200090229967 43.61834232371826 0.0
    vertex 26.415281519414073 43.42896262707508 8.334375
    vertex 25.823200090229967 43.61834232371826 8.334375
  endloop
endfacet
facet normal -0.6459519961709893 -0.7633780312811697 0.0
  outer loop
    vertex 26.938173190882154 43.09279393698828 8.334375
    vertex 26.415281519414073 43.42896262707508 0.0
    vertex 26.938173190882154 43.09279393698828 0.0
  endloop
endfacet
facet normal -0.42636494253609913 -0.9045512344672295 0.0
  outer loop
    vertex 26.415281519414073 43.42896262707508 0.0
    vertex 26.938173190882154 43.09279393698828 8.334375
    vertex 26.415281519414073 43.42896262707508 8.334375
  endloop
endfacet
facet normal -0.6459519961709893 -0.7633780312811697 0.0
  outer loop
    vertex 26.938173190882154 43.09279393698828 8.334375
    vertex 27.356240901342996 42.63274559414224 0.0
    vertex 27.356240901342996 42.63274559414224 8.334375
  endloop
endfacet
facet normal -0.8215184887529704 -0.5701818768051434 0.0
  outer loop
    vertex 27.356240901342996 42.63274559414224 0.0
    vertex 26.938173190882154 43.09279393698828 8.334375
    vertex 26.938173190882154 43.09279393698828 0.0
  endloop
endfacet
facet normal -0.8215184887529704 -0.5701818768051434 0.0
  outer loop
    vertex 27.356240901342996 42.63274559414224 8.334375
    vertex 27.640994027218255 42.0801691328361 0.0
    vertex 27.640994027218255 42.0801691328361 8.334375
  endloop
endfacet
facet normal -0.9410998539499283 -0.3381287696949545 0.0
  outer loop
    vertex 27.640994027218255 42.0801691328361 0.0
    vertex 27.356240901342996 42.63274559414224 8.334375
    vertex 27.356240901342996 42.63274559414224 0.0
  endloop
endfacet
facet normal -0.9410998539499283 -0.3381287696949545 0.0
  outer loop
    vertex 27.640994027218255 42.0801691328361 8.334375
    vertex 27.773027113556328 41.47272172573207 0.0
    vertex 27.773027113556328 41.47272172573207 8.334375
  endloop
endfacet
facet normal -0.9965468193412444 -0.0830327457142617 0.0
  outer loop
    vertex 27.773027113556328 41.47272172573207 0.0
    vertex 27.640994027218255 42.0801691328361 8.334375
    vertex 27.640994027218255 42.0801691328361 0.0
  endloop
endfacet
facet normal -0.9965468193412444 -0.0830327457142617 0.0
  outer loop
    vertex 27.773027113556328 41.47272172573207 8.334375
    vertex 27.743342323718256 40.851799909770016 0.0
    vertex 27.743342323718256 40.851799909770016 8.334375
  endloop
endfacet
facet normal -0.9840807658659396 0.17772182266875894 0.0
  outer loop
    vertex 27.743342323718256 40.851799909770016 0.0
    vertex 27.773027113556328 41.47272172573207 8.334375
    vertex 27.773027113556328 41.47272172573207 0.0
  endloop
endfacet
facet normal -0.9840807658659396 0.17772182266875894 0.0
  outer loop
    vertex 27.743342323718256 40.851799909770016 8.334375
    vertex 27.553962627075077 40.2597184805859 0.0
    vertex 27.553962627075077 40.2597184805859 8.334375
  endloop
endfacet
facet normal -0.9045512344672295 0.42636494253609913 0.0
  outer loop
    vertex 27.553962627075077 40.2597184805859 0.0
    vertex 27.743342323718256 40.851799909770016 8.334375
    vertex 27.743342323718256 40.851799909770016 0.0
  endloop
endfacet
facet normal -0.9045512344672295 0.42636494253609913 0.0
  outer loop
    vertex 27.553962627075077 40.2597184805859 8.334375
    vertex 27.217793936988276 39.73682680911783 0.0
    vertex 27.217793936988276 39.73682680911783 8.334375
  endloop
endfacet
facet normal -0.7633780312811697 0.6459519961709893 0.0
  outer loop
    vertex 27.217793936988276 39.73682680911783 0.0
    vertex 27.553962627075077 40.2597184805859 8.334375
    vertex 27.553962627075077 40.2597184805859 0.0
  endloop
endfacet
facet normal -0.5701818768051434 0.8215184887529704 0.0
  outer loop
    vertex 26.757745594142236 39.31875909865698 8.334375
    vertex 27.217793936988276 39.73682680911783 0.0
    vertex 26.757745594142236 39.31875909865698 0.0
  endloop
endfacet
facet normal -0.7633780312811697 0.6459519961709893 0.0
  outer loop
    vertex 27.217793936988276 39.73682680911783 0.0
    vertex 26.757745594142236 39.31875909865698 8.334375
    vertex 27.217793936988276 39.73682680911783 8.334375
  endloop
endfacet
facet normal -0.3381287696949545 0.9410998539499283 0.0
  outer loop
    vertex 26.20516913283609 39.03400597278172 8.334375
    vertex 26.757745594142236 39.31875909865698 0.0
    vertex 26.20516913283609 39.03400597278172 0.0
  endloop
endfacet
facet normal -0.5701818768051434 0.8215184887529704 0.0
  outer loop
    vertex 26.757745594142236 39.31875909865698 0.0
    vertex 26.20516913283609 39.03400597278172 8.334375
    vertex 26.757745594142236 39.31875909865698 8.334375
  endloop
endfacet
facet normal -0.0830327457142617 0.9965468193412444 0.0
  outer loop
    vertex 25.59772172573207 38.90197288644365 8.334375
    vertex 26.20516913283609 39.03400597278172 0.0
    vertex 25.59772172573207 38.90197288644365 0.0
  endloop
endfacet
facet normal -0.3381287696949545 0.9410998539499283 0.0
  outer loop
    vertex 26.20516913283609 39.03400597278172 0.0
    vertex 25.59772172573207 38.90197288644365 8.334375
    vertex 26.20516913283609 39.03400597278172 8.334375
  endloop
endfacet
facet normal 0.17772182266875894 0.9840807658659396 0.0
  outer loop
    vertex 24.97679990977001 38.93165767628172 8.334375
    vertex 25.59772172573207 38.90197288644365 0.0
    vertex 24.97679990977001 38.93165767628172 0.0
  endloop
endfacet
facet normal -0.0830327457142617 0.9965468193412444 0.0
  outer loop
    vertex 25.59772172573207 38.90197288644365 0.0
    vertex 24.97679990977001 38.93165767628172 8.334375
    vertex 25.59772172573207 38.90197288644365 8.334375
  endloop
endfacet
facet normal 0.42636494253609913 0.9045512344672295 0.0
  outer loop
    vertex 24.384718480585903 39.1210373729249 8.334375
    vertex 24.97679990977001 38.93165767628172 0.0
    vertex 24.384718480585903 39.1210373729249 0.0
  endloop
endfacet
facet normal 0.17772182266875894 0.9840807658659396 0.0
  outer loop
    vertex 24.97679990977001 38.93165767628172 0.0
    vertex 24.384718480585903 39.1210373729249 8.334375
    vertex 24.97679990977001 38.93165767628172 8.334375
  endloop
endfacet
facet normal 0.6459519961709893 0.7633780312811697 0.0
  outer loop
    vertex 23.861826809117822 39.457206063011704 8.334375
    vertex 24.384718480585903 39.1210373729249 0.0
    vertex 23.861826809117822 39.457206063011704 0.0
  endloop
endfacet
facet normal 0.42636494253609913 0.9045512344672295 0.0
  outer loop
    vertex 24.384718480585903 39.1210373729249 0.0
    vertex 23.861826809117822 39.457206063011704 8.334375
    vertex 24.384718480585903 39.1210373729249 8.334375
  endloop
endfacet
endsolid Pivot Block
