solid Roof
facet normal 0.0 1.0177044392397272e-16 -1.0
  outer loop
    vertex 95.24999999999994 76.19999999999997 7.754907827006718e-15
    vertex 0.0 0.0 0.0
    vertex 0.0 76.19999999999997 7.754907827006718e-15
  endloop
endfacet
facet normal 0.0 1.0177044392397272e-16 -1.0
  outer loop
    vertex 0.0 0.0 0.0
    vertex 95.24999999999994 76.19999999999997 7.754907827006718e-15
    vertex 95.24999999999994 0.0 0.0
  endloop
endfacet
facet normal -0.0 1.0 -0.0
  outer loop
    vertex 0.0 76.19999999999997 3.1750000000000043
    vertex 95.24999999999994 76.19999999999997 7.754907827006718e-15
    vertex 0.0 76.19999999999997 7.754907827006718e-15
  endloop
endfacet
facet normal -0.0 1.0 -0.0
  outer loop
    vertex 95.24999999999994 76.19999999999997 7.754907827006718e-15
    vertex 0.0 76.19999999999997 3.1750000000000043
    vertex 95.24999999999994 76.19999999999997 3.1750000000000043
  endloop
endfacet
facet normal -1.0 0.0 0.0
  outer loop
    vertex 0.0 76.19999999999997 3.1750000000000043
    vertex 0.0 0.0 0.0
    vertex 0.0 -1.973976537783528e-14 3.174999999999994
  endloop
endfacet
facet normal -1.0 0.0 0.0
  outer loop
    vertex 0.0 0.0 0.0
    vertex 0.0 76.19999999999997 3.1750000000000043
    vertex 0.0 76.19999999999997 7.754907827006718e-15
  endloop
endfacet
facet normal 0.0 -1.0 -6.217248937900888e-15
  outer loop
    vertex 95.24999999999994 -1.973976537783528e-14 3.174999999999994
    vertex 0.0 0.0 0.0
    vertex 95.24999999999994 0.0 0.0
  endloop
endfacet
facet normal 0.0 -1.0 -6.217248937900888e-15
  outer loop
    vertex 0.0 0.0 0.0
    vertex 95.24999999999994 -1.973976537783528e-14 3.174999999999994
    vertex 0.0 -1.973976537783528e-14 3.174999999999994
  endloop
endfacet
facet normal 1.0 -0.0 -0.0
  outer loop
    vertex 95.24999999999994 0.0 0.0
    vertex 95.24999999999994 76.19999999999997 3.1750000000000043
    vertex 95.24999999999994 -1.973976537783528e-14 3.174999999999994
  endloop
endfacet
facet normal 1.0 -0.0 -0.0
  outer loop
    vertex 95.24999999999994 76.19999999999997 3.1750000000000043
    vertex 95.24999999999994 0.0 0.0
    vertex 95.24999999999994 76.19999999999997 7.754907827006718e-15
  endloop
endfacet
facet normal -0.0 -1.2952601953960158e-16 1.0
  outer loop
    vertex 95.24999999999994 -1.973976537783528e-14 3.174999999999994
    vertex 0.0 76.19999999999997 3.1750000000000043
    vertex 0.0 -1.973976537783528e-14 3.174999999999994
  endloop
endfacet
facet normal -0.0 -1.2952601953960158e-16 1.0
  outer loop
    vertex 0.0 76.19999999999997 3.1750000000000043
    vertex 95.24999999999994 -1.973976537783528e-14 3.174999999999994
    vertex 95.24999999999994 76.19999999999997 3.1750000000000043
  endloop
endfacet
facet normal -8.0496010736838e-33 2.422304781000342e-16 1.0
  outer loop
    vertex 3.1750000000000034 3.1749999999999687 6.350000000000014
    vertex 92.07499999999996 73.02499999999995 6.349999999999997
    vertex 3.1749999999999976 73.02499999999995 6.349999999999997
  endloop
endfacet
facet normal -8.0496010736838e-33 2.422304781000342e-16 1.0
  outer loop
    vertex 92.07499999999996 73.02499999999995 6.349999999999997
    vertex 3.1750000000000034 3.1749999999999687 6.350000000000014
    vertex 92.07499999999996 3.1749999999999687 6.350000000000014
  endloop
endfacet
facet normal 0.7071067811865495 2.8439410572385247e-17 0.7071067811865456
  outer loop
    vertex 95.24999999999994 76.19999999999997 3.1750000000000043
    vertex 92.07499999999996 3.1749999999999687 6.350000000000014
    vertex 95.24999999999994 -1.973976537783528e-14 3.174999999999994
  endloop
endfacet
facet normal 0.7071067811865495 2.8439410572385247e-17 0.7071067811865456
  outer loop
    vertex 92.07499999999996 3.1749999999999687 6.350000000000014
    vertex 95.24999999999994 76.19999999999997 3.1750000000000043
    vertex 92.07499999999996 73.02499999999995 6.349999999999997
  endloop
endfacet
facet normal 2.186186882580304e-32 -0.707106781186551 0.7071067811865441
  outer loop
    vertex 92.07499999999996 3.1749999999999687 6.350000000000014
    vertex 0.0 -1.973976537783528e-14 3.174999999999994
    vertex 95.24999999999994 -1.973976537783528e-14 3.174999999999994
  endloop
endfacet
facet normal 2.186186882580304e-32 -0.707106781186551 0.7071067811865441
  outer loop
    vertex 0.0 -1.973976537783528e-14 3.174999999999994
    vertex 92.07499999999996 3.1749999999999687 6.350000000000014
    vertex 3.1750000000000034 3.1749999999999687 6.350000000000014
  endloop
endfacet
facet normal -0.7071067811865481 1.1849754405159942e-18 0.7071067811865468
  outer loop
    vertex 3.1750000000000034 3.1749999999999687 6.350000000000014
    vertex 0.0 76.19999999999997 3.1750000000000043
    vertex 0.0 -1.973976537783528e-14 3.174999999999994
  endloop
endfacet
facet normal -0.7071067811865481 1.1849754405159942e-18 0.7071067811865468
  outer loop
    vertex 0.0 76.19999999999997 3.1750000000000043
    vertex 3.1750000000000034 3.1749999999999687 6.350000000000014
    vertex 3.1749999999999976 73.02499999999995 6.349999999999997
  endloop
endfacet
facet normal -2.51742731933489e-32 0.7071067811865442 0.7071067811865508
  outer loop
    vertex 3.1749999999999976 73.02499999999995 6.349999999999997
    vertex 95.24999999999994 76.19999999999997 3.1750000000000043
    vertex 0.0 76.19999999999997 3.1750000000000043
  endloop
endfacet
facet normal -2.51742731933489e-32 0.7071067811865442 0.7071067811865508
  outer loop
    vertex 95.24999999999994 76.19999999999997 3.1750000000000043
    vertex 3.1749999999999976 73.02499999999995 6.349999999999997
    vertex 92.07499999999996 73.02499999999995 6.349999999999997
  endloop
endfacet
endsolid Roof
