solid Stabilizer Feet
facet normal 1.1269441503157321e-32 -1.0 -1.4210854715201999e-15
  outer loop
    vertex 31.749999999999986 0.0 0.0
    vertex 25.399999999999988 -2.8199664825478975e-15 3.1750000000000225
    vertex 0.0 0.0 0.0
  endloop
endfacet
facet normal 1.1269441503157321e-32 -1.0 -1.4210854715201999e-15
  outer loop
    vertex 25.399999999999988 -2.8199664825478975e-15 3.1750000000000225
    vertex 31.749999999999986 0.0 0.0
    vertex 31.749999999999986 -8.459899447643692e-15 6.350000000000005
  endloop
endfacet
facet normal 1.1269441503157321e-32 -1.0 -1.4210854715201999e-15
  outer loop
    vertex 25.399999999999988 -2.8199664825478975e-15 3.1750000000000225
    vertex 31.749999999999986 -8.459899447643692e-15 6.350000000000005
    vertex 25.399999999999988 -8.459899447643692e-15 6.350000000000005
  endloop
endfacet
facet normal 1.1269441503157321e-32 -1.0 -1.4210854715201999e-15
  outer loop
    vertex 19.049999999999986 -8.459899447643692e-15 6.350000000000005
    vertex 12.699999999999998 -2.8199664825478975e-15 3.1750000000000225
    vertex 19.049999999999986 -2.8199664825478975e-15 3.1750000000000225
  endloop
endfacet
facet normal 1.1269441503157321e-32 -1.0 -1.4210854715201999e-15
  outer loop
    vertex 12.699999999999998 -2.8199664825478975e-15 3.1750000000000225
    vertex 19.049999999999986 -8.459899447643692e-15 6.350000000000005
    vertex 12.699999999999998 -8.459899447643692e-15 6.350000000000005
  endloop
endfacet
facet normal 1.1269441503157321e-32 -1.0 -1.4210854715201999e-15
  outer loop
    vertex 0.0 0.0 0.0
    vertex 6.35 -2.8199664825478975e-15 3.1750000000000225
    vertex 0.0 -8.459899447643692e-15 6.350000000000005
  endloop
endfacet
facet normal 1.1269441503157321e-32 -1.0 -1.4210854715201999e-15
  outer loop
    vertex 6.35 -2.8199664825478975e-15 3.1750000000000225
    vertex 0.0 0.0 0.0
    vertex 25.399999999999988 -2.8199664825478975e-15 3.1750000000000225
  endloop
endfacet
facet normal 1.1269441503157321e-32 -1.0 -1.4210854715201999e-15
  outer loop
    vertex 6.35 -2.8199664825478975e-15 3.1750000000000225
    vertex 25.399999999999988 -2.8199664825478975e-15 3.1750000000000225
    vertex 19.049999999999986 -2.8199664825478975e-15 3.1750000000000225
  endloop
endfacet
facet normal 1.1269441503157321e-32 -1.0 -1.4210854715201999e-15
  outer loop
    vertex 6.35 -2.8199664825478975e-15 3.1750000000000225
    vertex 19.049999999999986 -2.8199664825478975e-15 3.1750000000000225
    vertex 12.699999999999998 -2.8199664825478975e-15 3.1750000000000225
  endloop
endfacet
facet normal 1.1269441503157321e-32 -1.0 -1.4210854715201999e-15
  outer loop
    vertex 0.0 -8.459899447643692e-15 6.350000000000005
    vertex 6.35 -2.8199664825478975e-15 3.1750000000000225
    vertex 6.35 -8.459899447643692e-15 6.350000000000005
  endloop
endfacet
facet normal -4.3997777868576736e-32 1.0 2.309263891220337e-15
  outer loop
    vertex 0.0 25.40000000000001 7.049916206369744e-15
    vertex 6.35 25.39999999999997 3.1750000000000056
    vertex 31.749999999999986 25.40000000000001 7.049916206369744e-15
  endloop
endfacet
facet normal -4.3997777868576736e-32 1.0 2.309263891220337e-15
  outer loop
    vertex 6.35 25.39999999999997 3.1750000000000056
    vertex 0.0 25.40000000000001 7.049916206369744e-15
    vertex 0.0 25.399999999999984 6.349999999999994
  endloop
endfacet
facet normal -4.3997777868576736e-32 1.0 2.309263891220337e-15
  outer loop
    vertex 6.35 25.39999999999997 3.1750000000000056
    vertex 0.0 25.399999999999984 6.349999999999994
    vertex 6.35 25.399999999999984 6.349999999999994
  endloop
endfacet
facet normal -4.3997777868576736e-32 1.0 2.309263891220337e-15
  outer loop
    vertex 12.699999999999998 25.399999999999984 6.349999999999994
    vertex 19.049999999999986 25.39999999999997 3.1750000000000056
    vertex 12.699999999999998 25.39999999999997 3.1750000000000056
  endloop
endfacet
facet normal -4.3997777868576736e-32 1.0 2.309263891220337e-15
  outer loop
    vertex 19.049999999999986 25.39999999999997 3.1750000000000056
    vertex 12.699999999999998 25.399999999999984 6.349999999999994
    vertex 19.049999999999986 25.399999999999984 6.349999999999994
  endloop
endfacet
facet normal -4.3997777868576736e-32 1.0 2.309263891220337e-15
  outer loop
    vertex 31.749999999999986 25.40000000000001 7.049916206369744e-15
    vertex 25.399999999999988 25.39999999999997 3.1750000000000056
    vertex 31.749999999999986 25.399999999999984 6.349999999999994
  endloop
endfacet
facet normal -4.3997777868576736e-32 1.0 2.309263891220337e-15
  outer loop
    vertex 25.399999999999988 25.39999999999997 3.1750000000000056
    vertex 31.749999999999986 25.40000000000001 7.049916206369744e-15
    vertex 6.35 25.39999999999997 3.1750000000000056
  endloop
endfacet
facet normal -4.3997777868576736e-32 1.0 2.309263891220337e-15
  outer loop
    vertex 25.399999999999988 25.39999999999997 3.1750000000000056
    vertex 6.35 25.39999999999997 3.1750000000000056
    vertex 12.699999999999998 25.39999999999997 3.1750000000000056
  endloop
endfacet
facet normal -4.3997777868576736e-32 1.0 2.309263891220337e-15
  outer loop
    vertex 25.399999999999988 25.39999999999997 3.1750000000000056
    vertex 12.699999999999998 25.39999999999997 3.1750000000000056
    vertex 19.049999999999986 25.39999999999997 3.1750000000000056
  endloop
endfacet
facet normal -4.3997777868576736e-32 1.0 2.309263891220337e-15
  outer loop
    vertex 31.749999999999986 25.399999999999984 6.349999999999994
    vertex 25.399999999999988 25.39999999999997 3.1750000000000056
    vertex 25.399999999999988 25.399999999999984 6.349999999999994
  endloop
endfacet
facet normal -0.0 4.440892098500627e-16 1.0
  outer loop
    vertex 31.749999999999986 -8.459899447643692e-15 6.350000000000005
    vertex 25.399999999999988 25.399999999999984 6.349999999999994
    vertex 25.399999999999988 -8.459899447643692e-15 6.350000000000005
  endloop
endfacet
facet normal -0.0 4.440892098500627e-16 1.0
  outer loop
    vertex 25.399999999999988 25.399999999999984 6.349999999999994
    vertex 31.749999999999986 -8.459899447643692e-15 6.350000000000005
    vertex 31.749999999999986 25.399999999999984 6.349999999999994
  endloop
endfacet
facet normal -1.0 0.0 0.0
  outer loop
    vertex 25.399999999999988 25.399999999999984 6.349999999999994
    vertex 25.399999999999988 -2.8199664825478975e-15 3.1750000000000225
    vertex 25.399999999999988 -8.459899447643692e-15 6.350000000000005
  endloop
endfacet
facet normal -1.0 0.0 0.0
  outer loop
    vertex 25.399999999999988 -2.8199664825478975e-15 3.1750000000000225
    vertex 25.399999999999988 25.399999999999984 6.349999999999994
    vertex 25.399999999999988 25.39999999999997 3.1750000000000056
  endloop
endfacet
facet normal -0.0 6.661338147750946e-16 1.0
  outer loop
    vertex 25.399999999999988 -2.8199664825478975e-15 3.1750000000000225
    vertex 19.049999999999986 25.39999999999997 3.1750000000000056
    vertex 19.049999999999986 -2.8199664825478975e-15 3.1750000000000225
  endloop
endfacet
facet normal -0.0 6.661338147750946e-16 1.0
  outer loop
    vertex 19.049999999999986 25.39999999999997 3.1750000000000056
    vertex 25.399999999999988 -2.8199664825478975e-15 3.1750000000000225
    vertex 25.399999999999988 25.39999999999997 3.1750000000000056
  endloop
endfacet
facet normal 1.0 -0.0 -0.0
  outer loop
    vertex 19.049999999999986 -2.8199664825478975e-15 3.1750000000000225
    vertex 19.049999999999986 25.399999999999984 6.349999999999994
    vertex 19.049999999999986 -8.459899447643692e-15 6.350000000000005
  endloop
endfacet
facet normal 1.0 -0.0 -0.0
  outer loop
    vertex 19.049999999999986 25.399999999999984 6.349999999999994
    vertex 19.049999999999986 -2.8199664825478975e-15 3.1750000000000225
    vertex 19.049999999999986 25.39999999999997 3.1750000000000056
  endloop
endfacet
facet normal -0.0 4.440892098500627e-16 1.0
  outer loop
    vertex 19.049999999999986 -8.459899447643692e-15 6.350000000000005
    vertex 12.699999999999998 25.399999999999984 6.349999999999994
    vertex 12.699999999999998 -8.459899447643692e-15 6.350000000000005
  endloop
endfacet
facet normal -0.0 4.440892098500627e-16 1.0
  outer loop
    vertex 12.699999999999998 25.399999999999984 6.349999999999994
    vertex 19.049999999999986 -8.459899447643692e-15 6.350000000000005
    vertex 19.049999999999986 25.399999999999984 6.349999999999994
  endloop
endfacet
facet normal -1.0 0.0 0.0
  outer loop
    vertex 12.699999999999998 25.399999999999984 6.349999999999994
    vertex 12.699999999999998 -2.8199664825478975e-15 3.1750000000000225
    vertex 12.699999999999998 -8.459899447643692e-15 6.350000000000005
  endloop
endfacet
facet normal -1.0 0.0 0.0
  outer loop
    vertex 12.699999999999998 -2.8199664825478975e-15 3.1750000000000225
    vertex 12.699999999999998 25.399999999999984 6.349999999999994
    vertex 12.699999999999998 25.39999999999997 3.1750000000000056
  endloop
endfacet
facet normal -0.0 6.661338147750946e-16 1.0
  outer loop
    vertex 12.699999999999998 -2.8199664825478975e-15 3.1750000000000225
    vertex 6.35 25.39999999999997 3.1750000000000056
    vertex 6.35 -2.8199664825478975e-15 3.1750000000000225
  endloop
endfacet
facet normal -0.0 6.661338147750946e-16 1.0
  outer loop
    vertex 6.35 25.39999999999997 3.1750000000000056
    vertex 12.699999999999998 -2.8199664825478975e-15 3.1750000000000225
    vertex 12.699999999999998 25.39999999999997 3.1750000000000056
  endloop
endfacet
facet normal 1.0 -0.0 -0.0
  outer loop
    vertex 6.35 -2.8199664825478975e-15 3.1750000000000225
    vertex 6.35 25.399999999999984 6.349999999999994
    vertex 6.35 -8.459899447643692e-15 6.350000000000005
  endloop
endfacet
facet normal 1.0 -0.0 -0.0
  outer loop
    vertex 6.35 25.399999999999984 6.349999999999994
    vertex 6.35 -2.8199664825478975e-15 3.1750000000000225
    vertex 6.35 25.39999999999997 3.1750000000000056
  endloop
endfacet
facet normal -0.0 4.440892098500627e-16 1.0
  outer loop
    vertex 6.35 -8.459899447643692e-15 6.350000000000005
    vertex 0.0 25.399999999999984 6.349999999999994
    vertex 0.0 -8.459899447643692e-15 6.350000000000005
  endloop
endfacet
facet normal -0.0 4.440892098500627e-16 1.0
  outer loop
    vertex 0.0 25.399999999999984 6.349999999999994
    vertex 6.35 -8.459899447643692e-15 6.350000000000005
    vertex 6.35 25.399999999999984 6.349999999999994
  endloop
endfacet
facet normal -1.0 0.0 0.0
  outer loop
    vertex 0.0 25.399999999999984 6.349999999999994
    vertex 0.0 0.0 0.0
    vertex 0.0 -8.459899447643692e-15 6.350000000000005
  endloop
endfacet
facet normal -1.0 0.0 0.0
  outer loop
    vertex 0.0 0.0 0.0
    vertex 0.0 25.399999999999984 6.349999999999994
    vertex 0.0 25.40000000000001 7.049916206369744e-15
  endloop
endfacet
facet normal 0.0 2.77555756156289e-16 -1.0
  outer loop
    vertex 31.749999999999986 25.40000000000001 7.049916206369744e-15
    vertex 0.0 0.0 0.0
    vertex 0.0 25.40000000000001 7.049916206369744e-15
  endloop
endfacet
facet normal 0.0 2.77555756156289e-16 -1.0
  outer loop
    vertex 0.0 0.0 0.0
    vertex 31.749999999999986 25.40000000000001 7.049916206369744e-15
    vertex 31.749999999999986 0.0 0.0
  endloop
endfacet
facet normal 1.0 -0.0 -0.0
  outer loop
    vertex 31.749999999999986 0.0 0.0
    vertex 31.749999999999986 25.399999999999984 6.349999999999994
    vertex 31.749999999999986 -8.459899447643692e-15 6.350000000000005
  endloop
endfacet
facet normal 1.0 -0.0 -0.0
  outer loop
    vertex 31.749999999999986 25.399999999999984 6.349999999999994
    vertex 31.749999999999986 0.0 0.0
    vertex 31.749999999999986 25.40000000000001 7.049916206369744e-15
  endloop
endfacet
endsolid Stabilizer Feet
