solid Stabilizer Leg
facet normal 0.0 0.0 -1.0
  outer loop
    vertex 4.706499063598996 12.483628996935584 0.0
    vertex 3.96875 6.35 0.0
    vertex 3.1750000000000043 11.849261314031187 0.0
  endloop
endfacet
facet normal 0.0 0.0 -1.0
  outer loop
    vertex 3.96875 6.35 0.0
    vertex 4.706499063598996 12.483628996935584 0.0
    vertex 4.049889126149155 6.966312851150378 0.0
  endloop
endfacet
facet normal 0.0 0.0 -1.0
  outer loop
    vertex 4.049889126149155 6.966312851150378 0.0
    vertex 4.706499063598996 12.483628996935584 0.0
    vertex 4.287777007238305 7.5406249999999995 0.0
  endloop
endfacet
facet normal 0.0 0.0 -1.0
  outer loop
    vertex 4.287777007238305 7.5406249999999995 0.0
    vertex 4.706499063598996 12.483628996935584 0.0
    vertex 4.666201977299534 8.033798022700465 0.0
  endloop
endfacet
facet normal 0.0 0.0 -1.0
  outer loop
    vertex 4.666201977299534 8.033798022700465 0.0
    vertex 4.706499063598996 12.483628996935584 0.0
    vertex 5.159375 8.412222992761695 0.0
  endloop
endfacet
facet normal 0.0 0.0 -1.0
  outer loop
    vertex 5.159375 8.412222992761695 0.0
    vertex 4.706499063598996 12.483628996935584 0.0
    vertex 6.350000000000001 12.7 0.0
  endloop
endfacet
facet normal 0.0 0.0 -1.0
  outer loop
    vertex 5.159375 8.412222992761695 0.0
    vertex 6.350000000000001 12.7 0.0
    vertex 5.733687148849622 8.650110873850844 0.0
  endloop
endfacet
facet normal 0.0 0.0 -1.0
  outer loop
    vertex 5.733687148849622 8.650110873850844 0.0
    vertex 6.350000000000001 12.7 0.0
    vertex 6.35 8.73125 0.0
  endloop
endfacet
facet normal 0.0 0.0 -1.0
  outer loop
    vertex 6.35 8.73125 0.0
    vertex 6.350000000000001 12.7 0.0
    vertex 6.966312851150379 8.650110873850844 0.0
  endloop
endfacet
facet normal 0.0 0.0 -1.0
  outer loop
    vertex 6.966312851150379 8.650110873850844 0.0
    vertex 6.350000000000001 12.7 0.0
    vertex 69.85 12.7 0.0
  endloop
endfacet
facet normal 0.0 0.0 -1.0
  outer loop
    vertex 6.966312851150379 8.650110873850844 0.0
    vertex 69.85 12.7 0.0
    vertex 7.540625000000001 8.412222992761695 0.0
  endloop
endfacet
facet normal 0.0 0.0 -1.0
  outer loop
    vertex 7.540625000000001 8.412222992761695 0.0
    vertex 69.85 12.7 0.0
    vertex 8.033798022700465 8.033798022700465 0.0
  endloop
endfacet
facet normal 0.0 0.0 -1.0
  outer loop
    vertex 8.033798022700465 8.033798022700465 0.0
    vertex 69.85 12.7 0.0
    vertex 8.412222992761695 7.540624999999999 0.0
  endloop
endfacet
facet normal 0.0 0.0 -1.0
  outer loop
    vertex 8.412222992761695 7.540624999999999 0.0
    vertex 69.85 12.7 0.0
    vertex 8.650110873850844 6.966312851150376 0.0
  endloop
endfacet
facet normal 0.0 0.0 -1.0
  outer loop
    vertex 8.650110873850844 6.966312851150376 0.0
    vertex 69.85 12.7 0.0
    vertex 8.73125 6.349999999999999 0.0
  endloop
endfacet
facet normal 0.0 0.0 -1.0
  outer loop
    vertex 8.73125 6.349999999999999 0.0
    vertex 69.85 12.7 0.0
    vertex 67.54988912614915 6.966312851150379 0.0
  endloop
endfacet
facet normal 0.0 0.0 -1.0
  outer loop
    vertex 8.73125 6.349999999999999 0.0
    vertex 67.54988912614915 6.966312851150379 0.0
    vertex 67.46875 6.35 0.0
  endloop
endfacet
facet normal 0.0 0.0 -1.0
  outer loop
    vertex 67.54988912614915 6.966312851150379 0.0
    vertex 69.85 12.7 0.0
    vertex 67.7877770072383 7.540625000000001 0.0
  endloop
endfacet
facet normal 0.0 0.0 -1.0
  outer loop
    vertex 67.7877770072383 7.540625000000001 0.0
    vertex 69.85 12.7 0.0
    vertex 68.16620197729952 8.033798022700465 0.0
  endloop
endfacet
facet normal 0.0 0.0 -1.0
  outer loop
    vertex 68.16620197729952 8.033798022700465 0.0
    vertex 69.85 12.7 0.0
    vertex 68.659375 8.412222992761695 0.0
  endloop
endfacet
facet normal 0.0 0.0 -1.0
  outer loop
    vertex 68.659375 8.412222992761695 0.0
    vertex 69.85 12.7 0.0
    vertex 69.23368714884961 8.650110873850844 0.0
  endloop
endfacet
facet normal 0.0 0.0 -1.0
  outer loop
    vertex 69.23368714884961 8.650110873850844 0.0
    vertex 69.85 12.7 0.0
    vertex 69.85 8.73125 0.0
  endloop
endfacet
facet normal 0.0 0.0 -1.0
  outer loop
    vertex 69.85 8.73125 0.0
    vertex 69.85 12.7 0.0
    vertex 71.493500936401 12.483628996935582 0.0
  endloop
endfacet
facet normal 0.0 0.0 -1.0
  outer loop
    vertex 69.85 8.73125 0.0
    vertex 71.493500936401 12.483628996935582 0.0
    vertex 70.46631285115038 8.650110873850844 0.0
  endloop
endfacet
facet normal 0.0 0.0 -1.0
  outer loop
    vertex 70.46631285115038 8.650110873850844 0.0
    vertex 71.493500936401 12.483628996935582 0.0
    vertex 71.04062499999999 8.412222992761695 0.0
  endloop
endfacet
facet normal 0.0 0.0 -1.0
  outer loop
    vertex 71.04062499999999 8.412222992761695 0.0
    vertex 71.493500936401 12.483628996935582 0.0
    vertex 71.53379802270047 8.033798022700465 0.0
  endloop
endfacet
facet normal 0.0 0.0 -1.0
  outer loop
    vertex 71.53379802270047 8.033798022700465 0.0
    vertex 71.493500936401 12.483628996935582 0.0
    vertex 73.02499999999999 11.849261314031184 0.0
  endloop
endfacet
facet normal 0.0 0.0 -1.0
  outer loop
    vertex 71.53379802270047 8.033798022700465 0.0
    vertex 73.02499999999999 11.849261314031184 0.0
    vertex 71.91222299276168 7.5406249999999995 0.0
  endloop
endfacet
facet normal 0.0 0.0 -1.0
  outer loop
    vertex 71.91222299276168 7.5406249999999995 0.0
    vertex 73.02499999999999 11.849261314031184 0.0
    vertex 72.15011087385083 6.966312851150376 0.0
  endloop
endfacet
facet normal 0.0 0.0 -1.0
  outer loop
    vertex 72.15011087385083 6.966312851150376 0.0
    vertex 73.02499999999999 11.849261314031184 0.0
    vertex 72.23125 6.35 0.0
  endloop
endfacet
facet normal 0.0 0.0 -1.0
  outer loop
    vertex 0.21637100306441762 7.993500936401012 0.0
    vertex 0.2163710030644162 4.706499063598993 0.0
    vertex 0.0 6.35 0.0
  endloop
endfacet
facet normal 0.0 0.0 -1.0
  outer loop
    vertex 0.2163710030644162 4.706499063598993 0.0
    vertex 0.21637100306441762 7.993500936401012 0.0
    vertex 0.8507386859688142 3.175 0.0
  endloop
endfacet
facet normal 0.0 0.0 -1.0
  outer loop
    vertex 0.8507386859688142 3.175 0.0
    vertex 0.21637100306441762 7.993500936401012 0.0
    vertex 0.8507386859688163 9.525000000000002 0.0
  endloop
endfacet
facet normal 0.0 0.0 -1.0
  outer loop
    vertex 0.8507386859688142 3.175 0.0
    vertex 0.8507386859688163 9.525000000000002 0.0
    vertex 1.8598719394654228 1.8598719394654235 0.0
  endloop
endfacet
facet normal 0.0 0.0 -1.0
  outer loop
    vertex 1.8598719394654228 1.8598719394654235 0.0
    vertex 0.8507386859688163 9.525000000000002 0.0
    vertex 1.8598719394654235 10.840128060534576 0.0
  endloop
endfacet
facet normal 0.0 0.0 -1.0
  outer loop
    vertex 1.8598719394654228 1.8598719394654235 0.0
    vertex 1.8598719394654235 10.840128060534576 0.0
    vertex 3.174999999999999 0.8507386859688149 0.0
  endloop
endfacet
facet normal 0.0 0.0 -1.0
  outer loop
    vertex 3.174999999999999 0.8507386859688149 0.0
    vertex 1.8598719394654235 10.840128060534576 0.0
    vertex 3.1750000000000043 11.849261314031187 0.0
  endloop
endfacet
facet normal 0.0 0.0 -1.0
  outer loop
    vertex 3.174999999999999 0.8507386859688149 0.0
    vertex 3.1750000000000043 11.849261314031187 0.0
    vertex 4.706499063598992 0.21637100306441692 0.0
  endloop
endfacet
facet normal 0.0 0.0 -1.0
  outer loop
    vertex 4.706499063598992 0.21637100306441692 0.0
    vertex 3.1750000000000043 11.849261314031187 0.0
    vertex 3.96875 6.35 0.0
  endloop
endfacet
facet normal 0.0 0.0 -1.0
  outer loop
    vertex 4.706499063598992 0.21637100306441692 0.0
    vertex 3.96875 6.35 0.0
    vertex 4.049889126149155 5.733687148849622 0.0
  endloop
endfacet
facet normal 0.0 0.0 -1.0
  outer loop
    vertex 4.706499063598992 0.21637100306441692 0.0
    vertex 4.049889126149155 5.733687148849622 0.0
    vertex 4.287777007238305 5.159375000000001 0.0
  endloop
endfacet
facet normal 0.0 0.0 -1.0
  outer loop
    vertex 4.706499063598992 0.21637100306441692 0.0
    vertex 4.287777007238305 5.159375000000001 0.0
    vertex 4.666201977299533 4.666201977299534 0.0
  endloop
endfacet
facet normal 0.0 0.0 -1.0
  outer loop
    vertex 4.706499063598992 0.21637100306441692 0.0
    vertex 4.666201977299533 4.666201977299534 0.0
    vertex 5.159374999999999 4.287777007238305 0.0
  endloop
endfacet
facet normal 0.0 0.0 -1.0
  outer loop
    vertex 4.706499063598992 0.21637100306441692 0.0
    vertex 5.159374999999999 4.287777007238305 0.0
    vertex 6.349999999999999 0.0 0.0
  endloop
endfacet
facet normal 0.0 0.0 -1.0
  outer loop
    vertex 6.349999999999999 0.0 0.0
    vertex 5.159374999999999 4.287777007238305 0.0
    vertex 5.733687148849621 4.049889126149155 0.0
  endloop
endfacet
facet normal 0.0 0.0 -1.0
  outer loop
    vertex 6.349999999999999 0.0 0.0
    vertex 5.733687148849621 4.049889126149155 0.0
    vertex 6.35 3.96875 0.0
  endloop
endfacet
facet normal 0.0 0.0 -1.0
  outer loop
    vertex 6.349999999999999 0.0 0.0
    vertex 6.35 3.96875 0.0
    vertex 69.85 0.0 0.0
  endloop
endfacet
facet normal 0.0 0.0 -1.0
  outer loop
    vertex 69.85 0.0 0.0
    vertex 6.35 3.96875 0.0
    vertex 6.966312851150376 4.049889126149155 0.0
  endloop
endfacet
facet normal 0.0 0.0 -1.0
  outer loop
    vertex 69.85 0.0 0.0
    vertex 6.966312851150376 4.049889126149155 0.0
    vertex 7.5406249999999995 4.287777007238305 0.0
  endloop
endfacet
facet normal 0.0 0.0 -1.0
  outer loop
    vertex 69.85 0.0 0.0
    vertex 7.5406249999999995 4.287777007238305 0.0
    vertex 8.033798022700465 4.666201977299533 0.0
  endloop
endfacet
facet normal 0.0 0.0 -1.0
  outer loop
    vertex 69.85 0.0 0.0
    vertex 8.033798022700465 4.666201977299533 0.0
    vertex 8.412222992761695 5.159374999999998 0.0
  endloop
endfacet
facet normal 0.0 0.0 -1.0
  outer loop
    vertex 69.85 0.0 0.0
    vertex 8.412222992761695 5.159374999999998 0.0
    vertex 8.650110873850844 5.73368714884962 0.0
  endloop
endfacet
facet normal 0.0 0.0 -1.0
  outer loop
    vertex 69.85 0.0 0.0
    vertex 8.650110873850844 5.73368714884962 0.0
    vertex 8.73125 6.349999999999999 0.0
  endloop
endfacet
facet normal 0.0 0.0 -1.0
  outer loop
    vertex 69.85 0.0 0.0
    vertex 8.73125 6.349999999999999 0.0
    vertex 67.54988912614915 5.733687148849622 0.0
  endloop
endfacet
facet normal 0.0 0.0 -1.0
  outer loop
    vertex 67.54988912614915 5.733687148849622 0.0
    vertex 8.73125 6.349999999999999 0.0
    vertex 67.46875 6.35 0.0
  endloop
endfacet
facet normal 0.0 0.0 -1.0
  outer loop
    vertex 69.85 0.0 0.0
    vertex 67.54988912614915 5.733687148849622 0.0
    vertex 67.7877770072383 5.159375 0.0
  endloop
endfacet
facet normal 0.0 0.0 -1.0
  outer loop
    vertex 69.85 0.0 0.0
    vertex 67.7877770072383 5.159375 0.0
    vertex 68.16620197729952 4.666201977299534 0.0
  endloop
endfacet
facet normal 0.0 0.0 -1.0
  outer loop
    vertex 69.85 0.0 0.0
    vertex 68.16620197729952 4.666201977299534 0.0
    vertex 68.659375 4.287777007238305 0.0
  endloop
endfacet
facet normal 0.0 0.0 -1.0
  outer loop
    vertex 69.85 0.0 0.0
    vertex 68.659375 4.287777007238305 0.0
    vertex 69.23368714884961 4.049889126149155 0.0
  endloop
endfacet
facet normal 0.0 0.0 -1.0
  outer loop
    vertex 69.85 0.0 0.0
    vertex 69.23368714884961 4.049889126149155 0.0
    vertex 69.85 3.96875 0.0
  endloop
endfacet
facet normal 0.0 0.0 -1.0
  outer loop
    vertex 69.85 0.0 0.0
    vertex 69.85 3.96875 0.0
    vertex 70.46631285115038 4.049889126149155 0.0
  endloop
endfacet
facet normal 0.0 0.0 -1.0
  outer loop
    vertex 69.85 0.0 0.0
    vertex 70.46631285115038 4.049889126149155 0.0
    vertex 71.49350093640099 0.2163710030644155 0.0
  endloop
endfacet
facet normal 0.0 0.0 -1.0
  outer loop
    vertex 71.49350093640099 0.2163710030644155 0.0
    vertex 70.46631285115038 4.049889126149155 0.0
    vertex 71.04062499999999 4.287777007238305 0.0
  endloop
endfacet
facet normal 0.0 0.0 -1.0
  outer loop
    vertex 71.49350093640099 0.2163710030644155 0.0
    vertex 71.04062499999999 4.287777007238305 0.0
    vertex 71.53379802270047 4.666201977299533 0.0
  endloop
endfacet
facet normal 0.0 0.0 -1.0
  outer loop
    vertex 71.49350093640099 0.2163710030644155 0.0
    vertex 71.53379802270047 4.666201977299533 0.0
    vertex 73.02499999999999 0.8507386859688121 0.0
  endloop
endfacet
facet normal 0.0 0.0 -1.0
  outer loop
    vertex 73.02499999999999 0.8507386859688121 0.0
    vertex 71.53379802270047 4.666201977299533 0.0
    vertex 71.91222299276168 5.159374999999999 0.0
  endloop
endfacet
facet normal 0.0 0.0 -1.0
  outer loop
    vertex 73.02499999999999 0.8507386859688121 0.0
    vertex 71.91222299276168 5.159374999999999 0.0
    vertex 72.15011087385083 5.733687148849621 0.0
  endloop
endfacet
facet normal 0.0 0.0 -1.0
  outer loop
    vertex 73.02499999999999 0.8507386859688121 0.0
    vertex 72.15011087385083 5.733687148849621 0.0
    vertex 72.23125 6.35 0.0
  endloop
endfacet
facet normal 0.0 0.0 -1.0
  outer loop
    vertex 73.02499999999999 0.8507386859688121 0.0
    vertex 72.23125 6.35 0.0
    vertex 73.02499999999999 11.849261314031184 0.0
  endloop
endfacet
facet normal 0.0 0.0 -1.0
  outer loop
    vertex 73.02499999999999 0.8507386859688121 0.0
    vertex 73.02499999999999 11.849261314031184 0.0
    vertex 74.34012806053458 10.840128060534576 0.0
  endloop
endfacet
facet normal 0.0 0.0 -1.0
  outer loop
    vertex 73.02499999999999 0.8507386859688121 0.0
    vertex 74.34012806053458 10.840128060534576 0.0
    vertex 74.34012806053458 1.8598719394654222 0.0
  endloop
endfacet
facet normal 0.0 0.0 -1.0
  outer loop
    vertex 74.34012806053458 1.8598719394654222 0.0
    vertex 74.34012806053458 10.840128060534576 0.0
    vertex 75.34926131403118 9.524999999999999 0.0
  endloop
endfacet
facet normal 0.0 0.0 -1.0
  outer loop
    vertex 74.34012806053458 1.8598719394654222 0.0
    vertex 75.34926131403118 9.524999999999999 0.0
    vertex 75.34926131403117 3.174999999999997 0.0
  endloop
endfacet
facet normal 0.0 0.0 -1.0
  outer loop
    vertex 75.34926131403117 3.174999999999997 0.0
    vertex 75.34926131403118 9.524999999999999 0.0
    vertex 75.98362899693558 4.706499063598988 0.0
  endloop
endfacet
facet normal 0.0 0.0 -1.0
  outer loop
    vertex 75.98362899693558 4.706499063598988 0.0
    vertex 75.34926131403118 9.524999999999999 0.0
    vertex 75.98362899693558 7.993500936401007 0.0
  endloop
endfacet
facet normal 0.0 0.0 -1.0
  outer loop
    vertex 75.98362899693558 4.706499063598988 0.0
    vertex 75.98362899693558 7.993500936401007 0.0
    vertex 76.19999999999999 6.35 0.0
  endloop
endfacet
facet normal 0.0 0.0 1.0
  outer loop
    vertex 0.2163710030644162 4.706499063598993 9.524999999999999
    vertex 0.21637100306441762 7.993500936401012 9.524999999999999
    vertex 0.0 6.35 9.524999999999999
  endloop
endfacet
facet normal 0.0 0.0 1.0
  outer loop
    vertex 0.21637100306441762 7.993500936401012 9.524999999999999
    vertex 0.2163710030644162 4.706499063598993 9.524999999999999
    vertex 0.8507386859688142 3.175 9.524999999999999
  endloop
endfacet
facet normal 0.0 0.0 1.0
  outer loop
    vertex 0.21637100306441762 7.993500936401012 9.524999999999999
    vertex 0.8507386859688142 3.175 9.524999999999999
    vertex 0.8507386859688163 9.525000000000002 9.524999999999999
  endloop
endfacet
facet normal 0.0 0.0 1.0
  outer loop
    vertex 0.8507386859688163 9.525000000000002 9.524999999999999
    vertex 0.8507386859688142 3.175 9.524999999999999
    vertex 1.8598719394654228 1.8598719394654235 9.524999999999999
  endloop
endfacet
facet normal 0.0 0.0 1.0
  outer loop
    vertex 0.8507386859688163 9.525000000000002 9.524999999999999
    vertex 1.8598719394654228 1.8598719394654235 9.524999999999999
    vertex 1.8598719394654235 10.840128060534576 9.524999999999999
  endloop
endfacet
facet normal 0.0 0.0 1.0
  outer loop
    vertex 1.8598719394654235 10.840128060534576 9.524999999999999
    vertex 1.8598719394654228 1.8598719394654235 9.524999999999999
    vertex 3.174999999999999 0.8507386859688149 9.524999999999999
  endloop
endfacet
facet normal 0.0 0.0 1.0
  outer loop
    vertex 1.8598719394654235 10.840128060534576 9.524999999999999
    vertex 3.174999999999999 0.8507386859688149 9.524999999999999
    vertex 3.1750000000000043 11.849261314031187 9.524999999999999
  endloop
endfacet
facet normal 0.0 0.0 1.0
  outer loop
    vertex 3.1750000000000043 11.849261314031187 9.524999999999999
    vertex 3.174999999999999 0.8507386859688149 9.524999999999999
    vertex 4.706499063598992 0.21637100306441692 9.524999999999999
  endloop
endfacet
facet normal 0.0 0.0 1.0
  outer loop
    vertex 3.1750000000000043 11.849261314031187 9.524999999999999
    vertex 4.706499063598992 0.21637100306441692 9.524999999999999
    vertex 3.96875 6.35 9.524999999999999
  endloop
endfacet
facet normal 0.0 0.0 1.0
  outer loop
    vertex 3.96875 6.35 9.524999999999999
    vertex 4.706499063598992 0.21637100306441692 9.524999999999999
    vertex 4.049889126149155 5.733687148849622 9.524999999999999
  endloop
endfacet
facet normal 0.0 0.0 1.0
  outer loop
    vertex 4.049889126149155 5.733687148849622 9.524999999999999
    vertex 4.706499063598992 0.21637100306441692 9.524999999999999
    vertex 4.287777007238305 5.159375000000001 9.524999999999999
  endloop
endfacet
facet normal 0.0 0.0 1.0
  outer loop
    vertex 4.287777007238305 5.159375000000001 9.524999999999999
    vertex 4.706499063598992 0.21637100306441692 9.524999999999999
    vertex 4.666201977299533 4.666201977299534 9.524999999999999
  endloop
endfacet
facet normal 0.0 0.0 1.0
  outer loop
    vertex 4.666201977299533 4.666201977299534 9.524999999999999
    vertex 4.706499063598992 0.21637100306441692 9.524999999999999
    vertex 5.159374999999999 4.287777007238305 9.524999999999999
  endloop
endfacet
facet normal 0.0 0.0 1.0
  outer loop
    vertex 5.159374999999999 4.287777007238305 9.524999999999999
    vertex 4.706499063598992 0.21637100306441692 9.524999999999999
    vertex 6.349999999999999 0.0 9.524999999999999
  endloop
endfacet
facet normal 0.0 0.0 1.0
  outer loop
    vertex 5.159374999999999 4.287777007238305 9.524999999999999
    vertex 6.349999999999999 0.0 9.524999999999999
    vertex 5.733687148849621 4.049889126149155 9.524999999999999
  endloop
endfacet
facet normal 0.0 0.0 1.0
  outer loop
    vertex 5.733687148849621 4.049889126149155 9.524999999999999
    vertex 6.349999999999999 0.0 9.524999999999999
    vertex 6.35 3.96875 9.524999999999999
  endloop
endfacet
facet normal 0.0 0.0 1.0
  outer loop
    vertex 6.35 3.96875 9.524999999999999
    vertex 6.349999999999999 0.0 9.524999999999999
    vertex 69.85 0.0 9.524999999999999
  endloop
endfacet
facet normal 0.0 0.0 1.0
  outer loop
    vertex 6.35 3.96875 9.524999999999999
    vertex 69.85 0.0 9.524999999999999
    vertex 6.966312851150376 4.049889126149155 9.524999999999999
  endloop
endfacet
facet normal 0.0 0.0 1.0
  outer loop
    vertex 6.966312851150376 4.049889126149155 9.524999999999999
    vertex 69.85 0.0 9.524999999999999
    vertex 7.5406249999999995 4.287777007238305 9.524999999999999
  endloop
endfacet
facet normal 0.0 0.0 1.0
  outer loop
    vertex 7.5406249999999995 4.287777007238305 9.524999999999999
    vertex 69.85 0.0 9.524999999999999
    vertex 8.033798022700465 4.666201977299533 9.524999999999999
  endloop
endfacet
facet normal 0.0 0.0 1.0
  outer loop
    vertex 8.033798022700465 4.666201977299533 9.524999999999999
    vertex 69.85 0.0 9.524999999999999
    vertex 8.412222992761695 5.159374999999998 9.524999999999999
  endloop
endfacet
facet normal 0.0 0.0 1.0
  outer loop
    vertex 8.412222992761695 5.159374999999998 9.524999999999999
    vertex 69.85 0.0 9.524999999999999
    vertex 8.650110873850844 5.73368714884962 9.524999999999999
  endloop
endfacet
facet normal 0.0 0.0 1.0
  outer loop
    vertex 8.650110873850844 5.73368714884962 9.524999999999999
    vertex 69.85 0.0 9.524999999999999
    vertex 8.73125 6.349999999999999 9.524999999999999
  endloop
endfacet
facet normal 0.0 0.0 1.0
  outer loop
    vertex 8.73125 6.349999999999999 9.524999999999999
    vertex 69.85 0.0 9.524999999999999
    vertex 67.54988912614915 5.733687148849622 9.524999999999999
  endloop
endfacet
facet normal 0.0 0.0 1.0
  outer loop
    vertex 8.73125 6.349999999999999 9.524999999999999
    vertex 67.54988912614915 5.733687148849622 9.524999999999999
    vertex 67.46875 6.35 9.524999999999999
  endloop
endfacet
facet normal 0.0 0.0 1.0
  outer loop
    vertex 67.54988912614915 5.733687148849622 9.524999999999999
    vertex 69.85 0.0 9.524999999999999
    vertex 67.7877770072383 5.159375 9.524999999999999
  endloop
endfacet
facet normal 0.0 0.0 1.0
  outer loop
    vertex 67.7877770072383 5.159375 9.524999999999999
    vertex 69.85 0.0 9.524999999999999
    vertex 68.16620197729952 4.666201977299534 9.524999999999999
  endloop
endfacet
facet normal 0.0 0.0 1.0
  outer loop
    vertex 68.16620197729952 4.666201977299534 9.524999999999999
    vertex 69.85 0.0 9.524999999999999
    vertex 68.659375 4.287777007238305 9.524999999999999
  endloop
endfacet
facet normal 0.0 0.0 1.0
  outer loop
    vertex 68.659375 4.287777007238305 9.524999999999999
    vertex 69.85 0.0 9.524999999999999
    vertex 69.23368714884961 4.049889126149155 9.524999999999999
  endloop
endfacet
facet normal 0.0 0.0 1.0
  outer loop
    vertex 69.23368714884961 4.049889126149155 9.524999999999999
    vertex 69.85 0.0 9.524999999999999
    vertex 69.85 3.96875 9.524999999999999
  endloop
endfacet
facet normal 0.0 0.0 1.0
  outer loop
    vertex 69.85 3.96875 9.524999999999999
    vertex 69.85 0.0 9.524999999999999
    vertex 71.49350093640099 0.2163710030644155 9.524999999999999
  endloop
endfacet
facet normal 0.0 0.0 1.0
  outer loop
    vertex 69.85 3.96875 9.524999999999999
    vertex 71.49350093640099 0.2163710030644155 9.524999999999999
    vertex 70.46631285115038 4.049889126149155 9.524999999999999
  endloop
endfacet
facet normal 0.0 0.0 1.0
  outer loop
    vertex 70.46631285115038 4.049889126149155 9.524999999999999
    vertex 71.49350093640099 0.2163710030644155 9.524999999999999
    vertex 71.04062499999999 4.287777007238305 9.524999999999999
  endloop
endfacet
facet normal 0.0 0.0 1.0
  outer loop
    vertex 71.04062499999999 4.287777007238305 9.524999999999999
    vertex 71.49350093640099 0.2163710030644155 9.524999999999999
    vertex 71.53379802270047 4.666201977299533 9.524999999999999
  endloop
endfacet
facet normal 0.0 0.0 1.0
  outer loop
    vertex 71.53379802270047 4.666201977299533 9.524999999999999
    vertex 71.49350093640099 0.2163710030644155 9.524999999999999
    vertex 73.02499999999999 0.8507386859688121 9.524999999999999
  endloop
endfacet
facet normal 0.0 0.0 1.0
  outer loop
    vertex 71.53379802270047 4.666201977299533 9.524999999999999
    vertex 73.02499999999999 0.8507386859688121 9.524999999999999
    vertex 71.91222299276168 5.159374999999999 9.524999999999999
  endloop
endfacet
facet normal 0.0 0.0 1.0
  outer loop
    vertex 71.91222299276168 5.159374999999999 9.524999999999999
    vertex 73.02499999999999 0.8507386859688121 9.524999999999999
    vertex 72.15011087385083 5.733687148849621 9.524999999999999
  endloop
endfacet
facet normal 0.0 0.0 1.0
  outer loop
    vertex 72.15011087385083 5.733687148849621 9.524999999999999
    vertex 73.02499999999999 0.8507386859688121 9.524999999999999
    vertex 72.23125 6.35 9.524999999999999
  endloop
endfacet
facet normal 0.0 0.0 1.0
  outer loop
    vertex 3.96875 6.35 9.524999999999999
    vertex 4.706499063598996 12.483628996935584 9.524999999999999
    vertex 3.1750000000000043 11.849261314031187 9.524999999999999
  endloop
endfacet
facet normal 0.0 0.0 1.0
  outer loop
    vertex 4.706499063598996 12.483628996935584 9.524999999999999
    vertex 3.96875 6.35 9.524999999999999
    vertex 4.049889126149155 6.966312851150378 9.524999999999999
  endloop
endfacet
facet normal 0.0 0.0 1.0
  outer loop
    vertex 4.706499063598996 12.483628996935584 9.524999999999999
    vertex 4.049889126149155 6.966312851150378 9.524999999999999
    vertex 4.287777007238305 7.5406249999999995 9.524999999999999
  endloop
endfacet
facet normal 0.0 0.0 1.0
  outer loop
    vertex 4.706499063598996 12.483628996935584 9.524999999999999
    vertex 4.287777007238305 7.5406249999999995 9.524999999999999
    vertex 4.666201977299534 8.033798022700465 9.524999999999999
  endloop
endfacet
facet normal 0.0 0.0 1.0
  outer loop
    vertex 4.706499063598996 12.483628996935584 9.524999999999999
    vertex 4.666201977299534 8.033798022700465 9.524999999999999
    vertex 5.159375 8.412222992761695 9.524999999999999
  endloop
endfacet
facet normal 0.0 0.0 1.0
  outer loop
    vertex 4.706499063598996 12.483628996935584 9.524999999999999
    vertex 5.159375 8.412222992761695 9.524999999999999
    vertex 6.350000000000001 12.7 9.524999999999999
  endloop
endfacet
facet normal 0.0 0.0 1.0
  outer loop
    vertex 6.350000000000001 12.7 9.524999999999999
    vertex 5.159375 8.412222992761695 9.524999999999999
    vertex 5.733687148849622 8.650110873850844 9.524999999999999
  endloop
endfacet
facet normal 0.0 0.0 1.0
  outer loop
    vertex 6.350000000000001 12.7 9.524999999999999
    vertex 5.733687148849622 8.650110873850844 9.524999999999999
    vertex 6.35 8.73125 9.524999999999999
  endloop
endfacet
facet normal 0.0 0.0 1.0
  outer loop
    vertex 6.350000000000001 12.7 9.524999999999999
    vertex 6.35 8.73125 9.524999999999999
    vertex 6.966312851150379 8.650110873850844 9.524999999999999
  endloop
endfacet
facet normal 0.0 0.0 1.0
  outer loop
    vertex 6.350000000000001 12.7 9.524999999999999
    vertex 6.966312851150379 8.650110873850844 9.524999999999999
    vertex 69.85 12.7 9.524999999999999
  endloop
endfacet
facet normal 0.0 0.0 1.0
  outer loop
    vertex 69.85 12.7 9.524999999999999
    vertex 6.966312851150379 8.650110873850844 9.524999999999999
    vertex 7.540625000000001 8.412222992761695 9.524999999999999
  endloop
endfacet
facet normal 0.0 0.0 1.0
  outer loop
    vertex 69.85 12.7 9.524999999999999
    vertex 7.540625000000001 8.412222992761695 9.524999999999999
    vertex 8.033798022700465 8.033798022700465 9.524999999999999
  endloop
endfacet
facet normal 0.0 0.0 1.0
  outer loop
    vertex 69.85 12.7 9.524999999999999
    vertex 8.033798022700465 8.033798022700465 9.524999999999999
    vertex 8.412222992761695 7.540624999999999 9.524999999999999
  endloop
endfacet
facet normal 0.0 0.0 1.0
  outer loop
    vertex 69.85 12.7 9.524999999999999
    vertex 8.412222992761695 7.540624999999999 9.524999999999999
    vertex 8.650110873850844 6.966312851150376 9.524999999999999
  endloop
endfacet
facet normal 0.0 0.0 1.0
  outer loop
    vertex 69.85 12.7 9.524999999999999
    vertex 8.650110873850844 6.966312851150376 9.524999999999999
    vertex 8.73125 6.349999999999999 9.524999999999999
  endloop
endfacet
facet normal 0.0 0.0 1.0
  outer loop
    vertex 69.85 12.7 9.524999999999999
    vertex 8.73125 6.349999999999999 9.524999999999999
    vertex 67.54988912614915 6.966312851150379 9.524999999999999
  endloop
endfacet
facet normal 0.0 0.0 1.0
  outer loop
    vertex 67.54988912614915 6.966312851150379 9.524999999999999
    vertex 8.73125 6.349999999999999 9.524999999999999
    vertex 67.46875 6.35 9.524999999999999
  endloop
endfacet
facet normal 0.0 0.0 1.0
  outer loop
    vertex 69.85 12.7 9.524999999999999
    vertex 67.54988912614915 6.966312851150379 9.524999999999999
    vertex 67.7877770072383 7.540625000000001 9.524999999999999
  endloop
endfacet
facet normal 0.0 0.0 1.0
  outer loop
    vertex 69.85 12.7 9.524999999999999
    vertex 67.7877770072383 7.540625000000001 9.524999999999999
    vertex 68.16620197729952 8.033798022700465 9.524999999999999
  endloop
endfacet
facet normal 0.0 0.0 1.0
  outer loop
    vertex 69.85 12.7 9.524999999999999
    vertex 68.16620197729952 8.033798022700465 9.524999999999999
    vertex 68.659375 8.412222992761695 9.524999999999999
  endloop
endfacet
facet normal 0.0 0.0 1.0
  outer loop
    vertex 69.85 12.7 9.524999999999999
    vertex 68.659375 8.412222992761695 9.524999999999999
    vertex 69.23368714884961 8.650110873850844 9.524999999999999
  endloop
endfacet
facet normal 0.0 0.0 1.0
  outer loop
    vertex 69.85 12.7 9.524999999999999
    vertex 69.23368714884961 8.650110873850844 9.524999999999999
    vertex 69.85 8.73125 9.524999999999999
  endloop
endfacet
facet normal 0.0 0.0 1.0
  outer loop
    vertex 69.85 12.7 9.524999999999999
    vertex 69.85 8.73125 9.524999999999999
    vertex 70.46631285115038 8.650110873850844 9.524999999999999
  endloop
endfacet
facet normal 0.0 0.0 1.0
  outer loop
    vertex 69.85 12.7 9.524999999999999
    vertex 70.46631285115038 8.650110873850844 9.524999999999999
    vertex 71.493500936401 12.483628996935582 9.524999999999999
  endloop
endfacet
facet normal 0.0 0.0 1.0
  outer loop
    vertex 71.493500936401 12.483628996935582 9.524999999999999
    vertex 70.46631285115038 8.650110873850844 9.524999999999999
    vertex 71.04062499999999 8.412222992761695 9.524999999999999
  endloop
endfacet
facet normal 0.0 0.0 1.0
  outer loop
    vertex 71.493500936401 12.483628996935582 9.524999999999999
    vertex 71.04062499999999 8.412222992761695 9.524999999999999
    vertex 71.53379802270047 8.033798022700465 9.524999999999999
  endloop
endfacet
facet normal 0.0 0.0 1.0
  outer loop
    vertex 71.493500936401 12.483628996935582 9.524999999999999
    vertex 71.53379802270047 8.033798022700465 9.524999999999999
    vertex 73.02499999999999 11.849261314031184 9.524999999999999
  endloop
endfacet
facet normal 0.0 0.0 1.0
  outer loop
    vertex 73.02499999999999 11.849261314031184 9.524999999999999
    vertex 71.53379802270047 8.033798022700465 9.524999999999999
    vertex 71.91222299276168 7.5406249999999995 9.524999999999999
  endloop
endfacet
facet normal 0.0 0.0 1.0
  outer loop
    vertex 73.02499999999999 11.849261314031184 9.524999999999999
    vertex 71.91222299276168 7.5406249999999995 9.524999999999999
    vertex 72.15011087385083 6.966312851150376 9.524999999999999
  endloop
endfacet
facet normal 0.0 0.0 1.0
  outer loop
    vertex 73.02499999999999 11.849261314031184 9.524999999999999
    vertex 72.15011087385083 6.966312851150376 9.524999999999999
    vertex 72.23125 6.35 9.524999999999999
  endloop
endfacet
facet normal 0.0 0.0 1.0
  outer loop
    vertex 73.02499999999999 11.849261314031184 9.524999999999999
    vertex 72.23125 6.35 9.524999999999999
    vertex 73.02499999999999 0.8507386859688121 9.524999999999999
  endloop
endfacet
facet normal 0.0 0.0 1.0
  outer loop
    vertex 73.02499999999999 11.849261314031184 9.524999999999999
    vertex 73.02499999999999 0.8507386859688121 9.524999999999999
    vertex 74.34012806053458 1.8598719394654222 9.524999999999999
  endloop
endfacet
facet normal 0.0 0.0 1.0
  outer loop
    vertex 73.02499999999999 11.849261314031184 9.524999999999999
    vertex 74.34012806053458 1.8598719394654222 9.524999999999999
    vertex 74.34012806053458 10.840128060534576 9.524999999999999
  endloop
endfacet
facet normal 0.0 0.0 1.0
  outer loop
    vertex 74.34012806053458 10.840128060534576 9.524999999999999
    vertex 74.34012806053458 1.8598719394654222 9.524999999999999
    vertex 75.34926131403117 3.174999999999997 9.524999999999999
  endloop
endfacet
facet normal 0.0 0.0 1.0
  outer loop
    vertex 74.34012806053458 10.840128060534576 9.524999999999999
    vertex 75.34926131403117 3.174999999999997 9.524999999999999
    vertex 75.34926131403118 9.524999999999999 9.524999999999999
  endloop
endfacet
facet normal 0.0 0.0 1.0
  outer loop
    vertex 75.34926131403118 9.524999999999999 9.524999999999999
    vertex 75.34926131403117 3.174999999999997 9.524999999999999
    vertex 75.98362899693558 4.706499063598988 9.524999999999999
  endloop
endfacet
facet normal 0.0 0.0 1.0
  outer loop
    vertex 75.34926131403118 9.524999999999999 9.524999999999999
    vertex 75.98362899693558 4.706499063598988 9.524999999999999
    vertex 75.98362899693558 7.993500936401007 9.524999999999999
  endloop
endfacet
facet normal 0.0 0.0 1.0
  outer loop
    vertex 75.98362899693558 7.993500936401007 9.524999999999999
    vertex 75.98362899693558 4.706499063598988 9.524999999999999
    vertex 76.19999999999999 6.35 9.524999999999999
  endloop
endfacet
facet normal -0.0 1.0 0.0
  outer loop
    vertex 6.350000000000001 12.7 9.524999999999999
    vertex 69.85 12.7 0.0
    vertex 6.350000000000001 12.7 0.0
  endloop
endfacet
facet normal -0.0 1.0 0.0
  outer loop
    vertex 69.85 12.7 0.0
    vertex 6.350000000000001 12.7 9.524999999999999
    vertex 69.85 12.7 9.524999999999999
  endloop
endfacet
facet normal 0.1305261922200515 0.9914448613738105 0.0
  outer loop
    vertex 69.85 12.7 9.524999999999999
    vertex 71.493500936401 12.483628996935582 0.0
    vertex 69.85 12.7 0.0
  endloop
endfacet
facet normal 0.25881904510252124 0.9659258262890682 0.0
  outer loop
    vertex 71.493500936401 12.483628996935582 0.0
    vertex 69.85 12.7 9.524999999999999
    vertex 71.493500936401 12.483628996935582 9.524999999999999
  endloop
endfacet
facet normal 0.25881904510252124 0.9659258262890682 0.0
  outer loop
    vertex 71.493500936401 12.483628996935582 9.524999999999999
    vertex 73.02499999999999 11.849261314031184 0.0
    vertex 71.493500936401 12.483628996935582 0.0
  endloop
endfacet
facet normal 0.5000000000000001 0.8660254037844387 0.0
  outer loop
    vertex 73.02499999999999 11.849261314031184 0.0
    vertex 71.493500936401 12.483628996935582 9.524999999999999
    vertex 73.02499999999999 11.849261314031184 9.524999999999999
  endloop
endfacet
facet normal 0.5000000000000001 0.8660254037844387 0.0
  outer loop
    vertex 73.02499999999999 11.849261314031184 9.524999999999999
    vertex 74.34012806053458 10.840128060534576 0.0
    vertex 73.02499999999999 11.849261314031184 0.0
  endloop
endfacet
facet normal 0.7071067811865469 0.707106781186548 0.0
  outer loop
    vertex 74.34012806053458 10.840128060534576 0.0
    vertex 73.02499999999999 11.849261314031184 9.524999999999999
    vertex 74.34012806053458 10.840128060534576 9.524999999999999
  endloop
endfacet
facet normal 0.7071067811865469 0.707106781186548 0.0
  outer loop
    vertex 74.34012806053458 10.840128060534576 0.0
    vertex 75.34926131403118 9.524999999999999 9.524999999999999
    vertex 75.34926131403118 9.524999999999999 0.0
  endloop
endfacet
facet normal 0.8660254037844395 0.49999999999999856 0.0
  outer loop
    vertex 75.34926131403118 9.524999999999999 9.524999999999999
    vertex 74.34012806053458 10.840128060534576 0.0
    vertex 74.34012806053458 10.840128060534576 9.524999999999999
  endloop
endfacet
facet normal 0.8660254037844395 0.49999999999999856 0.0
  outer loop
    vertex 75.34926131403118 9.524999999999999 0.0
    vertex 75.98362899693558 7.993500936401007 9.524999999999999
    vertex 75.98362899693558 7.993500936401007 0.0
  endloop
endfacet
facet normal 0.9659258262890685 0.25881904510251974 0.0
  outer loop
    vertex 75.98362899693558 7.993500936401007 9.524999999999999
    vertex 75.34926131403118 9.524999999999999 0.0
    vertex 75.34926131403118 9.524999999999999 9.524999999999999
  endloop
endfacet
facet normal 0.9659258262890685 0.25881904510251974 0.0
  outer loop
    vertex 75.98362899693558 7.993500936401007 0.0
    vertex 76.19999999999999 6.35 9.524999999999999
    vertex 76.19999999999999 6.35 0.0
  endloop
endfacet
facet normal 1.0 1.9604441770423192e-16 0.0
  outer loop
    vertex 76.19999999999999 6.35 9.524999999999999
    vertex 75.98362899693558 7.993500936401007 0.0
    vertex 75.98362899693558 7.993500936401007 9.524999999999999
  endloop
endfacet
facet normal 1.0 1.9604441770423192e-16 0.0
  outer loop
    vertex 76.19999999999999 6.35 0.0
    vertex 75.98362899693558 4.706499063598988 9.524999999999999
    vertex 75.98362899693558 4.706499063598988 0.0
  endloop
endfacet
facet normal 0.9659258262890676 -0.2588190451025228 0.0
  outer loop
    vertex 75.98362899693558 4.706499063598988 9.524999999999999
    vertex 76.19999999999999 6.35 0.0
    vertex 76.19999999999999 6.35 9.524999999999999
  endloop
endfacet
facet normal 0.9659258262890676 -0.2588190451025228 0.0
  outer loop
    vertex 75.98362899693558 4.706499063598988 0.0
    vertex 75.34926131403117 3.174999999999997 9.524999999999999
    vertex 75.34926131403117 3.174999999999997 0.0
  endloop
endfacet
facet normal 0.8660254037844389 -0.4999999999999994 0.0
  outer loop
    vertex 75.34926131403117 3.174999999999997 9.524999999999999
    vertex 75.98362899693558 4.706499063598988 0.0
    vertex 75.98362899693558 4.706499063598988 9.524999999999999
  endloop
endfacet
facet normal 0.8660254037844389 -0.4999999999999994 0.0
  outer loop
    vertex 75.34926131403117 3.174999999999997 0.0
    vertex 74.34012806053458 1.8598719394654222 9.524999999999999
    vertex 74.34012806053458 1.8598719394654222 0.0
  endloop
endfacet
facet normal 0.707106781186549 -0.7071067811865462 0.0
  outer loop
    vertex 74.34012806053458 1.8598719394654222 9.524999999999999
    vertex 75.34926131403117 3.174999999999997 0.0
    vertex 75.34926131403117 3.174999999999997 9.524999999999999
  endloop
endfacet
facet normal 0.707106781186549 -0.7071067811865462 0.0
  outer loop
    vertex 74.34012806053458 1.8598719394654222 9.524999999999999
    vertex 73.02499999999999 0.8507386859688121 0.0
    vertex 74.34012806053458 1.8598719394654222 0.0
  endloop
endfacet
facet normal 0.499999999999999 -0.8660254037844393 0.0
  outer loop
    vertex 73.02499999999999 0.8507386859688121 0.0
    vertex 74.34012806053458 1.8598719394654222 9.524999999999999
    vertex 73.02499999999999 0.8507386859688121 9.524999999999999
  endloop
endfacet
facet normal 0.499999999999999 -0.8660254037844393 0.0
  outer loop
    vertex 73.02499999999999 0.8507386859688121 9.524999999999999
    vertex 71.49350093640099 0.2163710030644155 0.0
    vertex 73.02499999999999 0.8507386859688121 0.0
  endloop
endfacet
facet normal 0.2588190451025196 -0.9659258262890685 0.0
  outer loop
    vertex 71.49350093640099 0.2163710030644155 0.0
    vertex 73.02499999999999 0.8507386859688121 9.524999999999999
    vertex 71.49350093640099 0.2163710030644155 9.524999999999999
  endloop
endfacet
facet normal 0.2588190451025196 -0.9659258262890685 0.0
  outer loop
    vertex 71.49350093640099 0.2163710030644155 9.524999999999999
    vertex 69.85 0.0 0.0
    vertex 71.49350093640099 0.2163710030644155 0.0
  endloop
endfacet
facet normal 0.13052619222005155 -0.9914448613738106 0.0
  outer loop
    vertex 69.85 0.0 0.0
    vertex 71.49350093640099 0.2163710030644155 9.524999999999999
    vertex 69.85 0.0 9.524999999999999
  endloop
endfacet
facet normal -0.0 -1.0 -0.0
  outer loop
    vertex 69.85 0.0 9.524999999999999
    vertex 6.349999999999999 0.0 0.0
    vertex 69.85 0.0 0.0
  endloop
endfacet
facet normal -0.0 -1.0 -0.0
  outer loop
    vertex 6.349999999999999 0.0 0.0
    vertex 69.85 0.0 9.524999999999999
    vertex 6.349999999999999 0.0 9.524999999999999
  endloop
endfacet
facet normal -0.13052619222005188 -0.9914448613738104 -0.0
  outer loop
    vertex 6.349999999999999 0.0 9.524999999999999
    vertex 4.706499063598992 0.21637100306441692 0.0
    vertex 6.349999999999999 0.0 0.0
  endloop
endfacet
facet normal -0.2588190451025209 -0.9659258262890682 0.0
  outer loop
    vertex 4.706499063598992 0.21637100306441692 0.0
    vertex 6.349999999999999 0.0 9.524999999999999
    vertex 4.706499063598992 0.21637100306441692 9.524999999999999
  endloop
endfacet
facet normal -0.2588190451025209 -0.9659258262890682 0.0
  outer loop
    vertex 4.706499063598992 0.21637100306441692 9.524999999999999
    vertex 3.174999999999999 0.8507386859688149 0.0
    vertex 4.706499063598992 0.21637100306441692 0.0
  endloop
endfacet
facet normal -0.5 -0.8660254037844386 0.0
  outer loop
    vertex 3.174999999999999 0.8507386859688149 0.0
    vertex 4.706499063598992 0.21637100306441692 9.524999999999999
    vertex 3.174999999999999 0.8507386859688149 9.524999999999999
  endloop
endfacet
facet normal -0.5 -0.8660254037844386 0.0
  outer loop
    vertex 3.174999999999999 0.8507386859688149 9.524999999999999
    vertex 1.8598719394654228 1.8598719394654235 0.0
    vertex 3.174999999999999 0.8507386859688149 0.0
  endloop
endfacet
facet normal -0.7071067811865475 -0.7071067811865475 0.0
  outer loop
    vertex 1.8598719394654228 1.8598719394654235 0.0
    vertex 3.174999999999999 0.8507386859688149 9.524999999999999
    vertex 1.8598719394654228 1.8598719394654235 9.524999999999999
  endloop
endfacet
facet normal -0.8660254037844387 -0.5 0.0
  outer loop
    vertex 0.8507386859688142 3.175 9.524999999999999
    vertex 1.8598719394654228 1.8598719394654235 0.0
    vertex 1.8598719394654228 1.8598719394654235 9.524999999999999
  endloop
endfacet
facet normal -0.7071067811865475 -0.7071067811865475 0.0
  outer loop
    vertex 1.8598719394654228 1.8598719394654235 0.0
    vertex 0.8507386859688142 3.175 9.524999999999999
    vertex 0.8507386859688142 3.175 0.0
  endloop
endfacet
facet normal -0.9659258262890683 -0.25881904510252063 0.0
  outer loop
    vertex 0.2163710030644162 4.706499063598993 9.524999999999999
    vertex 0.8507386859688142 3.175 0.0
    vertex 0.8507386859688142 3.175 9.524999999999999
  endloop
endfacet
facet normal -0.8660254037844387 -0.5 0.0
  outer loop
    vertex 0.8507386859688142 3.175 0.0
    vertex 0.2163710030644162 4.706499063598993 9.524999999999999
    vertex 0.2163710030644162 4.706499063598993 0.0
  endloop
endfacet
facet normal -1.0 2.1386663749552573e-16 0.0
  outer loop
    vertex 0.0 6.35 9.524999999999999
    vertex 0.2163710030644162 4.706499063598993 0.0
    vertex 0.2163710030644162 4.706499063598993 9.524999999999999
  endloop
endfacet
facet normal -0.9659258262890683 -0.25881904510252063 0.0
  outer loop
    vertex 0.2163710030644162 4.706499063598993 0.0
    vertex 0.0 6.35 9.524999999999999
    vertex 0.0 6.35 0.0
  endloop
endfacet
facet normal -0.9659258262890682 0.25881904510252135 0.0
  outer loop
    vertex 0.21637100306441762 7.993500936401012 9.524999999999999
    vertex 0.0 6.35 0.0
    vertex 0.0 6.35 9.524999999999999
  endloop
endfacet
facet normal -1.0 2.1386663749552573e-16 0.0
  outer loop
    vertex 0.0 6.35 0.0
    vertex 0.21637100306441762 7.993500936401012 9.524999999999999
    vertex 0.21637100306441762 7.993500936401012 0.0
  endloop
endfacet
facet normal -0.8660254037844385 0.5000000000000004 0.0
  outer loop
    vertex 0.8507386859688163 9.525000000000002 9.524999999999999
    vertex 0.21637100306441762 7.993500936401012 0.0
    vertex 0.21637100306441762 7.993500936401012 9.524999999999999
  endloop
endfacet
facet normal -0.9659258262890682 0.25881904510252135 0.0
  outer loop
    vertex 0.21637100306441762 7.993500936401012 0.0
    vertex 0.8507386859688163 9.525000000000002 9.524999999999999
    vertex 0.8507386859688163 9.525000000000002 0.0
  endloop
endfacet
facet normal -0.7071067811865472 0.7071067811865478 0.0
  outer loop
    vertex 1.8598719394654235 10.840128060534576 9.524999999999999
    vertex 0.8507386859688163 9.525000000000002 0.0
    vertex 0.8507386859688163 9.525000000000002 9.524999999999999
  endloop
endfacet
facet normal -0.8660254037844385 0.5000000000000004 0.0
  outer loop
    vertex 0.8507386859688163 9.525000000000002 0.0
    vertex 1.8598719394654235 10.840128060534576 9.524999999999999
    vertex 1.8598719394654235 10.840128060534576 0.0
  endloop
endfacet
facet normal -0.7071067811865472 0.7071067811865478 0.0
  outer loop
    vertex 1.8598719394654235 10.840128060534576 9.524999999999999
    vertex 3.1750000000000043 11.849261314031187 0.0
    vertex 1.8598719394654235 10.840128060534576 0.0
  endloop
endfacet
facet normal -0.49999999999999944 0.8660254037844392 0.0
  outer loop
    vertex 3.1750000000000043 11.849261314031187 0.0
    vertex 1.8598719394654235 10.840128060534576 9.524999999999999
    vertex 3.1750000000000043 11.849261314031187 9.524999999999999
  endloop
endfacet
facet normal -0.49999999999999944 0.8660254037844392 0.0
  outer loop
    vertex 3.1750000000000043 11.849261314031187 9.524999999999999
    vertex 4.706499063598996 12.483628996935584 0.0
    vertex 3.1750000000000043 11.849261314031187 0.0
  endloop
endfacet
facet normal -0.2588190451025203 0.9659258262890684 0.0
  outer loop
    vertex 4.706499063598996 12.483628996935584 0.0
    vertex 3.1750000000000043 11.849261314031187 9.524999999999999
    vertex 4.706499063598996 12.483628996935584 9.524999999999999
  endloop
endfacet
facet normal -0.2588190451025203 0.9659258262890684 0.0
  outer loop
    vertex 4.706499063598996 12.483628996935584 9.524999999999999
    vertex 6.350000000000001 12.7 0.0
    vertex 4.706499063598996 12.483628996935584 0.0
  endloop
endfacet
facet normal -0.1305261922200512 0.9914448613738106 0.0
  outer loop
    vertex 6.350000000000001 12.7 0.0
    vertex 4.706499063598996 12.483628996935584 9.524999999999999
    vertex 6.350000000000001 12.7 9.524999999999999
  endloop
endfacet
facet normal 2.316888572868195e-16 -1.0 0.0
  outer loop
    vertex 6.35 8.73125 9.524999999999999
    vertex 5.733687148849622 8.650110873850844 0.0
    vertex 6.35 8.73125 0.0
  endloop
endfacet
facet normal 0.25881904510252074 -0.9659258262890682 0.0
  outer loop
    vertex 5.733687148849622 8.650110873850844 0.0
    vertex 6.35 8.73125 9.524999999999999
    vertex 5.733687148849622 8.650110873850844 9.524999999999999
  endloop
endfacet
facet normal 0.25881904510252074 -0.9659258262890682 0.0
  outer loop
    vertex 5.733687148849622 8.650110873850844 9.524999999999999
    vertex 5.159375 8.412222992761695 0.0
    vertex 5.733687148849622 8.650110873850844 0.0
  endloop
endfacet
facet normal 0.5000000000000006 -0.8660254037844383 0.0
  outer loop
    vertex 5.159375 8.412222992761695 0.0
    vertex 5.733687148849622 8.650110873850844 9.524999999999999
    vertex 5.159375 8.412222992761695 9.524999999999999
  endloop
endfacet
facet normal 0.5000000000000006 -0.8660254037844383 0.0
  outer loop
    vertex 5.159375 8.412222992761695 9.524999999999999
    vertex 4.666201977299534 8.033798022700465 0.0
    vertex 5.159375 8.412222992761695 0.0
  endloop
endfacet
facet normal 0.7071067811865476 -0.7071067811865476 0.0
  outer loop
    vertex 4.666201977299534 8.033798022700465 0.0
    vertex 5.159375 8.412222992761695 9.524999999999999
    vertex 4.666201977299534 8.033798022700465 9.524999999999999
  endloop
endfacet
facet normal 0.7071067811865476 -0.7071067811865476 0.0
  outer loop
    vertex 4.666201977299534 8.033798022700465 0.0
    vertex 4.287777007238305 7.5406249999999995 9.524999999999999
    vertex 4.287777007238305 7.5406249999999995 0.0
  endloop
endfacet
facet normal 0.8660254037844383 -0.5000000000000007 0.0
  outer loop
    vertex 4.287777007238305 7.5406249999999995 9.524999999999999
    vertex 4.666201977299534 8.033798022700465 0.0
    vertex 4.666201977299534 8.033798022700465 9.524999999999999
  endloop
endfacet
facet normal 0.8660254037844383 -0.5000000000000007 0.0
  outer loop
    vertex 4.287777007238305 7.5406249999999995 0.0
    vertex 4.049889126149155 6.966312851150378 9.524999999999999
    vertex 4.049889126149155 6.966312851150378 0.0
  endloop
endfacet
facet normal 0.9659258262890682 -0.2588190451025208 0.0
  outer loop
    vertex 4.049889126149155 6.966312851150378 9.524999999999999
    vertex 4.287777007238305 7.5406249999999995 0.0
    vertex 4.287777007238305 7.5406249999999995 9.524999999999999
  endloop
endfacet
facet normal 0.9659258262890682 -0.2588190451025208 0.0
  outer loop
    vertex 4.049889126149155 6.966312851150378 0.0
    vertex 3.96875 6.35 9.524999999999999
    vertex 3.96875 6.35 0.0
  endloop
endfacet
facet normal 1.0 7.128887916517523e-17 0.0
  outer loop
    vertex 3.96875 6.35 9.524999999999999
    vertex 4.049889126149155 6.966312851150378 0.0
    vertex 4.049889126149155 6.966312851150378 9.524999999999999
  endloop
endfacet
facet normal 1.0 7.128887916517523e-17 0.0
  outer loop
    vertex 3.96875 6.35 0.0
    vertex 4.049889126149155 5.733687148849622 9.524999999999999
    vertex 4.049889126149155 5.733687148849622 0.0
  endloop
endfacet
facet normal 0.9659258262890682 0.2588190451025209 0.0
  outer loop
    vertex 4.049889126149155 5.733687148849622 9.524999999999999
    vertex 3.96875 6.35 0.0
    vertex 3.96875 6.35 9.524999999999999
  endloop
endfacet
facet normal 0.9659258262890682 0.2588190451025209 0.0
  outer loop
    vertex 4.049889126149155 5.733687148849622 0.0
    vertex 4.287777007238305 5.159375000000001 9.524999999999999
    vertex 4.287777007238305 5.159375000000001 0.0
  endloop
endfacet
facet normal 0.8660254037844387 0.5 0.0
  outer loop
    vertex 4.287777007238305 5.159375000000001 9.524999999999999
    vertex 4.049889126149155 5.733687148849622 0.0
    vertex 4.049889126149155 5.733687148849622 9.524999999999999
  endloop
endfacet
facet normal 0.8660254037844387 0.5 0.0
  outer loop
    vertex 4.287777007238305 5.159375000000001 0.0
    vertex 4.666201977299533 4.666201977299534 9.524999999999999
    vertex 4.666201977299533 4.666201977299534 0.0
  endloop
endfacet
facet normal 0.7071067811865481 0.707106781186547 0.0
  outer loop
    vertex 4.666201977299533 4.666201977299534 9.524999999999999
    vertex 4.287777007238305 5.159375000000001 0.0
    vertex 4.287777007238305 5.159375000000001 9.524999999999999
  endloop
endfacet
facet normal 0.7071067811865481 0.707106781186547 0.0
  outer loop
    vertex 4.666201977299533 4.666201977299534 9.524999999999999
    vertex 5.159374999999999 4.287777007238305 0.0
    vertex 4.666201977299533 4.666201977299534 0.0
  endloop
endfacet
facet normal 0.5000000000000006 0.8660254037844383 0.0
  outer loop
    vertex 5.159374999999999 4.287777007238305 0.0
    vertex 4.666201977299533 4.666201977299534 9.524999999999999
    vertex 5.159374999999999 4.287777007238305 9.524999999999999
  endloop
endfacet
facet normal 0.5000000000000006 0.8660254037844383 0.0
  outer loop
    vertex 5.159374999999999 4.287777007238305 9.524999999999999
    vertex 5.733687148849621 4.049889126149155 0.0
    vertex 5.159374999999999 4.287777007238305 0.0
  endloop
endfacet
facet normal 0.25881904510252063 0.9659258262890683 0.0
  outer loop
    vertex 5.733687148849621 4.049889126149155 0.0
    vertex 5.159374999999999 4.287777007238305 9.524999999999999
    vertex 5.733687148849621 4.049889126149155 9.524999999999999
  endloop
endfacet
facet normal 0.25881904510252063 0.9659258262890683 0.0
  outer loop
    vertex 5.733687148849621 4.049889126149155 9.524999999999999
    vertex 6.35 3.96875 0.0
    vertex 5.733687148849621 4.049889126149155 0.0
  endloop
endfacet
facet normal -1.5148886822599737e-16 1.0 0.0
  outer loop
    vertex 6.35 3.96875 0.0
    vertex 5.733687148849621 4.049889126149155 9.524999999999999
    vertex 6.35 3.96875 9.524999999999999
  endloop
endfacet
facet normal -1.5148886822599737e-16 1.0 0.0
  outer loop
    vertex 6.35 3.96875 9.524999999999999
    vertex 6.966312851150376 4.049889126149155 0.0
    vertex 6.35 3.96875 0.0
  endloop
endfacet
facet normal -0.2588190451025205 0.9659258262890683 0.0
  outer loop
    vertex 6.966312851150376 4.049889126149155 0.0
    vertex 6.35 3.96875 9.524999999999999
    vertex 6.966312851150376 4.049889126149155 9.524999999999999
  endloop
endfacet
facet normal -0.2588190451025205 0.9659258262890683 0.0
  outer loop
    vertex 6.966312851150376 4.049889126149155 9.524999999999999
    vertex 7.5406249999999995 4.287777007238305 0.0
    vertex 6.966312851150376 4.049889126149155 0.0
  endloop
endfacet
facet normal -0.4999999999999997 0.8660254037844389 0.0
  outer loop
    vertex 7.5406249999999995 4.287777007238305 0.0
    vertex 6.966312851150376 4.049889126149155 9.524999999999999
    vertex 7.5406249999999995 4.287777007238305 9.524999999999999
  endloop
endfacet
facet normal -0.4999999999999997 0.8660254037844389 0.0
  outer loop
    vertex 7.5406249999999995 4.287777007238305 9.524999999999999
    vertex 8.033798022700465 4.666201977299533 0.0
    vertex 7.5406249999999995 4.287777007238305 0.0
  endloop
endfacet
facet normal -0.7071067811865469 0.7071067811865481 0.0
  outer loop
    vertex 8.033798022700465 4.666201977299533 0.0
    vertex 7.5406249999999995 4.287777007238305 9.524999999999999
    vertex 8.033798022700465 4.666201977299533 9.524999999999999
  endloop
endfacet
facet normal -0.8660254037844383 0.5000000000000007 0.0
  outer loop
    vertex 8.412222992761695 5.159374999999998 9.524999999999999
    vertex 8.033798022700465 4.666201977299533 0.0
    vertex 8.033798022700465 4.666201977299533 9.524999999999999
  endloop
endfacet
facet normal -0.7071067811865469 0.7071067811865481 0.0
  outer loop
    vertex 8.033798022700465 4.666201977299533 0.0
    vertex 8.412222992761695 5.159374999999998 9.524999999999999
    vertex 8.412222992761695 5.159374999999998 0.0
  endloop
endfacet
facet normal -0.9659258262890682 0.25881904510252074 0.0
  outer loop
    vertex 8.650110873850844 5.73368714884962 9.524999999999999
    vertex 8.412222992761695 5.159374999999998 0.0
    vertex 8.412222992761695 5.159374999999998 9.524999999999999
  endloop
endfacet
facet normal -0.8660254037844383 0.5000000000000007 0.0
  outer loop
    vertex 8.412222992761695 5.159374999999998 0.0
    vertex 8.650110873850844 5.73368714884962 9.524999999999999
    vertex 8.650110873850844 5.73368714884962 0.0
  endloop
endfacet
facet normal -1.0 -1.603999781216443e-16 0.0
  outer loop
    vertex 8.73125 6.349999999999999 9.524999999999999
    vertex 8.650110873850844 5.73368714884962 0.0
    vertex 8.650110873850844 5.73368714884962 9.524999999999999
  endloop
endfacet
facet normal -0.9659258262890682 0.25881904510252074 0.0
  outer loop
    vertex 8.650110873850844 5.73368714884962 0.0
    vertex 8.73125 6.349999999999999 9.524999999999999
    vertex 8.73125 6.349999999999999 0.0
  endloop
endfacet
facet normal -0.9659258262890682 -0.2588190451025209 0.0
  outer loop
    vertex 8.650110873850844 6.966312851150376 9.524999999999999
    vertex 8.73125 6.349999999999999 0.0
    vertex 8.73125 6.349999999999999 9.524999999999999
  endloop
endfacet
facet normal -1.0 -1.603999781216443e-16 0.0
  outer loop
    vertex 8.73125 6.349999999999999 0.0
    vertex 8.650110873850844 6.966312851150376 9.524999999999999
    vertex 8.650110873850844 6.966312851150376 0.0
  endloop
endfacet
facet normal -0.8660254037844386 -0.5000000000000001 0.0
  outer loop
    vertex 8.412222992761695 7.540624999999999 9.524999999999999
    vertex 8.650110873850844 6.966312851150376 0.0
    vertex 8.650110873850844 6.966312851150376 9.524999999999999
  endloop
endfacet
facet normal -0.9659258262890682 -0.2588190451025209 0.0
  outer loop
    vertex 8.650110873850844 6.966312851150376 0.0
    vertex 8.412222992761695 7.540624999999999 9.524999999999999
    vertex 8.412222992761695 7.540624999999999 0.0
  endloop
endfacet
facet normal -0.7071067811865486 -0.7071067811865466 0.0
  outer loop
    vertex 8.033798022700465 8.033798022700465 9.524999999999999
    vertex 8.412222992761695 7.540624999999999 0.0
    vertex 8.412222992761695 7.540624999999999 9.524999999999999
  endloop
endfacet
facet normal -0.8660254037844386 -0.5000000000000001 0.0
  outer loop
    vertex 8.412222992761695 7.540624999999999 0.0
    vertex 8.033798022700465 8.033798022700465 9.524999999999999
    vertex 8.033798022700465 8.033798022700465 0.0
  endloop
endfacet
facet normal -0.7071067811865486 -0.7071067811865466 0.0
  outer loop
    vertex 8.033798022700465 8.033798022700465 9.524999999999999
    vertex 7.540625000000001 8.412222992761695 0.0
    vertex 8.033798022700465 8.033798022700465 0.0
  endloop
endfacet
facet normal -0.5000000000000013 -0.8660254037844377 0.0
  outer loop
    vertex 7.540625000000001 8.412222992761695 0.0
    vertex 8.033798022700465 8.033798022700465 9.524999999999999
    vertex 7.540625000000001 8.412222992761695 9.524999999999999
  endloop
endfacet
facet normal -0.5000000000000013 -0.8660254037844377 0.0
  outer loop
    vertex 7.540625000000001 8.412222992761695 9.524999999999999
    vertex 6.966312851150379 8.650110873850844 0.0
    vertex 7.540625000000001 8.412222992761695 0.0
  endloop
endfacet
facet normal -0.25881904510252063 -0.9659258262890682 0.0
  outer loop
    vertex 6.966312851150379 8.650110873850844 0.0
    vertex 7.540625000000001 8.412222992761695 9.524999999999999
    vertex 6.966312851150379 8.650110873850844 9.524999999999999
  endloop
endfacet
facet normal -0.25881904510252063 -0.9659258262890682 0.0
  outer loop
    vertex 6.966312851150379 8.650110873850844 9.524999999999999
    vertex 6.35 8.73125 0.0
    vertex 6.966312851150379 8.650110873850844 0.0
  endloop
endfacet
facet normal 2.316888572868195e-16 -1.0 0.0
  outer loop
    vertex 6.35 8.73125 0.0
    vertex 6.966312851150379 8.650110873850844 9.524999999999999
    vertex 6.35 8.73125 9.524999999999999
  endloop
endfacet
facet normal 0.8660254037844409 -0.4999999999999962 0.0
  outer loop
    vertex 67.7877770072383 7.540625000000001 0.0
    vertex 67.54988912614915 6.966312851150379 9.524999999999999
    vertex 67.54988912614915 6.966312851150379 0.0
  endloop
endfacet
facet normal 0.9659258262890682 -0.2588190451025209 0.0
  outer loop
    vertex 67.54988912614915 6.966312851150379 9.524999999999999
    vertex 67.7877770072383 7.540625000000001 0.0
    vertex 67.7877770072383 7.540625000000001 9.524999999999999
  endloop
endfacet
facet normal 0.9659258262890682 -0.2588190451025209 0.0
  outer loop
    vertex 67.54988912614915 6.966312851150379 0.0
    vertex 67.46875 6.35 9.524999999999999
    vertex 67.46875 6.35 0.0
  endloop
endfacet
facet normal 1.0 2.2277774739117285e-16 0.0
  outer loop
    vertex 67.46875 6.35 9.524999999999999
    vertex 67.54988912614915 6.966312851150379 0.0
    vertex 67.54988912614915 6.966312851150379 9.524999999999999
  endloop
endfacet
facet normal 1.0 2.2277774739117285e-16 0.0
  outer loop
    vertex 67.46875 6.35 0.0
    vertex 67.54988912614915 5.733687148849622 9.524999999999999
    vertex 67.54988912614915 5.733687148849622 0.0
  endloop
endfacet
facet normal 0.9659258262890683 0.258819045102521 0.0
  outer loop
    vertex 67.54988912614915 5.733687148849622 9.524999999999999
    vertex 67.46875 6.35 0.0
    vertex 67.46875 6.35 9.524999999999999
  endloop
endfacet
facet normal 0.9659258262890683 0.258819045102521 0.0
  outer loop
    vertex 67.54988912614915 5.733687148849622 0.0
    vertex 67.7877770072383 5.159375 9.524999999999999
    vertex 67.7877770072383 5.159375 0.0
  endloop
endfacet
facet normal 0.8660254037844413 0.4999999999999953 0.0
  outer loop
    vertex 67.7877770072383 5.159375 9.524999999999999
    vertex 67.54988912614915 5.733687148849622 0.0
    vertex 67.54988912614915 5.733687148849622 9.524999999999999
  endloop
endfacet
facet normal 0.8660254037844413 0.4999999999999953 0.0
  outer loop
    vertex 67.7877770072383 5.159375 0.0
    vertex 68.16620197729952 4.666201977299534 9.524999999999999
    vertex 68.16620197729952 4.666201977299534 0.0
  endloop
endfacet
facet normal 0.7071067811865479 0.7071067811865474 0.0
  outer loop
    vertex 68.16620197729952 4.666201977299534 9.524999999999999
    vertex 67.7877770072383 5.159375 0.0
    vertex 67.7877770072383 5.159375 9.524999999999999
  endloop
endfacet
facet normal 0.7071067811865479 0.7071067811865474 0.0
  outer loop
    vertex 68.16620197729952 4.666201977299534 9.524999999999999
    vertex 68.659375 4.287777007238305 0.0
    vertex 68.16620197729952 4.666201977299534 0.0
  endloop
endfacet
facet normal 0.5000000000000003 0.8660254037844386 0.0
  outer loop
    vertex 68.659375 4.287777007238305 0.0
    vertex 68.16620197729952 4.666201977299534 9.524999999999999
    vertex 68.659375 4.287777007238305 9.524999999999999
  endloop
endfacet
facet normal 0.5000000000000003 0.8660254037844386 0.0
  outer loop
    vertex 68.659375 4.287777007238305 9.524999999999999
    vertex 69.23368714884961 4.049889126149155 0.0
    vertex 68.659375 4.287777007238305 0.0
  endloop
endfacet
facet normal 0.2588190451025214 0.9659258262890681 0.0
  outer loop
    vertex 69.23368714884961 4.049889126149155 0.0
    vertex 68.659375 4.287777007238305 9.524999999999999
    vertex 69.23368714884961 4.049889126149155 9.524999999999999
  endloop
endfacet
facet normal 0.2588190451025214 0.9659258262890681 0.0
  outer loop
    vertex 69.23368714884961 4.049889126149155 9.524999999999999
    vertex 69.85 3.96875 0.0
    vertex 69.23368714884961 4.049889126149155 0.0
  endloop
endfacet
facet normal 0.0 1.0 0.0
  outer loop
    vertex 69.85 3.96875 0.0
    vertex 69.23368714884961 4.049889126149155 9.524999999999999
    vertex 69.85 3.96875 9.524999999999999
  endloop
endfacet
facet normal 0.0 1.0 0.0
  outer loop
    vertex 69.85 3.96875 9.524999999999999
    vertex 70.46631285115038 4.049889126149155 0.0
    vertex 69.85 3.96875 0.0
  endloop
endfacet
facet normal -0.2588190451025214 0.9659258262890681 0.0
  outer loop
    vertex 70.46631285115038 4.049889126149155 0.0
    vertex 69.85 3.96875 9.524999999999999
    vertex 70.46631285115038 4.049889126149155 9.524999999999999
  endloop
endfacet
facet normal -0.2588190451025214 0.9659258262890681 0.0
  outer loop
    vertex 70.46631285115038 4.049889126149155 9.524999999999999
    vertex 71.04062499999999 4.287777007238305 0.0
    vertex 70.46631285115038 4.049889126149155 0.0
  endloop
endfacet
facet normal -0.49999999999999994 0.8660254037844387 0.0
  outer loop
    vertex 71.04062499999999 4.287777007238305 0.0
    vertex 70.46631285115038 4.049889126149155 9.524999999999999
    vertex 71.04062499999999 4.287777007238305 9.524999999999999
  endloop
endfacet
facet normal -0.49999999999999994 0.8660254037844387 0.0
  outer loop
    vertex 71.04062499999999 4.287777007238305 9.524999999999999
    vertex 71.53379802270047 4.666201977299533 0.0
    vertex 71.04062499999999 4.287777007238305 0.0
  endloop
endfacet
facet normal -0.7071067811865475 0.7071067811865477 0.0
  outer loop
    vertex 71.53379802270047 4.666201977299533 0.0
    vertex 71.04062499999999 4.287777007238305 9.524999999999999
    vertex 71.53379802270047 4.666201977299533 9.524999999999999
  endloop
endfacet
facet normal -0.8660254037844413 0.4999999999999953 0.0
  outer loop
    vertex 71.91222299276168 5.159374999999999 9.524999999999999
    vertex 71.53379802270047 4.666201977299533 0.0
    vertex 71.53379802270047 4.666201977299533 9.524999999999999
  endloop
endfacet
facet normal -0.7071067811865475 0.7071067811865477 0.0
  outer loop
    vertex 71.53379802270047 4.666201977299533 0.0
    vertex 71.91222299276168 5.159374999999999 9.524999999999999
    vertex 71.91222299276168 5.159374999999999 0.0
  endloop
endfacet
facet normal -0.9659258262890683 0.2588190451025209 0.0
  outer loop
    vertex 72.15011087385083 5.733687148849621 9.524999999999999
    vertex 71.91222299276168 5.159374999999999 0.0
    vertex 71.91222299276168 5.159374999999999 9.524999999999999
  endloop
endfacet
facet normal -0.8660254037844413 0.4999999999999953 0.0
  outer loop
    vertex 71.91222299276168 5.159374999999999 0.0
    vertex 72.15011087385083 5.733687148849621 9.524999999999999
    vertex 72.15011087385083 5.733687148849621 0.0
  endloop
endfacet
facet normal -1.0 -1.5148886822599752e-16 0.0
  outer loop
    vertex 72.23125 6.35 9.524999999999999
    vertex 72.15011087385083 5.733687148849621 0.0
    vertex 72.15011087385083 5.733687148849621 9.524999999999999
  endloop
endfacet
facet normal -0.9659258262890683 0.2588190451025209 0.0
  outer loop
    vertex 72.15011087385083 5.733687148849621 0.0
    vertex 72.23125 6.35 9.524999999999999
    vertex 72.23125 6.35 0.0
  endloop
endfacet
facet normal -0.9659258262890684 -0.25881904510252085 0.0
  outer loop
    vertex 72.15011087385083 6.966312851150376 9.524999999999999
    vertex 72.23125 6.35 0.0
    vertex 72.23125 6.35 9.524999999999999
  endloop
endfacet
facet normal -1.0 -1.5148886822599752e-16 0.0
  outer loop
    vertex 72.23125 6.35 0.0
    vertex 72.15011087385083 6.966312851150376 9.524999999999999
    vertex 72.15011087385083 6.966312851150376 0.0
  endloop
endfacet
facet normal -0.8660254037844415 -0.49999999999999517 0.0
  outer loop
    vertex 71.91222299276168 7.5406249999999995 9.524999999999999
    vertex 72.15011087385083 6.966312851150376 0.0
    vertex 72.15011087385083 6.966312851150376 9.524999999999999
  endloop
endfacet
facet normal -0.9659258262890684 -0.25881904510252085 0.0
  outer loop
    vertex 72.15011087385083 6.966312851150376 0.0
    vertex 71.91222299276168 7.5406249999999995 9.524999999999999
    vertex 71.91222299276168 7.5406249999999995 0.0
  endloop
endfacet
facet normal -0.7071067811865479 -0.7071067811865474 0.0
  outer loop
    vertex 71.53379802270047 8.033798022700465 9.524999999999999
    vertex 71.91222299276168 7.5406249999999995 0.0
    vertex 71.91222299276168 7.5406249999999995 9.524999999999999
  endloop
endfacet
facet normal -0.8660254037844415 -0.49999999999999517 0.0
  outer loop
    vertex 71.91222299276168 7.5406249999999995 0.0
    vertex 71.53379802270047 8.033798022700465 9.524999999999999
    vertex 71.53379802270047 8.033798022700465 0.0
  endloop
endfacet
facet normal -0.7071067811865479 -0.7071067811865474 0.0
  outer loop
    vertex 71.53379802270047 8.033798022700465 9.524999999999999
    vertex 71.04062499999999 8.412222992761695 0.0
    vertex 71.53379802270047 8.033798022700465 0.0
  endloop
endfacet
facet normal -0.5000000000000003 -0.8660254037844386 0.0
  outer loop
    vertex 71.04062499999999 8.412222992761695 0.0
    vertex 71.53379802270047 8.033798022700465 9.524999999999999
    vertex 71.04062499999999 8.412222992761695 9.524999999999999
  endloop
endfacet
facet normal -0.5000000000000003 -0.8660254037844386 0.0
  outer loop
    vertex 71.04062499999999 8.412222992761695 9.524999999999999
    vertex 70.46631285115038 8.650110873850844 0.0
    vertex 71.04062499999999 8.412222992761695 0.0
  endloop
endfacet
facet normal -0.2588190451025214 -0.9659258262890681 0.0
  outer loop
    vertex 70.46631285115038 8.650110873850844 0.0
    vertex 71.04062499999999 8.412222992761695 9.524999999999999
    vertex 70.46631285115038 8.650110873850844 9.524999999999999
  endloop
endfacet
facet normal -0.2588190451025214 -0.9659258262890681 0.0
  outer loop
    vertex 70.46631285115038 8.650110873850844 9.524999999999999
    vertex 69.85 8.73125 0.0
    vertex 70.46631285115038 8.650110873850844 0.0
  endloop
endfacet
facet normal 0.0 -1.0 0.0
  outer loop
    vertex 69.85 8.73125 0.0
    vertex 70.46631285115038 8.650110873850844 9.524999999999999
    vertex 69.85 8.73125 9.524999999999999
  endloop
endfacet
facet normal 0.0 -1.0 0.0
  outer loop
    vertex 69.85 8.73125 9.524999999999999
    vertex 69.23368714884961 8.650110873850844 0.0
    vertex 69.85 8.73125 0.0
  endloop
endfacet
facet normal 0.2588190451025214 -0.9659258262890681 0.0
  outer loop
    vertex 69.23368714884961 8.650110873850844 0.0
    vertex 69.85 8.73125 9.524999999999999
    vertex 69.23368714884961 8.650110873850844 9.524999999999999
  endloop
endfacet
facet normal 0.2588190451025214 -0.9659258262890681 0.0
  outer loop
    vertex 69.23368714884961 8.650110873850844 9.524999999999999
    vertex 68.659375 8.412222992761695 0.0
    vertex 69.23368714884961 8.650110873850844 0.0
  endloop
endfacet
facet normal 0.5000000000000003 -0.8660254037844386 0.0
  outer loop
    vertex 68.659375 8.412222992761695 0.0
    vertex 69.23368714884961 8.650110873850844 9.524999999999999
    vertex 68.659375 8.412222992761695 9.524999999999999
  endloop
endfacet
facet normal 0.5000000000000003 -0.8660254037844386 0.0
  outer loop
    vertex 68.659375 8.412222992761695 9.524999999999999
    vertex 68.16620197729952 8.033798022700465 0.0
    vertex 68.659375 8.412222992761695 0.0
  endloop
endfacet
facet normal 0.7071067811865472 -0.7071067811865477 0.0
  outer loop
    vertex 68.16620197729952 8.033798022700465 0.0
    vertex 68.659375 8.412222992761695 9.524999999999999
    vertex 68.16620197729952 8.033798022700465 9.524999999999999
  endloop
endfacet
facet normal 0.7071067811865472 -0.7071067811865477 0.0
  outer loop
    vertex 68.16620197729952 8.033798022700465 0.0
    vertex 67.7877770072383 7.540625000000001 9.524999999999999
    vertex 67.7877770072383 7.540625000000001 0.0
  endloop
endfacet
facet normal 0.8660254037844409 -0.4999999999999962 0.0
  outer loop
    vertex 67.7877770072383 7.540625000000001 9.524999999999999
    vertex 68.16620197729952 8.033798022700465 0.0
    vertex 68.16620197729952 8.033798022700465 9.524999999999999
  endloop
endfacet
endsolid Stabilizer Leg
