solid Steps
facet normal -0.0 -0.0 1.0
  outer loop
    vertex 19.049999999999997 0.0 38.099999999999994
    vertex 0.0 3.175 38.099999999999994
    vertex 0.0 0.0 38.099999999999994
  endloop
endfacet
facet normal -0.0 -0.0 1.0
  outer loop
    vertex 0.0 3.175 38.099999999999994
    vertex 19.049999999999997 0.0 38.099999999999994
    vertex 3.175 3.175 38.099999999999994
  endloop
endfacet
facet normal -0.0 -0.0 1.0
  outer loop
    vertex 3.175 3.175 38.099999999999994
    vertex 19.049999999999997 0.0 38.099999999999994
    vertex 3.175 22.224999999999998 38.099999999999994
  endloop
endfacet
facet normal -0.0 -0.0 1.0
  outer loop
    vertex 3.175 22.224999999999998 38.099999999999994
    vertex 0.0 25.4 38.099999999999994
    vertex 0.0 22.224999999999998 38.099999999999994
  endloop
endfacet
facet normal -0.0 -0.0 1.0
  outer loop
    vertex 0.0 25.4 38.099999999999994
    vertex 3.175 22.224999999999998 38.099999999999994
    vertex 19.049999999999997 25.4 38.099999999999994
  endloop
endfacet
facet normal -0.0 -0.0 1.0
  outer loop
    vertex 19.049999999999997 25.4 38.099999999999994
    vertex 3.175 22.224999999999998 38.099999999999994
    vertex 19.049999999999997 0.0 38.099999999999994
  endloop
endfacet
facet normal 1.0 0.0 0.0
  outer loop
    vertex 19.049999999999997 25.4 0.0
    vertex 19.049999999999997 0.0 38.099999999999994
    vertex 19.049999999999997 0.0 0.0
  endloop
endfacet
facet normal 1.0 0.0 0.0
  outer loop
    vertex 19.049999999999997 0.0 38.099999999999994
    vertex 19.049999999999997 25.4 0.0
    vertex 19.049999999999997 25.4 38.099999999999994
  endloop
endfacet
facet normal -0.0 -1.0 -0.0
  outer loop
    vertex 19.049999999999997 0.0 38.099999999999994
    vertex 0.0 0.0 0.0
    vertex 19.049999999999997 0.0 0.0
  endloop
endfacet
facet normal -0.0 -1.0 -0.0
  outer loop
    vertex 0.0 0.0 0.0
    vertex 19.049999999999997 0.0 38.099999999999994
    vertex 0.0 0.0 38.099999999999994
  endloop
endfacet
facet normal -1.0 0.0 0.0
  outer loop
    vertex 0.0 3.175 38.099999999999994
    vertex 0.0 0.0 0.0
    vertex 0.0 0.0 38.099999999999994
  endloop
endfacet
facet normal -1.0 0.0 0.0
  outer loop
    vertex 0.0 0.0 0.0
    vertex 0.0 3.175 38.099999999999994
    vertex 0.0 3.175 0.0
  endloop
endfacet
facet normal -0.0 1.0 0.0
  outer loop
    vertex 0.0 25.4 38.099999999999994
    vertex 19.049999999999997 25.4 0.0
    vertex 0.0 25.4 0.0
  endloop
endfacet
facet normal -0.0 1.0 0.0
  outer loop
    vertex 19.049999999999997 25.4 0.0
    vertex 0.0 25.4 38.099999999999994
    vertex 19.049999999999997 25.4 38.099999999999994
  endloop
endfacet
facet normal -1.0 0.0 0.0
  outer loop
    vertex 0.0 25.4 38.099999999999994
    vertex 0.0 22.224999999999998 0.0
    vertex 0.0 22.224999999999998 38.099999999999994
  endloop
endfacet
facet normal -1.0 0.0 0.0
  outer loop
    vertex 0.0 22.224999999999998 0.0
    vertex 0.0 25.4 38.099999999999994
    vertex 0.0 25.4 0.0
  endloop
endfacet
facet normal 0.0 0.0 -1.0
  outer loop
    vertex 19.049999999999997 25.4 0.0
    vertex 0.0 22.224999999999998 0.0
    vertex 0.0 25.4 0.0
  endloop
endfacet
facet normal 0.0 0.0 -1.0
  outer loop
    vertex 0.0 22.224999999999998 0.0
    vertex 19.049999999999997 25.4 0.0
    vertex 3.175 22.224999999999998 0.0
  endloop
endfacet
facet normal 0.0 0.0 -1.0
  outer loop
    vertex 3.175 22.224999999999998 0.0
    vertex 19.049999999999997 25.4 0.0
    vertex 3.175 3.175 0.0
  endloop
endfacet
facet normal 0.0 0.0 -1.0
  outer loop
    vertex 3.175 3.175 0.0
    vertex 0.0 0.0 0.0
    vertex 0.0 3.175 0.0
  endloop
endfacet
facet normal 0.0 0.0 -1.0
  outer loop
    vertex 0.0 0.0 0.0
    vertex 3.175 3.175 0.0
    vertex 19.049999999999997 0.0 0.0
  endloop
endfacet
facet normal 0.0 0.0 -1.0
  outer loop
    vertex 19.049999999999997 0.0 0.0
    vertex 3.175 3.175 0.0
    vertex 19.049999999999997 25.4 0.0
  endloop
endfacet
facet normal 0.0 -1.0 0.0
  outer loop
    vertex 3.175 22.224999999999998 38.099999999999994
    vertex 0.0 22.224999999999998 0.0
    vertex 3.175 22.224999999999998 0.0
  endloop
endfacet
facet normal 0.0 -1.0 0.0
  outer loop
    vertex 0.0 22.224999999999998 0.0
    vertex 3.175 22.224999999999998 38.099999999999994
    vertex 0.0 22.224999999999998 38.099999999999994
  endloop
endfacet
facet normal -1.0 0.0 0.0
  outer loop
    vertex 3.175 22.224999999999998 38.099999999999994
    vertex 3.175 3.175 0.0
    vertex 3.175 3.175 38.099999999999994
  endloop
endfacet
facet normal -1.0 0.0 0.0
  outer loop
    vertex 3.175 3.175 0.0
    vertex 3.175 22.224999999999998 38.099999999999994
    vertex 3.175 22.224999999999998 0.0
  endloop
endfacet
facet normal -0.0 1.0 -0.0
  outer loop
    vertex 0.0 3.175 38.099999999999994
    vertex 3.175 3.175 0.0
    vertex 0.0 3.175 0.0
  endloop
endfacet
facet normal -0.0 1.0 -0.0
  outer loop
    vertex 3.175 3.175 0.0
    vertex 0.0 3.175 38.099999999999994
    vertex 3.175 3.175 38.099999999999994
  endloop
endfacet
endsolid Steps
