solid Stick
facet normal 0.0 0.0 -1.0
  outer loop
    vertex 7.9375 146.04999999999998 0.0
    vertex 9.687278252298311 3.529874297699247 0.0
    vertex 0.0 30.480000000000004 0.0
  endloop
endfacet
facet normal 0.0 0.0 -1.0
  outer loop
    vertex 9.687278252298311 3.529874297699247 0.0
    vertex 7.9375 146.04999999999998 0.0
    vertex 8.153871003064417 147.693500936401 0.0
  endloop
endfacet
facet normal 0.0 0.0 -1.0
  outer loop
    vertex 9.687278252298311 3.529874297699247 0.0
    vertex 8.153871003064417 147.693500936401 0.0
    vertex 8.788238685968814 149.225 0.0
  endloop
endfacet
facet normal 0.0 0.0 -1.0
  outer loop
    vertex 9.687278252298311 3.529874297699247 0.0
    vertex 8.788238685968814 149.225 0.0
    vertex 9.797371939465423 150.54012806053456 0.0
  endloop
endfacet
facet normal 0.0 0.0 -1.0
  outer loop
    vertex 9.687278252298311 3.529874297699247 0.0
    vertex 9.797371939465423 150.54012806053456 0.0
    vertex 10.163054014476609 2.381250000000003 0.0
  endloop
endfacet
facet normal 0.0 0.0 -1.0
  outer loop
    vertex 10.163054014476609 2.381250000000003 0.0
    vertex 9.797371939465423 150.54012806053456 0.0
    vertex 11.112499999999999 151.54926131403116 0.0
  endloop
endfacet
facet normal 0.0 0.0 -1.0
  outer loop
    vertex 10.163054014476609 2.381250000000003 0.0
    vertex 11.112499999999999 151.54926131403116 0.0
    vertex 10.919903954599066 1.3949039545990676 0.0
  endloop
endfacet
facet normal 0.0 0.0 -1.0
  outer loop
    vertex 10.919903954599066 1.3949039545990676 0.0
    vertex 11.112499999999999 151.54926131403116 0.0
    vertex 11.906249999999996 0.6380540144766123 0.0
  endloop
endfacet
facet normal 0.0 0.0 -1.0
  outer loop
    vertex 11.906249999999996 0.6380540144766123 0.0
    vertex 11.112499999999999 151.54926131403116 0.0
    vertex 11.90625 146.04999999999998 0.0
  endloop
endfacet
facet normal 0.0 0.0 -1.0
  outer loop
    vertex 11.90625 146.04999999999998 0.0
    vertex 11.112499999999999 151.54926131403116 0.0
    vertex 12.643999063598992 152.1836289969356 0.0
  endloop
endfacet
facet normal 0.0 0.0 -1.0
  outer loop
    vertex 11.90625 146.04999999999998 0.0
    vertex 12.643999063598992 152.1836289969356 0.0
    vertex 11.987389126149155 146.66631285115037 0.0
  endloop
endfacet
facet normal 0.0 0.0 -1.0
  outer loop
    vertex 11.987389126149155 146.66631285115037 0.0
    vertex 12.643999063598992 152.1836289969356 0.0
    vertex 12.225277007238304 147.240625 0.0
  endloop
endfacet
facet normal 0.0 0.0 -1.0
  outer loop
    vertex 12.225277007238304 147.240625 0.0
    vertex 12.643999063598992 152.1836289969356 0.0
    vertex 12.603701977299533 147.73379802270046 0.0
  endloop
endfacet
facet normal 0.0 0.0 -1.0
  outer loop
    vertex 12.603701977299533 147.73379802270046 0.0
    vertex 12.643999063598992 152.1836289969356 0.0
    vertex 13.096874999999999 148.11222299276167 0.0
  endloop
endfacet
facet normal 0.0 0.0 -1.0
  outer loop
    vertex 13.096874999999999 148.11222299276167 0.0
    vertex 12.643999063598992 152.1836289969356 0.0
    vertex 14.2875 152.39999999999998 0.0
  endloop
endfacet
facet normal 0.0 0.0 -1.0
  outer loop
    vertex 13.096874999999999 148.11222299276167 0.0
    vertex 14.2875 152.39999999999998 0.0
    vertex 13.67118714884962 148.35011087385084 0.0
  endloop
endfacet
facet normal 0.0 0.0 -1.0
  outer loop
    vertex 13.67118714884962 148.35011087385084 0.0
    vertex 14.2875 152.39999999999998 0.0
    vertex 14.2875 148.43125 0.0
  endloop
endfacet
facet normal 0.0 0.0 -1.0
  outer loop
    vertex 14.2875 148.43125 0.0
    vertex 14.2875 152.39999999999998 0.0
    vertex 15.931000936401011 152.1836289969356 0.0
  endloop
endfacet
facet normal 0.0 0.0 -1.0
  outer loop
    vertex 14.2875 148.43125 0.0
    vertex 15.931000936401011 152.1836289969356 0.0
    vertex 14.903812851150377 148.35011087385084 0.0
  endloop
endfacet
facet normal 0.0 0.0 -1.0
  outer loop
    vertex 14.903812851150377 148.35011087385084 0.0
    vertex 15.931000936401011 152.1836289969356 0.0
    vertex 15.478124999999999 148.11222299276167 0.0
  endloop
endfacet
facet normal 0.0 0.0 -1.0
  outer loop
    vertex 15.478124999999999 148.11222299276167 0.0
    vertex 15.931000936401011 152.1836289969356 0.0
    vertex 15.971298022700465 147.73379802270046 0.0
  endloop
endfacet
facet normal 0.0 0.0 -1.0
  outer loop
    vertex 15.971298022700465 147.73379802270046 0.0
    vertex 15.931000936401011 152.1836289969356 0.0
    vertex 17.462500000000002 151.54926131403116 0.0
  endloop
endfacet
facet normal 0.0 0.0 -1.0
  outer loop
    vertex 15.971298022700465 147.73379802270046 0.0
    vertex 17.462500000000002 151.54926131403116 0.0
    vertex 16.349722992761695 147.240625 0.0
  endloop
endfacet
facet normal 0.0 0.0 -1.0
  outer loop
    vertex 16.349722992761695 147.240625 0.0
    vertex 17.462500000000002 151.54926131403116 0.0
    vertex 16.587610873850842 146.66631285115037 0.0
  endloop
endfacet
facet normal 0.0 0.0 -1.0
  outer loop
    vertex 16.587610873850842 146.66631285115037 0.0
    vertex 17.462500000000002 151.54926131403116 0.0
    vertex 16.66875 146.04999999999998 0.0
  endloop
endfacet
facet normal 0.0 0.0 -1.0
  outer loop
    vertex 16.66875 146.04999999999998 0.0
    vertex 17.462500000000002 151.54926131403116 0.0
    vertex 16.66875 36.512499999999996 0.0
  endloop
endfacet
facet normal 0.0 0.0 -1.0
  outer loop
    vertex 16.66875 36.512499999999996 0.0
    vertex 17.462500000000002 151.54926131403116 0.0
    vertex 16.66875 0.6380540144766108 0.0
  endloop
endfacet
facet normal 0.0 0.0 -1.0
  outer loop
    vertex 16.66875 0.6380540144766108 0.0
    vertex 17.462500000000002 151.54926131403116 0.0
    vertex 17.65509604540093 1.394903954599067 0.0
  endloop
endfacet
facet normal 0.0 0.0 -1.0
  outer loop
    vertex 17.65509604540093 1.394903954599067 0.0
    vertex 17.462500000000002 151.54926131403116 0.0
    vertex 18.77762806053458 150.54012806053456 0.0
  endloop
endfacet
facet normal 0.0 0.0 -1.0
  outer loop
    vertex 17.65509604540093 1.394903954599067 0.0
    vertex 18.77762806053458 150.54012806053456 0.0
    vertex 18.41194598552339 2.381249999999999 0.0
  endloop
endfacet
facet normal 0.0 0.0 -1.0
  outer loop
    vertex 18.41194598552339 2.381249999999999 0.0
    vertex 18.77762806053458 150.54012806053456 0.0
    vertex 18.887721747701686 3.5298742976992434 0.0
  endloop
endfacet
facet normal 0.0 0.0 -1.0
  outer loop
    vertex 18.887721747701686 3.5298742976992434 0.0
    vertex 18.77762806053458 150.54012806053456 0.0
    vertex 19.78676131403119 149.225 0.0
  endloop
endfacet
facet normal 0.0 0.0 -1.0
  outer loop
    vertex 18.887721747701686 3.5298742976992434 0.0
    vertex 19.78676131403119 149.225 0.0
    vertex 28.575 30.479999999999997 0.0
  endloop
endfacet
facet normal 0.0 0.0 -1.0
  outer loop
    vertex 28.575 30.479999999999997 0.0
    vertex 19.78676131403119 149.225 0.0
    vertex 20.421128996935586 147.693500936401 0.0
  endloop
endfacet
facet normal 0.0 0.0 -1.0
  outer loop
    vertex 28.575 30.479999999999997 0.0
    vertex 20.421128996935586 147.693500936401 0.0
    vertex 20.6375 146.04999999999998 0.0
  endloop
endfacet
facet normal 0.0 0.0 -1.0
  outer loop
    vertex 11.906249999999996 0.6380540144766123 0.0
    vertex 11.90625 36.512499999999996 0.0
    vertex 13.05487429769924 0.16227825229831339 0.0
  endloop
endfacet
facet normal 0.0 0.0 -1.0
  outer loop
    vertex 11.90625 36.512499999999996 0.0
    vertex 11.906249999999996 0.6380540144766123 0.0
    vertex 11.90625 146.04999999999998 0.0
  endloop
endfacet
facet normal 0.0 0.0 -1.0
  outer loop
    vertex 13.05487429769924 0.16227825229831339 0.0
    vertex 11.90625 36.512499999999996 0.0
    vertex 11.987389126149155 35.89618714884962 0.0
  endloop
endfacet
facet normal 0.0 0.0 -1.0
  outer loop
    vertex 13.05487429769924 0.16227825229831339 0.0
    vertex 11.987389126149155 35.89618714884962 0.0
    vertex 12.225277007238304 35.321875 0.0
  endloop
endfacet
facet normal 0.0 0.0 -1.0
  outer loop
    vertex 13.05487429769924 0.16227825229831339 0.0
    vertex 12.225277007238304 35.321875 0.0
    vertex 12.603701977299533 34.82870197729953 0.0
  endloop
endfacet
facet normal 0.0 0.0 -1.0
  outer loop
    vertex 13.05487429769924 0.16227825229831339 0.0
    vertex 12.603701977299533 34.82870197729953 0.0
    vertex 13.096874999999999 34.450277007238306 0.0
  endloop
endfacet
facet normal 0.0 0.0 -1.0
  outer loop
    vertex 13.05487429769924 0.16227825229831339 0.0
    vertex 13.096874999999999 34.450277007238306 0.0
    vertex 14.2875 0.0 0.0
  endloop
endfacet
facet normal 0.0 0.0 -1.0
  outer loop
    vertex 14.2875 0.0 0.0
    vertex 13.096874999999999 34.450277007238306 0.0
    vertex 13.67118714884962 34.212389126149155 0.0
  endloop
endfacet
facet normal 0.0 0.0 -1.0
  outer loop
    vertex 14.2875 0.0 0.0
    vertex 13.67118714884962 34.212389126149155 0.0
    vertex 14.2875 34.13125 0.0
  endloop
endfacet
facet normal 0.0 0.0 -1.0
  outer loop
    vertex 14.2875 0.0 0.0
    vertex 14.2875 34.13125 0.0
    vertex 14.903812851150377 34.212389126149155 0.0
  endloop
endfacet
facet normal 0.0 0.0 -1.0
  outer loop
    vertex 14.2875 0.0 0.0
    vertex 14.903812851150377 34.212389126149155 0.0
    vertex 15.520125702300756 0.16227825229831197 0.0
  endloop
endfacet
facet normal 0.0 0.0 -1.0
  outer loop
    vertex 15.520125702300756 0.16227825229831197 0.0
    vertex 14.903812851150377 34.212389126149155 0.0
    vertex 15.478124999999999 34.450277007238306 0.0
  endloop
endfacet
facet normal 0.0 0.0 -1.0
  outer loop
    vertex 15.520125702300756 0.16227825229831197 0.0
    vertex 15.478124999999999 34.450277007238306 0.0
    vertex 15.971298022700465 34.82870197729953 0.0
  endloop
endfacet
facet normal 0.0 0.0 -1.0
  outer loop
    vertex 15.520125702300756 0.16227825229831197 0.0
    vertex 15.971298022700465 34.82870197729953 0.0
    vertex 16.66875 0.6380540144766108 0.0
  endloop
endfacet
facet normal 0.0 0.0 -1.0
  outer loop
    vertex 16.66875 0.6380540144766108 0.0
    vertex 15.971298022700465 34.82870197729953 0.0
    vertex 16.349722992761695 35.321875 0.0
  endloop
endfacet
facet normal 0.0 0.0 -1.0
  outer loop
    vertex 16.66875 0.6380540144766108 0.0
    vertex 16.349722992761695 35.321875 0.0
    vertex 16.587610873850842 35.89618714884962 0.0
  endloop
endfacet
facet normal 0.0 0.0 -1.0
  outer loop
    vertex 16.66875 0.6380540144766108 0.0
    vertex 16.587610873850842 35.89618714884962 0.0
    vertex 16.66875 36.512499999999996 0.0
  endloop
endfacet
facet normal 0.0 0.0 -1.0
  outer loop
    vertex 11.987389126149155 145.4336871488496 0.0
    vertex 11.90625 36.512499999999996 0.0
    vertex 11.90625 146.04999999999998 0.0
  endloop
endfacet
facet normal 0.0 0.0 -1.0
  outer loop
    vertex 11.90625 36.512499999999996 0.0
    vertex 11.987389126149155 145.4336871488496 0.0
    vertex 11.987389126149155 37.12881285115038 0.0
  endloop
endfacet
facet normal 0.0 0.0 -1.0
  outer loop
    vertex 11.987389126149155 37.12881285115038 0.0
    vertex 11.987389126149155 145.4336871488496 0.0
    vertex 12.225277007238304 144.859375 0.0
  endloop
endfacet
facet normal 0.0 0.0 -1.0
  outer loop
    vertex 11.987389126149155 37.12881285115038 0.0
    vertex 12.225277007238304 144.859375 0.0
    vertex 12.225277007238304 37.703125 0.0
  endloop
endfacet
facet normal 0.0 0.0 -1.0
  outer loop
    vertex 12.225277007238304 37.703125 0.0
    vertex 12.225277007238304 144.859375 0.0
    vertex 12.603701977299533 144.36620197729954 0.0
  endloop
endfacet
facet normal 0.0 0.0 -1.0
  outer loop
    vertex 12.225277007238304 37.703125 0.0
    vertex 12.603701977299533 144.36620197729954 0.0
    vertex 12.603701977299533 38.19629802270047 0.0
  endloop
endfacet
facet normal 0.0 0.0 -1.0
  outer loop
    vertex 12.603701977299533 38.19629802270047 0.0
    vertex 12.603701977299533 144.36620197729954 0.0
    vertex 13.096874999999999 143.9877770072383 0.0
  endloop
endfacet
facet normal 0.0 0.0 -1.0
  outer loop
    vertex 12.603701977299533 38.19629802270047 0.0
    vertex 13.096874999999999 143.9877770072383 0.0
    vertex 13.096875000000002 38.57472299276169 0.0
  endloop
endfacet
facet normal 0.0 0.0 -1.0
  outer loop
    vertex 13.096875000000002 38.57472299276169 0.0
    vertex 13.096874999999999 143.9877770072383 0.0
    vertex 13.67118714884962 143.74988912614916 0.0
  endloop
endfacet
facet normal 0.0 0.0 -1.0
  outer loop
    vertex 13.096875000000002 38.57472299276169 0.0
    vertex 13.67118714884962 143.74988912614916 0.0
    vertex 13.671187148849624 38.81261087385084 0.0
  endloop
endfacet
facet normal 0.0 0.0 -1.0
  outer loop
    vertex 13.671187148849624 38.81261087385084 0.0
    vertex 13.67118714884962 143.74988912614916 0.0
    vertex 14.2875 143.66875 0.0
  endloop
endfacet
facet normal 0.0 0.0 -1.0
  outer loop
    vertex 13.671187148849624 38.81261087385084 0.0
    vertex 14.2875 143.66875 0.0
    vertex 14.2875 38.89375 0.0
  endloop
endfacet
facet normal 0.0 0.0 -1.0
  outer loop
    vertex 14.2875 38.89375 0.0
    vertex 14.2875 143.66875 0.0
    vertex 14.903812851150375 143.74988912614916 0.0
  endloop
endfacet
facet normal 0.0 0.0 -1.0
  outer loop
    vertex 14.2875 38.89375 0.0
    vertex 14.903812851150375 143.74988912614916 0.0
    vertex 14.903812851150377 38.81261087385084 0.0
  endloop
endfacet
facet normal 0.0 0.0 -1.0
  outer loop
    vertex 14.903812851150377 38.81261087385084 0.0
    vertex 14.903812851150375 143.74988912614916 0.0
    vertex 15.478124999999999 143.9877770072383 0.0
  endloop
endfacet
facet normal 0.0 0.0 -1.0
  outer loop
    vertex 14.903812851150377 38.81261087385084 0.0
    vertex 15.478124999999999 143.9877770072383 0.0
    vertex 15.478124999999999 38.57472299276169 0.0
  endloop
endfacet
facet normal 0.0 0.0 -1.0
  outer loop
    vertex 15.478124999999999 38.57472299276169 0.0
    vertex 15.478124999999999 143.9877770072383 0.0
    vertex 15.971298022700465 144.36620197729954 0.0
  endloop
endfacet
facet normal 0.0 0.0 -1.0
  outer loop
    vertex 15.478124999999999 38.57472299276169 0.0
    vertex 15.971298022700465 144.36620197729954 0.0
    vertex 15.971298022700468 38.19629802270046 0.0
  endloop
endfacet
facet normal 0.0 0.0 -1.0
  outer loop
    vertex 15.971298022700468 38.19629802270046 0.0
    vertex 15.971298022700465 144.36620197729954 0.0
    vertex 16.349722992761695 144.859375 0.0
  endloop
endfacet
facet normal 0.0 0.0 -1.0
  outer loop
    vertex 15.971298022700468 38.19629802270046 0.0
    vertex 16.349722992761695 144.859375 0.0
    vertex 16.349722992761695 37.703125 0.0
  endloop
endfacet
facet normal 0.0 0.0 -1.0
  outer loop
    vertex 16.349722992761695 37.703125 0.0
    vertex 16.349722992761695 144.859375 0.0
    vertex 16.587610873850842 145.4336871488496 0.0
  endloop
endfacet
facet normal 0.0 0.0 -1.0
  outer loop
    vertex 16.349722992761695 37.703125 0.0
    vertex 16.587610873850842 145.4336871488496 0.0
    vertex 16.587610873850842 37.12881285115037 0.0
  endloop
endfacet
facet normal 0.0 0.0 -1.0
  outer loop
    vertex 16.587610873850842 37.12881285115037 0.0
    vertex 16.587610873850842 145.4336871488496 0.0
    vertex 16.66875 146.04999999999998 0.0
  endloop
endfacet
facet normal 0.0 0.0 -1.0
  outer loop
    vertex 16.587610873850842 37.12881285115037 0.0
    vertex 16.66875 146.04999999999998 0.0
    vertex 16.66875 36.512499999999996 0.0
  endloop
endfacet
facet normal 0.0 0.0 1.0
  outer loop
    vertex 13.05487429769924 0.16227825229831339 8.466666666666665
    vertex 11.90625 36.512499999999996 8.466666666666665
    vertex 11.906249999999996 0.6380540144766123 8.466666666666665
  endloop
endfacet
facet normal 0.0 0.0 1.0
  outer loop
    vertex 11.90625 36.512499999999996 8.466666666666665
    vertex 13.05487429769924 0.16227825229831339 8.466666666666665
    vertex 11.987389126149155 35.89618714884962 8.466666666666665
  endloop
endfacet
facet normal 0.0 0.0 1.0
  outer loop
    vertex 11.987389126149155 35.89618714884962 8.466666666666665
    vertex 13.05487429769924 0.16227825229831339 8.466666666666665
    vertex 12.225277007238304 35.321875 8.466666666666665
  endloop
endfacet
facet normal 0.0 0.0 1.0
  outer loop
    vertex 12.225277007238304 35.321875 8.466666666666665
    vertex 13.05487429769924 0.16227825229831339 8.466666666666665
    vertex 12.603701977299533 34.82870197729953 8.466666666666665
  endloop
endfacet
facet normal 0.0 0.0 1.0
  outer loop
    vertex 12.603701977299533 34.82870197729953 8.466666666666665
    vertex 13.05487429769924 0.16227825229831339 8.466666666666665
    vertex 13.096874999999999 34.450277007238306 8.466666666666665
  endloop
endfacet
facet normal 0.0 0.0 1.0
  outer loop
    vertex 13.096874999999999 34.450277007238306 8.466666666666665
    vertex 13.05487429769924 0.16227825229831339 8.466666666666665
    vertex 14.2875 0.0 8.466666666666665
  endloop
endfacet
facet normal 0.0 0.0 1.0
  outer loop
    vertex 13.096874999999999 34.450277007238306 8.466666666666665
    vertex 14.2875 0.0 8.466666666666665
    vertex 13.67118714884962 34.212389126149155 8.466666666666665
  endloop
endfacet
facet normal 0.0 0.0 1.0
  outer loop
    vertex 13.67118714884962 34.212389126149155 8.466666666666665
    vertex 14.2875 0.0 8.466666666666665
    vertex 14.2875 34.13125 8.466666666666665
  endloop
endfacet
facet normal 0.0 0.0 1.0
  outer loop
    vertex 14.2875 34.13125 8.466666666666665
    vertex 14.2875 0.0 8.466666666666665
    vertex 15.520125702300756 0.16227825229831197 8.466666666666665
  endloop
endfacet
facet normal 0.0 0.0 1.0
  outer loop
    vertex 14.2875 34.13125 8.466666666666665
    vertex 15.520125702300756 0.16227825229831197 8.466666666666665
    vertex 14.903812851150377 34.212389126149155 8.466666666666665
  endloop
endfacet
facet normal 0.0 0.0 1.0
  outer loop
    vertex 14.903812851150377 34.212389126149155 8.466666666666665
    vertex 15.520125702300756 0.16227825229831197 8.466666666666665
    vertex 15.478124999999999 34.450277007238306 8.466666666666665
  endloop
endfacet
facet normal 0.0 0.0 1.0
  outer loop
    vertex 15.478124999999999 34.450277007238306 8.466666666666665
    vertex 15.520125702300756 0.16227825229831197 8.466666666666665
    vertex 15.971298022700465 34.82870197729953 8.466666666666665
  endloop
endfacet
facet normal 0.0 0.0 1.0
  outer loop
    vertex 15.971298022700465 34.82870197729953 8.466666666666665
    vertex 15.520125702300756 0.16227825229831197 8.466666666666665
    vertex 16.66875 0.6380540144766108 8.466666666666665
  endloop
endfacet
facet normal 0.0 0.0 1.0
  outer loop
    vertex 15.971298022700465 34.82870197729953 8.466666666666665
    vertex 16.66875 0.6380540144766108 8.466666666666665
    vertex 16.349722992761695 35.321875 8.466666666666665
  endloop
endfacet
facet normal 0.0 0.0 1.0
  outer loop
    vertex 16.349722992761695 35.321875 8.466666666666665
    vertex 16.66875 0.6380540144766108 8.466666666666665
    vertex 16.587610873850842 35.89618714884962 8.466666666666665
  endloop
endfacet
facet normal 0.0 0.0 1.0
  outer loop
    vertex 16.587610873850842 35.89618714884962 8.466666666666665
    vertex 16.66875 0.6380540144766108 8.466666666666665
    vertex 16.66875 36.512499999999996 8.466666666666665
  endloop
endfacet
facet normal 0.0 0.0 1.0
  outer loop
    vertex 16.66875 36.512499999999996 8.466666666666665
    vertex 16.66875 0.6380540144766108 8.466666666666665
    vertex 17.65509604540093 1.394903954599067 8.466666666666665
  endloop
endfacet
facet normal 0.0 0.0 1.0
  outer loop
    vertex 16.66875 36.512499999999996 8.466666666666665
    vertex 17.65509604540093 1.394903954599067 8.466666666666665
    vertex 16.66875 146.04999999999998 8.466666666666665
  endloop
endfacet
facet normal 0.0 0.0 1.0
  outer loop
    vertex 16.66875 146.04999999999998 8.466666666666665
    vertex 17.65509604540093 1.394903954599067 8.466666666666665
    vertex 17.462500000000002 151.54926131403116 8.466666666666665
  endloop
endfacet
facet normal 0.0 0.0 1.0
  outer loop
    vertex 17.462500000000002 151.54926131403116 8.466666666666665
    vertex 17.65509604540093 1.394903954599067 8.466666666666665
    vertex 18.77762806053458 150.54012806053456 8.466666666666665
  endloop
endfacet
facet normal 0.0 0.0 1.0
  outer loop
    vertex 18.77762806053458 150.54012806053456 8.466666666666665
    vertex 17.65509604540093 1.394903954599067 8.466666666666665
    vertex 18.41194598552339 2.381249999999999 8.466666666666665
  endloop
endfacet
facet normal 0.0 0.0 1.0
  outer loop
    vertex 18.77762806053458 150.54012806053456 8.466666666666665
    vertex 18.41194598552339 2.381249999999999 8.466666666666665
    vertex 18.887721747701686 3.5298742976992434 8.466666666666665
  endloop
endfacet
facet normal 0.0 0.0 1.0
  outer loop
    vertex 18.77762806053458 150.54012806053456 8.466666666666665
    vertex 18.887721747701686 3.5298742976992434 8.466666666666665
    vertex 19.78676131403119 149.225 8.466666666666665
  endloop
endfacet
facet normal 0.0 0.0 1.0
  outer loop
    vertex 19.78676131403119 149.225 8.466666666666665
    vertex 18.887721747701686 3.5298742976992434 8.466666666666665
    vertex 28.575 30.479999999999997 8.466666666666665
  endloop
endfacet
facet normal 0.0 0.0 1.0
  outer loop
    vertex 19.78676131403119 149.225 8.466666666666665
    vertex 28.575 30.479999999999997 8.466666666666665
    vertex 20.421128996935586 147.693500936401 8.466666666666665
  endloop
endfacet
facet normal 0.0 0.0 1.0
  outer loop
    vertex 20.421128996935586 147.693500936401 8.466666666666665
    vertex 28.575 30.479999999999997 8.466666666666665
    vertex 20.6375 146.04999999999998 8.466666666666665
  endloop
endfacet
facet normal 0.0 0.0 1.0
  outer loop
    vertex 9.687278252298311 3.529874297699247 8.466666666666665
    vertex 7.9375 146.04999999999998 8.466666666666665
    vertex 0.0 30.480000000000004 8.466666666666665
  endloop
endfacet
facet normal 0.0 0.0 1.0
  outer loop
    vertex 7.9375 146.04999999999998 8.466666666666665
    vertex 9.687278252298311 3.529874297699247 8.466666666666665
    vertex 8.153871003064417 147.693500936401 8.466666666666665
  endloop
endfacet
facet normal 0.0 0.0 1.0
  outer loop
    vertex 8.153871003064417 147.693500936401 8.466666666666665
    vertex 9.687278252298311 3.529874297699247 8.466666666666665
    vertex 8.788238685968814 149.225 8.466666666666665
  endloop
endfacet
facet normal 0.0 0.0 1.0
  outer loop
    vertex 8.788238685968814 149.225 8.466666666666665
    vertex 9.687278252298311 3.529874297699247 8.466666666666665
    vertex 9.797371939465423 150.54012806053456 8.466666666666665
  endloop
endfacet
facet normal 0.0 0.0 1.0
  outer loop
    vertex 9.797371939465423 150.54012806053456 8.466666666666665
    vertex 9.687278252298311 3.529874297699247 8.466666666666665
    vertex 10.163054014476609 2.381250000000003 8.466666666666665
  endloop
endfacet
facet normal 0.0 0.0 1.0
  outer loop
    vertex 9.797371939465423 150.54012806053456 8.466666666666665
    vertex 10.163054014476609 2.381250000000003 8.466666666666665
    vertex 11.112499999999999 151.54926131403116 8.466666666666665
  endloop
endfacet
facet normal 0.0 0.0 1.0
  outer loop
    vertex 11.112499999999999 151.54926131403116 8.466666666666665
    vertex 10.163054014476609 2.381250000000003 8.466666666666665
    vertex 10.919903954599066 1.3949039545990676 8.466666666666665
  endloop
endfacet
facet normal 0.0 0.0 1.0
  outer loop
    vertex 11.112499999999999 151.54926131403116 8.466666666666665
    vertex 10.919903954599066 1.3949039545990676 8.466666666666665
    vertex 11.906249999999996 0.6380540144766123 8.466666666666665
  endloop
endfacet
facet normal 0.0 0.0 1.0
  outer loop
    vertex 11.112499999999999 151.54926131403116 8.466666666666665
    vertex 11.906249999999996 0.6380540144766123 8.466666666666665
    vertex 11.90625 146.04999999999998 8.466666666666665
  endloop
endfacet
facet normal 0.0 0.0 1.0
  outer loop
    vertex 11.112499999999999 151.54926131403116 8.466666666666665
    vertex 11.90625 146.04999999999998 8.466666666666665
    vertex 12.643999063598992 152.1836289969356 8.466666666666665
  endloop
endfacet
facet normal 0.0 0.0 1.0
  outer loop
    vertex 11.90625 146.04999999999998 8.466666666666665
    vertex 11.906249999999996 0.6380540144766123 8.466666666666665
    vertex 11.90625 36.512499999999996 8.466666666666665
  endloop
endfacet
facet normal 0.0 0.0 1.0
  outer loop
    vertex 12.643999063598992 152.1836289969356 8.466666666666665
    vertex 11.90625 146.04999999999998 8.466666666666665
    vertex 11.987389126149155 146.66631285115037 8.466666666666665
  endloop
endfacet
facet normal 0.0 0.0 1.0
  outer loop
    vertex 12.643999063598992 152.1836289969356 8.466666666666665
    vertex 11.987389126149155 146.66631285115037 8.466666666666665
    vertex 12.225277007238304 147.240625 8.466666666666665
  endloop
endfacet
facet normal 0.0 0.0 1.0
  outer loop
    vertex 12.643999063598992 152.1836289969356 8.466666666666665
    vertex 12.225277007238304 147.240625 8.466666666666665
    vertex 12.603701977299533 147.73379802270046 8.466666666666665
  endloop
endfacet
facet normal 0.0 0.0 1.0
  outer loop
    vertex 12.643999063598992 152.1836289969356 8.466666666666665
    vertex 12.603701977299533 147.73379802270046 8.466666666666665
    vertex 13.096874999999999 148.11222299276167 8.466666666666665
  endloop
endfacet
facet normal 0.0 0.0 1.0
  outer loop
    vertex 12.643999063598992 152.1836289969356 8.466666666666665
    vertex 13.096874999999999 148.11222299276167 8.466666666666665
    vertex 14.2875 152.39999999999998 8.466666666666665
  endloop
endfacet
facet normal 0.0 0.0 1.0
  outer loop
    vertex 14.2875 152.39999999999998 8.466666666666665
    vertex 13.096874999999999 148.11222299276167 8.466666666666665
    vertex 13.67118714884962 148.35011087385084 8.466666666666665
  endloop
endfacet
facet normal 0.0 0.0 1.0
  outer loop
    vertex 14.2875 152.39999999999998 8.466666666666665
    vertex 13.67118714884962 148.35011087385084 8.466666666666665
    vertex 14.2875 148.43125 8.466666666666665
  endloop
endfacet
facet normal 0.0 0.0 1.0
  outer loop
    vertex 14.2875 152.39999999999998 8.466666666666665
    vertex 14.2875 148.43125 8.466666666666665
    vertex 14.903812851150377 148.35011087385084 8.466666666666665
  endloop
endfacet
facet normal 0.0 0.0 1.0
  outer loop
    vertex 14.2875 152.39999999999998 8.466666666666665
    vertex 14.903812851150377 148.35011087385084 8.466666666666665
    vertex 15.931000936401011 152.1836289969356 8.466666666666665
  endloop
endfacet
facet normal 0.0 0.0 1.0
  outer loop
    vertex 15.931000936401011 152.1836289969356 8.466666666666665
    vertex 14.903812851150377 148.35011087385084 8.466666666666665
    vertex 15.478124999999999 148.11222299276167 8.466666666666665
  endloop
endfacet
facet normal 0.0 0.0 1.0
  outer loop
    vertex 15.931000936401011 152.1836289969356 8.466666666666665
    vertex 15.478124999999999 148.11222299276167 8.466666666666665
    vertex 15.971298022700465 147.73379802270046 8.466666666666665
  endloop
endfacet
facet normal 0.0 0.0 1.0
  outer loop
    vertex 15.931000936401011 152.1836289969356 8.466666666666665
    vertex 15.971298022700465 147.73379802270046 8.466666666666665
    vertex 17.462500000000002 151.54926131403116 8.466666666666665
  endloop
endfacet
facet normal 0.0 0.0 1.0
  outer loop
    vertex 17.462500000000002 151.54926131403116 8.466666666666665
    vertex 15.971298022700465 147.73379802270046 8.466666666666665
    vertex 16.349722992761695 147.240625 8.466666666666665
  endloop
endfacet
facet normal 0.0 0.0 1.0
  outer loop
    vertex 17.462500000000002 151.54926131403116 8.466666666666665
    vertex 16.349722992761695 147.240625 8.466666666666665
    vertex 16.587610873850842 146.66631285115037 8.466666666666665
  endloop
endfacet
facet normal 0.0 0.0 1.0
  outer loop
    vertex 17.462500000000002 151.54926131403116 8.466666666666665
    vertex 16.587610873850842 146.66631285115037 8.466666666666665
    vertex 16.66875 146.04999999999998 8.466666666666665
  endloop
endfacet
facet normal 0.0 0.0 1.0
  outer loop
    vertex 11.987389126149155 37.12881285115038 8.466666666666665
    vertex 11.90625 146.04999999999998 8.466666666666665
    vertex 11.90625 36.512499999999996 8.466666666666665
  endloop
endfacet
facet normal 0.0 0.0 1.0
  outer loop
    vertex 11.90625 146.04999999999998 8.466666666666665
    vertex 11.987389126149155 37.12881285115038 8.466666666666665
    vertex 11.987389126149155 145.4336871488496 8.466666666666665
  endloop
endfacet
facet normal 0.0 0.0 1.0
  outer loop
    vertex 11.987389126149155 145.4336871488496 8.466666666666665
    vertex 11.987389126149155 37.12881285115038 8.466666666666665
    vertex 12.225277007238304 37.703125 8.466666666666665
  endloop
endfacet
facet normal 0.0 0.0 1.0
  outer loop
    vertex 11.987389126149155 145.4336871488496 8.466666666666665
    vertex 12.225277007238304 37.703125 8.466666666666665
    vertex 12.225277007238304 144.859375 8.466666666666665
  endloop
endfacet
facet normal 0.0 0.0 1.0
  outer loop
    vertex 12.225277007238304 144.859375 8.466666666666665
    vertex 12.225277007238304 37.703125 8.466666666666665
    vertex 12.603701977299533 38.19629802270047 8.466666666666665
  endloop
endfacet
facet normal 0.0 0.0 1.0
  outer loop
    vertex 12.225277007238304 144.859375 8.466666666666665
    vertex 12.603701977299533 38.19629802270047 8.466666666666665
    vertex 12.603701977299533 144.36620197729954 8.466666666666665
  endloop
endfacet
facet normal 0.0 0.0 1.0
  outer loop
    vertex 12.603701977299533 144.36620197729954 8.466666666666665
    vertex 12.603701977299533 38.19629802270047 8.466666666666665
    vertex 13.096875000000002 38.57472299276169 8.466666666666665
  endloop
endfacet
facet normal 0.0 0.0 1.0
  outer loop
    vertex 12.603701977299533 144.36620197729954 8.466666666666665
    vertex 13.096875000000002 38.57472299276169 8.466666666666665
    vertex 13.096874999999999 143.9877770072383 8.466666666666665
  endloop
endfacet
facet normal 0.0 0.0 1.0
  outer loop
    vertex 13.096874999999999 143.9877770072383 8.466666666666665
    vertex 13.096875000000002 38.57472299276169 8.466666666666665
    vertex 13.67118714884962 143.74988912614916 8.466666666666665
  endloop
endfacet
facet normal 0.0 0.0 1.0
  outer loop
    vertex 13.67118714884962 143.74988912614916 8.466666666666665
    vertex 13.096875000000002 38.57472299276169 8.466666666666665
    vertex 13.671187148849624 38.81261087385084 8.466666666666665
  endloop
endfacet
facet normal 0.0 0.0 1.0
  outer loop
    vertex 13.67118714884962 143.74988912614916 8.466666666666665
    vertex 13.671187148849624 38.81261087385084 8.466666666666665
    vertex 14.2875 143.66875 8.466666666666665
  endloop
endfacet
facet normal 0.0 0.0 1.0
  outer loop
    vertex 14.2875 143.66875 8.466666666666665
    vertex 13.671187148849624 38.81261087385084 8.466666666666665
    vertex 14.2875 38.89375 8.466666666666665
  endloop
endfacet
facet normal 0.0 0.0 1.0
  outer loop
    vertex 14.2875 143.66875 8.466666666666665
    vertex 14.2875 38.89375 8.466666666666665
    vertex 14.903812851150377 38.81261087385084 8.466666666666665
  endloop
endfacet
facet normal 0.0 0.0 1.0
  outer loop
    vertex 14.2875 143.66875 8.466666666666665
    vertex 14.903812851150377 38.81261087385084 8.466666666666665
    vertex 14.903812851150375 143.74988912614916 8.466666666666665
  endloop
endfacet
facet normal 0.0 0.0 1.0
  outer loop
    vertex 14.903812851150375 143.74988912614916 8.466666666666665
    vertex 14.903812851150377 38.81261087385084 8.466666666666665
    vertex 15.478124999999999 143.9877770072383 8.466666666666665
  endloop
endfacet
facet normal 0.0 0.0 1.0
  outer loop
    vertex 15.478124999999999 143.9877770072383 8.466666666666665
    vertex 14.903812851150377 38.81261087385084 8.466666666666665
    vertex 15.478124999999999 38.57472299276169 8.466666666666665
  endloop
endfacet
facet normal 0.0 0.0 1.0
  outer loop
    vertex 15.478124999999999 143.9877770072383 8.466666666666665
    vertex 15.478124999999999 38.57472299276169 8.466666666666665
    vertex 15.971298022700468 38.19629802270046 8.466666666666665
  endloop
endfacet
facet normal 0.0 0.0 1.0
  outer loop
    vertex 15.478124999999999 143.9877770072383 8.466666666666665
    vertex 15.971298022700468 38.19629802270046 8.466666666666665
    vertex 15.971298022700465 144.36620197729954 8.466666666666665
  endloop
endfacet
facet normal 0.0 0.0 1.0
  outer loop
    vertex 15.971298022700465 144.36620197729954 8.466666666666665
    vertex 15.971298022700468 38.19629802270046 8.466666666666665
    vertex 16.349722992761695 144.859375 8.466666666666665
  endloop
endfacet
facet normal 0.0 0.0 1.0
  outer loop
    vertex 16.349722992761695 144.859375 8.466666666666665
    vertex 15.971298022700468 38.19629802270046 8.466666666666665
    vertex 16.349722992761695 37.703125 8.466666666666665
  endloop
endfacet
facet normal 0.0 0.0 1.0
  outer loop
    vertex 16.349722992761695 144.859375 8.466666666666665
    vertex 16.349722992761695 37.703125 8.466666666666665
    vertex 16.587610873850842 37.12881285115037 8.466666666666665
  endloop
endfacet
facet normal 0.0 0.0 1.0
  outer loop
    vertex 16.349722992761695 144.859375 8.466666666666665
    vertex 16.587610873850842 37.12881285115037 8.466666666666665
    vertex 16.587610873850842 145.4336871488496 8.466666666666665
  endloop
endfacet
facet normal 0.0 0.0 1.0
  outer loop
    vertex 16.587610873850842 145.4336871488496 8.466666666666665
    vertex 16.587610873850842 37.12881285115037 8.466666666666665
    vertex 16.66875 36.512499999999996 8.466666666666665
  endloop
endfacet
facet normal 0.0 0.0 1.0
  outer loop
    vertex 16.587610873850842 145.4336871488496 8.466666666666665
    vertex 16.66875 36.512499999999996 8.466666666666665
    vertex 16.66875 146.04999999999998 8.466666666666665
  endloop
endfacet
facet normal 0.9659258262890688 0.25881904510251924 0.0
  outer loop
    vertex 20.421128996935586 147.693500936401 0.0
    vertex 20.6375 146.04999999999998 8.466666666666665
    vertex 20.6375 146.04999999999998 0.0
  endloop
endfacet
facet normal 0.9914448613738106 0.1305261922200507 0.0
  outer loop
    vertex 20.6375 146.04999999999998 8.466666666666665
    vertex 20.421128996935586 147.693500936401 0.0
    vertex 20.421128996935586 147.693500936401 8.466666666666665
  endloop
endfacet
facet normal 0.99764974978673 0.06851990039744026 0.0
  outer loop
    vertex 20.6375 146.04999999999998 0.0
    vertex 28.575 30.479999999999997 8.466666666666665
    vertex 28.575 30.479999999999997 0.0
  endloop
endfacet
facet normal 0.99764974978673 0.06851990039744026 0.0
  outer loop
    vertex 28.575 30.479999999999997 8.466666666666665
    vertex 20.6375 146.04999999999998 0.0
    vertex 20.6375 146.04999999999998 8.466666666666665
  endloop
endfacet
facet normal 0.9410516333730238 -0.3382629499752588 0.0
  outer loop
    vertex 28.575 30.479999999999997 0.0
    vertex 18.887721747701686 3.5298742976992434 8.466666666666665
    vertex 18.887721747701686 3.5298742976992434 0.0
  endloop
endfacet
facet normal 0.9410516333730238 -0.3382629499752588 0.0
  outer loop
    vertex 18.887721747701686 3.5298742976992434 8.466666666666665
    vertex 28.575 30.479999999999997 0.0
    vertex 28.575 30.479999999999997 8.466666666666665
  endloop
endfacet
facet normal 0.9238795325112867 -0.3826834323650901 0.0
  outer loop
    vertex 18.887721747701686 3.5298742976992434 0.0
    vertex 18.41194598552339 2.381249999999999 8.466666666666665
    vertex 18.41194598552339 2.381249999999999 0.0
  endloop
endfacet
facet normal 0.8660254037844384 -0.5000000000000006 0.0
  outer loop
    vertex 18.41194598552339 2.381249999999999 8.466666666666665
    vertex 18.887721747701686 3.5298742976992434 0.0
    vertex 18.887721747701686 3.5298742976992434 8.466666666666665
  endloop
endfacet
facet normal 0.8660254037844384 -0.5000000000000006 0.0
  outer loop
    vertex 18.41194598552339 2.381249999999999 0.0
    vertex 17.65509604540093 1.394903954599067 8.466666666666665
    vertex 17.65509604540093 1.394903954599067 0.0
  endloop
endfacet
facet normal 0.7071067811865474 -0.7071067811865477 0.0
  outer loop
    vertex 17.65509604540093 1.394903954599067 8.466666666666665
    vertex 18.41194598552339 2.381249999999999 0.0
    vertex 18.41194598552339 2.381249999999999 8.466666666666665
  endloop
endfacet
facet normal 0.7071067811865474 -0.7071067811865477 0.0
  outer loop
    vertex 17.65509604540093 1.394903954599067 8.466666666666665
    vertex 16.66875 0.6380540144766108 0.0
    vertex 17.65509604540093 1.394903954599067 0.0
  endloop
endfacet
facet normal 0.5000000000000003 -0.8660254037844386 0.0
  outer loop
    vertex 16.66875 0.6380540144766108 0.0
    vertex 17.65509604540093 1.394903954599067 8.466666666666665
    vertex 16.66875 0.6380540144766108 8.466666666666665
  endloop
endfacet
facet normal 0.5000000000000003 -0.8660254037844386 0.0
  outer loop
    vertex 16.66875 0.6380540144766108 8.466666666666665
    vertex 15.520125702300756 0.16227825229831197 0.0
    vertex 16.66875 0.6380540144766108 0.0
  endloop
endfacet
facet normal 0.2588190451025208 -0.9659258262890682 0.0
  outer loop
    vertex 15.520125702300756 0.16227825229831197 0.0
    vertex 16.66875 0.6380540144766108 8.466666666666665
    vertex 15.520125702300756 0.16227825229831197 8.466666666666665
  endloop
endfacet
facet normal 0.2588190451025208 -0.9659258262890682 0.0
  outer loop
    vertex 15.520125702300756 0.16227825229831197 8.466666666666665
    vertex 14.2875 0.0 0.0
    vertex 15.520125702300756 0.16227825229831197 0.0
  endloop
endfacet
facet normal -4.009999453041107e-16 -1.0 0.0
  outer loop
    vertex 14.2875 0.0 0.0
    vertex 15.520125702300756 0.16227825229831197 8.466666666666665
    vertex 14.2875 0.0 8.466666666666665
  endloop
endfacet
facet normal -4.009999453041107e-16 -1.0 0.0
  outer loop
    vertex 14.2875 0.0 8.466666666666665
    vertex 13.05487429769924 0.16227825229831339 0.0
    vertex 14.2875 0.0 0.0
  endloop
endfacet
facet normal -0.2588190451025212 -0.9659258262890682 0.0
  outer loop
    vertex 13.05487429769924 0.16227825229831339 0.0
    vertex 14.2875 0.0 8.466666666666665
    vertex 13.05487429769924 0.16227825229831339 8.466666666666665
  endloop
endfacet
facet normal -0.2588190451025212 -0.9659258262890682 0.0
  outer loop
    vertex 13.05487429769924 0.16227825229831339 8.466666666666665
    vertex 11.906249999999996 0.6380540144766123 0.0
    vertex 13.05487429769924 0.16227825229831339 0.0
  endloop
endfacet
facet normal -0.5000000000000004 -0.8660254037844384 0.0
  outer loop
    vertex 11.906249999999996 0.6380540144766123 0.0
    vertex 13.05487429769924 0.16227825229831339 8.466666666666665
    vertex 11.906249999999996 0.6380540144766123 8.466666666666665
  endloop
endfacet
facet normal -0.5000000000000004 -0.8660254037844384 0.0
  outer loop
    vertex 11.906249999999996 0.6380540144766123 8.466666666666665
    vertex 10.919903954599066 1.3949039545990676 0.0
    vertex 11.906249999999996 0.6380540144766123 0.0
  endloop
endfacet
facet normal -0.707106781186548 -0.7071067811865471 0.0
  outer loop
    vertex 10.919903954599066 1.3949039545990676 0.0
    vertex 11.906249999999996 0.6380540144766123 8.466666666666665
    vertex 10.919903954599066 1.3949039545990676 8.466666666666665
  endloop
endfacet
facet normal -0.866025403784439 -0.4999999999999995 0.0
  outer loop
    vertex 10.163054014476609 2.381250000000003 8.466666666666665
    vertex 10.919903954599066 1.3949039545990676 0.0
    vertex 10.919903954599066 1.3949039545990676 8.466666666666665
  endloop
endfacet
facet normal -0.707106781186548 -0.7071067811865471 0.0
  outer loop
    vertex 10.919903954599066 1.3949039545990676 0.0
    vertex 10.163054014476609 2.381250000000003 8.466666666666665
    vertex 10.163054014476609 2.381250000000003 0.0
  endloop
endfacet
facet normal -0.923879532511287 -0.3826834323650893 -0.0
  outer loop
    vertex 9.687278252298311 3.529874297699247 8.466666666666665
    vertex 10.163054014476609 2.381250000000003 0.0
    vertex 10.163054014476609 2.381250000000003 8.466666666666665
  endloop
endfacet
facet normal -0.866025403784439 -0.4999999999999995 0.0
  outer loop
    vertex 10.163054014476609 2.381250000000003 0.0
    vertex 9.687278252298311 3.529874297699247 8.466666666666665
    vertex 9.687278252298311 3.529874297699247 0.0
  endloop
endfacet
facet normal -0.9410516333730238 -0.3382629499752588 -0.0
  outer loop
    vertex 0.0 30.480000000000004 8.466666666666665
    vertex 9.687278252298311 3.529874297699247 0.0
    vertex 9.687278252298311 3.529874297699247 8.466666666666665
  endloop
endfacet
facet normal -0.9410516333730238 -0.3382629499752588 -0.0
  outer loop
    vertex 9.687278252298311 3.529874297699247 0.0
    vertex 0.0 30.480000000000004 8.466666666666665
    vertex 0.0 30.480000000000004 0.0
  endloop
endfacet
facet normal -0.99764974978673 0.06851990039744026 0.0
  outer loop
    vertex 7.9375 146.04999999999998 8.466666666666665
    vertex 0.0 30.480000000000004 0.0
    vertex 0.0 30.480000000000004 8.466666666666665
  endloop
endfacet
facet normal -0.99764974978673 0.06851990039744026 0.0
  outer loop
    vertex 0.0 30.480000000000004 0.0
    vertex 7.9375 146.04999999999998 8.466666666666665
    vertex 7.9375 146.04999999999998 0.0
  endloop
endfacet
facet normal -0.9659258262890683 0.25881904510252046 0.0
  outer loop
    vertex 8.153871003064417 147.693500936401 8.466666666666665
    vertex 7.9375 146.04999999999998 0.0
    vertex 7.9375 146.04999999999998 8.466666666666665
  endloop
endfacet
facet normal -0.9914448613738104 0.13052619222005238 0.0
  outer loop
    vertex 7.9375 146.04999999999998 0.0
    vertex 8.153871003064417 147.693500936401 8.466666666666665
    vertex 8.153871003064417 147.693500936401 0.0
  endloop
endfacet
facet normal -0.8660254037844382 0.5000000000000007 0.0
  outer loop
    vertex 8.788238685968814 149.225 8.466666666666665
    vertex 8.153871003064417 147.693500936401 0.0
    vertex 8.153871003064417 147.693500936401 8.466666666666665
  endloop
endfacet
facet normal -0.9659258262890683 0.25881904510252046 0.0
  outer loop
    vertex 8.153871003064417 147.693500936401 0.0
    vertex 8.788238685968814 149.225 8.466666666666665
    vertex 8.788238685968814 149.225 0.0
  endloop
endfacet
facet normal -0.7071067811865467 0.7071067811865485 0.0
  outer loop
    vertex 9.797371939465423 150.54012806053456 8.466666666666665
    vertex 8.788238685968814 149.225 0.0
    vertex 8.788238685968814 149.225 8.466666666666665
  endloop
endfacet
facet normal -0.8660254037844382 0.5000000000000007 0.0
  outer loop
    vertex 8.788238685968814 149.225 0.0
    vertex 9.797371939465423 150.54012806053456 8.466666666666665
    vertex 9.797371939465423 150.54012806053456 0.0
  endloop
endfacet
facet normal -0.7071067811865467 0.7071067811865485 0.0
  outer loop
    vertex 9.797371939465423 150.54012806053456 8.466666666666665
    vertex 11.112499999999999 151.54926131403116 0.0
    vertex 9.797371939465423 150.54012806053456 0.0
  endloop
endfacet
facet normal -0.5000000000000041 0.8660254037844364 0.0
  outer loop
    vertex 11.112499999999999 151.54926131403116 0.0
    vertex 9.797371939465423 150.54012806053456 8.466666666666665
    vertex 11.112499999999999 151.54926131403116 8.466666666666665
  endloop
endfacet
facet normal -0.5000000000000041 0.8660254037844364 0.0
  outer loop
    vertex 11.112499999999999 151.54926131403116 8.466666666666665
    vertex 12.643999063598992 152.1836289969356 0.0
    vertex 11.112499999999999 151.54926131403116 0.0
  endloop
endfacet
facet normal -0.2588190451025226 0.9659258262890678 0.0
  outer loop
    vertex 12.643999063598992 152.1836289969356 0.0
    vertex 11.112499999999999 151.54926131403116 8.466666666666665
    vertex 12.643999063598992 152.1836289969356 8.466666666666665
  endloop
endfacet
facet normal -0.2588190451025226 0.9659258262890678 0.0
  outer loop
    vertex 12.643999063598992 152.1836289969356 8.466666666666665
    vertex 14.2875 152.39999999999998 0.0
    vertex 12.643999063598992 152.1836289969356 0.0
  endloop
endfacet
facet normal -2.2277774739117245e-16 1.0 0.0
  outer loop
    vertex 14.2875 152.39999999999998 0.0
    vertex 12.643999063598992 152.1836289969356 8.466666666666665
    vertex 14.2875 152.39999999999998 8.466666666666665
  endloop
endfacet
facet normal -2.2277774739117245e-16 1.0 0.0
  outer loop
    vertex 14.2875 152.39999999999998 8.466666666666665
    vertex 15.931000936401011 152.1836289969356 0.0
    vertex 14.2875 152.39999999999998 0.0
  endloop
endfacet
facet normal 0.2588190451025227 0.9659258262890679 0.0
  outer loop
    vertex 15.931000936401011 152.1836289969356 0.0
    vertex 14.2875 152.39999999999998 8.466666666666665
    vertex 15.931000936401011 152.1836289969356 8.466666666666665
  endloop
endfacet
facet normal 0.2588190451025227 0.9659258262890679 0.0
  outer loop
    vertex 15.931000936401011 152.1836289969356 8.466666666666665
    vertex 17.462500000000002 151.54926131403116 0.0
    vertex 15.931000936401011 152.1836289969356 0.0
  endloop
endfacet
facet normal 0.5000000000000043 0.8660254037844362 0.0
  outer loop
    vertex 17.462500000000002 151.54926131403116 0.0
    vertex 15.931000936401011 152.1836289969356 8.466666666666665
    vertex 17.462500000000002 151.54926131403116 8.466666666666665
  endloop
endfacet
facet normal 0.5000000000000043 0.8660254037844362 0.0
  outer loop
    vertex 17.462500000000002 151.54926131403116 8.466666666666665
    vertex 18.77762806053458 150.54012806053456 0.0
    vertex 17.462500000000002 151.54926131403116 0.0
  endloop
endfacet
facet normal 0.7071067811865466 0.7071067811865487 0.0
  outer loop
    vertex 18.77762806053458 150.54012806053456 0.0
    vertex 17.462500000000002 151.54926131403116 8.466666666666665
    vertex 18.77762806053458 150.54012806053456 8.466666666666665
  endloop
endfacet
facet normal 0.7071067811865466 0.7071067811865487 0.0
  outer loop
    vertex 18.77762806053458 150.54012806053456 0.0
    vertex 19.78676131403119 149.225 8.466666666666665
    vertex 19.78676131403119 149.225 0.0
  endloop
endfacet
facet normal 0.8660254037844382 0.5000000000000007 0.0
  outer loop
    vertex 19.78676131403119 149.225 8.466666666666665
    vertex 18.77762806053458 150.54012806053456 0.0
    vertex 18.77762806053458 150.54012806053456 8.466666666666665
  endloop
endfacet
facet normal 0.8660254037844382 0.5000000000000007 0.0
  outer loop
    vertex 19.78676131403119 149.225 0.0
    vertex 20.421128996935586 147.693500936401 8.466666666666665
    vertex 20.421128996935586 147.693500936401 0.0
  endloop
endfacet
facet normal 0.9659258262890688 0.25881904510251924 0.0
  outer loop
    vertex 20.421128996935586 147.693500936401 8.466666666666665
    vertex 19.78676131403119 149.225 0.0
    vertex 19.78676131403119 149.225 8.466666666666665
  endloop
endfacet
facet normal 0.7071067811865486 -0.7071067811865467 0.0
  outer loop
    vertex 12.603701977299533 147.73379802270046 0.0
    vertex 12.225277007238304 147.240625 8.466666666666665
    vertex 12.225277007238304 147.240625 0.0
  endloop
endfacet
facet normal 0.8660254037844358 -0.5000000000000051 0.0
  outer loop
    vertex 12.225277007238304 147.240625 8.466666666666665
    vertex 12.603701977299533 147.73379802270046 0.0
    vertex 12.603701977299533 147.73379802270046 8.466666666666665
  endloop
endfacet
facet normal 0.8660254037844358 -0.5000000000000051 0.0
  outer loop
    vertex 12.225277007238304 147.240625 0.0
    vertex 11.987389126149155 146.66631285115037 8.466666666666665
    vertex 11.987389126149155 146.66631285115037 0.0
  endloop
endfacet
facet normal 0.9659258262890681 -0.2588190451025214 0.0
  outer loop
    vertex 11.987389126149155 146.66631285115037 8.466666666666665
    vertex 12.225277007238304 147.240625 0.0
    vertex 12.225277007238304 147.240625 8.466666666666665
  endloop
endfacet
facet normal 0.9659258262890681 -0.2588190451025214 0.0
  outer loop
    vertex 11.987389126149155 146.66631285115037 0.0
    vertex 11.90625 146.04999999999998 8.466666666666665
    vertex 11.90625 146.04999999999998 0.0
  endloop
endfacet
facet normal 1.0 0.0 0.0
  outer loop
    vertex 11.90625 146.04999999999998 8.466666666666665
    vertex 11.987389126149155 146.66631285115037 0.0
    vertex 11.987389126149155 146.66631285115037 8.466666666666665
  endloop
endfacet
facet normal 1.0 0.0 0.0
  outer loop
    vertex 11.90625 146.04999999999998 0.0
    vertex 11.987389126149155 145.4336871488496 8.466666666666665
    vertex 11.987389126149155 145.4336871488496 0.0
  endloop
endfacet
facet normal 0.9659258262890681 0.2588190451025214 0.0
  outer loop
    vertex 11.987389126149155 145.4336871488496 8.466666666666665
    vertex 11.90625 146.04999999999998 0.0
    vertex 11.90625 146.04999999999998 8.466666666666665
  endloop
endfacet
facet normal 0.9659258262890681 0.2588190451025214 0.0
  outer loop
    vertex 11.987389126149155 145.4336871488496 0.0
    vertex 12.225277007238304 144.859375 8.466666666666665
    vertex 12.225277007238304 144.859375 0.0
  endloop
endfacet
facet normal 0.8660254037844358 0.5000000000000051 0.0
  outer loop
    vertex 12.225277007238304 144.859375 8.466666666666665
    vertex 11.987389126149155 145.4336871488496 0.0
    vertex 11.987389126149155 145.4336871488496 8.466666666666665
  endloop
endfacet
facet normal 0.8660254037844358 0.5000000000000051 0.0
  outer loop
    vertex 12.225277007238304 144.859375 0.0
    vertex 12.603701977299533 144.36620197729954 8.466666666666665
    vertex 12.603701977299533 144.36620197729954 0.0
  endloop
endfacet
facet normal 0.7071067811865486 0.7071067811865467 0.0
  outer loop
    vertex 12.603701977299533 144.36620197729954 8.466666666666665
    vertex 12.225277007238304 144.859375 0.0
    vertex 12.225277007238304 144.859375 8.466666666666665
  endloop
endfacet
facet normal 0.7071067811865486 0.7071067811865467 0.0
  outer loop
    vertex 12.603701977299533 144.36620197729954 8.466666666666665
    vertex 13.096874999999999 143.9877770072383 0.0
    vertex 12.603701977299533 144.36620197729954 0.0
  endloop
endfacet
facet normal 0.5000000000000018 0.8660254037844376 0.0
  outer loop
    vertex 13.096874999999999 143.9877770072383 0.0
    vertex 12.603701977299533 144.36620197729954 8.466666666666665
    vertex 13.096874999999999 143.9877770072383 8.466666666666665
  endloop
endfacet
facet normal 0.5000000000000018 0.8660254037844376 0.0
  outer loop
    vertex 13.096874999999999 143.9877770072383 8.466666666666665
    vertex 13.67118714884962 143.74988912614916 0.0
    vertex 13.096874999999999 143.9877770072383 0.0
  endloop
endfacet
facet normal 0.25881904510252113 0.9659258262890682 0.0
  outer loop
    vertex 13.67118714884962 143.74988912614916 0.0
    vertex 13.096874999999999 143.9877770072383 8.466666666666665
    vertex 13.67118714884962 143.74988912614916 8.466666666666665
  endloop
endfacet
facet normal 0.25881904510252113 0.9659258262890682 0.0
  outer loop
    vertex 13.67118714884962 143.74988912614916 8.466666666666665
    vertex 14.2875 143.66875 0.0
    vertex 13.67118714884962 143.74988912614916 0.0
  endloop
endfacet
facet normal -2.9406662655634815e-16 1.0 0.0
  outer loop
    vertex 14.2875 143.66875 0.0
    vertex 13.67118714884962 143.74988912614916 8.466666666666665
    vertex 14.2875 143.66875 8.466666666666665
  endloop
endfacet
facet normal -2.9406662655634815e-16 1.0 0.0
  outer loop
    vertex 14.2875 143.66875 8.466666666666665
    vertex 14.903812851150375 143.74988912614916 0.0
    vertex 14.2875 143.66875 0.0
  endloop
endfacet
facet normal -0.2588190451025205 0.9659258262890683 0.0
  outer loop
    vertex 14.903812851150375 143.74988912614916 0.0
    vertex 14.2875 143.66875 8.466666666666665
    vertex 14.903812851150375 143.74988912614916 8.466666666666665
  endloop
endfacet
facet normal -0.2588190451025205 0.9659258262890683 0.0
  outer loop
    vertex 14.903812851150375 143.74988912614916 8.466666666666665
    vertex 15.478124999999999 143.9877770072383 0.0
    vertex 14.903812851150375 143.74988912614916 0.0
  endloop
endfacet
facet normal -0.5000000000000011 0.866025403784438 0.0
  outer loop
    vertex 15.478124999999999 143.9877770072383 0.0
    vertex 14.903812851150375 143.74988912614916 8.466666666666665
    vertex 15.478124999999999 143.9877770072383 8.466666666666665
  endloop
endfacet
facet normal -0.5000000000000011 0.866025403784438 0.0
  outer loop
    vertex 15.478124999999999 143.9877770072383 8.466666666666665
    vertex 15.971298022700465 144.36620197729954 0.0
    vertex 15.478124999999999 143.9877770072383 0.0
  endloop
endfacet
facet normal -0.7071067811865486 0.7071067811865467 0.0
  outer loop
    vertex 15.971298022700465 144.36620197729954 0.0
    vertex 15.478124999999999 143.9877770072383 8.466666666666665
    vertex 15.971298022700465 144.36620197729954 8.466666666666665
  endloop
endfacet
facet normal -0.8660254037844358 0.5000000000000051 0.0
  outer loop
    vertex 16.349722992761695 144.859375 8.466666666666665
    vertex 15.971298022700465 144.36620197729954 0.0
    vertex 15.971298022700465 144.36620197729954 8.466666666666665
  endloop
endfacet
facet normal -0.7071067811865486 0.7071067811865467 0.0
  outer loop
    vertex 15.971298022700465 144.36620197729954 0.0
    vertex 16.349722992761695 144.859375 8.466666666666665
    vertex 16.349722992761695 144.859375 0.0
  endloop
endfacet
facet normal -0.9659258262890681 0.2588190451025214 0.0
  outer loop
    vertex 16.587610873850842 145.4336871488496 8.466666666666665
    vertex 16.349722992761695 144.859375 0.0
    vertex 16.349722992761695 144.859375 8.466666666666665
  endloop
endfacet
facet normal -0.8660254037844358 0.5000000000000051 0.0
  outer loop
    vertex 16.349722992761695 144.859375 0.0
    vertex 16.587610873850842 145.4336871488496 8.466666666666665
    vertex 16.587610873850842 145.4336871488496 0.0
  endloop
endfacet
facet normal -1.0 0.0 0.0
  outer loop
    vertex 16.66875 146.04999999999998 8.466666666666665
    vertex 16.587610873850842 145.4336871488496 0.0
    vertex 16.587610873850842 145.4336871488496 8.466666666666665
  endloop
endfacet
facet normal -0.9659258262890681 0.2588190451025214 0.0
  outer loop
    vertex 16.587610873850842 145.4336871488496 0.0
    vertex 16.66875 146.04999999999998 8.466666666666665
    vertex 16.66875 146.04999999999998 0.0
  endloop
endfacet
facet normal -0.9659258262890681 -0.2588190451025214 0.0
  outer loop
    vertex 16.587610873850842 146.66631285115037 8.466666666666665
    vertex 16.66875 146.04999999999998 0.0
    vertex 16.66875 146.04999999999998 8.466666666666665
  endloop
endfacet
facet normal -1.0 0.0 0.0
  outer loop
    vertex 16.66875 146.04999999999998 0.0
    vertex 16.587610873850842 146.66631285115037 8.466666666666665
    vertex 16.587610873850842 146.66631285115037 0.0
  endloop
endfacet
facet normal -0.8660254037844358 -0.5000000000000051 0.0
  outer loop
    vertex 16.349722992761695 147.240625 8.466666666666665
    vertex 16.587610873850842 146.66631285115037 0.0
    vertex 16.587610873850842 146.66631285115037 8.466666666666665
  endloop
endfacet
facet normal -0.9659258262890681 -0.2588190451025214 0.0
  outer loop
    vertex 16.587610873850842 146.66631285115037 0.0
    vertex 16.349722992761695 147.240625 8.466666666666665
    vertex 16.349722992761695 147.240625 0.0
  endloop
endfacet
facet normal -0.7071067811865486 -0.7071067811865467 0.0
  outer loop
    vertex 15.971298022700465 147.73379802270046 8.466666666666665
    vertex 16.349722992761695 147.240625 0.0
    vertex 16.349722992761695 147.240625 8.466666666666665
  endloop
endfacet
facet normal -0.8660254037844358 -0.5000000000000051 0.0
  outer loop
    vertex 16.349722992761695 147.240625 0.0
    vertex 15.971298022700465 147.73379802270046 8.466666666666665
    vertex 15.971298022700465 147.73379802270046 0.0
  endloop
endfacet
facet normal -0.7071067811865486 -0.7071067811865467 0.0
  outer loop
    vertex 15.971298022700465 147.73379802270046 8.466666666666665
    vertex 15.478124999999999 148.11222299276167 0.0
    vertex 15.971298022700465 147.73379802270046 0.0
  endloop
endfacet
facet normal -0.5000000000000018 -0.8660254037844376 0.0
  outer loop
    vertex 15.478124999999999 148.11222299276167 0.0
    vertex 15.971298022700465 147.73379802270046 8.466666666666665
    vertex 15.478124999999999 148.11222299276167 8.466666666666665
  endloop
endfacet
facet normal -0.5000000000000018 -0.8660254037844376 0.0
  outer loop
    vertex 15.478124999999999 148.11222299276167 8.466666666666665
    vertex 14.903812851150377 148.35011087385084 0.0
    vertex 15.478124999999999 148.11222299276167 0.0
  endloop
endfacet
facet normal -0.25881904510252113 -0.9659258262890682 0.0
  outer loop
    vertex 14.903812851150377 148.35011087385084 0.0
    vertex 15.478124999999999 148.11222299276167 8.466666666666665
    vertex 14.903812851150377 148.35011087385084 8.466666666666665
  endloop
endfacet
facet normal -0.25881904510252113 -0.9659258262890682 0.0
  outer loop
    vertex 14.903812851150377 148.35011087385084 8.466666666666665
    vertex 14.2875 148.43125 0.0
    vertex 14.903812851150377 148.35011087385084 0.0
  endloop
endfacet
facet normal 0.0 -1.0 0.0
  outer loop
    vertex 14.2875 148.43125 0.0
    vertex 14.903812851150377 148.35011087385084 8.466666666666665
    vertex 14.2875 148.43125 8.466666666666665
  endloop
endfacet
facet normal 0.0 -1.0 0.0
  outer loop
    vertex 14.2875 148.43125 8.466666666666665
    vertex 13.67118714884962 148.35011087385084 0.0
    vertex 14.2875 148.43125 0.0
  endloop
endfacet
facet normal 0.25881904510252113 -0.9659258262890682 0.0
  outer loop
    vertex 13.67118714884962 148.35011087385084 0.0
    vertex 14.2875 148.43125 8.466666666666665
    vertex 13.67118714884962 148.35011087385084 8.466666666666665
  endloop
endfacet
facet normal 0.25881904510252113 -0.9659258262890682 0.0
  outer loop
    vertex 13.67118714884962 148.35011087385084 8.466666666666665
    vertex 13.096874999999999 148.11222299276167 0.0
    vertex 13.67118714884962 148.35011087385084 0.0
  endloop
endfacet
facet normal 0.5000000000000018 -0.8660254037844376 0.0
  outer loop
    vertex 13.096874999999999 148.11222299276167 0.0
    vertex 13.67118714884962 148.35011087385084 8.466666666666665
    vertex 13.096874999999999 148.11222299276167 8.466666666666665
  endloop
endfacet
facet normal 0.5000000000000018 -0.8660254037844376 0.0
  outer loop
    vertex 13.096874999999999 148.11222299276167 8.466666666666665
    vertex 12.603701977299533 147.73379802270046 0.0
    vertex 13.096874999999999 148.11222299276167 0.0
  endloop
endfacet
facet normal 0.7071067811865486 -0.7071067811865467 0.0
  outer loop
    vertex 12.603701977299533 147.73379802270046 0.0
    vertex 13.096874999999999 148.11222299276167 8.466666666666665
    vertex 12.603701977299533 147.73379802270046 8.466666666666665
  endloop
endfacet
facet normal -1.0 -5.703110333214018e-16 0.0
  outer loop
    vertex 16.66875 36.512499999999996 8.466666666666665
    vertex 16.587610873850842 35.89618714884962 0.0
    vertex 16.587610873850842 35.89618714884962 8.466666666666665
  endloop
endfacet
facet normal -0.9659258262890681 0.2588190451025214 0.0
  outer loop
    vertex 16.587610873850842 35.89618714884962 0.0
    vertex 16.66875 36.512499999999996 8.466666666666665
    vertex 16.66875 36.512499999999996 0.0
  endloop
endfacet
facet normal -0.9659258262890684 -0.2588190451025203 0.0
  outer loop
    vertex 16.587610873850842 37.12881285115037 8.466666666666665
    vertex 16.66875 36.512499999999996 0.0
    vertex 16.66875 36.512499999999996 8.466666666666665
  endloop
endfacet
facet normal -1.0 -5.703110333214018e-16 0.0
  outer loop
    vertex 16.66875 36.512499999999996 0.0
    vertex 16.587610873850842 37.12881285115037 8.466666666666665
    vertex 16.587610873850842 37.12881285115037 0.0
  endloop
endfacet
facet normal -0.8660254037844389 -0.4999999999999997 0.0
  outer loop
    vertex 16.349722992761695 37.703125 8.466666666666665
    vertex 16.587610873850842 37.12881285115037 0.0
    vertex 16.587610873850842 37.12881285115037 8.466666666666665
  endloop
endfacet
facet normal -0.9659258262890684 -0.2588190451025203 0.0
  outer loop
    vertex 16.587610873850842 37.12881285115037 0.0
    vertex 16.349722992761695 37.703125 8.466666666666665
    vertex 16.349722992761695 37.703125 0.0
  endloop
endfacet
facet normal -0.7071067811865481 -0.707106781186547 0.0
  outer loop
    vertex 15.971298022700468 38.19629802270046 8.466666666666665
    vertex 16.349722992761695 37.703125 0.0
    vertex 16.349722992761695 37.703125 8.466666666666665
  endloop
endfacet
facet normal -0.8660254037844389 -0.4999999999999997 0.0
  outer loop
    vertex 16.349722992761695 37.703125 0.0
    vertex 15.971298022700468 38.19629802270046 8.466666666666665
    vertex 15.971298022700468 38.19629802270046 0.0
  endloop
endfacet
facet normal -0.7071067811865481 -0.707106781186547 0.0
  outer loop
    vertex 15.971298022700468 38.19629802270046 8.466666666666665
    vertex 15.478124999999999 38.57472299276169 0.0
    vertex 15.971298022700468 38.19629802270046 0.0
  endloop
endfacet
facet normal -0.500000000000001 -0.8660254037844379 0.0
  outer loop
    vertex 15.478124999999999 38.57472299276169 0.0
    vertex 15.971298022700468 38.19629802270046 8.466666666666665
    vertex 15.478124999999999 38.57472299276169 8.466666666666665
  endloop
endfacet
facet normal -0.500000000000001 -0.8660254037844379 0.0
  outer loop
    vertex 15.478124999999999 38.57472299276169 8.466666666666665
    vertex 14.903812851150377 38.81261087385084 0.0
    vertex 15.478124999999999 38.57472299276169 0.0
  endloop
endfacet
facet normal -0.2588190451025208 -0.9659258262890682 0.0
  outer loop
    vertex 14.903812851150377 38.81261087385084 0.0
    vertex 15.478124999999999 38.57472299276169 8.466666666666665
    vertex 14.903812851150377 38.81261087385084 8.466666666666665
  endloop
endfacet
facet normal -0.2588190451025208 -0.9659258262890682 0.0
  outer loop
    vertex 14.903812851150377 38.81261087385084 8.466666666666665
    vertex 14.2875 38.89375 0.0
    vertex 14.903812851150377 38.81261087385084 0.0
  endloop
endfacet
facet normal 2.76244406765054e-16 -1.0 0.0
  outer loop
    vertex 14.2875 38.89375 0.0
    vertex 14.903812851150377 38.81261087385084 8.466666666666665
    vertex 14.2875 38.89375 8.466666666666665
  endloop
endfacet
facet normal 2.76244406765054e-16 -1.0 0.0
  outer loop
    vertex 14.2875 38.89375 8.466666666666665
    vertex 13.671187148849624 38.81261087385084 0.0
    vertex 14.2875 38.89375 0.0
  endloop
endfacet
facet normal 0.2588190451025211 -0.9659258262890682 0.0
  outer loop
    vertex 13.671187148849624 38.81261087385084 0.0
    vertex 14.2875 38.89375 8.466666666666665
    vertex 13.671187148849624 38.81261087385084 8.466666666666665
  endloop
endfacet
facet normal 0.2588190451025211 -0.9659258262890682 0.0
  outer loop
    vertex 13.671187148849624 38.81261087385084 8.466666666666665
    vertex 13.096875000000002 38.57472299276169 0.0
    vertex 13.671187148849624 38.81261087385084 0.0
  endloop
endfacet
facet normal 0.499999999999998 -0.8660254037844397 0.0
  outer loop
    vertex 13.096875000000002 38.57472299276169 0.0
    vertex 13.671187148849624 38.81261087385084 8.466666666666665
    vertex 13.096875000000002 38.57472299276169 8.466666666666665
  endloop
endfacet
facet normal 0.499999999999998 -0.8660254037844397 0.0
  outer loop
    vertex 13.096875000000002 38.57472299276169 8.466666666666665
    vertex 12.603701977299533 38.19629802270047 0.0
    vertex 13.096875000000002 38.57472299276169 0.0
  endloop
endfacet
facet normal 0.7071067811865462 -0.7071067811865488 0.0
  outer loop
    vertex 12.603701977299533 38.19629802270047 0.0
    vertex 13.096875000000002 38.57472299276169 8.466666666666665
    vertex 12.603701977299533 38.19629802270047 8.466666666666665
  endloop
endfacet
facet normal 0.7071067811865462 -0.7071067811865488 0.0
  outer loop
    vertex 12.603701977299533 38.19629802270047 0.0
    vertex 12.225277007238304 37.703125 8.466666666666665
    vertex 12.225277007238304 37.703125 0.0
  endloop
endfacet
facet normal 0.8660254037844386 -0.5000000000000003 0.0
  outer loop
    vertex 12.225277007238304 37.703125 8.466666666666665
    vertex 12.603701977299533 38.19629802270047 0.0
    vertex 12.603701977299533 38.19629802270047 8.466666666666665
  endloop
endfacet
facet normal 0.8660254037844386 -0.5000000000000003 0.0
  outer loop
    vertex 12.225277007238304 37.703125 0.0
    vertex 11.987389126149155 37.12881285115038 8.466666666666665
    vertex 11.987389126149155 37.12881285115038 0.0
  endloop
endfacet
facet normal 0.9659258262890681 -0.2588190451025214 0.0
  outer loop
    vertex 11.987389126149155 37.12881285115038 8.466666666666665
    vertex 12.225277007238304 37.703125 0.0
    vertex 12.225277007238304 37.703125 8.466666666666665
  endloop
endfacet
facet normal 0.9659258262890681 -0.2588190451025214 0.0
  outer loop
    vertex 11.987389126149155 37.12881285115038 0.0
    vertex 11.90625 36.512499999999996 8.466666666666665
    vertex 11.90625 36.512499999999996 0.0
  endloop
endfacet
facet normal 1.0 5.703110333214018e-16 0.0
  outer loop
    vertex 11.90625 36.512499999999996 8.466666666666665
    vertex 11.987389126149155 37.12881285115038 0.0
    vertex 11.987389126149155 37.12881285115038 8.466666666666665
  endloop
endfacet
facet normal 1.0 5.703110333214018e-16 0.0
  outer loop
    vertex 11.90625 36.512499999999996 0.0
    vertex 11.987389126149155 35.89618714884962 8.466666666666665
    vertex 11.987389126149155 35.89618714884962 0.0
  endloop
endfacet
facet normal 0.9659258262890684 0.2588190451025203 0.0
  outer loop
    vertex 11.987389126149155 35.89618714884962 8.466666666666665
    vertex 11.90625 36.512499999999996 0.0
    vertex 11.90625 36.512499999999996 8.466666666666665
  endloop
endfacet
facet normal 0.9659258262890684 0.2588190451025203 0.0
  outer loop
    vertex 11.987389126149155 35.89618714884962 0.0
    vertex 12.225277007238304 35.321875 8.466666666666665
    vertex 12.225277007238304 35.321875 0.0
  endloop
endfacet
facet normal 0.8660254037844394 0.49999999999999883 0.0
  outer loop
    vertex 12.225277007238304 35.321875 8.466666666666665
    vertex 11.987389126149155 35.89618714884962 0.0
    vertex 11.987389126149155 35.89618714884962 8.466666666666665
  endloop
endfacet
facet normal 0.8660254037844394 0.49999999999999883 0.0
  outer loop
    vertex 12.225277007238304 35.321875 0.0
    vertex 12.603701977299533 34.82870197729953 8.466666666666665
    vertex 12.603701977299533 34.82870197729953 0.0
  endloop
endfacet
facet normal 0.7071067811865474 0.7071067811865479 0.0
  outer loop
    vertex 12.603701977299533 34.82870197729953 8.466666666666665
    vertex 12.225277007238304 35.321875 0.0
    vertex 12.225277007238304 35.321875 8.466666666666665
  endloop
endfacet
facet normal 0.7071067811865474 0.7071067811865479 0.0
  outer loop
    vertex 12.603701977299533 34.82870197729953 8.466666666666665
    vertex 13.096874999999999 34.450277007238306 0.0
    vertex 12.603701977299533 34.82870197729953 0.0
  endloop
endfacet
facet normal 0.4999999999999992 0.8660254037844392 0.0
  outer loop
    vertex 13.096874999999999 34.450277007238306 0.0
    vertex 12.603701977299533 34.82870197729953 8.466666666666665
    vertex 13.096874999999999 34.450277007238306 8.466666666666665
  endloop
endfacet
facet normal 0.4999999999999992 0.8660254037844392 0.0
  outer loop
    vertex 13.096874999999999 34.450277007238306 8.466666666666665
    vertex 13.67118714884962 34.212389126149155 0.0
    vertex 13.096874999999999 34.450277007238306 0.0
  endloop
endfacet
facet normal 0.2588190451025208 0.9659258262890682 0.0
  outer loop
    vertex 13.67118714884962 34.212389126149155 0.0
    vertex 13.096874999999999 34.450277007238306 8.466666666666665
    vertex 13.67118714884962 34.212389126149155 8.466666666666665
  endloop
endfacet
facet normal 0.2588190451025208 0.9659258262890682 0.0
  outer loop
    vertex 13.67118714884962 34.212389126149155 8.466666666666665
    vertex 14.2875 34.13125 0.0
    vertex 13.67118714884962 34.212389126149155 0.0
  endloop
endfacet
facet normal 0.0 1.0 0.0
  outer loop
    vertex 14.2875 34.13125 0.0
    vertex 13.67118714884962 34.212389126149155 8.466666666666665
    vertex 14.2875 34.13125 8.466666666666665
  endloop
endfacet
facet normal 0.0 1.0 0.0
  outer loop
    vertex 14.2875 34.13125 8.466666666666665
    vertex 14.903812851150377 34.212389126149155 0.0
    vertex 14.2875 34.13125 0.0
  endloop
endfacet
facet normal -0.2588190451025208 0.9659258262890682 0.0
  outer loop
    vertex 14.903812851150377 34.212389126149155 0.0
    vertex 14.2875 34.13125 8.466666666666665
    vertex 14.903812851150377 34.212389126149155 8.466666666666665
  endloop
endfacet
facet normal -0.2588190451025208 0.9659258262890682 0.0
  outer loop
    vertex 14.903812851150377 34.212389126149155 8.466666666666665
    vertex 15.478124999999999 34.450277007238306 0.0
    vertex 14.903812851150377 34.212389126149155 0.0
  endloop
endfacet
facet normal -0.4999999999999992 0.8660254037844392 0.0
  outer loop
    vertex 15.478124999999999 34.450277007238306 0.0
    vertex 14.903812851150377 34.212389126149155 8.466666666666665
    vertex 15.478124999999999 34.450277007238306 8.466666666666665
  endloop
endfacet
facet normal -0.4999999999999992 0.8660254037844392 0.0
  outer loop
    vertex 15.478124999999999 34.450277007238306 8.466666666666665
    vertex 15.971298022700465 34.82870197729953 0.0
    vertex 15.478124999999999 34.450277007238306 0.0
  endloop
endfacet
facet normal -0.7071067811865474 0.7071067811865479 0.0
  outer loop
    vertex 15.971298022700465 34.82870197729953 0.0
    vertex 15.478124999999999 34.450277007238306 8.466666666666665
    vertex 15.971298022700465 34.82870197729953 8.466666666666665
  endloop
endfacet
facet normal -0.8660254037844386 0.5000000000000003 0.0
  outer loop
    vertex 16.349722992761695 35.321875 8.466666666666665
    vertex 15.971298022700465 34.82870197729953 0.0
    vertex 15.971298022700465 34.82870197729953 8.466666666666665
  endloop
endfacet
facet normal -0.7071067811865474 0.7071067811865479 0.0
  outer loop
    vertex 15.971298022700465 34.82870197729953 0.0
    vertex 16.349722992761695 35.321875 8.466666666666665
    vertex 16.349722992761695 35.321875 0.0
  endloop
endfacet
facet normal -0.9659258262890681 0.2588190451025214 0.0
  outer loop
    vertex 16.587610873850842 35.89618714884962 8.466666666666665
    vertex 16.349722992761695 35.321875 0.0
    vertex 16.349722992761695 35.321875 8.466666666666665
  endloop
endfacet
facet normal -0.8660254037844386 0.5000000000000003 0.0
  outer loop
    vertex 16.349722992761695 35.321875 0.0
    vertex 16.587610873850842 35.89618714884962 8.466666666666665
    vertex 16.587610873850842 35.89618714884962 0.0
  endloop
endfacet
endsolid Stick
